<?xml version="1.0" encoding="UTF-8" standalone="no"?>
<svg
   inkscape:version="1.2.2 (b0a84865, 2022-12-01)"
   xml:space="preserve"
   sodipodi:docname="final_awards_pre-text-to-path.svg"
   id="svg134"
   version="1.1"
   viewBox="-120 -120 300 299.99996"
   height="249.99997"
   width="250"
   inkscape:export-filename="0.svg"
   inkscape:export-xdpi="96"
   inkscape:export-ydpi="96"
   xmlns:inkscape="http://www.inkscape.org/namespaces/inkscape"
   xmlns:sodipodi="http://sodipodi.sourceforge.net/DTD/sodipodi-0.dtd"
   xmlns="http://www.w3.org/2000/svg"
   xmlns:svg="http://www.w3.org/2000/svg"><defs
     id="defs138" /><sodipodi:namedview
     id="namedview136"
     pagecolor="#ffffff"
     bordercolor="#000000"
     borderopacity="0.25"
     inkscape:showpageshadow="2"
     inkscape:pageopacity="0.0"
     inkscape:pagecheckerboard="0"
     inkscape:deskcolor="#d1d1d1"
     showgrid="false"
     inkscape:zoom="0.35355339"
     inkscape:cx="1480.6816"
     inkscape:cy="663.26616"
     inkscape:window-width="1425"
     inkscape:window-height="949"
     inkscape:window-x="0"
     inkscape:window-y="25"
     inkscape:window-maximized="1"
     inkscape:current-layer="g19337"
     showguides="true" /><style
     type="text/css"
     id="style8571">
	.st0{fill:#ffffff;}
</style><g
     id="g2049"
     inkscape:label="Blocks"
     transform="translate(-14.035156,-404.1618)"><g
       id="g4739"
       inkscape:label="10 blocs"
       transform="matrix(1.4245145,0,0,1.4245145,-136.5578,870.54479)"
       inkscape:export-filename="1.svg"
       inkscape:export-xdpi="96"
       inkscape:export-ydpi="96"><g
         id="g5236"
         inkscape:label="Borders"
         transform="translate(71.479364,-306.33805)"><path
           fill="none"
           stroke="black"
           stroke-width="2"
           d="M 155.29573,3.5528548e-7 Q 164.76573,10.78 153.37573,19.51 q 7.18,12.42 -5.69,18.76 4.62,13.58 -9.24,17.29 1.88,14.22 -12.44,15.15 -0.93,14.32 -15.15,12.44 -3.71,13.86 -17.290004,9.24 -6.34,12.87 -18.76,5.69 -8.73,11.39 -19.51,1.92 -10.78,9.47 -19.51,-1.92 -12.42,7.18 -18.76,-5.69 -13.5800024,4.62 -17.2900022,-9.24 -14.2199978,1.88 -15.1499978,-12.44 -14.32,-0.93 -12.44,-15.15 -13.86,-3.71 -9.24,-17.29 -12.87,-6.34 -5.69,-18.76 -11.39,-8.73 -1.92,-19.50999964471404 Q -54.174274,-10.78 -42.784274,-19.51 q -7.18,-12.42 5.69,-18.76 -4.62,-13.58 9.24,-17.29 -1.88,-14.22 12.44,-15.15 0.93,-14.32 15.1499978,-12.44 3.7099998,-13.86 17.2900022,-9.24 6.34,-12.87 18.76,-5.69 8.73,-11.39 19.51,-1.92 10.78,-9.47 19.51,1.92 12.42,-7.18 18.76,5.69 13.580004,-4.62 17.290004,9.24 14.22,-1.88 15.15,12.44 14.32,0.93 12.44,15.15 13.86,3.71 9.24,17.29 12.87,6.34 5.69,18.76 11.39,8.73 1.92,19.51000035528548 z"
           id="path5230"
           style="fill:#04344d;fill-opacity:1;stroke:#04344d;stroke-opacity:1"
           inkscape:export-filename="path132.svg"
           inkscape:export-xdpi="96"
           inkscape:export-ydpi="96" /><circle
           style="fill:none;fill-opacity:1;stroke:#ffffff;stroke-width:3.6;stroke-linecap:round;stroke-dasharray:none;stroke-opacity:1;paint-order:stroke fill markers"
           id="circle5232"
           cx="55.295727"
           cy="1.4210855e-14"
           r="92.730682" /><circle
           style="fill:none;fill-opacity:1;stroke:#ffffff;stroke-width:2.22;stroke-linecap:round;stroke-dasharray:none;stroke-opacity:1;paint-order:stroke fill markers"
           id="circle5234"
           cx="55.295727"
           cy="0"
           r="86.865753" /></g><g
         id="g4697"
         inkscape:label="Texts"
         transform="translate(71.479365,-306.35262)"><circle
           style="fill:none;fill-opacity:1;stroke:none;stroke-width:3.01836;stroke-linecap:round;stroke-opacity:1;paint-order:stroke fill markers"
           id="circle4681"
           cx="-1.4210855e-14"
           cy="-55.295727"
           transform="matrix(0,-1,-1,0,0,0)"
           r="76.490822"
           inkscape:label="Bottom-text-path" /><circle
           style="fill:none;fill-opacity:1;stroke:none;stroke-width:2.48601;stroke-linecap:round;stroke-opacity:1;paint-order:stroke fill markers"
           id="circle4683"
           cx="1.4210855e-14"
           cy="-55.295727"
           transform="rotate(90)"
           inkscape:label="Top-text-path"
           r="63" /><g
           aria-label="Cexplorer.io"
           id="text4691"
           style="font-size:16.8px;font-family:ROBOTO;-inkscape-font-specification:ROBOTO;text-align:center;letter-spacing:1.2px;text-anchor:middle;fill:#fefeff;stroke:#ffffff;stroke-width:0.744;stroke-linecap:round;paint-order:stroke fill markers"><path
             d="m 14.858755,-48.055292 q -1.276057,1.082623 -2.776689,1.355314 -1.499685,0.261129 -2.987961,-0.32652 -1.4873279,-0.599212 -2.7397738,-2.075435 -1.2630598,-1.488732 -1.6119449,-3.053813 -0.3426299,-1.570388 0.1646503,-3.001236 0.5135355,-1.436154 1.7895923,-2.518777 0.8194286,-0.695214 1.7269808,-1.045643 0.9075521,-0.350429 1.8275993,-0.356455 0.926303,-0.01133 1.806343,0.328555 0.880039,0.33989 1.656004,1.026262 l -1.945361,1.650469 q -0.431578,-0.343851 -0.889889,-0.503656 -0.463618,-0.16606 -0.92459,-0.151485 -0.466279,0.0083 -0.9183498,0.198225 -0.4511226,0.178342 -0.8702197,0.533909 -0.7944079,0.673986 -1.0336487,1.53318 -0.2329856,0.853886 0.061147,1.809201 0.2888255,0.94906 1.1007925,1.906103 0.80666,0.950787 1.6897276,1.395684 0.8893231,0.43959 1.7760141,0.343529 0.886692,-0.09606 1.6811,-0.770048 0.419097,-0.355567 0.673861,-0.765351 0.254765,-0.409783 0.338942,-0.868477 0.08418,-0.458693 0.0012,-0.936917 -0.083,-0.478223 -0.334126,-0.964414 l 1.939106,-1.645162 q 0.545472,0.871168 0.737441,1.794824 0.19197,0.923657 0.02987,1.835737 -0.162098,0.91208 -0.655706,1.750413 -0.49266,0.826771 -1.312089,1.521984 z"
             style="font-weight:bold;font-family:Inter;-inkscape-font-specification:Inter"
             id="path4731" /><path
             d="m 24.407684,-54.696185 q -1.103047,0.632425 -2.175545,0.575976 -1.065382,-0.06053 -1.984075,-0.706316 -0.922773,-0.652904 -1.571518,-1.784416 -0.656906,-1.145745 -0.732824,-2.284189 -0.07592,-1.138443 0.402965,-2.084367 0.474803,-0.95304 1.471103,-1.524262 0.782807,-0.448818 1.572259,-0.523215 0.796568,-0.07848 1.546835,0.191089 0.750267,0.269565 1.401285,0.860796 0.654055,0.580033 1.155915,1.455354 l 0.191767,0.334472 -6.177059,3.541579 -0.595704,-1.038998 5.500999,-3.153964 -0.311411,0.660789 q -0.440657,-0.768574 -1.04053,-1.171645 -0.596838,-0.414268 -1.270434,-0.434664 -0.677677,-0.02751 -1.353738,0.360104 -0.668944,0.383535 -0.987567,0.982269 -0.315587,0.587538 -0.266715,1.315978 0.05191,0.717244 0.492566,1.485818 l 0.293772,0.512383 q 0.444737,0.775691 1.050778,1.222505 0.613158,0.442733 1.321389,0.49055 0.70415,0.0407 1.437142,-0.379556 0.533732,-0.306012 0.845525,-0.702259 0.307712,-0.403363 0.399653,-0.853219 0.09906,-0.453936 -0.01149,-0.910622 l 1.209793,-0.693627 q 0.269767,0.800362 0.135605,1.605377 -0.138243,0.797899 -0.638857,1.49152 -0.493497,0.689542 -1.311886,1.15876 z"
             style="font-family:Inter;-inkscape-font-specification:Inter"
             id="path4733" /><path
             d="m 29.024949,-57.419381 1.614151,-5.923659 0.376633,1.006479 -4.912407,-3.239941 1.532131,-0.586708 1.70565,1.17392 q 0.511287,0.348818 1.007253,0.703503 0.493033,0.347025 0.999593,0.706438 l -0.643494,0.246417 q 0.144595,-0.608763 0.279735,-1.196338 0.139868,-0.59817 0.287397,-1.199272 l 0.500618,-2.018779 1.509149,-0.577907 -1.49956,5.695313 -0.387227,-1.011206 5.122496,3.352738 -1.524469,0.583774 -1.99104,-1.345722 q -0.497759,-0.33643 -0.977264,-0.671067 -0.479505,-0.334637 -0.972538,-0.681662 l 0.651156,-0.249351 q -0.135141,0.587575 -0.276149,1.159829 -0.141008,0.572254 -0.286743,1.155102 l -0.598262,2.337258 z"
             style="font-family:Inter;-inkscape-font-specification:Inter"
             id="path4735" /><path
             d="m 39.607891,-57.605288 -2.432547,-11.844188 1.333878,-0.273951 0.257447,1.253524 0.01607,-0.0033 q 0.175836,-0.530199 0.529315,-0.929396 0.353479,-0.399197 0.836389,-0.657489 0.48126,-0.266327 1.027668,-0.378548 1.108886,-0.227742 2.050404,0.15672 0.941518,0.384462 1.604173,1.286785 0.661006,0.894288 0.930005,2.204059 0.267349,1.301736 0.01397,2.392193 -0.255031,1.082423 -0.967157,1.814882 -0.713776,0.724425 -1.822662,0.952166 -0.546407,0.112221 -1.069573,0.05218 -0.521516,-0.052 -0.997333,-0.289255 -0.475818,-0.23725 -0.881832,-0.664699 l -0.01607,0.0033 0.953875,4.644465 z m 2.915536,-5.213053 q 0.739258,-0.151828 1.227473,-0.628942 0.488214,-0.477115 0.664404,-1.250243 0.176189,-0.773128 -0.0367,-1.809695 -0.214539,-1.044603 -0.681182,-1.685706 -0.466643,-0.641104 -1.103385,-0.887176 -0.636742,-0.246072 -1.375999,-0.09424 -0.78747,0.16173 -1.285155,0.674286 -0.497684,0.512557 -0.664188,1.29207 -0.166504,0.779513 0.03153,1.743762 0.196386,0.956213 0.656644,1.607002 0.460257,0.65079 1.119671,0.925703 0.659415,0.274913 1.446884,0.113183 z"
             style="font-family:Inter;-inkscape-font-specification:Inter"
             id="path4737" /><path
             d="m 49.868364,-75.032574 0.983695,12.183007 -1.390008,0.112234 -0.983695,-12.183007 z"
             style="font-family:Inter;-inkscape-font-specification:Inter"
             id="path4739" /><path
             d="m 57.684922,-62.75852 q -1.196813,-0.04493 -2.085176,-0.652908 -0.879858,-0.615865 -1.349932,-1.651417 -0.461876,-1.035245 -0.412327,-2.355018 0.04986,-1.327971 0.588364,-2.333866 0.546705,-1.005588 1.470265,-1.553747 0.931756,-0.547851 2.128569,-0.502918 1.20501,0.04524 2.084868,0.661105 0.879858,0.615865 1.341427,1.659307 0.469766,1.04375 0.419909,2.37172 -0.04955,1.319774 -0.595946,2.317164 -0.5382,0.997698 -1.461759,1.545857 -0.923252,0.539961 -2.128262,0.494721 z m 0.04739,-1.262392 q 0.819735,0.03078 1.416827,-0.349044 0.597092,-0.379819 0.935982,-1.097689 0.339197,-0.726066 0.37582,-1.701551 0.03724,-0.991879 -0.24687,-1.733138 -0.283802,-0.749456 -0.850425,-1.181174 -0.566624,-0.431719 -1.386359,-0.462494 -0.811538,-0.03047 -1.417135,0.357241 -0.597092,0.379819 -0.936289,1.105886 -0.339198,0.726067 -0.376436,1.717946 -0.03693,0.983682 0.247178,1.724941 0.284109,0.741259 0.851041,1.164779 0.566931,0.423521 1.386666,0.454297 z"
             style="font-family:Inter;-inkscape-font-specification:Inter"
             id="path4741" /><path
             d="m 64.50772,-62.351707 1.472099,-8.5365 1.309576,0.225834 -0.231409,1.341912 0.03234,0.0056 q 0.348741,-0.622445 0.927723,-0.938812 0.578981,-0.316366 1.379278,-0.178357 0.185928,0.03206 0.336732,0.07472 0.158888,0.04405 0.236938,0.07416 l -0.236986,1.374247 q -0.07666,-0.03819 -0.30551,-0.110954 -0.219376,-0.07945 -0.518477,-0.131031 -0.468861,-0.08085 -0.91069,0.06771 -0.441829,0.148561 -0.763804,0.567517 -0.321974,0.418956 -0.447437,1.146498 l -0.906121,5.254475 z"
             style="font-family:Inter;-inkscape-font-specification:Inter"
             id="path4743" /><path
             d="m 74.208055,-59.905665 q -1.213253,-0.380379 -1.900034,-1.206073 -0.678954,-0.82324 -0.828643,-1.936178 -0.147235,-1.120766 0.242959,-2.36533 0.395103,-1.260218 1.179334,-2.088951 0.78423,-0.828733 1.803832,-1.119444 1.022056,-0.298538 2.117898,0.04503 0.861019,0.269946 1.451672,0.799 0.59848,0.531509 0.910009,1.265345 0.311529,0.733836 0.319521,1.613219 0.01827,0.87401 -0.283575,1.836786 l -0.11534,0.367889 -6.794221,-2.130118 0.358292,-1.142807 6.050614,1.896984 -0.696561,0.220053 q 0.265038,-0.845364 0.153638,-1.55944 -0.101118,-0.719449 -0.543515,-1.227813 -0.439943,-0.516191 -1.18355,-0.749326 -0.73578,-0.230681 -1.391679,-0.05806 -0.645618,0.167251 -1.147213,0.697738 -0.491313,0.525114 -0.756351,1.370478 l -0.176691,0.563576 q -0.267492,0.853191 -0.184017,1.601497 0.0913,0.750759 0.537083,1.303168 0.448236,0.544582 1.254463,0.797349 0.587058,0.184054 1.089665,0.143904 0.505062,-0.04798 0.897748,-0.28593 0.400513,-0.235499 0.660725,-0.626743 l 1.330665,0.417189 q -0.404408,0.741491 -1.086499,1.189598 -0.679637,0.440281 -1.528769,0.543726 -0.841304,0.105899 -1.74146,-0.176316 z"
             style="font-family:Inter;-inkscape-font-specification:Inter"
             id="path4745" /><path
             d="m 80.477228,-57.777399 3.609932,-7.874471 1.208016,0.553797 -0.567471,1.237843 0.02983,0.01367 q 0.496566,-0.512329 1.137275,-0.669808 0.640708,-0.157479 1.37894,0.180953 0.171508,0.07862 0.306352,0.15849 0.142301,0.08328 0.210033,0.132383 l -0.581145,1.26767 q -0.06431,-0.05656 -0.266889,-0.185519 -0.1917,-0.133003 -0.467605,-0.259487 -0.432499,-0.198273 -0.897643,-0.167862 -0.465143,0.03041 -0.883704,0.352899 -0.418561,0.322487 -0.726226,0.993607 l -2.222023,4.846975 z"
             style="font-family:Inter;-inkscape-font-specification:Inter"
             id="path4747" /><path
             d="m 86.108686,-54.803396 q -0.371631,-0.209394 -0.491095,-0.615669 -0.10829,-0.409396 0.101104,-0.781026 0.213422,-0.378778 0.61567,-0.491095 0.409395,-0.108291 0.781026,0.101104 0.378777,0.213422 0.491095,0.61567 0.112317,0.402248 -0.101105,0.781026 -0.209394,0.371631 -0.615669,0.491095 -0.402249,0.112317 -0.781026,-0.101105 z"
             style="font-family:Inter;-inkscape-font-specification:Inter"
             id="path4749" /><path
             d="m 89.66592,-52.811898 4.811696,-7.203227 1.159611,0.774611 -4.811697,7.203226 z m 6.330147,-8.221096 q -0.327419,-0.218714 -0.404419,-0.605558 -0.077,-0.386844 0.141713,-0.714263 0.218714,-0.32742 0.605558,-0.40442 0.386844,-0.077 0.714263,0.141714 0.32742,0.218713 0.40442,0.605557 0.077,0.386844 -0.141714,0.714264 -0.218713,0.327419 -0.605557,0.404419 -0.386845,0.077 -0.714264,-0.141713 z"
             style="font-family:Inter;-inkscape-font-specification:Inter"
             id="path4751" /><path
             d="m 96.123878,-47.722538 q -0.909702,-0.778988 -1.227838,-1.807391 -0.306569,-1.029298 -0.03127,-2.132725 0.281525,-1.098091 1.140546,-2.101256 0.864356,-1.009396 1.911379,-1.462783 1.053253,-0.448052 2.117465,-0.303533 1.07044,0.149855 1.98015,0.928843 0.91593,0.784323 1.2225,1.813621 0.30657,1.029298 0.0197,2.13362 -0.28063,1.109658 -1.14499,2.119054 -0.85902,1.003165 -1.90694,1.444986 -1.041679,0.447156 -2.105894,0.302637 -1.058879,-0.15075 -1.974813,-0.935073 z m 0.821672,-0.959549 q 0.623084,0.533553 1.326915,0.607065 0.70383,0.07351 1.415465,-0.278283 0.71697,-0.358025 1.3519,-1.099495 0.6456,-0.753931 0.88369,-1.511226 0.24342,-0.763526 0.0678,-1.45389 -0.17561,-0.690365 -0.7987,-1.223918 -0.61685,-0.528218 -1.332246,-0.600835 -0.70383,-0.07351 -1.4208,0.284514 -0.71697,0.358025 -1.362569,1.111957 -0.640264,0.7477 -0.878355,1.504995 -0.23809,0.757295 -0.05714,1.441429 0.180949,0.684134 0.804032,1.217687 z"
             style="font-family:Inter;-inkscape-font-specification:Inter"
             id="path4753" /></g><g
           aria-label="10 blocks"
           id="text4695"
           style="font-size:16.8px;font-family:ROBOTO;-inkscape-font-specification:ROBOTO;text-align:center;letter-spacing:1.34783px;text-anchor:middle;fill:#fefeff;stroke:#ffffff;stroke-width:0.744;stroke-linecap:round;paint-order:stroke fill markers"><path
             d="m 26.040345,57.29046 -5.966139,10.667638 -2.119209,-1.185219 4.832973,-8.641503 -0.01432,-0.008 -3.394735,0.187964 1.081112,-1.933062 3.582819,-0.204959 z"
             style="font-weight:bold;font-family:Inter;-inkscape-font-specification:'Inter Bold'"
             id="path4756" /><path
             d="m 27.040357,71.314578 q -1.425976,-0.56542 -2.181851,-1.685811 -0.745226,-1.124992 -0.781824,-2.65731 -0.02897,-1.529295 0.68763,-3.336548 0.719627,-1.814879 1.788732,-2.908769 1.07673,-1.090867 2.3904,-1.399476 1.31367,-0.30861 2.747272,0.259835 1.425976,0.565421 2.171201,1.690413 0.755875,1.12039 0.781824,2.65731 0.0366,1.532319 -0.683028,3.347197 -0.716603,1.807253 -1.793334,2.89812 -1.069105,1.093891 -2.3904,1.399476 -1.310647,0.300984 -2.736622,-0.264437 z m 0.743815,-1.875882 q 0.739677,0.293293 1.463955,0.02454 0.724277,-0.268754 1.367813,-1.046044 0.643537,-0.77729 1.133366,-2.012627 0.492854,-1.242963 0.556849,-2.25005 0.064,-1.007086 -0.279303,-1.69915 -0.340274,-0.699689 -1.079952,-0.992983 -0.739677,-0.293293 -1.474603,-0.01994 -0.724278,0.268754 -1.367814,1.046044 -0.635911,0.780314 -1.128764,2.023277 -0.48983,1.235337 -0.561451,2.2394 -0.064,1.007086 0.279303,1.69915 0.350924,0.695088 1.090601,0.988381 z"
             style="font-weight:bold;font-family:Inter;-inkscape-font-specification:'Inter Bold'"
             id="path4758" /><path
             d="m 44.023477,75.852701 q -0.559078,-0.08835 -1.019622,-0.327236 -0.460543,-0.238881 -0.788864,-0.631269 -0.318937,-0.399211 -0.492006,-0.933163 l -0.0081,-0.0013 -0.207441,1.312616 -2.357847,-0.372625 1.907943,-12.072824 2.390257,0.377748 -0.742689,4.699488 0.0081,0.0013 q 0.348476,-0.418309 0.768573,-0.659201 0.420096,-0.240892 0.913094,-0.312469 0.502381,-0.0784 1.053355,0.0087 1.093847,0.172868 1.830673,0.870658 0.74621,0.690969 1.049275,1.768675 0.312447,1.070885 0.103726,2.391603 -0.211282,1.336923 -0.83191,2.268653 -0.620628,0.93173 -1.535445,1.360196 -0.914816,0.428466 -2.041072,0.250477 z m -0.308476,-2.041934 q 0.583385,0.0922 1.050816,-0.13291 0.476815,-0.231929 0.800144,-0.753871 0.332712,-0.528765 0.459481,-1.330919 0.126769,-0.802154 -0.02795,-1.399646 -0.14662,-0.596212 -0.528678,-0.963873 -0.373955,-0.366381 -0.95734,-0.458577 -0.599589,-0.09476 -1.111375,0.148255 -0.502403,0.23619 -0.843217,0.763674 -0.331432,0.520662 -0.453079,1.290406 -0.120367,0.761641 0.03308,1.367235 0.161545,0.606875 0.565349,0.994583 0.413187,0.380886 1.012777,0.475643 z"
             style="font-weight:bold;font-family:Inter;-inkscape-font-specification:'Inter Bold'"
             id="path4760" /><path
             d="M 53.431127,64.252983 52.857844,76.462187 50.440585,76.348684 51.013869,64.139481 Z"
             style="font-weight:bold;font-family:Inter;-inkscape-font-specification:'Inter Bold'"
             id="path4762" /><path
             d="m 59.941067,76.549311 q -1.301962,0.078 -2.326615,-0.427635 -1.024652,-0.50564 -1.6423,-1.487647 -0.60946,-0.982496 -0.690409,-2.333589 -0.08144,-1.359281 0.406352,-2.407518 0.49598,-1.048727 1.45293,-1.673092 0.95646,-0.632553 2.258422,-0.710558 1.318339,-0.07899 2.335294,0.435333 1.024653,0.50564 1.634112,1.488136 0.617648,0.982006 0.699088,2.341288 0.08095,1.351092 -0.415032,2.39982 -0.487791,1.048237 -1.444741,1.672601 -0.948762,0.623874 -2.267101,0.702861 z m -0.117253,-1.957038 q 0.589568,-0.03532 1.013592,-0.364787 0.423533,-0.337653 0.634844,-0.925562 0.211312,-0.587909 0.163724,-1.382188 -0.04857,-0.810655 -0.328565,-1.369128 -0.279995,-0.558473 -0.740323,-0.834953 -0.460818,-0.284669 -1.050386,-0.249346 -0.581379,0.03483 -1.004912,0.372486 -0.424024,0.329464 -0.635336,0.917373 -0.211311,0.587909 -0.162742,1.398565 0.04808,0.802467 0.328074,1.36094 0.279504,0.550284 0.740323,0.834953 0.460328,0.27648 1.041707,0.241647 z"
             style="font-weight:bold;font-family:Inter;-inkscape-font-specification:'Inter Bold'"
             id="path4764" /><path
             d="m 70.915566,75.095934 q -1.269744,0.260017 -2.347658,-0.09701 -1.071524,-0.366709 -1.814024,-1.252957 -0.736109,-0.89593 -1.004354,-2.205855 -0.269892,-1.317963 0.05644,-2.423085 0.332726,-1.114805 1.173855,-1.873186 0.849165,-0.760026 2.118909,-1.020043 0.835781,-0.17115 1.593996,-0.06684 0.756569,0.09627 1.37109,0.439338 0.622558,0.341421 1.062693,0.896039 0.438489,0.546581 0.647792,1.282442 l -2.290361,0.469019 q -0.115691,-0.319617 -0.306617,-0.55684 -0.182889,-0.238869 -0.43133,-0.388954 -0.248442,-0.150085 -0.559144,-0.195313 -0.302667,-0.04687 -0.664303,0.02718 -0.59469,0.12178 -0.956435,0.522419 -0.363391,0.392602 -0.479602,1.010908 -0.109821,0.608624 0.04981,1.38815 0.157985,0.77149 0.4982,1.287956 0.348252,0.51482 0.838361,0.741017 0.488462,0.218161 1.083152,0.09638 0.361636,-0.07406 0.621515,-0.236127 0.259878,-0.162072 0.421291,-0.396086 0.169449,-0.23566 0.243723,-0.527191 0.07263,-0.299567 0.05976,-0.648613 l 2.306434,-0.47231 q 0.11122,0.747573 -0.07548,1.430554 -0.18031,0.673299 -0.616906,1.239986 -0.436596,0.566686 -1.100815,0.962279 -0.656183,0.393946 -1.500001,0.566743 z"
             style="font-weight:bold;font-family:Inter;-inkscape-font-specification:'Inter Bold'"
             id="path4766" /><path
             d="m 78.630155,70.26132 -0.95736,-2.689369 0.239571,-0.08528 1.747968,-4.140022 2.673912,-0.951858 -2.240947,5.42135 -0.525508,0.187071 z m -1.22708,3.083859 -4.09904,-11.514824 2.27978,-0.811555 4.09904,11.514824 z m 5.340096,-1.900964 -3.846651,-2.636067 0.943012,-2.120706 5.569823,3.807666 z"
             style="font-weight:bold;font-family:Inter;-inkscape-font-specification:'Inter Bold'"
             id="path4768" /><path
             d="m 90.602964,68.112814 q -0.997912,0.516876 -1.935762,0.614638 -0.941622,0.09048 -1.709626,-0.250784 -0.768003,-0.341262 -1.267172,-1.126629 l 2.112369,-1.094118 q 0.318597,0.472416 0.829938,0.567852 0.511342,0.09544 1.137768,-0.229026 0.597291,-0.309371 0.815399,-0.708725 0.225392,-0.403128 0.04052,-0.760045 -0.158459,-0.30593 -0.518777,-0.359493 -0.353034,-0.05734 -0.87177,0.100489 l -1.483367,0.435746 q -1.234925,0.362493 -2.111928,0.09616 -0.877002,-0.266329 -1.337286,-1.154981 -0.377281,-0.728403 -0.266905,-1.478437 0.11766,-0.753807 0.691378,-1.429735 0.581001,-0.679699 1.586198,-1.200348 0.997912,-0.516876 1.906887,-0.581206 0.905202,-0.07161 1.622217,0.296057 0.7243,0.363899 1.161162,1.153824 l -1.988541,1.02998 q -0.248744,-0.462406 -0.76412,-0.583467 -0.515376,-0.121061 -1.090814,0.176992 -0.553587,0.286734 -0.742297,0.689338 -0.192483,0.39532 -0.01516,0.73767 0.154686,0.298645 0.500436,0.359754 0.345751,0.06111 0.831839,-0.07057 l 1.603946,-0.470486 q 1.282402,-0.377846 2.096575,-0.143641 0.817683,0.223148 1.259103,1.075379 0.396146,0.764823 0.257156,1.566631 -0.135478,0.790751 -0.741581,1.511167 -0.602592,0.709359 -1.607788,1.230008 z"
             style="font-weight:bold;font-family:Inter;-inkscape-font-specification:'Inter Bold'"
             id="path4770" /></g></g><g
         id="g4737"
         inkscape:label="middlebox"
         transform="translate(71.47935,-306.00589)"><g
           id="g4703"
           inkscape:label="boxbase"><path
             sodipodi:type="star"
             style="fill:#ffffff;fill-opacity:1;stroke:#ffffff;stroke-width:7.74927;stroke-linecap:butt;stroke-linejoin:round;stroke-dasharray:none;stroke-dashoffset:11.3999;stroke-opacity:1;paint-order:stroke markers fill"
             id="path4699"
             inkscape:flatsided="true"
             sodipodi:sides="6"
             sodipodi:cx="60.971188"
             sodipodi:cy="1662.2568"
             sodipodi:r1="209.38361"
             sodipodi:r2="169.3949"
             sodipodi:arg1="0.93197839"
             sodipodi:arg2="1.4555772"
             inkscape:rounded="0"
             inkscape:randomized="0"
             d="m 185.81551,1830.3502 -207.995309,24.0717 -124.844321,-168.0934 83.150982,-192.1651 207.995308,-24.0716 124.84433,168.0934 z"
             transform="matrix(-0.02402512,0.21608047,-0.21608047,-0.02402512,415.94182,26.76123)"
             inkscape:transform-center-x="-6.0949903"
             inkscape:transform-center-y="0.65854956"
             inkscape:label="path5295" /><path
             sodipodi:type="star"
             style="fill:#04344d;fill-opacity:1;stroke:#04344d;stroke-width:15.4985;stroke-linecap:square;stroke-linejoin:miter;stroke-dasharray:none;stroke-dashoffset:11.3999;stroke-opacity:1;paint-order:stroke markers fill"
             id="path4701"
             inkscape:flatsided="true"
             sodipodi:sides="6"
             sodipodi:cx="60.971188"
             sodipodi:cy="1662.2568"
             sodipodi:r1="209.38361"
             sodipodi:r2="169.3949"
             sodipodi:arg1="0.93197839"
             sodipodi:arg2="1.4555772"
             inkscape:rounded="0"
             inkscape:randomized="0"
             d="m 185.81551,1830.3502 -207.995309,24.0717 -124.844321,-168.0934 83.150982,-192.1651 207.995308,-24.0716 124.84433,168.0934 z"
             transform="matrix(-0.0208739,0.18782418,-0.18773877,-0.02088341,368.63847,23.261722)"
             inkscape:transform-center-x="-5.29561"
             inkscape:transform-center-y="0.5724448"
             inkscape:label="path4909" /></g><g
           id="g4735"
           inkscape:label="Boxfills"><path
             style="display:inline;fill:none;fill-opacity:1;stroke:#fffefe;stroke-width:0.829091;stroke-linecap:round;stroke-linejoin:round;stroke-dasharray:none;stroke-opacity:1;paint-order:stroke fill markers"
             d="M -3.6004704,2.4457647 1.6243234,5.4334834 6.8221031,2.4001554"
             id="path4705"
             inkscape:label="path10042"
             transform="matrix(6.0962598,0,0,6.0962598,45.475732,2.4629809)" /><g
             transform="matrix(1.9339678,1.235842,-2.4130706,1.4163754,51.205563,-3.1032205)"
             id="g4733"
             inkscape:label="Logo">
<g
   id="g4731"
   inkscape:label="top-box"
   transform="translate(3.5528936,2.8474849)"><path
     style="display:inline;fill:#ffffff;fill-opacity:1;stroke:#fffefe;stroke-width:5.05542;stroke-linecap:square;stroke-linejoin:round;stroke-dasharray:none;stroke-opacity:1;paint-order:stroke fill markers"
     d="M 86.948736,-17.269832 55.436283,1.8906878 23.642748,-16.876449 55.040983,-35.542806 Z"
     id="path4711"
     inkscape:label="path10042"
     sodipodi:nodetypes="ccccc"
     transform="matrix(0.24755755,-0.21600348,0.42176237,0.33802361,-4.2617168,17.804514)" /><g
     id="g4729"
     transform="matrix(0.6933596,0,0,0.6933596,0.97298999,0.28937229)"
     inkscape:label="Logo"
     style="display:inline">
		<g
   transform="translate(0.91990781,-0.8)"
   id="g4715"
   inkscape:label="Circle">
<path
   style="opacity:1;fill:#e4003a;fill-opacity:1;fill-rule:nonzero;stroke:none;stroke-width:1;stroke-linecap:butt;stroke-linejoin:miter;stroke-miterlimit:4;stroke-dasharray:none;stroke-dashoffset:0"
   d="m 0,7.39996 a 7.6,7.6 0 1 1 7.6,-7.6 7.6,7.6 0 0 1 -7.6,7.6 z"
   stroke-linecap="round"
   id="path4713" />
</g>
		<g
   transform="translate(0.81,-1.08)"
   id="g4719"
   style="display:none"
   inkscape:label="undefined">
<path
   style="opacity:1;fill:#ffffff;fill-rule:nonzero;stroke:none;stroke-width:1;stroke-linecap:butt;stroke-linejoin:miter;stroke-miterlimit:4;stroke-dasharray:none;stroke-dashoffset:0"
   transform="translate(-10.81,-11.92)"
   d="m 8.46,13.2 h -0.8 c -0.3,0 -0.4,-0.1 -0.4,-0.4 a 0.43,0.43 0 0 1 0.4,-0.4 h 0.9 a 0.35,0.35 0 0 0 0.2,-0.1 1.42,1.42 0 0 0 0.2,-0.6 h -0.7 a 0.4,0.4 0 1 1 0,-0.8 h 0.8 c 0.1,0 0.2,0 0.2,-0.1 a 23.29,23.29 0 0 0 1.1,-2.8 0.1,0.1 0 0 1 0.1,-0.1 c 0.1,-0.2 0.2,-0.3 0.4,-0.3 0.2,0 0.3,0.1 0.4,0.3 0.2,0.6 0.4,1.1 0.6,1.7 0.2,0.4 0.3,0.8 0.5,1.2 0,0.1 0.1,0.1 0.2,0.1 h 0.8 a 0.37,0.37 0 0 1 0.4,0.4 0.43,0.43 0 0 1 -0.4,0.4 h -0.7 a 4.88,4.88 0 0 0 0.3,0.7 0.35,0.35 0 0 0 0.2,0.1 h 0.9 c 0.1,0 0.3,0.1 0.3,0.2 a 0.6,0.6 0 0 1 -0.1,0.4 0.37,0.37 0 0 1 -0.3,0.1 h -0.8 a 3.55,3.55 0 0 0 0.4,0.9 l 0.6,1.5 c 0.1,0.3 0.1,0.5 -0.2,0.6 -0.3,0.1 -0.4,0 -0.5,-0.3 -0.3,-0.9 -0.7,-1.7 -1,-2.6 -0.1,-0.2 -0.1,-0.2 -0.3,-0.2 h -2.9 c -0.2,0 -0.2,0 -0.3,0.2 a 18.61,18.61 0 0 1 -1,2.5 c -0.1,0.2 -0.2,0.3 -0.4,0.3 a 0.27,0.27 0 0 1 -0.3,-0.3 0.37,0.37 0 0 1 0.1,-0.3 c 0.3,-0.7 0.5,-1.4 0.8,-2.1 0.2,0 0.2,-0.1 0.3,-0.2 z m 1,-0.8 h 2.7 c -0.1,-0.2 -0.2,-0.5 -0.3,-0.7 a 0.35,0.35 0 0 0 -0.2,-0.1 h -1.8 c -0.1,0 -0.1,0 -0.2,0.1 a 1.45,1.45 0 0 1 -0.2,0.7 z m 2.2,-1.5 c -0.3,-0.7 -0.5,-1.3 -0.8,-2 -0.3,0.7 -0.5,1.3 -0.8,2 z"
   stroke-linecap="round"
   id="path4717" />
</g>
<path
   style="opacity:1;fill:#050001;fill-opacity:1;stroke:#ffffff;stroke-width:0.786824;stroke-linecap:round;stroke-miterlimit:3.7;stroke-dasharray:none;stroke-opacity:1;paint-order:stroke fill markers"
   d="M -2.3986007,2.7360851 0.88883187,-5.0028575"
   id="path4721"
   sodipodi:nodetypes="cc" /><path
   style="opacity:1;fill:#050001;fill-opacity:1;stroke:#ffffff;stroke-width:0.786824;stroke-linecap:round;stroke-miterlimit:3.7;stroke-dasharray:none;stroke-opacity:1"
   d="M 4.2651388,2.7342975 0.98031102,-5.0045294"
   id="path4723"
   sodipodi:nodetypes="cc" /><path
   style="opacity:1;fill:#050001;fill-opacity:1;stroke:#ffffff;stroke-width:0.786824;stroke-linecap:round;stroke-miterlimit:3.7;stroke-dasharray:none;stroke-opacity:1"
   d="m -1.664028,-1.6872983 5.178973,-0.015567"
   id="path4725" /><path
   style="fill:#050001;fill-opacity:1;stroke:#ffffff;stroke-width:0.786824;stroke-linecap:round;stroke-miterlimit:3.7;stroke-dasharray:none;stroke-opacity:1"
   d="m -2.3298842,-0.18348542 6.5097684,-0.0124693"
   id="path4727" /></g></g>
</g></g></g></g></g></svg>
