<?xml version="1.0" encoding="UTF-8" standalone="no"?>
<svg
   inkscape:version="1.2.2 (b0a84865, 2022-12-01)"
   xml:space="preserve"
   sodipodi:docname="final_awards_pre-text-to-path.svg"
   id="svg134"
   version="1.1"
   viewBox="-120 -120 300 299.99995"
   height="249.99995"
   width="250"
   inkscape:export-filename="0.svg"
   inkscape:export-xdpi="96"
   inkscape:export-ydpi="96"
   xmlns:inkscape="http://www.inkscape.org/namespaces/inkscape"
   xmlns:sodipodi="http://sodipodi.sourceforge.net/DTD/sodipodi-0.dtd"
   xmlns="http://www.w3.org/2000/svg"
   xmlns:svg="http://www.w3.org/2000/svg"><defs
     id="defs138" /><sodipodi:namedview
     id="namedview136"
     pagecolor="#ffffff"
     bordercolor="#000000"
     borderopacity="0.25"
     inkscape:showpageshadow="2"
     inkscape:pageopacity="0.0"
     inkscape:pagecheckerboard="0"
     inkscape:deskcolor="#d1d1d1"
     showgrid="false"
     inkscape:zoom="0.35355339"
     inkscape:cx="1480.6816"
     inkscape:cy="663.26616"
     inkscape:window-width="1425"
     inkscape:window-height="949"
     inkscape:window-x="0"
     inkscape:window-y="25"
     inkscape:window-maximized="1"
     inkscape:current-layer="g19337"
     showguides="true" /><style
     type="text/css"
     id="style8571">
	.st0{fill:#ffffff;}
</style><g
     id="g14593"
     inkscape:label="Staked"
     transform="translate(356.62664,-407.04369)"><g
       id="g14591"
       inkscape:label="1m"
       transform="matrix(1.4245145,0,0,1.4245145,704.60379,422.40874)"
       inkscape:export-filename="17.svg"
       inkscape:export-xdpi="96"
       inkscape:export-ydpi="96"><g
         id="g14547"
         inkscape:label="Borders"
         transform="translate(-779.21285,10.27364)"><path
           fill="none"
           stroke="black"
           stroke-width="2"
           d="M 155.29573,3.5528548e-7 Q 164.76573,10.78 153.37573,19.51 q 7.18,12.42 -5.69,18.76 4.62,13.58 -9.24,17.29 1.88,14.22 -12.44,15.15 -0.93,14.32 -15.15,12.44 -3.71,13.86 -17.290004,9.24 -6.34,12.87 -18.76,5.69 -8.73,11.39 -19.51,1.92 -10.78,9.47 -19.51,-1.92 -12.42,7.18 -18.76,-5.69 -13.5800024,4.62 -17.2900022,-9.24 -14.2199978,1.88 -15.1499978,-12.44 -14.32,-0.93 -12.44,-15.15 -13.86,-3.71 -9.24,-17.29 -12.87,-6.34 -5.69,-18.76 -11.39,-8.73 -1.92,-19.50999964471398 Q -54.174274,-10.78 -42.784274,-19.51 q -7.18,-12.42 5.69,-18.76 -4.62,-13.58 9.24,-17.29 -1.88,-14.22 12.44,-15.15 0.93,-14.32 15.1499978,-12.44 3.7099998,-13.86 17.2900022,-9.24 6.34,-12.87 18.76,-5.69 8.73,-11.39 19.51,-1.92 10.78,-9.47 19.51,1.92 12.42,-7.18 18.76,5.69 13.580004,-4.62 17.290004,9.24 14.22,-1.88 15.15,12.44 14.32,0.93 12.44,15.15 13.86,3.71 9.24,17.29 12.87,6.34 5.69,18.76 11.39,8.73 1.92,19.51000035528548 z"
           id="path14541"
           style="fill:#04344d;fill-opacity:1;stroke:#04344d;stroke-opacity:1"
           inkscape:export-filename="path132.svg"
           inkscape:export-xdpi="96"
           inkscape:export-ydpi="96" /><circle
           style="fill:none;fill-opacity:1;stroke:#ffffff;stroke-width:3.6;stroke-linecap:round;stroke-dasharray:none;stroke-opacity:1;paint-order:stroke fill markers"
           id="circle14543"
           cx="55.295727"
           cy="1.4210855e-14"
           r="92.730682" /></g><g
         id="g14565"
         inkscape:label="Texts"
         transform="translate(-779.21285,9.9746413)"><circle
           style="fill:none;fill-opacity:1;stroke:none;stroke-width:3.01836;stroke-linecap:round;stroke-opacity:1;paint-order:stroke fill markers"
           id="circle14549"
           cx="-1.4210855e-14"
           cy="-55.295727"
           transform="matrix(0,-1,-1,0,0,0)"
           r="76.490822"
           inkscape:label="Bottom-text-path" /><circle
           style="fill:none;fill-opacity:1;stroke:none;stroke-width:2.48601;stroke-linecap:round;stroke-opacity:1;paint-order:stroke fill markers"
           id="circle14551"
           cx="1.4210855e-14"
           cy="-55.295727"
           transform="rotate(90)"
           inkscape:label="Top-text-path"
           r="63" /><g
           aria-label="Cexplorer.io"
           id="text14559"
           style="font-size:16.8px;font-family:ROBOTO;-inkscape-font-specification:ROBOTO;text-align:center;letter-spacing:1.2px;text-anchor:middle;fill:#fefeff;stroke:#ffffff;stroke-width:0.744;stroke-linecap:round;paint-order:stroke fill markers"><path
             d="m 14.858755,-48.055292 q -1.276057,1.082623 -2.776689,1.355314 -1.499685,0.261129 -2.987961,-0.32652 -1.4873279,-0.599212 -2.7397738,-2.075435 -1.2630598,-1.488732 -1.6119449,-3.053813 -0.3426299,-1.570388 0.1646503,-3.001236 0.5135355,-1.436154 1.7895923,-2.518777 0.8194286,-0.695214 1.7269808,-1.045643 0.9075521,-0.350429 1.8275993,-0.356455 0.926303,-0.01133 1.806343,0.328555 0.880039,0.33989 1.656004,1.026262 l -1.945361,1.650469 q -0.431578,-0.343851 -0.889889,-0.503656 -0.463618,-0.16606 -0.92459,-0.151485 -0.466279,0.0083 -0.9183498,0.198225 -0.4511226,0.178342 -0.8702197,0.533909 -0.7944079,0.673986 -1.0336487,1.53318 -0.2329856,0.853886 0.061147,1.809201 0.2888255,0.94906 1.1007925,1.906103 0.80666,0.950787 1.6897276,1.395684 0.8893231,0.43959 1.7760141,0.343529 0.886692,-0.09606 1.6811,-0.770048 0.419097,-0.355567 0.673861,-0.765351 0.254765,-0.409783 0.338942,-0.868477 0.08418,-0.458693 0.0012,-0.936917 -0.083,-0.478223 -0.334126,-0.964414 l 1.939106,-1.645162 q 0.545472,0.871168 0.737441,1.794824 0.19197,0.923657 0.02987,1.835737 -0.162098,0.91208 -0.655706,1.750413 -0.49266,0.826771 -1.312089,1.521984 z"
             style="font-weight:bold;font-family:Inter;-inkscape-font-specification:Inter"
             id="path4963" /><path
             d="m 24.407684,-54.696185 q -1.103047,0.632425 -2.175545,0.575976 -1.065382,-0.06053 -1.984075,-0.706316 -0.922773,-0.652904 -1.571518,-1.784416 -0.656906,-1.145745 -0.732824,-2.284189 -0.07592,-1.138443 0.402965,-2.084367 0.474803,-0.95304 1.471103,-1.524262 0.782807,-0.448818 1.572259,-0.523215 0.796568,-0.07848 1.546835,0.191089 0.750267,0.269565 1.401285,0.860796 0.654055,0.580033 1.155915,1.455354 l 0.191767,0.334472 -6.177059,3.541579 -0.595704,-1.038998 5.500999,-3.153964 -0.311411,0.660789 q -0.440657,-0.768574 -1.04053,-1.171645 -0.596838,-0.414268 -1.270434,-0.434664 -0.677677,-0.02751 -1.353738,0.360104 -0.668944,0.383535 -0.987567,0.982269 -0.315587,0.587538 -0.266715,1.315978 0.05191,0.717244 0.492566,1.485818 l 0.293772,0.512383 q 0.444737,0.775691 1.050778,1.222505 0.613158,0.442733 1.321389,0.49055 0.70415,0.0407 1.437142,-0.379556 0.533732,-0.306012 0.845525,-0.702259 0.307712,-0.403363 0.399653,-0.853219 0.09906,-0.453936 -0.01149,-0.910622 l 1.209793,-0.693627 q 0.269767,0.800362 0.135605,1.605377 -0.138243,0.797899 -0.638857,1.49152 -0.493497,0.689542 -1.311886,1.15876 z"
             style="font-family:Inter;-inkscape-font-specification:Inter"
             id="path4965" /><path
             d="m 29.024949,-57.419381 1.614151,-5.923659 0.376633,1.006479 -4.912407,-3.239941 1.532131,-0.586708 1.70565,1.17392 q 0.511287,0.348818 1.007253,0.703503 0.493033,0.347025 0.999593,0.706438 l -0.643494,0.246417 q 0.144595,-0.608763 0.279735,-1.196338 0.139868,-0.59817 0.287397,-1.199272 l 0.500618,-2.018779 1.509149,-0.577907 -1.49956,5.695313 -0.387227,-1.011206 5.122496,3.352738 -1.524469,0.583774 -1.99104,-1.345722 q -0.497759,-0.33643 -0.977264,-0.671067 -0.479505,-0.334637 -0.972538,-0.681662 l 0.651156,-0.249351 q -0.135141,0.587575 -0.276149,1.159829 -0.141008,0.572254 -0.286743,1.155102 l -0.598262,2.337258 z"
             style="font-family:Inter;-inkscape-font-specification:Inter"
             id="path4967" /><path
             d="m 39.607891,-57.605288 -2.432547,-11.844188 1.333878,-0.273951 0.257447,1.253524 0.01607,-0.0033 q 0.175836,-0.530199 0.529315,-0.929396 0.353479,-0.399197 0.836389,-0.657489 0.48126,-0.266327 1.027668,-0.378548 1.108886,-0.227742 2.050404,0.15672 0.941518,0.384462 1.604173,1.286785 0.661006,0.894288 0.930005,2.204059 0.267349,1.301736 0.01397,2.392193 -0.255031,1.082423 -0.967157,1.814882 -0.713776,0.724425 -1.822662,0.952166 -0.546407,0.112221 -1.069573,0.05218 -0.521516,-0.052 -0.997333,-0.289255 -0.475818,-0.23725 -0.881832,-0.664699 l -0.01607,0.0033 0.953875,4.644465 z m 2.915536,-5.213053 q 0.739258,-0.151828 1.227473,-0.628942 0.488214,-0.477115 0.664404,-1.250243 0.176189,-0.773128 -0.0367,-1.809695 -0.214539,-1.044603 -0.681182,-1.685706 -0.466643,-0.641104 -1.103385,-0.887176 -0.636742,-0.246072 -1.375999,-0.09424 -0.78747,0.16173 -1.285155,0.674286 -0.497684,0.512557 -0.664188,1.29207 -0.166504,0.779513 0.03153,1.743762 0.196386,0.956213 0.656644,1.607002 0.460257,0.65079 1.119671,0.925703 0.659415,0.274913 1.446884,0.113183 z"
             style="font-family:Inter;-inkscape-font-specification:Inter"
             id="path4969" /><path
             d="m 49.868364,-75.032574 0.983695,12.183007 -1.390008,0.112234 -0.983695,-12.183007 z"
             style="font-family:Inter;-inkscape-font-specification:Inter"
             id="path4971" /><path
             d="m 57.684922,-62.75852 q -1.196813,-0.04493 -2.085176,-0.652908 -0.879858,-0.615865 -1.349932,-1.651417 -0.461876,-1.035245 -0.412327,-2.355018 0.04986,-1.327971 0.588364,-2.333866 0.546705,-1.005588 1.470265,-1.553747 0.931756,-0.547851 2.128569,-0.502918 1.20501,0.04524 2.084868,0.661105 0.879858,0.615865 1.341427,1.659307 0.469766,1.04375 0.419909,2.37172 -0.04955,1.319774 -0.595946,2.317164 -0.5382,0.997698 -1.461759,1.545857 -0.923252,0.539961 -2.128262,0.494721 z m 0.04739,-1.262392 q 0.819735,0.03078 1.416827,-0.349044 0.597092,-0.379819 0.935982,-1.097689 0.339197,-0.726066 0.37582,-1.701551 0.03724,-0.991879 -0.24687,-1.733138 -0.283802,-0.749456 -0.850425,-1.181174 -0.566624,-0.431719 -1.386359,-0.462494 -0.811538,-0.03047 -1.417135,0.357241 -0.597092,0.379819 -0.936289,1.105886 -0.339198,0.726067 -0.376436,1.717946 -0.03693,0.983682 0.247178,1.724941 0.284109,0.741259 0.851041,1.164779 0.566931,0.423521 1.386666,0.454297 z"
             style="font-family:Inter;-inkscape-font-specification:Inter"
             id="path4973" /><path
             d="m 64.50772,-62.351707 1.472099,-8.5365 1.309576,0.225834 -0.231409,1.341912 0.03234,0.0056 q 0.348741,-0.622445 0.927723,-0.938812 0.578981,-0.316366 1.379278,-0.178357 0.185928,0.03206 0.336732,0.07472 0.158888,0.04405 0.236938,0.07416 l -0.236986,1.374247 q -0.07666,-0.03819 -0.30551,-0.110954 -0.219376,-0.07945 -0.518477,-0.131031 -0.468861,-0.08085 -0.91069,0.06771 -0.441829,0.148561 -0.763804,0.567517 -0.321974,0.418956 -0.447437,1.146498 l -0.906121,5.254475 z"
             style="font-family:Inter;-inkscape-font-specification:Inter"
             id="path4975" /><path
             d="m 74.208055,-59.905665 q -1.213253,-0.380379 -1.900034,-1.206073 -0.678954,-0.82324 -0.828643,-1.936178 -0.147235,-1.120766 0.242959,-2.36533 0.395103,-1.260218 1.179334,-2.088951 0.78423,-0.828733 1.803832,-1.119444 1.022056,-0.298538 2.117898,0.04503 0.861019,0.269946 1.451672,0.799 0.59848,0.531509 0.910009,1.265345 0.311529,0.733836 0.319521,1.613219 0.01827,0.87401 -0.283575,1.836786 l -0.11534,0.367889 -6.794221,-2.130118 0.358292,-1.142807 6.050614,1.896984 -0.696561,0.220053 q 0.265038,-0.845364 0.153638,-1.55944 -0.101118,-0.719449 -0.543515,-1.227813 -0.439943,-0.516191 -1.18355,-0.749326 -0.73578,-0.230681 -1.391679,-0.05806 -0.645618,0.167251 -1.147213,0.697738 -0.491313,0.525114 -0.756351,1.370478 l -0.176691,0.563576 q -0.267492,0.853191 -0.184017,1.601497 0.0913,0.750759 0.537083,1.303168 0.448236,0.544582 1.254463,0.797349 0.587058,0.184054 1.089665,0.143904 0.505062,-0.04798 0.897748,-0.28593 0.400513,-0.235499 0.660725,-0.626743 l 1.330665,0.417189 q -0.404408,0.741491 -1.086499,1.189598 -0.679637,0.440281 -1.528769,0.543726 -0.841304,0.105899 -1.74146,-0.176316 z"
             style="font-family:Inter;-inkscape-font-specification:Inter"
             id="path4977" /><path
             d="m 80.477228,-57.777399 3.609932,-7.874471 1.208016,0.553797 -0.567471,1.237843 0.02983,0.01367 q 0.496566,-0.512329 1.137275,-0.669808 0.640708,-0.157479 1.37894,0.180953 0.171508,0.07862 0.306352,0.15849 0.142301,0.08328 0.210033,0.132383 l -0.581145,1.26767 q -0.06431,-0.05656 -0.266889,-0.185519 -0.1917,-0.133003 -0.467605,-0.259487 -0.432499,-0.198273 -0.897643,-0.167862 -0.465143,0.03041 -0.883704,0.352899 -0.418561,0.322487 -0.726226,0.993607 l -2.222023,4.846975 z"
             style="font-family:Inter;-inkscape-font-specification:Inter"
             id="path4979" /><path
             d="m 86.108686,-54.803396 q -0.371631,-0.209394 -0.491095,-0.615669 -0.10829,-0.409396 0.101104,-0.781026 0.213422,-0.378778 0.61567,-0.491095 0.409395,-0.108291 0.781026,0.101104 0.378777,0.213422 0.491095,0.61567 0.112317,0.402248 -0.101105,0.781026 -0.209394,0.371631 -0.615669,0.491095 -0.402249,0.112317 -0.781026,-0.101105 z"
             style="font-family:Inter;-inkscape-font-specification:Inter"
             id="path4981" /><path
             d="m 89.66592,-52.811898 4.811696,-7.203227 1.159611,0.774611 -4.811697,7.203226 z m 6.330147,-8.221096 q -0.327419,-0.218714 -0.404419,-0.605558 -0.077,-0.386844 0.141713,-0.714263 0.218714,-0.32742 0.605558,-0.40442 0.386844,-0.077 0.714263,0.141714 0.32742,0.218713 0.40442,0.605557 0.077,0.386844 -0.141714,0.714264 -0.218713,0.327419 -0.605557,0.404419 -0.386845,0.077 -0.714264,-0.141713 z"
             style="font-family:Inter;-inkscape-font-specification:Inter"
             id="path4983" /><path
             d="m 96.123878,-47.722538 q -0.909702,-0.778988 -1.227838,-1.807391 -0.306569,-1.029298 -0.03127,-2.132725 0.281525,-1.098091 1.140546,-2.101256 0.864356,-1.009396 1.911379,-1.462783 1.053253,-0.448052 2.117465,-0.303533 1.07044,0.149855 1.98015,0.928843 0.91593,0.784323 1.2225,1.813621 0.30657,1.029298 0.0197,2.13362 -0.28063,1.109658 -1.14499,2.119054 -0.85902,1.003165 -1.90694,1.444986 -1.041679,0.447156 -2.105894,0.302637 -1.058879,-0.15075 -1.974813,-0.935073 z m 0.821672,-0.959549 q 0.623084,0.533553 1.326915,0.607065 0.70383,0.07351 1.415465,-0.278283 0.71697,-0.358025 1.3519,-1.099495 0.6456,-0.753931 0.88369,-1.511226 0.24342,-0.763526 0.0678,-1.45389 -0.17561,-0.690365 -0.7987,-1.223918 -0.61685,-0.528218 -1.332246,-0.600835 -0.70383,-0.07351 -1.4208,0.284514 -0.71697,0.358025 -1.362569,1.111957 -0.640264,0.7477 -0.878355,1.504995 -0.23809,0.757295 -0.05714,1.441429 0.180949,0.684134 0.804032,1.217687 z"
             style="font-family:Inter;-inkscape-font-specification:Inter"
             id="path4985" /></g><g
           aria-label="1M ADA stake"
           id="text14563"
           style="font-size:16.8px;font-family:ROBOTO;-inkscape-font-specification:ROBOTO;text-align:center;letter-spacing:1.34783px;text-anchor:middle;fill:#fefeff;stroke:#ffffff;stroke-width:0.744;stroke-linecap:round;paint-order:stroke fill markers"><path
             d="m 12.723276,48.204152 -8.4236878,8.856342 -1.7593807,-1.673431 6.8237527,-7.174231 -0.011888,-0.01131 -3.3354217,-0.659183 1.5264401,-1.604841 3.5218504,0.68933 z"
             style="font-weight:bold;font-family:Inter;-inkscape-font-specification:'Inter Bold'"
             id="path4988" /><path
             d="m 6.5616484,59.326581 6.9261746,-10.07082 3.034764,2.087149 -1.563318,5.83422 q -0.117092,0.387397 -0.295897,0.951381 -0.174156,0.557225 -0.374092,1.166412 -0.195288,0.602427 -0.389721,1.145707 -0.187674,0.547928 -0.315747,0.907861 l -0.520438,-0.35793 q 0.290287,-0.248371 0.728042,-0.624307 0.444513,-0.371287 0.937195,-0.769183 0.497329,-0.404655 0.948602,-0.771294 0.46268,-0.368749 0.775782,-0.621341 l 4.868439,-3.561134 3.034764,2.08715 -6.926175,10.07082 -2.0412,-1.403829 3.291096,-4.785329 q 0.232422,-0.337947 0.566682,-0.795017 0.33426,-0.45707 0.710356,-0.974971 0.380745,-0.524659 0.766138,-1.056077 0.390041,-0.538177 0.731488,-1.020173 l 0.250081,0.171993 q -0.522683,0.427042 -1.077477,0.871823 -0.548035,0.449429 -1.066069,0.869712 -0.518033,0.420283 -0.966768,0.768756 -0.437328,0.346363 -0.75254,0.587547 l -4.994348,3.613923 -1.689735,-1.16211 1.567566,-5.970682 q 0.112444,-0.380637 0.272655,-0.917586 0.164859,-0.543707 0.365223,-1.182467 0.207123,-0.634111 0.417211,-1.315963 0.216847,-0.677202 0.421859,-1.322721 l 0.297393,0.204531 q -0.327929,0.491292 -0.690934,1.048063 -0.358358,0.550012 -0.712066,1.093265 -0.349061,0.536494 -0.663044,1.00751 -0.307225,0.475663 -0.539647,0.81361 l -3.2910949,4.78533 z"
             style="font-weight:bold;font-family:Inter;-inkscape-font-specification:'Inter Bold'"
             id="path4990" /><path
             d="m 24.001741,70.069542 8.149405,-10.069093 3.059386,1.092017 -0.0683,12.953562 -2.634472,-0.940348 0.191455,-6.246432 q 0.06213,-1.223356 0.12315,-2.51679 0.0715,-1.298403 0.194258,-2.935621 l 0.656686,0.234397 q -0.957135,1.339396 -1.731676,2.386855 -0.764058,1.042491 -1.506055,2.023177 l -3.868899,4.933805 z m 3.461166,-1.595331 0.678375,-1.900527 6.018338,2.148184 -0.678374,1.900528 z"
             style="font-weight:bold;font-family:Inter;-inkscape-font-specification:'Inter Bold'"
             id="path4992" /><path
             d="m 41.704848,75.287741 -3.110965,-0.544187 0.366089,-2.092831 2.981679,0.521571 q 1.212064,0.212021 2.083101,-0.101963 0.87245,-0.322064 1.412965,-1.126904 0.541929,-0.81292 0.763844,-2.081548 0.221915,-1.268628 -0.01329,-2.209161 -0.235206,-0.940533 -0.947934,-1.531557 -0.704647,-0.589611 -1.900551,-0.798805 l -3.062483,-0.535705 0.366089,-2.092832 3.216012,0.562562 q 1.810016,0.316618 3.006581,1.283746 1.197978,0.959048 1.681086,2.434279 0.483109,1.475231 0.159424,3.325649 -0.323685,1.850419 -1.280307,3.082132 -0.955208,1.223633 -2.417105,1.725729 -1.453816,0.50351 -3.304235,0.179825 z m 0.344539,-12.347978 -2.106072,12.039841 -2.488773,-0.435349 2.106073,-12.039841 z"
             style="font-weight:bold;font-family:Inter;-inkscape-font-specification:'Inter Bold'"
             id="path4994" /><path
             d="m 48.940462,76.456295 4.358947,-12.19832 3.248386,0.01828 4.221386,12.246605 -2.797222,-0.01574 -1.886033,-5.957973 Q 55.739798,69.374132 55.369431,68.133357 55.007313,66.884424 54.581463,65.2988 l 0.697255,0.0039 q -0.460074,1.580639 -0.844428,2.82537 -0.376106,1.236575 -0.751842,2.407526 l -2.018592,5.936 z m 2.738397,-2.650648 0.01136,-2.017937 6.390133,0.03596 -0.01136,2.017937 z"
             style="font-weight:bold;font-family:Inter;-inkscape-font-specification:'Inter Bold'"
             id="path4996" /><path
             d="m 71.526623,74.983489 q -1.098628,0.236655 -2.029232,0.08468 -0.932331,-0.159992 -1.583752,-0.690973 -0.651421,-0.53098 -0.92681,-1.419874 l 2.325563,-0.500949 q 0.183345,0.539505 0.651673,0.765882 0.468329,0.226378 1.157978,0.07782 0.657573,-0.141648 0.972906,-0.469704 0.323352,-0.329783 0.238709,-0.722723 -0.07255,-0.336805 -0.406155,-0.483117 -0.325584,-0.14804 -0.86756,-0.131988 l -1.545735,0.03088 q -1.286777,0.02545 -2.06305,-0.461858 -0.776273,-0.487303 -0.987017,-1.465643 -0.172741,-0.801919 0.130739,-1.496638 0.3115,-0.696446 1.042594,-1.197974 0.739114,-0.503255 1.845761,-0.741637 1.098628,-0.236656 1.992591,-0.06001 0.892235,0.168629 1.487522,0.711702 0.603305,0.541344 0.817378,1.418272 l -2.189237,0.471584 q -0.118574,-0.511501 -0.584065,-0.763663 -0.465491,-0.252163 -1.099007,-0.115697 -0.609457,0.131283 -0.897278,0.470195 -0.289548,0.330892 -0.208359,0.707794 0.07082,0.328786 0.388389,0.478553 0.317564,0.149767 0.821172,0.150372 l 1.671206,-0.03273 q 1.336619,-0.02779 2.060704,0.412015 0.730376,0.430059 0.932483,1.368304 0.181379,0.842014 -0.163307,1.579174 -0.338394,0.727414 -1.112421,1.263363 -0.767736,0.526203 -1.874383,0.764586 z"
             style="font-weight:bold;font-family:Inter;-inkscape-font-specification:'Inter Bold'"
             id="path4998" /><path
             d="m 79.821772,63.317211 0.614628,1.792473 -5.37742,1.843885 -0.614628,-1.792474 z m -4.731458,-0.87514 2.289089,-0.784915 2.708621,7.899298 q 0.141019,0.41126 0.359846,0.518337 0.226587,0.104416 0.692165,-0.05523 0.193991,-0.06652 0.457818,-0.156983 0.271587,-0.09313 0.41902,-0.14368 l 0.614628,1.792474 q -0.20951,0.07184 -0.581972,0.199554 -0.372462,0.127715 -0.752684,0.258091 -1.350174,0.462967 -2.175153,0.156153 -0.817219,-0.309475 -1.200363,-1.426861 z"
             style="font-weight:bold;font-family:Inter;-inkscape-font-specification:'Inter Bold'"
             id="path5000" /><path
             d="m 87.626672,69.514539 q -0.775241,0.375351 -1.505784,0.410068 -0.730543,0.03472 -1.327789,-0.314096 -0.600821,-0.356196 -0.976171,-1.131437 -0.318154,-0.657109 -0.285418,-1.210688 0.02916,-0.560962 0.321314,-1.03052 0.295962,-0.480517 0.774402,-0.885331 0.485822,-0.408389 1.066225,-0.753202 0.680427,-0.420585 1.069099,-0.690796 0.388672,-0.270211 0.512482,-0.485095 0.12381,-0.214884 0.0023,-0.465915 l -0.02502,-0.05168 Q 87.112896,62.6179 86.85418,62.478856 q -0.262291,-0.146427 -0.611009,-0.132527 -0.341334,0.01033 -0.740029,0.203364 -0.398696,0.193037 -0.648021,0.468692 -0.241942,0.272081 -0.308322,0.586756 -0.06638,0.314675 0.05065,0.631687 l -2.045159,0.99021 q -0.337966,-0.829797 -0.203103,-1.624218 0.142247,-0.797996 0.75639,-1.487251 0.610568,-0.696639 1.681138,-1.21498 0.797391,-0.386075 1.514336,-0.505349 0.71337,-0.126657 1.309612,0.01302 0.603625,0.136102 1.064632,0.523536 0.461007,0.387435 0.764862,1.01501 l 2.559532,5.286404 -2.126375,1.029532 -0.53264,-1.100103 -0.02953,0.0143 q -0.02084,0.484022 -0.191289,0.903767 -0.170447,0.419746 -0.530988,0.785705 -0.364117,0.358576 -0.962159,0.648132 z m -0.127401,-1.806696 q 0.52421,-0.253808 0.807812,-0.628086 0.290985,-0.377852 0.336851,-0.810191 0.04587,-0.43234 -0.157895,-0.853185 l -0.378925,-0.782623 q -0.07096,0.09815 -0.200984,0.224907 -0.1336,0.11937 -0.318882,0.263762 -0.188857,0.13701 -0.411055,0.299277 -0.222199,0.162267 -0.462739,0.3243 -0.347947,0.241379 -0.589889,0.513459 -0.245517,0.264697 -0.322621,0.557223 -0.08068,0.285142 0.06946,0.595238 0.132266,0.27318 0.37645,0.401032 0.244183,0.127853 0.56741,0.09895 0.323227,-0.0289 0.685006,-0.204065 z"
             style="font-weight:bold;font-family:Inter;-inkscape-font-specification:'Inter Bold'"
             id="path5002" /><path
             d="m 95.092896,62.410662 -1.581993,-2.376245 0.211677,-0.140924 0.6899,-4.440633 2.362588,-1.572901 -0.856847,5.803335 -0.464324,0.309125 z m -0.441183,3.28957 -6.773475,-10.17415 2.014345,-1.341058 6.773476,10.174151 z m 4.718348,-3.141256 -4.371789,-1.622663 0.399595,-2.286261 6.327953,2.340569 z"
             style="font-weight:bold;font-family:Inter;-inkscape-font-specification:'Inter Bold'"
             id="path5004" /><path
             d="m 106.14452,57.406825 q -0.9832,0.869462 -2.09485,1.085972 -1.11094,0.204931 -2.19578,-0.204545 -1.07869,-0.41491 -1.948155,-1.398115 -0.88033,-0.995495 -1.14859,-2.116132 -0.26755,-1.132216 0.0656,-2.204308 0.333145,-1.072091 1.261045,-1.892645 0.71897,-0.635794 1.52012,-0.906236 0.79571,-0.276587 1.62184,-0.19681 0.8207,0.07363 1.59148,0.487072 0.77692,0.408006 1.43445,1.151555 l 0.4293,0.485458 -5.73331,5.070049 -1.021627,-1.155266 4.860727,-4.298402 -0.57275,0.999267 q -0.43474,-0.491603 -0.92812,-0.690425 -0.49339,-0.198822 -0.99368,-0.09587 -0.49958,0.09137 -0.95431,0.493494 -0.44859,0.396692 -0.60038,0.881342 -0.15723,0.478505 -0.0203,0.992507 0.13697,0.514002 0.5717,1.005604 l 0.69557,0.786565 q 0.4456,0.503892 0.96072,0.727294 0.51583,0.211823 1.04472,0.116442 0.52345,-0.101525 1.0089,-0.530822 0.3564,-0.31518 0.53985,-0.652602 0.18415,-0.349002 0.20547,-0.696377 0.022,-0.358954 -0.12087,-0.681544 l 1.65301,-1.461783 q 0.45383,0.748477 0.45841,1.620469 0.005,0.871992 -0.39683,1.730682 -0.40683,0.852545 -1.1934,1.548114 z"
             style="font-weight:bold;font-family:Inter;-inkscape-font-specification:'Inter Bold'"
             id="path5006" /></g></g><g
         transform="matrix(7.1937404,0,0,7.1937404,-735.50492,13.180019)"
         id="g14589"
         inkscape:label="Logo">
<g
   id="g14587"
   transform="matrix(0.6933596,0,0,0.6933596,0.97298999,0.28937229)"
   inkscape:label="Logo"
   style="display:inline">
		<g
   transform="translate(0.91990781,-0.8)"
   id="g14573"
   inkscape:label="Circle">
<path
   style="opacity:1;fill:#e4003a;fill-opacity:1;fill-rule:nonzero;stroke:none;stroke-width:1;stroke-linecap:butt;stroke-linejoin:miter;stroke-miterlimit:4;stroke-dasharray:none;stroke-dashoffset:0"
   d="m 0,7.39996 a 7.6,7.6 0 1 1 7.6,-7.6 7.6,7.6 0 0 1 -7.6,7.6 z"
   stroke-linecap="round"
   id="path14571" />
</g>
		<g
   transform="translate(0.81,-1.08)"
   id="g14577"
   style="display:none"
   inkscape:label="undefined">
<path
   style="opacity:1;fill:#ffffff;fill-rule:nonzero;stroke:none;stroke-width:1;stroke-linecap:butt;stroke-linejoin:miter;stroke-miterlimit:4;stroke-dasharray:none;stroke-dashoffset:0"
   transform="translate(-10.81,-11.92)"
   d="m 8.46,13.2 h -0.8 c -0.3,0 -0.4,-0.1 -0.4,-0.4 a 0.43,0.43 0 0 1 0.4,-0.4 h 0.9 a 0.35,0.35 0 0 0 0.2,-0.1 1.42,1.42 0 0 0 0.2,-0.6 h -0.7 a 0.4,0.4 0 1 1 0,-0.8 h 0.8 c 0.1,0 0.2,0 0.2,-0.1 a 23.29,23.29 0 0 0 1.1,-2.8 0.1,0.1 0 0 1 0.1,-0.1 c 0.1,-0.2 0.2,-0.3 0.4,-0.3 0.2,0 0.3,0.1 0.4,0.3 0.2,0.6 0.4,1.1 0.6,1.7 0.2,0.4 0.3,0.8 0.5,1.2 0,0.1 0.1,0.1 0.2,0.1 h 0.8 a 0.37,0.37 0 0 1 0.4,0.4 0.43,0.43 0 0 1 -0.4,0.4 h -0.7 a 4.88,4.88 0 0 0 0.3,0.7 0.35,0.35 0 0 0 0.2,0.1 h 0.9 c 0.1,0 0.3,0.1 0.3,0.2 a 0.6,0.6 0 0 1 -0.1,0.4 0.37,0.37 0 0 1 -0.3,0.1 h -0.8 a 3.55,3.55 0 0 0 0.4,0.9 l 0.6,1.5 c 0.1,0.3 0.1,0.5 -0.2,0.6 -0.3,0.1 -0.4,0 -0.5,-0.3 -0.3,-0.9 -0.7,-1.7 -1,-2.6 -0.1,-0.2 -0.1,-0.2 -0.3,-0.2 h -2.9 c -0.2,0 -0.2,0 -0.3,0.2 a 18.61,18.61 0 0 1 -1,2.5 c -0.1,0.2 -0.2,0.3 -0.4,0.3 a 0.27,0.27 0 0 1 -0.3,-0.3 0.37,0.37 0 0 1 0.1,-0.3 c 0.3,-0.7 0.5,-1.4 0.8,-2.1 0.2,0 0.2,-0.1 0.3,-0.2 z m 1,-0.8 h 2.7 c -0.1,-0.2 -0.2,-0.5 -0.3,-0.7 a 0.35,0.35 0 0 0 -0.2,-0.1 h -1.8 c -0.1,0 -0.1,0 -0.2,0.1 a 1.45,1.45 0 0 1 -0.2,0.7 z m 2.2,-1.5 c -0.3,-0.7 -0.5,-1.3 -0.8,-2 -0.3,0.7 -0.5,1.3 -0.8,2 z"
   stroke-linecap="round"
   id="path14575" />
</g>
<path
   style="opacity:1;fill:#050001;fill-opacity:1;stroke:#ffffff;stroke-width:0.786824;stroke-linecap:round;stroke-miterlimit:3.7;stroke-dasharray:none;stroke-opacity:1;paint-order:stroke fill markers"
   d="M -2.3986007,2.7360851 0.88883187,-5.0028575"
   id="path14579"
   sodipodi:nodetypes="cc" /><path
   style="opacity:1;fill:#050001;fill-opacity:1;stroke:#ffffff;stroke-width:0.786824;stroke-linecap:round;stroke-miterlimit:3.7;stroke-dasharray:none;stroke-opacity:1"
   d="M 4.2651388,2.7342975 0.98031102,-5.0045294"
   id="path14581"
   sodipodi:nodetypes="cc" /><path
   style="opacity:1;fill:#050001;fill-opacity:1;stroke:#ffffff;stroke-width:0.786824;stroke-linecap:round;stroke-miterlimit:3.7;stroke-dasharray:none;stroke-opacity:1"
   d="m -1.664028,-1.6872983 5.178973,-0.015567"
   id="path14583" /><path
   style="fill:#050001;fill-opacity:1;stroke:#ffffff;stroke-width:0.786824;stroke-linecap:round;stroke-miterlimit:3.7;stroke-dasharray:none;stroke-opacity:1"
   d="m -2.3298842,-0.18348542 6.5097684,-0.0124693"
   id="path14585" /></g>
</g></g></g></svg>
