<?xml version="1.0" encoding="UTF-8" standalone="no"?>
<svg
   inkscape:version="1.2.2 (b0a84865, 2022-12-01)"
   xml:space="preserve"
   sodipodi:docname="final_awards_pre-text-to-path.svg"
   id="svg134"
   version="1.1"
   viewBox="-120 -120 300 299.99995"
   height="249.99995"
   width="250"
   inkscape:export-filename="0.svg"
   inkscape:export-xdpi="96"
   inkscape:export-ydpi="96"
   xmlns:inkscape="http://www.inkscape.org/namespaces/inkscape"
   xmlns:sodipodi="http://sodipodi.sourceforge.net/DTD/sodipodi-0.dtd"
   xmlns="http://www.w3.org/2000/svg"
   xmlns:svg="http://www.w3.org/2000/svg"><defs
     id="defs138" /><sodipodi:namedview
     id="namedview136"
     pagecolor="#ffffff"
     bordercolor="#000000"
     borderopacity="0.25"
     inkscape:showpageshadow="2"
     inkscape:pageopacity="0.0"
     inkscape:pagecheckerboard="0"
     inkscape:deskcolor="#d1d1d1"
     showgrid="false"
     inkscape:zoom="0.35355339"
     inkscape:cx="1480.6816"
     inkscape:cy="663.26616"
     inkscape:window-width="1425"
     inkscape:window-height="949"
     inkscape:window-x="0"
     inkscape:window-y="25"
     inkscape:window-maximized="1"
     inkscape:current-layer="g19337"
     showguides="true" /><style
     type="text/css"
     id="style8571">
	.st0{fill:#ffffff;}
</style><g
     id="g14593"
     inkscape:label="Staked"
     transform="translate(-13.373356,-407.04369)"><g
       id="g14965"
       inkscape:label="3m"
       transform="matrix(1.4245145,0,0,1.4245145,1074.6038,422.40874)"
       inkscape:export-filename="./g8306.svg"
       inkscape:export-xdpi="96"
       inkscape:export-ydpi="96"><g
         id="g14925"
         inkscape:label="Borders"
         transform="translate(-779.21285,10.27364)"><path
           fill="none"
           stroke="black"
           stroke-width="2"
           d="M 155.29573,3.5528548e-7 Q 164.76573,10.78 153.37573,19.51 q 7.18,12.42 -5.69,18.76 4.62,13.58 -9.24,17.29 1.88,14.22 -12.44,15.15 -0.93,14.32 -15.15,12.44 -3.71,13.86 -17.290004,9.24 -6.34,12.87 -18.76,5.69 -8.73,11.39 -19.51,1.92 -10.78,9.47 -19.51,-1.92 -12.42,7.18 -18.76,-5.69 -13.5800024,4.62 -17.2900022,-9.24 -14.2199978,1.88 -15.1499978,-12.44 -14.32,-0.93 -12.44,-15.15 -13.86,-3.71 -9.24,-17.29 -12.87,-6.34 -5.69,-18.76 -11.39,-8.73 -1.92,-19.50999964471394 Q -54.174274,-10.78 -42.784274,-19.51 q -7.18,-12.42 5.69,-18.76 -4.62,-13.58 9.24,-17.29 -1.88,-14.22 12.44,-15.15 0.93,-14.32 15.1499978,-12.44 3.7099998,-13.86 17.2900022,-9.24 6.34,-12.87 18.76,-5.69 8.73,-11.39 19.51,-1.92 10.78,-9.47 19.51,1.92 12.42,-7.18 18.76,5.69 13.580004,-4.62 17.290004,9.24 14.22,-1.88 15.15,12.44 14.32,0.93 12.44,15.15 13.86,3.71 9.24,17.29 12.87,6.34 5.69,18.76 11.39,8.73 1.92,19.51000035528548 z"
           id="path14919"
           style="fill:#04344d;fill-opacity:1;stroke:#04344d;stroke-opacity:1"
           inkscape:export-filename="path132.svg"
           inkscape:export-xdpi="96"
           inkscape:export-ydpi="96" /><circle
           style="fill:none;fill-opacity:1;stroke:#ffffff;stroke-width:3.6;stroke-linecap:round;stroke-dasharray:none;stroke-opacity:1;paint-order:stroke fill markers"
           id="circle14921"
           cx="55.295727"
           cy="1.4210855e-14"
           r="92.730682" /><circle
           style="fill:none;fill-opacity:1;stroke:#ffffff;stroke-width:2.22;stroke-linecap:round;stroke-dasharray:none;stroke-opacity:1;paint-order:stroke fill markers"
           id="circle14923"
           cx="55.295727"
           cy="0"
           r="86.865753" /></g><g
         id="g14943"
         inkscape:label="Texts"
         transform="translate(-779.21285,9.9892379)"><circle
           style="fill:none;fill-opacity:1;stroke:none;stroke-width:3.01836;stroke-linecap:round;stroke-opacity:1;paint-order:stroke fill markers"
           id="circle14927"
           cx="-1.4210855e-14"
           cy="-55.295727"
           transform="matrix(0,-1,-1,0,0,0)"
           r="76.490822"
           inkscape:label="Bottom-text-path" /><circle
           style="fill:none;fill-opacity:1;stroke:none;stroke-width:2.48601;stroke-linecap:round;stroke-opacity:1;paint-order:stroke fill markers"
           id="circle14929"
           cx="1.4210855e-14"
           cy="-55.295727"
           transform="rotate(90)"
           inkscape:label="Top-text-path"
           r="63" /><g
           aria-label="Cexplorer.io"
           id="text14937"
           style="font-size:16.8px;font-family:ROBOTO;-inkscape-font-specification:ROBOTO;text-align:center;letter-spacing:1.2px;text-anchor:middle;fill:#fefeff;stroke:#ffffff;stroke-width:0.744;stroke-linecap:round;paint-order:stroke fill markers"><path
             d="m 14.858755,-48.055292 q -1.276057,1.082623 -2.776689,1.355314 -1.499685,0.261129 -2.987961,-0.32652 -1.4873279,-0.599212 -2.7397738,-2.075435 -1.2630598,-1.488732 -1.6119449,-3.053813 -0.3426299,-1.570388 0.1646503,-3.001236 0.5135355,-1.436154 1.7895923,-2.518777 0.8194286,-0.695214 1.7269808,-1.045643 0.9075521,-0.350429 1.8275993,-0.356455 0.926303,-0.01133 1.806343,0.328555 0.880039,0.33989 1.656004,1.026262 l -1.945361,1.650469 q -0.431578,-0.343851 -0.889889,-0.503656 -0.463618,-0.16606 -0.92459,-0.151485 -0.466279,0.0083 -0.9183498,0.198225 -0.4511226,0.178342 -0.8702197,0.533909 -0.7944079,0.673986 -1.0336487,1.53318 -0.2329856,0.853886 0.061147,1.809201 0.2888255,0.94906 1.1007925,1.906103 0.80666,0.950787 1.6897276,1.395684 0.8893231,0.43959 1.7760141,0.343529 0.886692,-0.09606 1.6811,-0.770048 0.419097,-0.355567 0.673861,-0.765351 0.254765,-0.409783 0.338942,-0.868477 0.08418,-0.458693 0.0012,-0.936917 -0.083,-0.478223 -0.334126,-0.964414 l 1.939106,-1.645162 q 0.545472,0.871168 0.737441,1.794824 0.19197,0.923657 0.02987,1.835737 -0.162098,0.91208 -0.655706,1.750413 -0.49266,0.826771 -1.312089,1.521984 z"
             style="font-weight:bold;font-family:Inter;-inkscape-font-specification:Inter"
             id="path5009" /><path
             d="m 24.407684,-54.696185 q -1.103047,0.632425 -2.175545,0.575976 -1.065382,-0.06053 -1.984075,-0.706316 -0.922773,-0.652904 -1.571518,-1.784416 -0.656906,-1.145745 -0.732824,-2.284189 -0.07592,-1.138443 0.402965,-2.084367 0.474803,-0.95304 1.471103,-1.524262 0.782807,-0.448818 1.572259,-0.523215 0.796568,-0.07848 1.546835,0.191089 0.750267,0.269565 1.401285,0.860796 0.654055,0.580033 1.155915,1.455354 l 0.191767,0.334472 -6.177059,3.541579 -0.595704,-1.038998 5.500999,-3.153964 -0.311411,0.660789 q -0.440657,-0.768574 -1.04053,-1.171645 -0.596838,-0.414268 -1.270434,-0.434664 -0.677677,-0.02751 -1.353738,0.360104 -0.668944,0.383535 -0.987567,0.982269 -0.315587,0.587538 -0.266715,1.315978 0.05191,0.717244 0.492566,1.485818 l 0.293772,0.512383 q 0.444737,0.775691 1.050778,1.222505 0.613158,0.442733 1.321389,0.49055 0.70415,0.0407 1.437142,-0.379556 0.533732,-0.306012 0.845525,-0.702259 0.307712,-0.403363 0.399653,-0.853219 0.09906,-0.453936 -0.01149,-0.910622 l 1.209793,-0.693627 q 0.269767,0.800362 0.135605,1.605377 -0.138243,0.797899 -0.638857,1.49152 -0.493497,0.689542 -1.311886,1.15876 z"
             style="font-family:Inter;-inkscape-font-specification:Inter"
             id="path5011" /><path
             d="m 29.024949,-57.419381 1.614151,-5.923659 0.376633,1.006479 -4.912407,-3.239941 1.532131,-0.586708 1.70565,1.17392 q 0.511287,0.348818 1.007253,0.703503 0.493033,0.347025 0.999593,0.706438 l -0.643494,0.246417 q 0.144595,-0.608763 0.279735,-1.196338 0.139868,-0.59817 0.287397,-1.199272 l 0.500618,-2.018779 1.509149,-0.577907 -1.49956,5.695313 -0.387227,-1.011206 5.122496,3.352738 -1.524469,0.583774 -1.99104,-1.345722 q -0.497759,-0.33643 -0.977264,-0.671067 -0.479505,-0.334637 -0.972538,-0.681662 l 0.651156,-0.249351 q -0.135141,0.587575 -0.276149,1.159829 -0.141008,0.572254 -0.286743,1.155102 l -0.598262,2.337258 z"
             style="font-family:Inter;-inkscape-font-specification:Inter"
             id="path5013" /><path
             d="m 39.607891,-57.605288 -2.432547,-11.844188 1.333878,-0.273951 0.257447,1.253524 0.01607,-0.0033 q 0.175836,-0.530199 0.529315,-0.929396 0.353479,-0.399197 0.836389,-0.657489 0.48126,-0.266327 1.027668,-0.378548 1.108886,-0.227742 2.050404,0.15672 0.941518,0.384462 1.604173,1.286785 0.661006,0.894288 0.930005,2.204059 0.267349,1.301736 0.01397,2.392193 -0.255031,1.082423 -0.967157,1.814882 -0.713776,0.724425 -1.822662,0.952166 -0.546407,0.112221 -1.069573,0.05218 -0.521516,-0.052 -0.997333,-0.289255 -0.475818,-0.23725 -0.881832,-0.664699 l -0.01607,0.0033 0.953875,4.644465 z m 2.915536,-5.213053 q 0.739258,-0.151828 1.227473,-0.628942 0.488214,-0.477115 0.664404,-1.250243 0.176189,-0.773128 -0.0367,-1.809695 -0.214539,-1.044603 -0.681182,-1.685706 -0.466643,-0.641104 -1.103385,-0.887176 -0.636742,-0.246072 -1.375999,-0.09424 -0.78747,0.16173 -1.285155,0.674286 -0.497684,0.512557 -0.664188,1.29207 -0.166504,0.779513 0.03153,1.743762 0.196386,0.956213 0.656644,1.607002 0.460257,0.65079 1.119671,0.925703 0.659415,0.274913 1.446884,0.113183 z"
             style="font-family:Inter;-inkscape-font-specification:Inter"
             id="path5015" /><path
             d="m 49.868364,-75.032574 0.983695,12.183007 -1.390008,0.112234 -0.983695,-12.183007 z"
             style="font-family:Inter;-inkscape-font-specification:Inter"
             id="path5017" /><path
             d="m 57.684922,-62.75852 q -1.196813,-0.04493 -2.085176,-0.652908 -0.879858,-0.615865 -1.349932,-1.651417 -0.461876,-1.035245 -0.412327,-2.355018 0.04986,-1.327971 0.588364,-2.333866 0.546705,-1.005588 1.470265,-1.553747 0.931756,-0.547851 2.128569,-0.502918 1.20501,0.04524 2.084868,0.661105 0.879858,0.615865 1.341427,1.659307 0.469766,1.04375 0.419909,2.37172 -0.04955,1.319774 -0.595946,2.317164 -0.5382,0.997698 -1.461759,1.545857 -0.923252,0.539961 -2.128262,0.494721 z m 0.04739,-1.262392 q 0.819735,0.03078 1.416827,-0.349044 0.597092,-0.379819 0.935982,-1.097689 0.339197,-0.726066 0.37582,-1.701551 0.03724,-0.991879 -0.24687,-1.733138 -0.283802,-0.749456 -0.850425,-1.181174 -0.566624,-0.431719 -1.386359,-0.462494 -0.811538,-0.03047 -1.417135,0.357241 -0.597092,0.379819 -0.936289,1.105886 -0.339198,0.726067 -0.376436,1.717946 -0.03693,0.983682 0.247178,1.724941 0.284109,0.741259 0.851041,1.164779 0.566931,0.423521 1.386666,0.454297 z"
             style="font-family:Inter;-inkscape-font-specification:Inter"
             id="path5019" /><path
             d="m 64.50772,-62.351707 1.472099,-8.5365 1.309576,0.225834 -0.231409,1.341912 0.03234,0.0056 q 0.348741,-0.622445 0.927723,-0.938812 0.578981,-0.316366 1.379278,-0.178357 0.185928,0.03206 0.336732,0.07472 0.158888,0.04405 0.236938,0.07416 l -0.236986,1.374247 q -0.07666,-0.03819 -0.30551,-0.110954 -0.219376,-0.07945 -0.518477,-0.131031 -0.468861,-0.08085 -0.91069,0.06771 -0.441829,0.148561 -0.763804,0.567517 -0.321974,0.418956 -0.447437,1.146498 l -0.906121,5.254475 z"
             style="font-family:Inter;-inkscape-font-specification:Inter"
             id="path5021" /><path
             d="m 74.208055,-59.905665 q -1.213253,-0.380379 -1.900034,-1.206073 -0.678954,-0.82324 -0.828643,-1.936178 -0.147235,-1.120766 0.242959,-2.36533 0.395103,-1.260218 1.179334,-2.088951 0.78423,-0.828733 1.803832,-1.119444 1.022056,-0.298538 2.117898,0.04503 0.861019,0.269946 1.451672,0.799 0.59848,0.531509 0.910009,1.265345 0.311529,0.733836 0.319521,1.613219 0.01827,0.87401 -0.283575,1.836786 l -0.11534,0.367889 -6.794221,-2.130118 0.358292,-1.142807 6.050614,1.896984 -0.696561,0.220053 q 0.265038,-0.845364 0.153638,-1.55944 -0.101118,-0.719449 -0.543515,-1.227813 -0.439943,-0.516191 -1.18355,-0.749326 -0.73578,-0.230681 -1.391679,-0.05806 -0.645618,0.167251 -1.147213,0.697738 -0.491313,0.525114 -0.756351,1.370478 l -0.176691,0.563576 q -0.267492,0.853191 -0.184017,1.601497 0.0913,0.750759 0.537083,1.303168 0.448236,0.544582 1.254463,0.797349 0.587058,0.184054 1.089665,0.143904 0.505062,-0.04798 0.897748,-0.28593 0.400513,-0.235499 0.660725,-0.626743 l 1.330665,0.417189 q -0.404408,0.741491 -1.086499,1.189598 -0.679637,0.440281 -1.528769,0.543726 -0.841304,0.105899 -1.74146,-0.176316 z"
             style="font-family:Inter;-inkscape-font-specification:Inter"
             id="path5023" /><path
             d="m 80.477228,-57.777399 3.609932,-7.874471 1.208016,0.553797 -0.567471,1.237843 0.02983,0.01367 q 0.496566,-0.512329 1.137275,-0.669808 0.640708,-0.157479 1.37894,0.180953 0.171508,0.07862 0.306352,0.15849 0.142301,0.08328 0.210033,0.132383 l -0.581145,1.26767 q -0.06431,-0.05656 -0.266889,-0.185519 -0.1917,-0.133003 -0.467605,-0.259487 -0.432499,-0.198273 -0.897643,-0.167862 -0.465143,0.03041 -0.883704,0.352899 -0.418561,0.322487 -0.726226,0.993607 l -2.222023,4.846975 z"
             style="font-family:Inter;-inkscape-font-specification:Inter"
             id="path5025" /><path
             d="m 86.108686,-54.803396 q -0.371631,-0.209394 -0.491095,-0.615669 -0.10829,-0.409396 0.101104,-0.781026 0.213422,-0.378778 0.61567,-0.491095 0.409395,-0.108291 0.781026,0.101104 0.378777,0.213422 0.491095,0.61567 0.112317,0.402248 -0.101105,0.781026 -0.209394,0.371631 -0.615669,0.491095 -0.402249,0.112317 -0.781026,-0.101105 z"
             style="font-family:Inter;-inkscape-font-specification:Inter"
             id="path5027" /><path
             d="m 89.66592,-52.811898 4.811696,-7.203227 1.159611,0.774611 -4.811697,7.203226 z m 6.330147,-8.221096 q -0.327419,-0.218714 -0.404419,-0.605558 -0.077,-0.386844 0.141713,-0.714263 0.218714,-0.32742 0.605558,-0.40442 0.386844,-0.077 0.714263,0.141714 0.32742,0.218713 0.40442,0.605557 0.077,0.386844 -0.141714,0.714264 -0.218713,0.327419 -0.605557,0.404419 -0.386845,0.077 -0.714264,-0.141713 z"
             style="font-family:Inter;-inkscape-font-specification:Inter"
             id="path5029" /><path
             d="m 96.123878,-47.722538 q -0.909702,-0.778988 -1.227838,-1.807391 -0.306569,-1.029298 -0.03127,-2.132725 0.281525,-1.098091 1.140546,-2.101256 0.864356,-1.009396 1.911379,-1.462783 1.053253,-0.448052 2.117465,-0.303533 1.07044,0.149855 1.98015,0.928843 0.91593,0.784323 1.2225,1.813621 0.30657,1.029298 0.0197,2.13362 -0.28063,1.109658 -1.14499,2.119054 -0.85902,1.003165 -1.90694,1.444986 -1.041679,0.447156 -2.105894,0.302637 -1.058879,-0.15075 -1.974813,-0.935073 z m 0.821672,-0.959549 q 0.623084,0.533553 1.326915,0.607065 0.70383,0.07351 1.415465,-0.278283 0.71697,-0.358025 1.3519,-1.099495 0.6456,-0.753931 0.88369,-1.511226 0.24342,-0.763526 0.0678,-1.45389 -0.17561,-0.690365 -0.7987,-1.223918 -0.61685,-0.528218 -1.332246,-0.600835 -0.70383,-0.07351 -1.4208,0.284514 -0.71697,0.358025 -1.362569,1.111957 -0.640264,0.7477 -0.878355,1.504995 -0.23809,0.757295 -0.05714,1.441429 0.180949,0.684134 0.804032,1.217687 z"
             style="font-family:Inter;-inkscape-font-specification:Inter"
             id="path5031" /></g><g
           aria-label="3M ADA stake"
           id="text14941"
           style="font-size:16.8px;font-family:ROBOTO;-inkscape-font-specification:ROBOTO;text-align:center;letter-spacing:1.34783px;text-anchor:middle;fill:#fefeff;stroke:#ffffff;stroke-width:0.744;stroke-linecap:round;paint-order:stroke fill markers"><path
             d="M 2.4728784,55.594732 Q 1.3673185,54.543188 1.0141333,53.41478 0.6609481,52.286373 0.93605184,51.223465 1.2170994,50.16621 2.0198914,49.322181 l 1.7474979,1.662118 q -0.4861979,0.511173 -0.6465089,1.060604 -0.154367,0.555084 0.015701,1.09044 0.1760117,0.541009 0.6752969,1.0159 0.4755096,0.452277 0.9847854,0.631 0.5149292,0.17278 0.999694,0.0678 Q 6.2811224,54.745071 6.654251,54.352776 7.0160727,53.972368 7.0618624,53.483828 7.1135958,53.000941 6.8682905,52.473272 6.628929,51.951256 6.0999245,51.448098 l -0.7905348,-0.751911 1.2720295,-1.337371 0.7905347,0.751911 q 0.4814536,0.457931 0.967825,0.648832 0.4863715,0.190902 0.9196744,0.116226 0.4389562,-0.08062 0.7781637,-0.437251 0.361822,-0.380408 0.454872,-0.835318 0.09305,-0.45491 -0.08093,-0.914737 -0.168036,-0.454174 -0.5900503,-0.85557 -0.4339026,-0.412703 -0.9247659,-0.551272 -0.4908634,-0.138568 -0.974757,0.0012 -0.4779497,0.145421 -0.8849991,0.57338 L 5.3132663,46.216712 q 0.7688711,-0.808366 1.7544899,-1.070941 0.9972161,-0.262866 2.0553419,0.05297 1.0581259,0.315839 2.0269769,1.237354 0.909412,0.86498 1.305502,1.853058 0.407687,0.987787 0.2745,1.925293 -0.121589,0.937216 -0.811311,1.662368 -0.706683,0.742984 -1.662447,0.807533 -0.9501103,0.05861 -1.8460281,-0.499191 l -0.01696,0.01783 q 0.5446675,0.66523 0.6961872,1.386724 0.1571732,0.71555 -0.035026,1.381826 Q 8.8622932,55.637817 8.3591349,56.166821 7.6354915,56.927637 6.630589,57.115265 5.6372839,57.302602 4.5485676,56.923703 3.4655047,56.538861 2.4728784,55.594732 Z"
             style="font-weight:bold;font-family:Inter;-inkscape-font-specification:'Inter Bold'"
             id="path5034" /><path
             d="m 8.0743762,60.539492 6.6700648,-10.242243 3.086421,2.009973 -1.415727,5.87178 q -0.107288,0.390226 -0.271817,0.958539 -0.160051,0.561439 -0.344565,1.175472 -0.180037,0.60716 -0.360711,1.155169 -0.1738,0.552485 -0.292757,0.915534 l -0.529297,-0.344695 q 0.283932,-0.255611 0.71207,-0.642464 0.435011,-0.382377 0.917504,-0.792568 0.486969,-0.417065 0.928855,-0.794965 0.453236,-0.380297 0.75987,-0.640703 l 4.777107,-3.682746 3.086421,2.009973 -6.670065,10.242243 -2.075945,-1.351919 3.1694,-4.866784 q 0.223828,-0.3437 0.546458,-0.809052 0.322631,-0.465352 0.68555,-0.99257 0.367395,-0.534092 0.739268,-1.075058 0.376349,-0.54784 0.705534,-1.03829 l 0.254338,0.165632 q -0.511749,0.440084 -1.055153,0.898712 -0.53653,0.463103 -1.043803,0.896314 -0.507273,0.43321 -0.947079,0.792886 -0.428456,0.357278 -0.737487,0.606333 l -4.901645,3.738692 -1.718498,-1.119138 1.416533,-6.008305 q 0.102812,-0.383352 0.249434,-0.924169 0.151099,-0.547691 0.335295,-1.191299 0.191069,-0.639132 0.383899,-1.326063 0.199705,-0.682455 0.388377,-1.332938 l 0.302455,0.196969 q -0.315438,0.499403 -0.664291,1.06515 -0.344376,0.558872 -0.684276,1.11087 -0.335423,0.545124 -0.637431,1.023906 -0.295134,0.483258 -0.518962,0.826958 l -3.1694,4.866784 z"
             style="font-weight:bold;font-family:Inter;-inkscape-font-specification:'Inter Bold'"
             id="path5036" /><path
             d="m 25.780414,70.838227 7.890604,-10.273159 3.086178,1.013831 0.261269,12.951107 -2.657542,-0.873021 0.03248,-6.249281 q 0.03099,-1.224541 0.05908,-2.519109 0.03844,-1.299802 0.119511,-2.939613 l 0.662437,0.217615 q -0.922751,1.363312 -1.670393,2.430137 -0.737289,1.061592 -1.454097,2.060837 l -3.742127,5.030636 z m 3.41946,-1.682868 0.629804,-1.917171 6.071041,1.99438 -0.629804,1.917171 z"
             style="font-weight:bold;font-family:Inter;-inkscape-font-specification:'Inter Bold'"
             id="path5038" /><path
             d="m 43.610484,75.604588 -3.123739,-0.465298 0.313018,-2.101424 2.993921,0.44596 q 1.217042,0.181285 2.079855,-0.154638 0.864021,-0.344036 1.384,-1.162295 0.521186,-0.826372 0.710931,-2.100208 0.189744,-1.273836 -0.06918,-2.208117 -0.258928,-0.934281 -0.986382,-1.507082 -0.71934,-0.571593 -1.920154,-0.75046 l -3.075057,-0.458046 0.313018,-2.101425 3.229216,0.481009 q 1.817448,0.270718 3.0381,1.207261 1.221861,0.928429 1.742142,2.390964 0.52028,1.462535 0.243519,3.320551 -0.276761,1.858016 -1.201911,3.11354 -0.923941,1.24741 -2.372666,1.786335 -1.440611,0.540134 -3.298627,0.263373 z m 0.032,-12.352743 -1.800761,12.089276 -2.498992,-0.372238 1.800762,-12.089275 z"
             style="font-weight:bold;font-family:Inter;-inkscape-font-specification:'Inter Bold'"
             id="path5040" /><path
             d="m 50.873925,76.59061 4.053771,-12.303104 3.247834,-0.06263 4.525101,12.137664 -2.796745,0.05393 -2.033844,-5.909149 Q 57.494756,69.341294 57.0936,68.110128 56.700487,66.870602 56.235276,65.296076 l 0.697136,-0.01344 q -0.420562,1.591608 -0.773795,2.845527 -0.345189,1.245559 -0.691643,2.425505 l -1.870118,5.984435 z m 2.671527,-2.718031 -0.03891,-2.017593 6.389046,-0.12321 0.03891,2.017593 z"
             style="font-weight:bold;font-family:Inter;-inkscape-font-specification:'Inter Bold'"
             id="path5042" /><path
             d="m 73.415033,74.551475 q -1.09226,0.264495 -2.026425,0.136217 -0.936096,-0.13625 -1.600798,-0.650507 -0.664702,-0.514257 -0.962588,-1.395866 l 2.312083,-0.559878 q 0.196994,0.534671 0.670923,0.749076 0.473929,0.214404 1.159582,0.04837 0.653761,-0.15831 0.960657,-0.494272 0.314867,-0.337893 0.220267,-0.728555 -0.08109,-0.334854 -0.418299,-0.472642 -0.32924,-0.139719 -0.870633,-0.109901 l -1.544453,0.07015 q -1.285714,0.05813 -2.074118,-0.409288 -0.788404,-0.467422 -1.02394,-1.440091 -0.193061,-0.79727 0.09267,-1.499476 0.293702,-0.704137 1.011817,-1.224079 0.726088,-0.521873 1.82632,-0.788298 1.092261,-0.264495 1.990423,-0.110618 0.896232,0.145903 1.505126,0.673674 0.616866,0.52584 0.853151,1.397046 l -2.176547,0.527058 q -0.131532,-0.508322 -0.603281,-0.748576 -0.471748,-0.240253 -1.101591,-0.08773 -0.605926,0.146726 -0.885041,0.492842 -0.281047,0.338143 -0.190308,0.71286 0.07916,0.326881 0.400423,0.46853 0.321268,0.141649 0.824728,0.129458 l 1.669835,-0.07519 q 1.335481,-0.06174 2.070507,0.359521 0.741069,0.411362 0.966951,1.344168 0.202714,0.837134 -0.123129,1.582814 -0.319801,0.735777 -1.079961,1.291222 -0.754117,0.54554 -1.85435,0.811965 z"
             style="font-weight:bold;font-family:Inter;-inkscape-font-specification:'Inter Bold'"
             id="path5044" /><path
             d="m 81.410685,62.677892 0.660035,1.776255 -5.328765,1.980107 -0.660035,-1.776255 z m -4.752193,-0.754473 2.268377,-0.842903 2.908728,7.827825 q 0.151437,0.407539 0.372918,0.509014 0.229171,0.09862 0.690535,-0.07282 0.192236,-0.07143 0.453676,-0.16858 0.26913,-0.100006 0.415228,-0.154294 l 0.660036,1.776254 q -0.207614,0.07715 -0.576706,0.214298 -0.369092,0.13715 -0.745873,0.277158 -1.337959,0.497169 -2.170476,0.211445 -0.824829,-0.288582 -1.236279,-1.395858 z"
             style="font-weight:bold;font-family:Inter;-inkscape-font-specification:'Inter Bold'"
             id="path5046" /><path
             d="m 89.370837,68.674855 q -0.765478,0.39488 -1.494906,0.448103 -0.729428,0.05322 -1.335323,-0.280339 -0.609657,-0.340853 -1.004537,-1.106331 -0.334707,-0.648833 -0.316013,-1.203064 0.01493,-0.561521 0.29509,-1.038334 0.283688,-0.487864 0.751713,-0.904675 0.475315,-0.420572 1.046791,-0.779986 0.669548,-0.437696 1.051246,-0.717672 0.381698,-0.279976 0.500022,-0.497929 0.118324,-0.217954 -0.0095,-0.465823 l -0.02632,-0.05103 q -0.14667,-0.284321 -0.408828,-0.416762 -0.265918,-0.139732 -0.614171,-0.116997 -0.340963,0.01897 -0.734637,0.222055 -0.393675,0.203081 -0.635933,0.484968 -0.234968,0.278125 -0.29335,0.594382 -0.05838,0.316256 0.06665,0.6302 l -2.019403,1.041731 q -0.358891,-0.820964 -0.244207,-1.618549 0.121975,-0.801345 0.71845,-1.505945 0.592713,-0.711891 1.649802,-1.257201 0.787348,-0.406162 1.501039,-0.54357 0.709931,-0.144699 1.309522,-0.02018 0.606881,0.120757 1.07756,0.496382 0.470679,0.375625 0.790343,0.995297 l 2.692705,5.219829 -2.099596,1.083099 -0.560353,-1.08625 -0.02916,0.01504 q -0.0086,0.484394 -0.168321,0.908325 -0.159753,0.423931 -0.510902,0.798912 -0.354911,0.36769 -0.945422,0.672311 z m -0.173154,-1.802886 q 0.517609,-0.267014 0.791632,-0.64836 0.281314,-0.385106 0.316207,-0.818469 0.03489,-0.433363 -0.17947,-0.848908 l -0.39864,-0.772768 q -0.06845,0.09992 -0.195219,0.229929 -0.130531,0.122718 -0.312093,0.271761 -0.185324,0.141752 -0.403338,0.309599 -0.218014,0.167847 -0.45437,0.335925 -0.341717,0.250121 -0.576685,0.528246 -0.238729,0.270836 -0.308394,0.565221 -0.07343,0.287096 0.08453,0.593287 0.139148,0.269739 0.386493,0.391361 0.247346,0.121622 0.569737,0.08454 0.32239,-0.03709 0.679613,-0.221362 z"
             style="font-weight:bold;font-family:Inter;-inkscape-font-specification:'Inter Bold'"
             id="path5048" /><path
             d="m 96.655196,61.384301 -1.64137,-2.335625 0.208058,-0.146214 0.577781,-4.456607 2.322202,-1.631937 -0.710336,5.823084 -0.456386,0.320727 z m -0.358148,3.299644 -7.027705,-10.000234 1.979912,-1.391391 7.027705,10.000233 z m 4.637692,-3.259158 -4.41129,-1.511982 0.341856,-2.295604 6.384924,2.180366 z"
             style="font-weight:bold;font-family:Inter;-inkscape-font-specification:'Inter Bold'"
             id="path5050" /><path
             d="m 107.57758,56.104037 q -0.96106,0.893873 -2.06692,1.138226 -1.10545,0.232758 -2.20022,-0.149351 -1.08878,-0.387696 -1.98265,-1.348762 -0.90505,-0.973078 -1.20136,-2.086627 -0.295891,-1.125141 0.0102,-2.205259 0.30612,-1.080118 1.21313,-1.923711 0.70278,-0.653644 1.49688,-0.944115 0.78851,-0.296478 1.61639,-0.237468 0.82229,0.053 1.60321,0.446961 0.78692,0.388371 1.46291,1.115176 l 0.44135,0.474526 -5.60421,5.212399 -1.0503,-1.129252 4.75126,-4.419086 -0.54748,1.013332 q -0.44694,-0.480533 -0.94516,-0.666904 -0.49822,-0.186372 -0.99577,-0.0709 -0.49712,0.103882 -0.94162,0.517299 -0.43848,0.407829 -0.57806,0.896138 -0.14517,0.482302 0.005,0.992703 0.14984,0.5104 0.59677,0.990933 l 0.7151,0.768852 q 0.45811,0.492546 0.97868,0.702945 0.52099,0.198804 1.04731,0.09018 0.52073,-0.114636 0.99526,-0.555986 0.34839,-0.324029 0.52329,-0.665951 0.17533,-0.353515 0.18793,-0.701316 0.013,-0.359394 -0.13795,-0.678294 l 1.61579,-1.502825 q 0.47247,0.736847 0.49895,1.608449 0.0265,0.871602 -0.35325,1.7401 -0.38531,0.86249 -1.15416,1.577589 z"
             style="font-weight:bold;font-family:Inter;-inkscape-font-specification:'Inter Bold'"
             id="path5052" /></g></g><g
         transform="matrix(7.1937404,0,0,7.1937404,-735.47367,13.21127)"
         id="g14963"
         inkscape:label="Logo">
<g
   id="g14961"
   transform="matrix(0.6933596,0,0,0.6933596,0.97298999,0.28937229)"
   inkscape:label="Logo"
   style="display:inline">
		<g
   transform="translate(0.91990781,-0.8)"
   id="g14947"
   inkscape:label="Circle">
<path
   style="opacity:1;fill:#e4003a;fill-opacity:1;fill-rule:nonzero;stroke:#ffffff;stroke-width:0.675556;stroke-linecap:butt;stroke-linejoin:miter;stroke-miterlimit:4;stroke-dasharray:none;stroke-dashoffset:0;stroke-opacity:1"
   d="m 0,7.39996 a 7.6,7.6 0 1 1 7.6,-7.6 7.6,7.6 0 0 1 -7.6,7.6 z"
   stroke-linecap="round"
   id="path14945" />
</g>
		<g
   transform="translate(0.81,-1.08)"
   id="g14951"
   style="display:none"
   inkscape:label="undefined">
<path
   style="opacity:1;fill:#ffffff;fill-rule:nonzero;stroke:none;stroke-width:1;stroke-linecap:butt;stroke-linejoin:miter;stroke-miterlimit:4;stroke-dasharray:none;stroke-dashoffset:0"
   transform="translate(-10.81,-11.92)"
   d="m 8.46,13.2 h -0.8 c -0.3,0 -0.4,-0.1 -0.4,-0.4 a 0.43,0.43 0 0 1 0.4,-0.4 h 0.9 a 0.35,0.35 0 0 0 0.2,-0.1 1.42,1.42 0 0 0 0.2,-0.6 h -0.7 a 0.4,0.4 0 1 1 0,-0.8 h 0.8 c 0.1,0 0.2,0 0.2,-0.1 a 23.29,23.29 0 0 0 1.1,-2.8 0.1,0.1 0 0 1 0.1,-0.1 c 0.1,-0.2 0.2,-0.3 0.4,-0.3 0.2,0 0.3,0.1 0.4,0.3 0.2,0.6 0.4,1.1 0.6,1.7 0.2,0.4 0.3,0.8 0.5,1.2 0,0.1 0.1,0.1 0.2,0.1 h 0.8 a 0.37,0.37 0 0 1 0.4,0.4 0.43,0.43 0 0 1 -0.4,0.4 h -0.7 a 4.88,4.88 0 0 0 0.3,0.7 0.35,0.35 0 0 0 0.2,0.1 h 0.9 c 0.1,0 0.3,0.1 0.3,0.2 a 0.6,0.6 0 0 1 -0.1,0.4 0.37,0.37 0 0 1 -0.3,0.1 h -0.8 a 3.55,3.55 0 0 0 0.4,0.9 l 0.6,1.5 c 0.1,0.3 0.1,0.5 -0.2,0.6 -0.3,0.1 -0.4,0 -0.5,-0.3 -0.3,-0.9 -0.7,-1.7 -1,-2.6 -0.1,-0.2 -0.1,-0.2 -0.3,-0.2 h -2.9 c -0.2,0 -0.2,0 -0.3,0.2 a 18.61,18.61 0 0 1 -1,2.5 c -0.1,0.2 -0.2,0.3 -0.4,0.3 a 0.27,0.27 0 0 1 -0.3,-0.3 0.37,0.37 0 0 1 0.1,-0.3 c 0.3,-0.7 0.5,-1.4 0.8,-2.1 0.2,0 0.2,-0.1 0.3,-0.2 z m 1,-0.8 h 2.7 c -0.1,-0.2 -0.2,-0.5 -0.3,-0.7 a 0.35,0.35 0 0 0 -0.2,-0.1 h -1.8 c -0.1,0 -0.1,0 -0.2,0.1 a 1.45,1.45 0 0 1 -0.2,0.7 z m 2.2,-1.5 c -0.3,-0.7 -0.5,-1.3 -0.8,-2 -0.3,0.7 -0.5,1.3 -0.8,2 z"
   stroke-linecap="round"
   id="path14949" />
</g>
<path
   style="opacity:1;fill:#050001;fill-opacity:1;stroke:#ffffff;stroke-width:0.786824;stroke-linecap:round;stroke-miterlimit:3.7;stroke-dasharray:none;stroke-opacity:1;paint-order:stroke fill markers"
   d="M -2.3986007,2.7360851 0.88883187,-5.0028575"
   id="path14953"
   sodipodi:nodetypes="cc" /><path
   style="opacity:1;fill:#050001;fill-opacity:1;stroke:#ffffff;stroke-width:0.786824;stroke-linecap:round;stroke-miterlimit:3.7;stroke-dasharray:none;stroke-opacity:1"
   d="M 4.2651388,2.7342975 0.98031102,-5.0045294"
   id="path14955"
   sodipodi:nodetypes="cc" /><path
   style="opacity:1;fill:#050001;fill-opacity:1;stroke:#ffffff;stroke-width:0.786824;stroke-linecap:round;stroke-miterlimit:3.7;stroke-dasharray:none;stroke-opacity:1"
   d="m -1.664028,-1.6872983 5.178973,-0.015567"
   id="path14957" /><path
   style="fill:#050001;fill-opacity:1;stroke:#ffffff;stroke-width:0.786824;stroke-linecap:round;stroke-miterlimit:3.7;stroke-dasharray:none;stroke-opacity:1"
   d="m -2.3298842,-0.18348542 6.5097684,-0.0124693"
   id="path14959" /></g>
</g></g></g></svg>
