<?xml version="1.0" encoding="UTF-8" standalone="no"?>
<svg
   inkscape:version="1.2.2 (b0a84865, 2022-12-01)"
   xml:space="preserve"
   sodipodi:docname="final_awards_pre-text-to-path.svg"
   id="svg134"
   version="1.1"
   viewBox="-120 -120 300 299.99995"
   height="249.99995"
   width="250"
   inkscape:export-filename="0.svg"
   inkscape:export-xdpi="96"
   inkscape:export-ydpi="96"
   xmlns:inkscape="http://www.inkscape.org/namespaces/inkscape"
   xmlns:sodipodi="http://sodipodi.sourceforge.net/DTD/sodipodi-0.dtd"
   xmlns="http://www.w3.org/2000/svg"
   xmlns:svg="http://www.w3.org/2000/svg"><defs
     id="defs138" /><sodipodi:namedview
     id="namedview136"
     pagecolor="#ffffff"
     bordercolor="#000000"
     borderopacity="0.25"
     inkscape:showpageshadow="2"
     inkscape:pageopacity="0.0"
     inkscape:pagecheckerboard="0"
     inkscape:deskcolor="#d1d1d1"
     showgrid="false"
     inkscape:zoom="0.35355339"
     inkscape:cx="1480.6816"
     inkscape:cy="663.26616"
     inkscape:window-width="1425"
     inkscape:window-height="949"
     inkscape:window-x="0"
     inkscape:window-y="25"
     inkscape:window-maximized="1"
     inkscape:current-layer="g19337"
     showguides="true" /><style
     type="text/css"
     id="style8571">
	.st0{fill:#ffffff;}
</style><g
     id="g14593"
     inkscape:label="Staked"
     transform="translate(-383.37336,-407.04369)"><g
       id="g17191"
       inkscape:label="5m"
       transform="matrix(1.4245145,0,0,1.4245145,1444.6038,428.98319)"
       inkscape:export-filename="./g8306.svg"
       inkscape:export-xdpi="96"
       inkscape:export-ydpi="96"><g
         id="g21851"
         inkscape:label="Borders"
         transform="translate(-723.91713,-246.34158)"><path
           fill="none"
           stroke="black"
           stroke-width="2"
           d="m 100,252 q 9.47,10.78 -1.919998,19.51 7.179998,12.42 -5.69,18.76 4.62,13.58 -9.24,17.29 1.88,14.22 -12.44,15.15 -0.93,14.32 -15.15,12.44 -3.71,13.86 -17.29,9.24 -6.34,12.87 -18.76,5.69 Q 10.780002,361.47 1.5258789e-6,352 -10.779998,361.47 -19.509998,350.08 q -12.42,7.18 -18.76,-5.69 -13.58,4.62 -17.29,-9.24 -14.22,1.88 -15.15,-12.44 -14.32,-0.93 -12.44,-15.15 -13.86,-3.71 -9.24,-17.29 -12.870002,-6.34 -5.69,-18.76 -11.390002,-8.73 -1.92,-19.51 -9.470002,-10.78 1.92,-19.51 -7.180002,-12.42 5.69,-18.76 -4.62,-13.58 9.24,-17.29 -1.88,-14.22 12.44,-15.15 0.93,-14.32 15.15,-12.44 3.71,-13.86 17.29,-9.24 6.34,-12.87 18.76,-5.69 Q -10.779998,142.53 1.5258789e-6,152 10.780002,142.53 19.510002,153.92 q 12.42,-7.18 18.76,5.69 13.58,-4.62 17.29,9.24 14.22,-1.88 15.15,12.44 14.32,0.93 12.44,15.15 13.86,3.71 9.24,17.29 12.869998,6.34 5.69,18.76 Q 109.47,241.22 100,252 Z"
           id="path21819"
           style="fill:#04344d;fill-opacity:1;stroke:#04344d;stroke-opacity:1" /><path
           style="fill:none;fill-opacity:1;stroke:#ffffff;stroke-width:3.6;stroke-linecap:round;stroke-dasharray:none;stroke-opacity:1;paint-order:stroke fill markers"
           id="path21821"
           sodipodi:type="arc"
           sodipodi:cx="0.0089565562"
           sodipodi:cy="251.99123"
           sodipodi:rx="92.730682"
           sodipodi:ry="92.730682"
           sodipodi:start="0.019634549"
           sodipodi:end="4.6929609"
           sodipodi:open="true"
           sodipodi:arc-type="arc"
           d="M 92.721765,253.81183 A 92.730682,92.730682 0 0 1 -0.60432934,344.71988 92.730682,92.730682 0 0 1 -92.719822,252.58537 92.730682,92.730682 0 0 1 -1.7925093,159.27804" /><path
           style="fill:none;fill-opacity:1;stroke:#ffffff;stroke-width:2.22;stroke-linecap:round;stroke-dasharray:none;stroke-opacity:1;paint-order:stroke fill markers"
           id="path21823"
           sodipodi:type="arc"
           sodipodi:cx="0.003594999"
           sodipodi:cy="251.99646"
           sodipodi:rx="86.865753"
           sodipodi:ry="86.865753"
           sodipodi:start="0.012850983"
           sodipodi:end="4.6996412"
           sodipodi:arc-type="arc"
           d="M 86.862175,253.11274 A 86.865753,86.865753 0 0 1 -0.37149553,338.8614 86.865753,86.865753 0 0 1 -86.861387,252.36259 86.865753,86.865753 0 0 1 -1.1037206,165.13776"
           sodipodi:open="true" /><g
           id="g21849"
           inkscape:label="Circles"
           transform="translate(-514.7999,251.99126)"><g
             id="g21827"
             transform="rotate(7.5,5558.9497,3252.8791)"
             inkscape:transform-center-x="-11.777454"
             inkscape:transform-center-y="-88.637902"><path
               sodipodi:type="star"
               style="fill:#fefeff;fill-opacity:1;stroke:#ffffff;stroke-width:2.22;stroke-linecap:round;stroke-opacity:1;paint-order:stroke fill markers"
               id="path21825"
               inkscape:flatsided="false"
               sodipodi:sides="5"
               sodipodi:cx="396.99625"
               sodipodi:cy="-372.60107"
               sodipodi:r1="3.6169088"
               sodipodi:r2="1.6637779"
               sodipodi:arg1="0.95906936"
               sodipodi:arg2="1.5873879"
               inkscape:rounded="0"
               inkscape:randomized="0"
               d="m 399.07337,-369.64006 -2.10473,-1.29747 -2.14661,1.22692 0.58356,-2.40265 -1.83021,-1.66242 2.46539,-0.18746 1.01548,-2.25435 0.94014,2.2868 2.45781,0.26915 -1.88435,1.60078 z"
               transform="matrix(1.0133273,0,0,1.0133273,-268.95197,974.58915)"
               inkscape:transform-center-x="1.0196929"
               inkscape:transform-center-y="-89.532179"
               inkscape:label="path5969" /></g><g
             id="g21831"
             transform="rotate(22.5,2049.0208,1301.9125)"
             inkscape:transform-center-x="-34.354027"
             inkscape:transform-center-y="-82.323429"><path
               sodipodi:type="star"
               style="fill:#fefeff;fill-opacity:1;stroke:#ffffff;stroke-width:2.22;stroke-linecap:round;stroke-opacity:1;paint-order:stroke fill markers"
               id="path21829"
               inkscape:flatsided="false"
               sodipodi:sides="5"
               sodipodi:cx="396.99625"
               sodipodi:cy="-372.60107"
               sodipodi:r1="3.6169088"
               sodipodi:r2="1.6637779"
               sodipodi:arg1="0.95906936"
               sodipodi:arg2="1.5873879"
               inkscape:rounded="0"
               inkscape:randomized="0"
               d="m 399.07337,-369.64006 -2.10473,-1.29747 -2.14661,1.22692 0.58356,-2.40265 -1.83021,-1.66242 2.46539,-0.18746 1.01548,-2.25435 0.94014,2.2868 2.45781,0.26915 -1.88435,1.60078 z"
               transform="matrix(1.0133273,0,0,1.0133273,-268.95197,974.58915)"
               inkscape:transform-center-x="1.0196929"
               inkscape:transform-center-y="-89.532179"
               inkscape:label="path5969" /></g><g
             id="g21835"
             transform="rotate(37.5,1334.8573,904.95028)"
             inkscape:transform-center-x="-54.232035"
             inkscape:transform-center-y="-70.490863"><path
               sodipodi:type="star"
               style="fill:#fefeff;fill-opacity:1;stroke:#ffffff;stroke-width:2.22;stroke-linecap:round;stroke-opacity:1;paint-order:stroke fill markers"
               id="path21833"
               inkscape:flatsided="false"
               sodipodi:sides="5"
               sodipodi:cx="396.99625"
               sodipodi:cy="-372.60107"
               sodipodi:r1="3.6169088"
               sodipodi:r2="1.6637779"
               sodipodi:arg1="0.95906936"
               sodipodi:arg2="1.5873879"
               inkscape:rounded="0"
               inkscape:randomized="0"
               d="m 399.07337,-369.64006 -2.10473,-1.29747 -2.14661,1.22692 0.58356,-2.40265 -1.83021,-1.66242 2.46539,-0.18746 1.01548,-2.25435 0.94014,2.2868 2.45781,0.26915 -1.88435,1.60078 z"
               transform="matrix(1.0133273,0,0,1.0133273,-268.95197,974.58915)"
               inkscape:transform-center-x="1.0196929"
               inkscape:transform-center-y="-89.532179"
               inkscape:label="path5969" /></g><g
             id="g21839"
             transform="rotate(52.5,1019.845,729.85313)"
             inkscape:transform-center-x="-70.414229"
             inkscape:transform-center-y="-54.322566"><path
               sodipodi:type="star"
               style="fill:#fefeff;fill-opacity:1;stroke:#ffffff;stroke-width:2.22;stroke-linecap:round;stroke-opacity:1;paint-order:stroke fill markers"
               id="path21837"
               inkscape:flatsided="false"
               sodipodi:sides="5"
               sodipodi:cx="396.99625"
               sodipodi:cy="-372.60107"
               sodipodi:r1="3.6169088"
               sodipodi:r2="1.6637779"
               sodipodi:arg1="0.95906936"
               sodipodi:arg2="1.5873879"
               inkscape:rounded="0"
               inkscape:randomized="0"
               d="m 399.07337,-369.64006 -2.10473,-1.29747 -2.14661,1.22692 0.58356,-2.40265 -1.83021,-1.66242 2.46539,-0.18746 1.01548,-2.25435 0.94014,2.2868 2.45781,0.26915 -1.88435,1.60078 z"
               transform="matrix(1.0133273,0,0,1.0133273,-268.95197,974.58915)"
               inkscape:transform-center-x="1.0196929"
               inkscape:transform-center-y="-89.532179"
               inkscape:label="path5969" /></g><g
             id="g21843"
             transform="rotate(67.5,837.58649,628.54617)"
             inkscape:transform-center-x="-82.3354"
             inkscape:transform-center-y="-34.452242"><path
               sodipodi:type="star"
               style="fill:#fefeff;fill-opacity:1;stroke:#ffffff;stroke-width:2.22;stroke-linecap:round;stroke-opacity:1;paint-order:stroke fill markers"
               id="path21841"
               inkscape:flatsided="false"
               sodipodi:sides="5"
               sodipodi:cx="396.99625"
               sodipodi:cy="-372.60107"
               sodipodi:r1="3.6169088"
               sodipodi:r2="1.6637779"
               sodipodi:arg1="0.95906936"
               sodipodi:arg2="1.5873879"
               inkscape:rounded="0"
               inkscape:randomized="0"
               d="m 399.07337,-369.64006 -2.10473,-1.29747 -2.14661,1.22692 0.58356,-2.40265 -1.83021,-1.66242 2.46539,-0.18746 1.01548,-2.25435 0.94014,2.2868 2.45781,0.26915 -1.88435,1.60078 z"
               transform="matrix(1.0133273,0,0,1.0133273,-268.95197,974.58915)"
               inkscape:transform-center-x="1.0196929"
               inkscape:transform-center-y="-89.532179"
               inkscape:label="path5969" /></g><g
             id="g21847"
             transform="rotate(82.5,715.32761,560.58954)"
             inkscape:transform-center-x="-88.666206"
             inkscape:transform-center-y="-11.806367"><path
               sodipodi:type="star"
               style="fill:#fefeff;fill-opacity:1;stroke:#ffffff;stroke-width:2.22;stroke-linecap:round;stroke-opacity:1;paint-order:stroke fill markers"
               id="path21845"
               inkscape:flatsided="false"
               sodipodi:sides="5"
               sodipodi:cx="396.99625"
               sodipodi:cy="-372.60107"
               sodipodi:r1="3.6169088"
               sodipodi:r2="1.6637779"
               sodipodi:arg1="0.95906936"
               sodipodi:arg2="1.5873879"
               inkscape:rounded="0"
               inkscape:randomized="0"
               d="m 399.07337,-369.64006 -2.10473,-1.29747 -2.14661,1.22692 0.58356,-2.40265 -1.83021,-1.66242 2.46539,-0.18746 1.01548,-2.25435 0.94014,2.2868 2.45781,0.26915 -1.88435,1.60078 z"
               transform="matrix(1.0133273,0,0,1.0133273,-268.95197,974.58915)"
               inkscape:transform-center-x="1.0196929"
               inkscape:transform-center-y="-89.532179"
               inkscape:label="path5969" /></g></g></g><g
         id="g17169"
         inkscape:label="Texts"
         transform="translate(-779.21285,5.3718335)"><circle
           style="fill:none;fill-opacity:1;stroke:none;stroke-width:3.01836;stroke-linecap:round;stroke-opacity:1;paint-order:stroke fill markers"
           id="circle17153"
           cx="-1.4210855e-14"
           cy="-55.295727"
           transform="matrix(0,-1,-1,0,0,0)"
           r="76.490822"
           inkscape:label="Bottom-text-path" /><circle
           style="fill:none;fill-opacity:1;stroke:none;stroke-width:2.48601;stroke-linecap:round;stroke-opacity:1;paint-order:stroke fill markers"
           id="circle17155"
           cx="1.4210855e-14"
           cy="-55.295727"
           transform="rotate(90)"
           inkscape:label="Top-text-path"
           r="63" /><g
           aria-label="Cexplorer.io"
           id="text17163"
           style="font-size:16.8px;font-family:ROBOTO;-inkscape-font-specification:ROBOTO;text-align:center;letter-spacing:1.2px;text-anchor:middle;fill:#fefeff;stroke:#ffffff;stroke-width:0.744;stroke-linecap:round;paint-order:stroke fill markers"><path
             d="m 14.858755,-48.055292 q -1.276057,1.082623 -2.776689,1.355314 -1.499685,0.261129 -2.987961,-0.32652 -1.4873279,-0.599212 -2.7397738,-2.075435 -1.2630598,-1.488732 -1.6119449,-3.053813 -0.3426299,-1.570388 0.1646503,-3.001236 0.5135355,-1.436154 1.7895923,-2.518777 0.8194286,-0.695214 1.7269808,-1.045643 0.9075521,-0.350429 1.8275993,-0.356455 0.926303,-0.01133 1.806343,0.328555 0.880039,0.33989 1.656004,1.026262 l -1.945361,1.650469 q -0.431578,-0.343851 -0.889889,-0.503656 -0.463618,-0.16606 -0.92459,-0.151485 -0.466279,0.0083 -0.9183498,0.198225 -0.4511226,0.178342 -0.8702197,0.533909 -0.7944079,0.673986 -1.0336487,1.53318 -0.2329856,0.853886 0.061147,1.809201 0.2888255,0.94906 1.1007925,1.906103 0.80666,0.950787 1.6897276,1.395684 0.8893231,0.43959 1.7760141,0.343529 0.886692,-0.09606 1.6811,-0.770048 0.419097,-0.355567 0.673861,-0.765351 0.254765,-0.409783 0.338942,-0.868477 0.08418,-0.458693 0.0012,-0.936917 -0.083,-0.478223 -0.334126,-0.964414 l 1.939106,-1.645162 q 0.545472,0.871168 0.737441,1.794824 0.19197,0.923657 0.02987,1.835737 -0.162098,0.91208 -0.655706,1.750413 -0.49266,0.826771 -1.312089,1.521984 z"
             style="font-weight:bold;font-family:Inter;-inkscape-font-specification:Inter"
             id="path5055" /><path
             d="m 24.407684,-54.696185 q -1.103047,0.632425 -2.175545,0.575976 -1.065382,-0.06053 -1.984075,-0.706316 -0.922773,-0.652904 -1.571518,-1.784416 -0.656906,-1.145745 -0.732824,-2.284189 -0.07592,-1.138443 0.402965,-2.084367 0.474803,-0.95304 1.471103,-1.524262 0.782807,-0.448818 1.572259,-0.523215 0.796568,-0.07848 1.546835,0.191089 0.750267,0.269565 1.401285,0.860796 0.654055,0.580033 1.155915,1.455354 l 0.191767,0.334472 -6.177059,3.541579 -0.595704,-1.038998 5.500999,-3.153964 -0.311411,0.660789 q -0.440657,-0.768574 -1.04053,-1.171645 -0.596838,-0.414268 -1.270434,-0.434664 -0.677677,-0.02751 -1.353738,0.360104 -0.668944,0.383535 -0.987567,0.982269 -0.315587,0.587538 -0.266715,1.315978 0.05191,0.717244 0.492566,1.485818 l 0.293772,0.512383 q 0.444737,0.775691 1.050778,1.222505 0.613158,0.442733 1.321389,0.49055 0.70415,0.0407 1.437142,-0.379556 0.533732,-0.306012 0.845525,-0.702259 0.307712,-0.403363 0.399653,-0.853219 0.09906,-0.453936 -0.01149,-0.910622 l 1.209793,-0.693627 q 0.269767,0.800362 0.135605,1.605377 -0.138243,0.797899 -0.638857,1.49152 -0.493497,0.689542 -1.311886,1.15876 z"
             style="font-family:Inter;-inkscape-font-specification:Inter"
             id="path5057" /><path
             d="m 29.024949,-57.419381 1.614151,-5.923659 0.376633,1.006479 -4.912407,-3.239941 1.532131,-0.586708 1.70565,1.17392 q 0.511287,0.348818 1.007253,0.703503 0.493033,0.347025 0.999593,0.706438 l -0.643494,0.246417 q 0.144595,-0.608763 0.279735,-1.196338 0.139868,-0.59817 0.287397,-1.199272 l 0.500618,-2.018779 1.509149,-0.577907 -1.49956,5.695313 -0.387227,-1.011206 5.122496,3.352738 -1.524469,0.583774 -1.99104,-1.345722 q -0.497759,-0.33643 -0.977264,-0.671067 -0.479505,-0.334637 -0.972538,-0.681662 l 0.651156,-0.249351 q -0.135141,0.587575 -0.276149,1.159829 -0.141008,0.572254 -0.286743,1.155102 l -0.598262,2.337258 z"
             style="font-family:Inter;-inkscape-font-specification:Inter"
             id="path5059" /><path
             d="m 39.607891,-57.605288 -2.432547,-11.844188 1.333878,-0.273951 0.257447,1.253524 0.01607,-0.0033 q 0.175836,-0.530199 0.529315,-0.929396 0.353479,-0.399197 0.836389,-0.657489 0.48126,-0.266327 1.027668,-0.378548 1.108886,-0.227742 2.050404,0.15672 0.941518,0.384462 1.604173,1.286785 0.661006,0.894288 0.930005,2.204059 0.267349,1.301736 0.01397,2.392193 -0.255031,1.082423 -0.967157,1.814882 -0.713776,0.724425 -1.822662,0.952166 -0.546407,0.112221 -1.069573,0.05218 -0.521516,-0.052 -0.997333,-0.289255 -0.475818,-0.23725 -0.881832,-0.664699 l -0.01607,0.0033 0.953875,4.644465 z m 2.915536,-5.213053 q 0.739258,-0.151828 1.227473,-0.628942 0.488214,-0.477115 0.664404,-1.250243 0.176189,-0.773128 -0.0367,-1.809695 -0.214539,-1.044603 -0.681182,-1.685706 -0.466643,-0.641104 -1.103385,-0.887176 -0.636742,-0.246072 -1.375999,-0.09424 -0.78747,0.16173 -1.285155,0.674286 -0.497684,0.512557 -0.664188,1.29207 -0.166504,0.779513 0.03153,1.743762 0.196386,0.956213 0.656644,1.607002 0.460257,0.65079 1.119671,0.925703 0.659415,0.274913 1.446884,0.113183 z"
             style="font-family:Inter;-inkscape-font-specification:Inter"
             id="path5061" /><path
             d="m 49.868364,-75.032574 0.983695,12.183007 -1.390008,0.112234 -0.983695,-12.183007 z"
             style="font-family:Inter;-inkscape-font-specification:Inter"
             id="path5063" /><path
             d="m 57.684922,-62.75852 q -1.196813,-0.04493 -2.085176,-0.652908 -0.879858,-0.615865 -1.349932,-1.651417 -0.461876,-1.035245 -0.412327,-2.355018 0.04986,-1.327971 0.588364,-2.333866 0.546705,-1.005588 1.470265,-1.553747 0.931756,-0.547851 2.128569,-0.502918 1.20501,0.04524 2.084868,0.661105 0.879858,0.615865 1.341427,1.659307 0.469766,1.04375 0.419909,2.37172 -0.04955,1.319774 -0.595946,2.317164 -0.5382,0.997698 -1.461759,1.545857 -0.923252,0.539961 -2.128262,0.494721 z m 0.04739,-1.262392 q 0.819735,0.03078 1.416827,-0.349044 0.597092,-0.379819 0.935982,-1.097689 0.339197,-0.726066 0.37582,-1.701551 0.03724,-0.991879 -0.24687,-1.733138 -0.283802,-0.749456 -0.850425,-1.181174 -0.566624,-0.431719 -1.386359,-0.462494 -0.811538,-0.03047 -1.417135,0.357241 -0.597092,0.379819 -0.936289,1.105886 -0.339198,0.726067 -0.376436,1.717946 -0.03693,0.983682 0.247178,1.724941 0.284109,0.741259 0.851041,1.164779 0.566931,0.423521 1.386666,0.454297 z"
             style="font-family:Inter;-inkscape-font-specification:Inter"
             id="path5065" /><path
             d="m 64.50772,-62.351707 1.472099,-8.5365 1.309576,0.225834 -0.231409,1.341912 0.03234,0.0056 q 0.348741,-0.622445 0.927723,-0.938812 0.578981,-0.316366 1.379278,-0.178357 0.185928,0.03206 0.336732,0.07472 0.158888,0.04405 0.236938,0.07416 l -0.236986,1.374247 q -0.07666,-0.03819 -0.30551,-0.110954 -0.219376,-0.07945 -0.518477,-0.131031 -0.468861,-0.08085 -0.91069,0.06771 -0.441829,0.148561 -0.763804,0.567517 -0.321974,0.418956 -0.447437,1.146498 l -0.906121,5.254475 z"
             style="font-family:Inter;-inkscape-font-specification:Inter"
             id="path5067" /><path
             d="m 74.208055,-59.905665 q -1.213253,-0.380379 -1.900034,-1.206073 -0.678954,-0.82324 -0.828643,-1.936178 -0.147235,-1.120766 0.242959,-2.36533 0.395103,-1.260218 1.179334,-2.088951 0.78423,-0.828733 1.803832,-1.119444 1.022056,-0.298538 2.117898,0.04503 0.861019,0.269946 1.451672,0.799 0.59848,0.531509 0.910009,1.265345 0.311529,0.733836 0.319521,1.613219 0.01827,0.87401 -0.283575,1.836786 l -0.11534,0.367889 -6.794221,-2.130118 0.358292,-1.142807 6.050614,1.896984 -0.696561,0.220053 q 0.265038,-0.845364 0.153638,-1.55944 -0.101118,-0.719449 -0.543515,-1.227813 -0.439943,-0.516191 -1.18355,-0.749326 -0.73578,-0.230681 -1.391679,-0.05806 -0.645618,0.167251 -1.147213,0.697738 -0.491313,0.525114 -0.756351,1.370478 l -0.176691,0.563576 q -0.267492,0.853191 -0.184017,1.601497 0.0913,0.750759 0.537083,1.303168 0.448236,0.544582 1.254463,0.797349 0.587058,0.184054 1.089665,0.143904 0.505062,-0.04798 0.897748,-0.28593 0.400513,-0.235499 0.660725,-0.626743 l 1.330665,0.417189 q -0.404408,0.741491 -1.086499,1.189598 -0.679637,0.440281 -1.528769,0.543726 -0.841304,0.105899 -1.74146,-0.176316 z"
             style="font-family:Inter;-inkscape-font-specification:Inter"
             id="path5069" /><path
             d="m 80.477228,-57.777399 3.609932,-7.874471 1.208016,0.553797 -0.567471,1.237843 0.02983,0.01367 q 0.496566,-0.512329 1.137275,-0.669808 0.640708,-0.157479 1.37894,0.180953 0.171508,0.07862 0.306352,0.15849 0.142301,0.08328 0.210033,0.132383 l -0.581145,1.26767 q -0.06431,-0.05656 -0.266889,-0.185519 -0.1917,-0.133003 -0.467605,-0.259487 -0.432499,-0.198273 -0.897643,-0.167862 -0.465143,0.03041 -0.883704,0.352899 -0.418561,0.322487 -0.726226,0.993607 l -2.222023,4.846975 z"
             style="font-family:Inter;-inkscape-font-specification:Inter"
             id="path5071" /><path
             d="m 86.108686,-54.803396 q -0.371631,-0.209394 -0.491095,-0.615669 -0.10829,-0.409396 0.101104,-0.781026 0.213422,-0.378778 0.61567,-0.491095 0.409395,-0.108291 0.781026,0.101104 0.378777,0.213422 0.491095,0.61567 0.112317,0.402248 -0.101105,0.781026 -0.209394,0.371631 -0.615669,0.491095 -0.402249,0.112317 -0.781026,-0.101105 z"
             style="font-family:Inter;-inkscape-font-specification:Inter"
             id="path5073" /><path
             d="m 89.66592,-52.811898 4.811696,-7.203227 1.159611,0.774611 -4.811697,7.203226 z m 6.330147,-8.221096 q -0.327419,-0.218714 -0.404419,-0.605558 -0.077,-0.386844 0.141713,-0.714263 0.218714,-0.32742 0.605558,-0.40442 0.386844,-0.077 0.714263,0.141714 0.32742,0.218713 0.40442,0.605557 0.077,0.386844 -0.141714,0.714264 -0.218713,0.327419 -0.605557,0.404419 -0.386845,0.077 -0.714264,-0.141713 z"
             style="font-family:Inter;-inkscape-font-specification:Inter"
             id="path5075" /><path
             d="m 96.123878,-47.722538 q -0.909702,-0.778988 -1.227838,-1.807391 -0.306569,-1.029298 -0.03127,-2.132725 0.281525,-1.098091 1.140546,-2.101256 0.864356,-1.009396 1.911379,-1.462783 1.053253,-0.448052 2.117465,-0.303533 1.07044,0.149855 1.98015,0.928843 0.91593,0.784323 1.2225,1.813621 0.30657,1.029298 0.0197,2.13362 -0.28063,1.109658 -1.14499,2.119054 -0.85902,1.003165 -1.90694,1.444986 -1.041679,0.447156 -2.105894,0.302637 -1.058879,-0.15075 -1.974813,-0.935073 z m 0.821672,-0.959549 q 0.623084,0.533553 1.326915,0.607065 0.70383,0.07351 1.415465,-0.278283 0.71697,-0.358025 1.3519,-1.099495 0.6456,-0.753931 0.88369,-1.511226 0.24342,-0.763526 0.0678,-1.45389 -0.17561,-0.690365 -0.7987,-1.223918 -0.61685,-0.528218 -1.332246,-0.600835 -0.70383,-0.07351 -1.4208,0.284514 -0.71697,0.358025 -1.362569,1.111957 -0.640264,0.7477 -0.878355,1.504995 -0.23809,0.757295 -0.05714,1.441429 0.180949,0.684134 0.804032,1.217687 z"
             style="font-family:Inter;-inkscape-font-specification:Inter"
             id="path5077" /></g><g
           aria-label="5M ADA stake"
           id="text17167"
           style="font-size:16.8px;font-family:ROBOTO;-inkscape-font-specification:ROBOTO;text-align:center;letter-spacing:1.34783px;text-anchor:middle;fill:#fefeff;stroke:#ffffff;stroke-width:0.744;stroke-linecap:round;paint-order:stroke fill markers"><path
             d="M 2.4604123,55.56023 Q 1.5153372,54.661329 1.1293933,53.614974 0.74344932,52.568619 0.92606516,51.519632 1.108681,50.470644 1.8692853,49.563846 l 1.7296658,1.645159 q -0.3663138,0.432741 -0.469219,0.957525 -0.097252,0.51884 0.072525,1.042598 0.1754308,0.517815 0.6212209,0.941825 0.4576779,0.435316 1.0002936,0.555182 0.554213,0.119575 1.0949317,-0.06803 Q 6.4710194,54.450206 6.9289501,53.968753 7.3981878,53.475412 7.5641524,52.920037 7.730117,52.364662 7.5948414,51.828436 7.4595661,51.292205 7.013776,50.868195 6.4312769,50.314155 5.7777605,50.168055 5.1358414,50.021664 4.5629444,50.31452 l -1.6642832,-1.58297 5.2032406,-4.922994 5.6704502,5.393407 -1.407713,1.480023 -4.059662,-3.861317 -2.1505046,1.939598 0.011888,0.01131 q 0.6782988,-0.02279 1.2939834,0.234504 0.6272818,0.257001 1.1800616,0.782773 0.6003307,0.571 0.9145033,1.300026 0.319826,0.723081 0.327976,1.51199 0.019747,0.788619 -0.280158,1.556231 Q 9.3144184,54.924419 8.7038441,55.566357 7.8388637,56.475768 6.7559743,56.793 5.6846822,57.10994 4.5629164,56.801496 3.4470945,56.498706 2.4604123,55.56023 Z"
             style="font-weight:bold;font-family:Inter;-inkscape-font-specification:'Inter Bold'"
             id="path5080" /><path
             d="m 7.9447394,60.437976 6.6919906,-10.227931 3.082108,2.01658 -1.428302,5.868734 q -0.108124,0.389995 -0.27387,0.957954 -0.161254,0.561095 -0.347083,1.174732 -0.181337,0.606772 -0.363184,1.154393 -0.174983,0.552112 -0.294718,0.914905 l -0.528557,-0.345828 q 0.284479,-0.255002 0.713444,-0.640937 0.43583,-0.381444 0.9192,-0.790601 0.487862,-0.416021 0.930556,-0.792973 0.45405,-0.379326 0.761241,-0.639074 l 4.784985,-3.672504 3.082108,2.01658 -6.69199,10.227931 -2.073044,-1.356363 3.179818,-4.859984 q 0.224564,-0.343219 0.54819,-0.807879 0.323626,-0.46466 0.687674,-0.991099 0.368539,-0.533304 0.741569,-1.073472 0.377522,-0.547032 0.707758,-1.036777 l 0.253982,0.166177 q -0.512691,0.438987 -1.057076,0.896449 -0.537521,0.461954 -1.04572,0.894077 -0.5082,0.432122 -0.948776,0.790855 -0.42922,0.356359 -0.738784,0.604752 l -4.909643,3.728183 -1.716096,-1.122817 1.429401,-6.005257 q 0.103632,-0.38313 0.251413,-0.923632 0.152271,-0.547366 0.337845,-1.190578 0.192438,-0.638721 0.38674,-1.325238 0.201166,-0.682026 0.391231,-1.332102 l 0.302032,0.197616 q -0.316507,0.498726 -0.666571,1.063724 -0.345572,0.558133 -0.686654,1.109402 -0.33659,0.544404 -0.639623,1.022538 -0.296169,0.482625 -0.520732,0.825844 l -3.179819,4.859984 z"
             style="font-weight:bold;font-family:Inter;-inkscape-font-specification:'Inter Bold'"
             id="path5082" /><path
             d="m 25.628578,70.774696 7.912783,-10.256085 3.08398,1.020498 0.233284,12.95164 -2.655649,-0.878761 0.04598,-6.249196 q 0.03364,-1.224471 0.06453,-2.518976 0.04125,-1.299715 0.125863,-2.939347 l 0.661965,0.219046 q -0.925694,1.361315 -1.67564,2.426522 -0.739582,1.059996 -1.458547,2.05769 l -3.752989,5.022538 z m 3.423088,-1.675475 0.633945,-1.915806 6.066718,2.007494 -0.633946,1.915805 z"
             style="font-weight:bold;font-family:Inter;-inkscape-font-specification:'Inter Bold'"
             id="path5084" /><path
             d="m 43.448442,75.579573 -3.122733,-0.472003 0.31753,-2.100748 2.992956,0.452388 q 1.216649,0.183898 2.080182,-0.150172 0.864758,-0.34218 1.386492,-1.15932 0.52296,-0.825251 0.715439,-2.098677 0.19248,-1.273426 -0.06444,-2.208261 -0.256921,-0.934834 -0.983144,-1.509196 -0.718111,-0.573136 -1.918538,-0.754582 l -3.074067,-0.464647 0.31753,-2.100748 3.228175,0.487942 q 1.816863,0.27462 3.035501,1.213781 1.219865,0.931051 1.737004,2.3947 0.517139,1.463648 0.236389,3.321066 -0.28075,1.857417 -1.208593,3.110952 -0.926618,1.245423 -2.376496,1.781236 -1.441768,0.537039 -3.299185,0.256289 z m 0.05852,-12.352645 -1.826715,12.085381 -2.498186,-0.377603 1.826715,-12.08538 z"
             style="font-weight:bold;font-family:Inter;-inkscape-font-specification:'Inter Bold'"
             id="path5086" /><path
             d="m 50.709628,76.581061 4.079789,-12.2945 3.247958,-0.05576 4.499416,12.147209 -2.796853,0.04802 -2.021339,-5.913439 Q 57.34578,69.345772 56.947229,68.11376 56.556739,66.873406 56.09486,65.297899 l 0.697163,-0.01197 q -0.423928,1.590715 -0.779812,2.843883 -0.347824,1.244826 -0.696773,2.424037 l -1.882774,5.980466 z m 2.677272,-2.712373 -0.03464,-2.017671 6.389293,-0.109694 0.03464,2.017671 z"
             style="font-weight:bold;font-family:Inter;-inkscape-font-specification:'Inter Bold'"
             id="path5088" /><path
             d="m 73.255173,74.590012 q -1.092829,0.262135 -2.026715,0.13184 -0.935799,-0.138272 -1.599389,-0.653963 -0.66359,-0.515692 -0.959571,-1.397942 l 2.313287,-0.554883 q 0.195839,0.535095 0.669304,0.750523 0.473465,0.215428 1.159474,0.05088 0.654102,-0.156898 0.961722,-0.492196 0.315597,-0.337212 0.221841,-0.728078 -0.08036,-0.335028 -0.417277,-0.473544 -0.328938,-0.140429 -0.870394,-0.111781 l -1.5446,0.06681 q -1.285837,0.05536 -2.07323,-0.413767 -0.787393,-0.469123 -1.020826,-1.442299 -0.191339,-0.797685 0.09591,-1.499272 0.295223,-0.703501 1.01446,-1.221891 0.727213,-0.520303 1.828019,-0.784351 1.092828,-0.262135 1.990657,-0.106319 0.895915,0.147839 1.503666,0.676924 0.615729,0.527172 0.850133,1.398885 l -2.177681,0.522356 q -0.130434,-0.508605 -0.601662,-0.749877 -0.471229,-0.241272 -1.1014,-0.09011 -0.606241,0.145418 -0.886104,0.49093 -0.281776,0.337535 -0.191847,0.712447 0.07845,0.327051 0.39941,0.469394 0.320962,0.142343 0.824447,0.131238 l 1.669993,-0.07158 q 1.335611,-0.05886 2.069726,0.363992 0.740178,0.412962 0.964045,1.346254 0.200906,0.83757 -0.126547,1.582544 -0.32139,0.735085 -1.082748,1.288886 -0.755293,0.543911 -1.856099,0.807958 z"
             style="font-weight:bold;font-family:Inter;-inkscape-font-specification:'Inter Bold'"
             id="path5090" /><path
             d="m 81.276339,62.733767 0.656198,1.777676 -5.333029,1.968593 -0.656198,-1.777676 z m -4.750552,-0.764735 2.270192,-0.838002 2.891815,7.834089 q 0.150557,0.407865 0.371818,0.509818 0.228957,0.09911 0.690691,-0.07133 0.192389,-0.07102 0.454038,-0.1676 0.269345,-0.09942 0.415561,-0.153397 l 0.656198,1.777676 q -0.207781,0.0767 -0.577168,0.213051 -0.369387,0.136353 -0.74647,0.275547 -1.339029,0.494278 -2.170928,0.206756 -0.824203,-0.290362 -1.233261,-1.398524 z"
             style="font-weight:bold;font-family:Inter;-inkscape-font-specification:'Inter Bold'"
             id="path5092" /><path
             d="m 89.223506,68.747905 q -0.766326,0.393231 -1.495867,0.444884 -0.729541,0.05165 -1.334717,-0.283213 -0.608921,-0.342164 -1.002152,-1.10849 -0.333311,-0.649552 -0.313424,-1.203741 0.01614,-0.561488 0.297325,-1.037697 0.284736,-0.487252 0.753657,-0.903055 0.47622,-0.419548 1.048468,-0.777731 0.670489,-0.436254 1.052789,-0.715408 0.3823,-0.279153 0.501092,-0.496851 0.118793,-0.217699 -0.0085,-0.465842 l -0.02622,-0.05109 Q 88.5499,61.865036 88.288028,61.73203 88.022411,61.591726 87.67411,61.613712 q -0.341003,0.01824 -0.735114,0.220474 -0.39411,0.202233 -0.636974,0.483597 -0.235566,0.27762 -0.29463,0.59375 -0.05906,0.31613 0.06529,0.630342 l -2.02164,1.037381 q -0.357124,-0.821734 -0.240723,-1.61907 0.123699,-0.801081 0.721689,-1.504396 0.594245,-0.710613 1.652504,-1.253646 0.788221,-0.404467 1.502206,-0.540339 0.710241,-0.143169 1.309562,-0.01736 0.60662,0.122064 1.07649,0.498701 0.469869,0.376637 0.788199,0.996996 l 2.681463,5.225612 -2.101922,1.078577 -0.558014,-1.087453 -0.02919,0.01498 q -0.0096,0.484376 -0.170275,0.907962 -0.160664,0.423586 -0.51262,0.79781 -0.355701,0.366925 -0.946867,0.670275 z M 89.054233,66.94465 q 0.518182,-0.265899 0.793026,-0.646654 0.282142,-0.3845 0.317968,-0.817787 0.03583,-0.433287 -0.177643,-0.849293 l -0.396976,-0.773624 q -0.06866,0.09977 -0.195713,0.229509 -0.130795,0.122436 -0.312678,0.271088 -0.185628,0.141354 -0.404003,0.308731 -0.218375,0.167377 -0.455091,0.334945 -0.342255,0.249385 -0.577821,0.527004 -0.239311,0.270321 -0.30961,0.564556 -0.07404,0.286937 0.08325,0.593467 0.138567,0.270039 0.385651,0.392193 0.247083,0.122154 0.569553,0.08576 0.322469,-0.03639 0.680088,-0.219898 z"
             style="font-weight:bold;font-family:Inter;-inkscape-font-specification:'Inter Bold'"
             id="path5094" /><path
             d="m 96.523516,61.472995 -1.63637,-2.339131 0.208371,-0.145768 0.587314,-4.455362 2.325688,-1.626965 -0.722792,5.821551 -0.457072,0.31975 z m -0.365206,3.29887 -7.006295,-10.015246 1.982884,-1.387152 7.006295,10.015245 z m 4.64465,-3.249228 -4.408041,-1.521417 0.346766,-2.294867 6.380245,2.194021 z"
             style="font-weight:bold;font-family:Inter;-inkscape-font-specification:'Inter Bold'"
             id="path5096" /><path
             d="m 107.45717,56.216068 q -0.96297,0.891822 -2.06935,1.133816 -1.10593,0.230401 -2.19989,-0.154042 -1.08795,-0.390017 -1.97977,-1.352986 -0.90297,-0.975006 -1.19691,-2.089183 -0.293489,-1.125771 0.0149,-2.205233 0.30842,-1.079462 1.21722,-1.92112 0.70417,-0.652145 1.49889,-0.940922 0.78915,-0.294795 1.6169,-0.23402 0.82217,0.05476 1.60225,0.450378 0.78609,0.390048 1.46053,1.118293 l 0.44034,0.475466 -5.61532,5.200438 -1.04789,-1.131489 4.76068,-4.408946 -0.54964,1.012163 q -0.44591,-0.481485 -0.94374,-0.668918 -0.49782,-0.187434 -0.99561,-0.07302 -0.49735,0.102822 -0.94272,0.51529 -0.43936,0.406894 -0.57998,0.894903 -0.14619,0.481992 0.003,0.992711 0.14874,0.510719 0.59465,0.992203 l 0.71346,0.770376 q 0.45706,0.493521 0.97718,0.705029 0.52056,0.199915 1.04712,0.09241 0.52097,-0.113526 0.99644,-0.553863 0.34908,-0.323286 0.52471,-0.664834 0.17608,-0.35314 0.18942,-0.700913 0.0138,-0.359366 -0.1365,-0.678587 l 1.61899,-1.499376 q 0.4709,0.737852 0.49552,1.609509 0.0246,0.871656 -0.35696,1.739342 -0.38714,0.861667 -1.15752,1.575125 z"
             style="font-weight:bold;font-family:Inter;-inkscape-font-specification:'Inter Bold'"
             id="path5098" /></g></g><g
         style="fill:#000000"
         id="g19297"
         transform="matrix(0.24142449,0,0,0.24142449,-786.2983,-36.453831)"
         inkscape:label="Middlecoins"><g
           id="g19280">
	<g
   id="g19278">
		
		
		
		<path
   d="m 258.38792,49.721123 c -53.98002,0 -97.73968,19.846816 -97.73968,44.330112 v 9.613895 c 0,24.48329 43.75966,44.33011 97.73968,44.33011 53.97919,0 97.73969,-19.84682 97.73969,-44.33011 v -9.613895 c 0,-24.483296 -43.7605,-44.330112 -97.73969,-44.330112 z"
   id="path19268"
   style="fill:#e4003a;fill-opacity:1;stroke-width:0.838335;stroke-dasharray:none" />
		<path
   d="m 258.38792,169.71423 c -47.1187,0 -86.44627,-15.12238 -95.68405,-35.25065 -1.34529,2.93099 -2.05563,5.9667 -2.05563,9.07946 v 9.61389 c 0,24.4833 43.75966,44.33011 97.73968,44.33011 53.97919,0 97.73969,-19.84681 97.73969,-44.33011 v -9.61389 c 0,-3.11276 -0.71034,-6.14847 -2.05563,-9.07946 -9.23778,20.12827 -48.56535,35.25065 -95.68406,35.25065 z"
   id="path19270"
   style="fill:#ffffff;fill-opacity:1;stroke-width:0.838335;stroke-dasharray:none" />
		<path
   d="m 258.38792,219.20688 c -47.1187,0 -86.44627,-15.12322 -95.68405,-35.25065 -1.34529,2.93099 -2.05563,5.96669 -2.05563,9.07946 v 9.61389 c 0,24.48413 43.75966,44.33095 97.73968,44.33095 53.97919,0 97.73969,-19.84682 97.73969,-44.33095 v -9.61389 c 0,-3.11277 -0.71034,-6.14847 -2.05563,-9.07946 -9.23778,20.12827 -48.56535,35.25065 -95.68406,35.25065 z"
   id="path19272"
   style="fill:#ffffff;fill-opacity:1;stroke-width:0.838335;stroke-dasharray:none" />
		<path
   d="m 258.38792,271.37084 c -47.1187,0 -86.44627,-15.12321 -95.68405,-35.25065 -1.34529,2.93183 -2.05563,5.9667 -2.05563,9.07862 v 9.61473 c 0,24.4833 43.75966,44.33011 97.73968,44.33011 53.97919,0 97.73969,-19.84681 97.73969,-44.33011 v -9.61473 c 0,-3.11192 -0.71034,-6.14846 -2.05563,-9.07862 -9.23778,20.1266 -48.56535,35.25065 -95.68406,35.25065 z"
   id="path19274"
   style="fill:#ffffff;fill-opacity:1;stroke-width:0.838335;stroke-dasharray:none" />
		
	</g>
</g><g
           transform="matrix(10.303711,0,0,10.303711,161.70306,-10.967015)"
           id="g19680"
           inkscape:label="Logo">
<g
   id="g19678"
   transform="matrix(0.6933596,0,0,0.6933596,0.97298999,0.28937229)"
   inkscape:label="Logo"
   style="display:inline">
		<g
   transform="translate(0.91990781,-0.8)"
   id="g19664"
   inkscape:label="Circle"
   style="display:none">
<path
   style="opacity:1;fill:#e4003a;fill-opacity:1;fill-rule:nonzero;stroke:none;stroke-width:1;stroke-linecap:butt;stroke-linejoin:miter;stroke-miterlimit:4;stroke-dasharray:none;stroke-dashoffset:0"
   d="m 0,7.39996 a 7.6,7.6 0 1 1 7.6,-7.6 7.6,7.6 0 0 1 -7.6,7.6 z"
   stroke-linecap="round"
   id="path19662" />
</g>
		<g
   transform="translate(0.81,-1.08)"
   id="g19668"
   style="display:none"
   inkscape:label="undefined">
<path
   style="opacity:1;fill:#ffffff;fill-rule:nonzero;stroke:none;stroke-width:1;stroke-linecap:butt;stroke-linejoin:miter;stroke-miterlimit:4;stroke-dasharray:none;stroke-dashoffset:0"
   transform="translate(-10.81,-11.92)"
   d="m 8.46,13.2 h -0.8 c -0.3,0 -0.4,-0.1 -0.4,-0.4 a 0.43,0.43 0 0 1 0.4,-0.4 h 0.9 a 0.35,0.35 0 0 0 0.2,-0.1 1.42,1.42 0 0 0 0.2,-0.6 h -0.7 a 0.4,0.4 0 1 1 0,-0.8 h 0.8 c 0.1,0 0.2,0 0.2,-0.1 a 23.29,23.29 0 0 0 1.1,-2.8 0.1,0.1 0 0 1 0.1,-0.1 c 0.1,-0.2 0.2,-0.3 0.4,-0.3 0.2,0 0.3,0.1 0.4,0.3 0.2,0.6 0.4,1.1 0.6,1.7 0.2,0.4 0.3,0.8 0.5,1.2 0,0.1 0.1,0.1 0.2,0.1 h 0.8 a 0.37,0.37 0 0 1 0.4,0.4 0.43,0.43 0 0 1 -0.4,0.4 h -0.7 a 4.88,4.88 0 0 0 0.3,0.7 0.35,0.35 0 0 0 0.2,0.1 h 0.9 c 0.1,0 0.3,0.1 0.3,0.2 a 0.6,0.6 0 0 1 -0.1,0.4 0.37,0.37 0 0 1 -0.3,0.1 h -0.8 a 3.55,3.55 0 0 0 0.4,0.9 l 0.6,1.5 c 0.1,0.3 0.1,0.5 -0.2,0.6 -0.3,0.1 -0.4,0 -0.5,-0.3 -0.3,-0.9 -0.7,-1.7 -1,-2.6 -0.1,-0.2 -0.1,-0.2 -0.3,-0.2 h -2.9 c -0.2,0 -0.2,0 -0.3,0.2 a 18.61,18.61 0 0 1 -1,2.5 c -0.1,0.2 -0.2,0.3 -0.4,0.3 a 0.27,0.27 0 0 1 -0.3,-0.3 0.37,0.37 0 0 1 0.1,-0.3 c 0.3,-0.7 0.5,-1.4 0.8,-2.1 0.2,0 0.2,-0.1 0.3,-0.2 z m 1,-0.8 h 2.7 c -0.1,-0.2 -0.2,-0.5 -0.3,-0.7 a 0.35,0.35 0 0 0 -0.2,-0.1 h -1.8 c -0.1,0 -0.1,0 -0.2,0.1 a 1.45,1.45 0 0 1 -0.2,0.7 z m 2.2,-1.5 c -0.3,-0.7 -0.5,-1.3 -0.8,-2 -0.3,0.7 -0.5,1.3 -0.8,2 z"
   stroke-linecap="round"
   id="path19666" />
</g>
<path
   style="opacity:1;fill:#050001;fill-opacity:1;stroke:#ffffff;stroke-width:0.791434;stroke-linecap:round;stroke-miterlimit:3.7;stroke-dasharray:none;stroke-opacity:1;paint-order:stroke fill markers"
   d="M 8.1350941,16.876025 12.086609,10.362006"
   id="path19670"
   sodipodi:nodetypes="cc" /><path
   style="opacity:1;fill:#050001;fill-opacity:1;stroke:#ffffff;stroke-width:0.791434;stroke-linecap:round;stroke-miterlimit:3.7;stroke-dasharray:none;stroke-opacity:1"
   d="M 16.144951,16.87452 12.196567,10.360599"
   id="path19672"
   sodipodi:nodetypes="cc" /><path
   style="opacity:1;fill:#050001;fill-opacity:1;stroke:#ffffff;stroke-width:0.791434;stroke-linecap:round;stroke-miterlimit:3.7;stroke-dasharray:none;stroke-opacity:1"
   d="m 9.0180552,13.152778 6.2251588,-0.01311"
   id="path19674" /><path
   style="fill:#050001;fill-opacity:1;stroke:#ffffff;stroke-width:0.791434;stroke-linecap:round;stroke-miterlimit:3.7;stroke-dasharray:none;stroke-opacity:1"
   d="m 8.2176918,14.418566 7.8247822,-0.01051"
   id="path19676" /></g>
</g></g></g></g></svg>
