<?xml version="1.0" encoding="UTF-8" standalone="no"?>
<svg
   inkscape:version="1.2.2 (b0a84865, 2022-12-01)"
   xml:space="preserve"
   sodipodi:docname="final_awards_pre-text-to-path.svg"
   id="svg134"
   version="1.1"
   viewBox="-120 -120 300 300.00004"
   height="250.00003"
   width="250"
   inkscape:export-filename="0.svg"
   inkscape:export-xdpi="96"
   inkscape:export-ydpi="96"
   xmlns:inkscape="http://www.inkscape.org/namespaces/inkscape"
   xmlns:sodipodi="http://sodipodi.sourceforge.net/DTD/sodipodi-0.dtd"
   xmlns="http://www.w3.org/2000/svg"
   xmlns:svg="http://www.w3.org/2000/svg"><defs
     id="defs138" /><sodipodi:namedview
     id="namedview136"
     pagecolor="#ffffff"
     bordercolor="#000000"
     borderopacity="0.25"
     inkscape:showpageshadow="2"
     inkscape:pageopacity="0.0"
     inkscape:pagecheckerboard="0"
     inkscape:deskcolor="#d1d1d1"
     showgrid="false"
     inkscape:zoom="0.35355339"
     inkscape:cx="1480.6816"
     inkscape:cy="663.26616"
     inkscape:window-width="1425"
     inkscape:window-height="949"
     inkscape:window-x="0"
     inkscape:window-y="25"
     inkscape:window-maximized="1"
     inkscape:current-layer="g19337"
     showguides="true" /><style
     type="text/css"
     id="style8571">
	.st0{fill:#ffffff;}
</style><g
     id="g2049"
     inkscape:label="Blocks"
     transform="translate(-384.03516,-404.63494)"><g
       id="g4897"
       inkscape:label="100 blocks"
       transform="matrix(1.4245145,0,0,1.4245145,233.44216,870.54479)"
       inkscape:export-filename="./g8306.svg"
       inkscape:export-xdpi="96"
       inkscape:export-ydpi="96"><g
         id="g5356"
         inkscape:label="Borders"
         transform="translate(-486.00514,-906.45912)"><path
           fill="none"
           stroke="black"
           stroke-width="2"
           d="m 712.78023,600.45322 q 9.47,10.78 -1.92,19.51 7.18,12.42 -5.69,18.76 4.62,13.58 -9.24,17.29 1.88,14.22 -12.44,15.15 -0.93,14.32 -15.15,12.44 -3.71,13.86 -17.29,9.24 -6.34,12.87 -18.76,5.69 -8.73,11.39 -19.51,1.92 -10.78,9.47 -19.51,-1.92 -12.42,7.18 -18.76,-5.69 -13.58,4.62 -17.29,-9.24 -14.22,1.88 -15.15,-12.44 -14.32,-0.93 -12.44,-15.15 -13.86,-3.71 -9.24,-17.29 -12.87,-6.34 -5.69,-18.76 -11.39,-8.73 -1.92,-19.51 -9.47,-10.78 1.92,-19.51 -7.18,-12.42 5.69,-18.76 -4.62,-13.58 9.24,-17.29 -1.88,-14.22 12.44,-15.15 0.93,-14.32 15.15,-12.44 3.71,-13.86 17.29,-9.24 6.34,-12.87 18.76,-5.69 8.73,-11.39 19.51,-1.92 10.78,-9.47 19.51,1.92 12.42,-7.18 18.76,5.69 13.58,-4.62 17.29,9.24 14.22,-1.88 15.15,12.44 14.32,0.93 12.44,15.15 13.86,3.71 9.24,17.29 12.87,6.34 5.69,18.76 11.39,8.73 1.92,19.51 z"
           id="path5300"
           style="fill:#04344d;fill-opacity:1;stroke:#04344d;stroke-opacity:1" /><path
           style="fill:none;fill-opacity:1;stroke:#ffffff;stroke-width:3.6;stroke-linecap:round;stroke-dasharray:none;stroke-opacity:1;paint-order:stroke fill markers"
           id="path5302"
           sodipodi:type="arc"
           sodipodi:cx="612.78918"
           sodipodi:cy="600.44446"
           sodipodi:rx="92.730682"
           sodipodi:ry="92.730682"
           sodipodi:start="1.5902854"
           sodipodi:end="4.6926787"
           sodipodi:open="true"
           sodipodi:arc-type="arc"
           d="M 610.98206,693.15753 A 92.730682,92.730682 0 0 1 520.0585,600.45471 92.730682,92.730682 0 0 1 610.96156,507.73179" /><path
           style="fill:none;fill-opacity:1;stroke:#ffffff;stroke-width:2.22;stroke-linecap:round;stroke-dasharray:none;stroke-opacity:1;paint-order:stroke fill markers"
           id="path5304"
           sodipodi:type="arc"
           sodipodi:cx="612.78381"
           sodipodi:cy="600.44971"
           sodipodi:rx="86.865753"
           sodipodi:ry="86.865753"
           sodipodi:start="1.5835599"
           sodipodi:end="4.6996412"
           sodipodi:arc-type="arc"
           d="M 611.67513,687.30838 A 86.865753,86.865753 0 0 1 525.91806,600.44902 86.865753,86.865753 0 0 1 611.6765,513.59101"
           sodipodi:open="true" /><g
           id="g5354"
           inkscape:label="Circles"
           transform="translate(97.989291,600.44448)"><g
             id="g5308"
             transform="rotate(7.5,5558.9497,3252.8791)"
             inkscape:transform-center-x="-11.777454"
             inkscape:transform-center-y="-88.637902"><path
               sodipodi:type="star"
               style="fill:#fefeff;fill-opacity:1;stroke:#ffffff;stroke-width:2.22;stroke-linecap:round;stroke-opacity:1;paint-order:stroke fill markers"
               id="path5306"
               inkscape:flatsided="false"
               sodipodi:sides="5"
               sodipodi:cx="396.99625"
               sodipodi:cy="-372.60107"
               sodipodi:r1="3.6169088"
               sodipodi:r2="1.6637779"
               sodipodi:arg1="0.95906936"
               sodipodi:arg2="1.5873879"
               inkscape:rounded="0"
               inkscape:randomized="0"
               d="m 399.07337,-369.64006 -2.10473,-1.29747 -2.14661,1.22692 0.58356,-2.40265 -1.83021,-1.66242 2.46539,-0.18746 1.01548,-2.25435 0.94014,2.2868 2.45781,0.26915 -1.88435,1.60078 z"
               transform="matrix(1.0133273,0,0,1.0133273,-268.95197,974.58915)"
               inkscape:transform-center-x="1.0196929"
               inkscape:transform-center-y="-89.532179"
               inkscape:label="path5969" /></g><g
             id="g5312"
             transform="rotate(22.5,2049.0208,1301.9125)"
             inkscape:transform-center-x="-34.354027"
             inkscape:transform-center-y="-82.323429"><path
               sodipodi:type="star"
               style="fill:#fefeff;fill-opacity:1;stroke:#ffffff;stroke-width:2.22;stroke-linecap:round;stroke-opacity:1;paint-order:stroke fill markers"
               id="path5310"
               inkscape:flatsided="false"
               sodipodi:sides="5"
               sodipodi:cx="396.99625"
               sodipodi:cy="-372.60107"
               sodipodi:r1="3.6169088"
               sodipodi:r2="1.6637779"
               sodipodi:arg1="0.95906936"
               sodipodi:arg2="1.5873879"
               inkscape:rounded="0"
               inkscape:randomized="0"
               d="m 399.07337,-369.64006 -2.10473,-1.29747 -2.14661,1.22692 0.58356,-2.40265 -1.83021,-1.66242 2.46539,-0.18746 1.01548,-2.25435 0.94014,2.2868 2.45781,0.26915 -1.88435,1.60078 z"
               transform="matrix(1.0133273,0,0,1.0133273,-268.95197,974.58915)"
               inkscape:transform-center-x="1.0196929"
               inkscape:transform-center-y="-89.532179"
               inkscape:label="path5969" /></g><g
             id="g5316"
             transform="rotate(37.5,1334.8573,904.95028)"
             inkscape:transform-center-x="-54.232035"
             inkscape:transform-center-y="-70.490863"><path
               sodipodi:type="star"
               style="fill:#fefeff;fill-opacity:1;stroke:#ffffff;stroke-width:2.22;stroke-linecap:round;stroke-opacity:1;paint-order:stroke fill markers"
               id="path5314"
               inkscape:flatsided="false"
               sodipodi:sides="5"
               sodipodi:cx="396.99625"
               sodipodi:cy="-372.60107"
               sodipodi:r1="3.6169088"
               sodipodi:r2="1.6637779"
               sodipodi:arg1="0.95906936"
               sodipodi:arg2="1.5873879"
               inkscape:rounded="0"
               inkscape:randomized="0"
               d="m 399.07337,-369.64006 -2.10473,-1.29747 -2.14661,1.22692 0.58356,-2.40265 -1.83021,-1.66242 2.46539,-0.18746 1.01548,-2.25435 0.94014,2.2868 2.45781,0.26915 -1.88435,1.60078 z"
               transform="matrix(1.0133273,0,0,1.0133273,-268.95197,974.58915)"
               inkscape:transform-center-x="1.0196929"
               inkscape:transform-center-y="-89.532179"
               inkscape:label="path5969" /></g><g
             id="g5320"
             transform="rotate(52.5,1019.845,729.85313)"
             inkscape:transform-center-x="-70.414229"
             inkscape:transform-center-y="-54.322566"><path
               sodipodi:type="star"
               style="fill:#fefeff;fill-opacity:1;stroke:#ffffff;stroke-width:2.22;stroke-linecap:round;stroke-opacity:1;paint-order:stroke fill markers"
               id="path5318"
               inkscape:flatsided="false"
               sodipodi:sides="5"
               sodipodi:cx="396.99625"
               sodipodi:cy="-372.60107"
               sodipodi:r1="3.6169088"
               sodipodi:r2="1.6637779"
               sodipodi:arg1="0.95906936"
               sodipodi:arg2="1.5873879"
               inkscape:rounded="0"
               inkscape:randomized="0"
               d="m 399.07337,-369.64006 -2.10473,-1.29747 -2.14661,1.22692 0.58356,-2.40265 -1.83021,-1.66242 2.46539,-0.18746 1.01548,-2.25435 0.94014,2.2868 2.45781,0.26915 -1.88435,1.60078 z"
               transform="matrix(1.0133273,0,0,1.0133273,-268.95197,974.58915)"
               inkscape:transform-center-x="1.0196929"
               inkscape:transform-center-y="-89.532179"
               inkscape:label="path5969" /></g><g
             id="g5324"
             transform="rotate(67.5,837.58649,628.54617)"
             inkscape:transform-center-x="-82.3354"
             inkscape:transform-center-y="-34.452242"><path
               sodipodi:type="star"
               style="fill:#fefeff;fill-opacity:1;stroke:#ffffff;stroke-width:2.22;stroke-linecap:round;stroke-opacity:1;paint-order:stroke fill markers"
               id="path5322"
               inkscape:flatsided="false"
               sodipodi:sides="5"
               sodipodi:cx="396.99625"
               sodipodi:cy="-372.60107"
               sodipodi:r1="3.6169088"
               sodipodi:r2="1.6637779"
               sodipodi:arg1="0.95906936"
               sodipodi:arg2="1.5873879"
               inkscape:rounded="0"
               inkscape:randomized="0"
               d="m 399.07337,-369.64006 -2.10473,-1.29747 -2.14661,1.22692 0.58356,-2.40265 -1.83021,-1.66242 2.46539,-0.18746 1.01548,-2.25435 0.94014,2.2868 2.45781,0.26915 -1.88435,1.60078 z"
               transform="matrix(1.0133273,0,0,1.0133273,-268.95197,974.58915)"
               inkscape:transform-center-x="1.0196929"
               inkscape:transform-center-y="-89.532179"
               inkscape:label="path5969" /></g><g
             id="g5328"
             transform="rotate(82.5,715.32761,560.58954)"
             inkscape:transform-center-x="-88.666206"
             inkscape:transform-center-y="-11.806367"><path
               sodipodi:type="star"
               style="fill:#fefeff;fill-opacity:1;stroke:#ffffff;stroke-width:2.22;stroke-linecap:round;stroke-opacity:1;paint-order:stroke fill markers"
               id="path5326"
               inkscape:flatsided="false"
               sodipodi:sides="5"
               sodipodi:cx="396.99625"
               sodipodi:cy="-372.60107"
               sodipodi:r1="3.6169088"
               sodipodi:r2="1.6637779"
               sodipodi:arg1="0.95906936"
               sodipodi:arg2="1.5873879"
               inkscape:rounded="0"
               inkscape:randomized="0"
               d="m 399.07337,-369.64006 -2.10473,-1.29747 -2.14661,1.22692 0.58356,-2.40265 -1.83021,-1.66242 2.46539,-0.18746 1.01548,-2.25435 0.94014,2.2868 2.45781,0.26915 -1.88435,1.60078 z"
               transform="matrix(1.0133273,0,0,1.0133273,-268.95197,974.58915)"
               inkscape:transform-center-x="1.0196929"
               inkscape:transform-center-y="-89.532179"
               inkscape:label="path5969" /></g><g
             id="g5332"
             transform="rotate(97.5,624.98471,510.37315)"
             inkscape:transform-center-x="-88.637973"
             inkscape:transform-center-y="11.777454"><path
               sodipodi:type="star"
               style="fill:#fefeff;fill-opacity:1;stroke:#ffffff;stroke-width:2.22;stroke-linecap:round;stroke-opacity:1;paint-order:stroke fill markers"
               id="path5330"
               inkscape:flatsided="false"
               sodipodi:sides="5"
               sodipodi:cx="396.99625"
               sodipodi:cy="-372.60107"
               sodipodi:r1="3.6169088"
               sodipodi:r2="1.6637779"
               sodipodi:arg1="0.95906936"
               sodipodi:arg2="1.5873879"
               inkscape:rounded="0"
               inkscape:randomized="0"
               d="m 399.07337,-369.64006 -2.10473,-1.29747 -2.14661,1.22692 0.58356,-2.40265 -1.83021,-1.66242 2.46539,-0.18746 1.01548,-2.25435 0.94014,2.2868 2.45781,0.26915 -1.88435,1.60078 z"
               transform="matrix(1.0133273,0,0,1.0133273,-268.95197,974.58915)"
               inkscape:transform-center-x="1.0196929"
               inkscape:transform-center-y="-89.532179"
               inkscape:label="path5969" /></g><g
             id="g5336"
             transform="rotate(112.5,553.34383,470.55213)"
             inkscape:transform-center-x="-82.323487"
             inkscape:transform-center-y="34.35403"><path
               sodipodi:type="star"
               style="fill:#fefeff;fill-opacity:1;stroke:#ffffff;stroke-width:2.22;stroke-linecap:round;stroke-opacity:1;paint-order:stroke fill markers"
               id="path5334"
               inkscape:flatsided="false"
               sodipodi:sides="5"
               sodipodi:cx="396.99625"
               sodipodi:cy="-372.60107"
               sodipodi:r1="3.6169088"
               sodipodi:r2="1.6637779"
               sodipodi:arg1="0.95906936"
               sodipodi:arg2="1.5873879"
               inkscape:rounded="0"
               inkscape:randomized="0"
               d="m 399.07337,-369.64006 -2.10473,-1.29747 -2.14661,1.22692 0.58356,-2.40265 -1.83021,-1.66242 2.46539,-0.18746 1.01548,-2.25435 0.94014,2.2868 2.45781,0.26915 -1.88435,1.60078 z"
               transform="matrix(1.0133273,0,0,1.0133273,-268.95197,974.58915)"
               inkscape:transform-center-x="1.0196929"
               inkscape:transform-center-y="-89.532179"
               inkscape:label="path5969" /></g><g
             id="g5340"
             transform="rotate(127.5,493.28797,437.17055)"
             inkscape:transform-center-x="-70.490908"
             inkscape:transform-center-y="54.23204"><path
               sodipodi:type="star"
               style="fill:#fefeff;fill-opacity:1;stroke:#ffffff;stroke-width:2.22;stroke-linecap:round;stroke-opacity:1;paint-order:stroke fill markers"
               id="path5338"
               inkscape:flatsided="false"
               sodipodi:sides="5"
               sodipodi:cx="396.99625"
               sodipodi:cy="-372.60107"
               sodipodi:r1="3.6169088"
               sodipodi:r2="1.6637779"
               sodipodi:arg1="0.95906936"
               sodipodi:arg2="1.5873879"
               inkscape:rounded="0"
               inkscape:randomized="0"
               d="m 399.07337,-369.64006 -2.10473,-1.29747 -2.14661,1.22692 0.58356,-2.40265 -1.83021,-1.66242 2.46539,-0.18746 1.01548,-2.25435 0.94014,2.2868 2.45781,0.26915 -1.88435,1.60078 z"
               transform="matrix(1.0133273,0,0,1.0133273,-268.95197,974.58915)"
               inkscape:transform-center-x="1.0196929"
               inkscape:transform-center-y="-89.532179"
               inkscape:label="path5969" /></g><g
             id="g5344"
             transform="rotate(142.5,440.5548,407.85923)"
             inkscape:transform-center-x="-54.322569"
             inkscape:transform-center-y="70.414225"><path
               sodipodi:type="star"
               style="fill:#fefeff;fill-opacity:1;stroke:#ffffff;stroke-width:2.22;stroke-linecap:round;stroke-opacity:1;paint-order:stroke fill markers"
               id="path5342"
               inkscape:flatsided="false"
               sodipodi:sides="5"
               sodipodi:cx="396.99625"
               sodipodi:cy="-372.60107"
               sodipodi:r1="3.6169088"
               sodipodi:r2="1.6637779"
               sodipodi:arg1="0.95906936"
               sodipodi:arg2="1.5873879"
               inkscape:rounded="0"
               inkscape:randomized="0"
               d="m 399.07337,-369.64006 -2.10473,-1.29747 -2.14661,1.22692 0.58356,-2.40265 -1.83021,-1.66242 2.46539,-0.18746 1.01548,-2.25435 0.94014,2.2868 2.45781,0.26915 -1.88435,1.60078 z"
               transform="matrix(1.0133273,0,0,1.0133273,-268.95197,974.58915)"
               inkscape:transform-center-x="1.0196929"
               inkscape:transform-center-y="-89.532179"
               inkscape:label="path5969" /></g><g
             id="g5348"
             transform="rotate(157.5,392.3333,381.05569)"
             inkscape:transform-center-x="-34.452251"
             inkscape:transform-center-y="82.335402"><path
               sodipodi:type="star"
               style="fill:#fefeff;fill-opacity:1;stroke:#ffffff;stroke-width:2.22;stroke-linecap:round;stroke-opacity:1;paint-order:stroke fill markers"
               id="path5346"
               inkscape:flatsided="false"
               sodipodi:sides="5"
               sodipodi:cx="396.99625"
               sodipodi:cy="-372.60107"
               sodipodi:r1="3.6169088"
               sodipodi:r2="1.6637779"
               sodipodi:arg1="0.95906936"
               sodipodi:arg2="1.5873879"
               inkscape:rounded="0"
               inkscape:randomized="0"
               d="m 399.07337,-369.64006 -2.10473,-1.29747 -2.14661,1.22692 0.58356,-2.40265 -1.83021,-1.66242 2.46539,-0.18746 1.01548,-2.25435 0.94014,2.2868 2.45781,0.26915 -1.88435,1.60078 z"
               transform="matrix(1.0133273,0,0,1.0133273,-268.95197,974.58915)"
               inkscape:transform-center-x="1.0196929"
               inkscape:transform-center-y="-89.532179"
               inkscape:label="path5969" /></g><g
             id="g5352"
             transform="rotate(172.5,346.57293,355.62015)"
             inkscape:transform-center-x="-11.806385"
             inkscape:transform-center-y="88.666214"><path
               sodipodi:type="star"
               style="fill:#fefeff;fill-opacity:1;stroke:#ffffff;stroke-width:2.22;stroke-linecap:round;stroke-opacity:1;paint-order:stroke fill markers"
               id="path5350"
               inkscape:flatsided="false"
               sodipodi:sides="5"
               sodipodi:cx="396.99625"
               sodipodi:cy="-372.60107"
               sodipodi:r1="3.6169088"
               sodipodi:r2="1.6637779"
               sodipodi:arg1="0.95906936"
               sodipodi:arg2="1.5873879"
               inkscape:rounded="0"
               inkscape:randomized="0"
               d="m 399.07337,-369.64006 -2.10473,-1.29747 -2.14661,1.22692 0.58356,-2.40265 -1.83021,-1.66242 2.46539,-0.18746 1.01548,-2.25435 0.94014,2.2868 2.45781,0.26915 -1.88435,1.60078 z"
               transform="matrix(1.0133273,0,0,1.0133273,-268.95197,974.58915)"
               inkscape:transform-center-x="1.0196929"
               inkscape:transform-center-y="-89.532179"
               inkscape:label="path5969" /></g></g></g><g
         id="g4859"
         inkscape:label="Texts"
         transform="translate(71.479363,-306.34255)"><circle
           style="fill:none;fill-opacity:1;stroke:none;stroke-width:3.01836;stroke-linecap:round;stroke-opacity:1;paint-order:stroke fill markers"
           id="circle4843"
           cx="-1.4210855e-14"
           cy="-55.295727"
           transform="matrix(0,-1,-1,0,0,0)"
           r="76.490822"
           inkscape:label="Bottom-text-path" /><circle
           style="fill:none;fill-opacity:1;stroke:none;stroke-width:2.48601;stroke-linecap:round;stroke-opacity:1;paint-order:stroke fill markers"
           id="circle4845"
           cx="1.4210855e-14"
           cy="-55.295727"
           transform="rotate(90)"
           inkscape:label="Top-text-path"
           r="63" /><g
           aria-label="Cexplorer.io"
           id="text4853"
           style="font-size:16.8px;font-family:ROBOTO;-inkscape-font-specification:ROBOTO;text-align:center;letter-spacing:1.2px;text-anchor:middle;fill:#fefeff;stroke:#ffffff;stroke-width:0.744;stroke-linecap:round;paint-order:stroke fill markers"><path
             d="m 14.858755,-48.055292 q -1.276057,1.082623 -2.776689,1.355314 -1.499685,0.261129 -2.987961,-0.32652 -1.4873279,-0.599212 -2.7397738,-2.075435 -1.2630598,-1.488732 -1.6119449,-3.053813 -0.3426299,-1.570388 0.1646503,-3.001236 0.5135355,-1.436154 1.7895923,-2.518777 0.8194286,-0.695214 1.7269808,-1.045643 0.9075521,-0.350429 1.8275993,-0.356455 0.926303,-0.01133 1.806343,0.328555 0.880039,0.33989 1.656004,1.026262 l -1.945361,1.650469 q -0.431578,-0.343851 -0.889889,-0.503656 -0.463618,-0.16606 -0.92459,-0.151485 -0.466279,0.0083 -0.9183498,0.198225 -0.4511226,0.178342 -0.8702197,0.533909 -0.7944079,0.673986 -1.0336487,1.53318 -0.2329856,0.853886 0.061147,1.809201 0.2888255,0.94906 1.1007925,1.906103 0.80666,0.950787 1.6897276,1.395684 0.8893231,0.43959 1.7760141,0.343529 0.886692,-0.09606 1.6811,-0.770048 0.419097,-0.355567 0.673861,-0.765351 0.254765,-0.409783 0.338942,-0.868477 0.08418,-0.458693 0.0012,-0.936917 -0.083,-0.478223 -0.334126,-0.964414 l 1.939106,-1.645162 q 0.545472,0.871168 0.737441,1.794824 0.19197,0.923657 0.02987,1.835737 -0.162098,0.91208 -0.655706,1.750413 -0.49266,0.826771 -1.312089,1.521984 z"
             style="font-weight:bold;font-family:Inter;-inkscape-font-specification:Inter"
             id="path4773" /><path
             d="m 24.407684,-54.696185 q -1.103047,0.632425 -2.175545,0.575976 -1.065382,-0.06053 -1.984075,-0.706316 -0.922773,-0.652904 -1.571518,-1.784416 -0.656906,-1.145745 -0.732824,-2.284189 -0.07592,-1.138443 0.402965,-2.084367 0.474803,-0.95304 1.471103,-1.524262 0.782807,-0.448818 1.572259,-0.523215 0.796568,-0.07848 1.546835,0.191089 0.750267,0.269565 1.401285,0.860796 0.654055,0.580033 1.155915,1.455354 l 0.191767,0.334472 -6.177059,3.541579 -0.595704,-1.038998 5.500999,-3.153964 -0.311411,0.660789 q -0.440657,-0.768574 -1.04053,-1.171645 -0.596838,-0.414268 -1.270434,-0.434664 -0.677677,-0.02751 -1.353738,0.360104 -0.668944,0.383535 -0.987567,0.982269 -0.315587,0.587538 -0.266715,1.315978 0.05191,0.717244 0.492566,1.485818 l 0.293772,0.512383 q 0.444737,0.775691 1.050778,1.222505 0.613158,0.442733 1.321389,0.49055 0.70415,0.0407 1.437142,-0.379556 0.533732,-0.306012 0.845525,-0.702259 0.307712,-0.403363 0.399653,-0.853219 0.09906,-0.453936 -0.01149,-0.910622 l 1.209793,-0.693627 q 0.269767,0.800362 0.135605,1.605377 -0.138243,0.797899 -0.638857,1.49152 -0.493497,0.689542 -1.311886,1.15876 z"
             style="font-family:Inter;-inkscape-font-specification:Inter"
             id="path4775" /><path
             d="m 29.024949,-57.419381 1.614151,-5.923659 0.376633,1.006479 -4.912407,-3.239941 1.532131,-0.586708 1.70565,1.17392 q 0.511287,0.348818 1.007253,0.703503 0.493033,0.347025 0.999593,0.706438 l -0.643494,0.246417 q 0.144595,-0.608763 0.279735,-1.196338 0.139868,-0.59817 0.287397,-1.199272 l 0.500618,-2.018779 1.509149,-0.577907 -1.49956,5.695313 -0.387227,-1.011206 5.122496,3.352738 -1.524469,0.583774 -1.99104,-1.345722 q -0.497759,-0.33643 -0.977264,-0.671067 -0.479505,-0.334637 -0.972538,-0.681662 l 0.651156,-0.249351 q -0.135141,0.587575 -0.276149,1.159829 -0.141008,0.572254 -0.286743,1.155102 l -0.598262,2.337258 z"
             style="font-family:Inter;-inkscape-font-specification:Inter"
             id="path4777" /><path
             d="m 39.607891,-57.605288 -2.432547,-11.844188 1.333878,-0.273951 0.257447,1.253524 0.01607,-0.0033 q 0.175836,-0.530199 0.529315,-0.929396 0.353479,-0.399197 0.836389,-0.657489 0.48126,-0.266327 1.027668,-0.378548 1.108886,-0.227742 2.050404,0.15672 0.941518,0.384462 1.604173,1.286785 0.661006,0.894288 0.930005,2.204059 0.267349,1.301736 0.01397,2.392193 -0.255031,1.082423 -0.967157,1.814882 -0.713776,0.724425 -1.822662,0.952166 -0.546407,0.112221 -1.069573,0.05218 -0.521516,-0.052 -0.997333,-0.289255 -0.475818,-0.23725 -0.881832,-0.664699 l -0.01607,0.0033 0.953875,4.644465 z m 2.915536,-5.213053 q 0.739258,-0.151828 1.227473,-0.628942 0.488214,-0.477115 0.664404,-1.250243 0.176189,-0.773128 -0.0367,-1.809695 -0.214539,-1.044603 -0.681182,-1.685706 -0.466643,-0.641104 -1.103385,-0.887176 -0.636742,-0.246072 -1.375999,-0.09424 -0.78747,0.16173 -1.285155,0.674286 -0.497684,0.512557 -0.664188,1.29207 -0.166504,0.779513 0.03153,1.743762 0.196386,0.956213 0.656644,1.607002 0.460257,0.65079 1.119671,0.925703 0.659415,0.274913 1.446884,0.113183 z"
             style="font-family:Inter;-inkscape-font-specification:Inter"
             id="path4779" /><path
             d="m 49.868364,-75.032574 0.983695,12.183007 -1.390008,0.112234 -0.983695,-12.183007 z"
             style="font-family:Inter;-inkscape-font-specification:Inter"
             id="path4781" /><path
             d="m 57.684922,-62.75852 q -1.196813,-0.04493 -2.085176,-0.652908 -0.879858,-0.615865 -1.349932,-1.651417 -0.461876,-1.035245 -0.412327,-2.355018 0.04986,-1.327971 0.588364,-2.333866 0.546705,-1.005588 1.470265,-1.553747 0.931756,-0.547851 2.128569,-0.502918 1.20501,0.04524 2.084868,0.661105 0.879858,0.615865 1.341427,1.659307 0.469766,1.04375 0.419909,2.37172 -0.04955,1.319774 -0.595946,2.317164 -0.5382,0.997698 -1.461759,1.545857 -0.923252,0.539961 -2.128262,0.494721 z m 0.04739,-1.262392 q 0.819735,0.03078 1.416827,-0.349044 0.597092,-0.379819 0.935982,-1.097689 0.339197,-0.726066 0.37582,-1.701551 0.03724,-0.991879 -0.24687,-1.733138 -0.283802,-0.749456 -0.850425,-1.181174 -0.566624,-0.431719 -1.386359,-0.462494 -0.811538,-0.03047 -1.417135,0.357241 -0.597092,0.379819 -0.936289,1.105886 -0.339198,0.726067 -0.376436,1.717946 -0.03693,0.983682 0.247178,1.724941 0.284109,0.741259 0.851041,1.164779 0.566931,0.423521 1.386666,0.454297 z"
             style="font-family:Inter;-inkscape-font-specification:Inter"
             id="path4783" /><path
             d="m 64.50772,-62.351707 1.472099,-8.5365 1.309576,0.225834 -0.231409,1.341912 0.03234,0.0056 q 0.348741,-0.622445 0.927723,-0.938812 0.578981,-0.316366 1.379278,-0.178357 0.185928,0.03206 0.336732,0.07472 0.158888,0.04405 0.236938,0.07416 l -0.236986,1.374247 q -0.07666,-0.03819 -0.30551,-0.110954 -0.219376,-0.07945 -0.518477,-0.131031 -0.468861,-0.08085 -0.91069,0.06771 -0.441829,0.148561 -0.763804,0.567517 -0.321974,0.418956 -0.447437,1.146498 l -0.906121,5.254475 z"
             style="font-family:Inter;-inkscape-font-specification:Inter"
             id="path4785" /><path
             d="m 74.208055,-59.905665 q -1.213253,-0.380379 -1.900034,-1.206073 -0.678954,-0.82324 -0.828643,-1.936178 -0.147235,-1.120766 0.242959,-2.36533 0.395103,-1.260218 1.179334,-2.088951 0.78423,-0.828733 1.803832,-1.119444 1.022056,-0.298538 2.117898,0.04503 0.861019,0.269946 1.451672,0.799 0.59848,0.531509 0.910009,1.265345 0.311529,0.733836 0.319521,1.613219 0.01827,0.87401 -0.283575,1.836786 l -0.11534,0.367889 -6.794221,-2.130118 0.358292,-1.142807 6.050614,1.896984 -0.696561,0.220053 q 0.265038,-0.845364 0.153638,-1.55944 -0.101118,-0.719449 -0.543515,-1.227813 -0.439943,-0.516191 -1.18355,-0.749326 -0.73578,-0.230681 -1.391679,-0.05806 -0.645618,0.167251 -1.147213,0.697738 -0.491313,0.525114 -0.756351,1.370478 l -0.176691,0.563576 q -0.267492,0.853191 -0.184017,1.601497 0.0913,0.750759 0.537083,1.303168 0.448236,0.544582 1.254463,0.797349 0.587058,0.184054 1.089665,0.143904 0.505062,-0.04798 0.897748,-0.28593 0.400513,-0.235499 0.660725,-0.626743 l 1.330665,0.417189 q -0.404408,0.741491 -1.086499,1.189598 -0.679637,0.440281 -1.528769,0.543726 -0.841304,0.105899 -1.74146,-0.176316 z"
             style="font-family:Inter;-inkscape-font-specification:Inter"
             id="path4787" /><path
             d="m 80.477228,-57.777399 3.609932,-7.874471 1.208016,0.553797 -0.567471,1.237843 0.02983,0.01367 q 0.496566,-0.512329 1.137275,-0.669808 0.640708,-0.157479 1.37894,0.180953 0.171508,0.07862 0.306352,0.15849 0.142301,0.08328 0.210033,0.132383 l -0.581145,1.26767 q -0.06431,-0.05656 -0.266889,-0.185519 -0.1917,-0.133003 -0.467605,-0.259487 -0.432499,-0.198273 -0.897643,-0.167862 -0.465143,0.03041 -0.883704,0.352899 -0.418561,0.322487 -0.726226,0.993607 l -2.222023,4.846975 z"
             style="font-family:Inter;-inkscape-font-specification:Inter"
             id="path4789" /><path
             d="m 86.108686,-54.803396 q -0.371631,-0.209394 -0.491095,-0.615669 -0.10829,-0.409396 0.101104,-0.781026 0.213422,-0.378778 0.61567,-0.491095 0.409395,-0.108291 0.781026,0.101104 0.378777,0.213422 0.491095,0.61567 0.112317,0.402248 -0.101105,0.781026 -0.209394,0.371631 -0.615669,0.491095 -0.402249,0.112317 -0.781026,-0.101105 z"
             style="font-family:Inter;-inkscape-font-specification:Inter"
             id="path4791" /><path
             d="m 89.66592,-52.811898 4.811696,-7.203227 1.159611,0.774611 -4.811697,7.203226 z m 6.330147,-8.221096 q -0.327419,-0.218714 -0.404419,-0.605558 -0.077,-0.386844 0.141713,-0.714263 0.218714,-0.32742 0.605558,-0.40442 0.386844,-0.077 0.714263,0.141714 0.32742,0.218713 0.40442,0.605557 0.077,0.386844 -0.141714,0.714264 -0.218713,0.327419 -0.605557,0.404419 -0.386845,0.077 -0.714264,-0.141713 z"
             style="font-family:Inter;-inkscape-font-specification:Inter"
             id="path4793" /><path
             d="m 96.123878,-47.722538 q -0.909702,-0.778988 -1.227838,-1.807391 -0.306569,-1.029298 -0.03127,-2.132725 0.281525,-1.098091 1.140546,-2.101256 0.864356,-1.009396 1.911379,-1.462783 1.053253,-0.448052 2.117465,-0.303533 1.07044,0.149855 1.98015,0.928843 0.91593,0.784323 1.2225,1.813621 0.30657,1.029298 0.0197,2.13362 -0.28063,1.109658 -1.14499,2.119054 -0.85902,1.003165 -1.90694,1.444986 -1.041679,0.447156 -2.105894,0.302637 -1.058879,-0.15075 -1.974813,-0.935073 z m 0.821672,-0.959549 q 0.623084,0.533553 1.326915,0.607065 0.70383,0.07351 1.415465,-0.278283 0.71697,-0.358025 1.3519,-1.099495 0.6456,-0.753931 0.88369,-1.511226 0.24342,-0.763526 0.0678,-1.45389 -0.17561,-0.690365 -0.7987,-1.223918 -0.61685,-0.528218 -1.332246,-0.600835 -0.70383,-0.07351 -1.4208,0.284514 -0.71697,0.358025 -1.362569,1.111957 -0.640264,0.7477 -0.878355,1.504995 -0.23809,0.757295 -0.05714,1.441429 0.180949,0.684134 0.804032,1.217687 z"
             style="font-family:Inter;-inkscape-font-specification:Inter"
             id="path4795" /></g><g
           aria-label="100 blocks"
           id="text4857"
           style="font-size:16.8px;font-family:ROBOTO;-inkscape-font-specification:ROBOTO;text-align:center;letter-spacing:1.34783px;text-anchor:middle;fill:#fefeff;stroke:#ffffff;stroke-width:0.744;stroke-linecap:round;paint-order:stroke fill markers"><path
             d="m 21.54654,54.75699 -6.801879,10.155183 -2.017406,-1.351246 5.509979,-8.22638 -0.01363,-0.0091 -3.39888,-0.0847 1.232556,-1.840201 3.587721,0.08284 z"
             style="font-weight:bold;font-family:Inter;-inkscape-font-specification:'Inter Bold'"
             id="path4798" /><path
             d="m 21.418227,68.818171 q -1.375777,-0.678486 -2.038914,-1.856141 -0.652151,-1.181383 -0.565157,-2.711668 0.09435,-1.526657 0.954251,-3.270289 0.863528,-1.75099 2.017301,-2.755176 1.161131,-1.000558 2.495397,-1.202309 1.334265,-0.201751 2.7174,0.480364 1.375778,0.678486 2.027929,1.85987 0.663137,1.177655 0.565157,2.711668 -0.08699,1.530285 -0.950522,3.281275 -0.8599,1.743633 -2.02103,2.74419 -1.153774,1.004186 -2.495396,1.202309 -1.330638,0.194394 -2.706416,-0.484093 z m 0.892555,-1.809846 q 0.713638,0.351942 1.457216,0.142424 0.743578,-0.209519 1.447655,-0.932425 0.704078,-0.722907 1.291857,-1.914757 0.591408,-1.199207 0.736346,-2.197862 0.144937,-0.998655 -0.141479,-1.716131 -0.282787,-0.724833 -0.996426,-1.076776 -0.713639,-0.351942 -1.468202,-0.138694 -0.743578,0.209518 -1.447655,0.932425 -0.69672,0.726534 -1.288128,1.925742 -0.58778,1.19185 -0.740075,2.186876 -0.144937,0.998655 0.141479,1.716131 0.293773,0.721105 1.007412,1.073047 z"
             style="font-weight:bold;font-family:Inter;-inkscape-font-specification:'Inter Bold'"
             id="path4800" /><path
             d="m 32.845507,73.349185 q -1.46697,-0.44845 -2.310831,-1.504157 -0.833619,-1.061155 -0.993809,-2.585516 -0.152345,-1.521964 0.416011,-3.381172 0.570754,-1.867053 1.548054,-3.043686 0.985146,-1.174236 2.269612,-1.587896 1.284466,-0.41366 2.759281,0.03719 1.46697,0.448449 2.300588,1.509603 0.843862,1.055708 0.993809,2.585517 0.16019,1.524361 -0.410564,3.391414 -0.568356,1.859208 -1.553501,3.033443 -0.977301,1.176634 -2.269612,1.587896 -1.282068,0.405816 -2.749038,-0.04263 z m 0.589939,-1.929811 q 0.760942,0.232618 1.461157,-0.09373 0.700215,-0.326351 1.278896,-1.153059 0.578682,-0.826708 0.967178,-2.097559 0.390895,-1.278695 0.373375,-2.287661 -0.01752,-1.008965 -0.415571,-1.671054 -0.395653,-0.669934 -1.156595,-0.902552 -0.760942,-0.232618 -1.4714,0.09918 -0.700215,0.326351 -1.278896,1.153059 -0.570837,0.829106 -0.961732,2.107802 -0.388496,1.270851 -0.378821,2.277418 0.01752,1.008966 0.415571,1.671054 0.405896,0.664487 1.166838,0.897105 z"
             style="font-weight:bold;font-family:Inter;-inkscape-font-specification:'Inter Bold'"
             id="path4802" /><path
             d="M 50.139368,76.504825 Q 49.575017,76.461448 49.09685,76.260149 48.618683,76.05885 48.260045,75.693965 47.910214,75.321529 47.695013,74.803121 l -0.0082,-6.28e-4 -0.101842,1.324998 -2.380089,-0.182938 0.936692,-12.186711 2.412805,0.185453 -0.364618,4.74382 0.0082,6.28e-4 q 0.313919,-0.444828 0.713413,-0.718533 0.399494,-0.273705 0.885192,-0.384466 0.494505,-0.11831 1.050677,-0.07556 1.104165,0.08487 1.894418,0.721521 0.79906,0.629102 1.18731,1.679131 0.397058,1.042479 0.294588,2.375656 -0.103728,1.349535 -0.647884,2.327898 -0.544156,0.978363 -1.421791,1.478592 -0.877635,0.500228 -2.014516,0.412845 z m -0.470727,-2.010737 q 0.588888,0.04526 1.036827,-0.216491 0.456747,-0.269305 0.737315,-0.815425 0.289376,-0.55367 0.351613,-1.363392 0.06224,-0.809721 -0.139757,-1.392931 -0.193814,-0.582582 -0.604041,-0.918524 -0.402048,-0.335313 -0.990936,-0.380576 -0.605246,-0.04652 -1.095966,0.236628 -0.481913,0.275598 -0.779468,0.828639 -0.288747,0.545492 -0.348469,1.322497 -0.05909,0.768826 0.142271,1.360216 0.209544,0.592018 0.64305,0.946203 0.442315,0.346636 1.047561,0.393156 z"
             style="font-weight:bold;font-family:Inter;-inkscape-font-specification:'Inter Bold'"
             id="path4804" /><path
             d="m 58.603734,64.195976 0.390914,12.216402 -2.418684,0.0774 -0.390914,-12.216403 z"
             style="font-weight:bold;font-family:Inter;-inkscape-font-specification:'Inter Bold'"
             id="path4806" /><path
             d="m 66.061721,75.937908 q -1.291589,0.181622 -2.353314,-0.240664 -1.061725,-0.422286 -1.755745,-1.351888 -0.685897,-0.930745 -0.874373,-2.271074 -0.189617,-1.348452 0.212995,-2.432262 0.410736,-1.084952 1.314827,-1.783669 0.902948,-0.706839 2.194538,-0.888461 1.307836,-0.183907 2.36258,0.247645 1.061725,0.422286 1.747621,1.353031 0.694021,0.929602 0.883638,2.278054 0.188476,1.340329 -0.22226,2.425281 -0.402612,1.08381 -1.306703,1.782527 -0.895968,0.697574 -2.203804,0.88148 z m -0.273004,-1.941446 q 0.584871,-0.08224 0.98126,-0.444485 0.395246,-0.370365 0.558983,-0.973257 0.163737,-0.602893 0.05294,-1.390844 -0.113085,-0.804197 -0.43674,-1.338553 -0.323656,-0.534356 -0.804573,-0.773232 -0.48206,-0.246999 -1.06693,-0.164755 -0.576748,0.0811 -0.971994,0.451466 -0.396389,0.362242 -0.560126,0.965134 -0.163737,0.602893 -0.05065,1.40709 0.111943,0.796074 0.435599,1.33043 0.322513,0.526233 0.804572,0.773232 0.480918,0.238876 1.057665,0.157774 z"
             style="font-weight:bold;font-family:Inter;-inkscape-font-specification:'Inter Bold'"
             id="path4808" /><path
             d="m 76.884354,73.607187 q -1.244626,0.361615 -2.347832,0.09272 -1.097617,-0.279062 -1.9092,-1.102514 -0.805994,-0.833618 -1.179052,-2.117631 -0.375347,-1.29189 -0.139239,-2.41974 0.241697,-1.138015 1.018896,-1.961787 0.785077,-0.82606 2.029703,-1.187675 0.819248,-0.238024 1.583407,-0.195231 0.76187,0.03492 1.402067,0.327284 0.648074,0.290079 1.131522,0.807378 0.481159,0.509421 0.749149,1.225997 l -2.245053,0.652279 q -0.141101,-0.30924 -0.350543,-0.530286 -0.201566,-0.223334 -0.461306,-0.352885 -0.259741,-0.129551 -0.57308,-0.149564 -0.305461,-0.0223 -0.659943,0.08069 -0.582926,0.169364 -0.911168,0.597883 -0.330531,0.420641 -0.396477,1.046307 -0.06036,0.6155 0.161646,1.379606 0.219715,0.756229 0.600491,1.243562 0.388653,0.485044 0.895413,0.670961 0.504472,0.178039 1.087398,0.0087 0.354482,-0.102991 0.600437,-0.285502 0.245956,-0.18251 0.387961,-0.428785 0.149883,-0.248563 0.200394,-0.545136 0.04822,-0.30445 0.0072,-0.651321 l 2.260808,-0.656856 q 0.171173,0.736162 0.04019,1.43198 -0.125399,0.685651 -0.51485,1.285716 -0.389451,0.600065 -1.019588,1.047958 -0.62226,0.445604 -1.449385,0.685917 z"
             style="font-weight:bold;font-family:Inter;-inkscape-font-specification:'Inter Bold'"
             id="path4810" /><path
             d="m 84.183282,68.165257 -1.17119,-2.603374 0.23191,-0.10433 1.408297,-4.267538 2.588411,-1.164459 -1.796304,5.584458 -0.508705,0.228853 z m -0.974307,3.172797 -5.014579,-11.146628 2.206883,-0.992819 5.014578,11.146628 z m 5.169342,-2.325553 -4.046765,-2.317168 0.768862,-2.189866 5.858834,3.34594 z"
             style="font-weight:bold;font-family:Inter;-inkscape-font-specification:'Inter Bold'"
             id="path4812" /><path
             d="m 95.944621,65.059676 q -0.953211,0.595297 -1.880189,0.768011 -0.931324,0.165757 -1.724238,-0.112768 -0.792914,-0.278524 -1.353503,-1.021297 l 2.017746,-1.260118 q 0.355483,0.445323 0.872834,0.499413 0.517352,0.05409 1.115718,-0.319599 0.570535,-0.356309 0.755889,-0.77188 0.192311,-0.419916 -0.02061,-0.760845 -0.1825,-0.292226 -0.545954,-0.316699 -0.356498,-0.02882 -0.860894,0.170129 l -1.443611,0.553389 q -1.20185,0.460434 -2.097397,0.265348 -0.895548,-0.195085 -1.425666,-1.04393 -0.434523,-0.695775 -0.384698,-1.452248 0.05678,-0.760819 0.574404,-1.480609 0.524578,-0.724136 1.484746,-1.323778 0.953211,-0.595297 1.854091,-0.73237 0.896535,-0.144031 1.640745,0.164911 0.751168,0.304596 1.250017,1.056912 l -1.899464,1.186248 q -0.285053,-0.44095 -0.808482,-0.520259 -0.523429,-0.07931 -1.073091,0.263964 -0.528789,0.330238 -0.684579,0.746689 -0.160136,0.409492 0.04409,0.736506 0.178155,0.285268 0.527694,0.318431 0.349539,0.03316 0.823492,-0.137099 l 1.561013,-0.597695 q 1.247941,-0.479547 2.078284,-0.311439 0.832955,0.156804 1.341347,0.97086 0.456249,0.730563 0.382058,1.540939 -0.07158,0.799073 -0.61791,1.565808 -0.543718,0.755433 -1.503887,1.355075 z"
             style="font-weight:bold;font-family:Inter;-inkscape-font-specification:'Inter Bold'"
             id="path4814" /></g></g><g
         id="g4895"
         inkscape:label="middlebox"
         transform="translate(71.479348,-306.00589)"><g
           id="g4865"
           inkscape:label="boxbase"><path
             sodipodi:type="star"
             style="fill:#ffffff;fill-opacity:1;stroke:#ffffff;stroke-width:7.74927;stroke-linecap:butt;stroke-linejoin:round;stroke-dasharray:none;stroke-dashoffset:11.3999;stroke-opacity:1;paint-order:stroke markers fill"
             id="path4861"
             inkscape:flatsided="true"
             sodipodi:sides="6"
             sodipodi:cx="60.971188"
             sodipodi:cy="1662.2568"
             sodipodi:r1="209.38361"
             sodipodi:r2="169.3949"
             sodipodi:arg1="0.93197839"
             sodipodi:arg2="1.4555772"
             inkscape:rounded="0"
             inkscape:randomized="0"
             d="m 185.81551,1830.3502 -207.995309,24.0717 -124.844321,-168.0934 83.150982,-192.1651 207.995308,-24.0716 124.84433,168.0934 z"
             transform="matrix(-0.02402512,0.21608047,-0.21608047,-0.02402512,415.94182,26.76123)"
             inkscape:transform-center-x="-6.0949903"
             inkscape:transform-center-y="0.65854956"
             inkscape:label="path5295" /><path
             sodipodi:type="star"
             style="fill:#04344d;fill-opacity:1;stroke:#04344d;stroke-width:15.4985;stroke-linecap:square;stroke-linejoin:miter;stroke-dasharray:none;stroke-dashoffset:11.3999;stroke-opacity:1;paint-order:stroke markers fill"
             id="path4863"
             inkscape:flatsided="true"
             sodipodi:sides="6"
             sodipodi:cx="60.971188"
             sodipodi:cy="1662.2568"
             sodipodi:r1="209.38361"
             sodipodi:r2="169.3949"
             sodipodi:arg1="0.93197839"
             sodipodi:arg2="1.4555772"
             inkscape:rounded="0"
             inkscape:randomized="0"
             d="m 185.81551,1830.3502 -207.995309,24.0717 -124.844321,-168.0934 83.150982,-192.1651 207.995308,-24.0716 124.84433,168.0934 z"
             transform="matrix(-0.0208739,0.18782418,-0.18773877,-0.02088341,368.63847,23.261722)"
             inkscape:transform-center-x="-5.29561"
             inkscape:transform-center-y="0.5724448"
             inkscape:label="path4909" /></g><g
           id="g4893"
           inkscape:label="Boxfills"><path
             style="display:inline;fill:none;fill-opacity:1;stroke:#fffefe;stroke-width:0.829091;stroke-linecap:round;stroke-linejoin:round;stroke-dasharray:none;stroke-opacity:1;paint-order:stroke fill markers"
             d="M -3.6004704,2.4457647 1.6243234,5.4334834 6.8221031,2.4001554"
             id="path4867"
             inkscape:label="path10042"
             transform="matrix(6.0962598,0,0,6.0962598,45.475732,2.4629809)" /><g
             transform="matrix(1.9339678,1.235842,-2.4130706,1.4163754,51.205563,-11.527143)"
             id="g4891"
             inkscape:label="Logo">
<g
   id="g4889"
   inkscape:label="top-box"
   transform="translate(3.5528936,2.8474849)"><path
     style="display:inline;fill:#ffffff;fill-opacity:1;stroke:#fffefe;stroke-width:5.05542;stroke-linecap:square;stroke-linejoin:round;stroke-dasharray:none;stroke-opacity:1;paint-order:stroke fill markers"
     d="M 86.948736,-17.269832 55.436283,1.8906878 23.642748,-16.876449 55.040983,-35.542806 Z"
     id="path4869"
     inkscape:label="path10042"
     sodipodi:nodetypes="ccccc"
     transform="matrix(0.24755755,-0.21600348,0.42176237,0.33802361,-4.2617168,17.804514)" /><g
     id="g4887"
     transform="matrix(0.6933596,0,0,0.6933596,0.97298999,0.28937229)"
     inkscape:label="Logo"
     style="display:inline">
		<g
   transform="translate(0.91990781,-0.8)"
   id="g4873"
   inkscape:label="Circle">
<path
   style="opacity:1;fill:#e4003a;fill-opacity:1;fill-rule:nonzero;stroke:none;stroke-width:1;stroke-linecap:butt;stroke-linejoin:miter;stroke-miterlimit:4;stroke-dasharray:none;stroke-dashoffset:0"
   d="m 0,7.39996 a 7.6,7.6 0 1 1 7.6,-7.6 7.6,7.6 0 0 1 -7.6,7.6 z"
   stroke-linecap="round"
   id="path4871" />
</g>
		<g
   transform="translate(0.81,-1.08)"
   id="g4877"
   style="display:none"
   inkscape:label="undefined">
<path
   style="opacity:1;fill:#ffffff;fill-rule:nonzero;stroke:none;stroke-width:1;stroke-linecap:butt;stroke-linejoin:miter;stroke-miterlimit:4;stroke-dasharray:none;stroke-dashoffset:0"
   transform="translate(-10.81,-11.92)"
   d="m 8.46,13.2 h -0.8 c -0.3,0 -0.4,-0.1 -0.4,-0.4 a 0.43,0.43 0 0 1 0.4,-0.4 h 0.9 a 0.35,0.35 0 0 0 0.2,-0.1 1.42,1.42 0 0 0 0.2,-0.6 h -0.7 a 0.4,0.4 0 1 1 0,-0.8 h 0.8 c 0.1,0 0.2,0 0.2,-0.1 a 23.29,23.29 0 0 0 1.1,-2.8 0.1,0.1 0 0 1 0.1,-0.1 c 0.1,-0.2 0.2,-0.3 0.4,-0.3 0.2,0 0.3,0.1 0.4,0.3 0.2,0.6 0.4,1.1 0.6,1.7 0.2,0.4 0.3,0.8 0.5,1.2 0,0.1 0.1,0.1 0.2,0.1 h 0.8 a 0.37,0.37 0 0 1 0.4,0.4 0.43,0.43 0 0 1 -0.4,0.4 h -0.7 a 4.88,4.88 0 0 0 0.3,0.7 0.35,0.35 0 0 0 0.2,0.1 h 0.9 c 0.1,0 0.3,0.1 0.3,0.2 a 0.6,0.6 0 0 1 -0.1,0.4 0.37,0.37 0 0 1 -0.3,0.1 h -0.8 a 3.55,3.55 0 0 0 0.4,0.9 l 0.6,1.5 c 0.1,0.3 0.1,0.5 -0.2,0.6 -0.3,0.1 -0.4,0 -0.5,-0.3 -0.3,-0.9 -0.7,-1.7 -1,-2.6 -0.1,-0.2 -0.1,-0.2 -0.3,-0.2 h -2.9 c -0.2,0 -0.2,0 -0.3,0.2 a 18.61,18.61 0 0 1 -1,2.5 c -0.1,0.2 -0.2,0.3 -0.4,0.3 a 0.27,0.27 0 0 1 -0.3,-0.3 0.37,0.37 0 0 1 0.1,-0.3 c 0.3,-0.7 0.5,-1.4 0.8,-2.1 0.2,0 0.2,-0.1 0.3,-0.2 z m 1,-0.8 h 2.7 c -0.1,-0.2 -0.2,-0.5 -0.3,-0.7 a 0.35,0.35 0 0 0 -0.2,-0.1 h -1.8 c -0.1,0 -0.1,0 -0.2,0.1 a 1.45,1.45 0 0 1 -0.2,0.7 z m 2.2,-1.5 c -0.3,-0.7 -0.5,-1.3 -0.8,-2 -0.3,0.7 -0.5,1.3 -0.8,2 z"
   stroke-linecap="round"
   id="path4875" />
</g>
<path
   style="opacity:1;fill:#050001;fill-opacity:1;stroke:#ffffff;stroke-width:0.786824;stroke-linecap:round;stroke-miterlimit:3.7;stroke-dasharray:none;stroke-opacity:1;paint-order:stroke fill markers"
   d="M -2.3986007,2.7360851 0.88883187,-5.0028575"
   id="path4879"
   sodipodi:nodetypes="cc" /><path
   style="opacity:1;fill:#050001;fill-opacity:1;stroke:#ffffff;stroke-width:0.786824;stroke-linecap:round;stroke-miterlimit:3.7;stroke-dasharray:none;stroke-opacity:1"
   d="M 4.2651388,2.7342975 0.98031102,-5.0045294"
   id="path4881"
   sodipodi:nodetypes="cc" /><path
   style="opacity:1;fill:#050001;fill-opacity:1;stroke:#ffffff;stroke-width:0.786824;stroke-linecap:round;stroke-miterlimit:3.7;stroke-dasharray:none;stroke-opacity:1"
   d="m -1.664028,-1.6872983 5.178973,-0.015567"
   id="path4883" /><path
   style="fill:#050001;fill-opacity:1;stroke:#ffffff;stroke-width:0.786824;stroke-linecap:round;stroke-miterlimit:3.7;stroke-dasharray:none;stroke-opacity:1"
   d="m -2.3298842,-0.18348542 6.5097684,-0.0124693"
   id="path4885" /></g></g>
</g><path
             style="display:inline;fill:none;fill-opacity:1;stroke:#fffefe;stroke-width:5.05435;stroke-linecap:round;stroke-linejoin:round;stroke-dasharray:none;stroke-opacity:1;paint-order:stroke fill markers"
             d="M 23.526329,8.9490735 55.378029,27.162983 87.065045,8.6710275"
             id="path5001"
             inkscape:label="path10042" /></g></g></g></g></svg>
