<?xml version="1.0" encoding="UTF-8" standalone="no"?>
<svg
   inkscape:version="1.2.2 (b0a84865, 2022-12-01)"
   xml:space="preserve"
   sodipodi:docname="final_awards_pre-text-to-path.svg"
   id="svg134"
   version="1.1"
   viewBox="-120 -120 299.99976 299.99995"
   height="249.99995"
   width="249.9998"
   inkscape:export-filename="0.svg"
   inkscape:export-xdpi="96"
   inkscape:export-ydpi="96"
   xmlns:inkscape="http://www.inkscape.org/namespaces/inkscape"
   xmlns:sodipodi="http://sodipodi.sourceforge.net/DTD/sodipodi-0.dtd"
   xmlns="http://www.w3.org/2000/svg"
   xmlns:svg="http://www.w3.org/2000/svg"><defs
     id="defs138" /><sodipodi:namedview
     id="namedview136"
     pagecolor="#ffffff"
     bordercolor="#000000"
     borderopacity="0.25"
     inkscape:showpageshadow="2"
     inkscape:pageopacity="0.0"
     inkscape:pagecheckerboard="0"
     inkscape:deskcolor="#d1d1d1"
     showgrid="false"
     inkscape:zoom="0.35355339"
     inkscape:cx="1480.6816"
     inkscape:cy="663.26616"
     inkscape:window-width="1425"
     inkscape:window-height="949"
     inkscape:window-x="0"
     inkscape:window-y="25"
     inkscape:window-maximized="1"
     inkscape:current-layer="g19337"
     showguides="true" /><style
     type="text/css"
     id="style8571">
	.st0{fill:#ffffff;}
</style><g
     id="g14593"
     inkscape:label="Staked"
     transform="translate(-1123.3734,-407.04369)"><g
       id="g22295"
       inkscape:label="20m"
       transform="matrix(1.4245145,0,0,1.4245145,2184.6039,422.40874)"
       inkscape:export-filename="./g8306.svg"
       inkscape:export-xdpi="96"
       inkscape:export-ydpi="96"><g
         id="g22420"
         inkscape:label="border"
         transform="translate(-1336.7064,-849.37076)"><path
           fill="none"
           stroke="black"
           stroke-width="2"
           d="m 712.78919,859.6444 q 9.47,10.78 -1.92,19.51 7.18,12.42 -5.69,18.76 4.62,13.58 -9.24,17.29 1.88,14.22 -12.44,15.15 -0.93,14.32 -15.15,12.44 -3.71,13.86 -17.29,9.24 -6.34,12.87 -18.76,5.69 -8.73,11.39 -19.51,1.92 -10.78,9.47 -19.51,-1.92 -12.42,7.18 -18.76,-5.69 -13.58,4.62 -17.29,-9.24 -14.22,1.88 -15.15,-12.44 -14.32,-0.93 -12.44,-15.15 -13.86,-3.71 -9.24,-17.29 -12.87,-6.34 -5.69,-18.76 -11.39,-8.73 -1.92,-19.51 -9.47,-10.78 1.92,-19.51 -7.18,-12.42 5.69,-18.76 -4.62,-13.58 9.24,-17.29 -1.88,-14.22 12.44,-15.15 0.93,-14.32 15.15,-12.44 3.71,-13.86 17.29,-9.24 6.34,-12.87 18.76,-5.69 8.73,-11.39 19.51,-1.92 10.78,-9.47 19.51,1.92 12.42,-7.18 18.76,5.69 13.58,-4.62 17.29,9.24 14.22,-1.88 15.15,12.44 14.32,0.93 12.44,15.15 13.86,3.71 9.24,17.29 12.87,6.34 5.69,18.76 11.39,8.73 1.92,19.51 z"
           id="path22340"
           style="fill:#04344d;fill-opacity:1;stroke:#04344d;stroke-opacity:1" /><path
           style="fill:none;fill-opacity:1;stroke:#ffffff;stroke-width:3.6;stroke-linecap:round;stroke-dasharray:none;stroke-opacity:1;paint-order:stroke fill markers"
           id="path22342"
           sodipodi:type="arc"
           sodipodi:cx="612.78918"
           sodipodi:cy="859.64441"
           sodipodi:rx="92.730682"
           sodipodi:ry="92.730682"
           sodipodi:start="3.1610934"
           sodipodi:end="4.6929925"
           sodipodi:open="true"
           sodipodi:arc-type="arc"
           d="m 520.07613,857.83621 a 92.730682,92.730682 0 0 1 90.91452,-90.90504" /><path
           style="fill:none;fill-opacity:1;stroke:#ffffff;stroke-width:2.22;stroke-linecap:round;stroke-dasharray:none;stroke-opacity:1;paint-order:stroke fill markers"
           id="path22344"
           sodipodi:type="arc"
           sodipodi:cx="612.78918"
           sodipodi:cy="859.64441"
           sodipodi:rx="86.865753"
           sodipodi:ry="86.865753"
           sodipodi:start="3.1544395"
           sodipodi:end="4.6995293"
           sodipodi:open="true"
           sodipodi:arc-type="arc"
           d="m 525.9306,858.52849 a 86.865753,86.865753 0 0 1 85.74155,-85.74265" /><g
           id="g22418"
           inkscape:label="Circles"
           transform="translate(97.989291,859.63566)"><g
             id="g22348"
             transform="rotate(7.5,5558.9497,3252.8791)"
             inkscape:transform-center-x="-11.777454"
             inkscape:transform-center-y="-88.637902"><path
               sodipodi:type="star"
               style="fill:#fefeff;fill-opacity:1;stroke:#ffffff;stroke-width:2.22;stroke-linecap:round;stroke-opacity:1;paint-order:stroke fill markers"
               id="path22346"
               inkscape:flatsided="false"
               sodipodi:sides="5"
               sodipodi:cx="396.99625"
               sodipodi:cy="-372.60107"
               sodipodi:r1="3.6169088"
               sodipodi:r2="1.6637779"
               sodipodi:arg1="0.95906936"
               sodipodi:arg2="1.5873879"
               inkscape:rounded="0"
               inkscape:randomized="0"
               d="m 399.07337,-369.64006 -2.10473,-1.29747 -2.14661,1.22692 0.58356,-2.40265 -1.83021,-1.66242 2.46539,-0.18746 1.01548,-2.25435 0.94014,2.2868 2.45781,0.26915 -1.88435,1.60078 z"
               transform="matrix(1.0133273,0,0,1.0133273,-268.95197,974.58915)"
               inkscape:transform-center-x="1.0196929"
               inkscape:transform-center-y="-89.532179"
               inkscape:label="path5969" /></g><g
             id="g22352"
             transform="rotate(22.5,2049.0208,1301.9125)"
             inkscape:transform-center-x="-34.354027"
             inkscape:transform-center-y="-82.323429"><path
               sodipodi:type="star"
               style="fill:#fefeff;fill-opacity:1;stroke:#ffffff;stroke-width:2.22;stroke-linecap:round;stroke-opacity:1;paint-order:stroke fill markers"
               id="path22350"
               inkscape:flatsided="false"
               sodipodi:sides="5"
               sodipodi:cx="396.99625"
               sodipodi:cy="-372.60107"
               sodipodi:r1="3.6169088"
               sodipodi:r2="1.6637779"
               sodipodi:arg1="0.95906936"
               sodipodi:arg2="1.5873879"
               inkscape:rounded="0"
               inkscape:randomized="0"
               d="m 399.07337,-369.64006 -2.10473,-1.29747 -2.14661,1.22692 0.58356,-2.40265 -1.83021,-1.66242 2.46539,-0.18746 1.01548,-2.25435 0.94014,2.2868 2.45781,0.26915 -1.88435,1.60078 z"
               transform="matrix(1.0133273,0,0,1.0133273,-268.95197,974.58915)"
               inkscape:transform-center-x="1.0196929"
               inkscape:transform-center-y="-89.532179"
               inkscape:label="path5969" /></g><g
             id="g22356"
             transform="rotate(37.5,1334.8573,904.95028)"
             inkscape:transform-center-x="-54.232035"
             inkscape:transform-center-y="-70.490863"><path
               sodipodi:type="star"
               style="fill:#fefeff;fill-opacity:1;stroke:#ffffff;stroke-width:2.22;stroke-linecap:round;stroke-opacity:1;paint-order:stroke fill markers"
               id="path22354"
               inkscape:flatsided="false"
               sodipodi:sides="5"
               sodipodi:cx="396.99625"
               sodipodi:cy="-372.60107"
               sodipodi:r1="3.6169088"
               sodipodi:r2="1.6637779"
               sodipodi:arg1="0.95906936"
               sodipodi:arg2="1.5873879"
               inkscape:rounded="0"
               inkscape:randomized="0"
               d="m 399.07337,-369.64006 -2.10473,-1.29747 -2.14661,1.22692 0.58356,-2.40265 -1.83021,-1.66242 2.46539,-0.18746 1.01548,-2.25435 0.94014,2.2868 2.45781,0.26915 -1.88435,1.60078 z"
               transform="matrix(1.0133273,0,0,1.0133273,-268.95197,974.58915)"
               inkscape:transform-center-x="1.0196929"
               inkscape:transform-center-y="-89.532179"
               inkscape:label="path5969" /></g><g
             id="g22360"
             transform="rotate(52.5,1019.845,729.85313)"
             inkscape:transform-center-x="-70.414229"
             inkscape:transform-center-y="-54.322566"><path
               sodipodi:type="star"
               style="fill:#fefeff;fill-opacity:1;stroke:#ffffff;stroke-width:2.22;stroke-linecap:round;stroke-opacity:1;paint-order:stroke fill markers"
               id="path22358"
               inkscape:flatsided="false"
               sodipodi:sides="5"
               sodipodi:cx="396.99625"
               sodipodi:cy="-372.60107"
               sodipodi:r1="3.6169088"
               sodipodi:r2="1.6637779"
               sodipodi:arg1="0.95906936"
               sodipodi:arg2="1.5873879"
               inkscape:rounded="0"
               inkscape:randomized="0"
               d="m 399.07337,-369.64006 -2.10473,-1.29747 -2.14661,1.22692 0.58356,-2.40265 -1.83021,-1.66242 2.46539,-0.18746 1.01548,-2.25435 0.94014,2.2868 2.45781,0.26915 -1.88435,1.60078 z"
               transform="matrix(1.0133273,0,0,1.0133273,-268.95197,974.58915)"
               inkscape:transform-center-x="1.0196929"
               inkscape:transform-center-y="-89.532179"
               inkscape:label="path5969" /></g><g
             id="g22364"
             transform="rotate(67.5,837.58649,628.54617)"
             inkscape:transform-center-x="-82.3354"
             inkscape:transform-center-y="-34.452242"><path
               sodipodi:type="star"
               style="fill:#fefeff;fill-opacity:1;stroke:#ffffff;stroke-width:2.22;stroke-linecap:round;stroke-opacity:1;paint-order:stroke fill markers"
               id="path22362"
               inkscape:flatsided="false"
               sodipodi:sides="5"
               sodipodi:cx="396.99625"
               sodipodi:cy="-372.60107"
               sodipodi:r1="3.6169088"
               sodipodi:r2="1.6637779"
               sodipodi:arg1="0.95906936"
               sodipodi:arg2="1.5873879"
               inkscape:rounded="0"
               inkscape:randomized="0"
               d="m 399.07337,-369.64006 -2.10473,-1.29747 -2.14661,1.22692 0.58356,-2.40265 -1.83021,-1.66242 2.46539,-0.18746 1.01548,-2.25435 0.94014,2.2868 2.45781,0.26915 -1.88435,1.60078 z"
               transform="matrix(1.0133273,0,0,1.0133273,-268.95197,974.58915)"
               inkscape:transform-center-x="1.0196929"
               inkscape:transform-center-y="-89.532179"
               inkscape:label="path5969" /></g><g
             id="g22368"
             transform="rotate(82.5,715.32761,560.58954)"
             inkscape:transform-center-x="-88.666206"
             inkscape:transform-center-y="-11.806367"><path
               sodipodi:type="star"
               style="fill:#fefeff;fill-opacity:1;stroke:#ffffff;stroke-width:2.22;stroke-linecap:round;stroke-opacity:1;paint-order:stroke fill markers"
               id="path22366"
               inkscape:flatsided="false"
               sodipodi:sides="5"
               sodipodi:cx="396.99625"
               sodipodi:cy="-372.60107"
               sodipodi:r1="3.6169088"
               sodipodi:r2="1.6637779"
               sodipodi:arg1="0.95906936"
               sodipodi:arg2="1.5873879"
               inkscape:rounded="0"
               inkscape:randomized="0"
               d="m 399.07337,-369.64006 -2.10473,-1.29747 -2.14661,1.22692 0.58356,-2.40265 -1.83021,-1.66242 2.46539,-0.18746 1.01548,-2.25435 0.94014,2.2868 2.45781,0.26915 -1.88435,1.60078 z"
               transform="matrix(1.0133273,0,0,1.0133273,-268.95197,974.58915)"
               inkscape:transform-center-x="1.0196929"
               inkscape:transform-center-y="-89.532179"
               inkscape:label="path5969" /></g><g
             id="g22372"
             transform="rotate(97.5,624.98471,510.37315)"
             inkscape:transform-center-x="-88.637973"
             inkscape:transform-center-y="11.777454"><path
               sodipodi:type="star"
               style="fill:#fefeff;fill-opacity:1;stroke:#ffffff;stroke-width:2.22;stroke-linecap:round;stroke-opacity:1;paint-order:stroke fill markers"
               id="path22370"
               inkscape:flatsided="false"
               sodipodi:sides="5"
               sodipodi:cx="396.99625"
               sodipodi:cy="-372.60107"
               sodipodi:r1="3.6169088"
               sodipodi:r2="1.6637779"
               sodipodi:arg1="0.95906936"
               sodipodi:arg2="1.5873879"
               inkscape:rounded="0"
               inkscape:randomized="0"
               d="m 399.07337,-369.64006 -2.10473,-1.29747 -2.14661,1.22692 0.58356,-2.40265 -1.83021,-1.66242 2.46539,-0.18746 1.01548,-2.25435 0.94014,2.2868 2.45781,0.26915 -1.88435,1.60078 z"
               transform="matrix(1.0133273,0,0,1.0133273,-268.95197,974.58915)"
               inkscape:transform-center-x="1.0196929"
               inkscape:transform-center-y="-89.532179"
               inkscape:label="path5969" /></g><g
             id="g22376"
             transform="rotate(112.5,553.34383,470.55213)"
             inkscape:transform-center-x="-82.323487"
             inkscape:transform-center-y="34.35403"><path
               sodipodi:type="star"
               style="fill:#fefeff;fill-opacity:1;stroke:#ffffff;stroke-width:2.22;stroke-linecap:round;stroke-opacity:1;paint-order:stroke fill markers"
               id="path22374"
               inkscape:flatsided="false"
               sodipodi:sides="5"
               sodipodi:cx="396.99625"
               sodipodi:cy="-372.60107"
               sodipodi:r1="3.6169088"
               sodipodi:r2="1.6637779"
               sodipodi:arg1="0.95906936"
               sodipodi:arg2="1.5873879"
               inkscape:rounded="0"
               inkscape:randomized="0"
               d="m 399.07337,-369.64006 -2.10473,-1.29747 -2.14661,1.22692 0.58356,-2.40265 -1.83021,-1.66242 2.46539,-0.18746 1.01548,-2.25435 0.94014,2.2868 2.45781,0.26915 -1.88435,1.60078 z"
               transform="matrix(1.0133273,0,0,1.0133273,-268.95197,974.58915)"
               inkscape:transform-center-x="1.0196929"
               inkscape:transform-center-y="-89.532179"
               inkscape:label="path5969" /></g><g
             id="g22380"
             transform="rotate(127.5,493.28797,437.17055)"
             inkscape:transform-center-x="-70.490908"
             inkscape:transform-center-y="54.23204"><path
               sodipodi:type="star"
               style="fill:#fefeff;fill-opacity:1;stroke:#ffffff;stroke-width:2.22;stroke-linecap:round;stroke-opacity:1;paint-order:stroke fill markers"
               id="path22378"
               inkscape:flatsided="false"
               sodipodi:sides="5"
               sodipodi:cx="396.99625"
               sodipodi:cy="-372.60107"
               sodipodi:r1="3.6169088"
               sodipodi:r2="1.6637779"
               sodipodi:arg1="0.95906936"
               sodipodi:arg2="1.5873879"
               inkscape:rounded="0"
               inkscape:randomized="0"
               d="m 399.07337,-369.64006 -2.10473,-1.29747 -2.14661,1.22692 0.58356,-2.40265 -1.83021,-1.66242 2.46539,-0.18746 1.01548,-2.25435 0.94014,2.2868 2.45781,0.26915 -1.88435,1.60078 z"
               transform="matrix(1.0133273,0,0,1.0133273,-268.95197,974.58915)"
               inkscape:transform-center-x="1.0196929"
               inkscape:transform-center-y="-89.532179"
               inkscape:label="path5969" /></g><g
             id="g22384"
             transform="rotate(142.5,440.5548,407.85923)"
             inkscape:transform-center-x="-54.322569"
             inkscape:transform-center-y="70.414225"><path
               sodipodi:type="star"
               style="fill:#fefeff;fill-opacity:1;stroke:#ffffff;stroke-width:2.22;stroke-linecap:round;stroke-opacity:1;paint-order:stroke fill markers"
               id="path22382"
               inkscape:flatsided="false"
               sodipodi:sides="5"
               sodipodi:cx="396.99625"
               sodipodi:cy="-372.60107"
               sodipodi:r1="3.6169088"
               sodipodi:r2="1.6637779"
               sodipodi:arg1="0.95906936"
               sodipodi:arg2="1.5873879"
               inkscape:rounded="0"
               inkscape:randomized="0"
               d="m 399.07337,-369.64006 -2.10473,-1.29747 -2.14661,1.22692 0.58356,-2.40265 -1.83021,-1.66242 2.46539,-0.18746 1.01548,-2.25435 0.94014,2.2868 2.45781,0.26915 -1.88435,1.60078 z"
               transform="matrix(1.0133273,0,0,1.0133273,-268.95197,974.58915)"
               inkscape:transform-center-x="1.0196929"
               inkscape:transform-center-y="-89.532179"
               inkscape:label="path5969" /></g><g
             id="g22388"
             transform="rotate(157.5,392.3333,381.05569)"
             inkscape:transform-center-x="-34.452251"
             inkscape:transform-center-y="82.335402"><path
               sodipodi:type="star"
               style="fill:#fefeff;fill-opacity:1;stroke:#ffffff;stroke-width:2.22;stroke-linecap:round;stroke-opacity:1;paint-order:stroke fill markers"
               id="path22386"
               inkscape:flatsided="false"
               sodipodi:sides="5"
               sodipodi:cx="396.99625"
               sodipodi:cy="-372.60107"
               sodipodi:r1="3.6169088"
               sodipodi:r2="1.6637779"
               sodipodi:arg1="0.95906936"
               sodipodi:arg2="1.5873879"
               inkscape:rounded="0"
               inkscape:randomized="0"
               d="m 399.07337,-369.64006 -2.10473,-1.29747 -2.14661,1.22692 0.58356,-2.40265 -1.83021,-1.66242 2.46539,-0.18746 1.01548,-2.25435 0.94014,2.2868 2.45781,0.26915 -1.88435,1.60078 z"
               transform="matrix(1.0133273,0,0,1.0133273,-268.95197,974.58915)"
               inkscape:transform-center-x="1.0196929"
               inkscape:transform-center-y="-89.532179"
               inkscape:label="path5969" /></g><g
             id="g22392"
             transform="rotate(172.5,346.57293,355.62015)"
             inkscape:transform-center-x="-11.806385"
             inkscape:transform-center-y="88.666214"><path
               sodipodi:type="star"
               style="fill:#fefeff;fill-opacity:1;stroke:#ffffff;stroke-width:2.22;stroke-linecap:round;stroke-opacity:1;paint-order:stroke fill markers"
               id="path22390"
               inkscape:flatsided="false"
               sodipodi:sides="5"
               sodipodi:cx="396.99625"
               sodipodi:cy="-372.60107"
               sodipodi:r1="3.6169088"
               sodipodi:r2="1.6637779"
               sodipodi:arg1="0.95906936"
               sodipodi:arg2="1.5873879"
               inkscape:rounded="0"
               inkscape:randomized="0"
               d="m 399.07337,-369.64006 -2.10473,-1.29747 -2.14661,1.22692 0.58356,-2.40265 -1.83021,-1.66242 2.46539,-0.18746 1.01548,-2.25435 0.94014,2.2868 2.45781,0.26915 -1.88435,1.60078 z"
               transform="matrix(1.0133273,0,0,1.0133273,-268.95197,974.58915)"
               inkscape:transform-center-x="1.0196929"
               inkscape:transform-center-y="-89.532179"
               inkscape:label="path5969" /></g><g
             id="g22396"
             transform="rotate(-172.5,301.59553,330.61982)"
             inkscape:transform-center-x="11.777442"
             inkscape:transform-center-y="88.637982"><path
               sodipodi:type="star"
               style="fill:#fefeff;fill-opacity:1;stroke:#ffffff;stroke-width:2.22;stroke-linecap:round;stroke-opacity:1;paint-order:stroke fill markers"
               id="path22394"
               inkscape:flatsided="false"
               sodipodi:sides="5"
               sodipodi:cx="396.99625"
               sodipodi:cy="-372.60107"
               sodipodi:r1="3.6169088"
               sodipodi:r2="1.6637779"
               sodipodi:arg1="0.95906936"
               sodipodi:arg2="1.5873879"
               inkscape:rounded="0"
               inkscape:randomized="0"
               d="m 399.07337,-369.64006 -2.10473,-1.29747 -2.14661,1.22692 0.58356,-2.40265 -1.83021,-1.66242 2.46539,-0.18746 1.01548,-2.25435 0.94014,2.2868 2.45781,0.26915 -1.88435,1.60078 z"
               transform="matrix(1.0133273,0,0,1.0133273,-268.95197,974.58915)"
               inkscape:transform-center-x="1.0196929"
               inkscape:transform-center-y="-89.532179"
               inkscape:label="path5969" /></g><g
             id="g22400"
             transform="rotate(-157.5,255.83516,305.18428)"
             inkscape:transform-center-x="34.354019"
             inkscape:transform-center-y="82.323499"><path
               sodipodi:type="star"
               style="fill:#fefeff;fill-opacity:1;stroke:#ffffff;stroke-width:2.22;stroke-linecap:round;stroke-opacity:1;paint-order:stroke fill markers"
               id="path22398"
               inkscape:flatsided="false"
               sodipodi:sides="5"
               sodipodi:cx="396.99625"
               sodipodi:cy="-372.60107"
               sodipodi:r1="3.6169088"
               sodipodi:r2="1.6637779"
               sodipodi:arg1="0.95906936"
               sodipodi:arg2="1.5873879"
               inkscape:rounded="0"
               inkscape:randomized="0"
               d="m 399.07337,-369.64006 -2.10473,-1.29747 -2.14661,1.22692 0.58356,-2.40265 -1.83021,-1.66242 2.46539,-0.18746 1.01548,-2.25435 0.94014,2.2868 2.45781,0.26915 -1.88435,1.60078 z"
               transform="matrix(1.0133273,0,0,1.0133273,-268.95197,974.58915)"
               inkscape:transform-center-x="1.0196929"
               inkscape:transform-center-y="-89.532179"
               inkscape:label="path5969" /></g><g
             id="g22404"
             transform="rotate(-142.5,207.61366,278.38074)"
             inkscape:transform-center-x="54.232031"
             inkscape:transform-center-y="70.490924"><path
               sodipodi:type="star"
               style="fill:#fefeff;fill-opacity:1;stroke:#ffffff;stroke-width:2.22;stroke-linecap:round;stroke-opacity:1;paint-order:stroke fill markers"
               id="path22402"
               inkscape:flatsided="false"
               sodipodi:sides="5"
               sodipodi:cx="396.99625"
               sodipodi:cy="-372.60107"
               sodipodi:r1="3.6169088"
               sodipodi:r2="1.6637779"
               sodipodi:arg1="0.95906936"
               sodipodi:arg2="1.5873879"
               inkscape:rounded="0"
               inkscape:randomized="0"
               d="m 399.07337,-369.64006 -2.10473,-1.29747 -2.14661,1.22692 0.58356,-2.40265 -1.83021,-1.66242 2.46539,-0.18746 1.01548,-2.25435 0.94014,2.2868 2.45781,0.26915 -1.88435,1.60078 z"
               transform="matrix(1.0133273,0,0,1.0133273,-268.95197,974.58915)"
               inkscape:transform-center-x="1.0196929"
               inkscape:transform-center-y="-89.532179"
               inkscape:label="path5969" /></g><g
             id="g22408"
             transform="rotate(-127.5,154.88049,249.06943)"
             inkscape:transform-center-x="70.414233"
             inkscape:transform-center-y="54.322599"><path
               sodipodi:type="star"
               style="fill:#fefeff;fill-opacity:1;stroke:#ffffff;stroke-width:2.22;stroke-linecap:round;stroke-opacity:1;paint-order:stroke fill markers"
               id="path22406"
               inkscape:flatsided="false"
               sodipodi:sides="5"
               sodipodi:cx="396.99625"
               sodipodi:cy="-372.60107"
               sodipodi:r1="3.6169088"
               sodipodi:r2="1.6637779"
               sodipodi:arg1="0.95906936"
               sodipodi:arg2="1.5873879"
               inkscape:rounded="0"
               inkscape:randomized="0"
               d="m 399.07337,-369.64006 -2.10473,-1.29747 -2.14661,1.22692 0.58356,-2.40265 -1.83021,-1.66242 2.46539,-0.18746 1.01548,-2.25435 0.94014,2.2868 2.45781,0.26915 -1.88435,1.60078 z"
               transform="matrix(1.0133273,0,0,1.0133273,-268.95197,974.58915)"
               inkscape:transform-center-x="1.0196929"
               inkscape:transform-center-y="-89.532179"
               inkscape:label="path5969" /></g><g
             id="g22412"
             transform="rotate(-112.5,94.824625,215.68785)"
             inkscape:transform-center-x="82.33541"
             inkscape:transform-center-y="34.452266"><path
               sodipodi:type="star"
               style="fill:#fefeff;fill-opacity:1;stroke:#ffffff;stroke-width:2.22;stroke-linecap:round;stroke-opacity:1;paint-order:stroke fill markers"
               id="path22410"
               inkscape:flatsided="false"
               sodipodi:sides="5"
               sodipodi:cx="396.99625"
               sodipodi:cy="-372.60107"
               sodipodi:r1="3.6169088"
               sodipodi:r2="1.6637779"
               sodipodi:arg1="0.95906936"
               sodipodi:arg2="1.5873879"
               inkscape:rounded="0"
               inkscape:randomized="0"
               d="m 399.07337,-369.64006 -2.10473,-1.29747 -2.14661,1.22692 0.58356,-2.40265 -1.83021,-1.66242 2.46539,-0.18746 1.01548,-2.25435 0.94014,2.2868 2.45781,0.26915 -1.88435,1.60078 z"
               transform="matrix(1.0133273,0,0,1.0133273,-268.95197,974.58915)"
               inkscape:transform-center-x="1.0196929"
               inkscape:transform-center-y="-89.532179"
               inkscape:label="path5969" /></g><g
             id="g22416"
             transform="rotate(-97.5,23.183742,175.86683)"
             inkscape:transform-center-x="88.66622"
             inkscape:transform-center-y="11.806393"><path
               sodipodi:type="star"
               style="fill:#fefeff;fill-opacity:1;stroke:#ffffff;stroke-width:2.22;stroke-linecap:round;stroke-opacity:1;paint-order:stroke fill markers"
               id="path22414"
               inkscape:flatsided="false"
               sodipodi:sides="5"
               sodipodi:cx="396.99625"
               sodipodi:cy="-372.60107"
               sodipodi:r1="3.6169088"
               sodipodi:r2="1.6637779"
               sodipodi:arg1="0.95906936"
               sodipodi:arg2="1.5873879"
               inkscape:rounded="0"
               inkscape:randomized="0"
               d="m 399.07337,-369.64006 -2.10473,-1.29747 -2.14661,1.22692 0.58356,-2.40265 -1.83021,-1.66242 2.46539,-0.18746 1.01548,-2.25435 0.94014,2.2868 2.45781,0.26915 -1.88435,1.60078 z"
               transform="matrix(1.0133273,0,0,1.0133273,-268.95197,974.58915)"
               inkscape:transform-center-x="1.0196929"
               inkscape:transform-center-y="-89.532179"
               inkscape:label="path5969" /></g></g></g><g
         id="g22251"
         inkscape:label="Texts"
         transform="translate(-779.21292,10.019984)"><circle
           style="fill:none;fill-opacity:1;stroke:none;stroke-width:3.01836;stroke-linecap:round;stroke-opacity:1;paint-order:stroke fill markers"
           id="circle22235"
           cx="-1.4210855e-14"
           cy="-55.295727"
           transform="matrix(0,-1,-1,0,0,0)"
           r="76.490822"
           inkscape:label="Bottom-text-path" /><circle
           style="fill:none;fill-opacity:1;stroke:none;stroke-width:2.48601;stroke-linecap:round;stroke-opacity:1;paint-order:stroke fill markers"
           id="circle22237"
           cx="1.4210855e-14"
           cy="-55.295727"
           transform="rotate(90)"
           inkscape:label="Top-text-path"
           r="63" /><g
           aria-label="Cexplorer.io"
           id="text22245"
           style="font-size:16.8px;font-family:ROBOTO;-inkscape-font-specification:ROBOTO;text-align:center;letter-spacing:1.2px;text-anchor:middle;fill:#fefeff;stroke:#ffffff;stroke-width:0.744;stroke-linecap:round;paint-order:stroke fill markers"><path
             d="m 14.858755,-48.055292 q -1.276057,1.082623 -2.776689,1.355314 -1.499685,0.261129 -2.987961,-0.32652 -1.4873279,-0.599212 -2.7397738,-2.075435 -1.2630598,-1.488732 -1.6119449,-3.053813 -0.3426299,-1.570388 0.1646503,-3.001236 0.5135355,-1.436154 1.7895923,-2.518777 0.8194286,-0.695214 1.7269808,-1.045643 0.9075521,-0.350429 1.8275993,-0.356455 0.926303,-0.01133 1.806343,0.328555 0.880039,0.33989 1.656004,1.026262 l -1.945361,1.650469 q -0.431578,-0.343851 -0.889889,-0.503656 -0.463618,-0.16606 -0.92459,-0.151485 -0.466279,0.0083 -0.9183498,0.198225 -0.4511226,0.178342 -0.8702197,0.533909 -0.7944079,0.673986 -1.0336487,1.53318 -0.2329856,0.853886 0.061147,1.809201 0.2888255,0.94906 1.1007925,1.906103 0.80666,0.950787 1.6897276,1.395684 0.8893231,0.43959 1.7760141,0.343529 0.886692,-0.09606 1.6811,-0.770048 0.419097,-0.355567 0.673861,-0.765351 0.254765,-0.409783 0.338942,-0.868477 0.08418,-0.458693 0.0012,-0.936917 -0.083,-0.478223 -0.334126,-0.964414 l 1.939106,-1.645162 q 0.545472,0.871168 0.737441,1.794824 0.19197,0.923657 0.02987,1.835737 -0.162098,0.91208 -0.655706,1.750413 -0.49266,0.826771 -1.312089,1.521984 z"
             style="font-weight:bold;font-family:Inter;-inkscape-font-specification:Inter"
             id="path5150" /><path
             d="m 24.407684,-54.696185 q -1.103047,0.632425 -2.175545,0.575976 -1.065382,-0.06053 -1.984075,-0.706316 -0.922773,-0.652904 -1.571518,-1.784416 -0.656906,-1.145745 -0.732824,-2.284189 -0.07592,-1.138443 0.402965,-2.084367 0.474803,-0.95304 1.471103,-1.524262 0.782807,-0.448818 1.572259,-0.523215 0.796568,-0.07848 1.546835,0.191089 0.750267,0.269565 1.401285,0.860796 0.654055,0.580033 1.155915,1.455354 l 0.191767,0.334472 -6.177059,3.541579 -0.595704,-1.038998 5.500999,-3.153964 -0.311411,0.660789 q -0.440657,-0.768574 -1.04053,-1.171645 -0.596838,-0.414268 -1.270434,-0.434664 -0.677677,-0.02751 -1.353738,0.360104 -0.668944,0.383535 -0.987567,0.982269 -0.315587,0.587538 -0.266715,1.315978 0.05191,0.717244 0.492566,1.485818 l 0.293772,0.512383 q 0.444737,0.775691 1.050778,1.222505 0.613158,0.442733 1.321389,0.49055 0.70415,0.0407 1.437142,-0.379556 0.533732,-0.306012 0.845525,-0.702259 0.307712,-0.403363 0.399653,-0.853219 0.09906,-0.453936 -0.01149,-0.910622 l 1.209793,-0.693627 q 0.269767,0.800362 0.135605,1.605377 -0.138243,0.797899 -0.638857,1.49152 -0.493497,0.689542 -1.311886,1.15876 z"
             style="font-family:Inter;-inkscape-font-specification:Inter"
             id="path5152" /><path
             d="m 29.024949,-57.419381 1.614151,-5.923659 0.376633,1.006479 -4.912407,-3.239941 1.532131,-0.586708 1.70565,1.17392 q 0.511287,0.348818 1.007253,0.703503 0.493033,0.347025 0.999593,0.706438 l -0.643494,0.246417 q 0.144595,-0.608763 0.279735,-1.196338 0.139868,-0.59817 0.287397,-1.199272 l 0.500618,-2.018779 1.509149,-0.577907 -1.49956,5.695313 -0.387227,-1.011206 5.122496,3.352738 -1.524469,0.583774 -1.99104,-1.345722 q -0.497759,-0.33643 -0.977264,-0.671067 -0.479505,-0.334637 -0.972538,-0.681662 l 0.651156,-0.249351 q -0.135141,0.587575 -0.276149,1.159829 -0.141008,0.572254 -0.286743,1.155102 l -0.598262,2.337258 z"
             style="font-family:Inter;-inkscape-font-specification:Inter"
             id="path5154" /><path
             d="m 39.607891,-57.605288 -2.432547,-11.844188 1.333878,-0.273951 0.257447,1.253524 0.01607,-0.0033 q 0.175836,-0.530199 0.529315,-0.929396 0.353479,-0.399197 0.836389,-0.657489 0.48126,-0.266327 1.027668,-0.378548 1.108886,-0.227742 2.050404,0.15672 0.941518,0.384462 1.604173,1.286785 0.661006,0.894288 0.930005,2.204059 0.267349,1.301736 0.01397,2.392193 -0.255031,1.082423 -0.967157,1.814882 -0.713776,0.724425 -1.822662,0.952166 -0.546407,0.112221 -1.069573,0.05218 -0.521516,-0.052 -0.997333,-0.289255 -0.475818,-0.23725 -0.881832,-0.664699 l -0.01607,0.0033 0.953875,4.644465 z m 2.915536,-5.213053 q 0.739258,-0.151828 1.227473,-0.628942 0.488214,-0.477115 0.664404,-1.250243 0.176189,-0.773128 -0.0367,-1.809695 -0.214539,-1.044603 -0.681182,-1.685706 -0.466643,-0.641104 -1.103385,-0.887176 -0.636742,-0.246072 -1.375999,-0.09424 -0.78747,0.16173 -1.285155,0.674286 -0.497684,0.512557 -0.664188,1.29207 -0.166504,0.779513 0.03153,1.743762 0.196386,0.956213 0.656644,1.607002 0.460257,0.65079 1.119671,0.925703 0.659415,0.274913 1.446884,0.113183 z"
             style="font-family:Inter;-inkscape-font-specification:Inter"
             id="path5156" /><path
             d="m 49.868364,-75.032574 0.983695,12.183007 -1.390008,0.112234 -0.983695,-12.183007 z"
             style="font-family:Inter;-inkscape-font-specification:Inter"
             id="path5158" /><path
             d="m 57.684922,-62.75852 q -1.196813,-0.04493 -2.085176,-0.652908 -0.879858,-0.615865 -1.349932,-1.651417 -0.461876,-1.035245 -0.412327,-2.355018 0.04986,-1.327971 0.588364,-2.333866 0.546705,-1.005588 1.470265,-1.553747 0.931756,-0.547851 2.128569,-0.502918 1.20501,0.04524 2.084868,0.661105 0.879858,0.615865 1.341427,1.659307 0.469766,1.04375 0.419909,2.37172 -0.04955,1.319774 -0.595946,2.317164 -0.5382,0.997698 -1.461759,1.545857 -0.923252,0.539961 -2.128262,0.494721 z m 0.04739,-1.262392 q 0.819735,0.03078 1.416827,-0.349044 0.597092,-0.379819 0.935982,-1.097689 0.339197,-0.726066 0.37582,-1.701551 0.03724,-0.991879 -0.24687,-1.733138 -0.283802,-0.749456 -0.850425,-1.181174 -0.566624,-0.431719 -1.386359,-0.462494 -0.811538,-0.03047 -1.417135,0.357241 -0.597092,0.379819 -0.936289,1.105886 -0.339198,0.726067 -0.376436,1.717946 -0.03693,0.983682 0.247178,1.724941 0.284109,0.741259 0.851041,1.164779 0.566931,0.423521 1.386666,0.454297 z"
             style="font-family:Inter;-inkscape-font-specification:Inter"
             id="path5160" /><path
             d="m 64.50772,-62.351707 1.472099,-8.5365 1.309576,0.225834 -0.231409,1.341912 0.03234,0.0056 q 0.348741,-0.622445 0.927723,-0.938812 0.578981,-0.316366 1.379278,-0.178357 0.185928,0.03206 0.336732,0.07472 0.158888,0.04405 0.236938,0.07416 l -0.236986,1.374247 q -0.07666,-0.03819 -0.30551,-0.110954 -0.219376,-0.07945 -0.518477,-0.131031 -0.468861,-0.08085 -0.91069,0.06771 -0.441829,0.148561 -0.763804,0.567517 -0.321974,0.418956 -0.447437,1.146498 l -0.906121,5.254475 z"
             style="font-family:Inter;-inkscape-font-specification:Inter"
             id="path5162" /><path
             d="m 74.208055,-59.905665 q -1.213253,-0.380379 -1.900034,-1.206073 -0.678954,-0.82324 -0.828643,-1.936178 -0.147235,-1.120766 0.242959,-2.36533 0.395103,-1.260218 1.179334,-2.088951 0.78423,-0.828733 1.803832,-1.119444 1.022056,-0.298538 2.117898,0.04503 0.861019,0.269946 1.451672,0.799 0.59848,0.531509 0.910009,1.265345 0.311529,0.733836 0.319521,1.613219 0.01827,0.87401 -0.283575,1.836786 l -0.11534,0.367889 -6.794221,-2.130118 0.358292,-1.142807 6.050614,1.896984 -0.696561,0.220053 q 0.265038,-0.845364 0.153638,-1.55944 -0.101118,-0.719449 -0.543515,-1.227813 -0.439943,-0.516191 -1.18355,-0.749326 -0.73578,-0.230681 -1.391679,-0.05806 -0.645618,0.167251 -1.147213,0.697738 -0.491313,0.525114 -0.756351,1.370478 l -0.176691,0.563576 q -0.267492,0.853191 -0.184017,1.601497 0.0913,0.750759 0.537083,1.303168 0.448236,0.544582 1.254463,0.797349 0.587058,0.184054 1.089665,0.143904 0.505062,-0.04798 0.897748,-0.28593 0.400513,-0.235499 0.660725,-0.626743 l 1.330665,0.417189 q -0.404408,0.741491 -1.086499,1.189598 -0.679637,0.440281 -1.528769,0.543726 -0.841304,0.105899 -1.74146,-0.176316 z"
             style="font-family:Inter;-inkscape-font-specification:Inter"
             id="path5164" /><path
             d="m 80.477228,-57.777399 3.609932,-7.874471 1.208016,0.553797 -0.567471,1.237843 0.02983,0.01367 q 0.496566,-0.512329 1.137275,-0.669808 0.640708,-0.157479 1.37894,0.180953 0.171508,0.07862 0.306352,0.15849 0.142301,0.08328 0.210033,0.132383 l -0.581145,1.26767 q -0.06431,-0.05656 -0.266889,-0.185519 -0.1917,-0.133003 -0.467605,-0.259487 -0.432499,-0.198273 -0.897643,-0.167862 -0.465143,0.03041 -0.883704,0.352899 -0.418561,0.322487 -0.726226,0.993607 l -2.222023,4.846975 z"
             style="font-family:Inter;-inkscape-font-specification:Inter"
             id="path5166" /><path
             d="m 86.108686,-54.803396 q -0.371631,-0.209394 -0.491095,-0.615669 -0.10829,-0.409396 0.101104,-0.781026 0.213422,-0.378778 0.61567,-0.491095 0.409395,-0.108291 0.781026,0.101104 0.378777,0.213422 0.491095,0.61567 0.112317,0.402248 -0.101105,0.781026 -0.209394,0.371631 -0.615669,0.491095 -0.402249,0.112317 -0.781026,-0.101105 z"
             style="font-family:Inter;-inkscape-font-specification:Inter"
             id="path5168" /><path
             d="m 89.66592,-52.811898 4.811696,-7.203227 1.159611,0.774611 -4.811697,7.203226 z m 6.330147,-8.221096 q -0.327419,-0.218714 -0.404419,-0.605558 -0.077,-0.386844 0.141713,-0.714263 0.218714,-0.32742 0.605558,-0.40442 0.386844,-0.077 0.714263,0.141714 0.32742,0.218713 0.40442,0.605557 0.077,0.386844 -0.141714,0.714264 -0.218713,0.327419 -0.605557,0.404419 -0.386845,0.077 -0.714264,-0.141713 z"
             style="font-family:Inter;-inkscape-font-specification:Inter"
             id="path5170" /><path
             d="m 96.123878,-47.722538 q -0.909702,-0.778988 -1.227838,-1.807391 -0.306569,-1.029298 -0.03127,-2.132725 0.281525,-1.098091 1.140546,-2.101256 0.864356,-1.009396 1.911379,-1.462783 1.053253,-0.448052 2.117465,-0.303533 1.07044,0.149855 1.98015,0.928843 0.91593,0.784323 1.2225,1.813621 0.30657,1.029298 0.0197,2.13362 -0.28063,1.109658 -1.14499,2.119054 -0.85902,1.003165 -1.90694,1.444986 -1.041679,0.447156 -2.105894,0.302637 -1.058879,-0.15075 -1.974813,-0.935073 z m 0.821672,-0.959549 q 0.623084,0.533553 1.326915,0.607065 0.70383,0.07351 1.415465,-0.278283 0.71697,-0.358025 1.3519,-1.099495 0.6456,-0.753931 0.88369,-1.511226 0.24342,-0.763526 0.0678,-1.45389 -0.17561,-0.690365 -0.7987,-1.223918 -0.61685,-0.528218 -1.332246,-0.600835 -0.70383,-0.07351 -1.4208,0.284514 -0.71697,0.358025 -1.362569,1.111957 -0.640264,0.7477 -0.878355,1.504995 -0.23809,0.757295 -0.05714,1.441429 0.180949,0.684134 0.804032,1.217687 z"
             style="font-family:Inter;-inkscape-font-specification:Inter"
             id="path5172" /></g><g
           aria-label="20M ADA stake"
           id="text22249"
           style="font-size:16.8px;font-family:ROBOTO;-inkscape-font-specification:ROBOTO;text-align:center;letter-spacing:1.34783px;text-anchor:middle;fill:#fefeff;stroke:#ffffff;stroke-width:0.744;stroke-linecap:round;paint-order:stroke fill markers"><path
             d="m -4.6038426,47.773758 1.3806455,-1.237249 5.8420337,0.778925 q 0.7156456,0.08567 1.311884,0.124142 0.5962385,0.03847 1.0971074,-0.09095 Q 5.5341715,47.225328 5.955696,46.847584 6.3894387,46.45889 6.5428727,45.990942 6.7078903,45.523628 6.5894269,45.034977 6.476438,44.552435 6.0713209,44.100366 5.6333566,43.611641 5.1020156,43.448926 4.5761492,43.292319 4.0038752,43.452676 3.4431847,43.613667 2.887261,44.111851 L 1.3379621,42.38299 q 0.9896663,-0.886878 2.084073,-1.140627 1.1059904,-0.253115 2.1716089,0.12476 1.0717275,0.3724 1.9805035,1.386502 0.8376069,0.934685 1.140863,1.973712 0.303256,1.039026 0.028601,2.023161 -0.2630716,0.984769 -1.1244478,1.756681 -0.6353414,0.569354 -1.3742274,0.801913 -0.738886,0.232558 -1.6388362,0.223928 -0.8883666,-0.008 -2.0014258,-0.156103 l -3.40994831,-0.424957 -0.0122181,0.01095 3.56940951,3.983101 -1.5089356,1.352215 z"
             style="font-weight:bold;font-family:Inter;-inkscape-font-specification:'Inter Bold'"
             id="path5175" /><path
             d="m 6.7366911,59.358023 q -1.1867604,-0.971961 -1.5664774,-2.269049 -0.3681731,-1.298236 0.062542,-2.76923 0.4370614,-1.465797 1.6689046,-2.969873 1.2370408,-1.510422 2.5879712,-2.227757 1.3572765,-0.712137 2.7026085,-0.607008 1.345331,0.10513 2.538438,1.082288 1.18676,0.971961 1.554933,2.270197 0.379717,1.297087 -0.06254,2.76923 -0.430715,1.470994 -1.667756,2.981417 -1.231843,1.504076 -2.58912,2.216213 -1.35093,0.717335 -2.7026078,0.607008 -1.3401337,-0.111476 -2.5268941,-1.083436 z m 1.278622,-1.561193 q 0.6155923,0.504172 1.3872862,0.46819 0.7716937,-0.03598 1.6209787,-0.58099 0.849285,-0.545008 1.691305,-1.573111 0.847217,-1.034449 1.214182,-1.974478 0.366965,-0.940029 0.250175,-1.703683 -0.111592,-0.769999 -0.727184,-1.274171 -0.615593,-0.504172 -1.39883,-0.467041 -0.771694,0.03598 -1.620979,0.58099 -0.842939,0.550205 -1.6901561,1.584654 -0.8420194,1.028103 -1.2153309,1.962934 -0.3669653,0.940029 -0.2501754,1.703683 0.1231362,0.768851 0.7387285,1.273023 z"
             style="font-weight:bold;font-family:Inter;-inkscape-font-specification:'Inter Bold'"
             id="path5177" /><path
             d="m 12.927131,64.036647 5.852047,-10.730651 3.233599,1.76347 -0.954081,5.964211 q -0.07657,0.397397 -0.196332,0.976798 -0.115836,0.572199 -0.251963,1.198739 -0.132199,0.619338 -0.269641,1.179754 -0.130239,0.564345 -0.220557,0.935555 l -0.554537,-0.302421 q 0.263161,-0.276949 0.659866,-0.695974 0.403907,-0.415098 0.852985,-0.861623 0.453005,-0.453728 0.864114,-0.864898 0.422238,-0.414444 0.707658,-0.697942 l 4.47575,-4.04364 3.233599,1.763469 -5.852047,10.73065 -2.174937,-1.186119 2.780704,-5.09886 q 0.196378,-0.360088 0.481782,-0.849156 0.285404,-0.489068 0.606157,-1.042951 0.32468,-0.561086 0.653287,-1.129373 0.332535,-0.575489 0.62252,-1.09009 l 0.266466,0.14532 q -0.475917,0.478607 -0.981948,0.978166 -0.498829,0.503486 -0.970819,0.974891 -0.47199,0.471405 -0.882445,0.864244 -0.399326,0.389565 -0.68802,0.661933 l -4.595553,4.109118 -1.800445,-0.981887 0.944251,-6.100385 q 0.07264,-0.390195 0.176694,-0.940789 0.107981,-0.557796 0.241487,-1.213796 0.140708,-0.652072 0.279448,-1.351936 0.145942,-0.695936 0.283376,-1.359138 l 0.316878,0.172812 q -0.275582,0.522456 -0.57931,1.113655 -0.2998,0.583997 -0.595673,1.160793 -0.291945,0.569594 -0.555744,1.070444 -0.256597,0.504778 -0.452975,0.864867 l -2.780704,5.098859 z"
             style="font-weight:bold;font-family:Inter;-inkscape-font-specification:'Inter Bold'"
             id="path5179" /><path
             d="m 31.383295,72.921051 7.060771,-10.860246 3.156172,0.768717 1.275985,12.890744 -2.717814,-0.66195 -0.457638,-6.232587 q -0.06512,-1.2232 -0.138628,-2.515985 -0.06359,-1.298814 -0.111358,-2.939933 l 0.677461,0.165002 q -0.813009,1.431469 -1.474698,2.553633 -0.651778,1.116136 -1.288026,2.168511 l -3.336144,5.308573 z m 3.276974,-1.945813 0.477536,-1.960653 6.208732,1.512198 -0.477536,1.960652 z"
             style="font-weight:bold;font-family:Inter;-inkscape-font-specification:'Inter Bold'"
             id="path5181" /><path
             d="m 49.531691,76.27757 -3.15042,-0.221588 0.149068,-2.119374 3.019493,0.21238 q 1.227437,0.08633 2.061593,-0.315506 0.834731,-0.410022 1.289671,-1.266149 0.455515,-0.864311 0.545877,-2.149027 0.09036,-1.284717 -0.240258,-2.196098 -0.33062,-0.91138 -1.100314,-1.426027 -0.761511,-0.514072 -1.972582,-0.599254 l -3.101322,-0.218135 0.149068,-2.119373 3.256798,0.22907 q 1.832971,0.128924 3.122593,0.96796 1.290197,0.830852 1.922359,2.248622 0.632161,1.41777 0.500359,3.291656 -0.131802,1.873886 -0.956773,3.197391 -0.824397,1.315321 -2.226952,1.965 -1.394372,0.650253 -3.268258,0.518452 z m -0.9263,-12.318005 -0.857575,12.192534 -2.520335,-0.17727 0.857574,-12.192534 z"
             style="font-weight:bold;font-family:Inter;-inkscape-font-specification:'Inter Bold'"
             id="path5183" /><path
             d="m 56.849748,76.702967 3.093501,-12.578937 3.233346,-0.312761 5.447104,11.752807 -2.78427,0.269322 -2.483218,-5.734823 q -0.464037,-1.133636 -0.958888,-2.330222 -0.487475,-1.205542 -1.072652,-2.73953 l 0.694026,-0.06713 q -0.296644,1.619287 -0.552185,2.8967 -0.248166,1.268458 -0.502651,2.471596 l -1.403328,6.110768 z m 2.4541,-2.915843 -0.194291,-2.008594 6.360547,-0.615254 0.19429,2.008594 z"
             style="font-weight:bold;font-family:Inter;-inkscape-font-specification:'Inter Bold'"
             id="path5185" /><path
             d="m 79.163495,72.917918 q -1.068151,0.349344 -2.0095,0.294727 -0.943898,-0.06241 -1.646885,-0.522954 -0.702987,-0.460541 -1.0691,-1.316072 l 2.261051,-0.739488 q 0.238321,0.517575 0.727606,0.694149 0.489285,0.176574 1.159803,-0.04272 0.639332,-0.209097 0.918933,-0.568094 0.287397,-0.361546 0.162449,-0.743586 -0.107098,-0.327462 -0.454079,-0.438379 -0.339185,-0.113466 -0.876572,-0.04128 l -1.534193,0.19106 q -1.277195,0.158792 -2.09983,-0.245356 -0.822635,-0.404148 -1.13373,-1.355349 -0.254996,-0.779673 -0.02522,-1.502125 0.237573,-0.725002 0.912697,-1.299664 0.682921,-0.577212 1.75887,-0.929106 1.068151,-0.349345 1.975616,-0.266385 0.904914,0.07516 1.553324,0.553554 0.656207,0.475841 0.960093,1.325831 l -2.128507,0.696139 q -0.170994,-0.496441 -0.660132,-0.698955 -0.489138,-0.202515 -1.105079,-0.0011 -0.592551,0.193797 -0.843662,0.560737 -0.253661,0.359144 -0.133812,0.72559 0.104548,0.319666 0.435936,0.435682 0.331387,0.116016 0.83234,0.06438 l 1.658794,-0.205919 q 1.326525,-0.166295 2.092327,0.196025 0.771049,0.351974 1.069394,1.264192 0.267746,0.818656 0.0014,1.587595 -0.26111,0.758592 -0.975365,1.371944 -0.709008,0.603005 -1.784957,0.9549 z"
             style="font-weight:bold;font-family:Inter;-inkscape-font-specification:'Inter Bold'"
             id="path5187" /><path
             d="m 86.204096,60.453712 0.797153,1.719092 -5.157275,2.391459 -0.797153,-1.719092 z m -4.796692,-0.379884 2.195377,-1.018009 3.512994,7.57591 q 0.182897,0.394424 0.411646,0.478236 0.236192,0.08036 0.682709,-0.126691 0.186049,-0.08627 0.439075,-0.203601 0.260469,-0.120781 0.401866,-0.186348 l 0.797153,1.719092 q -0.200933,0.09317 -0.558147,0.258816 -0.357214,0.165642 -0.72187,0.334735 -1.2949,0.600453 -2.147242,0.380823 -0.8449,-0.223081 -1.341826,-1.294723 z"
             style="font-weight:bold;font-family:Inter;-inkscape-font-specification:'Inter Bold'"
             id="path5189" /><path
             d="m 94.610128,65.809711 q -0.732361,0.453358 -1.45542,0.563288 -0.723058,0.10993 -1.353115,-0.17538 -0.634375,-0.292284 -1.087732,-1.024646 -0.384275,-0.620763 -0.408848,-1.174764 -0.02889,-0.560976 0.213241,-1.05818 0.244788,-0.508496 0.678892,-0.960527 0.441079,-0.45635 0.982795,-0.859224 0.633385,-0.488565 0.992093,-0.797447 0.358709,-0.308882 0.45968,-0.535397 0.100971,-0.226515 -0.04583,-0.463661 l -0.03022,-0.04882 q -0.16839,-0.27202 -0.440075,-0.383619 -0.276003,-0.118575 -0.621424,-0.06876 -0.338446,0.0455 -0.715089,0.278655 -0.376643,0.233155 -0.596187,0.533071 -0.212569,0.295598 -0.246117,0.615443 -0.03355,0.319846 0.115577,0.623086 l -1.932039,1.196 q -0.421804,-0.790485 -0.369651,-1.594583 0.05913,-0.808415 0.598853,-1.557374 0.535408,-0.755934 1.546764,-1.381999 0.753286,-0.466311 1.454092,-0.658942 0.696489,-0.199607 1.303963,-0.122214 0.614448,0.07308 1.11298,0.410861 0.498531,0.337785 0.865534,0.930649 l 3.091466,4.994007 -2.008763,1.243495 -0.643335,-1.039256 -0.0279,0.01727 q 0.02922,0.483589 -0.09699,0.918684 -0.126215,0.435095 -0.447061,0.836311 -0.325163,0.394241 -0.890128,0.743974 z m -0.313187,-1.783899 q 0.495216,-0.306556 0.738675,-0.708104 0.250433,-0.405867 0.251433,-0.840631 0.001,-0.434765 -0.245108,-0.832332 l -0.457675,-0.739337 q -0.06045,0.104954 -0.176698,0.24445 -0.120566,0.132521 -0.289956,0.295265 -0.173708,0.15577 -0.377972,0.340103 -0.204265,0.184333 -0.426797,0.370326 -0.321177,0.276001 -0.533746,0.571599 -0.216887,0.288624 -0.263388,0.587544 -0.05082,0.291947 0.130524,0.584891 0.159754,0.25807 0.415829,0.360038 0.256075,0.101968 0.574593,0.03986 0.318518,-0.06211 0.660286,-0.273672 z"
             style="font-weight:bold;font-family:Inter;-inkscape-font-specification:'Inter Bold'"
             id="path5191" /><path
             d="m 101.30573,57.974221 -1.817547,-2.201308 0.196093,-0.161908 0.230443,-4.487992 2.188661,-1.807103 -0.25664,5.860633 -0.43014,0.355153 z m -0.10119,3.31748 -7.782033,-9.425139 1.866051,-1.540739 7.782032,9.42514 z m 4.37099,-3.608983 -4.51526,-1.165346 0.16281,-2.315201 6.53478,1.678667 z"
             style="font-weight:bold;font-family:Inter;-inkscape-font-specification:'Inter Bold'"
             id="path5193" /><path
             d="m 111.78667,51.863779 q -0.88902,0.965563 -1.97265,1.294756 -1.08412,0.317603 -2.20518,0.02136 -1.11551,-0.302282 -2.08107,-1.191296 -0.97764,-0.900126 -1.35923,-1.987406 -0.38207,-1.098871 -0.16045,-2.199438 0.22163,-1.100568 1.06063,-2.011817 0.65009,-0.706068 1.41933,-1.057117 0.76321,-0.356606 1.59317,-0.361836 0.82393,-0.01079 1.63299,0.32156 0.81462,0.326313 1.54482,0.998629 l 0.47675,0.43895 -5.18406,5.630437 -1.13454,-1.044591 4.39506,-4.7735 -0.46742,1.052659 q -0.48279,-0.444506 -0.99394,-0.591766 -0.51115,-0.147259 -0.99827,0.0064 -0.48759,0.14204 -0.89876,0.588613 -0.40562,0.440538 -0.50699,0.938183 -0.10741,0.492089 0.0815,0.989365 0.18888,0.497275 0.67166,0.941782 l 0.77245,0.711211 q 0.49485,0.455619 1.03014,0.625104 0.53481,0.157893 1.05115,0.0089 0.5103,-0.154588 0.94925,-0.631335 0.32227,-0.350016 0.47019,-0.704447 0.14744,-0.366023 0.13309,-0.713756 -0.0148,-0.359324 -0.19002,-0.665585 l 1.49465,-1.623352 q 0.52808,0.698075 0.62192,1.565016 0.0938,0.86694 -0.21754,1.762217 -0.3174,0.88972 -1.02861,1.66217 z"
             style="font-weight:bold;font-family:Inter;-inkscape-font-specification:'Inter Bold'"
             id="path5195" /></g></g><g
         style="fill:#000000"
         id="g22293"
         transform="matrix(0.20144581,0,0,0.20144581,-761.77363,-29.849992)"
         inkscape:label="Middlecoins"><g
           id="g22271">
	<g
   id="g22269"
   transform="translate(-70.464283)">
		
		
		<g
   id="g22338"
   inkscape:label="Left"><path
     d="m 117.4607,273.25682 c 9.4539,0 18.592,-0.61066 27.23922,-1.74737 V 176.7284 c -8.64639,-1.13587 -17.78532,-1.74653 -27.23922,-1.74653 -53.980023,0 -97.739685,19.84681 -97.739685,44.33011 v 9.61389 c 0,24.48246 43.759662,44.33095 97.739685,44.33095 z"
     id="path22253"
     style="fill:#e4003a;fill-opacity:1;stroke-width:0.838335;stroke-dasharray:none" /><path
     d="m 144.69908,294.69146 v -2.1595 c -8.6489,1.13587 -17.78281,1.75491 -27.23922,1.75491 -47.1187,0 -86.446273,-15.12322 -95.684051,-35.25065 -1.345292,2.93099 -2.055632,5.96669 -2.055632,9.07862 v 9.61389 c 0,24.48413 43.759662,44.33095 97.739683,44.33095 10.795,0 21.17787,-0.79578 30.88726,-2.2617 -2.40662,-4.92296 -3.64804,-10.11481 -3.64804,-15.49347 z"
     id="path22257"
     style="fill:#ffffff;fill-opacity:1;stroke-width:0.838335;stroke-dasharray:none" /></g>
		
		
		
		
		<g
   id="g22323"
   inkscape:label="Middle"><path
     d="m 258.38792,49.721123 c -53.98002,0 -97.73968,19.846816 -97.73968,44.330112 v 9.613895 c 0,24.48329 43.75966,44.33011 97.73968,44.33011 53.97919,0 97.73969,-19.84682 97.73969,-44.33011 v -9.613895 c 0,-24.483296 -43.7605,-44.330112 -97.73969,-44.330112 z"
     id="path22259"
     style="fill:#e4003a;fill-opacity:1;stroke-width:0.838335;stroke-dasharray:none" /><path
     d="m 258.38792,169.71423 c -47.1187,0 -86.44627,-15.12238 -95.68405,-35.25065 -1.34529,2.93099 -2.05563,5.9667 -2.05563,9.07946 v 9.61389 c 0,24.4833 43.75966,44.33011 97.73968,44.33011 53.97919,0 97.73969,-19.84681 97.73969,-44.33011 v -9.61389 c 0,-3.11276 -0.71034,-6.14847 -2.05563,-9.07946 -9.23778,20.12827 -48.56535,35.25065 -95.68406,35.25065 z"
     id="path22261"
     style="fill:#ffffff;fill-opacity:1;stroke-width:0.838335;stroke-dasharray:none" /><path
     d="m 258.38792,219.20688 c -47.1187,0 -86.44627,-15.12322 -95.68405,-35.25065 -1.34529,2.93099 -2.05563,5.96669 -2.05563,9.07946 v 9.61389 c 0,24.48413 43.75966,44.33095 97.73968,44.33095 53.97919,0 97.73969,-19.84682 97.73969,-44.33095 v -9.61389 c 0,-3.11277 -0.71034,-6.14847 -2.05563,-9.07946 -9.23778,20.12827 -48.56535,35.25065 -95.68406,35.25065 z"
     id="path22263"
     style="fill:#ffffff;fill-opacity:1;stroke-width:0.838335;stroke-dasharray:none" /><path
     d="m 258.38792,271.37084 c -47.1187,0 -86.44627,-15.12321 -95.68405,-35.25065 -1.34529,2.93183 -2.05563,5.9667 -2.05563,9.07862 v 9.61473 c 0,24.4833 43.75966,44.33011 97.73968,44.33011 53.97919,0 97.73969,-19.84681 97.73969,-44.33011 v -9.61473 c 0,-3.11192 -0.71034,-6.14846 -2.05563,-9.07862 -9.23778,20.1266 -48.56535,35.25065 -95.68406,35.25065 z"
     id="path22265"
     style="fill:#ffffff;fill-opacity:1;stroke-width:0.838335;stroke-dasharray:none" /><path
     d="m 258.38792,320.86265 c -47.1187,0 -86.44627,-15.12238 -95.68405,-35.24981 -1.34529,2.93183 -2.05563,5.96837 -2.05563,9.07862 v 9.61389 c 0,24.4833 43.75966,44.33011 97.73968,44.33011 53.97919,0 97.73969,-19.84681 97.73969,-44.33011 v -9.61473 c 0,-3.11193 -0.71034,-6.14846 -2.05563,-9.07862 -9.23778,20.12744 -48.56535,35.25065 -95.68406,35.25065 z"
     id="path22267"
     style="fill:#ffffff;fill-opacity:1;stroke-width:0.838335;stroke-dasharray:none" /><g
     transform="matrix(10.303711,0,0,10.303711,161.70322,-10.967007)"
     id="g22291"
     inkscape:label="Logo"
     style="fill:#000000">
<g
   id="g22289"
   transform="matrix(0.6933596,0,0,0.6933596,0.97298999,0.28937229)"
   inkscape:label="Logo"
   style="display:inline">
		<g
   transform="translate(0.91990781,-0.8)"
   id="g22275"
   inkscape:label="Circle"
   style="display:none">
<path
   style="opacity:1;fill:#e4003a;fill-opacity:1;fill-rule:nonzero;stroke:none;stroke-width:1;stroke-linecap:butt;stroke-linejoin:miter;stroke-miterlimit:4;stroke-dasharray:none;stroke-dashoffset:0"
   d="m 0,7.39996 a 7.6,7.6 0 1 1 7.6,-7.6 7.6,7.6 0 0 1 -7.6,7.6 z"
   stroke-linecap="round"
   id="path22273" />
</g>
		<g
   transform="translate(0.81,-1.08)"
   id="g22279"
   style="display:none"
   inkscape:label="undefined">
<path
   style="opacity:1;fill:#ffffff;fill-rule:nonzero;stroke:none;stroke-width:1;stroke-linecap:butt;stroke-linejoin:miter;stroke-miterlimit:4;stroke-dasharray:none;stroke-dashoffset:0"
   transform="translate(-10.81,-11.92)"
   d="m 8.46,13.2 h -0.8 c -0.3,0 -0.4,-0.1 -0.4,-0.4 a 0.43,0.43 0 0 1 0.4,-0.4 h 0.9 a 0.35,0.35 0 0 0 0.2,-0.1 1.42,1.42 0 0 0 0.2,-0.6 h -0.7 a 0.4,0.4 0 1 1 0,-0.8 h 0.8 c 0.1,0 0.2,0 0.2,-0.1 a 23.29,23.29 0 0 0 1.1,-2.8 0.1,0.1 0 0 1 0.1,-0.1 c 0.1,-0.2 0.2,-0.3 0.4,-0.3 0.2,0 0.3,0.1 0.4,0.3 0.2,0.6 0.4,1.1 0.6,1.7 0.2,0.4 0.3,0.8 0.5,1.2 0,0.1 0.1,0.1 0.2,0.1 h 0.8 a 0.37,0.37 0 0 1 0.4,0.4 0.43,0.43 0 0 1 -0.4,0.4 h -0.7 a 4.88,4.88 0 0 0 0.3,0.7 0.35,0.35 0 0 0 0.2,0.1 h 0.9 c 0.1,0 0.3,0.1 0.3,0.2 a 0.6,0.6 0 0 1 -0.1,0.4 0.37,0.37 0 0 1 -0.3,0.1 h -0.8 a 3.55,3.55 0 0 0 0.4,0.9 l 0.6,1.5 c 0.1,0.3 0.1,0.5 -0.2,0.6 -0.3,0.1 -0.4,0 -0.5,-0.3 -0.3,-0.9 -0.7,-1.7 -1,-2.6 -0.1,-0.2 -0.1,-0.2 -0.3,-0.2 h -2.9 c -0.2,0 -0.2,0 -0.3,0.2 a 18.61,18.61 0 0 1 -1,2.5 c -0.1,0.2 -0.2,0.3 -0.4,0.3 a 0.27,0.27 0 0 1 -0.3,-0.3 0.37,0.37 0 0 1 0.1,-0.3 c 0.3,-0.7 0.5,-1.4 0.8,-2.1 0.2,0 0.2,-0.1 0.3,-0.2 z m 1,-0.8 h 2.7 c -0.1,-0.2 -0.2,-0.5 -0.3,-0.7 a 0.35,0.35 0 0 0 -0.2,-0.1 h -1.8 c -0.1,0 -0.1,0 -0.2,0.1 a 1.45,1.45 0 0 1 -0.2,0.7 z m 2.2,-1.5 c -0.3,-0.7 -0.5,-1.3 -0.8,-2 -0.3,0.7 -0.5,1.3 -0.8,2 z"
   stroke-linecap="round"
   id="path22277" />
</g>
<path
   style="opacity:1;fill:#050001;fill-opacity:1;stroke:#ffffff;stroke-width:0.791434;stroke-linecap:round;stroke-miterlimit:3.7;stroke-dasharray:none;stroke-opacity:1;paint-order:stroke fill markers"
   d="M 8.1350941,16.876025 12.086609,10.362006"
   id="path22281"
   sodipodi:nodetypes="cc" /><path
   style="opacity:1;fill:#050001;fill-opacity:1;stroke:#ffffff;stroke-width:0.791434;stroke-linecap:round;stroke-miterlimit:3.7;stroke-dasharray:none;stroke-opacity:1"
   d="M 16.144951,16.87452 12.196567,10.360599"
   id="path22283"
   sodipodi:nodetypes="cc" /><path
   style="opacity:1;fill:#050001;fill-opacity:1;stroke:#ffffff;stroke-width:0.791434;stroke-linecap:round;stroke-miterlimit:3.7;stroke-dasharray:none;stroke-opacity:1"
   d="m 9.0180552,13.152778 6.2251588,-0.01311"
   id="path22285" /><path
   style="fill:#050001;fill-opacity:1;stroke:#ffffff;stroke-width:0.791434;stroke-linecap:round;stroke-miterlimit:3.7;stroke-dasharray:none;stroke-opacity:1"
   d="m 8.2176918,14.418566 7.8247822,-0.01051"
   id="path22287" /></g>
</g></g>
	<g
   id="g22306"
   inkscape:label="Right"
   transform="translate(0,-10.01765)"><path
     d="m 399.31515,283.27447 c -9.4539,0 -18.592,-0.61066 -27.23922,-1.74737 v -94.78105 c 8.64639,-1.13587 17.78532,-1.74653 27.23922,-1.74653 53.98002,0 97.73968,19.84681 97.73968,44.33011 v 9.61389 c 0,24.48246 -43.75966,44.33095 -97.73968,44.33095 z"
     id="path22297"
     style="fill:#e4003a;fill-opacity:1;stroke-width:0.838335;stroke-dasharray:none" /><path
     d="m 372.07677,304.70911 v -2.1595 c 8.6489,1.13587 17.78281,1.75491 27.23922,1.75491 47.1187,0 86.44627,-15.12322 95.68405,-35.25065 1.34529,2.93099 2.05563,5.96669 2.05563,9.07862 v 9.61389 c 0,24.48413 -43.75966,44.33095 -97.73968,44.33095 -10.795,0 -21.17787,-0.79578 -30.88726,-2.2617 2.40662,-4.92296 3.64804,-10.11481 3.64804,-15.49347 z"
     id="path22301"
     style="fill:#ffffff;fill-opacity:1;stroke-width:0.838335;stroke-dasharray:none" /></g></g>
</g></g></g></g></svg>
