<?xml version="1.0" encoding="UTF-8" standalone="no"?>
<svg
   inkscape:version="1.2.2 (b0a84865, 2022-12-01)"
   xml:space="preserve"
   sodipodi:docname="final_awards_pre-text-to-path.svg"
   id="svg134"
   version="1.1"
   viewBox="-120 -120 300 299.99995"
   height="249.99995"
   width="250"
   inkscape:export-filename="0.svg"
   inkscape:export-xdpi="96"
   inkscape:export-ydpi="96"
   xmlns:inkscape="http://www.inkscape.org/namespaces/inkscape"
   xmlns:sodipodi="http://sodipodi.sourceforge.net/DTD/sodipodi-0.dtd"
   xmlns="http://www.w3.org/2000/svg"
   xmlns:svg="http://www.w3.org/2000/svg"><defs
     id="defs138" /><sodipodi:namedview
     id="namedview136"
     pagecolor="#ffffff"
     bordercolor="#000000"
     borderopacity="0.25"
     inkscape:showpageshadow="2"
     inkscape:pageopacity="0.0"
     inkscape:pagecheckerboard="0"
     inkscape:deskcolor="#d1d1d1"
     showgrid="false"
     inkscape:zoom="0.35355339"
     inkscape:cx="1480.6816"
     inkscape:cy="663.26616"
     inkscape:window-width="1425"
     inkscape:window-height="949"
     inkscape:window-x="0"
     inkscape:window-y="25"
     inkscape:window-maximized="1"
     inkscape:current-layer="g19337"
     showguides="true" /><style
     type="text/css"
     id="style8571">
	.st0{fill:#ffffff;}
</style><g
     id="g14593"
     inkscape:label="Staked"
     transform="translate(-1863.3734,-407.04369)"><g
       id="g23028"
       inkscape:label="40m"
       transform="matrix(1.4245145,0,0,1.4245145,2924.6039,422.4088)"
       inkscape:export-filename="./g8306.svg"
       inkscape:export-xdpi="96"
       inkscape:export-ydpi="96"><g
         id="g23138"
         inkscape:label="Borders"
         transform="translate(-779.21292,10.273598)"><path
           fill="none"
           stroke="black"
           stroke-width="2"
           d="M 155.29573,3.5528548e-7 Q 164.76573,10.78 153.37573,19.51 q 7.18,12.42 -5.69,18.76 4.62,13.58 -9.24,17.29 1.88,14.22 -12.44,15.15 -0.93,14.32 -15.15,12.44 -3.71,13.86 -17.290004,9.24 -6.34,12.87 -18.76,5.69 -8.73,11.39 -19.51,1.92 -10.78,9.47 -19.51,-1.92 -12.42,7.18 -18.76,-5.69 -13.5800024,4.62 -17.2900022,-9.24 -14.2199978,1.88 -15.1499978,-12.44 -14.32,-0.93 -12.44,-15.15 -13.86,-3.71 -9.24,-17.29 -12.87,-6.34 -5.69,-18.76 -11.39,-8.73 -1.92,-19.50999964471406 Q -54.174274,-10.78 -42.784274,-19.51 q -7.18,-12.42 5.69,-18.76 -4.62,-13.58 9.24,-17.29 -1.88,-14.22 12.44,-15.15 0.93,-14.32 15.1499978,-12.44 3.7099998,-13.86 17.2900022,-9.24 6.34,-12.87 18.76,-5.69 8.73,-11.39 19.51,-1.92 10.78,-9.47 19.51,1.92 12.42,-7.18 18.76,5.69 13.580004,-4.62 17.290004,9.24 14.22,-1.88 15.15,12.44 14.32,0.93 12.44,15.15 13.86,3.71 9.24,17.29 12.87,6.34 5.69,18.76 11.39,8.73 1.92,19.51000035528548 z"
           id="path23132"
           style="fill:#04344d;fill-opacity:1;stroke:#04344d;stroke-opacity:1"
           inkscape:export-filename="path132.svg"
           inkscape:export-xdpi="96"
           inkscape:export-ydpi="96" /><circle
           style="fill:none;fill-opacity:1;stroke:#efa900;stroke-width:3.6;stroke-linecap:round;stroke-dasharray:none;stroke-opacity:1;paint-order:stroke fill markers"
           id="circle23134"
           cx="55.295727"
           cy="1.4210855e-14"
           r="92.730682" /><circle
           style="fill:none;fill-opacity:1;stroke:#efa900;stroke-width:2.22;stroke-linecap:round;stroke-dasharray:none;stroke-opacity:1;paint-order:stroke fill markers"
           id="circle23136"
           cx="55.295727"
           cy="0"
           r="86.865753" /></g><g
         id="g22972"
         inkscape:label="Texts"
         transform="translate(-779.21292,10.008872)"><circle
           style="fill:none;fill-opacity:1;stroke:none;stroke-width:3.01836;stroke-linecap:round;stroke-opacity:1;paint-order:stroke fill markers"
           id="circle22956"
           cx="-1.4210855e-14"
           cy="-55.295727"
           transform="matrix(0,-1,-1,0,0,0)"
           r="76.490822"
           inkscape:label="Bottom-text-path" /><circle
           style="fill:none;fill-opacity:1;stroke:none;stroke-width:2.48601;stroke-linecap:round;stroke-opacity:1;paint-order:stroke fill markers"
           id="circle22958"
           cx="1.4210855e-14"
           cy="-55.295727"
           transform="rotate(90)"
           inkscape:label="Top-text-path"
           r="63" /><g
           aria-label="Cexplorer.io"
           id="text22966"
           style="font-size:16.8px;font-family:ROBOTO;-inkscape-font-specification:ROBOTO;text-align:center;letter-spacing:1.2px;text-anchor:middle;fill:#fefeff;stroke:#ffffff;stroke-width:0.744;stroke-linecap:round;paint-order:stroke fill markers"><path
             d="m 14.858755,-48.055292 q -1.276057,1.082623 -2.776689,1.355314 -1.499685,0.261129 -2.987961,-0.32652 -1.4873279,-0.599212 -2.7397738,-2.075435 -1.2630598,-1.488732 -1.6119449,-3.053813 -0.3426299,-1.570388 0.1646503,-3.001236 0.5135355,-1.436154 1.7895923,-2.518777 0.8194286,-0.695214 1.7269808,-1.045643 0.9075521,-0.350429 1.8275993,-0.356455 0.926303,-0.01133 1.806343,0.328555 0.880039,0.33989 1.656004,1.026262 l -1.945361,1.650469 q -0.431578,-0.343851 -0.889889,-0.503656 -0.463618,-0.16606 -0.92459,-0.151485 -0.466279,0.0083 -0.9183498,0.198225 -0.4511226,0.178342 -0.8702197,0.533909 -0.7944079,0.673986 -1.0336487,1.53318 -0.2329856,0.853886 0.061147,1.809201 0.2888255,0.94906 1.1007925,1.906103 0.80666,0.950787 1.6897276,1.395684 0.8893231,0.43959 1.7760141,0.343529 0.886692,-0.09606 1.6811,-0.770048 0.419097,-0.355567 0.673861,-0.765351 0.254765,-0.409783 0.338942,-0.868477 0.08418,-0.458693 0.0012,-0.936917 -0.083,-0.478223 -0.334126,-0.964414 l 1.939106,-1.645162 q 0.545472,0.871168 0.737441,1.794824 0.19197,0.923657 0.02987,1.835737 -0.162098,0.91208 -0.655706,1.750413 -0.49266,0.826771 -1.312089,1.521984 z"
             style="font-weight:bold;font-family:Inter;-inkscape-font-specification:Inter"
             id="path5246" /><path
             d="m 24.407684,-54.696185 q -1.103047,0.632425 -2.175545,0.575976 -1.065382,-0.06053 -1.984075,-0.706316 -0.922773,-0.652904 -1.571518,-1.784416 -0.656906,-1.145745 -0.732824,-2.284189 -0.07592,-1.138443 0.402965,-2.084367 0.474803,-0.95304 1.471103,-1.524262 0.782807,-0.448818 1.572259,-0.523215 0.796568,-0.07848 1.546835,0.191089 0.750267,0.269565 1.401285,0.860796 0.654055,0.580033 1.155915,1.455354 l 0.191767,0.334472 -6.177059,3.541579 -0.595704,-1.038998 5.500999,-3.153964 -0.311411,0.660789 q -0.440657,-0.768574 -1.04053,-1.171645 -0.596838,-0.414268 -1.270434,-0.434664 -0.677677,-0.02751 -1.353738,0.360104 -0.668944,0.383535 -0.987567,0.982269 -0.315587,0.587538 -0.266715,1.315978 0.05191,0.717244 0.492566,1.485818 l 0.293772,0.512383 q 0.444737,0.775691 1.050778,1.222505 0.613158,0.442733 1.321389,0.49055 0.70415,0.0407 1.437142,-0.379556 0.533732,-0.306012 0.845525,-0.702259 0.307712,-0.403363 0.399653,-0.853219 0.09906,-0.453936 -0.01149,-0.910622 l 1.209793,-0.693627 q 0.269767,0.800362 0.135605,1.605377 -0.138243,0.797899 -0.638857,1.49152 -0.493497,0.689542 -1.311886,1.15876 z"
             style="font-family:Inter;-inkscape-font-specification:Inter"
             id="path5248" /><path
             d="m 29.024949,-57.419381 1.614151,-5.923659 0.376633,1.006479 -4.912407,-3.239941 1.532131,-0.586708 1.70565,1.17392 q 0.511287,0.348818 1.007253,0.703503 0.493033,0.347025 0.999593,0.706438 l -0.643494,0.246417 q 0.144595,-0.608763 0.279735,-1.196338 0.139868,-0.59817 0.287397,-1.199272 l 0.500618,-2.018779 1.509149,-0.577907 -1.49956,5.695313 -0.387227,-1.011206 5.122496,3.352738 -1.524469,0.583774 -1.99104,-1.345722 q -0.497759,-0.33643 -0.977264,-0.671067 -0.479505,-0.334637 -0.972538,-0.681662 l 0.651156,-0.249351 q -0.135141,0.587575 -0.276149,1.159829 -0.141008,0.572254 -0.286743,1.155102 l -0.598262,2.337258 z"
             style="font-family:Inter;-inkscape-font-specification:Inter"
             id="path5250" /><path
             d="m 39.607891,-57.605288 -2.432547,-11.844188 1.333878,-0.273951 0.257447,1.253524 0.01607,-0.0033 q 0.175836,-0.530199 0.529315,-0.929396 0.353479,-0.399197 0.836389,-0.657489 0.48126,-0.266327 1.027668,-0.378548 1.108886,-0.227742 2.050404,0.15672 0.941518,0.384462 1.604173,1.286785 0.661006,0.894288 0.930005,2.204059 0.267349,1.301736 0.01397,2.392193 -0.255031,1.082423 -0.967157,1.814882 -0.713776,0.724425 -1.822662,0.952166 -0.546407,0.112221 -1.069573,0.05218 -0.521516,-0.052 -0.997333,-0.289255 -0.475818,-0.23725 -0.881832,-0.664699 l -0.01607,0.0033 0.953875,4.644465 z m 2.915536,-5.213053 q 0.739258,-0.151828 1.227473,-0.628942 0.488214,-0.477115 0.664404,-1.250243 0.176189,-0.773128 -0.0367,-1.809695 -0.214539,-1.044603 -0.681182,-1.685706 -0.466643,-0.641104 -1.103385,-0.887176 -0.636742,-0.246072 -1.375999,-0.09424 -0.78747,0.16173 -1.285155,0.674286 -0.497684,0.512557 -0.664188,1.29207 -0.166504,0.779513 0.03153,1.743762 0.196386,0.956213 0.656644,1.607002 0.460257,0.65079 1.119671,0.925703 0.659415,0.274913 1.446884,0.113183 z"
             style="font-family:Inter;-inkscape-font-specification:Inter"
             id="path5252" /><path
             d="m 49.868364,-75.032574 0.983695,12.183007 -1.390008,0.112234 -0.983695,-12.183007 z"
             style="font-family:Inter;-inkscape-font-specification:Inter"
             id="path5254" /><path
             d="m 57.684922,-62.75852 q -1.196813,-0.04493 -2.085176,-0.652908 -0.879858,-0.615865 -1.349932,-1.651417 -0.461876,-1.035245 -0.412327,-2.355018 0.04986,-1.327971 0.588364,-2.333866 0.546705,-1.005588 1.470265,-1.553747 0.931756,-0.547851 2.128569,-0.502918 1.20501,0.04524 2.084868,0.661105 0.879858,0.615865 1.341427,1.659307 0.469766,1.04375 0.419909,2.37172 -0.04955,1.319774 -0.595946,2.317164 -0.5382,0.997698 -1.461759,1.545857 -0.923252,0.539961 -2.128262,0.494721 z m 0.04739,-1.262392 q 0.819735,0.03078 1.416827,-0.349044 0.597092,-0.379819 0.935982,-1.097689 0.339197,-0.726066 0.37582,-1.701551 0.03724,-0.991879 -0.24687,-1.733138 -0.283802,-0.749456 -0.850425,-1.181174 -0.566624,-0.431719 -1.386359,-0.462494 -0.811538,-0.03047 -1.417135,0.357241 -0.597092,0.379819 -0.936289,1.105886 -0.339198,0.726067 -0.376436,1.717946 -0.03693,0.983682 0.247178,1.724941 0.284109,0.741259 0.851041,1.164779 0.566931,0.423521 1.386666,0.454297 z"
             style="font-family:Inter;-inkscape-font-specification:Inter"
             id="path5256" /><path
             d="m 64.50772,-62.351707 1.472099,-8.5365 1.309576,0.225834 -0.231409,1.341912 0.03234,0.0056 q 0.348741,-0.622445 0.927723,-0.938812 0.578981,-0.316366 1.379278,-0.178357 0.185928,0.03206 0.336732,0.07472 0.158888,0.04405 0.236938,0.07416 l -0.236986,1.374247 q -0.07666,-0.03819 -0.30551,-0.110954 -0.219376,-0.07945 -0.518477,-0.131031 -0.468861,-0.08085 -0.91069,0.06771 -0.441829,0.148561 -0.763804,0.567517 -0.321974,0.418956 -0.447437,1.146498 l -0.906121,5.254475 z"
             style="font-family:Inter;-inkscape-font-specification:Inter"
             id="path5258" /><path
             d="m 74.208055,-59.905665 q -1.213253,-0.380379 -1.900034,-1.206073 -0.678954,-0.82324 -0.828643,-1.936178 -0.147235,-1.120766 0.242959,-2.36533 0.395103,-1.260218 1.179334,-2.088951 0.78423,-0.828733 1.803832,-1.119444 1.022056,-0.298538 2.117898,0.04503 0.861019,0.269946 1.451672,0.799 0.59848,0.531509 0.910009,1.265345 0.311529,0.733836 0.319521,1.613219 0.01827,0.87401 -0.283575,1.836786 l -0.11534,0.367889 -6.794221,-2.130118 0.358292,-1.142807 6.050614,1.896984 -0.696561,0.220053 q 0.265038,-0.845364 0.153638,-1.55944 -0.101118,-0.719449 -0.543515,-1.227813 -0.439943,-0.516191 -1.18355,-0.749326 -0.73578,-0.230681 -1.391679,-0.05806 -0.645618,0.167251 -1.147213,0.697738 -0.491313,0.525114 -0.756351,1.370478 l -0.176691,0.563576 q -0.267492,0.853191 -0.184017,1.601497 0.0913,0.750759 0.537083,1.303168 0.448236,0.544582 1.254463,0.797349 0.587058,0.184054 1.089665,0.143904 0.505062,-0.04798 0.897748,-0.28593 0.400513,-0.235499 0.660725,-0.626743 l 1.330665,0.417189 q -0.404408,0.741491 -1.086499,1.189598 -0.679637,0.440281 -1.528769,0.543726 -0.841304,0.105899 -1.74146,-0.176316 z"
             style="font-family:Inter;-inkscape-font-specification:Inter"
             id="path5260" /><path
             d="m 80.477228,-57.777399 3.609932,-7.874471 1.208016,0.553797 -0.567471,1.237843 0.02983,0.01367 q 0.496566,-0.512329 1.137275,-0.669808 0.640708,-0.157479 1.37894,0.180953 0.171508,0.07862 0.306352,0.15849 0.142301,0.08328 0.210033,0.132383 l -0.581145,1.26767 q -0.06431,-0.05656 -0.266889,-0.185519 -0.1917,-0.133003 -0.467605,-0.259487 -0.432499,-0.198273 -0.897643,-0.167862 -0.465143,0.03041 -0.883704,0.352899 -0.418561,0.322487 -0.726226,0.993607 l -2.222023,4.846975 z"
             style="font-family:Inter;-inkscape-font-specification:Inter"
             id="path5262" /><path
             d="m 86.108686,-54.803396 q -0.371631,-0.209394 -0.491095,-0.615669 -0.10829,-0.409396 0.101104,-0.781026 0.213422,-0.378778 0.61567,-0.491095 0.409395,-0.108291 0.781026,0.101104 0.378777,0.213422 0.491095,0.61567 0.112317,0.402248 -0.101105,0.781026 -0.209394,0.371631 -0.615669,0.491095 -0.402249,0.112317 -0.781026,-0.101105 z"
             style="font-family:Inter;-inkscape-font-specification:Inter"
             id="path5264" /><path
             d="m 89.66592,-52.811898 4.811696,-7.203227 1.159611,0.774611 -4.811697,7.203226 z m 6.330147,-8.221096 q -0.327419,-0.218714 -0.404419,-0.605558 -0.077,-0.386844 0.141713,-0.714263 0.218714,-0.32742 0.605558,-0.40442 0.386844,-0.077 0.714263,0.141714 0.32742,0.218713 0.40442,0.605557 0.077,0.386844 -0.141714,0.714264 -0.218713,0.327419 -0.605557,0.404419 -0.386845,0.077 -0.714264,-0.141713 z"
             style="font-family:Inter;-inkscape-font-specification:Inter"
             id="path5266" /><path
             d="m 96.123878,-47.722538 q -0.909702,-0.778988 -1.227838,-1.807391 -0.306569,-1.029298 -0.03127,-2.132725 0.281525,-1.098091 1.140546,-2.101256 0.864356,-1.009396 1.911379,-1.462783 1.053253,-0.448052 2.117465,-0.303533 1.07044,0.149855 1.98015,0.928843 0.91593,0.784323 1.2225,1.813621 0.30657,1.029298 0.0197,2.13362 -0.28063,1.109658 -1.14499,2.119054 -0.85902,1.003165 -1.90694,1.444986 -1.041679,0.447156 -2.105894,0.302637 -1.058879,-0.15075 -1.974813,-0.935073 z m 0.821672,-0.959549 q 0.623084,0.533553 1.326915,0.607065 0.70383,0.07351 1.415465,-0.278283 0.71697,-0.358025 1.3519,-1.099495 0.6456,-0.753931 0.88369,-1.511226 0.24342,-0.763526 0.0678,-1.45389 -0.17561,-0.690365 -0.7987,-1.223918 -0.61685,-0.528218 -1.332246,-0.600835 -0.70383,-0.07351 -1.4208,0.284514 -0.71697,0.358025 -1.362569,1.111957 -0.640264,0.7477 -0.878355,1.504995 -0.23809,0.757295 -0.05714,1.441429 0.180949,0.684134 0.804032,1.217687 z"
             style="font-family:Inter;-inkscape-font-specification:Inter"
             id="path5268" /></g><g
           aria-label="40M ADA stake"
           id="text22970"
           style="font-size:16.8px;font-family:ROBOTO;-inkscape-font-specification:ROBOTO;text-align:center;letter-spacing:1.34783px;text-anchor:middle;fill:#fefeff;stroke:#ffffff;stroke-width:0.744;stroke-linecap:round;paint-order:stroke fill markers"><path
             d="m -3.0890071,45.518533 1.4539566,-1.302941 9.2788365,-1.089255 1.0565868,1.179049 -1.7960641,1.609515 -0.5857761,-0.653669 -6.30931664,0.752327 -0.01221812,0.01095 5.09679936,5.687537 -1.4600657,1.308416 z m 2.11205107,6.30247 2.40086123,-2.151495 0.6536696,-0.585776 6.047971,-5.419798 1.5821429,1.765519 -9.10250184,8.157069 z"
             style="font-weight:bold;font-family:Inter;-inkscape-font-specification:'Inter Bold'"
             id="path5271" /><path
             d="M 7.1162455,59.666884 Q 5.9233365,58.70248 5.5353899,57.40783 5.1589797,56.111958 5.5803444,54.638258 6.0080883,53.169715 7.2303549,51.657847 8.4577787,50.139599 9.8041264,49.413699 11.156853,48.692957 12.502825,48.78954 q 1.345972,0.09658 2.54526,1.066146 1.192909,0.964404 1.569319,2.260276 0.387947,1.29465 -0.04495,2.769572 -0.421365,1.4737 -1.648789,2.991948 -1.222266,1.511868 -2.574993,2.232611 -1.346348,0.725899 -2.6986989,0.624158 -1.3408146,-0.102963 -2.5337236,-1.067367 z m 1.2686818,-1.569281 q 0.6187817,0.500252 1.3902314,0.45937 0.7714503,-0.04088 1.6172563,-0.591272 0.845807,-0.550391 1.68128,-1.58382 0.840631,-1.039808 1.201619,-1.982149 0.360988,-0.942341 0.239351,-1.705237 -0.11648,-0.769275 -0.735262,-1.269528 -0.618781,-0.500252 -1.401768,-0.458148 -0.771449,0.04088 -1.617256,0.591272 -0.8394276,0.555548 -1.6800582,1.595356 -0.8354734,1.033429 -1.2028407,1.970613 -0.3609881,0.942341 -0.2393509,1.705237 0.1280164,0.768053 0.7467981,1.268306 z"
             style="font-weight:bold;font-family:Inter;-inkscape-font-specification:'Inter Bold'"
             id="path5273" /><path
             d="m 13.336241,64.306089 5.783307,-10.767854 3.24481,1.742755 -0.915922,5.970191 q -0.07403,0.397878 -0.190081,0.978033 -0.112175,0.572929 -0.244292,1.200326 -0.128236,0.620171 -0.262091,1.181455 -0.126628,0.565166 -0.214571,0.936946 l -0.556459,-0.298869 q 0.261384,-0.278626 0.655402,-0.70018 0.401244,-0.417672 0.847457,-0.86706 0.450095,-0.456615 0.858566,-0.870405 0.419579,-0.417136 0.70318,-0.702454 l 4.449801,-4.072178 3.24481,1.742755 -5.783307,10.767853 -2.182478,-1.172187 2.748041,-5.116537 q 0.194071,-0.361338 0.476342,-0.85222 0.282271,-0.490883 0.599475,-1.046806 0.321085,-0.563151 0.646052,-1.133528 0.328848,-0.577603 0.615536,-1.094048 l 0.26739,0.143613 q -0.472847,0.48164 -0.975673,0.984425 -0.495599,0.506666 -0.964565,0.98108 -0.468965,0.474413 -0.8769,0.869869 -0.396827,0.39211 -0.683773,0.666319 l -4.569182,4.138421 -1.806687,-0.970353 0.905221,-6.106298 q 0.07014,-0.390652 0.170674,-0.9419 0.104412,-0.558475 0.23372,-1.215315 0.136535,-0.652959 0.270797,-1.353696 0.141489,-0.696855 0.274679,-1.360922 l 0.317976,0.170782 q -0.272235,0.524207 -0.572176,1.117336 -0.296059,0.585903 -0.588238,1.164579 -0.288296,0.571449 -0.548887,1.073976 -0.253364,0.506408 -0.447435,0.867746 l -2.748041,5.116537 z"
             style="font-weight:bold;font-family:Inter;-inkscape-font-specification:'Inter Bold'"
             id="path5275" /><path
             d="M 31.848841,73.071934 38.839722,62.166567 42.000765,62.914999 43.35951,75.797283 40.6375,75.1528 40.139845,68.923281 q -0.07298,-1.222757 -0.154783,-2.515043 -0.07193,-1.298379 -0.130236,-2.939157 l 0.678507,0.160648 q -0.8038,1.436661 -1.458268,2.563051 -0.644596,1.120299 -1.274073,2.176738 l -3.301983,5.329889 z m 3.264411,-1.966818 0.464935,-1.963679 6.218315,1.472294 -0.464935,1.963678 z"
             style="font-weight:bold;font-family:Inter;-inkscape-font-specification:'Inter Bold'"
             id="path5277" /><path
             d="m 50.01881,76.31231 -3.151757,-0.201665 0.135665,-2.120274 3.020776,0.193285 q 1.227958,0.07857 2.059556,-0.328534 0.832123,-0.415291 1.28164,-1.274278 0.450042,-0.867173 0.532279,-2.152435 0.08224,-1.285262 -0.254137,-2.194534 -0.336376,-0.909273 -1.109308,-1.419043 -0.764746,-0.509247 -1.976331,-0.58677 l -3.10264,-0.198523 0.135666,-2.120273 3.258181,0.208475 q 1.83375,0.117332 3.128651,0.948198 1.295424,0.822678 1.936537,2.236423 0.641112,1.413745 0.52116,3.288427 -0.119951,1.874682 -0.936539,3.203376 -0.816064,1.320507 -2.214483,1.97904 -1.390234,0.659057 -3.264916,0.539105 z M 49.01465,64.000408 48.234179,76.19812 45.712772,76.036788 46.493244,63.839076 Z"
             style="font-weight:bold;font-family:Inter;-inkscape-font-specification:'Inter Bold'"
             id="path5279" /><path
             d="m 57.338986,76.691904 3.013577,-12.598325 3.231295,-0.333283 5.521612,11.717987 -2.782504,0.286994 -2.519578,-5.718942 q -0.471225,-1.130666 -0.973663,-2.324087 -0.495119,-1.202422 -1.090024,-2.732664 l 0.693586,-0.07154 q -0.286357,1.621137 -0.533783,2.900147 -0.240108,1.270008 -0.486948,2.474738 l -1.364504,6.119554 z m 2.435538,-2.931366 -0.207039,-2.00732 6.356513,-0.655624 0.207039,2.00732 z"
             style="font-weight:bold;font-family:Inter;-inkscape-font-specification:'Inter Bold'"
             id="path5281" /><path
             d="m 79.628247,72.764235 q -1.065884,0.356205 -2.007564,0.307641 -0.944279,-0.05634 -1.650213,-0.512354 -0.705934,-0.456012 -1.07754,-1.309171 l 2.256249,-0.75401 q 0.241644,0.516031 0.732054,0.689456 0.49041,0.173425 1.159505,-0.05018 0.637974,-0.213203 0.915261,-0.57399 0.285067,-0.363387 0.157665,-0.744616 -0.109202,-0.326767 -0.456889,-0.43545 -0.339907,-0.111283 -0.876818,-0.03564 l -1.532933,0.200921 q -1.276148,0.167 -2.101364,-0.23185 -0.825217,-0.39885 -1.142421,-1.348031 -0.260004,-0.778017 -0.03488,-1.501932 0.232906,-0.726515 0.904322,-1.305506 0.679196,-0.581591 1.752859,-0.940396 1.065884,-0.356205 1.973863,-0.279081 0.905379,0.06934 1.556851,0.543555 0.659253,0.471612 0.968598,1.319631 l -2.123987,0.70981 q -0.174182,-0.495331 -0.664612,-0.694697 -0.49043,-0.199365 -1.105064,0.006 -0.591293,0.197603 -0.840039,0.56615 -0.251346,0.360767 -0.129144,0.726435 0.106601,0.318987 0.438728,0.43287 0.332127,0.113883 0.832737,0.05902 l 1.657436,-0.21658 q 1.325429,-0.174821 2.093544,0.182568 0.773296,0.34701 1.0775,1.25729 0.273004,0.816918 0.0116,1.587553 -0.256227,0.760256 -0.966523,1.378187 -0.705117,0.607552 -1.77878,0.966357 z"
             style="font-weight:bold;font-family:Inter;-inkscape-font-specification:'Inter Bold'"
             id="path5283" /><path
             d="m 86.58872,60.255048 0.808158,1.713946 -5.141837,2.424474 -0.808158,-1.713946 z m -4.799029,-0.349124 2.188805,-1.032063 3.561493,7.553232 q 0.185421,0.393243 0.414703,0.475587 0.236702,0.07885 0.681883,-0.131065 0.185492,-0.08746 0.437761,-0.206413 0.259689,-0.122448 0.400662,-0.18892 l 0.808159,1.713945 q -0.200332,0.09446 -0.556476,0.262389 -0.356145,0.167929 -0.719709,0.339357 -1.291024,0.608742 -2.144756,0.394581 -0.846313,-0.217659 -1.3501,-1.286093 z"
             style="font-weight:bold;font-family:Inter;-inkscape-font-specification:'Inter Bold'"
             id="path5285" /><path
             d="m 95.02893,65.557161 q -0.729455,0.45802 -1.451798,0.572559 -0.722343,0.11454 -1.354207,-0.166745 -0.636226,-0.288233 -1.094245,-1.017688 -0.388226,-0.618299 -0.416332,-1.172133 -0.03247,-0.56078 0.206487,-1.059518 0.24154,-0.510047 0.672752,-0.964838 0.43816,-0.459153 0.977294,-0.865475 0.630257,-0.492594 0.986988,-0.803758 0.356731,-0.311163 0.456255,-0.538318 0.09952,-0.227154 -0.04879,-0.463359 l -0.03053,-0.04863 q -0.170122,-0.27094 -0.442513,-0.380805 -0.276754,-0.116812 -0.62185,-0.06479 -0.338148,0.04766 -0.713296,0.28321 -0.375149,0.235553 -0.592775,0.536863 -0.210679,0.296948 -0.242187,0.617001 -0.03151,0.320053 0.119549,0.622336 l -1.924372,1.208298 q -0.426837,-0.787778 -0.379814,-1.592192 0.05397,-0.808777 0.588908,-1.561163 0.530575,-0.759333 1.537918,-1.391836 0.750296,-0.471106 1.44986,-0.668203 0.695201,-0.204045 1.303156,-0.130529 0.614902,0.06916 1.115578,0.403754 0.500676,0.334599 0.871453,0.92511 l 3.123255,4.974188 -2.000791,1.256281 -0.649951,-1.035131 -0.02779,0.01745 q 0.03231,0.483392 -0.09113,0.919284 -0.123437,0.435891 -0.441718,0.839145 -0.322642,0.396307 -0.885364,0.749636 z m -0.324559,-1.781865 q 0.493251,-0.309708 0.734143,-0.712801 0.24784,-0.407456 0.246067,-0.842218 -0.0018,-0.434762 -0.250412,-0.830752 l -0.462381,-0.736402 q -0.05978,0.105338 -0.175135,0.245572 -0.119719,0.133287 -0.288068,0.297109 -0.17271,0.156874 -0.375795,0.342506 -0.203085,0.185632 -0.424426,0.373041 -0.31941,0.278044 -0.530089,0.574992 -0.215042,0.29 -0.259636,0.589212 -0.04896,0.292264 0.134252,0.584046 0.161397,0.257046 0.418117,0.357378 0.25672,0.100333 0.574836,0.0362 0.318115,-0.06414 0.658527,-0.277879 z"
             style="font-weight:bold;font-family:Inter;-inkscape-font-specification:'Inter Bold'"
             id="path5287" /><path
             d="m 101.67457,57.679166 -1.831483,-2.189724 0.195063,-0.16315 0.20194,-4.489365 2.17714,-1.820962 -0.21942,5.862145 -0.42787,0.357876 z m -0.0801,3.318056 -7.841716,-9.375544 1.856232,-1.552555 7.841714,9.375545 z m 4.34799,-3.63666 -4.52257,-1.136657 0.14811,-2.316188 6.5453,1.637146 z"
             style="font-weight:bold;font-family:Inter;-inkscape-font-specification:'Inter Bold'"
             id="path5289" /><path
             d="m 112.11654,51.502357 q -0.88287,0.971183 -1.9644,1.307244 -1.08208,0.324474 -2.205,0.03534 -1.1174,-0.2952 -2.08858,-1.17807 -0.98333,-0.893907 -1.37181,-1.978744 -0.38903,-1.096425 -0.1744,-2.198376 0.21464,-1.101952 1.04785,-2.018505 0.6456,-0.710178 1.4126,-1.0661 0.76093,-0.36144 1.59084,-0.371935 0.82384,-0.01601 1.63499,0.311195 0.81667,0.321138 1.55113,0.988809 l 0.47952,0.435917 -5.14824,5.66321 -1.14114,-1.037373 4.36469,-4.801285 -0.46074,1.055603 q -0.48559,-0.441435 -0.99766,-0.585449 -0.51208,-0.144013 -0.99821,0.01271 -0.48669,0.14513 -0.89502,0.594302 -0.40281,0.443102 -0.50102,0.94138 -0.10429,0.492761 0.0877,0.988828 0.19203,0.496068 0.67762,0.937503 l 0.77695,0.706296 q 0.49773,0.452471 1.03408,0.618556 0.53581,0.154498 1.05119,0.0022 0.50931,-0.157822 0.94522,-0.637343 0.32005,-0.352054 0.46572,-0.707417 0.14512,-0.36695 0.12856,-0.714585 -0.0171,-0.359222 -0.19425,-0.664367 l 1.48433,-1.632801 q 0.5325,0.694712 0.63183,1.56104 0.0993,0.866327 -0.20635,1.763561 -0.31175,0.891716 -1.01805,1.668662 z"
             style="font-weight:bold;font-family:Inter;-inkscape-font-specification:'Inter Bold'"
             id="path5291" /></g></g><g
         style="fill:#000000"
         id="g23026"
         transform="matrix(0.20144581,0,0,0.20144581,-761.77363,-24.795681)"
         inkscape:label="Middlecoins"><g
           id="g23024">
	<g
   id="g23022"
   transform="translate(-70.464283)">
		
		
		<g
   id="g22980"
   inkscape:label="Left"><path
     d="m 117.4607,223.07606 c 9.4539,0 18.592,-0.61066 27.23922,-1.74737 v -94.78105 c -8.64639,-1.13587 -17.78532,-1.74653 -27.23922,-1.74653 -53.980023,0 -97.739685,19.84681 -97.739685,44.33011 v 9.61389 c 0,24.48246 43.759662,44.33095 97.739685,44.33095 z"
     id="path22974"
     style="fill:#e4003a;fill-opacity:1;stroke-width:0.838335;stroke-dasharray:none" /><path
     d="m 117.4607,272.56703 c 9.4539,0 18.592,-0.61066 27.23922,-1.74569 v -27.78203 c -8.6489,1.13588 -17.78281,1.75491 -27.23922,1.75491 -47.118703,0 -86.446275,-15.12322 -95.684054,-35.25065 -1.345291,2.93183 -2.055631,5.96753 -2.055631,9.07946 v 9.61389 c 0,24.4833 43.759662,44.33011 97.739685,44.33011 z"
     id="path22976"
     style="fill:#ffffff;fill-opacity:1;stroke-width:0.838335;stroke-dasharray:none" /><path
     d="m 144.69908,294.69146 v -2.1595 c -8.6489,1.13587 -17.78281,1.75491 -27.23922,1.75491 -47.1187,0 -86.446273,-15.12322 -95.684051,-35.25065 -1.345292,2.93099 -2.055632,5.96669 -2.055632,9.07862 v 9.61389 c 0,24.48413 43.759662,44.33095 97.739683,44.33095 10.795,0 21.17787,-0.79578 30.88726,-2.2617 -2.40662,-4.92296 -3.64804,-10.11481 -3.64804,-15.49347 z"
     id="path22978"
     style="fill:#ffffff;fill-opacity:1;stroke-width:0.838335;stroke-dasharray:none" /></g>
		
		
		
		
		<g
   id="g23012"
   inkscape:label="Middle"><path
     d="m 258.38792,-0.45965459 c -53.98002,0 -97.73968,19.84681559 -97.73968,44.33011159 v 9.613895 c 0,24.483299 43.75966,44.330125 97.73968,44.330125 53.97919,0 97.73969,-19.846826 97.73969,-44.330125 v -9.613895 c 0,-24.483296 -43.7605,-44.33011159 -97.73969,-44.33011159 z"
     id="path22982"
     style="fill:#e4003a;fill-opacity:1;stroke-width:0.838335;stroke-dasharray:none" /><path
     d="m 258.38792,169.71423 c -47.1187,0 -86.44627,-15.12238 -95.68405,-35.25065 -1.34529,2.93099 -2.05563,5.9667 -2.05563,9.07946 v 9.61389 c 0,24.4833 43.75966,44.33011 97.73968,44.33011 53.97919,0 97.73969,-19.84681 97.73969,-44.33011 v -9.61389 c 0,-3.11276 -0.71034,-6.14847 -2.05563,-9.07946 -9.23778,20.12827 -48.56535,35.25065 -95.68406,35.25065 z"
     id="path22984"
     style="fill:#ffffff;fill-opacity:1;stroke-width:0.838335;stroke-dasharray:none" /><path
     d="m 258.38792,219.20688 c -47.1187,0 -86.44627,-15.12322 -95.68405,-35.25065 -1.34529,2.93099 -2.05563,5.96669 -2.05563,9.07946 v 9.61389 c 0,24.48413 43.75966,44.33095 97.73968,44.33095 53.97919,0 97.73969,-19.84682 97.73969,-44.33095 v -9.61389 c 0,-3.11277 -0.71034,-6.14847 -2.05563,-9.07946 -9.23778,20.12827 -48.56535,35.25065 -95.68406,35.25065 z"
     id="path22986"
     style="fill:#ffffff;fill-opacity:1;stroke-width:0.838335;stroke-dasharray:none" /><path
     d="m 258.38792,271.37084 c -47.1187,0 -86.44627,-15.12321 -95.68405,-35.25065 -1.34529,2.93183 -2.05563,5.9667 -2.05563,9.07862 v 9.61473 c 0,24.4833 43.75966,44.33011 97.73968,44.33011 53.97919,0 97.73969,-19.84681 97.73969,-44.33011 v -9.61473 c 0,-3.11192 -0.71034,-6.14846 -2.05563,-9.07862 -9.23778,20.1266 -48.56535,35.25065 -95.68406,35.25065 z"
     id="path22988"
     style="fill:#ffffff;fill-opacity:1;stroke-width:0.838335;stroke-dasharray:none" /><path
     d="m 258.38792,320.86265 c -47.1187,0 -86.44627,-15.12238 -95.68405,-35.24981 -1.34529,2.93183 -2.05563,5.96837 -2.05563,9.07862 v 9.61389 c 0,24.4833 43.75966,44.33011 97.73968,44.33011 53.97919,0 97.73969,-19.84681 97.73969,-44.33011 v -9.61473 c 0,-3.11193 -0.71034,-6.14846 -2.05563,-9.07862 -9.23778,20.12744 -48.56535,35.25065 -95.68406,35.25065 z"
     id="path22990"
     style="fill:#ffffff;fill-opacity:1;stroke-width:0.838335;stroke-dasharray:none" /><g
     transform="matrix(10.303711,0,0,10.303711,161.70322,-61.147785)"
     id="g23010"
     inkscape:label="Logo"
     style="fill:#000000">
<g
   id="g23008"
   transform="matrix(0.6933596,0,0,0.6933596,0.97298999,0.28937229)"
   inkscape:label="Logo"
   style="display:inline">
		<g
   transform="translate(0.91990781,-0.8)"
   id="g22994"
   inkscape:label="Circle"
   style="display:none">
<path
   style="opacity:1;fill:#e4003a;fill-opacity:1;fill-rule:nonzero;stroke:none;stroke-width:1;stroke-linecap:butt;stroke-linejoin:miter;stroke-miterlimit:4;stroke-dasharray:none;stroke-dashoffset:0"
   d="m 0,7.39996 a 7.6,7.6 0 1 1 7.6,-7.6 7.6,7.6 0 0 1 -7.6,7.6 z"
   stroke-linecap="round"
   id="path22992" />
</g>
		<g
   transform="translate(0.81,-1.08)"
   id="g22998"
   style="display:none"
   inkscape:label="undefined">
<path
   style="opacity:1;fill:#ffffff;fill-rule:nonzero;stroke:none;stroke-width:1;stroke-linecap:butt;stroke-linejoin:miter;stroke-miterlimit:4;stroke-dasharray:none;stroke-dashoffset:0"
   transform="translate(-10.81,-11.92)"
   d="m 8.46,13.2 h -0.8 c -0.3,0 -0.4,-0.1 -0.4,-0.4 a 0.43,0.43 0 0 1 0.4,-0.4 h 0.9 a 0.35,0.35 0 0 0 0.2,-0.1 1.42,1.42 0 0 0 0.2,-0.6 h -0.7 a 0.4,0.4 0 1 1 0,-0.8 h 0.8 c 0.1,0 0.2,0 0.2,-0.1 a 23.29,23.29 0 0 0 1.1,-2.8 0.1,0.1 0 0 1 0.1,-0.1 c 0.1,-0.2 0.2,-0.3 0.4,-0.3 0.2,0 0.3,0.1 0.4,0.3 0.2,0.6 0.4,1.1 0.6,1.7 0.2,0.4 0.3,0.8 0.5,1.2 0,0.1 0.1,0.1 0.2,0.1 h 0.8 a 0.37,0.37 0 0 1 0.4,0.4 0.43,0.43 0 0 1 -0.4,0.4 h -0.7 a 4.88,4.88 0 0 0 0.3,0.7 0.35,0.35 0 0 0 0.2,0.1 h 0.9 c 0.1,0 0.3,0.1 0.3,0.2 a 0.6,0.6 0 0 1 -0.1,0.4 0.37,0.37 0 0 1 -0.3,0.1 h -0.8 a 3.55,3.55 0 0 0 0.4,0.9 l 0.6,1.5 c 0.1,0.3 0.1,0.5 -0.2,0.6 -0.3,0.1 -0.4,0 -0.5,-0.3 -0.3,-0.9 -0.7,-1.7 -1,-2.6 -0.1,-0.2 -0.1,-0.2 -0.3,-0.2 h -2.9 c -0.2,0 -0.2,0 -0.3,0.2 a 18.61,18.61 0 0 1 -1,2.5 c -0.1,0.2 -0.2,0.3 -0.4,0.3 a 0.27,0.27 0 0 1 -0.3,-0.3 0.37,0.37 0 0 1 0.1,-0.3 c 0.3,-0.7 0.5,-1.4 0.8,-2.1 0.2,0 0.2,-0.1 0.3,-0.2 z m 1,-0.8 h 2.7 c -0.1,-0.2 -0.2,-0.5 -0.3,-0.7 a 0.35,0.35 0 0 0 -0.2,-0.1 h -1.8 c -0.1,0 -0.1,0 -0.2,0.1 a 1.45,1.45 0 0 1 -0.2,0.7 z m 2.2,-1.5 c -0.3,-0.7 -0.5,-1.3 -0.8,-2 -0.3,0.7 -0.5,1.3 -0.8,2 z"
   stroke-linecap="round"
   id="path22996" />
</g>
<path
   style="opacity:1;fill:#050001;fill-opacity:1;stroke:#ffffff;stroke-width:0.791434;stroke-linecap:round;stroke-miterlimit:3.7;stroke-dasharray:none;stroke-opacity:1;paint-order:stroke fill markers"
   d="M 8.1350941,16.876025 12.086609,10.362006"
   id="path23000"
   sodipodi:nodetypes="cc" /><path
   style="opacity:1;fill:#050001;fill-opacity:1;stroke:#ffffff;stroke-width:0.791434;stroke-linecap:round;stroke-miterlimit:3.7;stroke-dasharray:none;stroke-opacity:1"
   d="M 16.144951,16.87452 12.196567,10.360599"
   id="path23002"
   sodipodi:nodetypes="cc" /><path
   style="opacity:1;fill:#050001;fill-opacity:1;stroke:#ffffff;stroke-width:0.791434;stroke-linecap:round;stroke-miterlimit:3.7;stroke-dasharray:none;stroke-opacity:1"
   d="m 9.0180552,13.152778 6.2251588,-0.01311"
   id="path23004" /><path
   style="fill:#050001;fill-opacity:1;stroke:#ffffff;stroke-width:0.791434;stroke-linecap:round;stroke-miterlimit:3.7;stroke-dasharray:none;stroke-opacity:1"
   d="m 8.2176918,14.418566 7.8247822,-0.01051"
   id="path23006" /></g>
</g><path
     d="m 258.38792,119.53347 c -47.1187,0 -86.44627,-15.12238 -95.68405,-35.250656 -1.34529,2.93099 -2.05563,5.9667 -2.05563,9.079463 v 9.613893 c 0,24.4833 43.75966,44.33011 97.73968,44.33011 53.97919,0 97.73969,-19.84681 97.73969,-44.33011 v -9.613893 c 0,-3.112763 -0.71034,-6.148473 -2.05563,-9.079463 -9.23778,20.128276 -48.56535,35.250656 -95.68406,35.250656 z"
     id="path3505"
     style="fill:#ffffff;fill-opacity:1;stroke-width:0.838335;stroke-dasharray:none" /></g>
	<g
   id="g23020"
   inkscape:label="Right"
   transform="translate(0,-10.01765)"><path
     d="m 399.31515,233.09371 c -9.4539,0 -18.592,-0.61066 -27.23922,-1.74737 v -94.78105 c 8.64639,-1.13587 17.78532,-1.74653 27.23922,-1.74653 53.98002,0 97.73968,19.84681 97.73968,44.33011 v 9.61389 c 0,24.48246 -43.75966,44.33095 -97.73968,44.33095 z"
     id="path23014"
     style="fill:#e4003a;fill-opacity:1;stroke-width:0.838335;stroke-dasharray:none" /><path
     d="m 399.31515,282.58468 c -9.4539,0 -18.592,-0.61066 -27.23922,-1.74569 v -27.78203 c 8.6489,1.13588 17.78281,1.75491 27.23922,1.75491 47.1187,0 86.44627,-15.12322 95.68405,-35.25065 1.34529,2.93183 2.05563,5.96753 2.05563,9.07946 v 9.61389 c 0,24.4833 -43.75966,44.33011 -97.73968,44.33011 z"
     id="path23016"
     style="fill:#ffffff;fill-opacity:1;stroke-width:0.838335;stroke-dasharray:none" /><path
     d="m 372.07677,304.70911 v -2.1595 c 8.6489,1.13587 17.78281,1.75491 27.23922,1.75491 47.1187,0 86.44627,-15.12322 95.68405,-35.25065 1.34529,2.93099 2.05563,5.96669 2.05563,9.07862 v 9.61389 c 0,24.48413 -43.75966,44.33095 -97.73968,44.33095 -10.795,0 -21.17787,-0.79578 -30.88726,-2.2617 2.40662,-4.92296 3.64804,-10.11481 3.64804,-15.49347 z"
     id="path23018"
     style="fill:#ffffff;fill-opacity:1;stroke-width:0.838335;stroke-dasharray:none" /></g></g>
</g></g></g></g></svg>
