<?xml version="1.0" encoding="UTF-8" standalone="no"?>
<svg
   inkscape:version="1.2.2 (b0a84865, 2022-12-01)"
   xml:space="preserve"
   sodipodi:docname="final_awards_pre-text-to-path.svg"
   id="svg134"
   version="1.1"
   viewBox="-120 -120 300 299.99995"
   height="249.99995"
   width="250"
   inkscape:export-filename="0.svg"
   inkscape:export-xdpi="96"
   inkscape:export-ydpi="96"
   xmlns:inkscape="http://www.inkscape.org/namespaces/inkscape"
   xmlns:sodipodi="http://sodipodi.sourceforge.net/DTD/sodipodi-0.dtd"
   xmlns="http://www.w3.org/2000/svg"
   xmlns:svg="http://www.w3.org/2000/svg"><defs
     id="defs138" /><sodipodi:namedview
     id="namedview136"
     pagecolor="#ffffff"
     bordercolor="#000000"
     borderopacity="0.25"
     inkscape:showpageshadow="2"
     inkscape:pageopacity="0.0"
     inkscape:pagecheckerboard="0"
     inkscape:deskcolor="#d1d1d1"
     showgrid="false"
     inkscape:zoom="0.35355339"
     inkscape:cx="1480.6816"
     inkscape:cy="663.26616"
     inkscape:window-width="1425"
     inkscape:window-height="949"
     inkscape:window-x="0"
     inkscape:window-y="25"
     inkscape:window-maximized="1"
     inkscape:current-layer="g19337"
     showguides="true" /><style
     type="text/css"
     id="style8571">
	.st0{fill:#ffffff;}
</style><g
     id="g14593"
     inkscape:label="Staked"
     transform="translate(-2233.3734,-407.04369)"><g
       id="g23224"
       inkscape:label="50m"
       transform="matrix(1.4245145,0,0,1.4245145,3294.6039,422.4088)"
       inkscape:export-filename="./g8306.svg"
       inkscape:export-xdpi="96"
       inkscape:export-ydpi="96"><g
         id="g23258"
         inkscape:label="Borders"
         transform="translate(-723.9172,-241.7264)"><path
           fill="none"
           stroke="black"
           stroke-width="2"
           d="m 100,252 q 9.47,10.78 -1.919998,19.51 7.179998,12.42 -5.69,18.76 4.62,13.58 -9.24,17.29 1.88,14.22 -12.44,15.15 -0.93,14.32 -15.15,12.44 -3.71,13.86 -17.29,9.24 -6.34,12.87 -18.76,5.69 Q 10.780002,361.47 1.5258789e-6,352 -10.779998,361.47 -19.509998,350.08 q -12.42,7.18 -18.76,-5.69 -13.58,4.62 -17.29,-9.24 -14.22,1.88 -15.15,-12.44 -14.32,-0.93 -12.44,-15.15 -13.86,-3.71 -9.24,-17.29 -12.870002,-6.34 -5.69,-18.76 -11.390002,-8.73 -1.92,-19.51 -9.470002,-10.78 1.92,-19.51 -7.180002,-12.42 5.69,-18.76 -4.62,-13.58 9.24,-17.29 -1.88,-14.22 12.44,-15.15 0.93,-14.32 15.15,-12.44 3.71,-13.86 17.29,-9.24 6.34,-12.87 18.76,-5.69 Q -10.779998,142.53 1.5258789e-6,152 10.780002,142.53 19.510002,153.92 q 12.42,-7.18 18.76,5.69 13.58,-4.62 17.29,9.24 14.22,-1.88 15.15,12.44 14.32,0.93 12.44,15.15 13.86,3.71 9.24,17.29 12.869998,6.34 5.69,18.76 Q 109.47,241.22 100,252 Z"
           id="path23226"
           style="fill:#04344d;fill-opacity:1;stroke:#04344d;stroke-opacity:1" /><path
           style="fill:none;fill-opacity:1;stroke:#efa900;stroke-width:3.6;stroke-linecap:round;stroke-dasharray:none;stroke-opacity:1;paint-order:stroke fill markers"
           id="path23228"
           sodipodi:type="arc"
           sodipodi:cx="0.0089565562"
           sodipodi:cy="251.99123"
           sodipodi:rx="92.730682"
           sodipodi:ry="92.730682"
           sodipodi:start="0.019634549"
           sodipodi:end="4.6929609"
           sodipodi:open="true"
           sodipodi:arc-type="arc"
           d="M 92.721765,253.81183 A 92.730682,92.730682 0 0 1 -0.60432934,344.71988 92.730682,92.730682 0 0 1 -92.719822,252.58537 92.730682,92.730682 0 0 1 -1.7925093,159.27804" /><path
           style="fill:none;fill-opacity:1;stroke:#efa900;stroke-width:2.22;stroke-linecap:round;stroke-dasharray:none;stroke-opacity:1;paint-order:stroke fill markers"
           id="path23230"
           sodipodi:type="arc"
           sodipodi:cx="0.003594999"
           sodipodi:cy="251.99646"
           sodipodi:rx="86.865753"
           sodipodi:ry="86.865753"
           sodipodi:start="0.012850983"
           sodipodi:end="4.6996412"
           sodipodi:arc-type="arc"
           d="M 86.862175,253.11274 A 86.865753,86.865753 0 0 1 -0.37149553,338.8614 86.865753,86.865753 0 0 1 -86.861387,252.36259 86.865753,86.865753 0 0 1 -1.1037206,165.13776"
           sodipodi:open="true" /><g
           id="g23256"
           inkscape:label="Circles"
           transform="translate(-514.7999,251.99126)"><g
             id="g23234"
             transform="rotate(7.5,5558.9497,3252.8791)"
             inkscape:transform-center-x="-11.777454"
             inkscape:transform-center-y="-88.637902"><path
               sodipodi:type="star"
               style="fill:#efa900;fill-opacity:1;stroke:#efa900;stroke-width:2.22;stroke-linecap:round;stroke-opacity:1;paint-order:stroke fill markers"
               id="path23232"
               inkscape:flatsided="false"
               sodipodi:sides="5"
               sodipodi:cx="396.99625"
               sodipodi:cy="-372.60107"
               sodipodi:r1="3.6169088"
               sodipodi:r2="1.6637779"
               sodipodi:arg1="0.95906936"
               sodipodi:arg2="1.5873879"
               inkscape:rounded="0"
               inkscape:randomized="0"
               d="m 399.07337,-369.64006 -2.10473,-1.29747 -2.14661,1.22692 0.58356,-2.40265 -1.83021,-1.66242 2.46539,-0.18746 1.01548,-2.25435 0.94014,2.2868 2.45781,0.26915 -1.88435,1.60078 z"
               transform="matrix(1.0133273,0,0,1.0133273,-268.95197,974.58915)"
               inkscape:transform-center-x="1.0196929"
               inkscape:transform-center-y="-89.532179"
               inkscape:label="path5969" /></g><g
             id="g23238"
             transform="rotate(22.5,2049.0208,1301.9125)"
             inkscape:transform-center-x="-34.354027"
             inkscape:transform-center-y="-82.323429"><path
               sodipodi:type="star"
               style="fill:#efa900;fill-opacity:1;stroke:#efa900;stroke-width:2.22;stroke-linecap:round;stroke-opacity:1;paint-order:stroke fill markers"
               id="path23236"
               inkscape:flatsided="false"
               sodipodi:sides="5"
               sodipodi:cx="396.99625"
               sodipodi:cy="-372.60107"
               sodipodi:r1="3.6169088"
               sodipodi:r2="1.6637779"
               sodipodi:arg1="0.95906936"
               sodipodi:arg2="1.5873879"
               inkscape:rounded="0"
               inkscape:randomized="0"
               d="m 399.07337,-369.64006 -2.10473,-1.29747 -2.14661,1.22692 0.58356,-2.40265 -1.83021,-1.66242 2.46539,-0.18746 1.01548,-2.25435 0.94014,2.2868 2.45781,0.26915 -1.88435,1.60078 z"
               transform="matrix(1.0133273,0,0,1.0133273,-268.95197,974.58915)"
               inkscape:transform-center-x="1.0196929"
               inkscape:transform-center-y="-89.532179"
               inkscape:label="path5969" /></g><g
             id="g23242"
             transform="rotate(37.5,1334.8573,904.95028)"
             inkscape:transform-center-x="-54.232035"
             inkscape:transform-center-y="-70.490863"><path
               sodipodi:type="star"
               style="fill:#efa900;fill-opacity:1;stroke:#efa900;stroke-width:2.22;stroke-linecap:round;stroke-opacity:1;paint-order:stroke fill markers"
               id="path23240"
               inkscape:flatsided="false"
               sodipodi:sides="5"
               sodipodi:cx="396.99625"
               sodipodi:cy="-372.60107"
               sodipodi:r1="3.6169088"
               sodipodi:r2="1.6637779"
               sodipodi:arg1="0.95906936"
               sodipodi:arg2="1.5873879"
               inkscape:rounded="0"
               inkscape:randomized="0"
               d="m 399.07337,-369.64006 -2.10473,-1.29747 -2.14661,1.22692 0.58356,-2.40265 -1.83021,-1.66242 2.46539,-0.18746 1.01548,-2.25435 0.94014,2.2868 2.45781,0.26915 -1.88435,1.60078 z"
               transform="matrix(1.0133273,0,0,1.0133273,-268.95197,974.58915)"
               inkscape:transform-center-x="1.0196929"
               inkscape:transform-center-y="-89.532179"
               inkscape:label="path5969" /></g><g
             id="g23246"
             transform="rotate(52.5,1019.845,729.85313)"
             inkscape:transform-center-x="-70.414229"
             inkscape:transform-center-y="-54.322566"><path
               sodipodi:type="star"
               style="fill:#efa900;fill-opacity:1;stroke:#efa900;stroke-width:2.22;stroke-linecap:round;stroke-opacity:1;paint-order:stroke fill markers"
               id="path23244"
               inkscape:flatsided="false"
               sodipodi:sides="5"
               sodipodi:cx="396.99625"
               sodipodi:cy="-372.60107"
               sodipodi:r1="3.6169088"
               sodipodi:r2="1.6637779"
               sodipodi:arg1="0.95906936"
               sodipodi:arg2="1.5873879"
               inkscape:rounded="0"
               inkscape:randomized="0"
               d="m 399.07337,-369.64006 -2.10473,-1.29747 -2.14661,1.22692 0.58356,-2.40265 -1.83021,-1.66242 2.46539,-0.18746 1.01548,-2.25435 0.94014,2.2868 2.45781,0.26915 -1.88435,1.60078 z"
               transform="matrix(1.0133273,0,0,1.0133273,-268.95197,974.58915)"
               inkscape:transform-center-x="1.0196929"
               inkscape:transform-center-y="-89.532179"
               inkscape:label="path5969" /></g><g
             id="g23250"
             transform="rotate(67.5,837.58649,628.54617)"
             inkscape:transform-center-x="-82.3354"
             inkscape:transform-center-y="-34.452242"><path
               sodipodi:type="star"
               style="fill:#efa900;fill-opacity:1;stroke:#efa900;stroke-width:2.22;stroke-linecap:round;stroke-opacity:1;paint-order:stroke fill markers"
               id="path23248"
               inkscape:flatsided="false"
               sodipodi:sides="5"
               sodipodi:cx="396.99625"
               sodipodi:cy="-372.60107"
               sodipodi:r1="3.6169088"
               sodipodi:r2="1.6637779"
               sodipodi:arg1="0.95906936"
               sodipodi:arg2="1.5873879"
               inkscape:rounded="0"
               inkscape:randomized="0"
               d="m 399.07337,-369.64006 -2.10473,-1.29747 -2.14661,1.22692 0.58356,-2.40265 -1.83021,-1.66242 2.46539,-0.18746 1.01548,-2.25435 0.94014,2.2868 2.45781,0.26915 -1.88435,1.60078 z"
               transform="matrix(1.0133273,0,0,1.0133273,-268.95197,974.58915)"
               inkscape:transform-center-x="1.0196929"
               inkscape:transform-center-y="-89.532179"
               inkscape:label="path5969" /></g><g
             id="g23254"
             transform="rotate(82.5,715.32761,560.58954)"
             inkscape:transform-center-x="-88.666206"
             inkscape:transform-center-y="-11.806367"><path
               sodipodi:type="star"
               style="fill:#efa900;fill-opacity:1;stroke:#efa900;stroke-width:2.22;stroke-linecap:round;stroke-opacity:1;paint-order:stroke fill markers"
               id="path23252"
               inkscape:flatsided="false"
               sodipodi:sides="5"
               sodipodi:cx="396.99625"
               sodipodi:cy="-372.60107"
               sodipodi:r1="3.6169088"
               sodipodi:r2="1.6637779"
               sodipodi:arg1="0.95906936"
               sodipodi:arg2="1.5873879"
               inkscape:rounded="0"
               inkscape:randomized="0"
               d="m 399.07337,-369.64006 -2.10473,-1.29747 -2.14661,1.22692 0.58356,-2.40265 -1.83021,-1.66242 2.46539,-0.18746 1.01548,-2.25435 0.94014,2.2868 2.45781,0.26915 -1.88435,1.60078 z"
               transform="matrix(1.0133273,0,0,1.0133273,-268.95197,974.58915)"
               inkscape:transform-center-x="1.0196929"
               inkscape:transform-center-y="-89.532179"
               inkscape:label="path5969" /></g></g></g><g
         id="g23168"
         inkscape:label="Texts"
         transform="translate(-779.21292,10.019643)"><circle
           style="fill:none;fill-opacity:1;stroke:none;stroke-width:3.01836;stroke-linecap:round;stroke-opacity:1;paint-order:stroke fill markers"
           id="circle23152"
           cx="-1.4210855e-14"
           cy="-55.295727"
           transform="matrix(0,-1,-1,0,0,0)"
           r="76.490822"
           inkscape:label="Bottom-text-path" /><circle
           style="fill:none;fill-opacity:1;stroke:none;stroke-width:2.48601;stroke-linecap:round;stroke-opacity:1;paint-order:stroke fill markers"
           id="circle23154"
           cx="1.4210855e-14"
           cy="-55.295727"
           transform="rotate(90)"
           inkscape:label="Top-text-path"
           r="63" /><g
           aria-label="Cexplorer.io"
           id="text23162"
           style="font-size:16.8px;font-family:ROBOTO;-inkscape-font-specification:ROBOTO;text-align:center;letter-spacing:1.2px;text-anchor:middle;fill:#fefeff;stroke:#ffffff;stroke-width:0.744;stroke-linecap:round;paint-order:stroke fill markers"><path
             d="m 14.858755,-48.055292 q -1.276057,1.082623 -2.776689,1.355314 -1.499685,0.261129 -2.987961,-0.32652 -1.4873279,-0.599212 -2.7397738,-2.075435 -1.2630598,-1.488732 -1.6119449,-3.053813 -0.3426299,-1.570388 0.1646503,-3.001236 0.5135355,-1.436154 1.7895923,-2.518777 0.8194286,-0.695214 1.7269808,-1.045643 0.9075521,-0.350429 1.8275993,-0.356455 0.926303,-0.01133 1.806343,0.328555 0.880039,0.33989 1.656004,1.026262 l -1.945361,1.650469 q -0.431578,-0.343851 -0.889889,-0.503656 -0.463618,-0.16606 -0.92459,-0.151485 -0.466279,0.0083 -0.9183498,0.198225 -0.4511226,0.178342 -0.8702197,0.533909 -0.7944079,0.673986 -1.0336487,1.53318 -0.2329856,0.853886 0.061147,1.809201 0.2888255,0.94906 1.1007925,1.906103 0.80666,0.950787 1.6897276,1.395684 0.8893231,0.43959 1.7760141,0.343529 0.886692,-0.09606 1.6811,-0.770048 0.419097,-0.355567 0.673861,-0.765351 0.254765,-0.409783 0.338942,-0.868477 0.08418,-0.458693 0.0012,-0.936917 -0.083,-0.478223 -0.334126,-0.964414 l 1.939106,-1.645162 q 0.545472,0.871168 0.737441,1.794824 0.19197,0.923657 0.02987,1.835737 -0.162098,0.91208 -0.655706,1.750413 -0.49266,0.826771 -1.312089,1.521984 z"
             style="font-weight:bold;font-family:Inter;-inkscape-font-specification:Inter"
             id="path5294" /><path
             d="m 24.407684,-54.696185 q -1.103047,0.632425 -2.175545,0.575976 -1.065382,-0.06053 -1.984075,-0.706316 -0.922773,-0.652904 -1.571518,-1.784416 -0.656906,-1.145745 -0.732824,-2.284189 -0.07592,-1.138443 0.402965,-2.084367 0.474803,-0.95304 1.471103,-1.524262 0.782807,-0.448818 1.572259,-0.523215 0.796568,-0.07848 1.546835,0.191089 0.750267,0.269565 1.401285,0.860796 0.654055,0.580033 1.155915,1.455354 l 0.191767,0.334472 -6.177059,3.541579 -0.595704,-1.038998 5.500999,-3.153964 -0.311411,0.660789 q -0.440657,-0.768574 -1.04053,-1.171645 -0.596838,-0.414268 -1.270434,-0.434664 -0.677677,-0.02751 -1.353738,0.360104 -0.668944,0.383535 -0.987567,0.982269 -0.315587,0.587538 -0.266715,1.315978 0.05191,0.717244 0.492566,1.485818 l 0.293772,0.512383 q 0.444737,0.775691 1.050778,1.222505 0.613158,0.442733 1.321389,0.49055 0.70415,0.0407 1.437142,-0.379556 0.533732,-0.306012 0.845525,-0.702259 0.307712,-0.403363 0.399653,-0.853219 0.09906,-0.453936 -0.01149,-0.910622 l 1.209793,-0.693627 q 0.269767,0.800362 0.135605,1.605377 -0.138243,0.797899 -0.638857,1.49152 -0.493497,0.689542 -1.311886,1.15876 z"
             style="font-family:Inter;-inkscape-font-specification:Inter"
             id="path5296" /><path
             d="m 29.024949,-57.419381 1.614151,-5.923659 0.376633,1.006479 -4.912407,-3.239941 1.532131,-0.586708 1.70565,1.17392 q 0.511287,0.348818 1.007253,0.703503 0.493033,0.347025 0.999593,0.706438 l -0.643494,0.246417 q 0.144595,-0.608763 0.279735,-1.196338 0.139868,-0.59817 0.287397,-1.199272 l 0.500618,-2.018779 1.509149,-0.577907 -1.49956,5.695313 -0.387227,-1.011206 5.122496,3.352738 -1.524469,0.583774 -1.99104,-1.345722 q -0.497759,-0.33643 -0.977264,-0.671067 -0.479505,-0.334637 -0.972538,-0.681662 l 0.651156,-0.249351 q -0.135141,0.587575 -0.276149,1.159829 -0.141008,0.572254 -0.286743,1.155102 l -0.598262,2.337258 z"
             style="font-family:Inter;-inkscape-font-specification:Inter"
             id="path5298" /><path
             d="m 39.607891,-57.605288 -2.432547,-11.844188 1.333878,-0.273951 0.257447,1.253524 0.01607,-0.0033 q 0.175836,-0.530199 0.529315,-0.929396 0.353479,-0.399197 0.836389,-0.657489 0.48126,-0.266327 1.027668,-0.378548 1.108886,-0.227742 2.050404,0.15672 0.941518,0.384462 1.604173,1.286785 0.661006,0.894288 0.930005,2.204059 0.267349,1.301736 0.01397,2.392193 -0.255031,1.082423 -0.967157,1.814882 -0.713776,0.724425 -1.822662,0.952166 -0.546407,0.112221 -1.069573,0.05218 -0.521516,-0.052 -0.997333,-0.289255 -0.475818,-0.23725 -0.881832,-0.664699 l -0.01607,0.0033 0.953875,4.644465 z m 2.915536,-5.213053 q 0.739258,-0.151828 1.227473,-0.628942 0.488214,-0.477115 0.664404,-1.250243 0.176189,-0.773128 -0.0367,-1.809695 -0.214539,-1.044603 -0.681182,-1.685706 -0.466643,-0.641104 -1.103385,-0.887176 -0.636742,-0.246072 -1.375999,-0.09424 -0.78747,0.16173 -1.285155,0.674286 -0.497684,0.512557 -0.664188,1.29207 -0.166504,0.779513 0.03153,1.743762 0.196386,0.956213 0.656644,1.607002 0.460257,0.65079 1.119671,0.925703 0.659415,0.274913 1.446884,0.113183 z"
             style="font-family:Inter;-inkscape-font-specification:Inter"
             id="path5301" /><path
             d="m 49.868364,-75.032574 0.983695,12.183007 -1.390008,0.112234 -0.983695,-12.183007 z"
             style="font-family:Inter;-inkscape-font-specification:Inter"
             id="path5303" /><path
             d="m 57.684922,-62.75852 q -1.196813,-0.04493 -2.085176,-0.652908 -0.879858,-0.615865 -1.349932,-1.651417 -0.461876,-1.035245 -0.412327,-2.355018 0.04986,-1.327971 0.588364,-2.333866 0.546705,-1.005588 1.470265,-1.553747 0.931756,-0.547851 2.128569,-0.502918 1.20501,0.04524 2.084868,0.661105 0.879858,0.615865 1.341427,1.659307 0.469766,1.04375 0.419909,2.37172 -0.04955,1.319774 -0.595946,2.317164 -0.5382,0.997698 -1.461759,1.545857 -0.923252,0.539961 -2.128262,0.494721 z m 0.04739,-1.262392 q 0.819735,0.03078 1.416827,-0.349044 0.597092,-0.379819 0.935982,-1.097689 0.339197,-0.726066 0.37582,-1.701551 0.03724,-0.991879 -0.24687,-1.733138 -0.283802,-0.749456 -0.850425,-1.181174 -0.566624,-0.431719 -1.386359,-0.462494 -0.811538,-0.03047 -1.417135,0.357241 -0.597092,0.379819 -0.936289,1.105886 -0.339198,0.726067 -0.376436,1.717946 -0.03693,0.983682 0.247178,1.724941 0.284109,0.741259 0.851041,1.164779 0.566931,0.423521 1.386666,0.454297 z"
             style="font-family:Inter;-inkscape-font-specification:Inter"
             id="path5305" /><path
             d="m 64.50772,-62.351707 1.472099,-8.5365 1.309576,0.225834 -0.231409,1.341912 0.03234,0.0056 q 0.348741,-0.622445 0.927723,-0.938812 0.578981,-0.316366 1.379278,-0.178357 0.185928,0.03206 0.336732,0.07472 0.158888,0.04405 0.236938,0.07416 l -0.236986,1.374247 q -0.07666,-0.03819 -0.30551,-0.110954 -0.219376,-0.07945 -0.518477,-0.131031 -0.468861,-0.08085 -0.91069,0.06771 -0.441829,0.148561 -0.763804,0.567517 -0.321974,0.418956 -0.447437,1.146498 l -0.906121,5.254475 z"
             style="font-family:Inter;-inkscape-font-specification:Inter"
             id="path5307" /><path
             d="m 74.208055,-59.905665 q -1.213253,-0.380379 -1.900034,-1.206073 -0.678954,-0.82324 -0.828643,-1.936178 -0.147235,-1.120766 0.242959,-2.36533 0.395103,-1.260218 1.179334,-2.088951 0.78423,-0.828733 1.803832,-1.119444 1.022056,-0.298538 2.117898,0.04503 0.861019,0.269946 1.451672,0.799 0.59848,0.531509 0.910009,1.265345 0.311529,0.733836 0.319521,1.613219 0.01827,0.87401 -0.283575,1.836786 l -0.11534,0.367889 -6.794221,-2.130118 0.358292,-1.142807 6.050614,1.896984 -0.696561,0.220053 q 0.265038,-0.845364 0.153638,-1.55944 -0.101118,-0.719449 -0.543515,-1.227813 -0.439943,-0.516191 -1.18355,-0.749326 -0.73578,-0.230681 -1.391679,-0.05806 -0.645618,0.167251 -1.147213,0.697738 -0.491313,0.525114 -0.756351,1.370478 l -0.176691,0.563576 q -0.267492,0.853191 -0.184017,1.601497 0.0913,0.750759 0.537083,1.303168 0.448236,0.544582 1.254463,0.797349 0.587058,0.184054 1.089665,0.143904 0.505062,-0.04798 0.897748,-0.28593 0.400513,-0.235499 0.660725,-0.626743 l 1.330665,0.417189 q -0.404408,0.741491 -1.086499,1.189598 -0.679637,0.440281 -1.528769,0.543726 -0.841304,0.105899 -1.74146,-0.176316 z"
             style="font-family:Inter;-inkscape-font-specification:Inter"
             id="path5309" /><path
             d="m 80.477228,-57.777399 3.609932,-7.874471 1.208016,0.553797 -0.567471,1.237843 0.02983,0.01367 q 0.496566,-0.512329 1.137275,-0.669808 0.640708,-0.157479 1.37894,0.180953 0.171508,0.07862 0.306352,0.15849 0.142301,0.08328 0.210033,0.132383 l -0.581145,1.26767 q -0.06431,-0.05656 -0.266889,-0.185519 -0.1917,-0.133003 -0.467605,-0.259487 -0.432499,-0.198273 -0.897643,-0.167862 -0.465143,0.03041 -0.883704,0.352899 -0.418561,0.322487 -0.726226,0.993607 l -2.222023,4.846975 z"
             style="font-family:Inter;-inkscape-font-specification:Inter"
             id="path5311" /><path
             d="m 86.108686,-54.803396 q -0.371631,-0.209394 -0.491095,-0.615669 -0.10829,-0.409396 0.101104,-0.781026 0.213422,-0.378778 0.61567,-0.491095 0.409395,-0.108291 0.781026,0.101104 0.378777,0.213422 0.491095,0.61567 0.112317,0.402248 -0.101105,0.781026 -0.209394,0.371631 -0.615669,0.491095 -0.402249,0.112317 -0.781026,-0.101105 z"
             style="font-family:Inter;-inkscape-font-specification:Inter"
             id="path5313" /><path
             d="m 89.66592,-52.811898 4.811696,-7.203227 1.159611,0.774611 -4.811697,7.203226 z m 6.330147,-8.221096 q -0.327419,-0.218714 -0.404419,-0.605558 -0.077,-0.386844 0.141713,-0.714263 0.218714,-0.32742 0.605558,-0.40442 0.386844,-0.077 0.714263,0.141714 0.32742,0.218713 0.40442,0.605557 0.077,0.386844 -0.141714,0.714264 -0.218713,0.327419 -0.605557,0.404419 -0.386845,0.077 -0.714264,-0.141713 z"
             style="font-family:Inter;-inkscape-font-specification:Inter"
             id="path5315" /><path
             d="m 96.123878,-47.722538 q -0.909702,-0.778988 -1.227838,-1.807391 -0.306569,-1.029298 -0.03127,-2.132725 0.281525,-1.098091 1.140546,-2.101256 0.864356,-1.009396 1.911379,-1.462783 1.053253,-0.448052 2.117465,-0.303533 1.07044,0.149855 1.98015,0.928843 0.91593,0.784323 1.2225,1.813621 0.30657,1.029298 0.0197,2.13362 -0.28063,1.109658 -1.14499,2.119054 -0.85902,1.003165 -1.90694,1.444986 -1.041679,0.447156 -2.105894,0.302637 -1.058879,-0.15075 -1.974813,-0.935073 z m 0.821672,-0.959549 q 0.623084,0.533553 1.326915,0.607065 0.70383,0.07351 1.415465,-0.278283 0.71697,-0.358025 1.3519,-1.099495 0.6456,-0.753931 0.88369,-1.511226 0.24342,-0.763526 0.0678,-1.45389 -0.17561,-0.690365 -0.7987,-1.223918 -0.61685,-0.528218 -1.332246,-0.600835 -0.70383,-0.07351 -1.4208,0.284514 -0.71697,0.358025 -1.362569,1.111957 -0.640264,0.7477 -0.878355,1.504995 -0.23809,0.757295 -0.05714,1.441429 0.180949,0.684134 0.804032,1.217687 z"
             style="font-family:Inter;-inkscape-font-specification:Inter"
             id="path5317" /></g><g
           aria-label="50M ADA stake"
           id="text23166"
           style="font-size:16.8px;font-family:ROBOTO;-inkscape-font-specification:ROBOTO;text-align:center;letter-spacing:1.34783px;text-anchor:middle;fill:#fefeff;stroke:#ffffff;stroke-width:0.744;stroke-linecap:round;paint-order:stroke fill markers"><path
             d="m -1.8230452,51.147265 q -0.8704541,-0.971339 -1.1718066,-2.045116 -0.3013526,-1.073778 -0.035743,-2.104882 0.2656097,-1.031103 1.0960421,-1.87442 l 1.59309527,1.777734 q -0.39962634,0.40218 -0.54401478,0.917097 -0.13827939,0.509443 -0.0107703,1.045063 0.13361809,0.530145 0.54420965,0.988324 0.42154067,0.470397 0.95288162,0.633113 0.54292454,0.16335 1.09687144,0.01942 Q 2.2632508,50.360297 2.758084,49.916858 3.2651353,49.46247 3.4748198,48.922083 3.6845043,48.381697 3.5923806,47.836397 3.5002568,47.291097 3.0896653,46.832918 2.553159,46.234231 1.91336,46.036529 1.2851447,45.839461 0.69073645,46.085742 L -0.84213871,44.375208 4.7367837,39.882413 9.9595084,45.710448 8.4383545,47.073612 4.6992341,42.90113 2.401035,44.663229 l 0.010949,0.01222 q 0.6779581,0.03133 1.2711868,0.336852 0.6048122,0.30616 1.1139457,0.874302 0.55293,0.617014 0.8080213,1.368753 0.2612004,0.746264 0.206471,1.533315 -0.043146,0.787685 -0.4032545,1.528963 -0.3485252,0.741912 -1.0083027,1.333163 -0.9346849,0.837607 -2.0394063,1.067555 -1.0931377,0.230581 -2.18676347,-0.166255 -1.08815116,-0.390727 -1.99692713,-1.40483 z"
             style="font-weight:bold;font-family:Inter;-inkscape-font-specification:'Inter Bold'"
             id="path5320" /><path
             d="m 6.7462355,59.365838 q -1.186916,-0.97177 -1.5668406,-2.268797 -0.3683808,-1.298177 0.062099,-2.76924 0.4368268,-1.465867 1.6684293,-2.97014 1.2367991,-1.51062 2.5876147,-2.228172 1.3571621,-0.712354 2.7025111,-0.60744 1.345348,0.104914 2.538611,1.081882 1.186916,0.97177 1.555297,2.269948 0.379924,1.297026 -0.0621,2.76924 -0.43048,1.471063 -1.667279,2.981684 -1.231602,1.504273 -2.588765,2.216627 -1.350816,0.717551 -2.7025109,0.607441 -1.3401516,-0.111262 -2.5270666,-1.083033 z m 1.2783722,-1.561397 q 0.6156729,0.504074 1.387361,0.467968 0.7716883,-0.03611 1.6208863,-0.581249 0.849197,-0.545144 1.691052,-1.573382 0.847052,-1.034584 1.213866,-1.974672 0.366815,-0.940088 0.249903,-1.703723 -0.111715,-0.769981 -0.727388,-1.274055 -0.615673,-0.504073 -1.398905,-0.466817 -0.771688,0.0361 -1.620886,0.581249 -0.8428506,0.550341 -1.6899021,1.584925 -0.8418548,1.028237 -1.2150168,1.963129 -0.3668148,0.940088 -0.2499027,1.703722 0.1232593,0.768831 0.7389323,1.272905 z"
             style="font-weight:bold;font-family:Inter;-inkscape-font-specification:'Inter Bold'"
             id="path5323" /><path
             d="m 12.937426,64.043472 5.850317,-10.731594 3.233883,1.762948 -0.95312,5.964365 q -0.0765,0.397409 -0.196174,0.97683 -0.115743,0.572218 -0.251769,1.198779 -0.1321,0.619359 -0.269451,1.179798 -0.130148,0.564366 -0.220407,0.935591 L 19.57612,65.027857 q 0.263116,-0.276992 0.659754,-0.696081 0.40384,-0.415163 0.852846,-0.861761 0.452932,-0.4538 0.863974,-0.865036 0.422172,-0.414513 0.707545,-0.698057 l 4.475099,-4.044362 3.233883,1.762948 -5.850316,10.731594 -2.175129,-1.185769 2.779882,-5.099307 q 0.196319,-0.360121 0.481645,-0.849235 0.285326,-0.489113 0.605989,-1.043049 0.324589,-0.561137 0.653105,-1.129478 0.332442,-0.575542 0.622344,-1.09019 l 0.266489,0.145277 q -0.47584,0.478683 -0.98179,0.978324 -0.498748,0.503567 -0.970662,0.975048 -0.471913,0.471481 -0.882306,0.864386 -0.399263,0.389629 -0.687913,0.662045 l -4.59489,4.109858 -1.800603,-0.981597 0.943267,-6.100536 q 0.07258,-0.390207 0.176542,-0.940818 0.107891,-0.557813 0.241291,-1.213835 0.140603,-0.652095 0.27923,-1.351981 0.14583,-0.69596 0.283157,-1.359184 l 0.316906,0.172761 q -0.275497,0.5225 -0.57913,1.113749 -0.299706,0.584045 -0.595486,1.160889 -0.291853,0.569641 -0.555571,1.070533 -0.256516,0.50482 -0.452836,0.86494 l -2.779881,5.099308 z"
             style="font-weight:bold;font-family:Inter;-inkscape-font-specification:'Inter Bold'"
             id="path5325" /><path
             d="m 31.39501,72.924892 7.059014,-10.861388 3.156296,0.768205 1.278072,12.890538 -2.717922,-0.661511 -0.458647,-6.232512 q -0.06532,-1.22319 -0.139035,-2.515963 -0.0638,-1.298804 -0.111833,-2.939915 l 0.677487,0.164893 q -0.812777,1.4316 -1.474285,2.553872 -0.651597,1.116241 -1.287674,2.168719 l -3.335285,5.309113 z m 3.27666,-1.946344 0.477219,-1.960729 6.208976,1.511193 -0.477219,1.960729 z"
             style="font-weight:bold;font-family:Inter;-inkscape-font-specification:'Inter Bold'"
             id="path5327" /><path
             d="M 49.543965,76.278485 46.39351,76.0574 46.54224,73.938003 49.561767,74.1499 q 1.22745,0.08614 2.061542,-0.315834 0.834667,-0.410155 1.289469,-1.266355 0.455377,-0.864383 0.545534,-2.149114 0.09016,-1.284731 -0.240608,-2.196059 -0.330765,-0.911328 -1.100541,-1.425852 -0.761593,-0.513951 -1.972677,-0.598939 l -3.101358,-0.21764 0.148731,-2.119397 3.256834,0.22855 q 1.832992,0.128632 3.122747,0.967462 1.29033,0.830646 1.922718,2.248316 0.632387,1.417669 0.500884,3.291576 -0.131502,1.873907 -0.956263,3.197543 -0.824187,1.315453 -2.226638,1.965355 -1.394269,0.650476 -3.268176,0.518973 z m -0.928264,-12.317856 -0.85563,12.19267 -2.520364,-0.176868 0.85563,-12.192671 z"
             style="font-weight:bold;font-family:Inter;-inkscape-font-specification:'Inter Bold'"
             id="path5329" /><path
             d="m 56.862077,76.702727 3.09149,-12.579433 3.233296,-0.313277 5.448983,11.751936 -2.784227,0.269767 -2.484135,-5.734426 q -0.464218,-1.133562 -0.95926,-2.330069 -0.487668,-1.205463 -1.07309,-2.739358 l 0.694015,-0.06724 q -0.296385,1.619334 -0.551722,2.896788 -0.247963,1.268498 -0.502255,2.471677 L 59.57282,76.44008 Z m 2.453634,-2.916236 -0.194612,-2.008563 6.360448,-0.616271 0.194612,2.008563 z"
             style="font-weight:bold;font-family:Inter;-inkscape-font-specification:'Inter Bold'"
             id="path5331" /><path
             d="m 79.17523,72.914077 q -1.068095,0.349518 -2.009452,0.295054 -0.943908,-0.06226 -1.64697,-0.522688 -0.703062,-0.460427 -1.069314,-1.315898 l 2.260931,-0.739855 q 0.238405,0.517536 0.727719,0.694031 0.489313,0.176495 1.159796,-0.04291 0.639298,-0.2092 0.91884,-0.568242 0.287339,-0.361593 0.162329,-0.743613 -0.107151,-0.327445 -0.45415,-0.438305 -0.339203,-0.113412 -0.876578,-0.04114 l -1.534162,0.191309 q -1.277169,0.158999 -2.09987,-0.245015 -0.8227,-0.404015 -1.13395,-1.355165 -0.255122,-0.779632 -0.02546,-1.502121 0.237456,-0.725041 0.912487,-1.299812 0.682828,-0.577323 1.758719,-0.929392 1.068095,-0.349517 1.975573,-0.266704 0.904927,0.07502 1.553414,0.553302 0.656284,0.475734 0.960308,1.325675 l -2.128394,0.696484 q -0.171074,-0.496413 -0.660245,-0.698848 -0.489171,-0.202435 -1.10508,-8.89e-4 -0.59252,0.193893 -0.843571,0.560874 -0.253602,0.359185 -0.133695,0.725611 0.104601,0.319649 0.436007,0.435612 0.331406,0.115963 0.832351,0.06424 l 1.658761,-0.206188 q 1.326498,-0.16651 2.092358,0.195686 0.771106,0.351849 1.069599,1.264018 0.267878,0.818613 0.0016,1.587595 -0.260987,0.758635 -0.975142,1.372102 -0.708911,0.60312 -1.784802,0.955189 z"
             style="font-weight:bold;font-family:Inter;-inkscape-font-specification:'Inter Bold'"
             id="path5333" /><path
             d="m 86.213791,60.448739 0.797431,1.718963 -5.156888,2.392292 -0.797431,-1.718963 z m -4.796753,-0.379109 2.195212,-1.018364 3.514219,7.575342 q 0.18296,0.394394 0.411723,0.47817 0.236204,0.08032 0.682688,-0.126801 0.186035,-0.0863 0.439043,-0.203673 0.260448,-0.120823 0.401835,-0.186412 l 0.797431,1.718962 q -0.200918,0.09321 -0.558105,0.258906 -0.357187,0.1657 -0.721816,0.334852 -1.294803,0.600662 -2.14718,0.38117 -0.844936,-0.222944 -1.342036,-1.294506 z"
             style="font-weight:bold;font-family:Inter;-inkscape-font-specification:'Inter Bold'"
             id="path5335" /><path
             d="m 94.620695,65.803384 q -0.732288,0.453475 -1.455329,0.563521 -0.723041,0.110046 -1.353144,-0.175162 -0.634422,-0.292183 -1.087897,-1.024471 -0.384374,-0.620702 -0.409036,-1.174699 -0.02898,-0.560971 0.21307,-1.058214 0.244706,-0.508535 0.678738,-0.960636 0.441006,-0.456421 0.982657,-0.859382 0.633307,-0.488667 0.991966,-0.797606 0.358658,-0.30894 0.459593,-0.535471 0.100935,-0.226532 -0.0459,-0.463654 l -0.03023,-0.04882 q -0.168433,-0.271993 -0.440136,-0.383549 -0.276022,-0.11853 -0.621435,-0.06866 -0.338439,0.04555 -0.715044,0.278769 -0.376606,0.233216 -0.596101,0.533167 -0.212522,0.295632 -0.246019,0.615483 -0.0335,0.319851 0.115678,0.623067 l -1.931847,1.196311 q -0.421931,-0.790417 -0.369908,-1.594524 0.059,-0.808425 0.598603,-1.55747 0.535287,-0.75602 1.546542,-1.382248 0.753211,-0.466431 1.453986,-0.659176 0.696457,-0.199718 1.303943,-0.122423 0.614461,0.07298 1.113046,0.410682 0.498586,0.337706 0.865685,0.930511 l 3.092267,4.99351 -2.008562,1.243817 -0.643503,-1.039152 -0.0279,0.01727 q 0.0293,0.483584 -0.09684,0.9187 -0.126145,0.435115 -0.446926,0.836383 -0.325101,0.394293 -0.890009,0.744117 z m -0.313474,-1.783849 q 0.495167,-0.306635 0.738561,-0.708223 0.250368,-0.405907 0.251299,-0.840672 9.3e-4,-0.434764 -0.245242,-0.832292 l -0.457794,-0.739263 q -0.06043,0.104964 -0.176659,0.244478 -0.120544,0.13254 -0.289909,0.295312 -0.173682,0.155797 -0.377917,0.340163 -0.204235,0.184366 -0.426737,0.370395 -0.321133,0.276053 -0.533654,0.571685 -0.216841,0.288658 -0.263294,0.587587 -0.05077,0.291954 0.130617,0.584869 0.159796,0.258045 0.415888,0.359971 0.256091,0.101927 0.574599,0.03977 0.318508,-0.06216 0.660242,-0.27378 z"
             style="font-weight:bold;font-family:Inter;-inkscape-font-specification:'Inter Bold'"
             id="path5337" /><path
             d="m 101.31504,57.966814 -1.8179,-2.201017 0.196067,-0.16194 0.229725,-4.488029 2.188368,-1.807454 -0.25569,5.860675 -0.43009,0.355222 z m -0.10066,3.317496 -7.783541,-9.423894 1.865805,-1.541037 7.783546,9.423894 z m 4.37041,-3.609683 -4.51544,-1.164623 0.16244,-2.315227 6.53504,1.677621 z"
             style="font-weight:bold;font-family:Inter;-inkscape-font-specification:'Inter Bold'"
             id="path5339" /><path
             d="m 111.795,51.854698 q -0.88886,0.965705 -1.97245,1.295072 -1.08406,0.317776 -2.20517,0.02171 -1.11556,-0.302104 -2.08126,-1.190963 -0.97778,-0.89997 -1.35955,-1.987189 -0.38224,-1.09881 -0.1608,-2.199413 0.22145,-1.100602 1.06031,-2.011986 0.64998,-0.706172 1.41917,-1.057344 0.76315,-0.356728 1.59311,-0.362091 0.82392,-0.01092 1.63303,0.3213 0.81467,0.326182 1.54499,0.998381 l 0.47681,0.438875 -5.18316,5.631265 -1.1347,-1.044409 4.3943,-4.774203 -0.46726,1.052734 q -0.48285,-0.44443 -0.99403,-0.591607 -0.51117,-0.147178 -0.99827,0.0065 -0.48757,0.142118 -0.89867,0.588757 -0.40554,0.440602 -0.50684,0.938264 -0.10733,0.492106 0.0816,0.989351 0.18896,0.497246 0.67181,0.941675 l 0.77257,0.711088 q 0.49492,0.45554 1.03024,0.624939 0.53483,0.157808 1.05114,0.0087 0.51028,-0.15467 0.94916,-0.631487 0.32221,-0.350067 0.47007,-0.704522 0.14739,-0.366046 0.13298,-0.713777 -0.0149,-0.359321 -0.19013,-0.665555 l 1.49439,-1.623591 q 0.5282,0.697991 0.62217,1.564917 0.094,0.866925 -0.21725,1.762251 -0.31727,0.889771 -1.02835,1.662335 z"
             style="font-weight:bold;font-family:Inter;-inkscape-font-specification:'Inter Bold'"
             id="path5341" /></g></g><g
         style="fill:#000000"
         id="g23222"
         transform="matrix(0.20144581,0,0,0.20144581,-761.77363,-24.795681)"
         inkscape:label="Middlecoins"><g
           id="g23220">
	<g
   id="g23218"
   transform="translate(-70.464283)">
		
		
		<g
   id="g23176"
   inkscape:label="Left"><path
     d="m 117.4607,172.8953 c 9.4539,0 18.592,-0.61066 27.23922,-1.74737 V 76.366871 c -8.64639,-1.13587 -17.78532,-1.746533 -27.23922,-1.746533 -53.980023,0 -97.739685,19.846819 -97.739685,44.330122 v 9.61389 c 0,24.48246 43.759662,44.33095 97.739685,44.33095 z"
     id="path23170"
     style="fill:#e4003a;fill-opacity:1;stroke-width:0.838335;stroke-dasharray:none" /><path
     d="m 117.4607,272.56703 c 9.4539,0 18.592,-0.61066 27.23922,-1.74569 v -27.78203 c -8.6489,1.13588 -17.78281,1.75491 -27.23922,1.75491 -47.118703,0 -86.446275,-15.12322 -95.684054,-35.25065 -1.345291,2.93183 -2.055631,5.96753 -2.055631,9.07946 v 9.61389 c 0,24.4833 43.759662,44.33011 97.739685,44.33011 z"
     id="path23172"
     style="fill:#ffffff;fill-opacity:1;stroke-width:0.838335;stroke-dasharray:none" /><path
     d="m 144.69908,294.69146 v -2.1595 c -8.6489,1.13587 -17.78281,1.75491 -27.23922,1.75491 -47.1187,0 -86.446273,-15.12322 -95.684051,-35.25065 -1.345292,2.93099 -2.055632,5.96669 -2.055632,9.07862 v 9.61389 c 0,24.48413 43.759662,44.33095 97.739683,44.33095 10.795,0 21.17787,-0.79578 30.88726,-2.2617 -2.40662,-4.92296 -3.64804,-10.11481 -3.64804,-15.49347 z"
     id="path23174"
     style="fill:#ffffff;fill-opacity:1;stroke-width:0.838335;stroke-dasharray:none" /><path
     d="m 117.4607,222.38627 c 9.4539,0 18.592,-0.61066 27.23922,-1.74569 v -27.78203 c -8.6489,1.13588 -17.78281,1.75491 -27.23922,1.75491 -47.118703,0 -86.446275,-15.12322 -95.684054,-35.25065 -1.345291,2.93183 -2.055631,5.96753 -2.055631,9.07946 v 9.61389 c 0,24.4833 43.759662,44.33011 97.739685,44.33011 z"
     id="path3509"
     style="fill:#ffffff;fill-opacity:1;stroke-width:0.838335;stroke-dasharray:none" /></g>
		
		
		
		
		<g
   id="g23208"
   inkscape:label="Middle"><path
     d="m 258.38792,-0.45965459 c -53.98002,0 -97.73968,19.84681559 -97.73968,44.33011159 v 9.613895 c 0,24.483299 43.75966,44.330125 97.73968,44.330125 53.97919,0 97.73969,-19.846826 97.73969,-44.330125 v -9.613895 c 0,-24.483296 -43.7605,-44.33011159 -97.73969,-44.33011159 z"
     id="path23178"
     style="fill:#e4003a;fill-opacity:1;stroke-width:0.838335;stroke-dasharray:none" /><path
     d="m 258.38792,169.71423 c -47.1187,0 -86.44627,-15.12238 -95.68405,-35.25065 -1.34529,2.93099 -2.05563,5.9667 -2.05563,9.07946 v 9.61389 c 0,24.4833 43.75966,44.33011 97.73968,44.33011 53.97919,0 97.73969,-19.84681 97.73969,-44.33011 v -9.61389 c 0,-3.11276 -0.71034,-6.14847 -2.05563,-9.07946 -9.23778,20.12827 -48.56535,35.25065 -95.68406,35.25065 z"
     id="path23180"
     style="fill:#ffffff;fill-opacity:1;stroke-width:0.838335;stroke-dasharray:none" /><path
     d="m 258.38792,219.20688 c -47.1187,0 -86.44627,-15.12322 -95.68405,-35.25065 -1.34529,2.93099 -2.05563,5.96669 -2.05563,9.07946 v 9.61389 c 0,24.48413 43.75966,44.33095 97.73968,44.33095 53.97919,0 97.73969,-19.84682 97.73969,-44.33095 v -9.61389 c 0,-3.11277 -0.71034,-6.14847 -2.05563,-9.07946 -9.23778,20.12827 -48.56535,35.25065 -95.68406,35.25065 z"
     id="path23182"
     style="fill:#ffffff;fill-opacity:1;stroke-width:0.838335;stroke-dasharray:none" /><path
     d="m 258.38792,271.37084 c -47.1187,0 -86.44627,-15.12321 -95.68405,-35.25065 -1.34529,2.93183 -2.05563,5.9667 -2.05563,9.07862 v 9.61473 c 0,24.4833 43.75966,44.33011 97.73968,44.33011 53.97919,0 97.73969,-19.84681 97.73969,-44.33011 v -9.61473 c 0,-3.11192 -0.71034,-6.14846 -2.05563,-9.07862 -9.23778,20.1266 -48.56535,35.25065 -95.68406,35.25065 z"
     id="path23184"
     style="fill:#ffffff;fill-opacity:1;stroke-width:0.838335;stroke-dasharray:none" /><path
     d="m 258.38792,320.86265 c -47.1187,0 -86.44627,-15.12238 -95.68405,-35.24981 -1.34529,2.93183 -2.05563,5.96837 -2.05563,9.07862 v 9.61389 c 0,24.4833 43.75966,44.33011 97.73968,44.33011 53.97919,0 97.73969,-19.84681 97.73969,-44.33011 v -9.61473 c 0,-3.11193 -0.71034,-6.14846 -2.05563,-9.07862 -9.23778,20.12744 -48.56535,35.25065 -95.68406,35.25065 z"
     id="path23186"
     style="fill:#ffffff;fill-opacity:1;stroke-width:0.838335;stroke-dasharray:none" /><g
     transform="matrix(10.303711,0,0,10.303711,161.70322,-61.147785)"
     id="g23206"
     inkscape:label="Logo"
     style="fill:#000000">
<g
   id="g23204"
   transform="matrix(0.6933596,0,0,0.6933596,0.97298999,0.28937229)"
   inkscape:label="Logo"
   style="display:inline">
		<g
   transform="translate(0.91990781,-0.8)"
   id="g23190"
   inkscape:label="Circle"
   style="display:none">
<path
   style="opacity:1;fill:#e4003a;fill-opacity:1;fill-rule:nonzero;stroke:none;stroke-width:1;stroke-linecap:butt;stroke-linejoin:miter;stroke-miterlimit:4;stroke-dasharray:none;stroke-dashoffset:0"
   d="m 0,7.39996 a 7.6,7.6 0 1 1 7.6,-7.6 7.6,7.6 0 0 1 -7.6,7.6 z"
   stroke-linecap="round"
   id="path23188" />
</g>
		<g
   transform="translate(0.81,-1.08)"
   id="g23194"
   style="display:none"
   inkscape:label="undefined">
<path
   style="opacity:1;fill:#ffffff;fill-rule:nonzero;stroke:none;stroke-width:1;stroke-linecap:butt;stroke-linejoin:miter;stroke-miterlimit:4;stroke-dasharray:none;stroke-dashoffset:0"
   transform="translate(-10.81,-11.92)"
   d="m 8.46,13.2 h -0.8 c -0.3,0 -0.4,-0.1 -0.4,-0.4 a 0.43,0.43 0 0 1 0.4,-0.4 h 0.9 a 0.35,0.35 0 0 0 0.2,-0.1 1.42,1.42 0 0 0 0.2,-0.6 h -0.7 a 0.4,0.4 0 1 1 0,-0.8 h 0.8 c 0.1,0 0.2,0 0.2,-0.1 a 23.29,23.29 0 0 0 1.1,-2.8 0.1,0.1 0 0 1 0.1,-0.1 c 0.1,-0.2 0.2,-0.3 0.4,-0.3 0.2,0 0.3,0.1 0.4,0.3 0.2,0.6 0.4,1.1 0.6,1.7 0.2,0.4 0.3,0.8 0.5,1.2 0,0.1 0.1,0.1 0.2,0.1 h 0.8 a 0.37,0.37 0 0 1 0.4,0.4 0.43,0.43 0 0 1 -0.4,0.4 h -0.7 a 4.88,4.88 0 0 0 0.3,0.7 0.35,0.35 0 0 0 0.2,0.1 h 0.9 c 0.1,0 0.3,0.1 0.3,0.2 a 0.6,0.6 0 0 1 -0.1,0.4 0.37,0.37 0 0 1 -0.3,0.1 h -0.8 a 3.55,3.55 0 0 0 0.4,0.9 l 0.6,1.5 c 0.1,0.3 0.1,0.5 -0.2,0.6 -0.3,0.1 -0.4,0 -0.5,-0.3 -0.3,-0.9 -0.7,-1.7 -1,-2.6 -0.1,-0.2 -0.1,-0.2 -0.3,-0.2 h -2.9 c -0.2,0 -0.2,0 -0.3,0.2 a 18.61,18.61 0 0 1 -1,2.5 c -0.1,0.2 -0.2,0.3 -0.4,0.3 a 0.27,0.27 0 0 1 -0.3,-0.3 0.37,0.37 0 0 1 0.1,-0.3 c 0.3,-0.7 0.5,-1.4 0.8,-2.1 0.2,0 0.2,-0.1 0.3,-0.2 z m 1,-0.8 h 2.7 c -0.1,-0.2 -0.2,-0.5 -0.3,-0.7 a 0.35,0.35 0 0 0 -0.2,-0.1 h -1.8 c -0.1,0 -0.1,0 -0.2,0.1 a 1.45,1.45 0 0 1 -0.2,0.7 z m 2.2,-1.5 c -0.3,-0.7 -0.5,-1.3 -0.8,-2 -0.3,0.7 -0.5,1.3 -0.8,2 z"
   stroke-linecap="round"
   id="path23192" />
</g>
<path
   style="opacity:1;fill:#050001;fill-opacity:1;stroke:#ffffff;stroke-width:0.791434;stroke-linecap:round;stroke-miterlimit:3.7;stroke-dasharray:none;stroke-opacity:1;paint-order:stroke fill markers"
   d="M 8.1350941,16.876025 12.086609,10.362006"
   id="path23196"
   sodipodi:nodetypes="cc" /><path
   style="opacity:1;fill:#050001;fill-opacity:1;stroke:#ffffff;stroke-width:0.791434;stroke-linecap:round;stroke-miterlimit:3.7;stroke-dasharray:none;stroke-opacity:1"
   d="M 16.144951,16.87452 12.196567,10.360599"
   id="path23198"
   sodipodi:nodetypes="cc" /><path
   style="opacity:1;fill:#050001;fill-opacity:1;stroke:#ffffff;stroke-width:0.791434;stroke-linecap:round;stroke-miterlimit:3.7;stroke-dasharray:none;stroke-opacity:1"
   d="m 9.0180552,13.152778 6.2251588,-0.01311"
   id="path23200" /><path
   style="fill:#050001;fill-opacity:1;stroke:#ffffff;stroke-width:0.791434;stroke-linecap:round;stroke-miterlimit:3.7;stroke-dasharray:none;stroke-opacity:1"
   d="m 8.2176918,14.418566 7.8247822,-0.01051"
   id="path23202" /></g>
</g><path
     d="m 258.38792,119.53347 c -47.1187,0 -86.44627,-15.12238 -95.68405,-35.250656 -1.34529,2.93099 -2.05563,5.9667 -2.05563,9.079463 v 9.613893 c 0,24.4833 43.75966,44.33011 97.73968,44.33011 53.97919,0 97.73969,-19.84681 97.73969,-44.33011 v -9.613893 c 0,-3.112763 -0.71034,-6.148473 -2.05563,-9.079463 -9.23778,20.128276 -48.56535,35.250656 -95.68406,35.250656 z"
     id="path3507"
     style="fill:#ffffff;fill-opacity:1;stroke-width:0.838335;stroke-dasharray:none" /></g>
	<g
   id="g23216"
   inkscape:label="Right"
   transform="translate(0,-10.01765)"><path
     d="m 399.31515,233.09371 c -9.4539,0 -18.592,-0.61066 -27.23922,-1.74737 v -94.78105 c 8.64639,-1.13587 17.78532,-1.74653 27.23922,-1.74653 53.98002,0 97.73968,19.84681 97.73968,44.33011 v 9.61389 c 0,24.48246 -43.75966,44.33095 -97.73968,44.33095 z"
     id="path23210"
     style="fill:#e4003a;fill-opacity:1;stroke-width:0.838335;stroke-dasharray:none" /><path
     d="m 399.31515,282.58468 c -9.4539,0 -18.592,-0.61066 -27.23922,-1.74569 v -27.78203 c 8.6489,1.13588 17.78281,1.75491 27.23922,1.75491 47.1187,0 86.44627,-15.12322 95.68405,-35.25065 1.34529,2.93183 2.05563,5.96753 2.05563,9.07946 v 9.61389 c 0,24.4833 -43.75966,44.33011 -97.73968,44.33011 z"
     id="path23212"
     style="fill:#ffffff;fill-opacity:1;stroke-width:0.838335;stroke-dasharray:none" /><path
     d="m 372.07677,304.70911 v -2.1595 c 8.6489,1.13587 17.78281,1.75491 27.23922,1.75491 47.1187,0 86.44627,-15.12322 95.68405,-35.25065 1.34529,2.93099 2.05563,5.96669 2.05563,9.07862 v 9.61389 c 0,24.48413 -43.75966,44.33095 -97.73968,44.33095 -10.795,0 -21.17787,-0.79578 -30.88726,-2.2617 2.40662,-4.92296 3.64804,-10.11481 3.64804,-15.49347 z"
     id="path23214"
     style="fill:#ffffff;fill-opacity:1;stroke-width:0.838335;stroke-dasharray:none" /></g></g>
</g></g></g></g></svg>
