<?xml version="1.0" encoding="UTF-8" standalone="no"?>
<svg
   inkscape:version="1.2.2 (b0a84865, 2022-12-01)"
   xml:space="preserve"
   sodipodi:docname="final_awards_pre-text-to-path.svg"
   id="svg134"
   version="1.1"
   viewBox="-120 -120 300 299.99995"
   height="249.99995"
   width="250"
   inkscape:export-filename="0.svg"
   inkscape:export-xdpi="96"
   inkscape:export-ydpi="96"
   xmlns:inkscape="http://www.inkscape.org/namespaces/inkscape"
   xmlns:sodipodi="http://sodipodi.sourceforge.net/DTD/sodipodi-0.dtd"
   xmlns="http://www.w3.org/2000/svg"
   xmlns:svg="http://www.w3.org/2000/svg"><defs
     id="defs138" /><sodipodi:namedview
     id="namedview136"
     pagecolor="#ffffff"
     bordercolor="#000000"
     borderopacity="0.25"
     inkscape:showpageshadow="2"
     inkscape:pageopacity="0.0"
     inkscape:pagecheckerboard="0"
     inkscape:deskcolor="#d1d1d1"
     showgrid="false"
     inkscape:zoom="0.35355339"
     inkscape:cx="1480.6816"
     inkscape:cy="663.26616"
     inkscape:window-width="1425"
     inkscape:window-height="949"
     inkscape:window-x="0"
     inkscape:window-y="25"
     inkscape:window-maximized="1"
     inkscape:current-layer="g19337"
     showguides="true" /><style
     type="text/css"
     id="style8571">
	.st0{fill:#ffffff;}
</style><g
     id="g14593"
     inkscape:label="Staked"
     transform="translate(-3343.3734,-407.04369)"><g
       id="g24220"
       inkscape:label="80m"
       transform="matrix(1.4245145,0,0,1.4245145,4404.5911,422.78859)"
       inkscape:export-filename="./g8306.svg"
       inkscape:export-xdpi="96"
       inkscape:export-ydpi="96"><g
         id="g24323"
         inkscape:label="border"
         style="fill:#112c50;fill-opacity:1"
         transform="translate(-1336.6973,-1105.8461)"><path
           fill="none"
           stroke="black"
           stroke-width="2"
           d="m 712.78911,1115.8531 q 9.47,10.78 -1.92,19.51 7.18,12.42 -5.69,18.76 4.62,13.58 -9.24,17.29 1.88,14.22 -12.44,15.15 -0.93,14.32 -15.15,12.44 -3.71,13.86 -17.29,9.24 -6.34,12.87 -18.76,5.69 -8.73,11.39 -19.51,1.92 -10.78,9.47 -19.51,-1.92 -12.42,7.18 -18.76,-5.69 -13.58,4.62 -17.29,-9.24 -14.22,1.88 -15.15,-12.44 -14.32,-0.93 -12.44,-15.15 -13.86,-3.71 -9.24,-17.29 -12.87,-6.34 -5.69,-18.76 -11.39,-8.73 -1.92,-19.51 -9.47,-10.78 1.92,-19.51 -7.18,-12.42 5.69,-18.76 -4.62,-13.58 9.24,-17.29 -1.88,-14.22 12.44,-15.15 0.93,-14.32 15.15,-12.44 3.71,-13.86 17.29,-9.24 6.34,-12.87 18.76,-5.69 8.73,-11.39 19.51,-1.92 10.78,-9.47 19.51,1.92 12.42,-7.18 18.76,5.69 13.58,-4.62 17.29,9.24 14.22,-1.88 15.15,12.44 14.32,0.93 12.44,15.15 13.86,3.71 9.24,17.29 12.87,6.34 5.69,18.76 11.39,8.73 1.92,19.51 z"
           id="path24222"
           style="fill:#04344d;fill-opacity:1;stroke:#04344d;stroke-opacity:1" /><g
           id="g24321"
           inkscape:label="Circles"
           transform="translate(97.989201,1115.8444)"
           style="fill:#112c50;fill-opacity:1"><g
             id="g24226"
             transform="rotate(7.5,5558.9497,3252.8791)"
             inkscape:transform-center-x="-11.777454"
             inkscape:transform-center-y="-88.637902"
             style="fill:#ffffff;fill-opacity:1"><path
               sodipodi:type="star"
               style="fill:#efa900;fill-opacity:1;stroke:#efa900;stroke-width:2.22;stroke-linecap:round;stroke-opacity:1;paint-order:stroke fill markers"
               id="path24224"
               inkscape:flatsided="false"
               sodipodi:sides="5"
               sodipodi:cx="396.99625"
               sodipodi:cy="-372.60107"
               sodipodi:r1="3.6169088"
               sodipodi:r2="1.6637779"
               sodipodi:arg1="0.95906936"
               sodipodi:arg2="1.5873879"
               inkscape:rounded="0"
               inkscape:randomized="0"
               d="m 399.07337,-369.64006 -2.10473,-1.29747 -2.14661,1.22692 0.58356,-2.40265 -1.83021,-1.66242 2.46539,-0.18746 1.01548,-2.25435 0.94014,2.2868 2.45781,0.26915 -1.88435,1.60078 z"
               transform="matrix(1.0133273,0,0,1.0133273,-268.95197,974.58915)"
               inkscape:transform-center-x="1.0196929"
               inkscape:transform-center-y="-89.532179"
               inkscape:label="path5969" /></g><g
             id="g24231"
             transform="rotate(22.5,2049.0208,1301.9125)"
             inkscape:transform-center-x="-34.354027"
             inkscape:transform-center-y="-82.323429"
             style="fill:#ffffff;fill-opacity:1"><path
               sodipodi:type="star"
               style="fill:#efa900;fill-opacity:1;stroke:#efa900;stroke-width:2.22;stroke-linecap:round;stroke-opacity:1;paint-order:stroke fill markers"
               id="path24228"
               inkscape:flatsided="false"
               sodipodi:sides="5"
               sodipodi:cx="396.99625"
               sodipodi:cy="-372.60107"
               sodipodi:r1="3.6169088"
               sodipodi:r2="1.6637779"
               sodipodi:arg1="0.95906936"
               sodipodi:arg2="1.5873879"
               inkscape:rounded="0"
               inkscape:randomized="0"
               d="m 399.07337,-369.64006 -2.10473,-1.29747 -2.14661,1.22692 0.58356,-2.40265 -1.83021,-1.66242 2.46539,-0.18746 1.01548,-2.25435 0.94014,2.2868 2.45781,0.26915 -1.88435,1.60078 z"
               transform="matrix(1.0133273,0,0,1.0133273,-268.95197,974.58915)"
               inkscape:transform-center-x="1.0196929"
               inkscape:transform-center-y="-89.532179"
               inkscape:label="path5969" /></g><g
             id="g24235"
             transform="rotate(37.5,1334.8573,904.95028)"
             inkscape:transform-center-x="-54.232035"
             inkscape:transform-center-y="-70.490863"
             style="fill:#ffffff;fill-opacity:1"><path
               sodipodi:type="star"
               style="fill:#efa900;fill-opacity:1;stroke:#efa900;stroke-width:2.22;stroke-linecap:round;stroke-opacity:1;paint-order:stroke fill markers"
               id="path24233"
               inkscape:flatsided="false"
               sodipodi:sides="5"
               sodipodi:cx="396.99625"
               sodipodi:cy="-372.60107"
               sodipodi:r1="3.6169088"
               sodipodi:r2="1.6637779"
               sodipodi:arg1="0.95906936"
               sodipodi:arg2="1.5873879"
               inkscape:rounded="0"
               inkscape:randomized="0"
               d="m 399.07337,-369.64006 -2.10473,-1.29747 -2.14661,1.22692 0.58356,-2.40265 -1.83021,-1.66242 2.46539,-0.18746 1.01548,-2.25435 0.94014,2.2868 2.45781,0.26915 -1.88435,1.60078 z"
               transform="matrix(1.0133273,0,0,1.0133273,-268.95197,974.58915)"
               inkscape:transform-center-x="1.0196929"
               inkscape:transform-center-y="-89.532179"
               inkscape:label="path5969" /></g><g
             id="g24239"
             transform="rotate(52.5,1019.845,729.85313)"
             inkscape:transform-center-x="-70.414229"
             inkscape:transform-center-y="-54.322566"
             style="fill:#ffffff;fill-opacity:1"><path
               sodipodi:type="star"
               style="fill:#efa900;fill-opacity:1;stroke:#efa900;stroke-width:2.22;stroke-linecap:round;stroke-opacity:1;paint-order:stroke fill markers"
               id="path24237"
               inkscape:flatsided="false"
               sodipodi:sides="5"
               sodipodi:cx="396.99625"
               sodipodi:cy="-372.60107"
               sodipodi:r1="3.6169088"
               sodipodi:r2="1.6637779"
               sodipodi:arg1="0.95906936"
               sodipodi:arg2="1.5873879"
               inkscape:rounded="0"
               inkscape:randomized="0"
               d="m 399.07337,-369.64006 -2.10473,-1.29747 -2.14661,1.22692 0.58356,-2.40265 -1.83021,-1.66242 2.46539,-0.18746 1.01548,-2.25435 0.94014,2.2868 2.45781,0.26915 -1.88435,1.60078 z"
               transform="matrix(1.0133273,0,0,1.0133273,-268.95197,974.58915)"
               inkscape:transform-center-x="1.0196929"
               inkscape:transform-center-y="-89.532179"
               inkscape:label="path5969" /></g><g
             id="g24243"
             transform="rotate(67.5,837.58649,628.54617)"
             inkscape:transform-center-x="-82.3354"
             inkscape:transform-center-y="-34.452242"
             style="fill:#ffffff;fill-opacity:1"><path
               sodipodi:type="star"
               style="fill:#efa900;fill-opacity:1;stroke:#efa900;stroke-width:2.22;stroke-linecap:round;stroke-opacity:1;paint-order:stroke fill markers"
               id="path24241"
               inkscape:flatsided="false"
               sodipodi:sides="5"
               sodipodi:cx="396.99625"
               sodipodi:cy="-372.60107"
               sodipodi:r1="3.6169088"
               sodipodi:r2="1.6637779"
               sodipodi:arg1="0.95906936"
               sodipodi:arg2="1.5873879"
               inkscape:rounded="0"
               inkscape:randomized="0"
               d="m 399.07337,-369.64006 -2.10473,-1.29747 -2.14661,1.22692 0.58356,-2.40265 -1.83021,-1.66242 2.46539,-0.18746 1.01548,-2.25435 0.94014,2.2868 2.45781,0.26915 -1.88435,1.60078 z"
               transform="matrix(1.0133273,0,0,1.0133273,-268.95197,974.58915)"
               inkscape:transform-center-x="1.0196929"
               inkscape:transform-center-y="-89.532179"
               inkscape:label="path5969" /></g><g
             id="g24247"
             transform="rotate(82.5,715.32761,560.58954)"
             inkscape:transform-center-x="-88.666206"
             inkscape:transform-center-y="-11.806367"
             style="fill:#ffffff;fill-opacity:1"><path
               sodipodi:type="star"
               style="fill:#efa900;fill-opacity:1;stroke:#efa900;stroke-width:2.22;stroke-linecap:round;stroke-opacity:1;paint-order:stroke fill markers"
               id="path24245"
               inkscape:flatsided="false"
               sodipodi:sides="5"
               sodipodi:cx="396.99625"
               sodipodi:cy="-372.60107"
               sodipodi:r1="3.6169088"
               sodipodi:r2="1.6637779"
               sodipodi:arg1="0.95906936"
               sodipodi:arg2="1.5873879"
               inkscape:rounded="0"
               inkscape:randomized="0"
               d="m 399.07337,-369.64006 -2.10473,-1.29747 -2.14661,1.22692 0.58356,-2.40265 -1.83021,-1.66242 2.46539,-0.18746 1.01548,-2.25435 0.94014,2.2868 2.45781,0.26915 -1.88435,1.60078 z"
               transform="matrix(1.0133273,0,0,1.0133273,-268.95197,974.58915)"
               inkscape:transform-center-x="1.0196929"
               inkscape:transform-center-y="-89.532179"
               inkscape:label="path5969" /></g><g
             id="g24251"
             transform="rotate(97.5,624.98471,510.37315)"
             inkscape:transform-center-x="-88.637973"
             inkscape:transform-center-y="11.777454"
             style="fill:#ffffff;fill-opacity:1"><path
               sodipodi:type="star"
               style="fill:#efa900;fill-opacity:1;stroke:#efa900;stroke-width:2.22;stroke-linecap:round;stroke-opacity:1;paint-order:stroke fill markers"
               id="path24249"
               inkscape:flatsided="false"
               sodipodi:sides="5"
               sodipodi:cx="396.99625"
               sodipodi:cy="-372.60107"
               sodipodi:r1="3.6169088"
               sodipodi:r2="1.6637779"
               sodipodi:arg1="0.95906936"
               sodipodi:arg2="1.5873879"
               inkscape:rounded="0"
               inkscape:randomized="0"
               d="m 399.07337,-369.64006 -2.10473,-1.29747 -2.14661,1.22692 0.58356,-2.40265 -1.83021,-1.66242 2.46539,-0.18746 1.01548,-2.25435 0.94014,2.2868 2.45781,0.26915 -1.88435,1.60078 z"
               transform="matrix(1.0133273,0,0,1.0133273,-268.95197,974.58915)"
               inkscape:transform-center-x="1.0196929"
               inkscape:transform-center-y="-89.532179"
               inkscape:label="path5969" /></g><g
             id="g24255"
             transform="rotate(112.5,553.34383,470.55213)"
             inkscape:transform-center-x="-82.323487"
             inkscape:transform-center-y="34.35403"
             style="fill:#ffffff;fill-opacity:1"><path
               sodipodi:type="star"
               style="fill:#efa900;fill-opacity:1;stroke:#efa900;stroke-width:2.22;stroke-linecap:round;stroke-opacity:1;paint-order:stroke fill markers"
               id="path24253"
               inkscape:flatsided="false"
               sodipodi:sides="5"
               sodipodi:cx="396.99625"
               sodipodi:cy="-372.60107"
               sodipodi:r1="3.6169088"
               sodipodi:r2="1.6637779"
               sodipodi:arg1="0.95906936"
               sodipodi:arg2="1.5873879"
               inkscape:rounded="0"
               inkscape:randomized="0"
               d="m 399.07337,-369.64006 -2.10473,-1.29747 -2.14661,1.22692 0.58356,-2.40265 -1.83021,-1.66242 2.46539,-0.18746 1.01548,-2.25435 0.94014,2.2868 2.45781,0.26915 -1.88435,1.60078 z"
               transform="matrix(1.0133273,0,0,1.0133273,-268.95197,974.58915)"
               inkscape:transform-center-x="1.0196929"
               inkscape:transform-center-y="-89.532179"
               inkscape:label="path5969" /></g><g
             id="g24259"
             transform="rotate(127.5,493.28797,437.17055)"
             inkscape:transform-center-x="-70.490908"
             inkscape:transform-center-y="54.23204"
             style="fill:#ffffff;fill-opacity:1"><path
               sodipodi:type="star"
               style="fill:#efa900;fill-opacity:1;stroke:#efa900;stroke-width:2.22;stroke-linecap:round;stroke-opacity:1;paint-order:stroke fill markers"
               id="path24257"
               inkscape:flatsided="false"
               sodipodi:sides="5"
               sodipodi:cx="396.99625"
               sodipodi:cy="-372.60107"
               sodipodi:r1="3.6169088"
               sodipodi:r2="1.6637779"
               sodipodi:arg1="0.95906936"
               sodipodi:arg2="1.5873879"
               inkscape:rounded="0"
               inkscape:randomized="0"
               d="m 399.07337,-369.64006 -2.10473,-1.29747 -2.14661,1.22692 0.58356,-2.40265 -1.83021,-1.66242 2.46539,-0.18746 1.01548,-2.25435 0.94014,2.2868 2.45781,0.26915 -1.88435,1.60078 z"
               transform="matrix(1.0133273,0,0,1.0133273,-268.95197,974.58915)"
               inkscape:transform-center-x="1.0196929"
               inkscape:transform-center-y="-89.532179"
               inkscape:label="path5969" /></g><g
             id="g24263"
             transform="rotate(142.5,440.5548,407.85923)"
             inkscape:transform-center-x="-54.322569"
             inkscape:transform-center-y="70.414225"
             style="fill:#ffffff;fill-opacity:1"><path
               sodipodi:type="star"
               style="fill:#efa900;fill-opacity:1;stroke:#efa900;stroke-width:2.22;stroke-linecap:round;stroke-opacity:1;paint-order:stroke fill markers"
               id="path24261"
               inkscape:flatsided="false"
               sodipodi:sides="5"
               sodipodi:cx="396.99625"
               sodipodi:cy="-372.60107"
               sodipodi:r1="3.6169088"
               sodipodi:r2="1.6637779"
               sodipodi:arg1="0.95906936"
               sodipodi:arg2="1.5873879"
               inkscape:rounded="0"
               inkscape:randomized="0"
               d="m 399.07337,-369.64006 -2.10473,-1.29747 -2.14661,1.22692 0.58356,-2.40265 -1.83021,-1.66242 2.46539,-0.18746 1.01548,-2.25435 0.94014,2.2868 2.45781,0.26915 -1.88435,1.60078 z"
               transform="matrix(1.0133273,0,0,1.0133273,-268.95197,974.58915)"
               inkscape:transform-center-x="1.0196929"
               inkscape:transform-center-y="-89.532179"
               inkscape:label="path5969" /></g><g
             id="g24267"
             transform="rotate(157.5,392.3333,381.05569)"
             inkscape:transform-center-x="-34.452251"
             inkscape:transform-center-y="82.335402"
             style="fill:#ffffff;fill-opacity:1"><path
               sodipodi:type="star"
               style="fill:#efa900;fill-opacity:1;stroke:#efa900;stroke-width:2.22;stroke-linecap:round;stroke-opacity:1;paint-order:stroke fill markers"
               id="path24265"
               inkscape:flatsided="false"
               sodipodi:sides="5"
               sodipodi:cx="396.99625"
               sodipodi:cy="-372.60107"
               sodipodi:r1="3.6169088"
               sodipodi:r2="1.6637779"
               sodipodi:arg1="0.95906936"
               sodipodi:arg2="1.5873879"
               inkscape:rounded="0"
               inkscape:randomized="0"
               d="m 399.07337,-369.64006 -2.10473,-1.29747 -2.14661,1.22692 0.58356,-2.40265 -1.83021,-1.66242 2.46539,-0.18746 1.01548,-2.25435 0.94014,2.2868 2.45781,0.26915 -1.88435,1.60078 z"
               transform="matrix(1.0133273,0,0,1.0133273,-268.95197,974.58915)"
               inkscape:transform-center-x="1.0196929"
               inkscape:transform-center-y="-89.532179"
               inkscape:label="path5969" /></g><g
             id="g24271"
             transform="rotate(172.5,346.57293,355.62015)"
             inkscape:transform-center-x="-11.806385"
             inkscape:transform-center-y="88.666214"
             style="fill:#ffffff;fill-opacity:1"><path
               sodipodi:type="star"
               style="fill:#efa900;fill-opacity:1;stroke:#efa900;stroke-width:2.22;stroke-linecap:round;stroke-opacity:1;paint-order:stroke fill markers"
               id="path24269"
               inkscape:flatsided="false"
               sodipodi:sides="5"
               sodipodi:cx="396.99625"
               sodipodi:cy="-372.60107"
               sodipodi:r1="3.6169088"
               sodipodi:r2="1.6637779"
               sodipodi:arg1="0.95906936"
               sodipodi:arg2="1.5873879"
               inkscape:rounded="0"
               inkscape:randomized="0"
               d="m 399.07337,-369.64006 -2.10473,-1.29747 -2.14661,1.22692 0.58356,-2.40265 -1.83021,-1.66242 2.46539,-0.18746 1.01548,-2.25435 0.94014,2.2868 2.45781,0.26915 -1.88435,1.60078 z"
               transform="matrix(1.0133273,0,0,1.0133273,-268.95197,974.58915)"
               inkscape:transform-center-x="1.0196929"
               inkscape:transform-center-y="-89.532179"
               inkscape:label="path5969" /></g><g
             id="g24275"
             transform="rotate(-172.5,301.59553,330.61982)"
             inkscape:transform-center-x="11.777442"
             inkscape:transform-center-y="88.637982"
             style="fill:#ffffff;fill-opacity:1"><path
               sodipodi:type="star"
               style="fill:#efa900;fill-opacity:1;stroke:#efa900;stroke-width:2.22;stroke-linecap:round;stroke-opacity:1;paint-order:stroke fill markers"
               id="path24273"
               inkscape:flatsided="false"
               sodipodi:sides="5"
               sodipodi:cx="396.99625"
               sodipodi:cy="-372.60107"
               sodipodi:r1="3.6169088"
               sodipodi:r2="1.6637779"
               sodipodi:arg1="0.95906936"
               sodipodi:arg2="1.5873879"
               inkscape:rounded="0"
               inkscape:randomized="0"
               d="m 399.07337,-369.64006 -2.10473,-1.29747 -2.14661,1.22692 0.58356,-2.40265 -1.83021,-1.66242 2.46539,-0.18746 1.01548,-2.25435 0.94014,2.2868 2.45781,0.26915 -1.88435,1.60078 z"
               transform="matrix(1.0133273,0,0,1.0133273,-268.95197,974.58915)"
               inkscape:transform-center-x="1.0196929"
               inkscape:transform-center-y="-89.532179"
               inkscape:label="path5969" /></g><g
             id="g24279"
             transform="rotate(-157.5,255.83516,305.18428)"
             inkscape:transform-center-x="34.354019"
             inkscape:transform-center-y="82.323499"
             style="fill:#ffffff;fill-opacity:1"><path
               sodipodi:type="star"
               style="fill:#efa900;fill-opacity:1;stroke:#efa900;stroke-width:2.22;stroke-linecap:round;stroke-opacity:1;paint-order:stroke fill markers"
               id="path24277"
               inkscape:flatsided="false"
               sodipodi:sides="5"
               sodipodi:cx="396.99625"
               sodipodi:cy="-372.60107"
               sodipodi:r1="3.6169088"
               sodipodi:r2="1.6637779"
               sodipodi:arg1="0.95906936"
               sodipodi:arg2="1.5873879"
               inkscape:rounded="0"
               inkscape:randomized="0"
               d="m 399.07337,-369.64006 -2.10473,-1.29747 -2.14661,1.22692 0.58356,-2.40265 -1.83021,-1.66242 2.46539,-0.18746 1.01548,-2.25435 0.94014,2.2868 2.45781,0.26915 -1.88435,1.60078 z"
               transform="matrix(1.0133273,0,0,1.0133273,-268.95197,974.58915)"
               inkscape:transform-center-x="1.0196929"
               inkscape:transform-center-y="-89.532179"
               inkscape:label="path5969" /></g><g
             id="g24283"
             transform="rotate(-142.5,207.61366,278.38074)"
             inkscape:transform-center-x="54.232031"
             inkscape:transform-center-y="70.490924"
             style="fill:#ffffff;fill-opacity:1"><path
               sodipodi:type="star"
               style="fill:#efa900;fill-opacity:1;stroke:#efa900;stroke-width:2.22;stroke-linecap:round;stroke-opacity:1;paint-order:stroke fill markers"
               id="path24281"
               inkscape:flatsided="false"
               sodipodi:sides="5"
               sodipodi:cx="396.99625"
               sodipodi:cy="-372.60107"
               sodipodi:r1="3.6169088"
               sodipodi:r2="1.6637779"
               sodipodi:arg1="0.95906936"
               sodipodi:arg2="1.5873879"
               inkscape:rounded="0"
               inkscape:randomized="0"
               d="m 399.07337,-369.64006 -2.10473,-1.29747 -2.14661,1.22692 0.58356,-2.40265 -1.83021,-1.66242 2.46539,-0.18746 1.01548,-2.25435 0.94014,2.2868 2.45781,0.26915 -1.88435,1.60078 z"
               transform="matrix(1.0133273,0,0,1.0133273,-268.95197,974.58915)"
               inkscape:transform-center-x="1.0196929"
               inkscape:transform-center-y="-89.532179"
               inkscape:label="path5969" /></g><g
             id="g24287"
             transform="rotate(-127.5,154.88049,249.06943)"
             inkscape:transform-center-x="70.414233"
             inkscape:transform-center-y="54.322599"
             style="fill:#ffffff;fill-opacity:1"><path
               sodipodi:type="star"
               style="fill:#efa900;fill-opacity:1;stroke:#efa900;stroke-width:2.22;stroke-linecap:round;stroke-opacity:1;paint-order:stroke fill markers"
               id="path24285"
               inkscape:flatsided="false"
               sodipodi:sides="5"
               sodipodi:cx="396.99625"
               sodipodi:cy="-372.60107"
               sodipodi:r1="3.6169088"
               sodipodi:r2="1.6637779"
               sodipodi:arg1="0.95906936"
               sodipodi:arg2="1.5873879"
               inkscape:rounded="0"
               inkscape:randomized="0"
               d="m 399.07337,-369.64006 -2.10473,-1.29747 -2.14661,1.22692 0.58356,-2.40265 -1.83021,-1.66242 2.46539,-0.18746 1.01548,-2.25435 0.94014,2.2868 2.45781,0.26915 -1.88435,1.60078 z"
               transform="matrix(1.0133273,0,0,1.0133273,-268.95197,974.58915)"
               inkscape:transform-center-x="1.0196929"
               inkscape:transform-center-y="-89.532179"
               inkscape:label="path5969" /></g><g
             id="g24291"
             transform="rotate(-112.5,94.824625,215.68785)"
             inkscape:transform-center-x="82.33541"
             inkscape:transform-center-y="34.452266"
             style="fill:#ffffff;fill-opacity:1"><path
               sodipodi:type="star"
               style="fill:#efa900;fill-opacity:1;stroke:#efa900;stroke-width:2.22;stroke-linecap:round;stroke-opacity:1;paint-order:stroke fill markers"
               id="path24289"
               inkscape:flatsided="false"
               sodipodi:sides="5"
               sodipodi:cx="396.99625"
               sodipodi:cy="-372.60107"
               sodipodi:r1="3.6169088"
               sodipodi:r2="1.6637779"
               sodipodi:arg1="0.95906936"
               sodipodi:arg2="1.5873879"
               inkscape:rounded="0"
               inkscape:randomized="0"
               d="m 399.07337,-369.64006 -2.10473,-1.29747 -2.14661,1.22692 0.58356,-2.40265 -1.83021,-1.66242 2.46539,-0.18746 1.01548,-2.25435 0.94014,2.2868 2.45781,0.26915 -1.88435,1.60078 z"
               transform="matrix(1.0133273,0,0,1.0133273,-268.95197,974.58915)"
               inkscape:transform-center-x="1.0196929"
               inkscape:transform-center-y="-89.532179"
               inkscape:label="path5969" /></g><g
             id="g24295"
             transform="rotate(-97.5,23.183742,175.86683)"
             inkscape:transform-center-x="88.66622"
             inkscape:transform-center-y="11.806393"
             style="fill:#ffffff;fill-opacity:1"><path
               sodipodi:type="star"
               style="fill:#efa900;fill-opacity:1;stroke:#efa900;stroke-width:2.22;stroke-linecap:round;stroke-opacity:1;paint-order:stroke fill markers"
               id="path24293"
               inkscape:flatsided="false"
               sodipodi:sides="5"
               sodipodi:cx="396.99625"
               sodipodi:cy="-372.60107"
               sodipodi:r1="3.6169088"
               sodipodi:r2="1.6637779"
               sodipodi:arg1="0.95906936"
               sodipodi:arg2="1.5873879"
               inkscape:rounded="0"
               inkscape:randomized="0"
               d="m 399.07337,-369.64006 -2.10473,-1.29747 -2.14661,1.22692 0.58356,-2.40265 -1.83021,-1.66242 2.46539,-0.18746 1.01548,-2.25435 0.94014,2.2868 2.45781,0.26915 -1.88435,1.60078 z"
               transform="matrix(1.0133273,0,0,1.0133273,-268.95197,974.58915)"
               inkscape:transform-center-x="1.0196929"
               inkscape:transform-center-y="-89.532179"
               inkscape:label="path5969" /></g><g
             id="g24299"
             transform="rotate(-82.5,-67.159164,125.65044)"
             inkscape:transform-center-x="88.637986"
             inkscape:transform-center-y="-11.777433"
             style="fill:#ffffff;fill-opacity:1"><path
               sodipodi:type="star"
               style="fill:#efa900;fill-opacity:1;stroke:#efa900;stroke-width:2.22;stroke-linecap:round;stroke-opacity:1;paint-order:stroke fill markers"
               id="path24297"
               inkscape:flatsided="false"
               sodipodi:sides="5"
               sodipodi:cx="396.99625"
               sodipodi:cy="-372.60107"
               sodipodi:r1="3.6169088"
               sodipodi:r2="1.6637779"
               sodipodi:arg1="0.95906936"
               sodipodi:arg2="1.5873879"
               inkscape:rounded="0"
               inkscape:randomized="0"
               d="m 399.07337,-369.64006 -2.10473,-1.29747 -2.14661,1.22692 0.58356,-2.40265 -1.83021,-1.66242 2.46539,-0.18746 1.01548,-2.25435 0.94014,2.2868 2.45781,0.26915 -1.88435,1.60078 z"
               transform="matrix(1.0133273,0,0,1.0133273,-268.95197,974.58915)"
               inkscape:transform-center-x="1.0196929"
               inkscape:transform-center-y="-89.532179"
               inkscape:label="path5969" /></g><g
             id="g24303"
             transform="rotate(-67.5,-189.41804,57.69381)"
             inkscape:transform-center-x="82.323501"
             inkscape:transform-center-y="-34.354012"
             style="fill:#ffffff;fill-opacity:1"><path
               sodipodi:type="star"
               style="fill:#efa900;fill-opacity:1;stroke:#efa900;stroke-width:2.22;stroke-linecap:round;stroke-opacity:1;paint-order:stroke fill markers"
               id="path24301"
               inkscape:flatsided="false"
               sodipodi:sides="5"
               sodipodi:cx="396.99625"
               sodipodi:cy="-372.60107"
               sodipodi:r1="3.6169088"
               sodipodi:r2="1.6637779"
               sodipodi:arg1="0.95906936"
               sodipodi:arg2="1.5873879"
               inkscape:rounded="0"
               inkscape:randomized="0"
               d="m 399.07337,-369.64006 -2.10473,-1.29747 -2.14661,1.22692 0.58356,-2.40265 -1.83021,-1.66242 2.46539,-0.18746 1.01548,-2.25435 0.94014,2.2868 2.45781,0.26915 -1.88435,1.60078 z"
               transform="matrix(1.0133273,0,0,1.0133273,-268.95197,974.58915)"
               inkscape:transform-center-x="1.0196929"
               inkscape:transform-center-y="-89.532179"
               inkscape:label="path5969" /></g><g
             id="g24307"
             transform="rotate(-52.5,-371.67655,-43.613143)"
             inkscape:transform-center-x="70.49092"
             inkscape:transform-center-y="-54.232028"
             style="fill:#ffffff;fill-opacity:1"><path
               sodipodi:type="star"
               style="fill:#efa900;fill-opacity:1;stroke:#efa900;stroke-width:2.22;stroke-linecap:round;stroke-opacity:1;paint-order:stroke fill markers"
               id="path24305"
               inkscape:flatsided="false"
               sodipodi:sides="5"
               sodipodi:cx="396.99625"
               sodipodi:cy="-372.60107"
               sodipodi:r1="3.6169088"
               sodipodi:r2="1.6637779"
               sodipodi:arg1="0.95906936"
               sodipodi:arg2="1.5873879"
               inkscape:rounded="0"
               inkscape:randomized="0"
               d="m 399.07337,-369.64006 -2.10473,-1.29747 -2.14661,1.22692 0.58356,-2.40265 -1.83021,-1.66242 2.46539,-0.18746 1.01548,-2.25435 0.94014,2.2868 2.45781,0.26915 -1.88435,1.60078 z"
               transform="matrix(1.0133273,0,0,1.0133273,-268.95197,974.58915)"
               inkscape:transform-center-x="1.0196929"
               inkscape:transform-center-y="-89.532179"
               inkscape:label="path5969" /></g><g
             id="g24311"
             transform="rotate(-37.5,-686.68891,-218.71027)"
             inkscape:transform-center-x="54.32259"
             inkscape:transform-center-y="-70.414223"
             style="fill:#ffffff;fill-opacity:1"><path
               sodipodi:type="star"
               style="fill:#efa900;fill-opacity:1;stroke:#efa900;stroke-width:2.22;stroke-linecap:round;stroke-opacity:1;paint-order:stroke fill markers"
               id="path24309"
               inkscape:flatsided="false"
               sodipodi:sides="5"
               sodipodi:cx="396.99625"
               sodipodi:cy="-372.60107"
               sodipodi:r1="3.6169088"
               sodipodi:r2="1.6637779"
               sodipodi:arg1="0.95906936"
               sodipodi:arg2="1.5873879"
               inkscape:rounded="0"
               inkscape:randomized="0"
               d="m 399.07337,-369.64006 -2.10473,-1.29747 -2.14661,1.22692 0.58356,-2.40265 -1.83021,-1.66242 2.46539,-0.18746 1.01548,-2.25435 0.94014,2.2868 2.45781,0.26915 -1.88435,1.60078 z"
               transform="matrix(1.0133273,0,0,1.0133273,-268.95197,974.58915)"
               inkscape:transform-center-x="1.0196929"
               inkscape:transform-center-y="-89.532179"
               inkscape:label="path5969" /></g><g
             id="g24315"
             transform="rotate(-22.5,-1400.8525,-615.67245)"
             inkscape:transform-center-x="34.452265"
             inkscape:transform-center-y="-82.335403"
             style="fill:#ffffff;fill-opacity:1"><path
               sodipodi:type="star"
               style="fill:#efa900;fill-opacity:1;stroke:#efa900;stroke-width:2.22;stroke-linecap:round;stroke-opacity:1;paint-order:stroke fill markers"
               id="path24313"
               inkscape:flatsided="false"
               sodipodi:sides="5"
               sodipodi:cx="396.99625"
               sodipodi:cy="-372.60107"
               sodipodi:r1="3.6169088"
               sodipodi:r2="1.6637779"
               sodipodi:arg1="0.95906936"
               sodipodi:arg2="1.5873879"
               inkscape:rounded="0"
               inkscape:randomized="0"
               d="m 399.07337,-369.64006 -2.10473,-1.29747 -2.14661,1.22692 0.58356,-2.40265 -1.83021,-1.66242 2.46539,-0.18746 1.01548,-2.25435 0.94014,2.2868 2.45781,0.26915 -1.88435,1.60078 z"
               transform="matrix(1.0133273,0,0,1.0133273,-268.95197,974.58915)"
               inkscape:transform-center-x="1.0196929"
               inkscape:transform-center-y="-89.532179"
               inkscape:label="path5969" /></g><g
             id="g24319"
             transform="rotate(-7.5000002,-4910.7816,-2566.6388)"
             inkscape:transform-center-x="11.806395"
             inkscape:transform-center-y="-88.666211"
             style="fill:#ffffff;fill-opacity:1"><path
               sodipodi:type="star"
               style="fill:#efa900;fill-opacity:1;stroke:#efa900;stroke-width:2.22;stroke-linecap:round;stroke-opacity:1;paint-order:stroke fill markers"
               id="path24317"
               inkscape:flatsided="false"
               sodipodi:sides="5"
               sodipodi:cx="396.99625"
               sodipodi:cy="-372.60107"
               sodipodi:r1="3.6169088"
               sodipodi:r2="1.6637779"
               sodipodi:arg1="0.95906936"
               sodipodi:arg2="1.5873879"
               inkscape:rounded="0"
               inkscape:randomized="0"
               d="m 399.07337,-369.64006 -2.10473,-1.29747 -2.14661,1.22692 0.58356,-2.40265 -1.83021,-1.66242 2.46539,-0.18746 1.01548,-2.25435 0.94014,2.2868 2.45781,0.26915 -1.88435,1.60078 z"
               transform="matrix(1.0133273,0,0,1.0133273,-268.95197,974.58915)"
               inkscape:transform-center-x="1.0196929"
               inkscape:transform-center-y="-89.532179"
               inkscape:label="path5969" /></g></g></g><g
         id="g24164"
         inkscape:label="Texts"
         transform="translate(-779.20394,9.7161123)"><circle
           style="fill:none;fill-opacity:1;stroke:none;stroke-width:3.01836;stroke-linecap:round;stroke-opacity:1;paint-order:stroke fill markers"
           id="circle24148"
           cx="-1.4210855e-14"
           cy="-55.295727"
           transform="matrix(0,-1,-1,0,0,0)"
           r="76.490822"
           inkscape:label="Bottom-text-path" /><circle
           style="fill:none;fill-opacity:1;stroke:none;stroke-width:2.48601;stroke-linecap:round;stroke-opacity:1;paint-order:stroke fill markers"
           id="circle24150"
           cx="1.4210855e-14"
           cy="-55.295727"
           transform="rotate(90)"
           inkscape:label="Top-text-path"
           r="63" /><g
           aria-label="Cexplorer.io"
           id="text24158"
           style="font-size:16.8px;font-family:ROBOTO;-inkscape-font-specification:ROBOTO;text-align:center;letter-spacing:1.2px;text-anchor:middle;fill:#fefeff;stroke:#ffffff;stroke-width:0.744;stroke-linecap:round;paint-order:stroke fill markers"><path
             d="m 14.858755,-48.055292 q -1.276057,1.082623 -2.776689,1.355314 -1.499685,0.261129 -2.987961,-0.32652 -1.4873279,-0.599212 -2.7397738,-2.075435 -1.2630598,-1.488732 -1.6119449,-3.053813 -0.3426299,-1.570388 0.1646503,-3.001236 0.5135355,-1.436154 1.7895923,-2.518777 0.8194286,-0.695214 1.7269808,-1.045643 0.9075521,-0.350429 1.8275993,-0.356455 0.926303,-0.01133 1.806343,0.328555 0.880039,0.33989 1.656004,1.026262 l -1.945361,1.650469 q -0.431578,-0.343851 -0.889889,-0.503656 -0.463618,-0.16606 -0.92459,-0.151485 -0.466279,0.0083 -0.9183498,0.198225 -0.4511226,0.178342 -0.8702197,0.533909 -0.7944079,0.673986 -1.0336487,1.53318 -0.2329856,0.853886 0.061147,1.809201 0.2888255,0.94906 1.1007925,1.906103 0.80666,0.950787 1.6897276,1.395684 0.8893231,0.43959 1.7760141,0.343529 0.886692,-0.09606 1.6811,-0.770048 0.419097,-0.355567 0.673861,-0.765351 0.254765,-0.409783 0.338942,-0.868477 0.08418,-0.458693 0.0012,-0.936917 -0.083,-0.478223 -0.334126,-0.964414 l 1.939106,-1.645162 q 0.545472,0.871168 0.737441,1.794824 0.19197,0.923657 0.02987,1.835737 -0.162098,0.91208 -0.655706,1.750413 -0.49266,0.826771 -1.312089,1.521984 z"
             style="font-weight:bold;font-family:Inter;-inkscape-font-specification:Inter"
             id="path5443" /><path
             d="m 24.407684,-54.696185 q -1.103047,0.632425 -2.175545,0.575976 -1.065382,-0.06053 -1.984075,-0.706316 -0.922773,-0.652904 -1.571518,-1.784416 -0.656906,-1.145745 -0.732824,-2.284189 -0.07592,-1.138443 0.402965,-2.084367 0.474803,-0.95304 1.471103,-1.524262 0.782807,-0.448818 1.572259,-0.523215 0.796568,-0.07848 1.546835,0.191089 0.750267,0.269565 1.401285,0.860796 0.654055,0.580033 1.155915,1.455354 l 0.191767,0.334472 -6.177059,3.541579 -0.595704,-1.038998 5.500999,-3.153964 -0.311411,0.660789 q -0.440657,-0.768574 -1.04053,-1.171645 -0.596838,-0.414268 -1.270434,-0.434664 -0.677677,-0.02751 -1.353738,0.360104 -0.668944,0.383535 -0.987567,0.982269 -0.315587,0.587538 -0.266715,1.315978 0.05191,0.717244 0.492566,1.485818 l 0.293772,0.512383 q 0.444737,0.775691 1.050778,1.222505 0.613158,0.442733 1.321389,0.49055 0.70415,0.0407 1.437142,-0.379556 0.533732,-0.306012 0.845525,-0.702259 0.307712,-0.403363 0.399653,-0.853219 0.09906,-0.453936 -0.01149,-0.910622 l 1.209793,-0.693627 q 0.269767,0.800362 0.135605,1.605377 -0.138243,0.797899 -0.638857,1.49152 -0.493497,0.689542 -1.311886,1.15876 z"
             style="font-family:Inter;-inkscape-font-specification:Inter"
             id="path5446" /><path
             d="m 29.024949,-57.419381 1.614151,-5.923659 0.376633,1.006479 -4.912407,-3.239941 1.532131,-0.586708 1.70565,1.17392 q 0.511287,0.348818 1.007253,0.703503 0.493033,0.347025 0.999593,0.706438 l -0.643494,0.246417 q 0.144595,-0.608763 0.279735,-1.196338 0.139868,-0.59817 0.287397,-1.199272 l 0.500618,-2.018779 1.509149,-0.577907 -1.49956,5.695313 -0.387227,-1.011206 5.122496,3.352738 -1.524469,0.583774 -1.99104,-1.345722 q -0.497759,-0.33643 -0.977264,-0.671067 -0.479505,-0.334637 -0.972538,-0.681662 l 0.651156,-0.249351 q -0.135141,0.587575 -0.276149,1.159829 -0.141008,0.572254 -0.286743,1.155102 l -0.598262,2.337258 z"
             style="font-family:Inter;-inkscape-font-specification:Inter"
             id="path5448" /><path
             d="m 39.607891,-57.605288 -2.432547,-11.844188 1.333878,-0.273951 0.257447,1.253524 0.01607,-0.0033 q 0.175836,-0.530199 0.529315,-0.929396 0.353479,-0.399197 0.836389,-0.657489 0.48126,-0.266327 1.027668,-0.378548 1.108886,-0.227742 2.050404,0.15672 0.941518,0.384462 1.604173,1.286785 0.661006,0.894288 0.930005,2.204059 0.267349,1.301736 0.01397,2.392193 -0.255031,1.082423 -0.967157,1.814882 -0.713776,0.724425 -1.822662,0.952166 -0.546407,0.112221 -1.069573,0.05218 -0.521516,-0.052 -0.997333,-0.289255 -0.475818,-0.23725 -0.881832,-0.664699 l -0.01607,0.0033 0.953875,4.644465 z m 2.915536,-5.213053 q 0.739258,-0.151828 1.227473,-0.628942 0.488214,-0.477115 0.664404,-1.250243 0.176189,-0.773128 -0.0367,-1.809695 -0.214539,-1.044603 -0.681182,-1.685706 -0.466643,-0.641104 -1.103385,-0.887176 -0.636742,-0.246072 -1.375999,-0.09424 -0.78747,0.16173 -1.285155,0.674286 -0.497684,0.512557 -0.664188,1.29207 -0.166504,0.779513 0.03153,1.743762 0.196386,0.956213 0.656644,1.607002 0.460257,0.65079 1.119671,0.925703 0.659415,0.274913 1.446884,0.113183 z"
             style="font-family:Inter;-inkscape-font-specification:Inter"
             id="path5450" /><path
             d="m 49.868364,-75.032574 0.983695,12.183007 -1.390008,0.112234 -0.983695,-12.183007 z"
             style="font-family:Inter;-inkscape-font-specification:Inter"
             id="path5452" /><path
             d="m 57.684922,-62.75852 q -1.196813,-0.04493 -2.085176,-0.652908 -0.879858,-0.615865 -1.349932,-1.651417 -0.461876,-1.035245 -0.412327,-2.355018 0.04986,-1.327971 0.588364,-2.333866 0.546705,-1.005588 1.470265,-1.553747 0.931756,-0.547851 2.128569,-0.502918 1.20501,0.04524 2.084868,0.661105 0.879858,0.615865 1.341427,1.659307 0.469766,1.04375 0.419909,2.37172 -0.04955,1.319774 -0.595946,2.317164 -0.5382,0.997698 -1.461759,1.545857 -0.923252,0.539961 -2.128262,0.494721 z m 0.04739,-1.262392 q 0.819735,0.03078 1.416827,-0.349044 0.597092,-0.379819 0.935982,-1.097689 0.339197,-0.726066 0.37582,-1.701551 0.03724,-0.991879 -0.24687,-1.733138 -0.283802,-0.749456 -0.850425,-1.181174 -0.566624,-0.431719 -1.386359,-0.462494 -0.811538,-0.03047 -1.417135,0.357241 -0.597092,0.379819 -0.936289,1.105886 -0.339198,0.726067 -0.376436,1.717946 -0.03693,0.983682 0.247178,1.724941 0.284109,0.741259 0.851041,1.164779 0.566931,0.423521 1.386666,0.454297 z"
             style="font-family:Inter;-inkscape-font-specification:Inter"
             id="path5454" /><path
             d="m 64.50772,-62.351707 1.472099,-8.5365 1.309576,0.225834 -0.231409,1.341912 0.03234,0.0056 q 0.348741,-0.622445 0.927723,-0.938812 0.578981,-0.316366 1.379278,-0.178357 0.185928,0.03206 0.336732,0.07472 0.158888,0.04405 0.236938,0.07416 l -0.236986,1.374247 q -0.07666,-0.03819 -0.30551,-0.110954 -0.219376,-0.07945 -0.518477,-0.131031 -0.468861,-0.08085 -0.91069,0.06771 -0.441829,0.148561 -0.763804,0.567517 -0.321974,0.418956 -0.447437,1.146498 l -0.906121,5.254475 z"
             style="font-family:Inter;-inkscape-font-specification:Inter"
             id="path5456" /><path
             d="m 74.208055,-59.905665 q -1.213253,-0.380379 -1.900034,-1.206073 -0.678954,-0.82324 -0.828643,-1.936178 -0.147235,-1.120766 0.242959,-2.36533 0.395103,-1.260218 1.179334,-2.088951 0.78423,-0.828733 1.803832,-1.119444 1.022056,-0.298538 2.117898,0.04503 0.861019,0.269946 1.451672,0.799 0.59848,0.531509 0.910009,1.265345 0.311529,0.733836 0.319521,1.613219 0.01827,0.87401 -0.283575,1.836786 l -0.11534,0.367889 -6.794221,-2.130118 0.358292,-1.142807 6.050614,1.896984 -0.696561,0.220053 q 0.265038,-0.845364 0.153638,-1.55944 -0.101118,-0.719449 -0.543515,-1.227813 -0.439943,-0.516191 -1.18355,-0.749326 -0.73578,-0.230681 -1.391679,-0.05806 -0.645618,0.167251 -1.147213,0.697738 -0.491313,0.525114 -0.756351,1.370478 l -0.176691,0.563576 q -0.267492,0.853191 -0.184017,1.601497 0.0913,0.750759 0.537083,1.303168 0.448236,0.544582 1.254463,0.797349 0.587058,0.184054 1.089665,0.143904 0.505062,-0.04798 0.897748,-0.28593 0.400513,-0.235499 0.660725,-0.626743 l 1.330665,0.417189 q -0.404408,0.741491 -1.086499,1.189598 -0.679637,0.440281 -1.528769,0.543726 -0.841304,0.105899 -1.74146,-0.176316 z"
             style="font-family:Inter;-inkscape-font-specification:Inter"
             id="path5458" /><path
             d="m 80.477228,-57.777399 3.609932,-7.874471 1.208016,0.553797 -0.567471,1.237843 0.02983,0.01367 q 0.496566,-0.512329 1.137275,-0.669808 0.640708,-0.157479 1.37894,0.180953 0.171508,0.07862 0.306352,0.15849 0.142301,0.08328 0.210033,0.132383 l -0.581145,1.26767 q -0.06431,-0.05656 -0.266889,-0.185519 -0.1917,-0.133003 -0.467605,-0.259487 -0.432499,-0.198273 -0.897643,-0.167862 -0.465143,0.03041 -0.883704,0.352899 -0.418561,0.322487 -0.726226,0.993607 l -2.222023,4.846975 z"
             style="font-family:Inter;-inkscape-font-specification:Inter"
             id="path5460" /><path
             d="m 86.108686,-54.803396 q -0.371631,-0.209394 -0.491095,-0.615669 -0.10829,-0.409396 0.101104,-0.781026 0.213422,-0.378778 0.61567,-0.491095 0.409395,-0.108291 0.781026,0.101104 0.378777,0.213422 0.491095,0.61567 0.112317,0.402248 -0.101105,0.781026 -0.209394,0.371631 -0.615669,0.491095 -0.402249,0.112317 -0.781026,-0.101105 z"
             style="font-family:Inter;-inkscape-font-specification:Inter"
             id="path5462" /><path
             d="m 89.66592,-52.811898 4.811696,-7.203227 1.159611,0.774611 -4.811697,7.203226 z m 6.330147,-8.221096 q -0.327419,-0.218714 -0.404419,-0.605558 -0.077,-0.386844 0.141713,-0.714263 0.218714,-0.32742 0.605558,-0.40442 0.386844,-0.077 0.714263,0.141714 0.32742,0.218713 0.40442,0.605557 0.077,0.386844 -0.141714,0.714264 -0.218713,0.327419 -0.605557,0.404419 -0.386845,0.077 -0.714264,-0.141713 z"
             style="font-family:Inter;-inkscape-font-specification:Inter"
             id="path5464" /><path
             d="m 96.123878,-47.722538 q -0.909702,-0.778988 -1.227838,-1.807391 -0.306569,-1.029298 -0.03127,-2.132725 0.281525,-1.098091 1.140546,-2.101256 0.864356,-1.009396 1.911379,-1.462783 1.053253,-0.448052 2.117465,-0.303533 1.07044,0.149855 1.98015,0.928843 0.91593,0.784323 1.2225,1.813621 0.30657,1.029298 0.0197,2.13362 -0.28063,1.109658 -1.14499,2.119054 -0.85902,1.003165 -1.90694,1.444986 -1.041679,0.447156 -2.105894,0.302637 -1.058879,-0.15075 -1.974813,-0.935073 z m 0.821672,-0.959549 q 0.623084,0.533553 1.326915,0.607065 0.70383,0.07351 1.415465,-0.278283 0.71697,-0.358025 1.3519,-1.099495 0.6456,-0.753931 0.88369,-1.511226 0.24342,-0.763526 0.0678,-1.45389 -0.17561,-0.690365 -0.7987,-1.223918 -0.61685,-0.528218 -1.332246,-0.600835 -0.70383,-0.07351 -1.4208,0.284514 -0.71697,0.358025 -1.362569,1.111957 -0.640264,0.7477 -0.878355,1.504995 -0.23809,0.757295 -0.05714,1.441429 0.180949,0.684134 0.804032,1.217687 z"
             style="font-family:Inter;-inkscape-font-specification:Inter"
             id="path5466" /></g><g
           aria-label="80M ADA stake"
           id="text24162"
           style="font-size:16.8px;font-family:ROBOTO;-inkscape-font-specification:ROBOTO;text-align:center;letter-spacing:1.34783px;text-anchor:middle;fill:#fefeff;stroke:#ffffff;stroke-width:0.744;stroke-linecap:round;paint-order:stroke fill markers"><path
             d="M -1.8379964,51.155161 Q -2.7577212,50.12884 -3.134684,49.05673 q -0.3653792,-1.071475 -0.1676032,-2.030775 0.1977759,-0.9593 0.9614076,-1.643619 0.6231234,-0.558404 1.3520935,-0.715987 0.72897007,-0.157582 1.4839705,0.05805 0.760475,0.221741 1.4256697,0.80424 l -0.00611,0.0055 Q 1.2772324,44.552296 1.3494922,43.551266 1.4333356,42.55087 2.270276,41.800857 2.9911443,41.15486 3.902914,41.053764 q 0.9233534,-0.100461 1.8699631,0.328987 0.9581934,0.430082 1.7848507,1.352549 0.843081,0.940795 1.1665673,1.928647 0.3234863,0.987852 0.1234083,1.883125 -0.200078,0.895273 -0.9331644,1.552219 -0.8308312,0.744539 -1.8343994,0.718614 -0.997459,-0.0314 -1.9098791,-0.766862 l 0.00611,-0.0055 q 0.5063593,0.724838 0.6382363,1.498874 0.131877,0.774035 -0.1104925,1.486907 Q 4.4733285,51.74483 3.8563141,52.29776 3.0926824,52.982079 2.1120455,53.067784 1.1368832,53.159594 0.10625168,52.673265 -0.91279626,52.187566 -1.8379955,51.155136 Z m 1.36842794,-1.226299 q 0.42154051,0.470397 0.90400896,0.676909 0.48857751,0.201038 0.9692159,0.1228 0.4922219,-0.0776 0.8893104,-0.43345 0.4154156,-0.372269 0.5463171,-0.85307 Q 2.9762945,48.955775 2.835933,48.442688 2.7016806,47.924127 2.2856147,47.459839 1.8750233,47.00166 1.3742277,46.811571 0.87954109,46.616008 0.38121009,46.699086 q -0.49222194,0.0776 -0.90763758,0.449873 -0.40319753,0.36132 -0.53346451,0.830538 -0.1247925,0.475326 0.021678,0.982939 0.1525796,0.502138 0.56864554,0.966426 z M 3.6784789,46.211641 q 0.3667949,0.409306 0.7932489,0.577895 0.4264539,0.168589 0.8552833,0.0817 0.4404129,-0.08625 0.8130652,-0.420198 0.3726523,-0.333948 0.4942722,-0.751356 0.1332036,-0.416774 0.012202,-0.85909 Q 6.5310241,44.404388 6.1587546,43.988973 5.7974341,43.585775 5.3709802,43.417186 4.9445263,43.248597 4.5102224,43.329373 q -0.4227203,0.08141 -0.7953726,0.415358 -0.3726523,0.333948 -0.5058558,0.750722 -0.127729,0.422883 -0.012837,0.870674 0.1210012,0.442316 0.4823219,0.845514 z"
             style="font-weight:bold;font-family:Inter;-inkscape-font-specification:'Inter Bold'"
             id="path5469" /><path
             d="M 6.8385656,59.441314 Q 5.6501471,58.471382 5.2682158,57.174944 4.8978264,55.877339 5.326029,54.405611 5.7605867,52.93907 6.9898597,51.432893 8.2243195,49.92036 9.574023,49.20072 q 1.356059,-0.714454 2.701568,-0.611622 1.345509,0.102832 2.540282,1.077951 1.188419,0.969933 1.558808,2.267539 0.381931,1.296437 -0.05781,2.769333 -0.428203,1.471727 -1.662663,2.98426 -1.229273,1.506177 -2.585331,2.220631 Q 10.71917,60.628453 9.3673061,60.520434 8.026984,60.411247 6.8385656,59.441314 Z M 8.1145198,57.87794 q 0.6164524,0.503121 1.3880837,0.465821 0.7716315,-0.0373 1.6199845,-0.583757 0.848353,-0.546458 1.688616,-1.575997 0.845449,-1.035894 1.210808,-1.976548 0.36536,-0.940655 0.247266,-1.704108 -0.112907,-0.769807 -0.729359,-1.272928 -0.616452,-0.50312 -1.399626,-0.464652 -0.771631,0.0373 -1.619984,0.583758 -0.8419981,0.551644 -1.6874474,1.587538 -0.8402626,1.029539 -1.2119773,1.965006 -0.3653595,0.940655 -0.2472657,1.704108 0.1244489,0.768639 0.7409012,1.271759 z"
             style="font-weight:bold;font-family:Inter;-inkscape-font-specification:'Inter Bold'"
             id="path5471" /><path
             d="m 13.037024,64.109383 5.833585,-10.740698 3.236627,1.757906 -0.943823,5.965844 q -0.07588,0.397527 -0.194652,0.977134 -0.114852,0.572398 -0.249901,1.19917 -0.131134,0.619564 -0.267612,1.180217 -0.129268,0.564567 -0.218948,0.935933 l -0.555056,-0.301468 q 0.262684,-0.277401 0.658668,-0.697108 0.403193,-0.415791 0.851502,-0.863089 0.452224,-0.454505 0.862625,-0.866382 0.421525,-0.415169 0.706457,-0.699158 l 4.46879,-4.051331 3.236627,1.757906 -5.833585,10.740698 -2.176974,-1.182377 2.771932,-5.103634 q 0.195758,-0.360426 0.480321,-0.849984 0.284563,-0.489558 0.604362,-1.043992 0.323714,-0.561643 0.651344,-1.130494 0.331545,-0.57606 0.620645,-1.091159 l 0.266715,0.144861 q -0.475093,0.479425 -0.980265,0.979853 -0.497962,0.504344 -0.96914,0.97656 -0.471179,0.472216 -0.880958,0.86576 -0.398656,0.390251 -0.686881,0.663115 l -4.588479,4.117014 -1.802131,-0.978789 0.933759,-6.101999 q 0.07197,-0.39032 0.175075,-0.941092 0.107022,-0.557981 0.2394,-1.214209 0.139586,-0.652313 0.277123,-1.352415 0.144745,-0.696186 0.281038,-1.359623 l 0.317174,0.172267 q -0.274682,0.522928 -0.577393,1.114649 -0.298796,0.584512 -0.593676,1.161816 -0.290965,0.570095 -0.553903,1.071398 -0.255729,0.505218 -0.451487,0.865644 l -2.771931,5.103634 z"
             style="font-weight:bold;font-family:Inter;-inkscape-font-specification:'Inter Bold'"
             id="path5473" /><path
             d="m 31.508346,72.961912 7.042005,-10.872424 3.157495,0.763265 1.298246,12.888521 -2.718954,-0.657256 -0.468401,-6.231786 q -0.06724,-1.223086 -0.142973,-2.515743 -0.06584,-1.298702 -0.116435,-2.939736 l 0.677745,0.163832 q -0.810536,1.432871 -1.470286,2.556177 -0.649849,1.117259 -1.284278,2.170731 l -3.326971,5.314327 z m 3.273609,-1.95147 0.47415,-1.961474 6.211334,1.501473 -0.474149,1.961474 z"
             style="font-weight:bold;font-family:Inter;-inkscape-font-specification:'Inter Bold'"
             id="path5475" /><path
             d="m 49.6626,76.287215 -3.150792,-0.216226 0.145461,-2.119624 3.019851,0.20724 q 1.227581,0.08424 2.061052,-0.319013 0.834033,-0.411442 1.287514,-1.268342 0.454044,-0.865085 0.542219,-2.149953 0.08818,-1.284869 -0.243994,-2.195685 -0.332171,-0.910817 -1.102739,-1.424154 -0.762385,-0.512775 -1.973599,-0.595895 l -3.101689,-0.212857 0.145461,-2.119624 3.257183,0.223528 q 1.833188,0.125804 3.124236,0.962644 1.291609,0.828655 1.926182,2.245348 0.634574,1.416692 0.505961,3.290799 -0.128613,1.874108 -0.951331,3.199014 -0.822157,1.316723 -2.223604,1.968787 -1.393264,0.652626 -3.267372,0.524013 z M 48.71534,63.970805 47.878515,76.16478 45.357881,75.991799 46.194706,63.797824 Z"
             style="font-weight:bold;font-family:Inter;-inkscape-font-specification:'Inter Bold'"
             id="path5477" /><path
             d="m 56.981303,76.700294 3.072032,-12.584198 3.232808,-0.318278 5.467151,11.743495 -2.783807,0.274073 -2.493,-5.730578 Q 63.010516,68.951966 62.513625,67.756226 62.024093,66.551518 61.436299,65.01853 l 0.693911,-0.06832 q -0.293881,1.619791 -0.547242,2.897638 -0.246001,1.26888 -0.498432,2.472451 l -1.3929,6.113153 z m 2.449121,-2.920027 -0.197718,-2.008259 6.359487,-0.626107 0.197718,2.008259 z"
             style="font-weight:bold;font-family:Inter;-inkscape-font-specification:'Inter Bold'"
             id="path5479" /><path
             d="m 79.288603,72.876869 q -1.067546,0.351191 -2.008987,0.298202 -0.944005,-0.06078 -1.647788,-0.520106 -0.703782,-0.459325 -1.071374,-1.314221 l 2.259769,-0.743397 q 0.239216,0.517162 0.728805,0.69289 0.48959,0.175728 1.159728,-0.04473 0.638969,-0.210202 0.917949,-0.569682 0.286772,-0.362043 0.161163,-0.743866 -0.107664,-0.327277 -0.454836,-0.437593 -0.339381,-0.11288 -0.876642,-0.03976 l -1.53386,0.193713 q -1.276919,0.161 -2.100251,-0.241725 -0.823333,-0.402725 -1.136072,-1.353386 -0.256344,-0.779231 -0.02782,-1.50208 0.236319,-0.725412 0.910449,-1.30124 0.681922,-0.578392 1.75726,-0.932146 1.067546,-0.351191 1.975153,-0.2698 0.905043,0.0736 1.554279,0.550867 0.657029,0.474706 0.962384,1.324169 l -2.1273,0.699818 q -0.171852,-0.496144 -0.661339,-0.697812 -0.489488,-0.201669 -1.10508,8.43e-4 -0.592215,0.194821 -0.842691,0.562195 -0.253039,0.359581 -0.132558,0.72582 0.105101,0.319484 0.436689,0.434927 0.331588,0.115444 0.832451,0.06294 l 1.658435,-0.208787 q 1.326236,-0.168588 2.092663,0.192408 0.771656,0.35064 1.071578,1.26234 0.269161,0.818192 0.0041,1.587591 -0.259798,0.759042 -0.972991,1.373628 -0.707965,0.60423 -1.783303,0.957984 z"
             style="font-weight:bold;font-family:Inter;-inkscape-font-specification:'Inter Bold'"
             id="path5481" /><path
             d="m 86.307593,60.400549 0.800117,1.717714 -5.153144,2.400349 -0.800116,-1.717715 z m -4.79734,-0.371612 2.193618,-1.021794 3.526054,7.569841 q 0.183576,0.394108 0.41247,0.477526 0.23633,0.07995 0.682489,-0.127868 0.1859,-0.08659 0.438724,-0.204359 0.260259,-0.12123 0.401543,-0.18704 l 0.800117,1.717714 q -0.200772,0.09352 -0.5577,0.259778 -0.356928,0.166258 -0.721291,0.33598 -1.293863,0.602685 -2.146582,0.384525 -0.845284,-0.221624 -1.344058,-1.292407 z"
             style="font-weight:bold;font-family:Inter;-inkscape-font-specification:'Inter Bold'"
             id="path5483" /><path
             d="m 94.722891,65.742072 q -0.731583,0.454612 -1.454452,0.565782 -0.722869,0.11117 -1.353415,-0.173058 -0.634875,-0.291196 -1.089487,-1.022779 -0.385339,-0.620103 -0.410862,-1.174061 -0.02985,-0.560926 0.211425,-1.058544 0.243915,-0.508915 0.677244,-0.961691 0.440296,-0.457105 0.981319,-0.860908 0.632547,-0.48965 0.990725,-0.799147 0.358178,-0.309497 0.458761,-0.536185 0.100582,-0.226688 -0.04663,-0.463581 l -0.03031,-0.04877 q -0.168857,-0.271731 -0.440733,-0.382865 -0.276206,-0.118101 -0.62154,-0.06769 -0.338368,0.04608 -0.71461,0.27988 -0.376243,0.233801 -0.595272,0.534093 -0.212062,0.295962 -0.245062,0.615865 -0.033,0.319902 0.116646,0.622887 l -1.929985,1.199311 q -0.423159,-0.78976 -0.372386,-1.593946 0.05774,-0.808516 0.596182,-1.558399 0.534111,-0.756851 1.544391,-1.38465 0.752486,-0.467602 1.45296,-0.661435 0.696145,-0.200801 1.303751,-0.12445 0.614573,0.07202 1.113683,0.408951 0.49911,0.33693 0.86713,0.929164 l 3.100026,4.988697 -2.006627,1.246938 -0.645117,-1.03815 -0.02787,0.01732 q 0.03005,0.483538 -0.09542,0.918849 -0.125468,0.435311 -0.445626,0.837077 -0.324487,0.394798 -0.88885,0.7455 z m -0.316247,-1.78336 q 0.49469,-0.307404 0.737459,-0.70937 0.249737,-0.406296 0.249992,-0.841061 2.54e-4,-0.434766 -0.246535,-0.831911 l -0.458943,-0.73855 q -0.06027,0.105058 -0.176278,0.244753 -0.120339,0.132727 -0.28945,0.295762 -0.17344,0.156067 -0.377388,0.34075 -0.203949,0.184683 -0.426161,0.371058 -0.320703,0.276552 -0.532765,0.572514 -0.216391,0.288994 -0.26238,0.587995 -0.05032,0.292032 0.131527,0.584666 0.160196,0.257795 0.416446,0.359324 0.256249,0.101528 0.57466,0.03888 0.318411,-0.06265 0.659816,-0.274806 z"
             style="font-weight:bold;font-family:Inter;-inkscape-font-specification:'Inter Bold'"
             id="path5485" /><path
             d="m 101.4051,57.895103 -1.821303,-2.198201 0.195817,-0.162243 0.222776,-4.488379 2.18557,-1.810838 -0.24662,5.861063 -0.42954,0.355887 z m -0.0955,3.317649 -7.798119,-9.41184 1.863418,-1.543922 7.798111,9.41184 z m 4.36482,-3.616442 -4.51724,-1.157634 0.15885,-2.315476 6.53764,1.667507 z"
             style="font-weight:bold;font-family:Inter;-inkscape-font-specification:'Inter Bold'"
             id="path5487" /><path
             d="m 111.87559,51.766796 q -0.88737,0.967078 -1.97044,1.29812 -1.08357,0.319451 -2.20514,0.02512 -1.11602,-0.300379 -2.0831,-1.187744 -0.97917,-0.898457 -1.36261,-1.985085 -0.38395,-1.098217 -0.1642,-2.199161 0.21974,-1.100944 1.05719,-2.013624 0.64889,-0.707175 1.41753,-1.059536 0.7626,-0.357908 1.59255,-0.364553 0.8239,-0.01219 1.63353,0.318774 0.81517,0.324922 1.54653,0.995992 l 0.47749,0.438137 -5.17445,5.639272 -1.13631,-1.042654 4.38691,-4.780991 -0.46563,1.053455 q -0.48354,-0.443683 -0.99494,-0.59007 -0.5114,-0.146387 -0.99826,0.0081 -0.48736,0.142872 -0.89776,0.590145 -0.40486,0.441229 -0.50539,0.939047 -0.10656,0.492271 0.0832,0.989224 0.18973,0.496953 0.67327,0.940635 l 0.77366,0.709892 q 0.49563,0.454775 1.0312,0.623346 0.53508,0.156981 1.05116,0.0071 0.51004,-0.155458 0.94818,-0.632953 0.32167,-0.350566 0.46899,-0.705249 0.14681,-0.366273 0.13187,-0.713981 -0.0155,-0.359298 -0.19116,-0.66526 l 1.49188,-1.6259 q 0.52927,0.697174 0.62459,1.563953 0.0953,0.866779 -0.21453,1.762586 -0.31589,0.89026 -1.02578,1.663922 z"
             style="font-weight:bold;font-family:Inter;-inkscape-font-specification:'Inter Bold'"
             id="path5489" /></g></g><g
         style="fill:#000000"
         id="g3577"
         transform="matrix(0.20144581,0,0,0.20144581,-761.75153,-25.062291)"
         inkscape:label="Middlecoins"><g
           id="g3575">
	<g
   id="g3573"
   transform="translate(-70.464283)">
		
		
		<g
   id="g3527"
   inkscape:label="Left"><path
     d="m 117.4607,172.8953 c 9.4539,0 18.592,-0.61066 27.23922,-1.74737 V 76.366871 c -8.64639,-1.13587 -17.78532,-1.746533 -27.23922,-1.746533 -53.980023,0 -97.739685,19.846819 -97.739685,44.330122 v 9.61389 c 0,24.48246 43.759662,44.33095 97.739685,44.33095 z"
     id="path3511"
     style="fill:#e4003a;fill-opacity:1;stroke-width:0.838335;stroke-dasharray:none" /><path
     d="m 117.4607,272.56703 c 9.4539,0 18.592,-0.61066 27.23922,-1.74569 v -27.78203 c -8.6489,1.13588 -17.78281,1.75491 -27.23922,1.75491 -47.118703,0 -86.446275,-15.12322 -95.684054,-35.25065 -1.345291,2.93183 -2.055631,5.96753 -2.055631,9.07946 v 9.61389 c 0,24.4833 43.759662,44.33011 97.739685,44.33011 z"
     id="path3513"
     style="fill:#ffffff;fill-opacity:1;stroke-width:0.838335;stroke-dasharray:none" /><path
     d="m 144.69908,294.69146 v -2.1595 c -8.6489,1.13587 -17.78281,1.75491 -27.23922,1.75491 -47.1187,0 -86.446273,-15.12322 -95.684051,-35.25065 -1.345292,2.93099 -2.055632,5.96669 -2.055632,9.07862 v 9.61389 c 0,24.48413 43.759662,44.33095 97.739683,44.33095 10.795,0 21.17787,-0.79578 30.88726,-2.2617 -2.40662,-4.92296 -3.64804,-10.11481 -3.64804,-15.49347 z"
     id="path3515"
     style="fill:#ffffff;fill-opacity:1;stroke-width:0.838335;stroke-dasharray:none" /><path
     d="m 117.4607,222.38627 c 9.4539,0 18.592,-0.61066 27.23922,-1.74569 v -27.78203 c -8.6489,1.13588 -17.78281,1.75491 -27.23922,1.75491 -47.118703,0 -86.446275,-15.12322 -95.684054,-35.25065 -1.345291,2.93183 -2.055631,5.96753 -2.055631,9.07946 v 9.61389 c 0,24.4833 43.759662,44.33011 97.739685,44.33011 z"
     id="path3517"
     style="fill:#ffffff;fill-opacity:1;stroke-width:0.838335;stroke-dasharray:none" /><path
     d="m -16.069958,212.5057 c 7.1496589,0 14.0604889,-0.46182 20.6000839,-1.32147 v -71.67964 c -6.538967,-0.85902 -13.450425,-1.32084 -20.6000839,-1.32084 -40.823231,0 -73.917153,15.00946 -73.917153,33.52533 v 7.27065 c 0,18.51524 33.093922,33.52597 73.917153,33.52597 z"
     id="path3519"
     style="fill:#e4003a;fill-opacity:1;stroke-width:0.634004;stroke-dasharray:none" /><path
     d="m 4.5294909,262.16982 v -1.63315 c -6.540866,0.85902 -13.448527,1.32717 -20.6000839,1.32717 -35.634249,0 -65.376338,-11.43717 -72.362548,-26.65885 -1.0174,2.21661 -1.55461,4.5124 -1.55461,6.86585 v 7.27065 c 0,18.51651 33.093928,33.52597 73.917158,33.52597 8.1638859,0 16.01609289,-0.60182 23.3589709,-1.71044 -1.820044,-3.72307 -2.758887,-7.64948 -2.758887,-11.71718 z"
     id="path3521"
     style="fill:#ffffff;fill-opacity:1;stroke-width:0.634004;stroke-dasharray:none" /><path
     d="m 532.71524,245.95947 c -7.14969,0 -14.06056,-0.46183 -20.60018,-1.32148 v -71.68 c 6.539,-0.85903 13.45049,-1.32085 20.60018,-1.32085 40.82345,0 73.91754,15.00953 73.91754,33.5255 v 7.27069 c 0,18.51533 -33.09409,33.52614 -73.91754,33.52614 z"
     id="path3523"
     style="fill:#e4003a;fill-opacity:1;stroke-width:0.634007;stroke-dasharray:none" /><path
     d="m 512.11569,262.16983 v -1.63316 c 6.5409,0.85902 13.4486,1.32718 20.60019,1.32718 35.63443,0 65.37667,-11.43723 72.36292,-26.65899 1.01741,2.21662 1.55461,4.51243 1.55461,6.86589 v 7.27069 c 0,18.51659 -33.09409,33.52614 -73.91753,33.52614 -8.16393,0 -16.01618,-0.60183 -23.35909,-1.71046 1.82005,-3.72308 2.7589,-7.64952 2.7589,-11.71723 z"
     id="path3525"
     style="fill:#ffffff;fill-opacity:1;stroke-width:0.634007;stroke-dasharray:none" /><path
     d="m 4.5294909,226.98894 v -1.63315 c -6.540866,0.85902 -13.448527,1.32717 -20.6000839,1.32717 -35.634249,0 -65.376338,-11.43717 -72.362548,-26.65885 -1.0174,2.21661 -1.55461,4.5124 -1.55461,6.86585 v 7.27065 c 0,18.51651 33.093928,33.52597 73.917158,33.52597 8.1638859,0 16.01609289,-0.60182 23.3589709,-1.71044 -1.820044,-3.72307 -2.758887,-7.64948 -2.758887,-11.71718 z"
     id="path3617"
     style="fill:#ffffff;fill-opacity:1;stroke-width:0.634004;stroke-dasharray:none" /></g>
		
		
		
		
		<g
   id="g3561"
   inkscape:label="Middle"><path
     d="m 258.38792,-0.45965459 c -53.98002,0 -97.73968,19.84681559 -97.73968,44.33011159 v 9.613895 c 0,24.483299 43.75966,44.330125 97.73968,44.330125 53.97919,0 97.73969,-19.846826 97.73969,-44.330125 v -9.613895 c 0,-24.483296 -43.7605,-44.33011159 -97.73969,-44.33011159 z"
     id="path3529"
     style="fill:#e4003a;fill-opacity:1;stroke-width:0.838335;stroke-dasharray:none" /><path
     d="m 258.38792,169.71423 c -47.1187,0 -86.44627,-15.12238 -95.68405,-35.25065 -1.34529,2.93099 -2.05563,5.9667 -2.05563,9.07946 v 9.61389 c 0,24.4833 43.75966,44.33011 97.73968,44.33011 53.97919,0 97.73969,-19.84681 97.73969,-44.33011 v -9.61389 c 0,-3.11276 -0.71034,-6.14847 -2.05563,-9.07946 -9.23778,20.12827 -48.56535,35.25065 -95.68406,35.25065 z"
     id="path3531"
     style="fill:#ffffff;fill-opacity:1;stroke-width:0.838335;stroke-dasharray:none" /><path
     d="m 258.38792,219.20688 c -47.1187,0 -86.44627,-15.12322 -95.68405,-35.25065 -1.34529,2.93099 -2.05563,5.96669 -2.05563,9.07946 v 9.61389 c 0,24.48413 43.75966,44.33095 97.73968,44.33095 53.97919,0 97.73969,-19.84682 97.73969,-44.33095 v -9.61389 c 0,-3.11277 -0.71034,-6.14847 -2.05563,-9.07946 -9.23778,20.12827 -48.56535,35.25065 -95.68406,35.25065 z"
     id="path3533"
     style="fill:#ffffff;fill-opacity:1;stroke-width:0.838335;stroke-dasharray:none" /><path
     d="m 258.38792,271.37084 c -47.1187,0 -86.44627,-15.12321 -95.68405,-35.25065 -1.34529,2.93183 -2.05563,5.9667 -2.05563,9.07862 v 9.61473 c 0,24.4833 43.75966,44.33011 97.73968,44.33011 53.97919,0 97.73969,-19.84681 97.73969,-44.33011 v -9.61473 c 0,-3.11192 -0.71034,-6.14846 -2.05563,-9.07862 -9.23778,20.1266 -48.56535,35.25065 -95.68406,35.25065 z"
     id="path3535"
     style="fill:#ffffff;fill-opacity:1;stroke-width:0.838335;stroke-dasharray:none" /><path
     d="m 258.38792,320.86265 c -47.1187,0 -86.44627,-15.12238 -95.68405,-35.24981 -1.34529,2.93183 -2.05563,5.96837 -2.05563,9.07862 v 9.61389 c 0,24.4833 43.75966,44.33011 97.73968,44.33011 53.97919,0 97.73969,-19.84681 97.73969,-44.33011 v -9.61473 c 0,-3.11193 -0.71034,-6.14846 -2.05563,-9.07862 -9.23778,20.12744 -48.56535,35.25065 -95.68406,35.25065 z"
     id="path3537"
     style="fill:#ffffff;fill-opacity:1;stroke-width:0.838335;stroke-dasharray:none" /><g
     transform="matrix(10.303711,0,0,10.303711,161.70322,-61.147785)"
     id="g3557"
     inkscape:label="Logo"
     style="fill:#000000">
<g
   id="g3555"
   transform="matrix(0.6933596,0,0,0.6933596,0.97298999,0.28937229)"
   inkscape:label="Logo"
   style="display:inline">
		<g
   transform="translate(0.91990781,-0.8)"
   id="g3541"
   inkscape:label="Circle"
   style="display:none">
<path
   style="opacity:1;fill:#e4003a;fill-opacity:1;fill-rule:nonzero;stroke:none;stroke-width:1;stroke-linecap:butt;stroke-linejoin:miter;stroke-miterlimit:4;stroke-dasharray:none;stroke-dashoffset:0"
   d="m 0,7.39996 a 7.6,7.6 0 1 1 7.6,-7.6 7.6,7.6 0 0 1 -7.6,7.6 z"
   stroke-linecap="round"
   id="path3539" />
</g>
		<g
   transform="translate(0.81,-1.08)"
   id="g3545"
   style="display:none"
   inkscape:label="undefined">
<path
   style="opacity:1;fill:#ffffff;fill-rule:nonzero;stroke:none;stroke-width:1;stroke-linecap:butt;stroke-linejoin:miter;stroke-miterlimit:4;stroke-dasharray:none;stroke-dashoffset:0"
   transform="translate(-10.81,-11.92)"
   d="m 8.46,13.2 h -0.8 c -0.3,0 -0.4,-0.1 -0.4,-0.4 a 0.43,0.43 0 0 1 0.4,-0.4 h 0.9 a 0.35,0.35 0 0 0 0.2,-0.1 1.42,1.42 0 0 0 0.2,-0.6 h -0.7 a 0.4,0.4 0 1 1 0,-0.8 h 0.8 c 0.1,0 0.2,0 0.2,-0.1 a 23.29,23.29 0 0 0 1.1,-2.8 0.1,0.1 0 0 1 0.1,-0.1 c 0.1,-0.2 0.2,-0.3 0.4,-0.3 0.2,0 0.3,0.1 0.4,0.3 0.2,0.6 0.4,1.1 0.6,1.7 0.2,0.4 0.3,0.8 0.5,1.2 0,0.1 0.1,0.1 0.2,0.1 h 0.8 a 0.37,0.37 0 0 1 0.4,0.4 0.43,0.43 0 0 1 -0.4,0.4 h -0.7 a 4.88,4.88 0 0 0 0.3,0.7 0.35,0.35 0 0 0 0.2,0.1 h 0.9 c 0.1,0 0.3,0.1 0.3,0.2 a 0.6,0.6 0 0 1 -0.1,0.4 0.37,0.37 0 0 1 -0.3,0.1 h -0.8 a 3.55,3.55 0 0 0 0.4,0.9 l 0.6,1.5 c 0.1,0.3 0.1,0.5 -0.2,0.6 -0.3,0.1 -0.4,0 -0.5,-0.3 -0.3,-0.9 -0.7,-1.7 -1,-2.6 -0.1,-0.2 -0.1,-0.2 -0.3,-0.2 h -2.9 c -0.2,0 -0.2,0 -0.3,0.2 a 18.61,18.61 0 0 1 -1,2.5 c -0.1,0.2 -0.2,0.3 -0.4,0.3 a 0.27,0.27 0 0 1 -0.3,-0.3 0.37,0.37 0 0 1 0.1,-0.3 c 0.3,-0.7 0.5,-1.4 0.8,-2.1 0.2,0 0.2,-0.1 0.3,-0.2 z m 1,-0.8 h 2.7 c -0.1,-0.2 -0.2,-0.5 -0.3,-0.7 a 0.35,0.35 0 0 0 -0.2,-0.1 h -1.8 c -0.1,0 -0.1,0 -0.2,0.1 a 1.45,1.45 0 0 1 -0.2,0.7 z m 2.2,-1.5 c -0.3,-0.7 -0.5,-1.3 -0.8,-2 -0.3,0.7 -0.5,1.3 -0.8,2 z"
   stroke-linecap="round"
   id="path3543" />
</g>
<path
   style="opacity:1;fill:#050001;fill-opacity:1;stroke:#ffffff;stroke-width:0.791434;stroke-linecap:round;stroke-miterlimit:3.7;stroke-dasharray:none;stroke-opacity:1;paint-order:stroke fill markers"
   d="M 8.1350941,16.876025 12.086609,10.362006"
   id="path3547"
   sodipodi:nodetypes="cc" /><path
   style="opacity:1;fill:#050001;fill-opacity:1;stroke:#ffffff;stroke-width:0.791434;stroke-linecap:round;stroke-miterlimit:3.7;stroke-dasharray:none;stroke-opacity:1"
   d="M 16.144951,16.87452 12.196567,10.360599"
   id="path3549"
   sodipodi:nodetypes="cc" /><path
   style="opacity:1;fill:#050001;fill-opacity:1;stroke:#ffffff;stroke-width:0.791434;stroke-linecap:round;stroke-miterlimit:3.7;stroke-dasharray:none;stroke-opacity:1"
   d="m 9.0180552,13.152778 6.2251588,-0.01311"
   id="path3551" /><path
   style="fill:#050001;fill-opacity:1;stroke:#ffffff;stroke-width:0.791434;stroke-linecap:round;stroke-miterlimit:3.7;stroke-dasharray:none;stroke-opacity:1"
   d="m 8.2176918,14.418566 7.8247822,-0.01051"
   id="path3553" /></g>
</g><path
     d="m 258.38792,119.53347 c -47.1187,0 -86.44627,-15.12238 -95.68405,-35.250656 -1.34529,2.93099 -2.05563,5.9667 -2.05563,9.079463 v 9.613893 c 0,24.4833 43.75966,44.33011 97.73968,44.33011 53.97919,0 97.73969,-19.84681 97.73969,-44.33011 v -9.613893 c 0,-3.112763 -0.71034,-6.148473 -2.05563,-9.079463 -9.23778,20.128276 -48.56535,35.250656 -95.68406,35.250656 z"
     id="path3559"
     style="fill:#ffffff;fill-opacity:1;stroke-width:0.838335;stroke-dasharray:none" /></g>
	<g
   id="g3571"
   inkscape:label="Right"
   transform="translate(0,-10.01765)"><path
     d="m 399.31515,182.91295 c -9.4539,0 -18.592,-0.61066 -27.23922,-1.74737 V 86.384524 c 8.64639,-1.13587 17.78532,-1.74653 27.23922,-1.74653 53.98002,0 97.73968,19.846816 97.73968,44.330116 v 9.61389 c 0,24.48246 -43.75966,44.33095 -97.73968,44.33095 z"
     id="path3563"
     style="fill:#e4003a;fill-opacity:1;stroke-width:0.838335;stroke-dasharray:none" /><path
     d="m 399.31515,282.58468 c -9.4539,0 -18.592,-0.61066 -27.23922,-1.74569 v -27.78203 c 8.6489,1.13588 17.78281,1.75491 27.23922,1.75491 47.1187,0 86.44627,-15.12322 95.68405,-35.25065 1.34529,2.93183 2.05563,5.96753 2.05563,9.07946 v 9.61389 c 0,24.4833 -43.75966,44.33011 -97.73968,44.33011 z"
     id="path3565"
     style="fill:#ffffff;fill-opacity:1;stroke-width:0.838335;stroke-dasharray:none" /><path
     d="m 372.07677,304.70911 v -2.1595 c 8.6489,1.13587 17.78281,1.75491 27.23922,1.75491 47.1187,0 86.44627,-15.12322 95.68405,-35.25065 1.34529,2.93099 2.05563,5.96669 2.05563,9.07862 v 9.61389 c 0,24.48413 -43.75966,44.33095 -97.73968,44.33095 -10.795,0 -21.17787,-0.79578 -30.88726,-2.2617 2.40662,-4.92296 3.64804,-10.11481 3.64804,-15.49347 z"
     id="path3567"
     style="fill:#ffffff;fill-opacity:1;stroke-width:0.838335;stroke-dasharray:none" /><path
     d="m 399.31515,232.40392 c -9.4539,0 -18.592,-0.61066 -27.23922,-1.74569 V 202.8762 c 8.6489,1.13588 17.78281,1.75491 27.23922,1.75491 47.1187,0 86.44627,-15.12322 95.68405,-35.25065 1.34529,2.93183 2.05563,5.96753 2.05563,9.07946 v 9.61389 c 0,24.4833 -43.75966,44.33011 -97.73968,44.33011 z"
     id="path3569"
     style="fill:#ffffff;fill-opacity:1;stroke-width:0.838335;stroke-dasharray:none" /></g></g>
</g></g></g></g></svg>
