<?xml version="1.0" encoding="UTF-8" standalone="no"?>
<svg
   inkscape:version="1.2.2 (b0a84865, 2022-12-01)"
   xml:space="preserve"
   sodipodi:docname="final_awards_pre-text-to-path.svg"
   id="svg134"
   version="1.1"
   viewBox="-120 -120 299.99951 299.99995"
   height="249.99995"
   width="249.99959"
   inkscape:export-filename="0.svg"
   inkscape:export-xdpi="96"
   inkscape:export-ydpi="96"
   xmlns:inkscape="http://www.inkscape.org/namespaces/inkscape"
   xmlns:sodipodi="http://sodipodi.sourceforge.net/DTD/sodipodi-0.dtd"
   xmlns="http://www.w3.org/2000/svg"
   xmlns:svg="http://www.w3.org/2000/svg"><defs
     id="defs138" /><sodipodi:namedview
     id="namedview136"
     pagecolor="#ffffff"
     bordercolor="#000000"
     borderopacity="0.25"
     inkscape:showpageshadow="2"
     inkscape:pageopacity="0.0"
     inkscape:pagecheckerboard="0"
     inkscape:deskcolor="#d1d1d1"
     showgrid="false"
     inkscape:zoom="0.35355339"
     inkscape:cx="1480.6816"
     inkscape:cy="663.26616"
     inkscape:window-width="1425"
     inkscape:window-height="949"
     inkscape:window-x="0"
     inkscape:window-y="25"
     inkscape:window-maximized="1"
     inkscape:current-layer="g19337"
     showguides="true" /><style
     type="text/css"
     id="style8571">
	.st0{fill:#ffffff;}
</style><g
     id="g14593"
     inkscape:label="Staked"
     transform="translate(-3713.3734,-407.04369)"><g
       id="g3385"
       inkscape:label="90m"
       transform="matrix(1.4245145,0,0,1.4245145,4774.5911,422.78857)"
       inkscape:export-filename="./g8306.svg"
       inkscape:export-xdpi="96"
       inkscape:export-ydpi="96"><g
         id="g3305"
         inkscape:label="border"
         style="fill:#112c50;fill-opacity:1"
         transform="translate(-1336.6973,-1105.8461)"><path
           fill="none"
           stroke="black"
           stroke-width="2"
           d="m 712.78911,1115.8531 q 9.47,10.78 -1.92,19.51 7.18,12.42 -5.69,18.76 4.62,13.58 -9.24,17.29 1.88,14.22 -12.44,15.15 -0.93,14.32 -15.15,12.44 -3.71,13.86 -17.29,9.24 -6.34,12.87 -18.76,5.69 -8.73,11.39 -19.51,1.92 -10.78,9.47 -19.51,-1.92 -12.42,7.18 -18.76,-5.69 -13.58,4.62 -17.29,-9.24 -14.22,1.88 -15.15,-12.44 -14.32,-0.93 -12.44,-15.15 -13.86,-3.71 -9.24,-17.29 -12.87,-6.34 -5.69,-18.76 -11.39,-8.73 -1.92,-19.51 -9.47,-10.78 1.92,-19.51 -7.18,-12.42 5.69,-18.76 -4.62,-13.58 9.24,-17.29 -1.88,-14.22 12.44,-15.15 0.93,-14.32 15.15,-12.44 3.71,-13.86 17.29,-9.24 6.34,-12.87 18.76,-5.69 8.73,-11.39 19.51,-1.92 10.78,-9.47 19.51,1.92 12.42,-7.18 18.76,5.69 13.58,-4.62 17.29,9.24 14.22,-1.88 15.15,12.44 14.32,0.93 12.44,15.15 13.86,3.71 9.24,17.29 12.87,6.34 5.69,18.76 11.39,8.73 1.92,19.51 z"
           id="path3205"
           style="fill:#04344d;fill-opacity:1;stroke:#04344d;stroke-opacity:1" /><g
           id="g3303"
           inkscape:label="Circles"
           transform="translate(97.989201,1115.8444)"
           style="fill:#112c50;fill-opacity:1"><g
             id="g3209"
             transform="rotate(7.5,5558.9497,3252.8791)"
             inkscape:transform-center-x="-11.777454"
             inkscape:transform-center-y="-88.637902"
             style="fill:#ffffff;fill-opacity:1"><path
               sodipodi:type="star"
               style="fill:#efa900;fill-opacity:1;stroke:#efa900;stroke-width:2.22;stroke-linecap:round;stroke-opacity:1;paint-order:stroke fill markers"
               id="path3207"
               inkscape:flatsided="false"
               sodipodi:sides="5"
               sodipodi:cx="396.99625"
               sodipodi:cy="-372.60107"
               sodipodi:r1="3.6169088"
               sodipodi:r2="1.6637779"
               sodipodi:arg1="0.95906936"
               sodipodi:arg2="1.5873879"
               inkscape:rounded="0"
               inkscape:randomized="0"
               d="m 399.07337,-369.64006 -2.10473,-1.29747 -2.14661,1.22692 0.58356,-2.40265 -1.83021,-1.66242 2.46539,-0.18746 1.01548,-2.25435 0.94014,2.2868 2.45781,0.26915 -1.88435,1.60078 z"
               transform="matrix(1.0133273,0,0,1.0133273,-268.95197,974.58915)"
               inkscape:transform-center-x="1.0196929"
               inkscape:transform-center-y="-89.532179"
               inkscape:label="path5969" /></g><g
             id="g3213"
             transform="rotate(22.5,2049.0208,1301.9125)"
             inkscape:transform-center-x="-34.354027"
             inkscape:transform-center-y="-82.323429"
             style="fill:#ffffff;fill-opacity:1"><path
               sodipodi:type="star"
               style="fill:#efa900;fill-opacity:1;stroke:#efa900;stroke-width:2.22;stroke-linecap:round;stroke-opacity:1;paint-order:stroke fill markers"
               id="path3211"
               inkscape:flatsided="false"
               sodipodi:sides="5"
               sodipodi:cx="396.99625"
               sodipodi:cy="-372.60107"
               sodipodi:r1="3.6169088"
               sodipodi:r2="1.6637779"
               sodipodi:arg1="0.95906936"
               sodipodi:arg2="1.5873879"
               inkscape:rounded="0"
               inkscape:randomized="0"
               d="m 399.07337,-369.64006 -2.10473,-1.29747 -2.14661,1.22692 0.58356,-2.40265 -1.83021,-1.66242 2.46539,-0.18746 1.01548,-2.25435 0.94014,2.2868 2.45781,0.26915 -1.88435,1.60078 z"
               transform="matrix(1.0133273,0,0,1.0133273,-268.95197,974.58915)"
               inkscape:transform-center-x="1.0196929"
               inkscape:transform-center-y="-89.532179"
               inkscape:label="path5969" /></g><g
             id="g3217"
             transform="rotate(37.5,1334.8573,904.95028)"
             inkscape:transform-center-x="-54.232035"
             inkscape:transform-center-y="-70.490863"
             style="fill:#ffffff;fill-opacity:1"><path
               sodipodi:type="star"
               style="fill:#efa900;fill-opacity:1;stroke:#efa900;stroke-width:2.22;stroke-linecap:round;stroke-opacity:1;paint-order:stroke fill markers"
               id="path3215"
               inkscape:flatsided="false"
               sodipodi:sides="5"
               sodipodi:cx="396.99625"
               sodipodi:cy="-372.60107"
               sodipodi:r1="3.6169088"
               sodipodi:r2="1.6637779"
               sodipodi:arg1="0.95906936"
               sodipodi:arg2="1.5873879"
               inkscape:rounded="0"
               inkscape:randomized="0"
               d="m 399.07337,-369.64006 -2.10473,-1.29747 -2.14661,1.22692 0.58356,-2.40265 -1.83021,-1.66242 2.46539,-0.18746 1.01548,-2.25435 0.94014,2.2868 2.45781,0.26915 -1.88435,1.60078 z"
               transform="matrix(1.0133273,0,0,1.0133273,-268.95197,974.58915)"
               inkscape:transform-center-x="1.0196929"
               inkscape:transform-center-y="-89.532179"
               inkscape:label="path5969" /></g><g
             id="g3221"
             transform="rotate(52.5,1019.845,729.85313)"
             inkscape:transform-center-x="-70.414229"
             inkscape:transform-center-y="-54.322566"
             style="fill:#ffffff;fill-opacity:1"><path
               sodipodi:type="star"
               style="fill:#efa900;fill-opacity:1;stroke:#efa900;stroke-width:2.22;stroke-linecap:round;stroke-opacity:1;paint-order:stroke fill markers"
               id="path3219"
               inkscape:flatsided="false"
               sodipodi:sides="5"
               sodipodi:cx="396.99625"
               sodipodi:cy="-372.60107"
               sodipodi:r1="3.6169088"
               sodipodi:r2="1.6637779"
               sodipodi:arg1="0.95906936"
               sodipodi:arg2="1.5873879"
               inkscape:rounded="0"
               inkscape:randomized="0"
               d="m 399.07337,-369.64006 -2.10473,-1.29747 -2.14661,1.22692 0.58356,-2.40265 -1.83021,-1.66242 2.46539,-0.18746 1.01548,-2.25435 0.94014,2.2868 2.45781,0.26915 -1.88435,1.60078 z"
               transform="matrix(1.0133273,0,0,1.0133273,-268.95197,974.58915)"
               inkscape:transform-center-x="1.0196929"
               inkscape:transform-center-y="-89.532179"
               inkscape:label="path5969" /></g><g
             id="g3225"
             transform="rotate(67.5,837.58649,628.54617)"
             inkscape:transform-center-x="-82.3354"
             inkscape:transform-center-y="-34.452242"
             style="fill:#ffffff;fill-opacity:1"><path
               sodipodi:type="star"
               style="fill:#efa900;fill-opacity:1;stroke:#efa900;stroke-width:2.22;stroke-linecap:round;stroke-opacity:1;paint-order:stroke fill markers"
               id="path3223"
               inkscape:flatsided="false"
               sodipodi:sides="5"
               sodipodi:cx="396.99625"
               sodipodi:cy="-372.60107"
               sodipodi:r1="3.6169088"
               sodipodi:r2="1.6637779"
               sodipodi:arg1="0.95906936"
               sodipodi:arg2="1.5873879"
               inkscape:rounded="0"
               inkscape:randomized="0"
               d="m 399.07337,-369.64006 -2.10473,-1.29747 -2.14661,1.22692 0.58356,-2.40265 -1.83021,-1.66242 2.46539,-0.18746 1.01548,-2.25435 0.94014,2.2868 2.45781,0.26915 -1.88435,1.60078 z"
               transform="matrix(1.0133273,0,0,1.0133273,-268.95197,974.58915)"
               inkscape:transform-center-x="1.0196929"
               inkscape:transform-center-y="-89.532179"
               inkscape:label="path5969" /></g><g
             id="g3229"
             transform="rotate(82.5,715.32761,560.58954)"
             inkscape:transform-center-x="-88.666206"
             inkscape:transform-center-y="-11.806367"
             style="fill:#ffffff;fill-opacity:1"><path
               sodipodi:type="star"
               style="fill:#efa900;fill-opacity:1;stroke:#efa900;stroke-width:2.22;stroke-linecap:round;stroke-opacity:1;paint-order:stroke fill markers"
               id="path3227"
               inkscape:flatsided="false"
               sodipodi:sides="5"
               sodipodi:cx="396.99625"
               sodipodi:cy="-372.60107"
               sodipodi:r1="3.6169088"
               sodipodi:r2="1.6637779"
               sodipodi:arg1="0.95906936"
               sodipodi:arg2="1.5873879"
               inkscape:rounded="0"
               inkscape:randomized="0"
               d="m 399.07337,-369.64006 -2.10473,-1.29747 -2.14661,1.22692 0.58356,-2.40265 -1.83021,-1.66242 2.46539,-0.18746 1.01548,-2.25435 0.94014,2.2868 2.45781,0.26915 -1.88435,1.60078 z"
               transform="matrix(1.0133273,0,0,1.0133273,-268.95197,974.58915)"
               inkscape:transform-center-x="1.0196929"
               inkscape:transform-center-y="-89.532179"
               inkscape:label="path5969" /></g><g
             id="g3233"
             transform="rotate(97.5,624.98471,510.37315)"
             inkscape:transform-center-x="-88.637973"
             inkscape:transform-center-y="11.777454"
             style="fill:#ffffff;fill-opacity:1"><path
               sodipodi:type="star"
               style="fill:#efa900;fill-opacity:1;stroke:#efa900;stroke-width:2.22;stroke-linecap:round;stroke-opacity:1;paint-order:stroke fill markers"
               id="path3231"
               inkscape:flatsided="false"
               sodipodi:sides="5"
               sodipodi:cx="396.99625"
               sodipodi:cy="-372.60107"
               sodipodi:r1="3.6169088"
               sodipodi:r2="1.6637779"
               sodipodi:arg1="0.95906936"
               sodipodi:arg2="1.5873879"
               inkscape:rounded="0"
               inkscape:randomized="0"
               d="m 399.07337,-369.64006 -2.10473,-1.29747 -2.14661,1.22692 0.58356,-2.40265 -1.83021,-1.66242 2.46539,-0.18746 1.01548,-2.25435 0.94014,2.2868 2.45781,0.26915 -1.88435,1.60078 z"
               transform="matrix(1.0133273,0,0,1.0133273,-268.95197,974.58915)"
               inkscape:transform-center-x="1.0196929"
               inkscape:transform-center-y="-89.532179"
               inkscape:label="path5969" /></g><g
             id="g3237"
             transform="rotate(112.5,553.34383,470.55213)"
             inkscape:transform-center-x="-82.323487"
             inkscape:transform-center-y="34.35403"
             style="fill:#ffffff;fill-opacity:1"><path
               sodipodi:type="star"
               style="fill:#efa900;fill-opacity:1;stroke:#efa900;stroke-width:2.22;stroke-linecap:round;stroke-opacity:1;paint-order:stroke fill markers"
               id="path3235"
               inkscape:flatsided="false"
               sodipodi:sides="5"
               sodipodi:cx="396.99625"
               sodipodi:cy="-372.60107"
               sodipodi:r1="3.6169088"
               sodipodi:r2="1.6637779"
               sodipodi:arg1="0.95906936"
               sodipodi:arg2="1.5873879"
               inkscape:rounded="0"
               inkscape:randomized="0"
               d="m 399.07337,-369.64006 -2.10473,-1.29747 -2.14661,1.22692 0.58356,-2.40265 -1.83021,-1.66242 2.46539,-0.18746 1.01548,-2.25435 0.94014,2.2868 2.45781,0.26915 -1.88435,1.60078 z"
               transform="matrix(1.0133273,0,0,1.0133273,-268.95197,974.58915)"
               inkscape:transform-center-x="1.0196929"
               inkscape:transform-center-y="-89.532179"
               inkscape:label="path5969" /></g><g
             id="g3241"
             transform="rotate(127.5,493.28797,437.17055)"
             inkscape:transform-center-x="-70.490908"
             inkscape:transform-center-y="54.23204"
             style="fill:#ffffff;fill-opacity:1"><path
               sodipodi:type="star"
               style="fill:#efa900;fill-opacity:1;stroke:#efa900;stroke-width:2.22;stroke-linecap:round;stroke-opacity:1;paint-order:stroke fill markers"
               id="path3239"
               inkscape:flatsided="false"
               sodipodi:sides="5"
               sodipodi:cx="396.99625"
               sodipodi:cy="-372.60107"
               sodipodi:r1="3.6169088"
               sodipodi:r2="1.6637779"
               sodipodi:arg1="0.95906936"
               sodipodi:arg2="1.5873879"
               inkscape:rounded="0"
               inkscape:randomized="0"
               d="m 399.07337,-369.64006 -2.10473,-1.29747 -2.14661,1.22692 0.58356,-2.40265 -1.83021,-1.66242 2.46539,-0.18746 1.01548,-2.25435 0.94014,2.2868 2.45781,0.26915 -1.88435,1.60078 z"
               transform="matrix(1.0133273,0,0,1.0133273,-268.95197,974.58915)"
               inkscape:transform-center-x="1.0196929"
               inkscape:transform-center-y="-89.532179"
               inkscape:label="path5969" /></g><g
             id="g3245"
             transform="rotate(142.5,440.5548,407.85923)"
             inkscape:transform-center-x="-54.322569"
             inkscape:transform-center-y="70.414225"
             style="fill:#ffffff;fill-opacity:1"><path
               sodipodi:type="star"
               style="fill:#efa900;fill-opacity:1;stroke:#efa900;stroke-width:2.22;stroke-linecap:round;stroke-opacity:1;paint-order:stroke fill markers"
               id="path3243"
               inkscape:flatsided="false"
               sodipodi:sides="5"
               sodipodi:cx="396.99625"
               sodipodi:cy="-372.60107"
               sodipodi:r1="3.6169088"
               sodipodi:r2="1.6637779"
               sodipodi:arg1="0.95906936"
               sodipodi:arg2="1.5873879"
               inkscape:rounded="0"
               inkscape:randomized="0"
               d="m 399.07337,-369.64006 -2.10473,-1.29747 -2.14661,1.22692 0.58356,-2.40265 -1.83021,-1.66242 2.46539,-0.18746 1.01548,-2.25435 0.94014,2.2868 2.45781,0.26915 -1.88435,1.60078 z"
               transform="matrix(1.0133273,0,0,1.0133273,-268.95197,974.58915)"
               inkscape:transform-center-x="1.0196929"
               inkscape:transform-center-y="-89.532179"
               inkscape:label="path5969" /></g><g
             id="g3249"
             transform="rotate(157.5,392.3333,381.05569)"
             inkscape:transform-center-x="-34.452251"
             inkscape:transform-center-y="82.335402"
             style="fill:#ffffff;fill-opacity:1"><path
               sodipodi:type="star"
               style="fill:#efa900;fill-opacity:1;stroke:#efa900;stroke-width:2.22;stroke-linecap:round;stroke-opacity:1;paint-order:stroke fill markers"
               id="path3247"
               inkscape:flatsided="false"
               sodipodi:sides="5"
               sodipodi:cx="396.99625"
               sodipodi:cy="-372.60107"
               sodipodi:r1="3.6169088"
               sodipodi:r2="1.6637779"
               sodipodi:arg1="0.95906936"
               sodipodi:arg2="1.5873879"
               inkscape:rounded="0"
               inkscape:randomized="0"
               d="m 399.07337,-369.64006 -2.10473,-1.29747 -2.14661,1.22692 0.58356,-2.40265 -1.83021,-1.66242 2.46539,-0.18746 1.01548,-2.25435 0.94014,2.2868 2.45781,0.26915 -1.88435,1.60078 z"
               transform="matrix(1.0133273,0,0,1.0133273,-268.95197,974.58915)"
               inkscape:transform-center-x="1.0196929"
               inkscape:transform-center-y="-89.532179"
               inkscape:label="path5969" /></g><g
             id="g3253"
             transform="rotate(172.5,346.57293,355.62015)"
             inkscape:transform-center-x="-11.806385"
             inkscape:transform-center-y="88.666214"
             style="fill:#ffffff;fill-opacity:1"><path
               sodipodi:type="star"
               style="fill:#efa900;fill-opacity:1;stroke:#efa900;stroke-width:2.22;stroke-linecap:round;stroke-opacity:1;paint-order:stroke fill markers"
               id="path3251"
               inkscape:flatsided="false"
               sodipodi:sides="5"
               sodipodi:cx="396.99625"
               sodipodi:cy="-372.60107"
               sodipodi:r1="3.6169088"
               sodipodi:r2="1.6637779"
               sodipodi:arg1="0.95906936"
               sodipodi:arg2="1.5873879"
               inkscape:rounded="0"
               inkscape:randomized="0"
               d="m 399.07337,-369.64006 -2.10473,-1.29747 -2.14661,1.22692 0.58356,-2.40265 -1.83021,-1.66242 2.46539,-0.18746 1.01548,-2.25435 0.94014,2.2868 2.45781,0.26915 -1.88435,1.60078 z"
               transform="matrix(1.0133273,0,0,1.0133273,-268.95197,974.58915)"
               inkscape:transform-center-x="1.0196929"
               inkscape:transform-center-y="-89.532179"
               inkscape:label="path5969" /></g><g
             id="g3257"
             transform="rotate(-172.5,301.59553,330.61982)"
             inkscape:transform-center-x="11.777442"
             inkscape:transform-center-y="88.637982"
             style="fill:#ffffff;fill-opacity:1"><path
               sodipodi:type="star"
               style="fill:#efa900;fill-opacity:1;stroke:#efa900;stroke-width:2.22;stroke-linecap:round;stroke-opacity:1;paint-order:stroke fill markers"
               id="path3255"
               inkscape:flatsided="false"
               sodipodi:sides="5"
               sodipodi:cx="396.99625"
               sodipodi:cy="-372.60107"
               sodipodi:r1="3.6169088"
               sodipodi:r2="1.6637779"
               sodipodi:arg1="0.95906936"
               sodipodi:arg2="1.5873879"
               inkscape:rounded="0"
               inkscape:randomized="0"
               d="m 399.07337,-369.64006 -2.10473,-1.29747 -2.14661,1.22692 0.58356,-2.40265 -1.83021,-1.66242 2.46539,-0.18746 1.01548,-2.25435 0.94014,2.2868 2.45781,0.26915 -1.88435,1.60078 z"
               transform="matrix(1.0133273,0,0,1.0133273,-268.95197,974.58915)"
               inkscape:transform-center-x="1.0196929"
               inkscape:transform-center-y="-89.532179"
               inkscape:label="path5969" /></g><g
             id="g3261"
             transform="rotate(-157.5,255.83516,305.18428)"
             inkscape:transform-center-x="34.354019"
             inkscape:transform-center-y="82.323499"
             style="fill:#ffffff;fill-opacity:1"><path
               sodipodi:type="star"
               style="fill:#efa900;fill-opacity:1;stroke:#efa900;stroke-width:2.22;stroke-linecap:round;stroke-opacity:1;paint-order:stroke fill markers"
               id="path3259"
               inkscape:flatsided="false"
               sodipodi:sides="5"
               sodipodi:cx="396.99625"
               sodipodi:cy="-372.60107"
               sodipodi:r1="3.6169088"
               sodipodi:r2="1.6637779"
               sodipodi:arg1="0.95906936"
               sodipodi:arg2="1.5873879"
               inkscape:rounded="0"
               inkscape:randomized="0"
               d="m 399.07337,-369.64006 -2.10473,-1.29747 -2.14661,1.22692 0.58356,-2.40265 -1.83021,-1.66242 2.46539,-0.18746 1.01548,-2.25435 0.94014,2.2868 2.45781,0.26915 -1.88435,1.60078 z"
               transform="matrix(1.0133273,0,0,1.0133273,-268.95197,974.58915)"
               inkscape:transform-center-x="1.0196929"
               inkscape:transform-center-y="-89.532179"
               inkscape:label="path5969" /></g><g
             id="g3265"
             transform="rotate(-142.5,207.61366,278.38074)"
             inkscape:transform-center-x="54.232031"
             inkscape:transform-center-y="70.490924"
             style="fill:#ffffff;fill-opacity:1"><path
               sodipodi:type="star"
               style="fill:#efa900;fill-opacity:1;stroke:#efa900;stroke-width:2.22;stroke-linecap:round;stroke-opacity:1;paint-order:stroke fill markers"
               id="path3263"
               inkscape:flatsided="false"
               sodipodi:sides="5"
               sodipodi:cx="396.99625"
               sodipodi:cy="-372.60107"
               sodipodi:r1="3.6169088"
               sodipodi:r2="1.6637779"
               sodipodi:arg1="0.95906936"
               sodipodi:arg2="1.5873879"
               inkscape:rounded="0"
               inkscape:randomized="0"
               d="m 399.07337,-369.64006 -2.10473,-1.29747 -2.14661,1.22692 0.58356,-2.40265 -1.83021,-1.66242 2.46539,-0.18746 1.01548,-2.25435 0.94014,2.2868 2.45781,0.26915 -1.88435,1.60078 z"
               transform="matrix(1.0133273,0,0,1.0133273,-268.95197,974.58915)"
               inkscape:transform-center-x="1.0196929"
               inkscape:transform-center-y="-89.532179"
               inkscape:label="path5969" /></g><g
             id="g3269"
             transform="rotate(-127.5,154.88049,249.06943)"
             inkscape:transform-center-x="70.414233"
             inkscape:transform-center-y="54.322599"
             style="fill:#ffffff;fill-opacity:1"><path
               sodipodi:type="star"
               style="fill:#efa900;fill-opacity:1;stroke:#efa900;stroke-width:2.22;stroke-linecap:round;stroke-opacity:1;paint-order:stroke fill markers"
               id="path3267"
               inkscape:flatsided="false"
               sodipodi:sides="5"
               sodipodi:cx="396.99625"
               sodipodi:cy="-372.60107"
               sodipodi:r1="3.6169088"
               sodipodi:r2="1.6637779"
               sodipodi:arg1="0.95906936"
               sodipodi:arg2="1.5873879"
               inkscape:rounded="0"
               inkscape:randomized="0"
               d="m 399.07337,-369.64006 -2.10473,-1.29747 -2.14661,1.22692 0.58356,-2.40265 -1.83021,-1.66242 2.46539,-0.18746 1.01548,-2.25435 0.94014,2.2868 2.45781,0.26915 -1.88435,1.60078 z"
               transform="matrix(1.0133273,0,0,1.0133273,-268.95197,974.58915)"
               inkscape:transform-center-x="1.0196929"
               inkscape:transform-center-y="-89.532179"
               inkscape:label="path5969" /></g><g
             id="g3273"
             transform="rotate(-112.5,94.824625,215.68785)"
             inkscape:transform-center-x="82.33541"
             inkscape:transform-center-y="34.452266"
             style="fill:#ffffff;fill-opacity:1"><path
               sodipodi:type="star"
               style="fill:#efa900;fill-opacity:1;stroke:#efa900;stroke-width:2.22;stroke-linecap:round;stroke-opacity:1;paint-order:stroke fill markers"
               id="path3271"
               inkscape:flatsided="false"
               sodipodi:sides="5"
               sodipodi:cx="396.99625"
               sodipodi:cy="-372.60107"
               sodipodi:r1="3.6169088"
               sodipodi:r2="1.6637779"
               sodipodi:arg1="0.95906936"
               sodipodi:arg2="1.5873879"
               inkscape:rounded="0"
               inkscape:randomized="0"
               d="m 399.07337,-369.64006 -2.10473,-1.29747 -2.14661,1.22692 0.58356,-2.40265 -1.83021,-1.66242 2.46539,-0.18746 1.01548,-2.25435 0.94014,2.2868 2.45781,0.26915 -1.88435,1.60078 z"
               transform="matrix(1.0133273,0,0,1.0133273,-268.95197,974.58915)"
               inkscape:transform-center-x="1.0196929"
               inkscape:transform-center-y="-89.532179"
               inkscape:label="path5969" /></g><g
             id="g3277"
             transform="rotate(-97.5,23.183742,175.86683)"
             inkscape:transform-center-x="88.66622"
             inkscape:transform-center-y="11.806393"
             style="fill:#ffffff;fill-opacity:1"><path
               sodipodi:type="star"
               style="fill:#efa900;fill-opacity:1;stroke:#efa900;stroke-width:2.22;stroke-linecap:round;stroke-opacity:1;paint-order:stroke fill markers"
               id="path3275"
               inkscape:flatsided="false"
               sodipodi:sides="5"
               sodipodi:cx="396.99625"
               sodipodi:cy="-372.60107"
               sodipodi:r1="3.6169088"
               sodipodi:r2="1.6637779"
               sodipodi:arg1="0.95906936"
               sodipodi:arg2="1.5873879"
               inkscape:rounded="0"
               inkscape:randomized="0"
               d="m 399.07337,-369.64006 -2.10473,-1.29747 -2.14661,1.22692 0.58356,-2.40265 -1.83021,-1.66242 2.46539,-0.18746 1.01548,-2.25435 0.94014,2.2868 2.45781,0.26915 -1.88435,1.60078 z"
               transform="matrix(1.0133273,0,0,1.0133273,-268.95197,974.58915)"
               inkscape:transform-center-x="1.0196929"
               inkscape:transform-center-y="-89.532179"
               inkscape:label="path5969" /></g><g
             id="g3281"
             transform="rotate(-82.5,-67.159164,125.65044)"
             inkscape:transform-center-x="88.637986"
             inkscape:transform-center-y="-11.777433"
             style="fill:#ffffff;fill-opacity:1"><path
               sodipodi:type="star"
               style="fill:#efa900;fill-opacity:1;stroke:#efa900;stroke-width:2.22;stroke-linecap:round;stroke-opacity:1;paint-order:stroke fill markers"
               id="path3279"
               inkscape:flatsided="false"
               sodipodi:sides="5"
               sodipodi:cx="396.99625"
               sodipodi:cy="-372.60107"
               sodipodi:r1="3.6169088"
               sodipodi:r2="1.6637779"
               sodipodi:arg1="0.95906936"
               sodipodi:arg2="1.5873879"
               inkscape:rounded="0"
               inkscape:randomized="0"
               d="m 399.07337,-369.64006 -2.10473,-1.29747 -2.14661,1.22692 0.58356,-2.40265 -1.83021,-1.66242 2.46539,-0.18746 1.01548,-2.25435 0.94014,2.2868 2.45781,0.26915 -1.88435,1.60078 z"
               transform="matrix(1.0133273,0,0,1.0133273,-268.95197,974.58915)"
               inkscape:transform-center-x="1.0196929"
               inkscape:transform-center-y="-89.532179"
               inkscape:label="path5969" /></g><g
             id="g3285"
             transform="rotate(-67.5,-189.41804,57.69381)"
             inkscape:transform-center-x="82.323501"
             inkscape:transform-center-y="-34.354012"
             style="fill:#ffffff;fill-opacity:1"><path
               sodipodi:type="star"
               style="fill:#efa900;fill-opacity:1;stroke:#efa900;stroke-width:2.22;stroke-linecap:round;stroke-opacity:1;paint-order:stroke fill markers"
               id="path3283"
               inkscape:flatsided="false"
               sodipodi:sides="5"
               sodipodi:cx="396.99625"
               sodipodi:cy="-372.60107"
               sodipodi:r1="3.6169088"
               sodipodi:r2="1.6637779"
               sodipodi:arg1="0.95906936"
               sodipodi:arg2="1.5873879"
               inkscape:rounded="0"
               inkscape:randomized="0"
               d="m 399.07337,-369.64006 -2.10473,-1.29747 -2.14661,1.22692 0.58356,-2.40265 -1.83021,-1.66242 2.46539,-0.18746 1.01548,-2.25435 0.94014,2.2868 2.45781,0.26915 -1.88435,1.60078 z"
               transform="matrix(1.0133273,0,0,1.0133273,-268.95197,974.58915)"
               inkscape:transform-center-x="1.0196929"
               inkscape:transform-center-y="-89.532179"
               inkscape:label="path5969" /></g><g
             id="g3289"
             transform="rotate(-52.5,-371.67655,-43.613143)"
             inkscape:transform-center-x="70.49092"
             inkscape:transform-center-y="-54.232028"
             style="fill:#ffffff;fill-opacity:1"><path
               sodipodi:type="star"
               style="fill:#efa900;fill-opacity:1;stroke:#efa900;stroke-width:2.22;stroke-linecap:round;stroke-opacity:1;paint-order:stroke fill markers"
               id="path3287"
               inkscape:flatsided="false"
               sodipodi:sides="5"
               sodipodi:cx="396.99625"
               sodipodi:cy="-372.60107"
               sodipodi:r1="3.6169088"
               sodipodi:r2="1.6637779"
               sodipodi:arg1="0.95906936"
               sodipodi:arg2="1.5873879"
               inkscape:rounded="0"
               inkscape:randomized="0"
               d="m 399.07337,-369.64006 -2.10473,-1.29747 -2.14661,1.22692 0.58356,-2.40265 -1.83021,-1.66242 2.46539,-0.18746 1.01548,-2.25435 0.94014,2.2868 2.45781,0.26915 -1.88435,1.60078 z"
               transform="matrix(1.0133273,0,0,1.0133273,-268.95197,974.58915)"
               inkscape:transform-center-x="1.0196929"
               inkscape:transform-center-y="-89.532179"
               inkscape:label="path5969" /></g><g
             id="g3293"
             transform="rotate(-37.5,-686.68891,-218.71027)"
             inkscape:transform-center-x="54.32259"
             inkscape:transform-center-y="-70.414223"
             style="fill:#ffffff;fill-opacity:1"><path
               sodipodi:type="star"
               style="fill:#efa900;fill-opacity:1;stroke:#efa900;stroke-width:2.22;stroke-linecap:round;stroke-opacity:1;paint-order:stroke fill markers"
               id="path3291"
               inkscape:flatsided="false"
               sodipodi:sides="5"
               sodipodi:cx="396.99625"
               sodipodi:cy="-372.60107"
               sodipodi:r1="3.6169088"
               sodipodi:r2="1.6637779"
               sodipodi:arg1="0.95906936"
               sodipodi:arg2="1.5873879"
               inkscape:rounded="0"
               inkscape:randomized="0"
               d="m 399.07337,-369.64006 -2.10473,-1.29747 -2.14661,1.22692 0.58356,-2.40265 -1.83021,-1.66242 2.46539,-0.18746 1.01548,-2.25435 0.94014,2.2868 2.45781,0.26915 -1.88435,1.60078 z"
               transform="matrix(1.0133273,0,0,1.0133273,-268.95197,974.58915)"
               inkscape:transform-center-x="1.0196929"
               inkscape:transform-center-y="-89.532179"
               inkscape:label="path5969" /></g><g
             id="g3297"
             transform="rotate(-22.5,-1400.8525,-615.67245)"
             inkscape:transform-center-x="34.452265"
             inkscape:transform-center-y="-82.335403"
             style="fill:#ffffff;fill-opacity:1"><path
               sodipodi:type="star"
               style="fill:#efa900;fill-opacity:1;stroke:#efa900;stroke-width:2.22;stroke-linecap:round;stroke-opacity:1;paint-order:stroke fill markers"
               id="path3295"
               inkscape:flatsided="false"
               sodipodi:sides="5"
               sodipodi:cx="396.99625"
               sodipodi:cy="-372.60107"
               sodipodi:r1="3.6169088"
               sodipodi:r2="1.6637779"
               sodipodi:arg1="0.95906936"
               sodipodi:arg2="1.5873879"
               inkscape:rounded="0"
               inkscape:randomized="0"
               d="m 399.07337,-369.64006 -2.10473,-1.29747 -2.14661,1.22692 0.58356,-2.40265 -1.83021,-1.66242 2.46539,-0.18746 1.01548,-2.25435 0.94014,2.2868 2.45781,0.26915 -1.88435,1.60078 z"
               transform="matrix(1.0133273,0,0,1.0133273,-268.95197,974.58915)"
               inkscape:transform-center-x="1.0196929"
               inkscape:transform-center-y="-89.532179"
               inkscape:label="path5969" /></g><g
             id="g3301"
             transform="rotate(-7.5000002,-4910.7816,-2566.6388)"
             inkscape:transform-center-x="11.806395"
             inkscape:transform-center-y="-88.666211"
             style="fill:#ffffff;fill-opacity:1"><path
               sodipodi:type="star"
               style="fill:#efa900;fill-opacity:1;stroke:#efa900;stroke-width:2.22;stroke-linecap:round;stroke-opacity:1;paint-order:stroke fill markers"
               id="path3299"
               inkscape:flatsided="false"
               sodipodi:sides="5"
               sodipodi:cx="396.99625"
               sodipodi:cy="-372.60107"
               sodipodi:r1="3.6169088"
               sodipodi:r2="1.6637779"
               sodipodi:arg1="0.95906936"
               sodipodi:arg2="1.5873879"
               inkscape:rounded="0"
               inkscape:randomized="0"
               d="m 399.07337,-369.64006 -2.10473,-1.29747 -2.14661,1.22692 0.58356,-2.40265 -1.83021,-1.66242 2.46539,-0.18746 1.01548,-2.25435 0.94014,2.2868 2.45781,0.26915 -1.88435,1.60078 z"
               transform="matrix(1.0133273,0,0,1.0133273,-268.95197,974.58915)"
               inkscape:transform-center-x="1.0196929"
               inkscape:transform-center-y="-89.532179"
               inkscape:label="path5969" /></g></g></g><g
         id="g3323"
         inkscape:label="Texts"
         transform="translate(-779.20392,9.716196)"><circle
           style="fill:none;fill-opacity:1;stroke:none;stroke-width:3.01836;stroke-linecap:round;stroke-opacity:1;paint-order:stroke fill markers"
           id="circle3307"
           cx="-1.4210855e-14"
           cy="-55.295727"
           transform="matrix(0,-1,-1,0,0,0)"
           r="76.490822"
           inkscape:label="Bottom-text-path" /><circle
           style="fill:none;fill-opacity:1;stroke:none;stroke-width:2.48601;stroke-linecap:round;stroke-opacity:1;paint-order:stroke fill markers"
           id="circle3309"
           cx="1.4210855e-14"
           cy="-55.295727"
           transform="rotate(90)"
           inkscape:label="Top-text-path"
           r="63" /><g
           aria-label="Cexplorer.io"
           id="text3317"
           style="font-size:16.8px;font-family:ROBOTO;-inkscape-font-specification:ROBOTO;text-align:center;letter-spacing:1.2px;text-anchor:middle;fill:#fefeff;stroke:#ffffff;stroke-width:0.744;stroke-linecap:round;paint-order:stroke fill markers"><path
             d="m 14.858755,-48.055292 q -1.276057,1.082623 -2.776689,1.355314 -1.499685,0.261129 -2.987961,-0.32652 -1.4873279,-0.599212 -2.7397738,-2.075435 -1.2630598,-1.488732 -1.6119449,-3.053813 -0.3426299,-1.570388 0.1646503,-3.001236 0.5135355,-1.436154 1.7895923,-2.518777 0.8194286,-0.695214 1.7269808,-1.045643 0.9075521,-0.350429 1.8275993,-0.356455 0.926303,-0.01133 1.806343,0.328555 0.880039,0.33989 1.656004,1.026262 l -1.945361,1.650469 q -0.431578,-0.343851 -0.889889,-0.503656 -0.463618,-0.16606 -0.92459,-0.151485 -0.466279,0.0083 -0.9183498,0.198225 -0.4511226,0.178342 -0.8702197,0.533909 -0.7944079,0.673986 -1.0336487,1.53318 -0.2329856,0.853886 0.061147,1.809201 0.2888255,0.94906 1.1007925,1.906103 0.80666,0.950787 1.6897276,1.395684 0.8893231,0.43959 1.7760141,0.343529 0.886692,-0.09606 1.6811,-0.770048 0.419097,-0.355567 0.673861,-0.765351 0.254765,-0.409783 0.338942,-0.868477 0.08418,-0.458693 0.0012,-0.936917 -0.083,-0.478223 -0.334126,-0.964414 l 1.939106,-1.645162 q 0.545472,0.871168 0.737441,1.794824 0.19197,0.923657 0.02987,1.835737 -0.162098,0.91208 -0.655706,1.750413 -0.49266,0.826771 -1.312089,1.521984 z"
             style="font-weight:bold;font-family:Inter;-inkscape-font-specification:Inter"
             id="path5492" /><path
             d="m 24.407684,-54.696185 q -1.103047,0.632425 -2.175545,0.575976 -1.065382,-0.06053 -1.984075,-0.706316 -0.922773,-0.652904 -1.571518,-1.784416 -0.656906,-1.145745 -0.732824,-2.284189 -0.07592,-1.138443 0.402965,-2.084367 0.474803,-0.95304 1.471103,-1.524262 0.782807,-0.448818 1.572259,-0.523215 0.796568,-0.07848 1.546835,0.191089 0.750267,0.269565 1.401285,0.860796 0.654055,0.580033 1.155915,1.455354 l 0.191767,0.334472 -6.177059,3.541579 -0.595704,-1.038998 5.500999,-3.153964 -0.311411,0.660789 q -0.440657,-0.768574 -1.04053,-1.171645 -0.596838,-0.414268 -1.270434,-0.434664 -0.677677,-0.02751 -1.353738,0.360104 -0.668944,0.383535 -0.987567,0.982269 -0.315587,0.587538 -0.266715,1.315978 0.05191,0.717244 0.492566,1.485818 l 0.293772,0.512383 q 0.444737,0.775691 1.050778,1.222505 0.613158,0.442733 1.321389,0.49055 0.70415,0.0407 1.437142,-0.379556 0.533732,-0.306012 0.845525,-0.702259 0.307712,-0.403363 0.399653,-0.853219 0.09906,-0.453936 -0.01149,-0.910622 l 1.209793,-0.693627 q 0.269767,0.800362 0.135605,1.605377 -0.138243,0.797899 -0.638857,1.49152 -0.493497,0.689542 -1.311886,1.15876 z"
             style="font-family:Inter;-inkscape-font-specification:Inter"
             id="path5494" /><path
             d="m 29.024949,-57.419381 1.614151,-5.923659 0.376633,1.006479 -4.912407,-3.239941 1.532131,-0.586708 1.70565,1.17392 q 0.511287,0.348818 1.007253,0.703503 0.493033,0.347025 0.999593,0.706438 l -0.643494,0.246417 q 0.144595,-0.608763 0.279735,-1.196338 0.139868,-0.59817 0.287397,-1.199272 l 0.500618,-2.018779 1.509149,-0.577907 -1.49956,5.695313 -0.387227,-1.011206 5.122496,3.352738 -1.524469,0.583774 -1.99104,-1.345722 q -0.497759,-0.33643 -0.977264,-0.671067 -0.479505,-0.334637 -0.972538,-0.681662 l 0.651156,-0.249351 q -0.135141,0.587575 -0.276149,1.159829 -0.141008,0.572254 -0.286743,1.155102 l -0.598262,2.337258 z"
             style="font-family:Inter;-inkscape-font-specification:Inter"
             id="path5496" /><path
             d="m 39.607891,-57.605288 -2.432547,-11.844188 1.333878,-0.273951 0.257447,1.253524 0.01607,-0.0033 q 0.175836,-0.530199 0.529315,-0.929396 0.353479,-0.399197 0.836389,-0.657489 0.48126,-0.266327 1.027668,-0.378548 1.108886,-0.227742 2.050404,0.15672 0.941518,0.384462 1.604173,1.286785 0.661006,0.894288 0.930005,2.204059 0.267349,1.301736 0.01397,2.392193 -0.255031,1.082423 -0.967157,1.814882 -0.713776,0.724425 -1.822662,0.952166 -0.546407,0.112221 -1.069573,0.05218 -0.521516,-0.052 -0.997333,-0.289255 -0.475818,-0.23725 -0.881832,-0.664699 l -0.01607,0.0033 0.953875,4.644465 z m 2.915536,-5.213053 q 0.739258,-0.151828 1.227473,-0.628942 0.488214,-0.477115 0.664404,-1.250243 0.176189,-0.773128 -0.0367,-1.809695 -0.214539,-1.044603 -0.681182,-1.685706 -0.466643,-0.641104 -1.103385,-0.887176 -0.636742,-0.246072 -1.375999,-0.09424 -0.78747,0.16173 -1.285155,0.674286 -0.497684,0.512557 -0.664188,1.29207 -0.166504,0.779513 0.03153,1.743762 0.196386,0.956213 0.656644,1.607002 0.460257,0.65079 1.119671,0.925703 0.659415,0.274913 1.446884,0.113183 z"
             style="font-family:Inter;-inkscape-font-specification:Inter"
             id="path5498" /><path
             d="m 49.868364,-75.032574 0.983695,12.183007 -1.390008,0.112234 -0.983695,-12.183007 z"
             style="font-family:Inter;-inkscape-font-specification:Inter"
             id="path5500" /><path
             d="m 57.684922,-62.75852 q -1.196813,-0.04493 -2.085176,-0.652908 -0.879858,-0.615865 -1.349932,-1.651417 -0.461876,-1.035245 -0.412327,-2.355018 0.04986,-1.327971 0.588364,-2.333866 0.546705,-1.005588 1.470265,-1.553747 0.931756,-0.547851 2.128569,-0.502918 1.20501,0.04524 2.084868,0.661105 0.879858,0.615865 1.341427,1.659307 0.469766,1.04375 0.419909,2.37172 -0.04955,1.319774 -0.595946,2.317164 -0.5382,0.997698 -1.461759,1.545857 -0.923252,0.539961 -2.128262,0.494721 z m 0.04739,-1.262392 q 0.819735,0.03078 1.416827,-0.349044 0.597092,-0.379819 0.935982,-1.097689 0.339197,-0.726066 0.37582,-1.701551 0.03724,-0.991879 -0.24687,-1.733138 -0.283802,-0.749456 -0.850425,-1.181174 -0.566624,-0.431719 -1.386359,-0.462494 -0.811538,-0.03047 -1.417135,0.357241 -0.597092,0.379819 -0.936289,1.105886 -0.339198,0.726067 -0.376436,1.717946 -0.03693,0.983682 0.247178,1.724941 0.284109,0.741259 0.851041,1.164779 0.566931,0.423521 1.386666,0.454297 z"
             style="font-family:Inter;-inkscape-font-specification:Inter"
             id="path5502" /><path
             d="m 64.50772,-62.351707 1.472099,-8.5365 1.309576,0.225834 -0.231409,1.341912 0.03234,0.0056 q 0.348741,-0.622445 0.927723,-0.938812 0.578981,-0.316366 1.379278,-0.178357 0.185928,0.03206 0.336732,0.07472 0.158888,0.04405 0.236938,0.07416 l -0.236986,1.374247 q -0.07666,-0.03819 -0.30551,-0.110954 -0.219376,-0.07945 -0.518477,-0.131031 -0.468861,-0.08085 -0.91069,0.06771 -0.441829,0.148561 -0.763804,0.567517 -0.321974,0.418956 -0.447437,1.146498 l -0.906121,5.254475 z"
             style="font-family:Inter;-inkscape-font-specification:Inter"
             id="path5504" /><path
             d="m 74.208055,-59.905665 q -1.213253,-0.380379 -1.900034,-1.206073 -0.678954,-0.82324 -0.828643,-1.936178 -0.147235,-1.120766 0.242959,-2.36533 0.395103,-1.260218 1.179334,-2.088951 0.78423,-0.828733 1.803832,-1.119444 1.022056,-0.298538 2.117898,0.04503 0.861019,0.269946 1.451672,0.799 0.59848,0.531509 0.910009,1.265345 0.311529,0.733836 0.319521,1.613219 0.01827,0.87401 -0.283575,1.836786 l -0.11534,0.367889 -6.794221,-2.130118 0.358292,-1.142807 6.050614,1.896984 -0.696561,0.220053 q 0.265038,-0.845364 0.153638,-1.55944 -0.101118,-0.719449 -0.543515,-1.227813 -0.439943,-0.516191 -1.18355,-0.749326 -0.73578,-0.230681 -1.391679,-0.05806 -0.645618,0.167251 -1.147213,0.697738 -0.491313,0.525114 -0.756351,1.370478 l -0.176691,0.563576 q -0.267492,0.853191 -0.184017,1.601497 0.0913,0.750759 0.537083,1.303168 0.448236,0.544582 1.254463,0.797349 0.587058,0.184054 1.089665,0.143904 0.505062,-0.04798 0.897748,-0.28593 0.400513,-0.235499 0.660725,-0.626743 l 1.330665,0.417189 q -0.404408,0.741491 -1.086499,1.189598 -0.679637,0.440281 -1.528769,0.543726 -0.841304,0.105899 -1.74146,-0.176316 z"
             style="font-family:Inter;-inkscape-font-specification:Inter"
             id="path5506" /><path
             d="m 80.477228,-57.777399 3.609932,-7.874471 1.208016,0.553797 -0.567471,1.237843 0.02983,0.01367 q 0.496566,-0.512329 1.137275,-0.669808 0.640708,-0.157479 1.37894,0.180953 0.171508,0.07862 0.306352,0.15849 0.142301,0.08328 0.210033,0.132383 l -0.581145,1.26767 q -0.06431,-0.05656 -0.266889,-0.185519 -0.1917,-0.133003 -0.467605,-0.259487 -0.432499,-0.198273 -0.897643,-0.167862 -0.465143,0.03041 -0.883704,0.352899 -0.418561,0.322487 -0.726226,0.993607 l -2.222023,4.846975 z"
             style="font-family:Inter;-inkscape-font-specification:Inter"
             id="path5508" /><path
             d="m 86.108686,-54.803396 q -0.371631,-0.209394 -0.491095,-0.615669 -0.10829,-0.409396 0.101104,-0.781026 0.213422,-0.378778 0.61567,-0.491095 0.409395,-0.108291 0.781026,0.101104 0.378777,0.213422 0.491095,0.61567 0.112317,0.402248 -0.101105,0.781026 -0.209394,0.371631 -0.615669,0.491095 -0.402249,0.112317 -0.781026,-0.101105 z"
             style="font-family:Inter;-inkscape-font-specification:Inter"
             id="path5510" /><path
             d="m 89.66592,-52.811898 4.811696,-7.203227 1.159611,0.774611 -4.811697,7.203226 z m 6.330147,-8.221096 q -0.327419,-0.218714 -0.404419,-0.605558 -0.077,-0.386844 0.141713,-0.714263 0.218714,-0.32742 0.605558,-0.40442 0.386844,-0.077 0.714263,0.141714 0.32742,0.218713 0.40442,0.605557 0.077,0.386844 -0.141714,0.714264 -0.218713,0.327419 -0.605557,0.404419 -0.386845,0.077 -0.714264,-0.141713 z"
             style="font-family:Inter;-inkscape-font-specification:Inter"
             id="path5512" /><path
             d="m 96.123878,-47.722538 q -0.909702,-0.778988 -1.227838,-1.807391 -0.306569,-1.029298 -0.03127,-2.132725 0.281525,-1.098091 1.140546,-2.101256 0.864356,-1.009396 1.911379,-1.462783 1.053253,-0.448052 2.117465,-0.303533 1.07044,0.149855 1.98015,0.928843 0.91593,0.784323 1.2225,1.813621 0.30657,1.029298 0.0197,2.13362 -0.28063,1.109658 -1.14499,2.119054 -0.85902,1.003165 -1.90694,1.444986 -1.041679,0.447156 -2.105894,0.302637 -1.058879,-0.15075 -1.974813,-0.935073 z m 0.821672,-0.959549 q 0.623084,0.533553 1.326915,0.607065 0.70383,0.07351 1.415465,-0.278283 0.71697,-0.358025 1.3519,-1.099495 0.6456,-0.753931 0.88369,-1.511226 0.24342,-0.763526 0.0678,-1.45389 -0.17561,-0.690365 -0.7987,-1.223918 -0.61685,-0.528218 -1.332246,-0.600835 -0.70383,-0.07351 -1.4208,0.284514 -0.71697,0.358025 -1.362569,1.111957 -0.640264,0.7477 -0.878355,1.504995 -0.23809,0.757295 -0.05714,1.441429 0.180949,0.684134 0.804032,1.217687 z"
             style="font-family:Inter;-inkscape-font-specification:Inter"
             id="path5514" /></g><g
           aria-label="90M ADA stake"
           id="text3321"
           style="font-size:16.8px;font-family:ROBOTO;-inkscape-font-specification:ROBOTO;text-align:center;letter-spacing:1.34783px;text-anchor:middle;fill:#fefeff;stroke:#ffffff;stroke-width:0.744;stroke-linecap:round;paint-order:stroke fill markers"><path
             d="m -2.0077112,50.965778 q -0.8102336,-0.90414 -1.0922254,-1.907147 -0.2765172,-0.996898 -0.056208,-1.943345 0.2264178,-0.951921 0.9005533,-1.699234 l 1.57119619,1.753298 q -0.43842029,0.58014 -0.41666899,1.243578 0.027226,0.669547 0.56373195,1.268234 0.58030243,0.64756 1.3123716,0.751561 0.73754375,0.11011 1.56512915,-0.25701 0.8275854,-0.36712 1.676744,-1.128083 l -0.01095,-0.01222 Q 3.4551885,49.121426 2.9328932,49.005679 2.4105979,48.889933 1.9270965,48.596226 1.4497041,48.297045 1.0226891,47.820539 0.23982823,46.946944 0.01218341,45.90625 -0.20935236,44.860081 0.11901587,43.849842 0.45896771,42.840239 1.3325625,42.057378 q 0.9285762,-0.832132 2.014336,-1.034072 1.0912344,-0.19583 2.1610582,0.211321 1.0752983,0.413261 1.9567011,1.396818 0.7664372,0.855268 1.058345,1.783299 0.2973825,0.93414 0.1337227,1.906927 -0.1581852,0.978896 -0.775509,1.961688 Q 7.2754762,49.266785 6.2125008,50.219357 5.0884348,51.226675 3.9646783,51.80413 2.8470308,52.37611 1.7772961,52.497599 0.71367043,52.613613 -0.25316994,52.23534 -1.2084267,51.8577 -2.0077112,50.965778 Z m 4.7323775,-4.097664 q 0.3065749,0.342107 0.6860598,0.519741 0.3849596,0.183744 0.7964948,0.200477 0.4170098,0.02284 0.8197354,-0.117756 Q 5.435791,47.324505 5.7840071,47.012455 6.2482952,46.596389 6.4287037,46.060208 6.6152213,45.518553 6.5060397,44.966509 6.396858,44.414466 5.9972158,43.968505 5.592099,43.516435 5.0552836,43.34761 4.5184682,43.178785 3.9542066,43.29892 q -0.552678,0.120765 -1.0230752,0.542306 -0.4642881,0.416065 -0.6446966,0.952246 -0.1804085,0.536181 -0.076701,1.082116 0.1152906,0.546569 0.5149329,0.99253 z"
             style="font-weight:bold;font-family:Inter;-inkscape-font-specification:'Inter Bold'"
             id="path5517" /><path
             d="m 6.8576751,59.45691 q -1.1887289,-0.969553 -1.5710753,-2.265868 -0.3708047,-1.297487 0.056927,-2.769351 0.4340883,-1.46668 1.662879,-2.973251 1.2339756,-1.512927 2.5834486,-2.233 1.3558296,-0.714888 2.7013716,-0.612487 1.345541,0.102401 2.540627,1.077138 1.188729,0.969552 1.559534,2.267039 0.382346,1.296315 -0.05693,2.769352 -0.427731,1.471865 -1.661707,2.984792 -1.228791,1.506571 -2.58462,2.221459 -1.34947,0.720073 -2.701369,0.612487 -1.340357,-0.108758 -2.5290859,-1.07831 z m 1.2754537,-1.563783 q 0.6166134,0.502923 1.3882327,0.465376 0.7716195,-0.03755 1.6197975,-0.584276 0.848178,-0.546728 1.688111,-1.576536 0.845118,-1.036165 1.210176,-1.976937 0.365058,-0.940771 0.24672,-1.704186 -0.113153,-0.769772 -0.729767,-1.272694 -0.616613,-0.502923 -1.399774,-0.464204 -0.771619,0.03755 -1.619797,0.584275 -0.8418216,0.551914 -1.6869393,1.588079 -0.8399329,1.029808 -1.2113481,1.965394 -0.3650583,0.940772 -0.2467202,1.704187 0.124695,0.768599 0.7413084,1.271522 z"
             style="font-weight:bold;font-family:Inter;-inkscape-font-specification:'Inter Bold'"
             id="path5519" /><path
             d="m 13.057621,64.122992 5.830123,-10.742578 3.237193,1.756862 -0.9419,5.966147 q -0.07576,0.397553 -0.194336,0.977197 -0.114668,0.572435 -0.249515,1.199251 -0.130934,0.619607 -0.267231,1.180303 -0.129087,0.564609 -0.218647,0.936003 l -0.555153,-0.301288 q 0.262595,-0.277486 0.658443,-0.69732 0.403059,-0.415922 0.851224,-0.863363 0.452078,-0.454652 0.862346,-0.866661 0.421391,-0.415305 0.706231,-0.699385 l 4.467485,-4.052772 3.237193,1.756863 -5.830123,10.742578 -2.177355,-1.181676 2.770287,-5.104527 q 0.195641,-0.360489 0.480047,-0.850139 0.284405,-0.489649 0.604025,-1.044187 0.323534,-0.561747 0.65098,-1.130704 0.331359,-0.576167 0.620293,-1.091358 l 0.266762,0.144774 q -0.474939,0.479578 -0.979949,0.980169 -0.4978,0.504505 -0.968826,0.976872 -0.471026,0.472368 -0.880678,0.866045 -0.39853,0.390379 -0.686667,0.663337 l -4.587152,4.118492 -1.802446,-0.978208 0.931791,-6.1023 q 0.07184,-0.390342 0.174772,-0.941148 0.106842,-0.558015 0.239008,-1.214286 0.139376,-0.652359 0.276687,-1.352504 0.144521,-0.696233 0.2806,-1.359714 l 0.31723,0.172165 q -0.274514,0.523017 -0.577034,1.114835 -0.298607,0.584608 -0.593301,1.162007 -0.290782,0.570189 -0.553558,1.071577 -0.255566,0.5053 -0.451207,0.86579 l -2.770287,5.104527 z"
             style="font-weight:bold;font-family:Inter;-inkscape-font-specification:'Inter Bold'"
             id="path5521" /><path
             d="m 31.531808,72.969548 7.038484,-10.874703 3.157741,0.762242 1.30242,12.888101 -2.719167,-0.656376 -0.470419,-6.231634 q -0.06763,-1.223065 -0.143787,-2.515696 -0.06626,-1.298681 -0.117387,-2.939699 l 0.677798,0.163613 q -0.810072,1.433133 -1.469458,2.556653 -0.649487,1.117469 -1.283576,2.171147 l -3.32525,5.315404 z m 3.272977,-1.952529 0.473514,-1.961627 6.21182,1.499461 -0.473514,1.961627 z"
             style="font-weight:bold;font-family:Inter;-inkscape-font-specification:'Inter Bold'"
             id="path5523" /><path
             d="m 49.687154,76.288993 -3.150861,-0.215221 0.144785,-2.11967 3.019917,0.206277 q 1.227608,0.08385 2.06095,-0.319671 0.833901,-0.411707 1.28711,-1.268753 0.453767,-0.865229 0.541533,-2.150125 0.08777,-1.284897 -0.244695,-2.195608 -0.332461,-0.91071 -1.103193,-1.423801 -0.762549,-0.512532 -1.973789,-0.595266 l -3.101756,-0.211868 0.144785,-2.11967 3.257254,0.222489 q 1.833228,0.12522 3.124542,0.961647 1.291874,0.828244 1.926899,2.244734 0.635025,1.416489 0.50701,3.290638 -0.128015,1.874149 -0.950311,3.199317 -0.821736,1.316985 -2.222976,1.969496 -1.393055,0.65307 -3.267204,0.525055 z M 48.735965,63.972886 47.90303,76.167128 45.382341,75.99495 46.215277,63.800709 Z"
             style="font-weight:bold;font-family:Inter;-inkscape-font-specification:'Inter Bold'"
             id="path5525" /><path
             d="m 57.005962,76.699767 3.068006,-12.58518 3.232706,-0.319312 5.470907,11.741746 -2.783718,0.274962 -2.494834,-5.729779 Q 63.032696,68.949511 62.535422,67.75393 62.045505,66.549379 61.457221,65.016579 l 0.693889,-0.06854 q -0.293363,1.619884 -0.546315,2.897813 -0.245595,1.268958 -0.497641,2.472609 L 59.71621,76.43206 Z m 2.448186,-2.920811 -0.19836,-2.008195 6.359287,-0.628141 0.19836,2.008196 z"
             style="font-weight:bold;font-family:Inter;-inkscape-font-specification:'Inter Bold'"
             id="path5527" /><path
             d="m 79.312054,72.869151 q -1.067432,0.351537 -2.00889,0.298853 -0.944025,-0.06047 -1.647956,-0.519572 -0.703932,-0.459096 -1.0718,-1.313873 l 2.259528,-0.74413 q 0.239383,0.517085 0.729029,0.692654 0.489647,0.175569 1.159713,-0.0451 0.638901,-0.210409 0.917764,-0.569979 0.286655,-0.362136 0.160923,-0.743918 -0.107771,-0.327242 -0.454979,-0.437446 -0.339417,-0.112769 -0.876654,-0.03948 l -1.533798,0.19421 q -1.276866,0.161414 -2.100329,-0.241044 -0.823463,-0.402458 -1.136511,-1.353018 -0.256596,-0.779147 -0.0283,-1.50207 0.236084,-0.725489 0.910027,-1.301535 0.681735,-0.578613 1.756958,-0.932716 1.067432,-0.351537 1.975065,-0.270441 0.905067,0.07331 1.554458,0.550363 0.657183,0.474493 0.962813,1.323857 l -2.127072,0.700508 q -0.172014,-0.496088 -0.661566,-0.697598 -0.489553,-0.20151 -1.10508,0.0012 -0.592152,0.195014 -0.842508,0.562469 -0.252923,0.359663 -0.132323,0.725863 0.105205,0.31945 0.43683,0.434786 0.331625,0.115335 0.832471,0.06267 l 1.658368,-0.209326 q 1.326181,-0.169018 2.092725,0.191729 0.771769,0.35039 1.071987,1.261993 0.269426,0.818105 0.0046,1.587589 -0.259552,0.759127 -0.972546,1.373944 -0.707768,0.60446 -1.782992,0.958563 z"
             style="font-weight:bold;font-family:Inter;-inkscape-font-specification:'Inter Bold'"
             id="path5529" /><path
             d="m 86.326982,60.39057 0.800672,1.717455 -5.152367,2.402015 -0.800672,-1.717456 z m -4.79746,-0.370061 2.193288,-1.022503 3.5285,7.568701 q 0.183704,0.394048 0.412625,0.477392 0.236355,0.07988 0.682447,-0.128089 0.185872,-0.08665 0.438658,-0.2045 0.26022,-0.121314 0.401483,-0.18717 l 0.800672,1.717455 q -0.200742,0.09359 -0.557616,0.259959 -0.356874,0.166373 -0.721183,0.336212 -1.293667,0.603103 -2.146457,0.385219 -0.845355,-0.22135 -1.344475,-1.291972 z"
             style="font-weight:bold;font-family:Inter;-inkscape-font-specification:'Inter Bold'"
             id="path5531" /><path
             d="m 94.744007,65.729371 q -0.731437,0.454848 -1.45427,0.566251 -0.722833,0.111402 -1.35347,-0.172624 -0.634969,-0.290991 -1.089817,-1.022428 -0.385537,-0.61998 -0.411239,-1.173929 -0.03003,-0.560916 0.211085,-1.058612 0.243752,-0.508994 0.676935,-0.961908 0.440149,-0.457247 0.981042,-0.861224 0.63239,-0.489854 0.990468,-0.799466 0.358079,-0.309612 0.458588,-0.536332 0.10051,-0.22672 -0.04677,-0.463566 l -0.03032,-0.04876 q -0.168944,-0.271676 -0.440856,-0.382722 -0.276244,-0.118012 -0.621562,-0.06749 -0.338353,0.04619 -0.71452,0.28011 -0.376167,0.233922 -0.5951,0.534284 -0.211967,0.296031 -0.244864,0.615944 -0.0329,0.319913 0.116846,0.622849 l -1.929599,1.199933 q -0.423413,-0.789624 -0.372898,-1.593827 0.05748,-0.808534 0.59568,-1.558591 0.533868,-0.757023 1.543947,-1.385146 0.752334,-0.467844 1.452747,-0.661902 0.69608,-0.201025 1.30371,-0.12487 0.614597,0.07182 1.113815,0.408594 0.499218,0.336769 0.867428,0.928885 l 3.10163,4.9877 -2.006226,1.247583 -0.645451,-1.037943 -0.02786,0.01733 q 0.03021,0.483528 -0.09512,0.91888 -0.125329,0.435352 -0.445357,0.83722 -0.32436,0.394903 -0.888611,0.745785 z m -0.31682,-1.783257 q 0.494591,-0.307564 0.737231,-0.709608 0.249606,-0.406375 0.249721,-0.841141 1.15e-4,-0.434766 -0.246802,-0.831831 l -0.45918,-0.738403 q -0.06024,0.105077 -0.1762,0.244809 -0.120296,0.132766 -0.289354,0.295855 -0.173391,0.156124 -0.377279,0.340872 -0.203889,0.184749 -0.426042,0.371195 -0.320614,0.276655 -0.532581,0.572685 -0.216298,0.289064 -0.262191,0.588079 -0.05022,0.292049 0.131715,0.584624 0.16028,0.257744 0.416562,0.35919 0.256282,0.101446 0.574673,0.03869 0.31839,-0.06275 0.659727,-0.275016 z"
             style="font-weight:bold;font-family:Inter;-inkscape-font-specification:'Inter Bold'"
             id="path5533" /><path
             d="m 101.42372,57.880256 -1.822007,-2.197618 0.195765,-0.162305 0.221342,-4.488451 2.18499,-1.811537 -0.24475,5.861142 -0.42942,0.356024 z m -0.0945,3.317679 -7.80113,-9.409343 1.862923,-1.544519 7.801127,9.409344 z m 4.36366,-3.617838 -4.51761,-1.156189 0.15811,-2.315527 6.53817,1.665415 z"
             style="font-weight:bold;font-family:Inter;-inkscape-font-specification:'Inter Bold'"
             id="path5535" /><path
             d="m 111.89225,51.748594 q -0.88706,0.967361 -1.97003,1.298749 -1.08347,0.319799 -2.20513,0.02582 -1.11612,-0.300022 -2.08348,-1.187077 -0.97945,-0.898144 -1.36325,-1.984649 -0.38429,-1.098095 -0.1649,-2.199109 0.21939,-1.101014 1.05655,-2.013961 0.64866,-0.707384 1.41719,-1.059991 0.76249,-0.358151 1.59243,-0.365062 0.8239,-0.01246 1.63364,0.318252 0.81527,0.324661 1.54684,0.995497 l 0.47764,0.437984 -5.17265,5.640927 -1.13665,-1.042291 4.38538,-4.782393 -0.46529,1.053604 q -0.48368,-0.443528 -0.99513,-0.589752 -0.51145,-0.146223 -0.99825,0.0084 -0.48731,0.143028 -0.89758,0.590432 -0.40472,0.441359 -0.50508,0.939209 -0.10641,0.492305 0.0835,0.989197 0.18989,0.496892 0.67357,0.94042 l 0.77389,0.709645 q 0.49577,0.454616 1.0314,0.623015 0.53513,0.15681 1.05117,0.0067 0.50998,-0.155621 0.94797,-0.633256 0.32155,-0.350669 0.46876,-0.705399 0.1467,-0.36632 0.13164,-0.714023 -0.0156,-0.359293 -0.19137,-0.665199 l 1.49136,-1.626377 q 0.5295,0.697004 0.62509,1.563753 0.0956,0.866749 -0.21396,1.762654 -0.31561,0.890361 -1.02525,1.664251 z"
             style="font-weight:bold;font-family:Inter;-inkscape-font-specification:'Inter Bold'"
             id="path5537" /></g></g><g
         style="fill:#000000"
         id="g3687"
         transform="matrix(0.20144581,0,0,0.20144581,-761.75151,-25.062279)"
         inkscape:label="Middlecoins"><g
           id="g3685">
	<g
   id="g3683"
   transform="translate(-70.464283)">
		
		
		<g
   id="g3637"
   inkscape:label="Left"><path
     d="m 117.4607,172.8953 c 9.4539,0 18.592,-0.61066 27.23922,-1.74737 V 76.366871 c -8.64639,-1.13587 -17.78532,-1.746533 -27.23922,-1.746533 -53.980023,0 -97.739685,19.846819 -97.739685,44.330122 v 9.61389 c 0,24.48246 43.759662,44.33095 97.739685,44.33095 z"
     id="path3619"
     style="fill:#e4003a;fill-opacity:1;stroke-width:0.838335;stroke-dasharray:none" /><path
     d="m 117.4607,272.56703 c 9.4539,0 18.592,-0.61066 27.23922,-1.74569 v -27.78203 c -8.6489,1.13588 -17.78281,1.75491 -27.23922,1.75491 -47.118703,0 -86.446275,-15.12322 -95.684054,-35.25065 -1.345291,2.93183 -2.055631,5.96753 -2.055631,9.07946 v 9.61389 c 0,24.4833 43.759662,44.33011 97.739685,44.33011 z"
     id="path3621"
     style="fill:#ffffff;fill-opacity:1;stroke-width:0.838335;stroke-dasharray:none" /><path
     d="m 144.69908,294.69146 v -2.1595 c -8.6489,1.13587 -17.78281,1.75491 -27.23922,1.75491 -47.1187,0 -86.446273,-15.12322 -95.684051,-35.25065 -1.345292,2.93099 -2.055632,5.96669 -2.055632,9.07862 v 9.61389 c 0,24.48413 43.759662,44.33095 97.739683,44.33095 10.795,0 21.17787,-0.79578 30.88726,-2.2617 -2.40662,-4.92296 -3.64804,-10.11481 -3.64804,-15.49347 z"
     id="path3623"
     style="fill:#ffffff;fill-opacity:1;stroke-width:0.838335;stroke-dasharray:none" /><path
     d="m 117.4607,222.38627 c 9.4539,0 18.592,-0.61066 27.23922,-1.74569 v -27.78203 c -8.6489,1.13588 -17.78281,1.75491 -27.23922,1.75491 -47.118703,0 -86.446275,-15.12322 -95.684054,-35.25065 -1.345291,2.93183 -2.055631,5.96753 -2.055631,9.07946 v 9.61389 c 0,24.4833 43.759662,44.33011 97.739685,44.33011 z"
     id="path3625"
     style="fill:#ffffff;fill-opacity:1;stroke-width:0.838335;stroke-dasharray:none" /><path
     d="m -16.069958,212.5057 c 7.1496589,0 14.0604889,-0.46182 20.6000839,-1.32147 v -71.67964 c -6.538967,-0.85902 -13.450425,-1.32084 -20.6000839,-1.32084 -40.823231,0 -73.917153,15.00946 -73.917153,33.52533 v 7.27065 c 0,18.51524 33.093922,33.52597 73.917153,33.52597 z"
     id="path3627"
     style="fill:#e4003a;fill-opacity:1;stroke-width:0.634004;stroke-dasharray:none" /><path
     d="m 4.5294909,262.16982 v -1.63315 c -6.540866,0.85902 -13.448527,1.32717 -20.6000839,1.32717 -35.634249,0 -65.376338,-11.43717 -72.362548,-26.65885 -1.0174,2.21661 -1.55461,4.5124 -1.55461,6.86585 v 7.27065 c 0,18.51651 33.093928,33.52597 73.917158,33.52597 8.1638859,0 16.01609289,-0.60182 23.3589709,-1.71044 -1.820044,-3.72307 -2.758887,-7.64948 -2.758887,-11.71718 z"
     id="path3629"
     style="fill:#ffffff;fill-opacity:1;stroke-width:0.634004;stroke-dasharray:none" /><path
     d="m 532.71524,212.50563 c -7.14969,0 -14.06056,-0.46183 -20.60018,-1.32148 v -71.68 c 6.539,-0.85903 13.45049,-1.32085 20.60018,-1.32085 40.82345,0 73.91754,15.00953 73.91754,33.5255 v 7.27069 c 0,18.51533 -33.09409,33.52614 -73.91754,33.52614 z"
     id="path3631"
     style="fill:#e4003a;fill-opacity:1;stroke-width:0.634007;stroke-dasharray:none" /><path
     d="m 512.11569,262.16983 v -1.63316 c 6.5409,0.85902 13.4486,1.32718 20.60019,1.32718 35.63443,0 65.37667,-11.43723 72.36292,-26.65899 1.01741,2.21662 1.55461,4.51243 1.55461,6.86589 v 7.27069 c 0,18.51659 -33.09409,33.52614 -73.91753,33.52614 -8.16393,0 -16.01618,-0.60183 -23.35909,-1.71046 1.82005,-3.72308 2.7589,-7.64952 2.7589,-11.71723 z"
     id="path3633"
     style="fill:#ffffff;fill-opacity:1;stroke-width:0.634007;stroke-dasharray:none" /><path
     d="m 4.5294909,226.98894 v -1.63315 c -6.540866,0.85902 -13.448527,1.32717 -20.6000839,1.32717 -35.634249,0 -65.376338,-11.43717 -72.362548,-26.65885 -1.0174,2.21661 -1.55461,4.5124 -1.55461,6.86585 v 7.27065 c 0,18.51651 33.093928,33.52597 73.917158,33.52597 8.1638859,0 16.01609289,-0.60182 23.3589709,-1.71044 -1.820044,-3.72307 -2.758887,-7.64948 -2.758887,-11.71718 z"
     id="path3635"
     style="fill:#ffffff;fill-opacity:1;stroke-width:0.634004;stroke-dasharray:none" /><path
     d="m 512.11569,226.98886 v -1.63316 c 6.5409,0.85902 13.4486,1.32718 20.60019,1.32718 35.63443,0 65.37667,-11.43723 72.36292,-26.65899 1.01741,2.21662 1.55461,4.51243 1.55461,6.86589 v 7.27069 c 0,18.51659 -33.09409,33.52614 -73.91753,33.52614 -8.16393,0 -16.01618,-0.60183 -23.35909,-1.71046 1.82005,-3.72308 2.7589,-7.64952 2.7589,-11.71723 z"
     id="path3724"
     style="fill:#ffffff;fill-opacity:1;stroke-width:0.634007;stroke-dasharray:none" /></g>
		
		
		
		
		<g
   id="g3671"
   inkscape:label="Middle"><path
     d="m 258.38792,-0.45965459 c -53.98002,0 -97.73968,19.84681559 -97.73968,44.33011159 v 9.613895 c 0,24.483299 43.75966,44.330125 97.73968,44.330125 53.97919,0 97.73969,-19.846826 97.73969,-44.330125 v -9.613895 c 0,-24.483296 -43.7605,-44.33011159 -97.73969,-44.33011159 z"
     id="path3639"
     style="fill:#e4003a;fill-opacity:1;stroke-width:0.838335;stroke-dasharray:none" /><path
     d="m 258.38792,169.71423 c -47.1187,0 -86.44627,-15.12238 -95.68405,-35.25065 -1.34529,2.93099 -2.05563,5.9667 -2.05563,9.07946 v 9.61389 c 0,24.4833 43.75966,44.33011 97.73968,44.33011 53.97919,0 97.73969,-19.84681 97.73969,-44.33011 v -9.61389 c 0,-3.11276 -0.71034,-6.14847 -2.05563,-9.07946 -9.23778,20.12827 -48.56535,35.25065 -95.68406,35.25065 z"
     id="path3641"
     style="fill:#ffffff;fill-opacity:1;stroke-width:0.838335;stroke-dasharray:none" /><path
     d="m 258.38792,219.20688 c -47.1187,0 -86.44627,-15.12322 -95.68405,-35.25065 -1.34529,2.93099 -2.05563,5.96669 -2.05563,9.07946 v 9.61389 c 0,24.48413 43.75966,44.33095 97.73968,44.33095 53.97919,0 97.73969,-19.84682 97.73969,-44.33095 v -9.61389 c 0,-3.11277 -0.71034,-6.14847 -2.05563,-9.07946 -9.23778,20.12827 -48.56535,35.25065 -95.68406,35.25065 z"
     id="path3643"
     style="fill:#ffffff;fill-opacity:1;stroke-width:0.838335;stroke-dasharray:none" /><path
     d="m 258.38792,271.37084 c -47.1187,0 -86.44627,-15.12321 -95.68405,-35.25065 -1.34529,2.93183 -2.05563,5.9667 -2.05563,9.07862 v 9.61473 c 0,24.4833 43.75966,44.33011 97.73968,44.33011 53.97919,0 97.73969,-19.84681 97.73969,-44.33011 v -9.61473 c 0,-3.11192 -0.71034,-6.14846 -2.05563,-9.07862 -9.23778,20.1266 -48.56535,35.25065 -95.68406,35.25065 z"
     id="path3645"
     style="fill:#ffffff;fill-opacity:1;stroke-width:0.838335;stroke-dasharray:none" /><path
     d="m 258.38792,320.86265 c -47.1187,0 -86.44627,-15.12238 -95.68405,-35.24981 -1.34529,2.93183 -2.05563,5.96837 -2.05563,9.07862 v 9.61389 c 0,24.4833 43.75966,44.33011 97.73968,44.33011 53.97919,0 97.73969,-19.84681 97.73969,-44.33011 v -9.61473 c 0,-3.11193 -0.71034,-6.14846 -2.05563,-9.07862 -9.23778,20.12744 -48.56535,35.25065 -95.68406,35.25065 z"
     id="path3647"
     style="fill:#ffffff;fill-opacity:1;stroke-width:0.838335;stroke-dasharray:none" /><g
     transform="matrix(10.303711,0,0,10.303711,161.70322,-61.147785)"
     id="g3667"
     inkscape:label="Logo"
     style="fill:#000000">
<g
   id="g3665"
   transform="matrix(0.6933596,0,0,0.6933596,0.97298999,0.28937229)"
   inkscape:label="Logo"
   style="display:inline">
		<g
   transform="translate(0.91990781,-0.8)"
   id="g3651"
   inkscape:label="Circle"
   style="display:none">
<path
   style="opacity:1;fill:#e4003a;fill-opacity:1;fill-rule:nonzero;stroke:none;stroke-width:1;stroke-linecap:butt;stroke-linejoin:miter;stroke-miterlimit:4;stroke-dasharray:none;stroke-dashoffset:0"
   d="m 0,7.39996 a 7.6,7.6 0 1 1 7.6,-7.6 7.6,7.6 0 0 1 -7.6,7.6 z"
   stroke-linecap="round"
   id="path3649" />
</g>
		<g
   transform="translate(0.81,-1.08)"
   id="g3655"
   style="display:none"
   inkscape:label="undefined">
<path
   style="opacity:1;fill:#ffffff;fill-rule:nonzero;stroke:none;stroke-width:1;stroke-linecap:butt;stroke-linejoin:miter;stroke-miterlimit:4;stroke-dasharray:none;stroke-dashoffset:0"
   transform="translate(-10.81,-11.92)"
   d="m 8.46,13.2 h -0.8 c -0.3,0 -0.4,-0.1 -0.4,-0.4 a 0.43,0.43 0 0 1 0.4,-0.4 h 0.9 a 0.35,0.35 0 0 0 0.2,-0.1 1.42,1.42 0 0 0 0.2,-0.6 h -0.7 a 0.4,0.4 0 1 1 0,-0.8 h 0.8 c 0.1,0 0.2,0 0.2,-0.1 a 23.29,23.29 0 0 0 1.1,-2.8 0.1,0.1 0 0 1 0.1,-0.1 c 0.1,-0.2 0.2,-0.3 0.4,-0.3 0.2,0 0.3,0.1 0.4,0.3 0.2,0.6 0.4,1.1 0.6,1.7 0.2,0.4 0.3,0.8 0.5,1.2 0,0.1 0.1,0.1 0.2,0.1 h 0.8 a 0.37,0.37 0 0 1 0.4,0.4 0.43,0.43 0 0 1 -0.4,0.4 h -0.7 a 4.88,4.88 0 0 0 0.3,0.7 0.35,0.35 0 0 0 0.2,0.1 h 0.9 c 0.1,0 0.3,0.1 0.3,0.2 a 0.6,0.6 0 0 1 -0.1,0.4 0.37,0.37 0 0 1 -0.3,0.1 h -0.8 a 3.55,3.55 0 0 0 0.4,0.9 l 0.6,1.5 c 0.1,0.3 0.1,0.5 -0.2,0.6 -0.3,0.1 -0.4,0 -0.5,-0.3 -0.3,-0.9 -0.7,-1.7 -1,-2.6 -0.1,-0.2 -0.1,-0.2 -0.3,-0.2 h -2.9 c -0.2,0 -0.2,0 -0.3,0.2 a 18.61,18.61 0 0 1 -1,2.5 c -0.1,0.2 -0.2,0.3 -0.4,0.3 a 0.27,0.27 0 0 1 -0.3,-0.3 0.37,0.37 0 0 1 0.1,-0.3 c 0.3,-0.7 0.5,-1.4 0.8,-2.1 0.2,0 0.2,-0.1 0.3,-0.2 z m 1,-0.8 h 2.7 c -0.1,-0.2 -0.2,-0.5 -0.3,-0.7 a 0.35,0.35 0 0 0 -0.2,-0.1 h -1.8 c -0.1,0 -0.1,0 -0.2,0.1 a 1.45,1.45 0 0 1 -0.2,0.7 z m 2.2,-1.5 c -0.3,-0.7 -0.5,-1.3 -0.8,-2 -0.3,0.7 -0.5,1.3 -0.8,2 z"
   stroke-linecap="round"
   id="path3653" />
</g>
<path
   style="opacity:1;fill:#050001;fill-opacity:1;stroke:#ffffff;stroke-width:0.791434;stroke-linecap:round;stroke-miterlimit:3.7;stroke-dasharray:none;stroke-opacity:1;paint-order:stroke fill markers"
   d="M 8.1350941,16.876025 12.086609,10.362006"
   id="path3657"
   sodipodi:nodetypes="cc" /><path
   style="opacity:1;fill:#050001;fill-opacity:1;stroke:#ffffff;stroke-width:0.791434;stroke-linecap:round;stroke-miterlimit:3.7;stroke-dasharray:none;stroke-opacity:1"
   d="M 16.144951,16.87452 12.196567,10.360599"
   id="path3659"
   sodipodi:nodetypes="cc" /><path
   style="opacity:1;fill:#050001;fill-opacity:1;stroke:#ffffff;stroke-width:0.791434;stroke-linecap:round;stroke-miterlimit:3.7;stroke-dasharray:none;stroke-opacity:1"
   d="m 9.0180552,13.152778 6.2251588,-0.01311"
   id="path3661" /><path
   style="fill:#050001;fill-opacity:1;stroke:#ffffff;stroke-width:0.791434;stroke-linecap:round;stroke-miterlimit:3.7;stroke-dasharray:none;stroke-opacity:1"
   d="m 8.2176918,14.418566 7.8247822,-0.01051"
   id="path3663" /></g>
</g><path
     d="m 258.38792,119.53347 c -47.1187,0 -86.44627,-15.12238 -95.68405,-35.250656 -1.34529,2.93099 -2.05563,5.9667 -2.05563,9.079463 v 9.613893 c 0,24.4833 43.75966,44.33011 97.73968,44.33011 53.97919,0 97.73969,-19.84681 97.73969,-44.33011 v -9.613893 c 0,-3.112763 -0.71034,-6.148473 -2.05563,-9.079463 -9.23778,20.128276 -48.56535,35.250656 -95.68406,35.250656 z"
     id="path3669"
     style="fill:#ffffff;fill-opacity:1;stroke-width:0.838335;stroke-dasharray:none" /></g>
	<g
   id="g3681"
   inkscape:label="Right"
   transform="translate(0,-10.01765)"><path
     d="m 399.31515,182.91295 c -9.4539,0 -18.592,-0.61066 -27.23922,-1.74737 V 86.384524 c 8.64639,-1.13587 17.78532,-1.74653 27.23922,-1.74653 53.98002,0 97.73968,19.846816 97.73968,44.330116 v 9.61389 c 0,24.48246 -43.75966,44.33095 -97.73968,44.33095 z"
     id="path3673"
     style="fill:#e4003a;fill-opacity:1;stroke-width:0.838335;stroke-dasharray:none" /><path
     d="m 399.31515,282.58468 c -9.4539,0 -18.592,-0.61066 -27.23922,-1.74569 v -27.78203 c 8.6489,1.13588 17.78281,1.75491 27.23922,1.75491 47.1187,0 86.44627,-15.12322 95.68405,-35.25065 1.34529,2.93183 2.05563,5.96753 2.05563,9.07946 v 9.61389 c 0,24.4833 -43.75966,44.33011 -97.73968,44.33011 z"
     id="path3675"
     style="fill:#ffffff;fill-opacity:1;stroke-width:0.838335;stroke-dasharray:none" /><path
     d="m 372.07677,304.70911 v -2.1595 c 8.6489,1.13587 17.78281,1.75491 27.23922,1.75491 47.1187,0 86.44627,-15.12322 95.68405,-35.25065 1.34529,2.93099 2.05563,5.96669 2.05563,9.07862 v 9.61389 c 0,24.48413 -43.75966,44.33095 -97.73968,44.33095 -10.795,0 -21.17787,-0.79578 -30.88726,-2.2617 2.40662,-4.92296 3.64804,-10.11481 3.64804,-15.49347 z"
     id="path3677"
     style="fill:#ffffff;fill-opacity:1;stroke-width:0.838335;stroke-dasharray:none" /><path
     d="m 399.31515,232.40392 c -9.4539,0 -18.592,-0.61066 -27.23922,-1.74569 V 202.8762 c 8.6489,1.13588 17.78281,1.75491 27.23922,1.75491 47.1187,0 86.44627,-15.12322 95.68405,-35.25065 1.34529,2.93183 2.05563,5.96753 2.05563,9.07946 v 9.61389 c 0,24.4833 -43.75966,44.33011 -97.73968,44.33011 z"
     id="path3679"
     style="fill:#ffffff;fill-opacity:1;stroke-width:0.838335;stroke-dasharray:none" /></g></g>
</g></g></g></g></svg>
