<?xml version="1.0" encoding="UTF-8" standalone="no"?>
<svg
   inkscape:version="1.2.2 (b0a84865, 2022-12-01)"
   xml:space="preserve"
   sodipodi:docname="final_awards_pre-text-to-path.svg"
   id="svg134"
   version="1.1"
   viewBox="-120 -120 300 299.99995"
   height="249.99995"
   width="250"
   inkscape:export-filename="0.svg"
   inkscape:export-xdpi="96"
   inkscape:export-ydpi="96"
   xmlns:inkscape="http://www.inkscape.org/namespaces/inkscape"
   xmlns:sodipodi="http://sodipodi.sourceforge.net/DTD/sodipodi-0.dtd"
   xmlns="http://www.w3.org/2000/svg"
   xmlns:svg="http://www.w3.org/2000/svg"><defs
     id="defs138" /><sodipodi:namedview
     id="namedview136"
     pagecolor="#ffffff"
     bordercolor="#000000"
     borderopacity="0.25"
     inkscape:showpageshadow="2"
     inkscape:pageopacity="0.0"
     inkscape:pagecheckerboard="0"
     inkscape:deskcolor="#d1d1d1"
     showgrid="false"
     inkscape:zoom="0.35355339"
     inkscape:cx="1480.6816"
     inkscape:cy="663.26616"
     inkscape:window-width="1425"
     inkscape:window-height="949"
     inkscape:window-x="0"
     inkscape:window-y="25"
     inkscape:window-maximized="1"
     inkscape:current-layer="g19337"
     showguides="true" /><style
     type="text/css"
     id="style8571">
	.st0{fill:#ffffff;}
</style><g
     id="g14593"
     inkscape:label="Staked"
     transform="translate(-4083.3734,-407.04369)"><g
       id="g3918"
       inkscape:label="100m"
       transform="matrix(1.4245145,0,0,1.4245145,5144.5911,422.78857)"
       inkscape:export-filename="./g8306.svg"
       inkscape:export-xdpi="96"
       inkscape:export-ydpi="96"><g
         id="g3826"
         inkscape:label="border"
         style="fill:#112c50;fill-opacity:1"
         transform="translate(-1336.6973,-1105.8461)"><path
           fill="none"
           stroke="black"
           stroke-width="2"
           d="m 712.78911,1115.8531 q 9.47,10.78 -1.92,19.51 7.18,12.42 -5.69,18.76 4.62,13.58 -9.24,17.29 1.88,14.22 -12.44,15.15 -0.93,14.32 -15.15,12.44 -3.71,13.86 -17.29,9.24 -6.34,12.87 -18.76,5.69 -8.73,11.39 -19.51,1.92 -10.78,9.47 -19.51,-1.92 -12.42,7.18 -18.76,-5.69 -13.58,4.62 -17.29,-9.24 -14.22,1.88 -15.15,-12.44 -14.32,-0.93 -12.44,-15.15 -13.86,-3.71 -9.24,-17.29 -12.87,-6.34 -5.69,-18.76 -11.39,-8.73 -1.92,-19.51 -9.47,-10.78 1.92,-19.51 -7.18,-12.42 5.69,-18.76 -4.62,-13.58 9.24,-17.29 -1.88,-14.22 12.44,-15.15 0.93,-14.32 15.15,-12.44 3.71,-13.86 17.29,-9.24 6.34,-12.87 18.76,-5.69 8.73,-11.39 19.51,-1.92 10.78,-9.47 19.51,1.92 12.42,-7.18 18.76,5.69 13.58,-4.62 17.29,9.24 14.22,-1.88 15.15,12.44 14.32,0.93 12.44,15.15 13.86,3.71 9.24,17.29 12.87,6.34 5.69,18.76 11.39,8.73 1.92,19.51 z"
           id="path3726"
           style="fill:#04344d;fill-opacity:1;stroke:#04344d;stroke-opacity:1" /><g
           id="g3824"
           inkscape:label="Circles"
           transform="translate(97.989201,1115.8444)"
           style="fill:#112c50;fill-opacity:1"><g
             id="g3730"
             transform="rotate(7.5,5558.9497,3252.8791)"
             inkscape:transform-center-x="-11.777454"
             inkscape:transform-center-y="-88.637902"
             style="fill:#ffffff;fill-opacity:1"><path
               sodipodi:type="star"
               style="fill:#efa900;fill-opacity:1;stroke:#efa900;stroke-width:2.22;stroke-linecap:round;stroke-opacity:1;paint-order:stroke fill markers"
               id="path3728"
               inkscape:flatsided="false"
               sodipodi:sides="5"
               sodipodi:cx="396.99625"
               sodipodi:cy="-372.60107"
               sodipodi:r1="3.6169088"
               sodipodi:r2="1.6637779"
               sodipodi:arg1="0.95906936"
               sodipodi:arg2="1.5873879"
               inkscape:rounded="0"
               inkscape:randomized="0"
               d="m 399.07337,-369.64006 -2.10473,-1.29747 -2.14661,1.22692 0.58356,-2.40265 -1.83021,-1.66242 2.46539,-0.18746 1.01548,-2.25435 0.94014,2.2868 2.45781,0.26915 -1.88435,1.60078 z"
               transform="matrix(1.0133273,0,0,1.0133273,-268.95197,974.58915)"
               inkscape:transform-center-x="1.0196929"
               inkscape:transform-center-y="-89.532179"
               inkscape:label="path5969" /></g><g
             id="g3734"
             transform="rotate(22.5,2049.0208,1301.9125)"
             inkscape:transform-center-x="-34.354027"
             inkscape:transform-center-y="-82.323429"
             style="fill:#ffffff;fill-opacity:1"><path
               sodipodi:type="star"
               style="fill:#efa900;fill-opacity:1;stroke:#efa900;stroke-width:2.22;stroke-linecap:round;stroke-opacity:1;paint-order:stroke fill markers"
               id="path3732"
               inkscape:flatsided="false"
               sodipodi:sides="5"
               sodipodi:cx="396.99625"
               sodipodi:cy="-372.60107"
               sodipodi:r1="3.6169088"
               sodipodi:r2="1.6637779"
               sodipodi:arg1="0.95906936"
               sodipodi:arg2="1.5873879"
               inkscape:rounded="0"
               inkscape:randomized="0"
               d="m 399.07337,-369.64006 -2.10473,-1.29747 -2.14661,1.22692 0.58356,-2.40265 -1.83021,-1.66242 2.46539,-0.18746 1.01548,-2.25435 0.94014,2.2868 2.45781,0.26915 -1.88435,1.60078 z"
               transform="matrix(1.0133273,0,0,1.0133273,-268.95197,974.58915)"
               inkscape:transform-center-x="1.0196929"
               inkscape:transform-center-y="-89.532179"
               inkscape:label="path5969" /></g><g
             id="g3738"
             transform="rotate(37.5,1334.8573,904.95028)"
             inkscape:transform-center-x="-54.232035"
             inkscape:transform-center-y="-70.490863"
             style="fill:#ffffff;fill-opacity:1"><path
               sodipodi:type="star"
               style="fill:#efa900;fill-opacity:1;stroke:#efa900;stroke-width:2.22;stroke-linecap:round;stroke-opacity:1;paint-order:stroke fill markers"
               id="path3736"
               inkscape:flatsided="false"
               sodipodi:sides="5"
               sodipodi:cx="396.99625"
               sodipodi:cy="-372.60107"
               sodipodi:r1="3.6169088"
               sodipodi:r2="1.6637779"
               sodipodi:arg1="0.95906936"
               sodipodi:arg2="1.5873879"
               inkscape:rounded="0"
               inkscape:randomized="0"
               d="m 399.07337,-369.64006 -2.10473,-1.29747 -2.14661,1.22692 0.58356,-2.40265 -1.83021,-1.66242 2.46539,-0.18746 1.01548,-2.25435 0.94014,2.2868 2.45781,0.26915 -1.88435,1.60078 z"
               transform="matrix(1.0133273,0,0,1.0133273,-268.95197,974.58915)"
               inkscape:transform-center-x="1.0196929"
               inkscape:transform-center-y="-89.532179"
               inkscape:label="path5969" /></g><g
             id="g3742"
             transform="rotate(52.5,1019.845,729.85313)"
             inkscape:transform-center-x="-70.414229"
             inkscape:transform-center-y="-54.322566"
             style="fill:#ffffff;fill-opacity:1"><path
               sodipodi:type="star"
               style="fill:#efa900;fill-opacity:1;stroke:#efa900;stroke-width:2.22;stroke-linecap:round;stroke-opacity:1;paint-order:stroke fill markers"
               id="path3740"
               inkscape:flatsided="false"
               sodipodi:sides="5"
               sodipodi:cx="396.99625"
               sodipodi:cy="-372.60107"
               sodipodi:r1="3.6169088"
               sodipodi:r2="1.6637779"
               sodipodi:arg1="0.95906936"
               sodipodi:arg2="1.5873879"
               inkscape:rounded="0"
               inkscape:randomized="0"
               d="m 399.07337,-369.64006 -2.10473,-1.29747 -2.14661,1.22692 0.58356,-2.40265 -1.83021,-1.66242 2.46539,-0.18746 1.01548,-2.25435 0.94014,2.2868 2.45781,0.26915 -1.88435,1.60078 z"
               transform="matrix(1.0133273,0,0,1.0133273,-268.95197,974.58915)"
               inkscape:transform-center-x="1.0196929"
               inkscape:transform-center-y="-89.532179"
               inkscape:label="path5969" /></g><g
             id="g3746"
             transform="rotate(67.5,837.58649,628.54617)"
             inkscape:transform-center-x="-82.3354"
             inkscape:transform-center-y="-34.452242"
             style="fill:#ffffff;fill-opacity:1"><path
               sodipodi:type="star"
               style="fill:#efa900;fill-opacity:1;stroke:#efa900;stroke-width:2.22;stroke-linecap:round;stroke-opacity:1;paint-order:stroke fill markers"
               id="path3744"
               inkscape:flatsided="false"
               sodipodi:sides="5"
               sodipodi:cx="396.99625"
               sodipodi:cy="-372.60107"
               sodipodi:r1="3.6169088"
               sodipodi:r2="1.6637779"
               sodipodi:arg1="0.95906936"
               sodipodi:arg2="1.5873879"
               inkscape:rounded="0"
               inkscape:randomized="0"
               d="m 399.07337,-369.64006 -2.10473,-1.29747 -2.14661,1.22692 0.58356,-2.40265 -1.83021,-1.66242 2.46539,-0.18746 1.01548,-2.25435 0.94014,2.2868 2.45781,0.26915 -1.88435,1.60078 z"
               transform="matrix(1.0133273,0,0,1.0133273,-268.95197,974.58915)"
               inkscape:transform-center-x="1.0196929"
               inkscape:transform-center-y="-89.532179"
               inkscape:label="path5969" /></g><g
             id="g3750"
             transform="rotate(82.5,715.32761,560.58954)"
             inkscape:transform-center-x="-88.666206"
             inkscape:transform-center-y="-11.806367"
             style="fill:#ffffff;fill-opacity:1"><path
               sodipodi:type="star"
               style="fill:#efa900;fill-opacity:1;stroke:#efa900;stroke-width:2.22;stroke-linecap:round;stroke-opacity:1;paint-order:stroke fill markers"
               id="path3748"
               inkscape:flatsided="false"
               sodipodi:sides="5"
               sodipodi:cx="396.99625"
               sodipodi:cy="-372.60107"
               sodipodi:r1="3.6169088"
               sodipodi:r2="1.6637779"
               sodipodi:arg1="0.95906936"
               sodipodi:arg2="1.5873879"
               inkscape:rounded="0"
               inkscape:randomized="0"
               d="m 399.07337,-369.64006 -2.10473,-1.29747 -2.14661,1.22692 0.58356,-2.40265 -1.83021,-1.66242 2.46539,-0.18746 1.01548,-2.25435 0.94014,2.2868 2.45781,0.26915 -1.88435,1.60078 z"
               transform="matrix(1.0133273,0,0,1.0133273,-268.95197,974.58915)"
               inkscape:transform-center-x="1.0196929"
               inkscape:transform-center-y="-89.532179"
               inkscape:label="path5969" /></g><g
             id="g3754"
             transform="rotate(97.5,624.98471,510.37315)"
             inkscape:transform-center-x="-88.637973"
             inkscape:transform-center-y="11.777454"
             style="fill:#ffffff;fill-opacity:1"><path
               sodipodi:type="star"
               style="fill:#efa900;fill-opacity:1;stroke:#efa900;stroke-width:2.22;stroke-linecap:round;stroke-opacity:1;paint-order:stroke fill markers"
               id="path3752"
               inkscape:flatsided="false"
               sodipodi:sides="5"
               sodipodi:cx="396.99625"
               sodipodi:cy="-372.60107"
               sodipodi:r1="3.6169088"
               sodipodi:r2="1.6637779"
               sodipodi:arg1="0.95906936"
               sodipodi:arg2="1.5873879"
               inkscape:rounded="0"
               inkscape:randomized="0"
               d="m 399.07337,-369.64006 -2.10473,-1.29747 -2.14661,1.22692 0.58356,-2.40265 -1.83021,-1.66242 2.46539,-0.18746 1.01548,-2.25435 0.94014,2.2868 2.45781,0.26915 -1.88435,1.60078 z"
               transform="matrix(1.0133273,0,0,1.0133273,-268.95197,974.58915)"
               inkscape:transform-center-x="1.0196929"
               inkscape:transform-center-y="-89.532179"
               inkscape:label="path5969" /></g><g
             id="g3758"
             transform="rotate(112.5,553.34383,470.55213)"
             inkscape:transform-center-x="-82.323487"
             inkscape:transform-center-y="34.35403"
             style="fill:#ffffff;fill-opacity:1"><path
               sodipodi:type="star"
               style="fill:#efa900;fill-opacity:1;stroke:#efa900;stroke-width:2.22;stroke-linecap:round;stroke-opacity:1;paint-order:stroke fill markers"
               id="path3756"
               inkscape:flatsided="false"
               sodipodi:sides="5"
               sodipodi:cx="396.99625"
               sodipodi:cy="-372.60107"
               sodipodi:r1="3.6169088"
               sodipodi:r2="1.6637779"
               sodipodi:arg1="0.95906936"
               sodipodi:arg2="1.5873879"
               inkscape:rounded="0"
               inkscape:randomized="0"
               d="m 399.07337,-369.64006 -2.10473,-1.29747 -2.14661,1.22692 0.58356,-2.40265 -1.83021,-1.66242 2.46539,-0.18746 1.01548,-2.25435 0.94014,2.2868 2.45781,0.26915 -1.88435,1.60078 z"
               transform="matrix(1.0133273,0,0,1.0133273,-268.95197,974.58915)"
               inkscape:transform-center-x="1.0196929"
               inkscape:transform-center-y="-89.532179"
               inkscape:label="path5969" /></g><g
             id="g3762"
             transform="rotate(127.5,493.28797,437.17055)"
             inkscape:transform-center-x="-70.490908"
             inkscape:transform-center-y="54.23204"
             style="fill:#ffffff;fill-opacity:1"><path
               sodipodi:type="star"
               style="fill:#efa900;fill-opacity:1;stroke:#efa900;stroke-width:2.22;stroke-linecap:round;stroke-opacity:1;paint-order:stroke fill markers"
               id="path3760"
               inkscape:flatsided="false"
               sodipodi:sides="5"
               sodipodi:cx="396.99625"
               sodipodi:cy="-372.60107"
               sodipodi:r1="3.6169088"
               sodipodi:r2="1.6637779"
               sodipodi:arg1="0.95906936"
               sodipodi:arg2="1.5873879"
               inkscape:rounded="0"
               inkscape:randomized="0"
               d="m 399.07337,-369.64006 -2.10473,-1.29747 -2.14661,1.22692 0.58356,-2.40265 -1.83021,-1.66242 2.46539,-0.18746 1.01548,-2.25435 0.94014,2.2868 2.45781,0.26915 -1.88435,1.60078 z"
               transform="matrix(1.0133273,0,0,1.0133273,-268.95197,974.58915)"
               inkscape:transform-center-x="1.0196929"
               inkscape:transform-center-y="-89.532179"
               inkscape:label="path5969" /></g><g
             id="g3766"
             transform="rotate(142.5,440.5548,407.85923)"
             inkscape:transform-center-x="-54.322569"
             inkscape:transform-center-y="70.414225"
             style="fill:#ffffff;fill-opacity:1"><path
               sodipodi:type="star"
               style="fill:#efa900;fill-opacity:1;stroke:#efa900;stroke-width:2.22;stroke-linecap:round;stroke-opacity:1;paint-order:stroke fill markers"
               id="path3764"
               inkscape:flatsided="false"
               sodipodi:sides="5"
               sodipodi:cx="396.99625"
               sodipodi:cy="-372.60107"
               sodipodi:r1="3.6169088"
               sodipodi:r2="1.6637779"
               sodipodi:arg1="0.95906936"
               sodipodi:arg2="1.5873879"
               inkscape:rounded="0"
               inkscape:randomized="0"
               d="m 399.07337,-369.64006 -2.10473,-1.29747 -2.14661,1.22692 0.58356,-2.40265 -1.83021,-1.66242 2.46539,-0.18746 1.01548,-2.25435 0.94014,2.2868 2.45781,0.26915 -1.88435,1.60078 z"
               transform="matrix(1.0133273,0,0,1.0133273,-268.95197,974.58915)"
               inkscape:transform-center-x="1.0196929"
               inkscape:transform-center-y="-89.532179"
               inkscape:label="path5969" /></g><g
             id="g3770"
             transform="rotate(157.5,392.3333,381.05569)"
             inkscape:transform-center-x="-34.452251"
             inkscape:transform-center-y="82.335402"
             style="fill:#ffffff;fill-opacity:1"><path
               sodipodi:type="star"
               style="fill:#efa900;fill-opacity:1;stroke:#efa900;stroke-width:2.22;stroke-linecap:round;stroke-opacity:1;paint-order:stroke fill markers"
               id="path3768"
               inkscape:flatsided="false"
               sodipodi:sides="5"
               sodipodi:cx="396.99625"
               sodipodi:cy="-372.60107"
               sodipodi:r1="3.6169088"
               sodipodi:r2="1.6637779"
               sodipodi:arg1="0.95906936"
               sodipodi:arg2="1.5873879"
               inkscape:rounded="0"
               inkscape:randomized="0"
               d="m 399.07337,-369.64006 -2.10473,-1.29747 -2.14661,1.22692 0.58356,-2.40265 -1.83021,-1.66242 2.46539,-0.18746 1.01548,-2.25435 0.94014,2.2868 2.45781,0.26915 -1.88435,1.60078 z"
               transform="matrix(1.0133273,0,0,1.0133273,-268.95197,974.58915)"
               inkscape:transform-center-x="1.0196929"
               inkscape:transform-center-y="-89.532179"
               inkscape:label="path5969" /></g><g
             id="g3774"
             transform="rotate(172.5,346.57293,355.62015)"
             inkscape:transform-center-x="-11.806385"
             inkscape:transform-center-y="88.666214"
             style="fill:#ffffff;fill-opacity:1"><path
               sodipodi:type="star"
               style="fill:#efa900;fill-opacity:1;stroke:#efa900;stroke-width:2.22;stroke-linecap:round;stroke-opacity:1;paint-order:stroke fill markers"
               id="path3772"
               inkscape:flatsided="false"
               sodipodi:sides="5"
               sodipodi:cx="396.99625"
               sodipodi:cy="-372.60107"
               sodipodi:r1="3.6169088"
               sodipodi:r2="1.6637779"
               sodipodi:arg1="0.95906936"
               sodipodi:arg2="1.5873879"
               inkscape:rounded="0"
               inkscape:randomized="0"
               d="m 399.07337,-369.64006 -2.10473,-1.29747 -2.14661,1.22692 0.58356,-2.40265 -1.83021,-1.66242 2.46539,-0.18746 1.01548,-2.25435 0.94014,2.2868 2.45781,0.26915 -1.88435,1.60078 z"
               transform="matrix(1.0133273,0,0,1.0133273,-268.95197,974.58915)"
               inkscape:transform-center-x="1.0196929"
               inkscape:transform-center-y="-89.532179"
               inkscape:label="path5969" /></g><g
             id="g3778"
             transform="rotate(-172.5,301.59553,330.61982)"
             inkscape:transform-center-x="11.777442"
             inkscape:transform-center-y="88.637982"
             style="fill:#ffffff;fill-opacity:1"><path
               sodipodi:type="star"
               style="fill:#efa900;fill-opacity:1;stroke:#efa900;stroke-width:2.22;stroke-linecap:round;stroke-opacity:1;paint-order:stroke fill markers"
               id="path3776"
               inkscape:flatsided="false"
               sodipodi:sides="5"
               sodipodi:cx="396.99625"
               sodipodi:cy="-372.60107"
               sodipodi:r1="3.6169088"
               sodipodi:r2="1.6637779"
               sodipodi:arg1="0.95906936"
               sodipodi:arg2="1.5873879"
               inkscape:rounded="0"
               inkscape:randomized="0"
               d="m 399.07337,-369.64006 -2.10473,-1.29747 -2.14661,1.22692 0.58356,-2.40265 -1.83021,-1.66242 2.46539,-0.18746 1.01548,-2.25435 0.94014,2.2868 2.45781,0.26915 -1.88435,1.60078 z"
               transform="matrix(1.0133273,0,0,1.0133273,-268.95197,974.58915)"
               inkscape:transform-center-x="1.0196929"
               inkscape:transform-center-y="-89.532179"
               inkscape:label="path5969" /></g><g
             id="g3782"
             transform="rotate(-157.5,255.83516,305.18428)"
             inkscape:transform-center-x="34.354019"
             inkscape:transform-center-y="82.323499"
             style="fill:#ffffff;fill-opacity:1"><path
               sodipodi:type="star"
               style="fill:#efa900;fill-opacity:1;stroke:#efa900;stroke-width:2.22;stroke-linecap:round;stroke-opacity:1;paint-order:stroke fill markers"
               id="path3780"
               inkscape:flatsided="false"
               sodipodi:sides="5"
               sodipodi:cx="396.99625"
               sodipodi:cy="-372.60107"
               sodipodi:r1="3.6169088"
               sodipodi:r2="1.6637779"
               sodipodi:arg1="0.95906936"
               sodipodi:arg2="1.5873879"
               inkscape:rounded="0"
               inkscape:randomized="0"
               d="m 399.07337,-369.64006 -2.10473,-1.29747 -2.14661,1.22692 0.58356,-2.40265 -1.83021,-1.66242 2.46539,-0.18746 1.01548,-2.25435 0.94014,2.2868 2.45781,0.26915 -1.88435,1.60078 z"
               transform="matrix(1.0133273,0,0,1.0133273,-268.95197,974.58915)"
               inkscape:transform-center-x="1.0196929"
               inkscape:transform-center-y="-89.532179"
               inkscape:label="path5969" /></g><g
             id="g3786"
             transform="rotate(-142.5,207.61366,278.38074)"
             inkscape:transform-center-x="54.232031"
             inkscape:transform-center-y="70.490924"
             style="fill:#ffffff;fill-opacity:1"><path
               sodipodi:type="star"
               style="fill:#efa900;fill-opacity:1;stroke:#efa900;stroke-width:2.22;stroke-linecap:round;stroke-opacity:1;paint-order:stroke fill markers"
               id="path3784"
               inkscape:flatsided="false"
               sodipodi:sides="5"
               sodipodi:cx="396.99625"
               sodipodi:cy="-372.60107"
               sodipodi:r1="3.6169088"
               sodipodi:r2="1.6637779"
               sodipodi:arg1="0.95906936"
               sodipodi:arg2="1.5873879"
               inkscape:rounded="0"
               inkscape:randomized="0"
               d="m 399.07337,-369.64006 -2.10473,-1.29747 -2.14661,1.22692 0.58356,-2.40265 -1.83021,-1.66242 2.46539,-0.18746 1.01548,-2.25435 0.94014,2.2868 2.45781,0.26915 -1.88435,1.60078 z"
               transform="matrix(1.0133273,0,0,1.0133273,-268.95197,974.58915)"
               inkscape:transform-center-x="1.0196929"
               inkscape:transform-center-y="-89.532179"
               inkscape:label="path5969" /></g><g
             id="g3790"
             transform="rotate(-127.5,154.88049,249.06943)"
             inkscape:transform-center-x="70.414233"
             inkscape:transform-center-y="54.322599"
             style="fill:#ffffff;fill-opacity:1"><path
               sodipodi:type="star"
               style="fill:#efa900;fill-opacity:1;stroke:#efa900;stroke-width:2.22;stroke-linecap:round;stroke-opacity:1;paint-order:stroke fill markers"
               id="path3788"
               inkscape:flatsided="false"
               sodipodi:sides="5"
               sodipodi:cx="396.99625"
               sodipodi:cy="-372.60107"
               sodipodi:r1="3.6169088"
               sodipodi:r2="1.6637779"
               sodipodi:arg1="0.95906936"
               sodipodi:arg2="1.5873879"
               inkscape:rounded="0"
               inkscape:randomized="0"
               d="m 399.07337,-369.64006 -2.10473,-1.29747 -2.14661,1.22692 0.58356,-2.40265 -1.83021,-1.66242 2.46539,-0.18746 1.01548,-2.25435 0.94014,2.2868 2.45781,0.26915 -1.88435,1.60078 z"
               transform="matrix(1.0133273,0,0,1.0133273,-268.95197,974.58915)"
               inkscape:transform-center-x="1.0196929"
               inkscape:transform-center-y="-89.532179"
               inkscape:label="path5969" /></g><g
             id="g3794"
             transform="rotate(-112.5,94.824625,215.68785)"
             inkscape:transform-center-x="82.33541"
             inkscape:transform-center-y="34.452266"
             style="fill:#ffffff;fill-opacity:1"><path
               sodipodi:type="star"
               style="fill:#efa900;fill-opacity:1;stroke:#efa900;stroke-width:2.22;stroke-linecap:round;stroke-opacity:1;paint-order:stroke fill markers"
               id="path3792"
               inkscape:flatsided="false"
               sodipodi:sides="5"
               sodipodi:cx="396.99625"
               sodipodi:cy="-372.60107"
               sodipodi:r1="3.6169088"
               sodipodi:r2="1.6637779"
               sodipodi:arg1="0.95906936"
               sodipodi:arg2="1.5873879"
               inkscape:rounded="0"
               inkscape:randomized="0"
               d="m 399.07337,-369.64006 -2.10473,-1.29747 -2.14661,1.22692 0.58356,-2.40265 -1.83021,-1.66242 2.46539,-0.18746 1.01548,-2.25435 0.94014,2.2868 2.45781,0.26915 -1.88435,1.60078 z"
               transform="matrix(1.0133273,0,0,1.0133273,-268.95197,974.58915)"
               inkscape:transform-center-x="1.0196929"
               inkscape:transform-center-y="-89.532179"
               inkscape:label="path5969" /></g><g
             id="g3798"
             transform="rotate(-97.5,23.183742,175.86683)"
             inkscape:transform-center-x="88.66622"
             inkscape:transform-center-y="11.806393"
             style="fill:#ffffff;fill-opacity:1"><path
               sodipodi:type="star"
               style="fill:#efa900;fill-opacity:1;stroke:#efa900;stroke-width:2.22;stroke-linecap:round;stroke-opacity:1;paint-order:stroke fill markers"
               id="path3796"
               inkscape:flatsided="false"
               sodipodi:sides="5"
               sodipodi:cx="396.99625"
               sodipodi:cy="-372.60107"
               sodipodi:r1="3.6169088"
               sodipodi:r2="1.6637779"
               sodipodi:arg1="0.95906936"
               sodipodi:arg2="1.5873879"
               inkscape:rounded="0"
               inkscape:randomized="0"
               d="m 399.07337,-369.64006 -2.10473,-1.29747 -2.14661,1.22692 0.58356,-2.40265 -1.83021,-1.66242 2.46539,-0.18746 1.01548,-2.25435 0.94014,2.2868 2.45781,0.26915 -1.88435,1.60078 z"
               transform="matrix(1.0133273,0,0,1.0133273,-268.95197,974.58915)"
               inkscape:transform-center-x="1.0196929"
               inkscape:transform-center-y="-89.532179"
               inkscape:label="path5969" /></g><g
             id="g3802"
             transform="rotate(-82.5,-67.159164,125.65044)"
             inkscape:transform-center-x="88.637986"
             inkscape:transform-center-y="-11.777433"
             style="fill:#ffffff;fill-opacity:1"><path
               sodipodi:type="star"
               style="fill:#efa900;fill-opacity:1;stroke:#efa900;stroke-width:2.22;stroke-linecap:round;stroke-opacity:1;paint-order:stroke fill markers"
               id="path3800"
               inkscape:flatsided="false"
               sodipodi:sides="5"
               sodipodi:cx="396.99625"
               sodipodi:cy="-372.60107"
               sodipodi:r1="3.6169088"
               sodipodi:r2="1.6637779"
               sodipodi:arg1="0.95906936"
               sodipodi:arg2="1.5873879"
               inkscape:rounded="0"
               inkscape:randomized="0"
               d="m 399.07337,-369.64006 -2.10473,-1.29747 -2.14661,1.22692 0.58356,-2.40265 -1.83021,-1.66242 2.46539,-0.18746 1.01548,-2.25435 0.94014,2.2868 2.45781,0.26915 -1.88435,1.60078 z"
               transform="matrix(1.0133273,0,0,1.0133273,-268.95197,974.58915)"
               inkscape:transform-center-x="1.0196929"
               inkscape:transform-center-y="-89.532179"
               inkscape:label="path5969" /></g><g
             id="g3806"
             transform="rotate(-67.5,-189.41804,57.69381)"
             inkscape:transform-center-x="82.323501"
             inkscape:transform-center-y="-34.354012"
             style="fill:#ffffff;fill-opacity:1"><path
               sodipodi:type="star"
               style="fill:#efa900;fill-opacity:1;stroke:#efa900;stroke-width:2.22;stroke-linecap:round;stroke-opacity:1;paint-order:stroke fill markers"
               id="path3804"
               inkscape:flatsided="false"
               sodipodi:sides="5"
               sodipodi:cx="396.99625"
               sodipodi:cy="-372.60107"
               sodipodi:r1="3.6169088"
               sodipodi:r2="1.6637779"
               sodipodi:arg1="0.95906936"
               sodipodi:arg2="1.5873879"
               inkscape:rounded="0"
               inkscape:randomized="0"
               d="m 399.07337,-369.64006 -2.10473,-1.29747 -2.14661,1.22692 0.58356,-2.40265 -1.83021,-1.66242 2.46539,-0.18746 1.01548,-2.25435 0.94014,2.2868 2.45781,0.26915 -1.88435,1.60078 z"
               transform="matrix(1.0133273,0,0,1.0133273,-268.95197,974.58915)"
               inkscape:transform-center-x="1.0196929"
               inkscape:transform-center-y="-89.532179"
               inkscape:label="path5969" /></g><g
             id="g3810"
             transform="rotate(-52.5,-371.67655,-43.613143)"
             inkscape:transform-center-x="70.49092"
             inkscape:transform-center-y="-54.232028"
             style="fill:#ffffff;fill-opacity:1"><path
               sodipodi:type="star"
               style="fill:#efa900;fill-opacity:1;stroke:#efa900;stroke-width:2.22;stroke-linecap:round;stroke-opacity:1;paint-order:stroke fill markers"
               id="path3808"
               inkscape:flatsided="false"
               sodipodi:sides="5"
               sodipodi:cx="396.99625"
               sodipodi:cy="-372.60107"
               sodipodi:r1="3.6169088"
               sodipodi:r2="1.6637779"
               sodipodi:arg1="0.95906936"
               sodipodi:arg2="1.5873879"
               inkscape:rounded="0"
               inkscape:randomized="0"
               d="m 399.07337,-369.64006 -2.10473,-1.29747 -2.14661,1.22692 0.58356,-2.40265 -1.83021,-1.66242 2.46539,-0.18746 1.01548,-2.25435 0.94014,2.2868 2.45781,0.26915 -1.88435,1.60078 z"
               transform="matrix(1.0133273,0,0,1.0133273,-268.95197,974.58915)"
               inkscape:transform-center-x="1.0196929"
               inkscape:transform-center-y="-89.532179"
               inkscape:label="path5969" /></g><g
             id="g3814"
             transform="rotate(-37.5,-686.68891,-218.71027)"
             inkscape:transform-center-x="54.32259"
             inkscape:transform-center-y="-70.414223"
             style="fill:#ffffff;fill-opacity:1"><path
               sodipodi:type="star"
               style="fill:#efa900;fill-opacity:1;stroke:#efa900;stroke-width:2.22;stroke-linecap:round;stroke-opacity:1;paint-order:stroke fill markers"
               id="path3812"
               inkscape:flatsided="false"
               sodipodi:sides="5"
               sodipodi:cx="396.99625"
               sodipodi:cy="-372.60107"
               sodipodi:r1="3.6169088"
               sodipodi:r2="1.6637779"
               sodipodi:arg1="0.95906936"
               sodipodi:arg2="1.5873879"
               inkscape:rounded="0"
               inkscape:randomized="0"
               d="m 399.07337,-369.64006 -2.10473,-1.29747 -2.14661,1.22692 0.58356,-2.40265 -1.83021,-1.66242 2.46539,-0.18746 1.01548,-2.25435 0.94014,2.2868 2.45781,0.26915 -1.88435,1.60078 z"
               transform="matrix(1.0133273,0,0,1.0133273,-268.95197,974.58915)"
               inkscape:transform-center-x="1.0196929"
               inkscape:transform-center-y="-89.532179"
               inkscape:label="path5969" /></g><g
             id="g3818"
             transform="rotate(-22.5,-1400.8525,-615.67245)"
             inkscape:transform-center-x="34.452265"
             inkscape:transform-center-y="-82.335403"
             style="fill:#ffffff;fill-opacity:1"><path
               sodipodi:type="star"
               style="fill:#efa900;fill-opacity:1;stroke:#efa900;stroke-width:2.22;stroke-linecap:round;stroke-opacity:1;paint-order:stroke fill markers"
               id="path3816"
               inkscape:flatsided="false"
               sodipodi:sides="5"
               sodipodi:cx="396.99625"
               sodipodi:cy="-372.60107"
               sodipodi:r1="3.6169088"
               sodipodi:r2="1.6637779"
               sodipodi:arg1="0.95906936"
               sodipodi:arg2="1.5873879"
               inkscape:rounded="0"
               inkscape:randomized="0"
               d="m 399.07337,-369.64006 -2.10473,-1.29747 -2.14661,1.22692 0.58356,-2.40265 -1.83021,-1.66242 2.46539,-0.18746 1.01548,-2.25435 0.94014,2.2868 2.45781,0.26915 -1.88435,1.60078 z"
               transform="matrix(1.0133273,0,0,1.0133273,-268.95197,974.58915)"
               inkscape:transform-center-x="1.0196929"
               inkscape:transform-center-y="-89.532179"
               inkscape:label="path5969" /></g><g
             id="g3822"
             transform="rotate(-7.5000002,-4910.7816,-2566.6388)"
             inkscape:transform-center-x="11.806395"
             inkscape:transform-center-y="-88.666211"
             style="fill:#ffffff;fill-opacity:1"><path
               sodipodi:type="star"
               style="fill:#efa900;fill-opacity:1;stroke:#efa900;stroke-width:2.22;stroke-linecap:round;stroke-opacity:1;paint-order:stroke fill markers"
               id="path3820"
               inkscape:flatsided="false"
               sodipodi:sides="5"
               sodipodi:cx="396.99625"
               sodipodi:cy="-372.60107"
               sodipodi:r1="3.6169088"
               sodipodi:r2="1.6637779"
               sodipodi:arg1="0.95906936"
               sodipodi:arg2="1.5873879"
               inkscape:rounded="0"
               inkscape:randomized="0"
               d="m 399.07337,-369.64006 -2.10473,-1.29747 -2.14661,1.22692 0.58356,-2.40265 -1.83021,-1.66242 2.46539,-0.18746 1.01548,-2.25435 0.94014,2.2868 2.45781,0.26915 -1.88435,1.60078 z"
               transform="matrix(1.0133273,0,0,1.0133273,-268.95197,974.58915)"
               inkscape:transform-center-x="1.0196929"
               inkscape:transform-center-y="-89.532179"
               inkscape:label="path5969" /></g></g></g><g
         id="g3844"
         inkscape:label="Texts"
         transform="translate(-779.20394,9.7856933)"><circle
           style="fill:none;fill-opacity:1;stroke:none;stroke-width:3.01836;stroke-linecap:round;stroke-opacity:1;paint-order:stroke fill markers"
           id="circle3828"
           cx="-1.4210855e-14"
           cy="-55.295727"
           transform="matrix(0,-1,-1,0,0,0)"
           r="76.490822"
           inkscape:label="Bottom-text-path" /><circle
           style="fill:none;fill-opacity:1;stroke:none;stroke-width:2.48601;stroke-linecap:round;stroke-opacity:1;paint-order:stroke fill markers"
           id="circle3830"
           cx="1.4210855e-14"
           cy="-55.295727"
           transform="rotate(90)"
           inkscape:label="Top-text-path"
           r="63" /><g
           aria-label="Cexplorer.io"
           id="text3838"
           style="font-size:16.8px;font-family:ROBOTO;-inkscape-font-specification:ROBOTO;text-align:center;letter-spacing:1.2px;text-anchor:middle;fill:#fefeff;stroke:#ffffff;stroke-width:0.744;stroke-linecap:round;paint-order:stroke fill markers"><path
             d="m 14.858755,-48.055292 q -1.276057,1.082623 -2.776689,1.355314 -1.499685,0.261129 -2.987961,-0.32652 -1.4873279,-0.599212 -2.7397738,-2.075435 -1.2630598,-1.488732 -1.6119449,-3.053813 -0.3426299,-1.570388 0.1646503,-3.001236 0.5135355,-1.436154 1.7895923,-2.518777 0.8194286,-0.695214 1.7269808,-1.045643 0.9075521,-0.350429 1.8275993,-0.356455 0.926303,-0.01133 1.806343,0.328555 0.880039,0.33989 1.656004,1.026262 l -1.945361,1.650469 q -0.431578,-0.343851 -0.889889,-0.503656 -0.463618,-0.16606 -0.92459,-0.151485 -0.466279,0.0083 -0.9183498,0.198225 -0.4511226,0.178342 -0.8702197,0.533909 -0.7944079,0.673986 -1.0336487,1.53318 -0.2329856,0.853886 0.061147,1.809201 0.2888255,0.94906 1.1007925,1.906103 0.80666,0.950787 1.6897276,1.395684 0.8893231,0.43959 1.7760141,0.343529 0.886692,-0.09606 1.6811,-0.770048 0.419097,-0.355567 0.673861,-0.765351 0.254765,-0.409783 0.338942,-0.868477 0.08418,-0.458693 0.0012,-0.936917 -0.083,-0.478223 -0.334126,-0.964414 l 1.939106,-1.645162 q 0.545472,0.871168 0.737441,1.794824 0.19197,0.923657 0.02987,1.835737 -0.162098,0.91208 -0.655706,1.750413 -0.49266,0.826771 -1.312089,1.521984 z"
             style="font-weight:bold;font-family:Inter;-inkscape-font-specification:Inter"
             id="path5540" /><path
             d="m 24.407684,-54.696185 q -1.103047,0.632425 -2.175545,0.575976 -1.065382,-0.06053 -1.984075,-0.706316 -0.922773,-0.652904 -1.571518,-1.784416 -0.656906,-1.145745 -0.732824,-2.284189 -0.07592,-1.138443 0.402965,-2.084367 0.474803,-0.95304 1.471103,-1.524262 0.782807,-0.448818 1.572259,-0.523215 0.796568,-0.07848 1.546835,0.191089 0.750267,0.269565 1.401285,0.860796 0.654055,0.580033 1.155915,1.455354 l 0.191767,0.334472 -6.177059,3.541579 -0.595704,-1.038998 5.500999,-3.153964 -0.311411,0.660789 q -0.440657,-0.768574 -1.04053,-1.171645 -0.596838,-0.414268 -1.270434,-0.434664 -0.677677,-0.02751 -1.353738,0.360104 -0.668944,0.383535 -0.987567,0.982269 -0.315587,0.587538 -0.266715,1.315978 0.05191,0.717244 0.492566,1.485818 l 0.293772,0.512383 q 0.444737,0.775691 1.050778,1.222505 0.613158,0.442733 1.321389,0.49055 0.70415,0.0407 1.437142,-0.379556 0.533732,-0.306012 0.845525,-0.702259 0.307712,-0.403363 0.399653,-0.853219 0.09906,-0.453936 -0.01149,-0.910622 l 1.209793,-0.693627 q 0.269767,0.800362 0.135605,1.605377 -0.138243,0.797899 -0.638857,1.49152 -0.493497,0.689542 -1.311886,1.15876 z"
             style="font-family:Inter;-inkscape-font-specification:Inter"
             id="path5542" /><path
             d="m 29.024949,-57.419381 1.614151,-5.923659 0.376633,1.006479 -4.912407,-3.239941 1.532131,-0.586708 1.70565,1.17392 q 0.511287,0.348818 1.007253,0.703503 0.493033,0.347025 0.999593,0.706438 l -0.643494,0.246417 q 0.144595,-0.608763 0.279735,-1.196338 0.139868,-0.59817 0.287397,-1.199272 l 0.500618,-2.018779 1.509149,-0.577907 -1.49956,5.695313 -0.387227,-1.011206 5.122496,3.352738 -1.524469,0.583774 -1.99104,-1.345722 q -0.497759,-0.33643 -0.977264,-0.671067 -0.479505,-0.334637 -0.972538,-0.681662 l 0.651156,-0.249351 q -0.135141,0.587575 -0.276149,1.159829 -0.141008,0.572254 -0.286743,1.155102 l -0.598262,2.337258 z"
             style="font-family:Inter;-inkscape-font-specification:Inter"
             id="path5544" /><path
             d="m 39.607891,-57.605288 -2.432547,-11.844188 1.333878,-0.273951 0.257447,1.253524 0.01607,-0.0033 q 0.175836,-0.530199 0.529315,-0.929396 0.353479,-0.399197 0.836389,-0.657489 0.48126,-0.266327 1.027668,-0.378548 1.108886,-0.227742 2.050404,0.15672 0.941518,0.384462 1.604173,1.286785 0.661006,0.894288 0.930005,2.204059 0.267349,1.301736 0.01397,2.392193 -0.255031,1.082423 -0.967157,1.814882 -0.713776,0.724425 -1.822662,0.952166 -0.546407,0.112221 -1.069573,0.05218 -0.521516,-0.052 -0.997333,-0.289255 -0.475818,-0.23725 -0.881832,-0.664699 l -0.01607,0.0033 0.953875,4.644465 z m 2.915536,-5.213053 q 0.739258,-0.151828 1.227473,-0.628942 0.488214,-0.477115 0.664404,-1.250243 0.176189,-0.773128 -0.0367,-1.809695 -0.214539,-1.044603 -0.681182,-1.685706 -0.466643,-0.641104 -1.103385,-0.887176 -0.636742,-0.246072 -1.375999,-0.09424 -0.78747,0.16173 -1.285155,0.674286 -0.497684,0.512557 -0.664188,1.29207 -0.166504,0.779513 0.03153,1.743762 0.196386,0.956213 0.656644,1.607002 0.460257,0.65079 1.119671,0.925703 0.659415,0.274913 1.446884,0.113183 z"
             style="font-family:Inter;-inkscape-font-specification:Inter"
             id="path5546" /><path
             d="m 49.868364,-75.032574 0.983695,12.183007 -1.390008,0.112234 -0.983695,-12.183007 z"
             style="font-family:Inter;-inkscape-font-specification:Inter"
             id="path5548" /><path
             d="m 57.684922,-62.75852 q -1.196813,-0.04493 -2.085176,-0.652908 -0.879858,-0.615865 -1.349932,-1.651417 -0.461876,-1.035245 -0.412327,-2.355018 0.04986,-1.327971 0.588364,-2.333866 0.546705,-1.005588 1.470265,-1.553747 0.931756,-0.547851 2.128569,-0.502918 1.20501,0.04524 2.084868,0.661105 0.879858,0.615865 1.341427,1.659307 0.469766,1.04375 0.419909,2.37172 -0.04955,1.319774 -0.595946,2.317164 -0.5382,0.997698 -1.461759,1.545857 -0.923252,0.539961 -2.128262,0.494721 z m 0.04739,-1.262392 q 0.819735,0.03078 1.416827,-0.349044 0.597092,-0.379819 0.935982,-1.097689 0.339197,-0.726066 0.37582,-1.701551 0.03724,-0.991879 -0.24687,-1.733138 -0.283802,-0.749456 -0.850425,-1.181174 -0.566624,-0.431719 -1.386359,-0.462494 -0.811538,-0.03047 -1.417135,0.357241 -0.597092,0.379819 -0.936289,1.105886 -0.339198,0.726067 -0.376436,1.717946 -0.03693,0.983682 0.247178,1.724941 0.284109,0.741259 0.851041,1.164779 0.566931,0.423521 1.386666,0.454297 z"
             style="font-family:Inter;-inkscape-font-specification:Inter"
             id="path5550" /><path
             d="m 64.50772,-62.351707 1.472099,-8.5365 1.309576,0.225834 -0.231409,1.341912 0.03234,0.0056 q 0.348741,-0.622445 0.927723,-0.938812 0.578981,-0.316366 1.379278,-0.178357 0.185928,0.03206 0.336732,0.07472 0.158888,0.04405 0.236938,0.07416 l -0.236986,1.374247 q -0.07666,-0.03819 -0.30551,-0.110954 -0.219376,-0.07945 -0.518477,-0.131031 -0.468861,-0.08085 -0.91069,0.06771 -0.441829,0.148561 -0.763804,0.567517 -0.321974,0.418956 -0.447437,1.146498 l -0.906121,5.254475 z"
             style="font-family:Inter;-inkscape-font-specification:Inter"
             id="path5552" /><path
             d="m 74.208055,-59.905665 q -1.213253,-0.380379 -1.900034,-1.206073 -0.678954,-0.82324 -0.828643,-1.936178 -0.147235,-1.120766 0.242959,-2.36533 0.395103,-1.260218 1.179334,-2.088951 0.78423,-0.828733 1.803832,-1.119444 1.022056,-0.298538 2.117898,0.04503 0.861019,0.269946 1.451672,0.799 0.59848,0.531509 0.910009,1.265345 0.311529,0.733836 0.319521,1.613219 0.01827,0.87401 -0.283575,1.836786 l -0.11534,0.367889 -6.794221,-2.130118 0.358292,-1.142807 6.050614,1.896984 -0.696561,0.220053 q 0.265038,-0.845364 0.153638,-1.55944 -0.101118,-0.719449 -0.543515,-1.227813 -0.439943,-0.516191 -1.18355,-0.749326 -0.73578,-0.230681 -1.391679,-0.05806 -0.645618,0.167251 -1.147213,0.697738 -0.491313,0.525114 -0.756351,1.370478 l -0.176691,0.563576 q -0.267492,0.853191 -0.184017,1.601497 0.0913,0.750759 0.537083,1.303168 0.448236,0.544582 1.254463,0.797349 0.587058,0.184054 1.089665,0.143904 0.505062,-0.04798 0.897748,-0.28593 0.400513,-0.235499 0.660725,-0.626743 l 1.330665,0.417189 q -0.404408,0.741491 -1.086499,1.189598 -0.679637,0.440281 -1.528769,0.543726 -0.841304,0.105899 -1.74146,-0.176316 z"
             style="font-family:Inter;-inkscape-font-specification:Inter"
             id="path5554" /><path
             d="m 80.477228,-57.777399 3.609932,-7.874471 1.208016,0.553797 -0.567471,1.237843 0.02983,0.01367 q 0.496566,-0.512329 1.137275,-0.669808 0.640708,-0.157479 1.37894,0.180953 0.171508,0.07862 0.306352,0.15849 0.142301,0.08328 0.210033,0.132383 l -0.581145,1.26767 q -0.06431,-0.05656 -0.266889,-0.185519 -0.1917,-0.133003 -0.467605,-0.259487 -0.432499,-0.198273 -0.897643,-0.167862 -0.465143,0.03041 -0.883704,0.352899 -0.418561,0.322487 -0.726226,0.993607 l -2.222023,4.846975 z"
             style="font-family:Inter;-inkscape-font-specification:Inter"
             id="path5556" /><path
             d="m 86.108686,-54.803396 q -0.371631,-0.209394 -0.491095,-0.615669 -0.10829,-0.409396 0.101104,-0.781026 0.213422,-0.378778 0.61567,-0.491095 0.409395,-0.108291 0.781026,0.101104 0.378777,0.213422 0.491095,0.61567 0.112317,0.402248 -0.101105,0.781026 -0.209394,0.371631 -0.615669,0.491095 -0.402249,0.112317 -0.781026,-0.101105 z"
             style="font-family:Inter;-inkscape-font-specification:Inter"
             id="path5558" /><path
             d="m 89.66592,-52.811898 4.811696,-7.203227 1.159611,0.774611 -4.811697,7.203226 z m 6.330147,-8.221096 q -0.327419,-0.218714 -0.404419,-0.605558 -0.077,-0.386844 0.141713,-0.714263 0.218714,-0.32742 0.605558,-0.40442 0.386844,-0.077 0.714263,0.141714 0.32742,0.218713 0.40442,0.605557 0.077,0.386844 -0.141714,0.714264 -0.218713,0.327419 -0.605557,0.404419 -0.386845,0.077 -0.714264,-0.141713 z"
             style="font-family:Inter;-inkscape-font-specification:Inter"
             id="path5560" /><path
             d="m 96.123878,-47.722538 q -0.909702,-0.778988 -1.227838,-1.807391 -0.306569,-1.029298 -0.03127,-2.132725 0.281525,-1.098091 1.140546,-2.101256 0.864356,-1.009396 1.911379,-1.462783 1.053253,-0.448052 2.117465,-0.303533 1.07044,0.149855 1.98015,0.928843 0.91593,0.784323 1.2225,1.813621 0.30657,1.029298 0.0197,2.13362 -0.28063,1.109658 -1.14499,2.119054 -0.85902,1.003165 -1.90694,1.444986 -1.041679,0.447156 -2.105894,0.302637 -1.058879,-0.15075 -1.974813,-0.935073 z m 0.821672,-0.959549 q 0.623084,0.533553 1.326915,0.607065 0.70383,0.07351 1.415465,-0.278283 0.71697,-0.358025 1.3519,-1.099495 0.6456,-0.753931 0.88369,-1.511226 0.24342,-0.763526 0.0678,-1.45389 -0.17561,-0.690365 -0.7987,-1.223918 -0.61685,-0.528218 -1.332246,-0.600835 -0.70383,-0.07351 -1.4208,0.284514 -0.71697,0.358025 -1.362569,1.111957 -0.640264,0.7477 -0.878355,1.504995 -0.23809,0.757295 -0.05714,1.441429 0.180949,0.684134 0.804032,1.217687 z"
             style="font-family:Inter;-inkscape-font-specification:Inter"
             id="path5562" /></g><g
           aria-label="100M ADA stake"
           id="text3842"
           style="font-size:16.8px;font-family:ROBOTO;-inkscape-font-specification:ROBOTO;text-align:center;letter-spacing:1.34783px;text-anchor:middle;fill:#fefeff;stroke:#ffffff;stroke-width:0.744;stroke-linecap:round;paint-order:stroke fill markers"><path
             d="m 5.5601706,40.775186 -9.723972,7.405247 -1.4711095,-1.931742 7.8770699,-5.998747 -0.00994,-0.01305 -3.18829407,-1.180823 1.76206204,-1.34189 3.36756343,1.24021 z"
             style="font-weight:bold;font-family:Inter;-inkscape-font-specification:'Inter Bold'"
             id="path5565" /><path
             d="m 0.88275031,54.039163 q -1.08096809,-1.0884 -1.32583657,-2.417558 -0.23326758,-1.329118 0.34584595,-2.748261 0.58489411,-1.413323 1.96431091,-2.78332 1.3852371,-1.375778 2.8025344,-1.950974 1.423078,-0.569375 2.7505665,-0.327006 1.3274884,0.242369 2.4142371,1.33659 1.0809684,1.088401 1.3142354,2.417519 0.244869,1.329158 -0.345846,2.748261 -0.579113,1.419143 -1.9643503,2.794921 Q 7.4590309,54.479332 6.035953,55.048707 4.6186556,55.623904 3.2853866,55.375714 1.9637184,55.127564 0.88275031,54.039163 Z M 2.31455,52.617141 q 0.5607161,0.564572 1.332037,0.607818 0.7713208,0.04325 1.6719607,-0.411909 0.9006399,-0.455156 1.8435324,-1.391609 0.9487128,-0.942234 1.4100287,-1.839734 0.461316,-0.8975 0.4233559,-1.669099 -0.03214,-0.77738 -0.5928558,-1.341952 -0.5607161,-0.564571 -1.3436378,-0.607857 -0.7713209,-0.04325 -1.6719608,0.411909 -0.8948593,0.460976 -1.8435721,1.40321 -0.9428925,0.936454 -1.409989,1.828133 -0.4613159,0.8975 -0.4233559,1.669099 0.043741,0.77742 0.6044567,1.341991 z"
             style="font-weight:bold;font-family:Inter;-inkscape-font-specification:'Inter Bold'"
             id="path5567" /><path
             d="m 10.212765,62.043187 q -1.2402524,-0.902708 -1.6933139,-2.176033 -0.4416018,-1.27513 -0.095466,-2.768291 0.3527678,-1.488334 1.4968415,-3.060205 1.1489004,-1.578503 2.4567294,-2.371703 1.314461,-0.788373 2.663598,-0.760128 1.349137,0.02824 2.596022,0.93578 1.240252,0.902708 1.681854,2.177838 0.453062,1.273325 0.09547,2.768291 -0.346135,1.493161 -1.495036,3.071664 -1.144074,1.571871 -2.458535,2.360244 -1.307828,0.7932 -2.663598,0.760128 -1.344309,-0.03488 -2.584562,-0.937585 z m 1.18752,-1.631563 q 0.643339,0.46825 1.411726,0.388323 0.768386,-0.07993 1.585212,-0.672476 0.816826,-0.592549 1.598851,-1.666992 0.786852,-1.081076 1.099618,-2.040501 0.312766,-0.959424 0.152621,-1.715176 -0.155317,-0.762383 -0.798657,-1.230633 -0.643339,-0.468249 -1.423185,-0.386517 -0.768387,0.07993 -1.585213,0.672476 -0.810193,0.597376 -1.597045,1.678452 -0.782026,1.074443 -1.101424,2.02904 -0.312766,0.959425 -0.152621,1.715176 0.166777,0.760579 0.810117,1.228828 z"
             style="font-weight:bold;font-family:Inter;-inkscape-font-specification:'Inter Bold'"
             id="path5569" /><path
             d="m 16.660015,66.361212 5.225992,-11.049086 3.329557,1.574812 -0.609908,6.009168 q -0.05361,0.401139 -0.139898,0.986463 -0.08278,0.577908 -0.182689,1.211233 -0.09641,0.625909 -0.201428,1.193295 -0.09761,0.570894 -0.166453,0.94668 l -0.570993,-0.270068 q 0.246818,-0.291609 0.618799,-0.73273 0.379396,-0.437613 0.802082,-0.909198 0.426195,-0.478999 0.813006,-0.913105 0.397735,-0.438015 0.666398,-0.73744 l 4.236085,-4.29406 3.329557,1.574813 -5.225992,11.049086 -2.239479,-1.059228 2.483223,-5.25017 q 0.175369,-0.370775 0.432209,-0.875429 0.25684,-0.504654 0.545246,-1.076048 0.291914,-0.578809 0.587335,-1.165034 0.298929,-0.593641 0.558875,-1.124049 l 0.274374,0.129773 q -0.447639,0.505155 -0.924139,1.032956 -0.469084,0.531309 -0.913216,1.029048 -0.444132,0.497739 -0.831344,0.913507 -0.37629,0.411859 -0.648861,0.700361 l -4.351928,4.366311 -1.853874,-0.876844 0.592272,-6.144551 q 0.05011,-0.393724 0.122361,-0.949386 0.07576,-0.563077 0.171365,-1.225663 0.10302,-0.659078 0.201329,-1.365756 0.105725,-0.703171 0.204836,-1.373172 l 0.326282,0.154325 q -0.245116,0.537423 -0.514383,1.145093 -0.265759,0.600254 -0.528011,1.193093 -0.258744,0.585423 -0.493338,1.1006 -0.227178,0.518683 -0.402547,0.889458 l -2.483223,5.25017 z"
             style="font-weight:bold;font-family:Inter;-inkscape-font-specification:'Inter Bold'"
             id="path5571" /><path
             d="m 35.596891,74.167779 6.424087,-11.248579 3.195179,0.585812 2.015704,12.795951 -2.751404,-0.50445 -0.815551,-6.195921 q -0.135408,-1.217426 -0.283188,-2.503838 -0.138231,-1.293002 -0.280359,-2.928653 l 0.685834,0.125743 q -0.729285,1.475884 -1.325299,2.634267 -0.586466,1.151794 -1.161098,2.239039 l -3.025119,5.491764 z m 3.159566,-2.131171 0.363914,-1.984884 6.285466,1.152393 -0.363914,1.984884 z"
             style="font-weight:bold;font-family:Inter;-inkscape-font-specification:'Inter Bold'"
             id="path5573" /><path
             d="m 53.90848,76.479164 -3.15791,-0.04304 0.02895,-2.124412 3.026672,0.04125 q 1.230354,0.01677 2.040445,-0.43161 0.810203,-0.45658 1.215989,-1.33707 0.405898,-0.888692 0.423448,-2.176463 0.01755,-1.287771 -0.364092,-2.178992 -0.381641,-0.89122 -1.179212,-1.361507 -0.78937,-0.470175 -2.00332,-0.486719 l -3.108695,-0.04236 0.02895,-2.124412 3.264541,0.04449 q 1.837329,0.02504 3.172344,0.789786 1.335128,0.756545 2.04647,2.136288 0.711343,1.379743 0.685745,3.258084 -0.0256,1.878342 -0.774387,3.24639 -0.748678,1.359846 -2.11224,2.087817 -1.35536,0.728083 -3.233701,0.702485 z m -1.621561,-12.245889 -0.166554,12.22152 -2.526328,-0.03443 0.166555,-12.221521 z"
             style="font-weight:bold;font-family:Inter;-inkscape-font-specification:'Inter Bold'"
             id="path5575" /><path
             d="m 61.238826,76.493052 2.369536,-12.735176 3.210186,-0.497041 6.109895,11.422285 -2.764327,0.428008 -2.806915,-5.583529 Q 66.829133,68.422337 66.266705,67.255988 65.711127,66.080277 65.039237,64.58224 l 0.689055,-0.106688 q -0.203615,1.633593 -0.385732,2.923523 -0.175265,1.280568 -0.360572,2.496284 l -1.051794,6.180982 z m 2.283443,-3.051333 -0.308768,-1.994207 6.314987,-0.977765 0.308768,1.994207 z"
             style="font-weight:bold;font-family:Inter;-inkscape-font-specification:'Inter Bold'"
             id="path5577" /><path
             d="m 83.298027,71.432028 q -1.046225,0.410368 -1.989156,0.410134 -0.945927,-0.0079 -1.674306,-0.4271 -0.728378,-0.41923 -1.143224,-1.252221 l 2.214637,-0.868663 q 0.267776,0.502968 0.76643,0.651029 0.498654,0.148061 1.155409,-0.109542 0.626208,-0.245622 0.884638,-0.620147 0.266067,-0.37752 0.119293,-0.751718 -0.125807,-0.32074 -0.478607,-0.41146 -0.345164,-0.09372 -0.877493,0.0093 l -1.52062,0.279226 q -1.265911,0.23219 -2.110485,-0.12384 -0.844575,-0.35603 -1.210013,-1.287705 -0.299539,-0.763669 -0.111812,-1.498171 0.195363,-0.737497 0.836221,-1.35014 0.648493,-0.615638 1.702355,-1.029002 1.046226,-0.410368 1.956964,-0.379884 0.907743,0.02285 1.582665,0.463045 0.682559,0.437202 1.034962,1.268251 l -2.084814,0.817741 q -0.199342,-0.485752 -0.699345,-0.659719 -0.500004,-0.173966 -1.103302,0.06267 -0.580388,0.227649 -0.809917,0.608461 -0.232525,0.373176 -0.09174,0.7321 0.122811,0.313104 0.460338,0.409814 0.337528,0.09671 0.834669,0.01626 L 82.58593,66.0895 q 1.314726,-0.242525 2.10015,0.07502 0.790065,0.306918 1.140525,1.20041 0.314516,0.801852 0.09295,1.584873 -0.216924,0.772389 -0.894615,1.425914 -0.67305,0.642893 -1.726912,1.056257 z"
             style="font-weight:bold;font-family:Inter;-inkscape-font-specification:'Inter Bold'"
             id="path5579" /><path
             d="m 89.610239,58.582796 0.894627,1.67044 -5.011322,2.68388 -0.894626,-1.67044 z m -4.810595,-0.103605 2.133246,-1.142488 3.942554,7.361508 q 0.205261,0.383262 0.438449,0.45379 0.240419,0.06666 0.6743,-0.165715 0.180783,-0.09682 0.426649,-0.228497 0.253097,-0.13555 0.390493,-0.209134 l 0.894626,1.670441 q -0.195246,0.104566 -0.54235,0.290463 -0.347105,0.185896 -0.701441,0.375666 -1.258254,0.673874 -2.121809,0.503589 -0.856323,-0.174159 -1.414013,-1.215472 z"
             style="font-weight:bold;font-family:Inter;-inkscape-font-specification:'Inter Bold'"
             id="path5581" /><path
             d="m 98.310663,63.44779 q -0.705245,0.494486 -1.420836,0.645574 -0.715591,0.151088 -1.360929,-0.09773 -0.650047,-0.255539 -1.144533,-0.960783 -0.419135,-0.597779 -0.475341,-1.149469 -0.06091,-0.558407 0.152395,-1.06864 0.215316,-0.521659 0.622868,-0.99777 0.414268,-0.480819 0.932064,-0.914005 0.604418,-0.523977 0.944881,-0.852862 0.340463,-0.328884 0.428319,-0.560801 0.08785,-0.231917 -0.07226,-0.460282 l -0.03297,-0.04702 q -0.183667,-0.261948 -0.461288,-0.357832 -0.28233,-0.102602 -0.624338,-0.03312 -0.335291,0.06477 -0.697988,0.319081 -0.362697,0.254307 -0.564736,0.566283 -0.195321,0.307268 -0.210529,0.628508 -0.01521,0.32124 0.15101,0.615459 l -1.860502,1.3045 q -0.466307,-0.765077 -0.460211,-1.570841 0.01281,-0.810474 0.508837,-1.589064 0.491316,-0.785308 1.465225,-1.468169 0.725395,-0.508613 1.414042,-0.740996 0.683937,-0.239099 1.294842,-0.196562 0.617622,0.03783 1.134649,0.346559 0.517027,0.308731 0.917325,0.879644 l 3.371921,4.809097 -1.93439,1.356303 -0.701695,-1.000775 -0.02687,0.01884 q 0.05682,0.481127 -0.04431,0.922727 -0.101134,0.441599 -0.398517,0.860502 -0.302093,0.412186 -0.846139,0.793646 z m -0.414662,-1.763076 q 0.47688,-0.334366 0.696984,-0.749177 0.22682,-0.41952 0.202962,-0.85363 -0.02386,-0.434111 -0.292292,-0.816958 L 98.00446,58.552988 q -0.05435,0.108238 -0.162433,0.254151 -0.112793,0.139197 -0.272602,0.31136 -0.164518,0.165445 -0.35791,0.361155 -0.193392,0.195709 -0.404927,0.394121 -0.304872,0.293912 -0.500194,0.601179 -0.200031,0.300551 -0.229367,0.601641 -0.03405,0.294374 0.163749,0.576472 0.174247,0.248515 0.435733,0.335676 0.261486,0.08716 0.575932,0.0069 0.314446,-0.08021 0.64356,-0.310975 z"
             style="font-weight:bold;font-family:Inter;-inkscape-font-specification:'Inter Bold'"
             id="path5583" /><path
             d="m 104.54851,55.242785 -1.93994,-2.09425 0.18656,-0.172811 -0.0255,-4.493832 2.08221,-1.928789 0.0775,5.865738 -0.40922,0.379068 z m 0.0879,3.31786 -8.306055,-8.966759 1.775298,-1.644488 8.306057,8.966759 z m 4.15841,-3.852003 -4.57428,-0.906367 0.0307,-2.320716 6.61976,1.303869 z"
             style="font-weight:bold;font-family:Inter;-inkscape-font-specification:'Inter Bold'"
             id="path5585" /><path
             d="m 114.66474,48.545703 q -0.83259,1.014618 -1.89573,1.404982 -1.06427,0.378818 -2.20038,0.146887 -1.13091,-0.238273 -2.14553,-1.070863 -1.0273,-0.842998 -1.47019,-1.906785 -0.44402,-1.075333 -0.28542,-2.186734 0.15859,-1.111401 0.94435,-2.068947 0.60883,-0.741939 1.35684,-1.136221 0.74166,-0.399485 1.56997,-0.451966 0.82198,-0.05768 1.64865,0.228054 0.83188,0.279397 1.59918,0.909043 l 0.50097,0.411092 -4.85504,5.91649 -1.19218,-0.978293 4.11612,-5.016018 -0.40673,1.077568 q -0.50731,-0.416296 -1.02601,-0.53421 -0.51871,-0.117915 -0.99629,0.0632 -0.47872,0.169574 -0.86379,0.638834 -0.37987,0.46292 -0.45275,0.96553 -0.0792,0.497407 0.13768,0.98312 0.2169,0.485714 0.7242,0.902009 l 0.8117,0.666072 q 0.51999,0.426703 1.06406,0.565432 0.54294,0.127184 1.04995,-0.05101 0.50067,-0.183394 0.91176,-0.684362 0.30182,-0.367799 0.42932,-0.730078 0.12636,-0.373824 0.0922,-0.720175 -0.0353,-0.357897 -0.22762,-0.653686 l 1.3998,-1.705826 q 0.56697,0.666873 0.71002,1.527064 0.14305,0.86019 -0.11684,1.771744 -0.26623,0.906351 -0.9323,1.718045 z"
             style="font-weight:bold;font-family:Inter;-inkscape-font-specification:'Inter Bold'"
             id="path5587" /></g></g><g
         style="fill:#000000"
         id="g3916"
         transform="matrix(0.20144581,0,0,0.20144581,-761.75153,-25.062279)"
         inkscape:label="Middlecoins"><g
           id="g3914">
	<g
   id="g3912"
   transform="translate(-70.464283)">
		
		
		<g
   id="g3866"
   inkscape:label="Left"><path
     d="m 117.4607,172.8953 c 9.4539,0 18.592,-0.61066 27.23922,-1.74737 V 76.366871 c -8.64639,-1.13587 -17.78532,-1.746533 -27.23922,-1.746533 -53.980023,0 -97.739685,19.846819 -97.739685,44.330122 v 9.61389 c 0,24.48246 43.759662,44.33095 97.739685,44.33095 z"
     id="path3846"
     style="fill:#e4003a;fill-opacity:1;stroke-width:0.838335;stroke-dasharray:none" /><path
     d="m 117.4607,272.56703 c 9.4539,0 18.592,-0.61066 27.23922,-1.74569 v -27.78203 c -8.6489,1.13588 -17.78281,1.75491 -27.23922,1.75491 -47.118703,0 -86.446275,-15.12322 -95.684054,-35.25065 -1.345291,2.93183 -2.055631,5.96753 -2.055631,9.07946 v 9.61389 c 0,24.4833 43.759662,44.33011 97.739685,44.33011 z"
     id="path3848"
     style="fill:#efa900;fill-opacity:1;stroke-width:0.838335;stroke-dasharray:none" /><path
     d="m 144.69908,294.69146 v -2.1595 c -8.6489,1.13587 -17.78281,1.75491 -27.23922,1.75491 -47.1187,0 -86.446273,-15.12322 -95.684051,-35.25065 -1.345292,2.93099 -2.055632,5.96669 -2.055632,9.07862 v 9.61389 c 0,24.48413 43.759662,44.33095 97.739683,44.33095 10.795,0 21.17787,-0.79578 30.88726,-2.2617 -2.40662,-4.92296 -3.64804,-10.11481 -3.64804,-15.49347 z"
     id="path3850"
     style="fill:#efa900;fill-opacity:1;stroke-width:0.838335;stroke-dasharray:none" /><path
     d="m 117.4607,222.38627 c 9.4539,0 18.592,-0.61066 27.23922,-1.74569 v -27.78203 c -8.6489,1.13588 -17.78281,1.75491 -27.23922,1.75491 -47.118703,0 -86.446275,-15.12322 -95.684054,-35.25065 -1.345291,2.93183 -2.055631,5.96753 -2.055631,9.07946 v 9.61389 c 0,24.4833 43.759662,44.33011 97.739685,44.33011 z"
     id="path3852"
     style="fill:#efa900;fill-opacity:1;stroke-width:0.838335;stroke-dasharray:none" /><path
     d="m -16.069958,212.5057 c 7.1496589,0 14.0604889,-0.46182 20.6000839,-1.32147 v -71.67964 c -6.538967,-0.85902 -13.450425,-1.32084 -20.6000839,-1.32084 -40.823231,0 -73.917153,15.00946 -73.917153,33.52533 v 7.27065 c 0,18.51524 33.093922,33.52597 73.917153,33.52597 z"
     id="path3854"
     style="fill:#e4003a;fill-opacity:1;stroke-width:0.634004;stroke-dasharray:none" /><path
     d="m 4.5294909,262.16982 v -1.63315 c -6.540866,0.85902 -13.448527,1.32717 -20.6000839,1.32717 -35.634249,0 -65.376338,-11.43717 -72.362548,-26.65885 -1.0174,2.21661 -1.55461,4.5124 -1.55461,6.86585 v 7.27065 c 0,18.51651 33.093928,33.52597 73.917158,33.52597 8.1638859,0 16.01609289,-0.60182 23.3589709,-1.71044 -1.820044,-3.72307 -2.758887,-7.64948 -2.758887,-11.71718 z"
     id="path3856"
     style="fill:#efa900;fill-opacity:1;stroke-width:0.634004;stroke-dasharray:none" /><path
     d="m 532.71524,212.50563 c -7.14969,0 -14.06056,-0.46183 -20.60018,-1.32148 v -71.68 c 6.539,-0.85903 13.45049,-1.32085 20.60018,-1.32085 40.82345,0 73.91754,15.00953 73.91754,33.5255 v 7.27069 c 0,18.51533 -33.09409,33.52614 -73.91754,33.52614 z"
     id="path3858"
     style="fill:#e4003a;fill-opacity:1;stroke-width:0.634007;stroke-dasharray:none" /><path
     d="m 512.11569,262.16983 v -1.63316 c 6.5409,0.85902 13.4486,1.32718 20.60019,1.32718 35.63443,0 65.37667,-11.43723 72.36292,-26.65899 1.01741,2.21662 1.55461,4.51243 1.55461,6.86589 v 7.27069 c 0,18.51659 -33.09409,33.52614 -73.91753,33.52614 -8.16393,0 -16.01618,-0.60183 -23.35909,-1.71046 1.82005,-3.72308 2.7589,-7.64952 2.7589,-11.71723 z"
     id="path3860"
     style="fill:#efa900;fill-opacity:1;stroke-width:0.634007;stroke-dasharray:none" /><path
     d="m 4.5294909,226.98894 v -1.63315 c -6.540866,0.85902 -13.448527,1.32717 -20.6000839,1.32717 -35.634249,0 -65.376338,-11.43717 -72.362548,-26.65885 -1.0174,2.21661 -1.55461,4.5124 -1.55461,6.86585 v 7.27065 c 0,18.51651 33.093928,33.52597 73.917158,33.52597 8.1638859,0 16.01609289,-0.60182 23.3589709,-1.71044 -1.820044,-3.72307 -2.758887,-7.64948 -2.758887,-11.71718 z"
     id="path3862"
     style="fill:#efa900;fill-opacity:1;stroke-width:0.634004;stroke-dasharray:none" /><path
     d="m 512.11569,226.98886 v -1.63316 c 6.5409,0.85902 13.4486,1.32718 20.60019,1.32718 35.63443,0 65.37667,-11.43723 72.36292,-26.65899 1.01741,2.21662 1.55461,4.51243 1.55461,6.86589 v 7.27069 c 0,18.51659 -33.09409,33.52614 -73.91753,33.52614 -8.16393,0 -16.01618,-0.60183 -23.35909,-1.71046 1.82005,-3.72308 2.7589,-7.64952 2.7589,-11.71723 z"
     id="path3864"
     style="fill:#efa900;fill-opacity:1;stroke-width:0.634007;stroke-dasharray:none" /></g>
		
		
		
		
		<g
   id="g3900"
   inkscape:label="Middle"><path
     d="m 258.38792,-0.45965459 c -53.98002,0 -97.73968,19.84681559 -97.73968,44.33011159 v 9.613895 c 0,24.483299 43.75966,44.330125 97.73968,44.330125 53.97919,0 97.73969,-19.846826 97.73969,-44.330125 v -9.613895 c 0,-24.483296 -43.7605,-44.33011159 -97.73969,-44.33011159 z"
     id="path3868"
     style="fill:#e4003a;fill-opacity:1;stroke-width:0.838335;stroke-dasharray:none" /><path
     d="m 258.38792,169.71423 c -47.1187,0 -86.44627,-15.12238 -95.68405,-35.25065 -1.34529,2.93099 -2.05563,5.9667 -2.05563,9.07946 v 9.61389 c 0,24.4833 43.75966,44.33011 97.73968,44.33011 53.97919,0 97.73969,-19.84681 97.73969,-44.33011 v -9.61389 c 0,-3.11276 -0.71034,-6.14847 -2.05563,-9.07946 -9.23778,20.12827 -48.56535,35.25065 -95.68406,35.25065 z"
     id="path3870"
     style="fill:#efa900;fill-opacity:1;stroke-width:0.838335;stroke-dasharray:none" /><path
     d="m 258.38792,219.20688 c -47.1187,0 -86.44627,-15.12322 -95.68405,-35.25065 -1.34529,2.93099 -2.05563,5.96669 -2.05563,9.07946 v 9.61389 c 0,24.48413 43.75966,44.33095 97.73968,44.33095 53.97919,0 97.73969,-19.84682 97.73969,-44.33095 v -9.61389 c 0,-3.11277 -0.71034,-6.14847 -2.05563,-9.07946 -9.23778,20.12827 -48.56535,35.25065 -95.68406,35.25065 z"
     id="path3872"
     style="fill:#efa900;fill-opacity:1;stroke-width:0.838335;stroke-dasharray:none" /><path
     d="m 258.38792,271.37084 c -47.1187,0 -86.44627,-15.12321 -95.68405,-35.25065 -1.34529,2.93183 -2.05563,5.9667 -2.05563,9.07862 v 9.61473 c 0,24.4833 43.75966,44.33011 97.73968,44.33011 53.97919,0 97.73969,-19.84681 97.73969,-44.33011 v -9.61473 c 0,-3.11192 -0.71034,-6.14846 -2.05563,-9.07862 -9.23778,20.1266 -48.56535,35.25065 -95.68406,35.25065 z"
     id="path3874"
     style="fill:#efa900;fill-opacity:1;stroke-width:0.838335;stroke-dasharray:none" /><path
     d="m 258.38792,320.86265 c -47.1187,0 -86.44627,-15.12238 -95.68405,-35.24981 -1.34529,2.93183 -2.05563,5.96837 -2.05563,9.07862 v 9.61389 c 0,24.4833 43.75966,44.33011 97.73968,44.33011 53.97919,0 97.73969,-19.84681 97.73969,-44.33011 v -9.61473 c 0,-3.11193 -0.71034,-6.14846 -2.05563,-9.07862 -9.23778,20.12744 -48.56535,35.25065 -95.68406,35.25065 z"
     id="path3876"
     style="fill:#efa900;fill-opacity:1;stroke-width:0.838335;stroke-dasharray:none" /><g
     transform="matrix(10.303711,0,0,10.303711,161.70322,-61.147785)"
     id="g3896"
     inkscape:label="Logo"
     style="fill:#000000">
<g
   id="g3894"
   transform="matrix(0.6933596,0,0,0.6933596,0.97298999,0.28937229)"
   inkscape:label="Logo"
   style="display:inline">
		<g
   transform="translate(0.91990781,-0.8)"
   id="g3880"
   inkscape:label="Circle"
   style="display:none">
<path
   style="opacity:1;fill:#e4003a;fill-opacity:1;fill-rule:nonzero;stroke:none;stroke-width:1;stroke-linecap:butt;stroke-linejoin:miter;stroke-miterlimit:4;stroke-dasharray:none;stroke-dashoffset:0"
   d="m 0,7.39996 a 7.6,7.6 0 1 1 7.6,-7.6 7.6,7.6 0 0 1 -7.6,7.6 z"
   stroke-linecap="round"
   id="path3878" />
</g>
		<g
   transform="translate(0.81,-1.08)"
   id="g3884"
   style="display:none"
   inkscape:label="undefined">
<path
   style="opacity:1;fill:#ffffff;fill-rule:nonzero;stroke:none;stroke-width:1;stroke-linecap:butt;stroke-linejoin:miter;stroke-miterlimit:4;stroke-dasharray:none;stroke-dashoffset:0"
   transform="translate(-10.81,-11.92)"
   d="m 8.46,13.2 h -0.8 c -0.3,0 -0.4,-0.1 -0.4,-0.4 a 0.43,0.43 0 0 1 0.4,-0.4 h 0.9 a 0.35,0.35 0 0 0 0.2,-0.1 1.42,1.42 0 0 0 0.2,-0.6 h -0.7 a 0.4,0.4 0 1 1 0,-0.8 h 0.8 c 0.1,0 0.2,0 0.2,-0.1 a 23.29,23.29 0 0 0 1.1,-2.8 0.1,0.1 0 0 1 0.1,-0.1 c 0.1,-0.2 0.2,-0.3 0.4,-0.3 0.2,0 0.3,0.1 0.4,0.3 0.2,0.6 0.4,1.1 0.6,1.7 0.2,0.4 0.3,0.8 0.5,1.2 0,0.1 0.1,0.1 0.2,0.1 h 0.8 a 0.37,0.37 0 0 1 0.4,0.4 0.43,0.43 0 0 1 -0.4,0.4 h -0.7 a 4.88,4.88 0 0 0 0.3,0.7 0.35,0.35 0 0 0 0.2,0.1 h 0.9 c 0.1,0 0.3,0.1 0.3,0.2 a 0.6,0.6 0 0 1 -0.1,0.4 0.37,0.37 0 0 1 -0.3,0.1 h -0.8 a 3.55,3.55 0 0 0 0.4,0.9 l 0.6,1.5 c 0.1,0.3 0.1,0.5 -0.2,0.6 -0.3,0.1 -0.4,0 -0.5,-0.3 -0.3,-0.9 -0.7,-1.7 -1,-2.6 -0.1,-0.2 -0.1,-0.2 -0.3,-0.2 h -2.9 c -0.2,0 -0.2,0 -0.3,0.2 a 18.61,18.61 0 0 1 -1,2.5 c -0.1,0.2 -0.2,0.3 -0.4,0.3 a 0.27,0.27 0 0 1 -0.3,-0.3 0.37,0.37 0 0 1 0.1,-0.3 c 0.3,-0.7 0.5,-1.4 0.8,-2.1 0.2,0 0.2,-0.1 0.3,-0.2 z m 1,-0.8 h 2.7 c -0.1,-0.2 -0.2,-0.5 -0.3,-0.7 a 0.35,0.35 0 0 0 -0.2,-0.1 h -1.8 c -0.1,0 -0.1,0 -0.2,0.1 a 1.45,1.45 0 0 1 -0.2,0.7 z m 2.2,-1.5 c -0.3,-0.7 -0.5,-1.3 -0.8,-2 -0.3,0.7 -0.5,1.3 -0.8,2 z"
   stroke-linecap="round"
   id="path3882" />
</g>
<path
   style="opacity:1;fill:#050001;fill-opacity:1;stroke:#ffffff;stroke-width:0.791434;stroke-linecap:round;stroke-miterlimit:3.7;stroke-dasharray:none;stroke-opacity:1;paint-order:stroke fill markers"
   d="M 8.1350941,16.876025 12.086609,10.362006"
   id="path3886"
   sodipodi:nodetypes="cc" /><path
   style="opacity:1;fill:#050001;fill-opacity:1;stroke:#ffffff;stroke-width:0.791434;stroke-linecap:round;stroke-miterlimit:3.7;stroke-dasharray:none;stroke-opacity:1"
   d="M 16.144951,16.87452 12.196567,10.360599"
   id="path3888"
   sodipodi:nodetypes="cc" /><path
   style="opacity:1;fill:#050001;fill-opacity:1;stroke:#ffffff;stroke-width:0.791434;stroke-linecap:round;stroke-miterlimit:3.7;stroke-dasharray:none;stroke-opacity:1"
   d="m 9.0180552,13.152778 6.2251588,-0.01311"
   id="path3890" /><path
   style="fill:#050001;fill-opacity:1;stroke:#ffffff;stroke-width:0.791434;stroke-linecap:round;stroke-miterlimit:3.7;stroke-dasharray:none;stroke-opacity:1"
   d="m 8.2176918,14.418566 7.8247822,-0.01051"
   id="path3892" /></g>
</g><path
     d="m 258.38792,119.53347 c -47.1187,0 -86.44627,-15.12238 -95.68405,-35.250656 -1.34529,2.93099 -2.05563,5.9667 -2.05563,9.079463 v 9.613893 c 0,24.4833 43.75966,44.33011 97.73968,44.33011 53.97919,0 97.73969,-19.84681 97.73969,-44.33011 v -9.613893 c 0,-3.112763 -0.71034,-6.148473 -2.05563,-9.079463 -9.23778,20.128276 -48.56535,35.250656 -95.68406,35.250656 z"
     id="path3898"
     style="fill:#efa900;fill-opacity:1;stroke-width:0.838335;stroke-dasharray:none" /></g>
	<g
   id="g3910"
   inkscape:label="Right"
   transform="translate(0,-10.01765)"><path
     d="m 399.31515,182.91295 c -9.4539,0 -18.592,-0.61066 -27.23922,-1.74737 V 86.384524 c 8.64639,-1.13587 17.78532,-1.74653 27.23922,-1.74653 53.98002,0 97.73968,19.846816 97.73968,44.330116 v 9.61389 c 0,24.48246 -43.75966,44.33095 -97.73968,44.33095 z"
     id="path3902"
     style="fill:#e4003a;fill-opacity:1;stroke-width:0.838335;stroke-dasharray:none" /><path
     d="m 399.31515,282.58468 c -9.4539,0 -18.592,-0.61066 -27.23922,-1.74569 v -27.78203 c 8.6489,1.13588 17.78281,1.75491 27.23922,1.75491 47.1187,0 86.44627,-15.12322 95.68405,-35.25065 1.34529,2.93183 2.05563,5.96753 2.05563,9.07946 v 9.61389 c 0,24.4833 -43.75966,44.33011 -97.73968,44.33011 z"
     id="path3904"
     style="fill:#efa900;fill-opacity:1;stroke-width:0.838335;stroke-dasharray:none" /><path
     d="m 372.07677,304.70911 v -2.1595 c 8.6489,1.13587 17.78281,1.75491 27.23922,1.75491 47.1187,0 86.44627,-15.12322 95.68405,-35.25065 1.34529,2.93099 2.05563,5.96669 2.05563,9.07862 v 9.61389 c 0,24.48413 -43.75966,44.33095 -97.73968,44.33095 -10.795,0 -21.17787,-0.79578 -30.88726,-2.2617 2.40662,-4.92296 3.64804,-10.11481 3.64804,-15.49347 z"
     id="path3906"
     style="fill:#efa900;fill-opacity:1;stroke-width:0.838335;stroke-dasharray:none" /><path
     d="m 399.31515,232.40392 c -9.4539,0 -18.592,-0.61066 -27.23922,-1.74569 V 202.8762 c 8.6489,1.13588 17.78281,1.75491 27.23922,1.75491 47.1187,0 86.44627,-15.12322 95.68405,-35.25065 1.34529,2.93183 2.05563,5.96753 2.05563,9.07946 v 9.61389 c 0,24.4833 -43.75966,44.33011 -97.73968,44.33011 z"
     id="path3908"
     style="fill:#efa900;fill-opacity:1;stroke-width:0.838335;stroke-dasharray:none" /></g></g>
</g></g></g></g></svg>
