<?xml version="1.0" encoding="UTF-8" standalone="no"?>
<svg
   inkscape:version="1.2.2 (b0a84865, 2022-12-01)"
   xml:space="preserve"
   sodipodi:docname="30.svg"
   id="svg134"
   version="1.1"
   viewBox="-120 -120 360 359.99989"
   height="299.99991"
   width="300"
   inkscape:export-filename="TEST.svg"
   inkscape:export-xdpi="96"
   inkscape:export-ydpi="96"
   xmlns:inkscape="http://www.inkscape.org/namespaces/inkscape"
   xmlns:sodipodi="http://sodipodi.sourceforge.net/DTD/sodipodi-0.dtd"
   xmlns="http://www.w3.org/2000/svg"
   xmlns:svg="http://www.w3.org/2000/svg"><defs
     id="defs138" /><sodipodi:namedview
     id="namedview136"
     pagecolor="#ffffff"
     bordercolor="#000000"
     borderopacity="0.25"
     inkscape:showpageshadow="2"
     inkscape:pageopacity="0.0"
     inkscape:pagecheckerboard="0"
     inkscape:deskcolor="#d1d1d1"
     showgrid="false"
     inkscape:zoom="0.35355339"
     inkscape:cx="1480.6816"
     inkscape:cy="663.26616"
     inkscape:window-width="1425"
     inkscape:window-height="949"
     inkscape:window-x="0"
     inkscape:window-y="25"
     inkscape:window-maximized="1"
     inkscape:current-layer="g19337"
     showguides="true"><inkscape:page
       x="0"
       y="0"
       width="360"
       height="359.99988"
       id="page2"
       margin="0"
       bleed="0" /></sodipodi:namedview><style
     type="text/css"
     id="style8571">
	.st0{fill:#ffffff;}
</style><g
     id="g9892"
     inkscape:label="10 delegators"
     transform="matrix(1.4245145,0,0,1.4245145,1091.2304,45.365004)"
     inkscape:export-filename="./g8306.svg"
     inkscape:export-xdpi="96"
     inkscape:export-ydpi="96"><g
       id="g9852"
       inkscape:label="Borders"
       transform="translate(-779.21285,10.273648)"
       inkscape:export-filename="30.svg"
       inkscape:export-xdpi="96"
       inkscape:export-ydpi="96"><path
         fill="none"
         stroke="black"
         stroke-width="2"
         d="M 155.29573,3.5528548e-7 Q 164.76573,10.78 153.37573,19.51 q 7.18,12.42 -5.69,18.76 4.62,13.58 -9.24,17.29 1.88,14.22 -12.44,15.15 -0.93,14.32 -15.15,12.44 -3.71,13.86 -17.290004,9.24 -6.34,12.87 -18.76,5.69 -8.73,11.39 -19.51,1.92 -10.78,9.47 -19.51,-1.92 -12.42,7.18 -18.76,-5.69 -13.5800024,4.62 -17.2900022,-9.24 -14.2199978,1.88 -15.1499978,-12.44 -14.32,-0.93 -12.44,-15.15 -13.86,-3.71 -9.24,-17.29 -12.87,-6.34 -5.69,-18.76 -11.39,-8.73 -1.92,-19.50999964471384 Q -54.174274,-10.78 -42.784274,-19.51 q -7.18,-12.42 5.69,-18.76 -4.62,-13.58 9.24,-17.29 -1.88,-14.22 12.44,-15.15 0.93,-14.32 15.1499978,-12.44 3.7099998,-13.86 17.2900022,-9.24 6.34,-12.87 18.76,-5.69 8.73,-11.39 19.51,-1.92 10.78,-9.47 19.51,1.92 12.42,-7.18 18.76,5.69 13.580004,-4.62 17.290004,9.24 14.22,-1.88 15.15,12.44 14.32,0.93 12.44,15.15 13.86,3.71 9.24,17.29 12.87,6.34 5.69,18.76 11.39,8.73 1.92,19.51000035528548 z"
         id="path9846"
         style="fill:#04344d;fill-opacity:1;stroke:#04344d;stroke-opacity:1"
         inkscape:export-filename="path132.svg"
         inkscape:export-xdpi="96"
         inkscape:export-ydpi="96" /><circle
         style="fill:none;fill-opacity:1;stroke:#ffffff;stroke-width:3.6;stroke-linecap:round;stroke-dasharray:none;stroke-opacity:1;paint-order:stroke fill markers"
         id="circle9848"
         cx="55.295727"
         cy="1.4210855e-14"
         r="92.730682" /></g><g
       id="g9870"
       inkscape:label="Texts"
       transform="translate(-779.21285,8.2887642)"><circle
         style="fill:none;fill-opacity:1;stroke:none;stroke-width:3.01836;stroke-linecap:round;stroke-opacity:1;paint-order:stroke fill markers"
         id="circle9854"
         cx="-1.4210855e-14"
         cy="-55.295727"
         transform="matrix(0,-1,-1,0,0,0)"
         r="76.490822"
         inkscape:label="Bottom-text-path" /><circle
         style="fill:none;fill-opacity:1;stroke:none;stroke-width:2.48601;stroke-linecap:round;stroke-opacity:1;paint-order:stroke fill markers"
         id="circle9856"
         cx="1.4210855e-14"
         cy="-55.295727"
         transform="rotate(90)"
         inkscape:label="Top-text-path"
         r="63" /><g
         aria-label="Cexplorer.io"
         id="text9864"
         style="font-size:16.8px;font-family:ROBOTO;-inkscape-font-specification:ROBOTO;text-align:center;letter-spacing:1.2px;text-anchor:middle;fill:#fefeff;stroke:#ffffff;stroke-width:0.744;stroke-linecap:round;paint-order:stroke fill markers"><path
           d="m 14.858755,-48.055292 q -1.276057,1.082623 -2.776689,1.355314 -1.499685,0.261129 -2.987961,-0.32652 -1.4873279,-0.599212 -2.7397738,-2.075435 -1.2630598,-1.488732 -1.6119449,-3.053813 -0.3426299,-1.570388 0.1646503,-3.001236 0.5135355,-1.436154 1.7895923,-2.518777 0.8194286,-0.695214 1.7269808,-1.045643 0.9075521,-0.350429 1.8275993,-0.356455 0.926303,-0.01133 1.806343,0.328555 0.880039,0.33989 1.656004,1.026262 l -1.945361,1.650469 q -0.431578,-0.343851 -0.889889,-0.503656 -0.463618,-0.16606 -0.92459,-0.151485 -0.466279,0.0083 -0.9183498,0.198225 -0.4511226,0.178342 -0.8702197,0.533909 -0.7944079,0.673986 -1.0336487,1.53318 -0.2329856,0.853886 0.061147,1.809201 0.2888255,0.94906 1.1007925,1.906103 0.80666,0.950787 1.6897276,1.395684 0.8893231,0.43959 1.7760141,0.343529 0.886692,-0.09606 1.6811,-0.770048 0.419097,-0.355567 0.673861,-0.765351 0.254765,-0.409783 0.338942,-0.868477 0.08418,-0.458693 0.0012,-0.936917 -0.083,-0.478223 -0.334126,-0.964414 l 1.939106,-1.645162 q 0.545472,0.871168 0.737441,1.794824 0.19197,0.923657 0.02987,1.835737 -0.162098,0.91208 -0.655706,1.750413 -0.49266,0.826771 -1.312089,1.521984 z"
           style="font-weight:bold;font-family:Inter;-inkscape-font-specification:Inter"
           id="path5590" /><path
           d="m 24.407684,-54.696185 q -1.103047,0.632425 -2.175545,0.575976 -1.065382,-0.06053 -1.984075,-0.706316 -0.922773,-0.652904 -1.571518,-1.784416 -0.656906,-1.145745 -0.732824,-2.284189 -0.07592,-1.138443 0.402965,-2.084367 0.474803,-0.95304 1.471103,-1.524262 0.782807,-0.448818 1.572259,-0.523215 0.796568,-0.07848 1.546835,0.191089 0.750267,0.269565 1.401285,0.860796 0.654055,0.580033 1.155915,1.455354 l 0.191767,0.334472 -6.177059,3.541579 -0.595704,-1.038998 5.500999,-3.153964 -0.311411,0.660789 q -0.440657,-0.768574 -1.04053,-1.171645 -0.596838,-0.414268 -1.270434,-0.434664 -0.677677,-0.02751 -1.353738,0.360104 -0.668944,0.383535 -0.987567,0.982269 -0.315587,0.587538 -0.266715,1.315978 0.05191,0.717244 0.492566,1.485818 l 0.293772,0.512383 q 0.444737,0.775691 1.050778,1.222505 0.613158,0.442733 1.321389,0.49055 0.70415,0.0407 1.437142,-0.379556 0.533732,-0.306012 0.845525,-0.702259 0.307712,-0.403363 0.399653,-0.853219 0.09906,-0.453936 -0.01149,-0.910622 l 1.209793,-0.693627 q 0.269767,0.800362 0.135605,1.605377 -0.138243,0.797899 -0.638857,1.49152 -0.493497,0.689542 -1.311886,1.15876 z"
           style="font-family:Inter;-inkscape-font-specification:Inter"
           id="path5592" /><path
           d="m 29.024949,-57.419381 1.614151,-5.923659 0.376633,1.006479 -4.912407,-3.239941 1.532131,-0.586708 1.70565,1.17392 q 0.511287,0.348818 1.007253,0.703503 0.493033,0.347025 0.999593,0.706438 l -0.643494,0.246417 q 0.144595,-0.608763 0.279735,-1.196338 0.139868,-0.59817 0.287397,-1.199272 l 0.500618,-2.018779 1.509149,-0.577907 -1.49956,5.695313 -0.387227,-1.011206 5.122496,3.352738 -1.524469,0.583774 -1.99104,-1.345722 q -0.497759,-0.33643 -0.977264,-0.671067 -0.479505,-0.334637 -0.972538,-0.681662 l 0.651156,-0.249351 q -0.135141,0.587575 -0.276149,1.159829 -0.141008,0.572254 -0.286743,1.155102 l -0.598262,2.337258 z"
           style="font-family:Inter;-inkscape-font-specification:Inter"
           id="path5594" /><path
           d="m 39.607891,-57.605288 -2.432547,-11.844188 1.333878,-0.273951 0.257447,1.253524 0.01607,-0.0033 q 0.175836,-0.530199 0.529315,-0.929396 0.353479,-0.399197 0.836389,-0.657489 0.48126,-0.266327 1.027668,-0.378548 1.108886,-0.227742 2.050404,0.15672 0.941518,0.384462 1.604173,1.286785 0.661006,0.894288 0.930005,2.204059 0.267349,1.301736 0.01397,2.392193 -0.255031,1.082423 -0.967157,1.814882 -0.713776,0.724425 -1.822662,0.952166 -0.546407,0.112221 -1.069573,0.05218 -0.521516,-0.052 -0.997333,-0.289255 -0.475818,-0.23725 -0.881832,-0.664699 l -0.01607,0.0033 0.953875,4.644465 z m 2.915536,-5.213053 q 0.739258,-0.151828 1.227473,-0.628942 0.488214,-0.477115 0.664404,-1.250243 0.176189,-0.773128 -0.0367,-1.809695 -0.214539,-1.044603 -0.681182,-1.685706 -0.466643,-0.641104 -1.103385,-0.887176 -0.636742,-0.246072 -1.375999,-0.09424 -0.78747,0.16173 -1.285155,0.674286 -0.497684,0.512557 -0.664188,1.29207 -0.166504,0.779513 0.03153,1.743762 0.196386,0.956213 0.656644,1.607002 0.460257,0.65079 1.119671,0.925703 0.659415,0.274913 1.446884,0.113183 z"
           style="font-family:Inter;-inkscape-font-specification:Inter"
           id="path5596" /><path
           d="m 49.868364,-75.032574 0.983695,12.183007 -1.390008,0.112234 -0.983695,-12.183007 z"
           style="font-family:Inter;-inkscape-font-specification:Inter"
           id="path5598" /><path
           d="m 57.684922,-62.75852 q -1.196813,-0.04493 -2.085176,-0.652908 -0.879858,-0.615865 -1.349932,-1.651417 -0.461876,-1.035245 -0.412327,-2.355018 0.04986,-1.327971 0.588364,-2.333866 0.546705,-1.005588 1.470265,-1.553747 0.931756,-0.547851 2.128569,-0.502918 1.20501,0.04524 2.084868,0.661105 0.879858,0.615865 1.341427,1.659307 0.469766,1.04375 0.419909,2.37172 -0.04955,1.319774 -0.595946,2.317164 -0.5382,0.997698 -1.461759,1.545857 -0.923252,0.539961 -2.128262,0.494721 z m 0.04739,-1.262392 q 0.819735,0.03078 1.416827,-0.349044 0.597092,-0.379819 0.935982,-1.097689 0.339197,-0.726066 0.37582,-1.701551 0.03724,-0.991879 -0.24687,-1.733138 -0.283802,-0.749456 -0.850425,-1.181174 -0.566624,-0.431719 -1.386359,-0.462494 -0.811538,-0.03047 -1.417135,0.357241 -0.597092,0.379819 -0.936289,1.105886 -0.339198,0.726067 -0.376436,1.717946 -0.03693,0.983682 0.247178,1.724941 0.284109,0.741259 0.851041,1.164779 0.566931,0.423521 1.386666,0.454297 z"
           style="font-family:Inter;-inkscape-font-specification:Inter"
           id="path5600" /><path
           d="m 64.50772,-62.351707 1.472099,-8.5365 1.309576,0.225834 -0.231409,1.341912 0.03234,0.0056 q 0.348741,-0.622445 0.927723,-0.938812 0.578981,-0.316366 1.379278,-0.178357 0.185928,0.03206 0.336732,0.07472 0.158888,0.04405 0.236938,0.07416 l -0.236986,1.374247 q -0.07666,-0.03819 -0.30551,-0.110954 -0.219376,-0.07945 -0.518477,-0.131031 -0.468861,-0.08085 -0.91069,0.06771 -0.441829,0.148561 -0.763804,0.567517 -0.321974,0.418956 -0.447437,1.146498 l -0.906121,5.254475 z"
           style="font-family:Inter;-inkscape-font-specification:Inter"
           id="path5602" /><path
           d="m 74.208055,-59.905665 q -1.213253,-0.380379 -1.900034,-1.206073 -0.678954,-0.82324 -0.828643,-1.936178 -0.147235,-1.120766 0.242959,-2.36533 0.395103,-1.260218 1.179334,-2.088951 0.78423,-0.828733 1.803832,-1.119444 1.022056,-0.298538 2.117898,0.04503 0.861019,0.269946 1.451672,0.799 0.59848,0.531509 0.910009,1.265345 0.311529,0.733836 0.319521,1.613219 0.01827,0.87401 -0.283575,1.836786 l -0.11534,0.367889 -6.794221,-2.130118 0.358292,-1.142807 6.050614,1.896984 -0.696561,0.220053 q 0.265038,-0.845364 0.153638,-1.55944 -0.101118,-0.719449 -0.543515,-1.227813 -0.439943,-0.516191 -1.18355,-0.749326 -0.73578,-0.230681 -1.391679,-0.05806 -0.645618,0.167251 -1.147213,0.697738 -0.491313,0.525114 -0.756351,1.370478 l -0.176691,0.563576 q -0.267492,0.853191 -0.184017,1.601497 0.0913,0.750759 0.537083,1.303168 0.448236,0.544582 1.254463,0.797349 0.587058,0.184054 1.089665,0.143904 0.505062,-0.04798 0.897748,-0.28593 0.400513,-0.235499 0.660725,-0.626743 l 1.330665,0.417189 q -0.404408,0.741491 -1.086499,1.189598 -0.679637,0.440281 -1.528769,0.543726 -0.841304,0.105899 -1.74146,-0.176316 z"
           style="font-family:Inter;-inkscape-font-specification:Inter"
           id="path5604" /><path
           d="m 80.477228,-57.777399 3.609932,-7.874471 1.208016,0.553797 -0.567471,1.237843 0.02983,0.01367 q 0.496566,-0.512329 1.137275,-0.669808 0.640708,-0.157479 1.37894,0.180953 0.171508,0.07862 0.306352,0.15849 0.142301,0.08328 0.210033,0.132383 l -0.581145,1.26767 q -0.06431,-0.05656 -0.266889,-0.185519 -0.1917,-0.133003 -0.467605,-0.259487 -0.432499,-0.198273 -0.897643,-0.167862 -0.465143,0.03041 -0.883704,0.352899 -0.418561,0.322487 -0.726226,0.993607 l -2.222023,4.846975 z"
           style="font-family:Inter;-inkscape-font-specification:Inter"
           id="path5606" /><path
           d="m 86.108686,-54.803396 q -0.371631,-0.209394 -0.491095,-0.615669 -0.10829,-0.409396 0.101104,-0.781026 0.213422,-0.378778 0.61567,-0.491095 0.409395,-0.108291 0.781026,0.101104 0.378777,0.213422 0.491095,0.61567 0.112317,0.402248 -0.101105,0.781026 -0.209394,0.371631 -0.615669,0.491095 -0.402249,0.112317 -0.781026,-0.101105 z"
           style="font-family:Inter;-inkscape-font-specification:Inter"
           id="path5608" /><path
           d="m 89.66592,-52.811898 4.811696,-7.203227 1.159611,0.774611 -4.811697,7.203226 z m 6.330147,-8.221096 q -0.327419,-0.218714 -0.404419,-0.605558 -0.077,-0.386844 0.141713,-0.714263 0.218714,-0.32742 0.605558,-0.40442 0.386844,-0.077 0.714263,0.141714 0.32742,0.218713 0.40442,0.605557 0.077,0.386844 -0.141714,0.714264 -0.218713,0.327419 -0.605557,0.404419 -0.386845,0.077 -0.714264,-0.141713 z"
           style="font-family:Inter;-inkscape-font-specification:Inter"
           id="path5610" /><path
           d="m 96.123878,-47.722538 q -0.909702,-0.778988 -1.227838,-1.807391 -0.306569,-1.029298 -0.03127,-2.132725 0.281525,-1.098091 1.140546,-2.101256 0.864356,-1.009396 1.911379,-1.462783 1.053253,-0.448052 2.117465,-0.303533 1.07044,0.149855 1.98015,0.928843 0.91593,0.784323 1.2225,1.813621 0.30657,1.029298 0.0197,2.13362 -0.28063,1.109658 -1.14499,2.119054 -0.85902,1.003165 -1.90694,1.444986 -1.041679,0.447156 -2.105894,0.302637 -1.058879,-0.15075 -1.974813,-0.935073 z m 0.821672,-0.959549 q 0.623084,0.533553 1.326915,0.607065 0.70383,0.07351 1.415465,-0.278283 0.71697,-0.358025 1.3519,-1.099495 0.6456,-0.753931 0.88369,-1.511226 0.24342,-0.763526 0.0678,-1.45389 -0.17561,-0.690365 -0.7987,-1.223918 -0.61685,-0.528218 -1.332246,-0.600835 -0.70383,-0.07351 -1.4208,0.284514 -0.71697,0.358025 -1.362569,1.111957 -0.640264,0.7477 -0.878355,1.504995 -0.23809,0.757295 -0.05714,1.441429 0.180949,0.684134 0.804032,1.217687 z"
           style="font-family:Inter;-inkscape-font-specification:Inter"
           id="path5612" /></g><g
         aria-label="10 delegators"
         id="text9868"
         style="font-size:16.8px;font-family:ROBOTO;-inkscape-font-specification:ROBOTO;text-align:center;letter-spacing:1.34783px;text-anchor:middle;fill:#fefeff;stroke:#ffffff;stroke-width:0.744;stroke-linecap:round;paint-order:stroke fill markers"><path
           d="m 13.062908,48.502273 -8.361699,8.914893 -1.7710122,-1.661116 6.773537,-7.221661 -0.011966,-0.01122 -3.3399392,-0.635898 1.5152071,-1.61545 3.5265733,0.664742 z"
           style="font-weight:bold;font-family:Inter;-inkscape-font-specification:'Inter Bold'"
           id="path5615" /><path
           d="M 10.649034,62.35841 Q 9.4024953,61.464402 8.9405355,60.194278 8.4900224,58.922269 8.8257018,57.426723 9.1680471,55.935957 10.301094,54.35612 q 1.137829,-1.586504 2.440075,-2.388835 1.308913,-0.797551 2.658214,-0.778747 1.349302,0.01881 2.602506,0.917593 1.246539,0.894008 1.697052,2.166017 0.46196,1.270124 0.114833,2.767555 -0.335679,1.495547 -1.473507,3.08205 -1.133047,1.579837 -2.44196,2.377388 -1.302246,0.802332 -2.658214,0.778747 -1.344521,-0.02547 -2.591059,-0.919478 z m 1.176074,-1.639832 q 0.6466,0.463737 1.414409,0.378436 0.767808,-0.0853 1.580468,-0.683552 0.81266,-0.598249 1.587148,-1.678138 0.779268,-1.086555 1.085314,-2.048145 0.306045,-0.96159 0.140616,-1.716202 -0.160648,-0.761278 -0.807248,-1.225014 -0.6466,-0.463737 -1.425855,-0.37655 -0.767809,0.0853 -1.580469,0.683551 -0.805993,0.60303 -1.585262,1.689585 -0.774488,1.079889 -1.087199,2.036698 -0.306046,0.96159 -0.140617,1.716202 0.172095,0.759393 0.818695,1.223129 z"
           style="font-weight:bold;font-family:Inter;-inkscape-font-specification:'Inter Bold'"
           id="path5617" /><path
           d="m 24.556,70.264918 q -1.041585,-0.443391 -1.597304,-1.295121 -0.555719,-0.851729 -0.587529,-1.970786 -0.02426,-1.115843 0.505879,-2.361216 0.523716,-1.230278 1.349132,-1.975507 0.836177,-0.749564 1.82774,-0.942632 1.002323,-0.197403 2.021265,0.236349 0.520792,0.221696 0.897513,0.551455 0.379934,0.322212 0.608249,0.749274 0.228314,0.427063 0.301797,0.966524 l 0.0075,0.0032 1.863528,-4.377675 2.219029,0.944616 -4.787341,11.246096 -2.188838,-0.931764 0.520503,-1.22273 -0.0075,-0.0032 q -0.429971,0.360808 -0.919658,0.526802 -0.478928,0.16166 -0.99605,0.119835 -0.517123,-0.04182 -1.037915,-0.26352 z m 1.344742,-1.567265 q 0.566078,0.240973 1.103296,0.130874 0.547978,-0.114434 1.006866,-0.543172 0.458888,-0.428737 0.760908,-1.138223 0.305233,-0.717033 0.29295,-1.337427 -0.0091,-0.627943 -0.30965,-1.094683 -0.289818,-0.471075 -0.855897,-0.712048 -0.535887,-0.228122 -1.054797,-0.119144 -0.518909,0.108977 -0.967036,0.53338 -0.440579,0.427616 -0.758664,1.17484 -0.318085,0.747224 -0.32411,1.36874 0.0047,0.617182 0.285884,1.066735 0.284362,0.442006 0.82025,0.670128 z"
           style="font-weight:bold;font-family:Inter;-inkscape-font-specification:'Inter Bold'"
           id="path5619" /><path
           d="m 35.875443,74.207339 q -1.269564,-0.332959 -2.068133,-1.136033 -0.788553,-0.808927 -1.052123,-1.93812 -0.255636,-1.127112 0.07732,-2.396676 0.337121,-1.285434 1.118861,-2.132001 0.791755,-0.85242 1.867874,-1.172313 1.07612,-0.319892 2.274272,-0.0057 0.928369,0.243476 1.598933,0.758562 0.672645,0.507152 1.06615,1.237914 0.395587,0.722828 0.481074,1.593302 0.09342,0.872556 -0.158379,1.832664 l -0.164399,0.626848 -7.403147,-1.941572 0.391227,-1.491738 6.276409,1.64607 -1.14897,0.08029 q 0.16648,-0.634782 0.05707,-1.155348 -0.10941,-0.520566 -0.473377,-0.878919 -0.353952,-0.364205 -0.941125,-0.518199 -0.579239,-0.151913 -1.066374,-0.0083 -0.485054,0.135685 -0.835861,0.535553 -0.350806,0.399868 -0.517286,1.034651 l -0.266368,1.015651 q -0.170642,0.650652 -0.06956,1.202957 0.111102,0.546452 0.484696,0.93277 0.375675,0.378384 1.002522,0.542782 0.460217,0.120698 0.842643,0.08531 0.392442,-0.04125 0.692916,-0.21686 0.310489,-0.181467 0.498962,-0.47974 l 2.134455,0.559789 q -0.369266,0.793612 -1.09118,1.282725 -0.721914,0.489112 -1.658727,0.633526 -0.934731,0.136479 -1.950383,-0.129889 z"
           style="font-weight:bold;font-family:Inter;-inkscape-font-specification:'Inter Bold'"
           id="path5621" /><path
           d="M 46.814198,63.726392 44.991646,75.812401 42.598778,75.45156 44.42133,63.365551 Z"
           style="font-weight:bold;font-family:Inter;-inkscape-font-specification:'Inter Bold'"
           id="path5623" /><path
           d="m 51.962557,76.616623 q -1.311229,-0.05774 -2.261193,-0.674351 -0.941409,-0.624443 -1.43718,-1.672659 -0.487576,-1.047855 -0.429834,-2.359085 0.05846,-1.327619 0.644096,-2.320003 0.594188,-1.000219 1.578648,-1.539853 0.984459,-0.539634 2.221932,-0.48514 0.958836,0.04222 1.722943,0.404316 0.764467,0.353896 1.303229,0.985241 0.539123,0.62315 0.806256,1.456021 0.275328,0.833232 0.231661,1.824849 l -0.02851,0.647419 -7.646106,-0.336708 0.06785,-1.540694 6.48239,0.285462 -1.1062,0.320785 q 0.02887,-0.655615 -0.187857,-1.141401 -0.216729,-0.485786 -0.648081,-0.759325 -0.422797,-0.281373 -1.02924,-0.308078 -0.598249,-0.02635 -1.044142,0.216774 -0.445532,0.234923 -0.704124,0.699778 -0.258591,0.464855 -0.287462,1.120469 l -0.04619,1.048984 q -0.02959,0.672005 0.185692,1.190572 0.223842,0.510732 0.670502,0.809578 0.447021,0.290651 1.09444,0.319161 0.475321,0.02093 0.841683,-0.09431 0.374918,-0.123078 0.6316,-0.358107 0.265238,-0.242863 0.386572,-0.574174 l 2.204504,0.09708 q -0.193601,0.853637 -0.796135,1.483989 -0.602534,0.630353 -1.487824,0.969077 -0.884929,0.330529 -1.933913,0.284336 z"
           style="font-weight:bold;font-family:Inter;-inkscape-font-specification:'Inter Bold'"
           id="path5625" /><path
           d="m 63.230374,79.645986 q -1.224424,0.121817 -2.116442,-0.143912 -0.883043,-0.258378 -1.435345,-0.838189 -0.54414,-0.580622 -0.750231,-1.409212 l 2.318243,-0.230641 q 0.122276,0.31758 0.373574,0.523399 0.259461,0.205008 0.621832,0.284367 0.363184,0.08752 0.812139,0.04285 0.881585,-0.08771 1.307114,-0.616418 0.433692,-0.529522 0.34111,-1.460084 l -0.131563,-1.322377 -0.0082,8.12e-4 q -0.202696,0.531271 -0.553864,0.895953 -0.343005,0.363871 -0.817345,0.567691 -0.466176,0.203009 -1.029411,0.259045 -1.12647,0.112072 -2.023277,-0.367514 -0.896807,-0.479587 -1.460354,-1.420998 -0.555385,-0.942224 -0.682887,-2.223787 -0.129127,-1.297889 0.237075,-2.340045 0.373554,-1.05113 1.150126,-1.697201 0.784735,-0.646883 1.886716,-0.756519 0.563235,-0.05604 1.052109,0.05196 0.497037,0.107178 0.912363,0.387359 0.423488,0.279368 0.740776,0.734175 l 0.0082,-8.12e-4 -0.124254,-1.248912 2.375382,-0.236327 0.8243,8.285268 q 0.135623,1.363192 -0.3105,2.264914 -0.445311,0.909884 -1.36138,1.396717 -0.907094,0.494184 -2.156006,0.618438 z m -0.639637,-5.43486 q 0.612212,-0.06091 1.031119,-0.407599 0.426258,-0.355666 0.623269,-0.944077 0.197012,-0.588411 0.122297,-1.339391 -0.07472,-0.75098 -0.382987,-1.280876 -0.309084,-0.538059 -0.79625,-0.794605 -0.479816,-0.265521 -1.092028,-0.204612 -0.57956,0.05766 -0.982954,0.394564 -0.404206,0.328741 -0.593866,0.908177 -0.181498,0.578623 -0.102723,1.370418 0.07878,0.791794 0.370722,1.323314 0.300108,0.530709 0.761974,0.781528 0.461866,0.25082 1.041427,0.193159 z"
           style="font-weight:bold;font-family:Inter;-inkscape-font-specification:'Inter Bold'"
           id="path5627" /><path
           d="m 72.722937,74.657091 q -0.835929,0.207625 -1.557959,0.09113 -0.722029,-0.116497 -1.234624,-0.580846 -0.514572,-0.472311 -0.722197,-1.30824 -0.175987,-0.70855 -0.02993,-1.243516 0.144077,-0.542928 0.526682,-0.942243 0.388588,-0.409254 0.940149,-0.706843 0.559522,-0.299568 1.198501,-0.517442 0.752466,-0.271418 1.188459,-0.45578 0.435994,-0.184362 0.601409,-0.369138 0.165416,-0.184775 0.09819,-0.455457 l -0.01384,-0.05573 q -0.07712,-0.310488 -0.301648,-0.499839 -0.226508,-0.197311 -0.570611,-0.255534 -0.336142,-0.0602 -0.766049,0.04658 -0.429906,0.106779 -0.730663,0.32517 -0.292795,0.216413 -0.422565,0.510669 -0.129771,0.294255 -0.08054,0.628575 l -2.205261,0.547736 q -0.159806,-0.881616 0.135793,-1.631226 0.303561,-0.751586 1.046501,-1.299567 0.740964,-0.555942 1.895342,-0.842663 0.859813,-0.213558 1.585952,-0.182604 0.724162,0.02299 1.278851,0.282481 0.562649,0.257512 0.933971,0.731593 0.371322,0.474081 0.539399,1.150786 l 1.415807,5.700242 -2.292834,0.569486 -0.294631,-1.186223 -0.03184,0.0079 q -0.120091,0.469351 -0.373338,0.844989 -0.253248,0.375639 -0.681435,0.65949 -0.430165,0.27589 -1.075025,0.436059 z m 0.247457,-1.794198 q 0.565248,-0.140395 0.919859,-0.448233 0.362572,-0.309816 0.496504,-0.723438 0.133932,-0.413623 0.02122,-0.867413 l -0.209602,-0.84389 q -0.08965,0.08143 -0.242999,0.178688 -0.155322,0.08929 -0.366372,0.192427 -0.213027,0.09517 -0.463884,0.208194 -0.250856,0.113021 -0.519612,0.222035 -0.390204,0.164537 -0.682999,0.38095 -0.294772,0.208453 -0.430475,0.478825 -0.13768,0.26241 -0.05463,0.596782 0.07316,0.294565 0.285777,0.469971 0.212614,0.175405 0.534863,0.213699 0.322249,0.03829 0.712349,-0.0586 z"
           style="font-weight:bold;font-family:Inter;-inkscape-font-specification:'Inter Bold'"
           id="path5629" /><path
           d="m 81.948784,62.45674 0.671719,1.77187 -5.315609,2.015156 -0.671719,-1.77187 z m -4.757058,-0.723161 2.262778,-0.857823 2.960215,7.8085 q 0.154117,0.406533 0.376262,0.506547 0.229815,0.0971 0.69004,-0.07737 0.191761,-0.0727 0.452556,-0.171565 0.268465,-0.101775 0.414203,-0.157025 l 0.671719,1.77187 q -0.207102,0.07851 -0.575282,0.21809 -0.368181,0.139578 -0.744032,0.282064 -1.334655,0.50597 -2.169037,0.225734 -0.82671,-0.283143 -1.245444,-1.387685 z"
           style="font-weight:bold;font-family:Inter;-inkscape-font-specification:'Inter Bold'"
           id="path5631" /><path
           d="m 90.932305,67.922138 q -1.154451,0.606986 -2.296405,0.567917 -1.141954,-0.03907 -2.109054,-0.679804 -0.959839,-0.644554 -1.58973,-1.84257 -0.633708,-1.205276 -0.620613,-2.361377 0.02036,-1.159919 0.635491,-2.122827 0.611319,-0.970169 1.765771,-1.577154 1.168973,-0.614621 2.307483,-0.564474 1.141954,0.03907 2.101794,0.683622 0.9671,0.640736 1.600808,1.846012 0.62989,1.198016 0.609535,2.357935 -0.01309,1.156101 -0.628231,2.119009 -0.607875,0.959091 -1.776849,1.573711 z M 90.019918,66.18683 q 0.522771,-0.274861 0.773601,-0.749653 0.247012,-0.482053 0.197607,-1.104827 -0.0494,-0.622775 -0.419705,-1.327063 -0.377934,-0.71881 -0.862982,-1.112534 -0.485047,-0.393723 -1.018373,-0.456223 -0.537144,-0.06976 -1.059914,0.205101 -0.51551,0.271043 -0.762523,0.753096 -0.250829,0.474792 -0.201424,1.097567 0.0494,0.622775 0.42734,1.341584 0.374116,0.711549 0.859164,1.105273 0.48123,0.386463 1.018373,0.456223 0.533327,0.0625 1.048836,-0.208544 z"
           style="font-weight:bold;font-family:Inter;-inkscape-font-specification:'Inter Bold'"
           id="path5633" /><path
           d="m 96.966391,64.194698 -4.937137,-7.117835 1.914266,-1.327791 0.841557,1.213267 0.02022,-0.01403 q -0.248684,-0.775919 -0.04584,-1.375846 0.202838,-0.599927 0.910577,-1.090836 0.17525,-0.121558 0.321473,-0.212999 0.148288,-0.102857 0.274291,-0.180273 l 1.173505,1.691834 q -0.112522,0.06807 -0.371266,0.227571 -0.252004,0.154831 -0.508138,0.332493 -0.404423,0.280519 -0.597052,0.693665 -0.197304,0.406405 -0.126827,0.896619 0.07048,0.490214 0.444502,1.029444 l 2.674283,3.855494 z"
           style="font-weight:bold;font-family:Inter;-inkscape-font-specification:'Inter Bold'"
           id="path5635" /><path
           d="m 106.0109,57.546865 q -0.84369,0.742416 -1.73023,1.063609 -0.89196,0.315036 -1.71962,0.169193 -0.82766,-0.145842 -1.5016,-0.78754 l 1.78591,-1.571536 q 0.42319,0.38157 0.94244,0.35079 0.51926,-0.03078 1.04888,-0.496823 0.50498,-0.444365 0.62027,-0.884551 0.12145,-0.445604 -0.14409,-0.747361 -0.2276,-0.258649 -0.59019,-0.223678 -0.35644,0.02955 -0.82176,0.307894 l -1.33437,0.780832 q -1.11096,0.649791 -2.02631,0.602971 -0.915352,-0.04682 -1.576481,-0.798134 -0.541909,-0.615831 -0.615792,-1.370334 -0.06772,-0.759923 0.325923,-1.554323 0.399806,-0.799818 1.249652,-1.547653 0.843688,-0.742415 1.710278,-1.024197 0.86116,-0.28794 1.64572,-0.104164 0.7907,0.178358 1.40528,0.839514 l -1.68122,1.479411 q -0.35298,-0.388712 -0.88234,-0.381825 -0.52936,0.0069 -1.01586,0.434994 -0.46803,0.411851 -0.55401,0.848096 -0.0914,0.430087 0.1633,0.719527 0.22218,0.25249 0.57246,0.228357 0.35028,-0.02413 0.79023,-0.26922 l 1.443,-0.843644 q 1.15332,-0.676147 1.99995,-0.645339 0.84737,0.01923 1.4814,0.739752 0.56901,0.646622 0.62762,1.458273 0.0593,0.800074 -0.35499,1.645463 -0.41361,0.833812 -1.26345,1.581646 z"
           style="font-weight:bold;font-family:Inter;-inkscape-font-specification:'Inter Bold'"
           id="path5637" /></g></g><g
       id="g12457"
       inkscape:label="Middlepart"
       transform="translate(14.08296,3.7572098)"><g
         style="fill:none"
         id="g12591"
         transform="matrix(2.871673,0,0,2.871673,-765.28098,-27.943634)"
         inkscape:label="user"><path
           d="m 17,21 c 0,-1.8638 0,-2.7956 -0.3045,-3.5307 -0.406,-0.9801 -1.1847,-1.7588 -2.1648,-2.1648 C 13.7956,15 12.8638,15 11,15 H 8 C 6.13623,15 5.20435,15 4.46927,15.3045 3.48915,15.7105 2.71046,16.4892 2.30448,17.4693 2,18.2044 2,19.1362 2,21"
           stroke="#000000"
           stroke-width="2"
           stroke-linecap="round"
           stroke-linejoin="round"
           id="path12582"
           style="stroke:#ffffff;stroke-opacity:1"
           sodipodi:nodetypes="cssssssc" /></g><g
         id="g9888"
         transform="matrix(1.8892585,0,0,1.8892585,-739.72275,-5.9525966)"
         inkscape:label="Logo"
         style="display:inline">
		<g
   transform="translate(0.91990781,-0.8)"
   id="g9874"
   inkscape:label="Circle">
<path
   style="opacity:1;fill:#e4003a;fill-opacity:1;fill-rule:nonzero;stroke:none;stroke-width:1;stroke-linecap:butt;stroke-linejoin:miter;stroke-miterlimit:4;stroke-dasharray:none;stroke-dashoffset:0"
   d="m 0,7.39996 a 7.6,7.6 0 1 1 7.6,-7.6 7.6,7.6 0 0 1 -7.6,7.6 z"
   stroke-linecap="round"
   id="path9872" />
</g>
		<g
   transform="translate(0.81,-1.08)"
   id="g9878"
   style="display:none"
   inkscape:label="undefined">
<path
   style="opacity:1;fill:#ffffff;fill-rule:nonzero;stroke:none;stroke-width:1;stroke-linecap:butt;stroke-linejoin:miter;stroke-miterlimit:4;stroke-dasharray:none;stroke-dashoffset:0"
   transform="translate(-10.81,-11.92)"
   d="m 8.46,13.2 h -0.8 c -0.3,0 -0.4,-0.1 -0.4,-0.4 a 0.43,0.43 0 0 1 0.4,-0.4 h 0.9 a 0.35,0.35 0 0 0 0.2,-0.1 1.42,1.42 0 0 0 0.2,-0.6 h -0.7 a 0.4,0.4 0 1 1 0,-0.8 h 0.8 c 0.1,0 0.2,0 0.2,-0.1 a 23.29,23.29 0 0 0 1.1,-2.8 0.1,0.1 0 0 1 0.1,-0.1 c 0.1,-0.2 0.2,-0.3 0.4,-0.3 0.2,0 0.3,0.1 0.4,0.3 0.2,0.6 0.4,1.1 0.6,1.7 0.2,0.4 0.3,0.8 0.5,1.2 0,0.1 0.1,0.1 0.2,0.1 h 0.8 a 0.37,0.37 0 0 1 0.4,0.4 0.43,0.43 0 0 1 -0.4,0.4 h -0.7 a 4.88,4.88 0 0 0 0.3,0.7 0.35,0.35 0 0 0 0.2,0.1 h 0.9 c 0.1,0 0.3,0.1 0.3,0.2 a 0.6,0.6 0 0 1 -0.1,0.4 0.37,0.37 0 0 1 -0.3,0.1 h -0.8 a 3.55,3.55 0 0 0 0.4,0.9 l 0.6,1.5 c 0.1,0.3 0.1,0.5 -0.2,0.6 -0.3,0.1 -0.4,0 -0.5,-0.3 -0.3,-0.9 -0.7,-1.7 -1,-2.6 -0.1,-0.2 -0.1,-0.2 -0.3,-0.2 h -2.9 c -0.2,0 -0.2,0 -0.3,0.2 a 18.61,18.61 0 0 1 -1,2.5 c -0.1,0.2 -0.2,0.3 -0.4,0.3 a 0.27,0.27 0 0 1 -0.3,-0.3 0.37,0.37 0 0 1 0.1,-0.3 c 0.3,-0.7 0.5,-1.4 0.8,-2.1 0.2,0 0.2,-0.1 0.3,-0.2 z m 1,-0.8 h 2.7 c -0.1,-0.2 -0.2,-0.5 -0.3,-0.7 a 0.35,0.35 0 0 0 -0.2,-0.1 h -1.8 c -0.1,0 -0.1,0 -0.2,0.1 a 1.45,1.45 0 0 1 -0.2,0.7 z m 2.2,-1.5 c -0.3,-0.7 -0.5,-1.3 -0.8,-2 -0.3,0.7 -0.5,1.3 -0.8,2 z"
   stroke-linecap="round"
   id="path9876" />
</g>
<path
   style="opacity:1;fill:#050001;fill-opacity:1;stroke:#ffffff;stroke-width:0.786824;stroke-linecap:round;stroke-miterlimit:3.7;stroke-dasharray:none;stroke-opacity:1;paint-order:stroke fill markers"
   d="M -2.3986007,2.7360851 0.88883187,-5.0028575"
   id="path9880"
   sodipodi:nodetypes="cc" /><path
   style="opacity:1;fill:#050001;fill-opacity:1;stroke:#ffffff;stroke-width:0.786824;stroke-linecap:round;stroke-miterlimit:3.7;stroke-dasharray:none;stroke-opacity:1"
   d="M 4.2651388,2.7342975 0.98031102,-5.0045294"
   id="path9882"
   sodipodi:nodetypes="cc" /><path
   style="opacity:1;fill:#050001;fill-opacity:1;stroke:#ffffff;stroke-width:0.786824;stroke-linecap:round;stroke-miterlimit:3.7;stroke-dasharray:none;stroke-opacity:1"
   d="m -1.664028,-1.6872983 5.178973,-0.015567"
   id="path9884" /><path
   style="fill:#050001;fill-opacity:1;stroke:#ffffff;stroke-width:0.786824;stroke-linecap:round;stroke-miterlimit:3.7;stroke-dasharray:none;stroke-opacity:1"
   d="m -2.3298842,-0.18348542 6.5097684,-0.0124693"
   id="path9886" /></g></g></g></svg>
