<?xml version="1.0" encoding="UTF-8" standalone="no"?>
<svg
   inkscape:version="1.2.2 (b0a84865, 2022-12-01)"
   xml:space="preserve"
   sodipodi:docname="final_awards_pre-text-to-path.svg"
   id="svg134"
   version="1.1"
   viewBox="-120 -120 300 300.00013"
   height="250.00011"
   width="250"
   inkscape:export-filename="0.svg"
   inkscape:export-xdpi="96"
   inkscape:export-ydpi="96"
   xmlns:inkscape="http://www.inkscape.org/namespaces/inkscape"
   xmlns:sodipodi="http://sodipodi.sourceforge.net/DTD/sodipodi-0.dtd"
   xmlns="http://www.w3.org/2000/svg"
   xmlns:svg="http://www.w3.org/2000/svg"><defs
     id="defs138" /><sodipodi:namedview
     id="namedview136"
     pagecolor="#ffffff"
     bordercolor="#000000"
     borderopacity="0.25"
     inkscape:showpageshadow="2"
     inkscape:pageopacity="0.0"
     inkscape:pagecheckerboard="0"
     inkscape:deskcolor="#d1d1d1"
     showgrid="false"
     inkscape:zoom="0.35355339"
     inkscape:cx="1480.6816"
     inkscape:cy="663.26616"
     inkscape:window-width="1425"
     inkscape:window-height="949"
     inkscape:window-x="0"
     inkscape:window-y="25"
     inkscape:window-maximized="1"
     inkscape:current-layer="g19337"
     showguides="true" /><style
     type="text/css"
     id="style8571">
	.st0{fill:#ffffff;}
</style><g
     id="g12580"
     inkscape:label="Delegators"
     transform="translate(-1114.0352,-1170.5448)"><g
       id="g12505"
       inkscape:label="50 delegators"
       transform="matrix(1.4245145,0,0,1.4245145,2175.2656,1185.9099)"
       inkscape:export-filename="31.svg"
       inkscape:export-xdpi="96"
       inkscape:export-ydpi="96"><g
         id="g12465"
         inkscape:label="Borders"
         transform="translate(-779.21285,10.273648)"><path
           fill="none"
           stroke="black"
           stroke-width="2"
           d="M 155.29573,3.5528548e-7 Q 164.76573,10.78 153.37573,19.51 q 7.18,12.42 -5.69,18.76 4.62,13.58 -9.24,17.29 1.88,14.22 -12.44,15.15 -0.93,14.32 -15.15,12.44 -3.71,13.86 -17.290004,9.24 -6.34,12.87 -18.76,5.69 -8.73,11.39 -19.51,1.92 -10.78,9.47 -19.51,-1.92 -12.42,7.18 -18.76,-5.69 -13.5800024,4.62 -17.2900022,-9.24 -14.2199978,1.88 -15.1499978,-12.44 -14.32,-0.93 -12.44,-15.15 -13.86,-3.71 -9.24,-17.29 -12.87,-6.34 -5.69,-18.76 -11.39,-8.73 -1.92,-19.50999964471385 Q -54.174274,-10.78 -42.784274,-19.51 q -7.18,-12.42 5.69,-18.76 -4.62,-13.58 9.24,-17.29 -1.88,-14.22 12.44,-15.15 0.93,-14.32 15.1499978,-12.44 3.7099998,-13.86 17.2900022,-9.24 6.34,-12.87 18.76,-5.69 8.73,-11.39 19.51,-1.92 10.78,-9.47 19.51,1.92 12.42,-7.18 18.76,5.69 13.580004,-4.62 17.290004,9.24 14.22,-1.88 15.15,12.44 14.32,0.93 12.44,15.15 13.86,3.71 9.24,17.29 12.87,6.34 5.69,18.76 11.39,8.73 1.92,19.51000035528548 z"
           id="path12459"
           style="fill:#04344d;fill-opacity:1;stroke:#04344d;stroke-opacity:1"
           inkscape:export-filename="path132.svg"
           inkscape:export-xdpi="96"
           inkscape:export-ydpi="96" /><circle
           style="fill:none;fill-opacity:1;stroke:#ffffff;stroke-width:3.6;stroke-linecap:round;stroke-dasharray:none;stroke-opacity:1;paint-order:stroke fill markers"
           id="circle12461"
           cx="55.295727"
           cy="1.4210855e-14"
           r="92.730682" /><circle
           style="fill:none;fill-opacity:1;stroke:#ffffff;stroke-width:2.22;stroke-linecap:round;stroke-dasharray:none;stroke-opacity:1;paint-order:stroke fill markers"
           id="circle12463"
           cx="55.295727"
           cy="0"
           r="86.865753" /></g><g
         id="g12483"
         inkscape:label="Texts"
         transform="translate(-779.21285,8.338798)"><circle
           style="fill:none;fill-opacity:1;stroke:none;stroke-width:3.01836;stroke-linecap:round;stroke-opacity:1;paint-order:stroke fill markers"
           id="circle12467"
           cx="-1.4210855e-14"
           cy="-55.295727"
           transform="matrix(0,-1,-1,0,0,0)"
           r="76.490822"
           inkscape:label="Bottom-text-path" /><circle
           style="fill:none;fill-opacity:1;stroke:none;stroke-width:2.48601;stroke-linecap:round;stroke-opacity:1;paint-order:stroke fill markers"
           id="circle12469"
           cx="1.4210855e-14"
           cy="-55.295727"
           transform="rotate(90)"
           inkscape:label="Top-text-path"
           r="63" /><g
           aria-label="Cexplorer.io"
           id="text12477"
           style="font-size:16.8px;font-family:ROBOTO;-inkscape-font-specification:ROBOTO;text-align:center;letter-spacing:1.2px;text-anchor:middle;fill:#fefeff;stroke:#ffffff;stroke-width:0.744;stroke-linecap:round;paint-order:stroke fill markers"><path
             d="m 14.858755,-48.055292 q -1.276057,1.082623 -2.776689,1.355314 -1.499685,0.261129 -2.987961,-0.32652 -1.4873279,-0.599212 -2.7397738,-2.075435 -1.2630598,-1.488732 -1.6119449,-3.053813 -0.3426299,-1.570388 0.1646503,-3.001236 0.5135355,-1.436154 1.7895923,-2.518777 0.8194286,-0.695214 1.7269808,-1.045643 0.9075521,-0.350429 1.8275993,-0.356455 0.926303,-0.01133 1.806343,0.328555 0.880039,0.33989 1.656004,1.026262 l -1.945361,1.650469 q -0.431578,-0.343851 -0.889889,-0.503656 -0.463618,-0.16606 -0.92459,-0.151485 -0.466279,0.0083 -0.9183498,0.198225 -0.4511226,0.178342 -0.8702197,0.533909 -0.7944079,0.673986 -1.0336487,1.53318 -0.2329856,0.853886 0.061147,1.809201 0.2888255,0.94906 1.1007925,1.906103 0.80666,0.950787 1.6897276,1.395684 0.8893231,0.43959 1.7760141,0.343529 0.886692,-0.09606 1.6811,-0.770048 0.419097,-0.355567 0.673861,-0.765351 0.254765,-0.409783 0.338942,-0.868477 0.08418,-0.458693 0.0012,-0.936917 -0.083,-0.478223 -0.334126,-0.964414 l 1.939106,-1.645162 q 0.545472,0.871168 0.737441,1.794824 0.19197,0.923657 0.02987,1.835737 -0.162098,0.91208 -0.655706,1.750413 -0.49266,0.826771 -1.312089,1.521984 z"
             style="font-weight:bold;font-family:Inter;-inkscape-font-specification:Inter"
             id="path5640" /><path
             d="m 24.407684,-54.696185 q -1.103047,0.632425 -2.175545,0.575976 -1.065382,-0.06053 -1.984075,-0.706316 -0.922773,-0.652904 -1.571518,-1.784416 -0.656906,-1.145745 -0.732824,-2.284189 -0.07592,-1.138443 0.402965,-2.084367 0.474803,-0.95304 1.471103,-1.524262 0.782807,-0.448818 1.572259,-0.523215 0.796568,-0.07848 1.546835,0.191089 0.750267,0.269565 1.401285,0.860796 0.654055,0.580033 1.155915,1.455354 l 0.191767,0.334472 -6.177059,3.541579 -0.595704,-1.038998 5.500999,-3.153964 -0.311411,0.660789 q -0.440657,-0.768574 -1.04053,-1.171645 -0.596838,-0.414268 -1.270434,-0.434664 -0.677677,-0.02751 -1.353738,0.360104 -0.668944,0.383535 -0.987567,0.982269 -0.315587,0.587538 -0.266715,1.315978 0.05191,0.717244 0.492566,1.485818 l 0.293772,0.512383 q 0.444737,0.775691 1.050778,1.222505 0.613158,0.442733 1.321389,0.49055 0.70415,0.0407 1.437142,-0.379556 0.533732,-0.306012 0.845525,-0.702259 0.307712,-0.403363 0.399653,-0.853219 0.09906,-0.453936 -0.01149,-0.910622 l 1.209793,-0.693627 q 0.269767,0.800362 0.135605,1.605377 -0.138243,0.797899 -0.638857,1.49152 -0.493497,0.689542 -1.311886,1.15876 z"
             style="font-family:Inter;-inkscape-font-specification:Inter"
             id="path5642" /><path
             d="m 29.024949,-57.419381 1.614151,-5.923659 0.376633,1.006479 -4.912407,-3.239941 1.532131,-0.586708 1.70565,1.17392 q 0.511287,0.348818 1.007253,0.703503 0.493033,0.347025 0.999593,0.706438 l -0.643494,0.246417 q 0.144595,-0.608763 0.279735,-1.196338 0.139868,-0.59817 0.287397,-1.199272 l 0.500618,-2.018779 1.509149,-0.577907 -1.49956,5.695313 -0.387227,-1.011206 5.122496,3.352738 -1.524469,0.583774 -1.99104,-1.345722 q -0.497759,-0.33643 -0.977264,-0.671067 -0.479505,-0.334637 -0.972538,-0.681662 l 0.651156,-0.249351 q -0.135141,0.587575 -0.276149,1.159829 -0.141008,0.572254 -0.286743,1.155102 l -0.598262,2.337258 z"
             style="font-family:Inter;-inkscape-font-specification:Inter"
             id="path5644" /><path
             d="m 39.607891,-57.605288 -2.432547,-11.844188 1.333878,-0.273951 0.257447,1.253524 0.01607,-0.0033 q 0.175836,-0.530199 0.529315,-0.929396 0.353479,-0.399197 0.836389,-0.657489 0.48126,-0.266327 1.027668,-0.378548 1.108886,-0.227742 2.050404,0.15672 0.941518,0.384462 1.604173,1.286785 0.661006,0.894288 0.930005,2.204059 0.267349,1.301736 0.01397,2.392193 -0.255031,1.082423 -0.967157,1.814882 -0.713776,0.724425 -1.822662,0.952166 -0.546407,0.112221 -1.069573,0.05218 -0.521516,-0.052 -0.997333,-0.289255 -0.475818,-0.23725 -0.881832,-0.664699 l -0.01607,0.0033 0.953875,4.644465 z m 2.915536,-5.213053 q 0.739258,-0.151828 1.227473,-0.628942 0.488214,-0.477115 0.664404,-1.250243 0.176189,-0.773128 -0.0367,-1.809695 -0.214539,-1.044603 -0.681182,-1.685706 -0.466643,-0.641104 -1.103385,-0.887176 -0.636742,-0.246072 -1.375999,-0.09424 -0.78747,0.16173 -1.285155,0.674286 -0.497684,0.512557 -0.664188,1.29207 -0.166504,0.779513 0.03153,1.743762 0.196386,0.956213 0.656644,1.607002 0.460257,0.65079 1.119671,0.925703 0.659415,0.274913 1.446884,0.113183 z"
             style="font-family:Inter;-inkscape-font-specification:Inter"
             id="path5646" /><path
             d="m 49.868364,-75.032574 0.983695,12.183007 -1.390008,0.112234 -0.983695,-12.183007 z"
             style="font-family:Inter;-inkscape-font-specification:Inter"
             id="path5648" /><path
             d="m 57.684922,-62.75852 q -1.196813,-0.04493 -2.085176,-0.652908 -0.879858,-0.615865 -1.349932,-1.651417 -0.461876,-1.035245 -0.412327,-2.355018 0.04986,-1.327971 0.588364,-2.333866 0.546705,-1.005588 1.470265,-1.553747 0.931756,-0.547851 2.128569,-0.502918 1.20501,0.04524 2.084868,0.661105 0.879858,0.615865 1.341427,1.659307 0.469766,1.04375 0.419909,2.37172 -0.04955,1.319774 -0.595946,2.317164 -0.5382,0.997698 -1.461759,1.545857 -0.923252,0.539961 -2.128262,0.494721 z m 0.04739,-1.262392 q 0.819735,0.03078 1.416827,-0.349044 0.597092,-0.379819 0.935982,-1.097689 0.339197,-0.726066 0.37582,-1.701551 0.03724,-0.991879 -0.24687,-1.733138 -0.283802,-0.749456 -0.850425,-1.181174 -0.566624,-0.431719 -1.386359,-0.462494 -0.811538,-0.03047 -1.417135,0.357241 -0.597092,0.379819 -0.936289,1.105886 -0.339198,0.726067 -0.376436,1.717946 -0.03693,0.983682 0.247178,1.724941 0.284109,0.741259 0.851041,1.164779 0.566931,0.423521 1.386666,0.454297 z"
             style="font-family:Inter;-inkscape-font-specification:Inter"
             id="path5650" /><path
             d="m 64.50772,-62.351707 1.472099,-8.5365 1.309576,0.225834 -0.231409,1.341912 0.03234,0.0056 q 0.348741,-0.622445 0.927723,-0.938812 0.578981,-0.316366 1.379278,-0.178357 0.185928,0.03206 0.336732,0.07472 0.158888,0.04405 0.236938,0.07416 l -0.236986,1.374247 q -0.07666,-0.03819 -0.30551,-0.110954 -0.219376,-0.07945 -0.518477,-0.131031 -0.468861,-0.08085 -0.91069,0.06771 -0.441829,0.148561 -0.763804,0.567517 -0.321974,0.418956 -0.447437,1.146498 l -0.906121,5.254475 z"
             style="font-family:Inter;-inkscape-font-specification:Inter"
             id="path5652" /><path
             d="m 74.208055,-59.905665 q -1.213253,-0.380379 -1.900034,-1.206073 -0.678954,-0.82324 -0.828643,-1.936178 -0.147235,-1.120766 0.242959,-2.36533 0.395103,-1.260218 1.179334,-2.088951 0.78423,-0.828733 1.803832,-1.119444 1.022056,-0.298538 2.117898,0.04503 0.861019,0.269946 1.451672,0.799 0.59848,0.531509 0.910009,1.265345 0.311529,0.733836 0.319521,1.613219 0.01827,0.87401 -0.283575,1.836786 l -0.11534,0.367889 -6.794221,-2.130118 0.358292,-1.142807 6.050614,1.896984 -0.696561,0.220053 q 0.265038,-0.845364 0.153638,-1.55944 -0.101118,-0.719449 -0.543515,-1.227813 -0.439943,-0.516191 -1.18355,-0.749326 -0.73578,-0.230681 -1.391679,-0.05806 -0.645618,0.167251 -1.147213,0.697738 -0.491313,0.525114 -0.756351,1.370478 l -0.176691,0.563576 q -0.267492,0.853191 -0.184017,1.601497 0.0913,0.750759 0.537083,1.303168 0.448236,0.544582 1.254463,0.797349 0.587058,0.184054 1.089665,0.143904 0.505062,-0.04798 0.897748,-0.28593 0.400513,-0.235499 0.660725,-0.626743 l 1.330665,0.417189 q -0.404408,0.741491 -1.086499,1.189598 -0.679637,0.440281 -1.528769,0.543726 -0.841304,0.105899 -1.74146,-0.176316 z"
             style="font-family:Inter;-inkscape-font-specification:Inter"
             id="path5654" /><path
             d="m 80.477228,-57.777399 3.609932,-7.874471 1.208016,0.553797 -0.567471,1.237843 0.02983,0.01367 q 0.496566,-0.512329 1.137275,-0.669808 0.640708,-0.157479 1.37894,0.180953 0.171508,0.07862 0.306352,0.15849 0.142301,0.08328 0.210033,0.132383 l -0.581145,1.26767 q -0.06431,-0.05656 -0.266889,-0.185519 -0.1917,-0.133003 -0.467605,-0.259487 -0.432499,-0.198273 -0.897643,-0.167862 -0.465143,0.03041 -0.883704,0.352899 -0.418561,0.322487 -0.726226,0.993607 l -2.222023,4.846975 z"
             style="font-family:Inter;-inkscape-font-specification:Inter"
             id="path5656" /><path
             d="m 86.108686,-54.803396 q -0.371631,-0.209394 -0.491095,-0.615669 -0.10829,-0.409396 0.101104,-0.781026 0.213422,-0.378778 0.61567,-0.491095 0.409395,-0.108291 0.781026,0.101104 0.378777,0.213422 0.491095,0.61567 0.112317,0.402248 -0.101105,0.781026 -0.209394,0.371631 -0.615669,0.491095 -0.402249,0.112317 -0.781026,-0.101105 z"
             style="font-family:Inter;-inkscape-font-specification:Inter"
             id="path5658" /><path
             d="m 89.66592,-52.811898 4.811696,-7.203227 1.159611,0.774611 -4.811697,7.203226 z m 6.330147,-8.221096 q -0.327419,-0.218714 -0.404419,-0.605558 -0.077,-0.386844 0.141713,-0.714263 0.218714,-0.32742 0.605558,-0.40442 0.386844,-0.077 0.714263,0.141714 0.32742,0.218713 0.40442,0.605557 0.077,0.386844 -0.141714,0.714264 -0.218713,0.327419 -0.605557,0.404419 -0.386845,0.077 -0.714264,-0.141713 z"
             style="font-family:Inter;-inkscape-font-specification:Inter"
             id="path5660" /><path
             d="m 96.123878,-47.722538 q -0.909702,-0.778988 -1.227838,-1.807391 -0.306569,-1.029298 -0.03127,-2.132725 0.281525,-1.098091 1.140546,-2.101256 0.864356,-1.009396 1.911379,-1.462783 1.053253,-0.448052 2.117465,-0.303533 1.07044,0.149855 1.98015,0.928843 0.91593,0.784323 1.2225,1.813621 0.30657,1.029298 0.0197,2.13362 -0.28063,1.109658 -1.14499,2.119054 -0.85902,1.003165 -1.90694,1.444986 -1.041679,0.447156 -2.105894,0.302637 -1.058879,-0.15075 -1.974813,-0.935073 z m 0.821672,-0.959549 q 0.623084,0.533553 1.326915,0.607065 0.70383,0.07351 1.415465,-0.278283 0.71697,-0.358025 1.3519,-1.099495 0.6456,-0.753931 0.88369,-1.511226 0.24342,-0.763526 0.0678,-1.45389 -0.17561,-0.690365 -0.7987,-1.223918 -0.61685,-0.528218 -1.332246,-0.600835 -0.70383,-0.07351 -1.4208,0.284514 -0.71697,0.358025 -1.362569,1.111957 -0.640264,0.7477 -0.878355,1.504995 -0.23809,0.757295 -0.05714,1.441429 0.180949,0.684134 0.804032,1.217687 z"
             style="font-family:Inter;-inkscape-font-specification:Inter"
             id="path5662" /></g><g
           aria-label="50 delegators"
           id="text12481"
           style="font-size:16.8px;font-family:ROBOTO;-inkscape-font-specification:ROBOTO;text-align:center;letter-spacing:1.34783px;text-anchor:middle;fill:#fefeff;stroke:#ffffff;stroke-width:0.744;stroke-linecap:round;paint-order:stroke fill markers"><path
             d="M 2.8516101,55.929769 Q 1.9002864,55.037484 1.5070513,53.993847 1.1138162,52.95021 1.2891087,51.899975 1.4644013,50.849739 2.2186603,49.937656 l 1.741102,1.63305 q -0.3632855,0.435286 -0.4625268,0.960776 -0.093629,0.519506 0.079798,1.042067 0.1790394,0.516578 0.627777,0.937467 0.460704,0.432113 1.0041428,0.54819 0.5550338,0.115705 1.0944304,-0.07567 0.5509916,-0.19175 1.0055521,-0.676387 Q 7.77472,53.810546 7.9368056,53.254027 8.0988913,52.697508 7.9598776,52.162238 7.8208639,51.626968 7.3721262,51.206079 6.7857757,50.656117 6.1312559,50.51458 5.4883311,50.372672 4.9174912,50.669518 l -1.6752871,-1.57132 5.1687658,-4.959178 5.7079431,5.353713 -1.397353,1.489809 -4.0865041,-3.832899 -2.1369195,1.954555 0.011966,0.01122 q 0.6781234,-0.02752 1.2955881,0.225471 0.6290597,0.252618 1.1854944,0.77452 0.6043,0.566798 0.9235514,1.293614 0.3248637,0.720832 0.3385177,1.509665 0.02525,0.788462 -0.2692936,1.558148 -0.2829474,0.769313 -0.889028,1.415496 -0.8586143,0.915424 -1.939264,1.240203 -1.0690547,0.324408 -2.1929452,0.0238 -1.1179074,-0.294998 -2.1111134,-1.226567 z"
             style="font-weight:bold;font-family:Inter;-inkscape-font-specification:'Inter Bold'"
             id="path5665" /><path
             d="M 12.100985,63.374674 Q 10.83417,62.509638 10.343055,61.2505 9.8633406,59.989214 10.164457,58.486327 q 0.30789,-1.498261 1.40422,-3.103796 1.100955,-1.61231 2.384361,-2.444447 1.29018,-0.827511 2.639557,-0.839814 1.349376,-0.0123 2.622966,0.857359 1.266815,0.865036 1.746529,2.126322 0.491115,1.259138 0.178599,2.764173 -0.301117,1.502887 -1.402072,3.115197 -1.096329,1.605535 -2.386509,2.433046 -1.283406,0.832137 -2.639557,0.839814 -1.344751,0.0055 -2.611566,-0.859507 z m 1.137962,-1.666505 q 0.657118,0.448708 1.422756,0.345731 0.765638,-0.102978 1.564292,-0.719801 0.798653,-0.616824 1.548043,-1.714279 0.754015,-1.104229 1.037814,-2.072618 0.283798,-0.968388 0.101018,-1.718987 -0.178153,-0.757372 -0.835271,-1.206081 -0.657118,-0.448709 -1.434157,-0.343583 -0.765638,0.102978 -1.564291,0.719801 -0.791879,0.62145 -1.545895,1.725679 -0.749389,1.097454 -1.039962,2.061218 -0.283798,0.968388 -0.101019,1.718987 0.189554,0.755224 0.846672,1.203933 z"
             style="font-weight:bold;font-family:Inter;-inkscape-font-specification:'Inter Bold'"
             id="path5667" /><path
             d="m 26.187233,70.957076 q -1.051614,-0.419049 -1.62699,-1.257624 -0.575377,-0.838576 -0.633202,-1.95659 -0.05021,-1.114977 0.450831,-2.372342 0.494963,-1.242125 1.302826,-2.006348 0.818519,-0.768806 1.805324,-0.984882 0.997461,-0.220659 2.026215,0.18928 0.525807,0.209524 0.910094,0.530434 0.387325,0.313289 0.625509,0.734926 0.238185,0.421638 0.324193,0.959244 l 0.0076,0.003 1.76122,-4.419829 2.240395,0.892757 -4.524512,11.354386 -2.209914,-0.88061 0.491926,-1.234503 -0.0076,-0.003 q -0.421464,0.37071 -0.907159,0.548047 -0.475038,0.172753 -0.992993,0.142966 -0.517956,-0.02979 -1.043763,-0.239312 z m 1.307931,-1.598114 q 0.571529,0.227744 1.106041,0.105181 0.545169,-0.127146 0.993962,-0.56644 0.448793,-0.439293 0.734232,-1.15561 0.288476,-0.723937 0.261768,-1.343879 -0.02367,-0.627561 -0.335023,-1.087185 -0.300695,-0.464208 -0.872224,-0.691952 -0.541048,-0.215597 -1.057283,-0.09458 -0.516234,0.121016 -0.95437,0.555725 -0.430516,0.437747 -0.731138,1.192166 -0.300622,0.754419 -0.292192,1.375907 0.01909,0.616905 0.310615,1.059798 0.294564,0.435274 0.835612,0.650871 z"
             style="font-weight:bold;font-family:Inter;-inkscape-font-specification:'Inter Bold'"
             id="path5669" /><path
             d="m 37.595406,74.634898 q -1.276968,-0.303331 -2.094006,-1.087606 -0.807161,-0.790361 -1.096933,-1.913115 -0.281791,-1.12086 0.02154,-2.397827 0.307122,-1.29293 1.068953,-2.157456 0.771707,-0.870612 1.840092,-1.215456 1.068386,-0.344844 2.273524,-0.05858 0.933783,0.22181 1.61615,0.721155 0.684263,0.491363 1.094665,1.212772 0.412298,0.713428 0.518015,1.581678 0.113698,0.870146 -0.115695,1.835852 l -0.14977,0.630503 -7.446318,-1.768795 0.356413,-1.500437 6.31301,1.499589 -1.146792,0.107004 q 0.151666,-0.638484 0.03017,-1.156363 -0.121494,-0.51788 -0.4937,-0.867666 -0.362329,-0.355872 -0.952927,-0.496162 -0.582617,-0.138395 -1.066278,0.01652 -0.481766,0.146934 -0.823174,0.554856 -0.341407,0.407922 -0.493073,1.046406 l -0.242664,1.021574 q -0.155457,0.654446 -0.04155,1.20425 0.123787,0.543719 0.506268,0.92124 0.384377,0.36954 1.014879,0.519309 0.462901,0.109958 0.8444,0.06568 0.391377,-0.05037 0.687682,-0.232923 0.306183,-0.188643 0.487665,-0.49122 l 2.146902,0.509974 q -0.3507,0.80199 -1.061039,1.307767 -0.710338,0.505777 -1.643537,0.671948 -0.931303,0.158191 -1.952877,-0.08447 z"
             style="font-weight:bold;font-family:Inter;-inkscape-font-specification:'Inter Bold'"
             id="path5671" /><path
             d="M 48.289182,63.903135 46.746536,76.02805 44.345966,75.722627 45.888612,63.597712 Z"
             style="font-weight:bold;font-family:Inter;-inkscape-font-specification:'Inter Bold'"
             id="path5673" /><path
             d="m 53.733946,76.672171 q -1.312205,-0.02784 -2.275975,-0.622643 -0.955395,-0.602826 -1.474925,-1.639472 -0.51133,-1.036472 -0.483485,-2.348676 0.02819,-1.328607 0.591057,-2.33408 0.571239,-1.0135 1.543145,-1.575429 0.971905,-0.56193 2.210298,-0.535651 0.95955,0.02036 1.73171,0.364945 0.772334,0.336383 1.325345,0.955285 0.553184,0.610702 0.839228,1.437269 0.294246,0.826741 0.273188,1.819095 l -0.01375,0.647901 -7.651793,-0.162369 0.03272,-1.54184 6.487211,0.137657 -1.098602,0.345911 q 0.01392,-0.656102 -0.213821,-1.136823 -0.227743,-0.480721 -0.665217,-0.744358 -0.429099,-0.271664 -1.035994,-0.284543 -0.598693,-0.0127 -1.03893,0.240514 -0.440062,0.245016 -0.687993,0.715643 -0.247931,0.470627 -0.261853,1.12673 L 51.843234,72.587 q -0.01427,0.672505 0.212777,1.186031 0.235423,0.505499 0.688777,0.794088 0.453529,0.280388 1.10143,0.294136 0.475674,0.01009 0.839315,-0.113469 0.372016,-0.131591 0.623275,-0.372408 0.259634,-0.248845 0.373386,-0.582835 l 2.206144,0.04681 q -0.174097,0.857828 -0.762109,1.501748 -0.588012,0.64392 -1.465353,1.002732 -0.877167,0.35061 -1.92693,0.328334 z"
             style="font-weight:bold;font-family:Inter;-inkscape-font-specification:'Inter Bold'"
             id="path5675" /><path
             d="m 65.068741,79.443545 q -1.221292,0.149994 -2.119195,-0.09511 -0.888761,-0.237967 -1.454275,-0.804899 -0.557372,-0.567933 -0.782496,-1.391554 l 2.312313,-0.283988 q 0.12956,0.314678 0.385533,0.514654 0.264116,0.198976 0.628219,0.269965 0.365103,0.07913 0.81291,0.02413 0.879331,-0.107995 1.292566,-0.646368 0.421378,-0.539372 0.307383,-1.467554 l -0.161993,-1.318996 -0.0081,0.001 q -0.190403,0.535799 -0.533077,0.908475 -0.334531,0.371676 -0.804049,0.586371 -0.461376,0.213694 -1.02317,0.282691 -1.123589,0.137995 -2.031207,-0.320804 -0.907618,-0.458799 -1.492704,-1.386977 -0.576944,-0.929179 -0.733937,-2.207465 -0.158994,-1.29457 0.183103,-2.344885 0.349238,-1.059457 1.11072,-1.723247 0.769624,-0.664791 1.868787,-0.799785 0.561794,-0.069 1.053026,0.0277 0.499375,0.0957 0.921045,0.366237 0.429811,0.269538 0.757493,0.716915 l 0.0081,-10e-4 -0.152993,-1.245719 2.369307,-0.290987 1.014957,8.264078 q 0.166993,1.359706 -0.258238,2.271466 -0.424231,0.919902 -1.328841,1.42771 -0.895469,0.514951 -2.141187,0.667944 z m -0.764675,-5.41868 q 0.610646,-0.075 1.021455,-0.431247 0.417951,-0.365392 0.601354,-0.958185 0.183403,-0.592793 0.09141,-1.341852 -0.092,-0.74906 -0.412393,-1.271714 -0.321398,-0.530795 -0.814345,-0.77605 -0.485806,-0.254396 -1.096452,-0.179399 -0.578079,0.071 -0.973603,0.417104 -0.396525,0.337966 -0.572787,0.921618 -0.168119,0.582651 -0.07112,1.37242 0.097,0.789769 0.401109,1.314423 0.312256,0.523654 0.779778,0.763766 0.467522,0.240113 1.0456,0.169116 z"
             style="font-weight:bold;font-family:Inter;-inkscape-font-specification:'Inter Bold'"
             id="path5677" /><path
             d="m 74.443457,74.23589 q -0.830871,0.227024 -1.555416,0.127362 -0.724545,-0.09966 -1.247808,-0.551956 -0.525425,-0.460207 -0.752449,-1.291077 -0.19243,-0.704262 -0.05886,-1.242483 0.131403,-0.546133 0.50461,-0.954245 0.378958,-0.418187 0.923444,-0.728533 0.552398,-0.312508 1.186134,-0.545194 0.745945,-0.288858 1.17753,-0.483317 0.431585,-0.194459 0.592655,-0.383034 0.16107,-0.188575 0.08756,-0.457619 l -0.01514,-0.05539 q -0.08432,-0.30861 -0.313199,-0.492683 -0.231038,-0.191987 -0.576403,-0.242186 -0.337453,-0.05236 -0.764758,0.06439 -0.427305,0.116756 -0.722897,0.342087 -0.287679,0.22317 -0.410566,0.520365 -0.122887,0.297196 -0.06589,0.63028 l -2.191916,0.598911 q -0.180281,-0.877658 0.09779,-1.633944 0.285987,-0.758448 1.015973,-1.323571 0.727824,-0.573036 1.875217,-0.886546 0.85461,-0.23351 1.581272,-0.219465 0.724501,0.0061 1.285079,0.252642 0.56849,0.244347 0.950745,0.709658 0.382254,0.465311 0.566036,1.13792 l 1.548087,5.665747 -2.27896,0.622695 -0.322157,-1.179045 -0.03165,0.0086 q -0.109134,0.472019 -0.353571,0.853449 -0.244436,0.381431 -0.665901,0.675171 -0.423628,0.285827 -1.064585,0.46096 z m 0.205633,-1.799472 q 0.561827,-0.153511 0.909177,-0.469519 0.355263,-0.318171 0.479533,-0.734798 0.12427,-0.416627 10e-4,-0.867671 l -0.229186,-0.838784 q -0.08773,0.0835 -0.238774,0.184295 -0.153202,0.09288 -0.361794,0.200902 -0.210755,0.100105 -0.458913,0.218933 -0.248158,0.118829 -0.514304,0.234069 -0.386269,0.173573 -0.673948,0.396743 -0.289841,0.215256 -0.419215,0.488713 -0.131535,0.265543 -0.04073,0.597892 0.08,0.292783 0.296638,0.463192 0.216638,0.17041 0.539691,0.201194 0.323053,0.03078 0.710793,-0.07516 z"
             style="font-weight:bold;font-family:Inter;-inkscape-font-specification:'Inter Bold'"
             id="path5679" /><path
             d="m 83.382964,61.823967 0.712765,1.75576 -5.26728,2.138297 -0.712766,-1.755761 z m -4.772597,-0.612276 2.242204,-0.910242 3.141105,7.737506 q 0.163535,0.402837 0.387947,0.497655 0.232012,0.09173 0.688053,-0.0934 0.190018,-0.07714 0.448441,-0.182048 0.266025,-0.107995 0.410438,-0.166621 L 86.64132,69.8503 q -0.205218,0.08331 -0.570052,0.231417 -0.364833,0.148107 -0.737267,0.2993 -1.322521,0.536888 -2.163197,0.276143 -0.833075,-0.263831 -1.277396,-1.358331 z"
             style="font-weight:bold;font-family:Inter;-inkscape-font-specification:'Inter Bold'"
             id="path5681" /><path
             d="m 92.491373,67.079264 q -1.140082,0.633562 -2.282635,0.620955 -1.142552,-0.01261 -2.124234,-0.630771 -0.974511,-0.622148 -1.631982,-1.805253 -0.661456,-1.190274 -0.675143,-2.346368 -0.0065,-1.160079 0.586151,-2.136977 0.588683,-0.984069 1.728766,-1.617632 1.154423,-0.641532 2.29379,-0.617769 1.142552,0.01261 2.117063,0.634755 0.981682,0.618164 1.643138,1.808438 0.657471,1.183105 0.663988,2.343184 0.01369,1.156094 -0.578981,2.132992 -0.585497,0.972913 -1.739921,1.614446 z m -0.952336,-1.71371 q 0.516264,-0.286896 0.756029,-0.76737 0.23578,-0.487645 0.171963,-1.109109 -0.06382,-0.621463 -0.45033,-1.316985 -0.394483,-0.709863 -0.88852,-1.092246 -0.494037,-0.382383 -1.028668,-0.432513 -0.538615,-0.0573 -1.054879,0.229596 -0.509093,0.282912 -0.744874,0.770557 -0.239765,0.480475 -0.175948,1.101938 0.06382,0.621463 0.4583,1.331326 0.390498,0.702692 0.884535,1.085075 0.490052,0.375213 1.028668,0.432513 0.53463,0.05013 1.043724,-0.232782 z"
             style="font-weight:bold;font-family:Inter;-inkscape-font-specification:'Inter Bold'"
             id="path5683" /><path
             d="m 98.437654,63.21333 -5.099842,-7.002179 1.883162,-1.371548 0.869292,1.193553 0.01989,-0.01449 q -0.266498,-0.769983 -0.07754,-1.374425 0.18896,-0.604442 0.8852,-1.111528 0.172402,-0.125565 0.316479,-0.220351 0.145879,-0.106247 0.270064,-0.186545 l 1.212178,1.664344 q -0.110923,0.07064 -0.365923,0.236065 -0.24837,0.160597 -0.500342,0.344114 -0.397851,0.289763 -0.580909,0.707238 -0.187887,0.410844 -0.106133,0.899304 0.08175,0.48846 0.468106,1.018928 l 2.762424,3.792847 z"
             style="font-weight:bold;font-family:Inter;-inkscape-font-specification:'Inter Bold'"
             id="path5685" /><path
             d="m 107.3268,56.359137 q -0.8264,0.761604 -1.70533,1.103082 -0.88449,0.335446 -1.71528,0.208658 -0.83079,-0.126787 -1.51929,-0.752831 l 1.74933,-1.612154 q 0.43183,0.371746 0.95025,0.329043 0.51842,-0.0427 1.03718,-0.52079 0.49464,-0.455851 0.59979,-0.898569 0.11117,-0.448277 -0.16122,-0.743854 -0.23349,-0.253351 -0.59518,-0.210058 -0.35567,0.03773 -0.81447,0.326693 l -1.31608,0.811285 q -1.09573,0.675145 -2.01192,0.649368 -0.91618,-0.02578 -1.5944,-0.761702 -0.555916,-0.603217 -0.647115,-1.355824 -0.08517,-0.758166 0.290124,-1.5614 0.381321,-0.808794 1.213761,-1.575957 0.82641,-0.761604 1.68629,-1.063222 0.85433,-0.30765 1.64289,-0.141948 0.7946,0.160142 1.42421,0.807004 l -1.64679,1.517648 q -0.36181,-0.380499 -0.89087,-0.361452 -0.52907,0.01905 -1.00561,0.45822 -0.45844,0.422496 -0.53437,0.860601 -0.0815,0.432073 0.17979,0.715585 0.22792,0.247319 0.57755,0.215144 0.34964,-0.03217 0.78383,-0.287305 l 1.42325,-0.876576 q 1.13748,-0.702468 1.98459,-0.69112 0.84758,-2.44e-4 1.49801,0.70552 0.58371,0.633378 0.66095,1.443469 0.0777,0.798499 -0.31709,1.653185 -0.39434,0.843094 -1.22678,1.610257 z"
             style="font-weight:bold;font-family:Inter;-inkscape-font-specification:'Inter Bold'"
             id="path5687" /></g></g><g
         id="g13343"
         inkscape:label="Middlepart"
         transform="translate(6.905084,3.7572098)"><g
           style="fill:none"
           id="g13323"
           transform="matrix(2.871673,0,0,2.871673,-765.28098,-27.943634)"
           inkscape:label="user"><path
             d="m 22,21 v -2 c 0,-1.8638 -1.2748,-3.4299 -3,-3.874 M 15.5,3.29076 C 16.9659,3.88415 18,5.32131 18,7 c 0,1.67869 -1.0341,3.1159 -2.5,3.7092 M 17,21 c 0,-1.8638 0,-2.7956 -0.3045,-3.5307 -0.406,-0.9801 -1.1847,-1.7588 -2.1648,-2.1648 C 13.7956,15 12.8638,15 11,15 H 8 C 6.13623,15 5.20435,15 4.46927,15.3045 3.48915,15.7105 2.71046,16.4892 2.30448,17.4693 2,18.2044 2,19.1362 2,21"
             stroke="#000000"
             stroke-width="2"
             stroke-linecap="round"
             stroke-linejoin="round"
             id="path13321"
             style="stroke:#ffffff;stroke-opacity:1"
             sodipodi:nodetypes="csccsccssssssc" /></g><g
           id="g13341"
           transform="matrix(1.8892585,0,0,1.8892585,-739.72275,-5.9525966)"
           inkscape:label="Logo"
           style="display:inline">
		<g
   transform="translate(0.91990781,-0.8)"
   id="g13327"
   inkscape:label="Circle">
<path
   style="opacity:1;fill:#e4003a;fill-opacity:1;fill-rule:nonzero;stroke:none;stroke-width:1;stroke-linecap:butt;stroke-linejoin:miter;stroke-miterlimit:4;stroke-dasharray:none;stroke-dashoffset:0"
   d="m 0,7.39996 a 7.6,7.6 0 1 1 7.6,-7.6 7.6,7.6 0 0 1 -7.6,7.6 z"
   stroke-linecap="round"
   id="path13325" />
</g>
		<g
   transform="translate(0.81,-1.08)"
   id="g13331"
   style="display:none"
   inkscape:label="undefined">
<path
   style="opacity:1;fill:#ffffff;fill-rule:nonzero;stroke:none;stroke-width:1;stroke-linecap:butt;stroke-linejoin:miter;stroke-miterlimit:4;stroke-dasharray:none;stroke-dashoffset:0"
   transform="translate(-10.81,-11.92)"
   d="m 8.46,13.2 h -0.8 c -0.3,0 -0.4,-0.1 -0.4,-0.4 a 0.43,0.43 0 0 1 0.4,-0.4 h 0.9 a 0.35,0.35 0 0 0 0.2,-0.1 1.42,1.42 0 0 0 0.2,-0.6 h -0.7 a 0.4,0.4 0 1 1 0,-0.8 h 0.8 c 0.1,0 0.2,0 0.2,-0.1 a 23.29,23.29 0 0 0 1.1,-2.8 0.1,0.1 0 0 1 0.1,-0.1 c 0.1,-0.2 0.2,-0.3 0.4,-0.3 0.2,0 0.3,0.1 0.4,0.3 0.2,0.6 0.4,1.1 0.6,1.7 0.2,0.4 0.3,0.8 0.5,1.2 0,0.1 0.1,0.1 0.2,0.1 h 0.8 a 0.37,0.37 0 0 1 0.4,0.4 0.43,0.43 0 0 1 -0.4,0.4 h -0.7 a 4.88,4.88 0 0 0 0.3,0.7 0.35,0.35 0 0 0 0.2,0.1 h 0.9 c 0.1,0 0.3,0.1 0.3,0.2 a 0.6,0.6 0 0 1 -0.1,0.4 0.37,0.37 0 0 1 -0.3,0.1 h -0.8 a 3.55,3.55 0 0 0 0.4,0.9 l 0.6,1.5 c 0.1,0.3 0.1,0.5 -0.2,0.6 -0.3,0.1 -0.4,0 -0.5,-0.3 -0.3,-0.9 -0.7,-1.7 -1,-2.6 -0.1,-0.2 -0.1,-0.2 -0.3,-0.2 h -2.9 c -0.2,0 -0.2,0 -0.3,0.2 a 18.61,18.61 0 0 1 -1,2.5 c -0.1,0.2 -0.2,0.3 -0.4,0.3 a 0.27,0.27 0 0 1 -0.3,-0.3 0.37,0.37 0 0 1 0.1,-0.3 c 0.3,-0.7 0.5,-1.4 0.8,-2.1 0.2,0 0.2,-0.1 0.3,-0.2 z m 1,-0.8 h 2.7 c -0.1,-0.2 -0.2,-0.5 -0.3,-0.7 a 0.35,0.35 0 0 0 -0.2,-0.1 h -1.8 c -0.1,0 -0.1,0 -0.2,0.1 a 1.45,1.45 0 0 1 -0.2,0.7 z m 2.2,-1.5 c -0.3,-0.7 -0.5,-1.3 -0.8,-2 -0.3,0.7 -0.5,1.3 -0.8,2 z"
   stroke-linecap="round"
   id="path13329" />
</g>
<path
   style="opacity:1;fill:#050001;fill-opacity:1;stroke:#ffffff;stroke-width:0.786824;stroke-linecap:round;stroke-miterlimit:3.7;stroke-dasharray:none;stroke-opacity:1;paint-order:stroke fill markers"
   d="M -2.3986007,2.7360851 0.88883187,-5.0028575"
   id="path13333"
   sodipodi:nodetypes="cc" /><path
   style="opacity:1;fill:#050001;fill-opacity:1;stroke:#ffffff;stroke-width:0.786824;stroke-linecap:round;stroke-miterlimit:3.7;stroke-dasharray:none;stroke-opacity:1"
   d="M 4.2651388,2.7342975 0.98031102,-5.0045294"
   id="path13335"
   sodipodi:nodetypes="cc" /><path
   style="opacity:1;fill:#050001;fill-opacity:1;stroke:#ffffff;stroke-width:0.786824;stroke-linecap:round;stroke-miterlimit:3.7;stroke-dasharray:none;stroke-opacity:1"
   d="m -1.664028,-1.6872983 5.178973,-0.015567"
   id="path13337" /><path
   style="fill:#050001;fill-opacity:1;stroke:#ffffff;stroke-width:0.786824;stroke-linecap:round;stroke-miterlimit:3.7;stroke-dasharray:none;stroke-opacity:1"
   d="m -2.3298842,-0.18348542 6.5097684,-0.0124693"
   id="path13339" /></g></g></g></g></svg>
