<?xml version="1.0" encoding="UTF-8" standalone="no"?>
<svg
   inkscape:version="1.2.2 (b0a84865, 2022-12-01)"
   xml:space="preserve"
   sodipodi:docname="final_awards_pre-text-to-path.svg"
   id="svg134"
   version="1.1"
   viewBox="-120 -120 300 300.00013"
   height="250.00011"
   width="250"
   inkscape:export-filename="0.svg"
   inkscape:export-xdpi="96"
   inkscape:export-ydpi="96"
   xmlns:inkscape="http://www.inkscape.org/namespaces/inkscape"
   xmlns:sodipodi="http://sodipodi.sourceforge.net/DTD/sodipodi-0.dtd"
   xmlns="http://www.w3.org/2000/svg"
   xmlns:svg="http://www.w3.org/2000/svg"><defs
     id="defs138" /><sodipodi:namedview
     id="namedview136"
     pagecolor="#ffffff"
     bordercolor="#000000"
     borderopacity="0.25"
     inkscape:showpageshadow="2"
     inkscape:pageopacity="0.0"
     inkscape:pagecheckerboard="0"
     inkscape:deskcolor="#d1d1d1"
     showgrid="false"
     inkscape:zoom="0.35355339"
     inkscape:cx="1480.6816"
     inkscape:cy="663.26616"
     inkscape:window-width="1425"
     inkscape:window-height="949"
     inkscape:window-x="0"
     inkscape:window-y="25"
     inkscape:window-maximized="1"
     inkscape:current-layer="g19337"
     showguides="true" /><style
     type="text/css"
     id="style8571">
	.st0{fill:#ffffff;}
</style><g
     id="g12580"
     inkscape:label="Delegators"
     transform="translate(-1484.0352,-1170.5448)"><g
       id="g13515"
       inkscape:label="100 delegators"
       transform="matrix(1.4245145,0,0,1.4245145,2545.2656,1185.91)"
       inkscape:export-filename="32.svg"
       inkscape:export-xdpi="96"
       inkscape:export-ydpi="96"><g
         id="g13575"
         inkscape:label="Borders"
         transform="translate(-723.91713,-241.72642)"><path
           fill="none"
           stroke="black"
           stroke-width="2"
           d="m 100,252 q 9.47,10.78 -1.919998,19.51 7.179998,12.42 -5.69,18.76 4.62,13.58 -9.24,17.29 1.88,14.22 -12.44,15.15 -0.93,14.32 -15.15,12.44 -3.71,13.86 -17.29,9.24 -6.34,12.87 -18.76,5.69 Q 10.780002,361.47 1.5258789e-6,352 -10.779998,361.47 -19.509998,350.08 q -12.42,7.18 -18.76,-5.69 -13.58,4.62 -17.29,-9.24 -14.22,1.88 -15.15,-12.44 -14.32,-0.93 -12.44,-15.15 -13.86,-3.71 -9.24,-17.29 -12.870002,-6.34 -5.69,-18.76 -11.390002,-8.73 -1.92,-19.51 -9.470002,-10.78 1.92,-19.51 -7.180002,-12.42 5.69,-18.76 -4.62,-13.58 9.24,-17.29 -1.88,-14.22 12.44,-15.15 0.93,-14.32 15.15,-12.44 3.71,-13.86 17.29,-9.24 6.34,-12.87 18.76,-5.69 Q -10.779998,142.53 1.5258789e-6,152 10.780002,142.53 19.510002,153.92 q 12.42,-7.18 18.76,5.69 13.58,-4.62 17.29,9.24 14.22,-1.88 15.15,12.44 14.32,0.93 12.44,15.15 13.86,3.71 9.24,17.29 12.869998,6.34 5.69,18.76 Q 109.47,241.22 100,252 Z"
           id="path13543"
           style="fill:#04344d;fill-opacity:1;stroke:#04344d;stroke-opacity:1" /><path
           style="fill:none;fill-opacity:1;stroke:#ffffff;stroke-width:3.6;stroke-linecap:round;stroke-dasharray:none;stroke-opacity:1;paint-order:stroke fill markers"
           id="path13545"
           sodipodi:type="arc"
           sodipodi:cx="0.0089565562"
           sodipodi:cy="251.99123"
           sodipodi:rx="92.730682"
           sodipodi:ry="92.730682"
           sodipodi:start="0.019634549"
           sodipodi:end="4.6929609"
           sodipodi:open="true"
           sodipodi:arc-type="arc"
           d="M 92.721765,253.81183 A 92.730682,92.730682 0 0 1 -0.60432934,344.71988 92.730682,92.730682 0 0 1 -92.719822,252.58537 92.730682,92.730682 0 0 1 -1.7925093,159.27804" /><path
           style="fill:none;fill-opacity:1;stroke:#ffffff;stroke-width:2.22;stroke-linecap:round;stroke-dasharray:none;stroke-opacity:1;paint-order:stroke fill markers"
           id="path13547"
           sodipodi:type="arc"
           sodipodi:cx="0.003594999"
           sodipodi:cy="251.99646"
           sodipodi:rx="86.865753"
           sodipodi:ry="86.865753"
           sodipodi:start="0.012850983"
           sodipodi:end="4.6996412"
           sodipodi:arc-type="arc"
           d="M 86.862175,253.11274 A 86.865753,86.865753 0 0 1 -0.37149553,338.8614 86.865753,86.865753 0 0 1 -86.861387,252.36259 86.865753,86.865753 0 0 1 -1.1037206,165.13776"
           sodipodi:open="true" /><g
           id="g13573"
           inkscape:label="Circles"
           transform="translate(-514.7999,251.99126)"><g
             id="g13551"
             transform="rotate(7.5,5558.9497,3252.8791)"
             inkscape:transform-center-x="-11.777454"
             inkscape:transform-center-y="-88.637902"><path
               sodipodi:type="star"
               style="fill:#fefeff;fill-opacity:1;stroke:#ffffff;stroke-width:2.22;stroke-linecap:round;stroke-opacity:1;paint-order:stroke fill markers"
               id="path13549"
               inkscape:flatsided="false"
               sodipodi:sides="5"
               sodipodi:cx="396.99625"
               sodipodi:cy="-372.60107"
               sodipodi:r1="3.6169088"
               sodipodi:r2="1.6637779"
               sodipodi:arg1="0.95906936"
               sodipodi:arg2="1.5873879"
               inkscape:rounded="0"
               inkscape:randomized="0"
               d="m 399.07337,-369.64006 -2.10473,-1.29747 -2.14661,1.22692 0.58356,-2.40265 -1.83021,-1.66242 2.46539,-0.18746 1.01548,-2.25435 0.94014,2.2868 2.45781,0.26915 -1.88435,1.60078 z"
               transform="matrix(1.0133273,0,0,1.0133273,-268.95197,974.58915)"
               inkscape:transform-center-x="1.0196929"
               inkscape:transform-center-y="-89.532179"
               inkscape:label="path5969" /></g><g
             id="g13555"
             transform="rotate(22.5,2049.0208,1301.9125)"
             inkscape:transform-center-x="-34.354027"
             inkscape:transform-center-y="-82.323429"><path
               sodipodi:type="star"
               style="fill:#fefeff;fill-opacity:1;stroke:#ffffff;stroke-width:2.22;stroke-linecap:round;stroke-opacity:1;paint-order:stroke fill markers"
               id="path13553"
               inkscape:flatsided="false"
               sodipodi:sides="5"
               sodipodi:cx="396.99625"
               sodipodi:cy="-372.60107"
               sodipodi:r1="3.6169088"
               sodipodi:r2="1.6637779"
               sodipodi:arg1="0.95906936"
               sodipodi:arg2="1.5873879"
               inkscape:rounded="0"
               inkscape:randomized="0"
               d="m 399.07337,-369.64006 -2.10473,-1.29747 -2.14661,1.22692 0.58356,-2.40265 -1.83021,-1.66242 2.46539,-0.18746 1.01548,-2.25435 0.94014,2.2868 2.45781,0.26915 -1.88435,1.60078 z"
               transform="matrix(1.0133273,0,0,1.0133273,-268.95197,974.58915)"
               inkscape:transform-center-x="1.0196929"
               inkscape:transform-center-y="-89.532179"
               inkscape:label="path5969" /></g><g
             id="g13559"
             transform="rotate(37.5,1334.8573,904.95028)"
             inkscape:transform-center-x="-54.232035"
             inkscape:transform-center-y="-70.490863"><path
               sodipodi:type="star"
               style="fill:#fefeff;fill-opacity:1;stroke:#ffffff;stroke-width:2.22;stroke-linecap:round;stroke-opacity:1;paint-order:stroke fill markers"
               id="path13557"
               inkscape:flatsided="false"
               sodipodi:sides="5"
               sodipodi:cx="396.99625"
               sodipodi:cy="-372.60107"
               sodipodi:r1="3.6169088"
               sodipodi:r2="1.6637779"
               sodipodi:arg1="0.95906936"
               sodipodi:arg2="1.5873879"
               inkscape:rounded="0"
               inkscape:randomized="0"
               d="m 399.07337,-369.64006 -2.10473,-1.29747 -2.14661,1.22692 0.58356,-2.40265 -1.83021,-1.66242 2.46539,-0.18746 1.01548,-2.25435 0.94014,2.2868 2.45781,0.26915 -1.88435,1.60078 z"
               transform="matrix(1.0133273,0,0,1.0133273,-268.95197,974.58915)"
               inkscape:transform-center-x="1.0196929"
               inkscape:transform-center-y="-89.532179"
               inkscape:label="path5969" /></g><g
             id="g13563"
             transform="rotate(52.5,1019.845,729.85313)"
             inkscape:transform-center-x="-70.414229"
             inkscape:transform-center-y="-54.322566"><path
               sodipodi:type="star"
               style="fill:#fefeff;fill-opacity:1;stroke:#ffffff;stroke-width:2.22;stroke-linecap:round;stroke-opacity:1;paint-order:stroke fill markers"
               id="path13561"
               inkscape:flatsided="false"
               sodipodi:sides="5"
               sodipodi:cx="396.99625"
               sodipodi:cy="-372.60107"
               sodipodi:r1="3.6169088"
               sodipodi:r2="1.6637779"
               sodipodi:arg1="0.95906936"
               sodipodi:arg2="1.5873879"
               inkscape:rounded="0"
               inkscape:randomized="0"
               d="m 399.07337,-369.64006 -2.10473,-1.29747 -2.14661,1.22692 0.58356,-2.40265 -1.83021,-1.66242 2.46539,-0.18746 1.01548,-2.25435 0.94014,2.2868 2.45781,0.26915 -1.88435,1.60078 z"
               transform="matrix(1.0133273,0,0,1.0133273,-268.95197,974.58915)"
               inkscape:transform-center-x="1.0196929"
               inkscape:transform-center-y="-89.532179"
               inkscape:label="path5969" /></g><g
             id="g13567"
             transform="rotate(67.5,837.58649,628.54617)"
             inkscape:transform-center-x="-82.3354"
             inkscape:transform-center-y="-34.452242"><path
               sodipodi:type="star"
               style="fill:#fefeff;fill-opacity:1;stroke:#ffffff;stroke-width:2.22;stroke-linecap:round;stroke-opacity:1;paint-order:stroke fill markers"
               id="path13565"
               inkscape:flatsided="false"
               sodipodi:sides="5"
               sodipodi:cx="396.99625"
               sodipodi:cy="-372.60107"
               sodipodi:r1="3.6169088"
               sodipodi:r2="1.6637779"
               sodipodi:arg1="0.95906936"
               sodipodi:arg2="1.5873879"
               inkscape:rounded="0"
               inkscape:randomized="0"
               d="m 399.07337,-369.64006 -2.10473,-1.29747 -2.14661,1.22692 0.58356,-2.40265 -1.83021,-1.66242 2.46539,-0.18746 1.01548,-2.25435 0.94014,2.2868 2.45781,0.26915 -1.88435,1.60078 z"
               transform="matrix(1.0133273,0,0,1.0133273,-268.95197,974.58915)"
               inkscape:transform-center-x="1.0196929"
               inkscape:transform-center-y="-89.532179"
               inkscape:label="path5969" /></g><g
             id="g13571"
             transform="rotate(82.5,715.32761,560.58954)"
             inkscape:transform-center-x="-88.666206"
             inkscape:transform-center-y="-11.806367"><path
               sodipodi:type="star"
               style="fill:#fefeff;fill-opacity:1;stroke:#ffffff;stroke-width:2.22;stroke-linecap:round;stroke-opacity:1;paint-order:stroke fill markers"
               id="path13569"
               inkscape:flatsided="false"
               sodipodi:sides="5"
               sodipodi:cx="396.99625"
               sodipodi:cy="-372.60107"
               sodipodi:r1="3.6169088"
               sodipodi:r2="1.6637779"
               sodipodi:arg1="0.95906936"
               sodipodi:arg2="1.5873879"
               inkscape:rounded="0"
               inkscape:randomized="0"
               d="m 399.07337,-369.64006 -2.10473,-1.29747 -2.14661,1.22692 0.58356,-2.40265 -1.83021,-1.66242 2.46539,-0.18746 1.01548,-2.25435 0.94014,2.2868 2.45781,0.26915 -1.88435,1.60078 z"
               transform="matrix(1.0133273,0,0,1.0133273,-268.95197,974.58915)"
               inkscape:transform-center-x="1.0196929"
               inkscape:transform-center-y="-89.532179"
               inkscape:label="path5969" /></g></g></g><g
         id="g13489"
         inkscape:label="Texts"
         transform="translate(-779.21285,8.5534499)"><circle
           style="fill:none;fill-opacity:1;stroke:none;stroke-width:3.01836;stroke-linecap:round;stroke-opacity:1;paint-order:stroke fill markers"
           id="circle13473"
           cx="-1.4210855e-14"
           cy="-55.295727"
           transform="matrix(0,-1,-1,0,0,0)"
           r="76.490822"
           inkscape:label="Bottom-text-path" /><circle
           style="fill:none;fill-opacity:1;stroke:none;stroke-width:2.48601;stroke-linecap:round;stroke-opacity:1;paint-order:stroke fill markers"
           id="circle13475"
           cx="1.4210855e-14"
           cy="-55.295727"
           transform="rotate(90)"
           inkscape:label="Top-text-path"
           r="63" /><g
           aria-label="Cexplorer.io"
           id="text13483"
           style="font-size:16.8px;font-family:ROBOTO;-inkscape-font-specification:ROBOTO;text-align:center;letter-spacing:1.2px;text-anchor:middle;fill:#fefeff;stroke:#ffffff;stroke-width:0.744;stroke-linecap:round;paint-order:stroke fill markers"><path
             d="m 14.858755,-48.055292 q -1.276057,1.082623 -2.776689,1.355314 -1.499685,0.261129 -2.987961,-0.32652 -1.4873279,-0.599212 -2.7397738,-2.075435 -1.2630598,-1.488732 -1.6119449,-3.053813 -0.3426299,-1.570388 0.1646503,-3.001236 0.5135355,-1.436154 1.7895923,-2.518777 0.8194286,-0.695214 1.7269808,-1.045643 0.9075521,-0.350429 1.8275993,-0.356455 0.926303,-0.01133 1.806343,0.328555 0.880039,0.33989 1.656004,1.026262 l -1.945361,1.650469 q -0.431578,-0.343851 -0.889889,-0.503656 -0.463618,-0.16606 -0.92459,-0.151485 -0.466279,0.0083 -0.9183498,0.198225 -0.4511226,0.178342 -0.8702197,0.533909 -0.7944079,0.673986 -1.0336487,1.53318 -0.2329856,0.853886 0.061147,1.809201 0.2888255,0.94906 1.1007925,1.906103 0.80666,0.950787 1.6897276,1.395684 0.8893231,0.43959 1.7760141,0.343529 0.886692,-0.09606 1.6811,-0.770048 0.419097,-0.355567 0.673861,-0.765351 0.254765,-0.409783 0.338942,-0.868477 0.08418,-0.458693 0.0012,-0.936917 -0.083,-0.478223 -0.334126,-0.964414 l 1.939106,-1.645162 q 0.545472,0.871168 0.737441,1.794824 0.19197,0.923657 0.02987,1.835737 -0.162098,0.91208 -0.655706,1.750413 -0.49266,0.826771 -1.312089,1.521984 z"
             style="font-weight:bold;font-family:Inter;-inkscape-font-specification:Inter"
             id="path5690" /><path
             d="m 24.407684,-54.696185 q -1.103047,0.632425 -2.175545,0.575976 -1.065382,-0.06053 -1.984075,-0.706316 -0.922773,-0.652904 -1.571518,-1.784416 -0.656906,-1.145745 -0.732824,-2.284189 -0.07592,-1.138443 0.402965,-2.084367 0.474803,-0.95304 1.471103,-1.524262 0.782807,-0.448818 1.572259,-0.523215 0.796568,-0.07848 1.546835,0.191089 0.750267,0.269565 1.401285,0.860796 0.654055,0.580033 1.155915,1.455354 l 0.191767,0.334472 -6.177059,3.541579 -0.595704,-1.038998 5.500999,-3.153964 -0.311411,0.660789 q -0.440657,-0.768574 -1.04053,-1.171645 -0.596838,-0.414268 -1.270434,-0.434664 -0.677677,-0.02751 -1.353738,0.360104 -0.668944,0.383535 -0.987567,0.982269 -0.315587,0.587538 -0.266715,1.315978 0.05191,0.717244 0.492566,1.485818 l 0.293772,0.512383 q 0.444737,0.775691 1.050778,1.222505 0.613158,0.442733 1.321389,0.49055 0.70415,0.0407 1.437142,-0.379556 0.533732,-0.306012 0.845525,-0.702259 0.307712,-0.403363 0.399653,-0.853219 0.09906,-0.453936 -0.01149,-0.910622 l 1.209793,-0.693627 q 0.269767,0.800362 0.135605,1.605377 -0.138243,0.797899 -0.638857,1.49152 -0.493497,0.689542 -1.311886,1.15876 z"
             style="font-family:Inter;-inkscape-font-specification:Inter"
             id="path5692" /><path
             d="m 29.024949,-57.419381 1.614151,-5.923659 0.376633,1.006479 -4.912407,-3.239941 1.532131,-0.586708 1.70565,1.17392 q 0.511287,0.348818 1.007253,0.703503 0.493033,0.347025 0.999593,0.706438 l -0.643494,0.246417 q 0.144595,-0.608763 0.279735,-1.196338 0.139868,-0.59817 0.287397,-1.199272 l 0.500618,-2.018779 1.509149,-0.577907 -1.49956,5.695313 -0.387227,-1.011206 5.122496,3.352738 -1.524469,0.583774 -1.99104,-1.345722 q -0.497759,-0.33643 -0.977264,-0.671067 -0.479505,-0.334637 -0.972538,-0.681662 l 0.651156,-0.249351 q -0.135141,0.587575 -0.276149,1.159829 -0.141008,0.572254 -0.286743,1.155102 l -0.598262,2.337258 z"
             style="font-family:Inter;-inkscape-font-specification:Inter"
             id="path5694" /><path
             d="m 39.607891,-57.605288 -2.432547,-11.844188 1.333878,-0.273951 0.257447,1.253524 0.01607,-0.0033 q 0.175836,-0.530199 0.529315,-0.929396 0.353479,-0.399197 0.836389,-0.657489 0.48126,-0.266327 1.027668,-0.378548 1.108886,-0.227742 2.050404,0.15672 0.941518,0.384462 1.604173,1.286785 0.661006,0.894288 0.930005,2.204059 0.267349,1.301736 0.01397,2.392193 -0.255031,1.082423 -0.967157,1.814882 -0.713776,0.724425 -1.822662,0.952166 -0.546407,0.112221 -1.069573,0.05218 -0.521516,-0.052 -0.997333,-0.289255 -0.475818,-0.23725 -0.881832,-0.664699 l -0.01607,0.0033 0.953875,4.644465 z m 2.915536,-5.213053 q 0.739258,-0.151828 1.227473,-0.628942 0.488214,-0.477115 0.664404,-1.250243 0.176189,-0.773128 -0.0367,-1.809695 -0.214539,-1.044603 -0.681182,-1.685706 -0.466643,-0.641104 -1.103385,-0.887176 -0.636742,-0.246072 -1.375999,-0.09424 -0.78747,0.16173 -1.285155,0.674286 -0.497684,0.512557 -0.664188,1.29207 -0.166504,0.779513 0.03153,1.743762 0.196386,0.956213 0.656644,1.607002 0.460257,0.65079 1.119671,0.925703 0.659415,0.274913 1.446884,0.113183 z"
             style="font-family:Inter;-inkscape-font-specification:Inter"
             id="path5696" /><path
             d="m 49.868364,-75.032574 0.983695,12.183007 -1.390008,0.112234 -0.983695,-12.183007 z"
             style="font-family:Inter;-inkscape-font-specification:Inter"
             id="path5698" /><path
             d="m 57.684922,-62.75852 q -1.196813,-0.04493 -2.085176,-0.652908 -0.879858,-0.615865 -1.349932,-1.651417 -0.461876,-1.035245 -0.412327,-2.355018 0.04986,-1.327971 0.588364,-2.333866 0.546705,-1.005588 1.470265,-1.553747 0.931756,-0.547851 2.128569,-0.502918 1.20501,0.04524 2.084868,0.661105 0.879858,0.615865 1.341427,1.659307 0.469766,1.04375 0.419909,2.37172 -0.04955,1.319774 -0.595946,2.317164 -0.5382,0.997698 -1.461759,1.545857 -0.923252,0.539961 -2.128262,0.494721 z m 0.04739,-1.262392 q 0.819735,0.03078 1.416827,-0.349044 0.597092,-0.379819 0.935982,-1.097689 0.339197,-0.726066 0.37582,-1.701551 0.03724,-0.991879 -0.24687,-1.733138 -0.283802,-0.749456 -0.850425,-1.181174 -0.566624,-0.431719 -1.386359,-0.462494 -0.811538,-0.03047 -1.417135,0.357241 -0.597092,0.379819 -0.936289,1.105886 -0.339198,0.726067 -0.376436,1.717946 -0.03693,0.983682 0.247178,1.724941 0.284109,0.741259 0.851041,1.164779 0.566931,0.423521 1.386666,0.454297 z"
             style="font-family:Inter;-inkscape-font-specification:Inter"
             id="path5700" /><path
             d="m 64.50772,-62.351707 1.472099,-8.5365 1.309576,0.225834 -0.231409,1.341912 0.03234,0.0056 q 0.348741,-0.622445 0.927723,-0.938812 0.578981,-0.316366 1.379278,-0.178357 0.185928,0.03206 0.336732,0.07472 0.158888,0.04405 0.236938,0.07416 l -0.236986,1.374247 q -0.07666,-0.03819 -0.30551,-0.110954 -0.219376,-0.07945 -0.518477,-0.131031 -0.468861,-0.08085 -0.91069,0.06771 -0.441829,0.148561 -0.763804,0.567517 -0.321974,0.418956 -0.447437,1.146498 l -0.906121,5.254475 z"
             style="font-family:Inter;-inkscape-font-specification:Inter"
             id="path5702" /><path
             d="m 74.208055,-59.905665 q -1.213253,-0.380379 -1.900034,-1.206073 -0.678954,-0.82324 -0.828643,-1.936178 -0.147235,-1.120766 0.242959,-2.36533 0.395103,-1.260218 1.179334,-2.088951 0.78423,-0.828733 1.803832,-1.119444 1.022056,-0.298538 2.117898,0.04503 0.861019,0.269946 1.451672,0.799 0.59848,0.531509 0.910009,1.265345 0.311529,0.733836 0.319521,1.613219 0.01827,0.87401 -0.283575,1.836786 l -0.11534,0.367889 -6.794221,-2.130118 0.358292,-1.142807 6.050614,1.896984 -0.696561,0.220053 q 0.265038,-0.845364 0.153638,-1.55944 -0.101118,-0.719449 -0.543515,-1.227813 -0.439943,-0.516191 -1.18355,-0.749326 -0.73578,-0.230681 -1.391679,-0.05806 -0.645618,0.167251 -1.147213,0.697738 -0.491313,0.525114 -0.756351,1.370478 l -0.176691,0.563576 q -0.267492,0.853191 -0.184017,1.601497 0.0913,0.750759 0.537083,1.303168 0.448236,0.544582 1.254463,0.797349 0.587058,0.184054 1.089665,0.143904 0.505062,-0.04798 0.897748,-0.28593 0.400513,-0.235499 0.660725,-0.626743 l 1.330665,0.417189 q -0.404408,0.741491 -1.086499,1.189598 -0.679637,0.440281 -1.528769,0.543726 -0.841304,0.105899 -1.74146,-0.176316 z"
             style="font-family:Inter;-inkscape-font-specification:Inter"
             id="path5704" /><path
             d="m 80.477228,-57.777399 3.609932,-7.874471 1.208016,0.553797 -0.567471,1.237843 0.02983,0.01367 q 0.496566,-0.512329 1.137275,-0.669808 0.640708,-0.157479 1.37894,0.180953 0.171508,0.07862 0.306352,0.15849 0.142301,0.08328 0.210033,0.132383 l -0.581145,1.26767 q -0.06431,-0.05656 -0.266889,-0.185519 -0.1917,-0.133003 -0.467605,-0.259487 -0.432499,-0.198273 -0.897643,-0.167862 -0.465143,0.03041 -0.883704,0.352899 -0.418561,0.322487 -0.726226,0.993607 l -2.222023,4.846975 z"
             style="font-family:Inter;-inkscape-font-specification:Inter"
             id="path5706" /><path
             d="m 86.108686,-54.803396 q -0.371631,-0.209394 -0.491095,-0.615669 -0.10829,-0.409396 0.101104,-0.781026 0.213422,-0.378778 0.61567,-0.491095 0.409395,-0.108291 0.781026,0.101104 0.378777,0.213422 0.491095,0.61567 0.112317,0.402248 -0.101105,0.781026 -0.209394,0.371631 -0.615669,0.491095 -0.402249,0.112317 -0.781026,-0.101105 z"
             style="font-family:Inter;-inkscape-font-specification:Inter"
             id="path5708" /><path
             d="m 89.66592,-52.811898 4.811696,-7.203227 1.159611,0.774611 -4.811697,7.203226 z m 6.330147,-8.221096 q -0.327419,-0.218714 -0.404419,-0.605558 -0.077,-0.386844 0.141713,-0.714263 0.218714,-0.32742 0.605558,-0.40442 0.386844,-0.077 0.714263,0.141714 0.32742,0.218713 0.40442,0.605557 0.077,0.386844 -0.141714,0.714264 -0.218713,0.327419 -0.605557,0.404419 -0.386845,0.077 -0.714264,-0.141713 z"
             style="font-family:Inter;-inkscape-font-specification:Inter"
             id="path5710" /><path
             d="m 96.123878,-47.722538 q -0.909702,-0.778988 -1.227838,-1.807391 -0.306569,-1.029298 -0.03127,-2.132725 0.281525,-1.098091 1.140546,-2.101256 0.864356,-1.009396 1.911379,-1.462783 1.053253,-0.448052 2.117465,-0.303533 1.07044,0.149855 1.98015,0.928843 0.91593,0.784323 1.2225,1.813621 0.30657,1.029298 0.0197,2.13362 -0.28063,1.109658 -1.14499,2.119054 -0.85902,1.003165 -1.90694,1.444986 -1.041679,0.447156 -2.105894,0.302637 -1.058879,-0.15075 -1.974813,-0.935073 z m 0.821672,-0.959549 q 0.623084,0.533553 1.326915,0.607065 0.70383,0.07351 1.415465,-0.278283 0.71697,-0.358025 1.3519,-1.099495 0.6456,-0.753931 0.88369,-1.511226 0.24342,-0.763526 0.0678,-1.45389 -0.17561,-0.690365 -0.7987,-1.223918 -0.61685,-0.528218 -1.332246,-0.600835 -0.70383,-0.07351 -1.4208,0.284514 -0.71697,0.358025 -1.362569,1.111957 -0.640264,0.7477 -0.878355,1.504995 -0.23809,0.757295 -0.05714,1.441429 0.180949,0.684134 0.804032,1.217687 z"
             style="font-family:Inter;-inkscape-font-specification:Inter"
             id="path5712" /></g><g
           aria-label="100 delegators"
           id="text13487"
           style="font-size:16.8px;font-family:ROBOTO;-inkscape-font-specification:ROBOTO;text-align:center;letter-spacing:1.34783px;text-anchor:middle;fill:#fefeff;stroke:#ffffff;stroke-width:0.744;stroke-linecap:round;paint-order:stroke fill markers"><path
             d="M 9.3079961,44.956336 0.26269742,53.176791 -1.3703595,51.379873 5.9569395,44.720752 5.9459055,44.708612 2.6672373,43.80867 4.3063183,42.319057 7.7687298,43.26262 Z"
             style="font-weight:bold;font-family:Inter;-inkscape-font-specification:'Inter Bold'"
             id="path5715" /><path
             d="M 5.7977171,58.576456 Q 4.6265119,57.585806 4.2674023,56.282863 3.9198534,54.978954 4.3738306,53.514972 4.834071,52.056287 6.0896,50.571926 q 1.2608266,-1.490625 2.6229575,-2.186457 1.3683945,-0.690534 2.7118905,-0.564093 1.343495,0.12644 2.520964,1.122388 1.171205,0.990649 1.518754,2.294558 0.359109,1.302943 -0.106429,2.767891 -0.453977,1.463982 -1.714803,2.954607 -1.255529,1.484362 -2.623923,2.174896 -1.3621314,0.695831 -2.7118904,0.564093 -1.3381984,-0.132704 -2.5094035,-1.123353 z m 1.3032073,-1.54073 q 0.6075235,0.513867 1.3796908,0.490121 0.7721672,-0.02375 1.6299838,-0.555224 0.857817,-0.531477 1.716027,-1.546104 0.863507,-1.02089 1.245327,-1.954985 0.381819,-0.934094 0.277148,-1.699503 -0.09937,-0.771671 -0.706897,-1.285538 -0.607523,-0.513866 -1.391251,-0.489155 -0.772167,0.02375 -1.6299844,0.555224 -0.8515539,0.536775 -1.7150612,1.557665 -0.8582097,1.014627 -1.2462921,1.943424 -0.3818192,0.934094 -0.2771484,1.699503 0.110934,0.770706 0.7184575,1.284572 z"
             style="font-weight:bold;font-family:Inter;-inkscape-font-specification:'Inter Bold'"
             id="path5717" /><path
             d="m 15.787081,65.740626 q -1.314094,-0.791368 -1.876232,-2.020442 -0.550878,-1.231869 -0.335977,-2.749485 0.221928,-1.513384 1.224891,-3.178841 1.007196,-1.672484 2.241047,-2.576472 1.240878,-0.899756 2.587355,-0.989009 1.346478,-0.08925 2.6676,0.706348 1.314095,0.791368 1.864973,2.023237 0.562137,1.229074 0.335977,2.749485 -0.2149,1.517616 -1.222096,3.1901 -1.002963,1.665457 -2.243841,2.565213 -1.233851,0.903988 -2.587356,0.989009 -1.342246,0.08222 -2.656341,-0.709143 z m 1.041051,-1.728702 q 0.681643,0.410496 1.44016,0.264013 0.758518,-0.146482 1.520687,-0.807857 0.762169,-0.661375 1.44774,-1.799788 0.689802,-1.145441 0.9179,-2.128441 0.228099,-0.983001 0.0028,-1.721951 -0.221064,-0.745978 -0.902707,-1.156473 -0.681642,-0.410496 -1.451419,-0.261218 -0.758518,0.146482 -1.520687,0.807857 -0.755142,0.665607 -1.444944,1.811047 -0.68557,1.138414 -0.920696,2.117182 -0.228099,0.983001 -0.0028,1.721951 0.232323,0.743182 0.913966,1.153678 z"
             style="font-weight:bold;font-family:Inter;-inkscape-font-specification:'Inter Bold'"
             id="path5719" /><path
             d="M 30.284531,72.503523 Q 29.21056,72.145641 28.587913,71.34154 27.965267,70.537439 27.843246,69.4246 q -0.114239,-1.110246 0.313663,-2.394342 0.422717,-1.268532 1.185296,-2.077946 0.772954,-0.814604 1.745701,-1.087068 0.983122,-0.277653 2.033746,0.07245 0.536986,0.178941 0.939091,0.477221 0.404699,0.290497 0.666736,0.69774 0.262036,0.407243 0.378817,0.939014 l 0.0078,0.0026 1.504143,-4.513794 2.288026,0.762445 -3.864092,11.59578 -2.256897,-0.752072 0.420123,-1.260749 -0.0078,-0.0026 q -0.399449,0.394332 -0.874143,0.599306 -0.464318,0.199784 -0.983129,0.199831 -0.518811,4.7e-5 -1.055797,-0.178894 z m 1.213867,-1.670682 q 0.58368,0.194501 1.110259,0.0414 0.536956,-0.158286 0.959745,-0.62266 0.422789,-0.464374 0.666564,-1.19592 0.246368,-0.739328 0.184055,-1.356708 -0.05972,-0.625162 -0.396988,-1.066121 -0.326891,-0.446148 -0.910571,-0.640649 -0.552551,-0.184128 -1.060972,-0.03363 -0.508421,0.150501 -0.920835,0.609687 -0.40463,0.461778 -0.661372,1.232236 -0.256742,0.770458 -0.212587,1.390433 0.05453,0.614787 0.371045,1.040183 0.319106,0.417614 0.871657,0.601742 z"
             style="font-weight:bold;font-family:Inter;-inkscape-font-specification:'Inter Bold'"
             id="path5721" /><path
             d="m 41.885495,75.519192 q -1.292271,-0.229552 -2.152968,-0.965649 -0.851186,-0.742739 -1.20491,-1.847015 -0.345648,-1.102841 -0.116096,-2.395111 0.23242,-1.308424 0.943384,-2.215243 0.720475,-0.913462 1.767311,-1.319047 1.046836,-0.405586 2.266416,-0.188947 0.944973,0.16786 1.65487,0.627223 0.711333,0.451287 1.162457,1.147956 0.452558,0.688593 0.607926,1.549345 0.163445,0.862188 -0.01015,1.839467 l -0.113341,0.638058 -7.535551,-1.338571 0.269723,-1.518418 6.388661,1.134845 -1.138761,0.172636 q 0.114775,-0.646135 -0.03624,-1.156189 -0.151012,-0.510054 -0.542677,-0.837905 -0.382155,-0.334493 -0.97983,-0.44066 -0.589598,-0.104733 -1.063573,0.07768 -0.47254,0.174338 -0.789976,0.60118 -0.317436,0.426842 -0.432212,1.072977 l -0.183641,1.033816 q -0.117645,0.662289 0.02763,1.20465 0.154784,0.535719 0.558299,0.890669 0.404949,0.346874 1.043008,0.460215 0.468448,0.08321 0.846777,0.01711 0.387841,-0.07274 0.673182,-0.272003 0.294853,-0.205901 0.458673,-0.518395 l 2.172629,0.385934 q -0.3041,0.820793 -0.984244,1.366499 -0.680144,0.545707 -1.602269,0.765156 -0.92069,0.211374 -1.954506,0.02773 z"
             style="font-weight:bold;font-family:Inter;-inkscape-font-specification:'Inter Bold'"
             id="path5723" /><path
             d="m 51.95177,64.194264 -0.850919,12.193 -2.41405,-0.16847 0.850918,-12.193 z"
             style="font-weight:bold;font-family:Inter;-inkscape-font-specification:'Inter Bold'"
             id="path5725" /><path
             d="m 58.114322,76.636897 q -1.311694,0.04601 -2.307394,-0.493638 -0.987791,-0.548132 -1.564808,-1.553914 -0.56882,-1.006069 -0.614829,-2.317763 -0.04658,-1.328089 0.458833,-2.36363 0.513327,-1.044027 1.452086,-1.659735 0.93876,-0.615707 2.17667,-0.659128 0.959176,-0.03364 1.749496,0.266961 0.790032,0.292408 1.376979,0.879225 0.586659,0.578619 0.918744,1.387787 0.340283,0.808882 0.375077,1.80085 l 0.02272,0.647648 -7.648812,0.268289 -0.05406,-1.54124 6.484684,-0.227456 -1.077405,0.407159 q -0.023,-0.655847 -0.277427,-1.122996 -0.254423,-0.46715 -0.706034,-0.705763 -0.4437,-0.247098 -1.050358,-0.225819 -0.59846,0.02099 -1.023757,0.298571 -0.425584,0.269381 -0.64665,0.753209 -0.221066,0.483827 -0.198062,1.139674 l 0.03681,1.049355 q 0.02358,0.672243 0.279152,1.172185 0.263484,0.491456 0.732353,0.754088 0.468582,0.254433 1.116231,0.231717 0.475489,-0.01668 0.831603,-0.1605 0.364026,-0.152308 0.601342,-0.406877 0.245226,-0.263055 0.340011,-0.602914 l 2.205285,-0.07735 q -0.125571,0.866263 -0.676432,1.542238 -0.550862,0.675976 -1.406631,1.083568 -0.856057,0.399395 -1.905411,0.436202 z"
             style="font-weight:bold;font-family:Inter;-inkscape-font-specification:'Inter Bold'"
             id="path5727" /><path
             d="m 69.588946,78.761372 q -1.210723,0.219552 -2.121167,0.02617 -0.900909,-0.18678 -1.497902,-0.720464 -0.588921,-0.535147 -0.860752,-1.344555 l 2.292302,-0.415685 q 0.147333,0.306759 0.414318,0.491778 0.275056,0.183555 0.642622,0.233617 0.369029,0.05813 0.81296,-0.02237 0.871721,-0.158078 1.25351,-0.719189 0.389861,-0.562575 0.223001,-1.482724 l -0.237116,-1.307581 -0.0081,0.0015 q -0.159468,0.545806 -0.480281,0.937458 -0.312741,0.390189 -0.769221,0.631368 -0.448407,0.239716 -1.00534,0.34071 -1.113865,0.201987 -2.046222,-0.204186 -0.932357,-0.406174 -1.569537,-1.299394 -0.629109,-0.894684 -0.858906,-2.161907 -0.232725,-1.283366 0.04878,-2.351517 0.288114,-1.077687 1.010412,-1.783915 0.730369,-0.707691 1.820019,-0.905288 0.556933,-0.100994 1.052889,-0.03253 0.504028,0.067 0.940471,0.312996 0.444515,0.244531 0.797231,0.672448 l 0.0081,-0.0015 -0.223943,-1.234938 2.348802,-0.42593 1.485635,8.192558 q 0.244435,1.347939 -0.127989,2.282512 -0.37096,0.942646 -1.245067,1.501328 -0.864573,0.565289 -2.09951,0.789232 z m -1.073132,-5.366117 q 0.605361,-0.109776 0.995137,-0.488923 0.396383,-0.388683 0.545605,-0.99099 0.149222,-0.602306 0.01456,-1.344883 -0.134659,-0.742577 -0.484405,-1.246064 -0.35121,-0.511558 -0.857369,-0.728237 -0.499552,-0.226214 -1.104913,-0.116438 -0.573076,0.103921 -0.948172,0.47207 -0.37656,0.360077 -0.519175,0.952848 -0.134543,0.591308 0.0074,1.374242 0.141977,0.782934 0.475581,1.289349 0.341675,0.50495 0.822156,0.717949 0.480481,0.212998 1.053557,0.109077 z"
             style="font-weight:bold;font-family:Inter;-inkscape-font-specification:'Inter Bold'"
             id="path5729" /><path
             d="m 78.65015,73.023907 q -0.816435,0.274447 -1.545513,0.216632 -0.729079,-0.05782 -1.277495,-0.479257 -0.55103,-0.429217 -0.825477,-1.245652 -0.232626,-0.692025 -0.130245,-1.237038 0.09977,-0.552789 0.448878,-0.981694 0.354273,-0.439295 0.880003,-0.780451 0.533506,-0.343769 1.152806,-0.612528 0.728092,-0.331292 1.147775,-0.550257 0.419683,-0.218966 0.569638,-0.416495 0.149955,-0.197529 0.06109,-0.461898 l -0.0183,-0.05443 q -0.101937,-0.303247 -0.341024,-0.473849 -0.2417,-0.178378 -0.589381,-0.208625 -0.339906,-0.03286 -0.759786,0.108283 -0.419881,0.141144 -0.70202,0.383107 -0.274364,0.23935 -0.379951,0.543123 -0.105586,0.303773 -0.02952,0.633026 l -2.153831,0.724017 q -0.230473,-0.865833 0.0036,-1.636864 0.24188,-0.773644 0.938147,-1.379826 0.693652,-0.613958 1.821109,-0.992956 0.839761,-0.282288 1.566029,-0.31007 0.723654,-0.03556 1.297484,0.178295 0.581606,0.211239 0.989996,0.653788 0.40839,0.44255 0.630561,1.103473 l 1.871465,5.567305 -2.239363,0.752768 -0.389452,-1.15856 -0.0311,0.01046 q -0.0818,0.477515 -0.303887,0.872376 -0.222089,0.39486 -0.625958,0.71236 -0.406483,0.309724 -1.036303,0.52144 z m 0.101771,-1.80832 q 0.552066,-0.185579 0.880661,-0.521046 0.336371,-0.338081 0.436467,-0.761167 0.100096,-0.423087 -0.04889,-0.866294 l -0.277061,-0.82421 q -0.08279,0.08841 -0.227776,0.197727 -0.147604,0.101542 -0.349638,0.221382 -0.204647,0.112063 -0.445558,0.244971 -0.240911,0.132908 -0.499986,0.263268 -0.375644,0.195508 -0.650008,0.434857 -0.276978,0.231574 -0.390406,0.512021 -0.116041,0.272671 -0.0063,0.599244 0.09671,0.287696 0.322793,0.445361 0.226083,0.157665 0.550372,0.169813 0.324289,0.01215 0.705291,-0.115927 z"
             style="font-weight:bold;font-family:Inter;-inkscape-font-specification:'Inter Bold'"
             id="path5731" /><path
             d="m 86.861982,60.118318 0.812396,1.71194 -5.135823,2.437188 -0.812396,-1.711941 z m -4.799878,-0.33725 2.186245,-1.037475 3.580169,7.544397 q 0.186393,0.392783 0.415879,0.47456 0.236896,0.07826 0.681556,-0.132752 0.185275,-0.08792 0.437249,-0.207495 0.259385,-0.12309 0.400194,-0.189911 l 0.812395,1.711941 q -0.200097,0.09495 -0.555824,0.263765 -0.355728,0.168809 -0.718867,0.341136 -1.289514,0.611934 -2.143774,0.399886 -0.846849,-0.215565 -1.353278,-1.282749 z"
             style="font-weight:bold;font-family:Inter;-inkscape-font-specification:'Inter Bold'"
             id="path5733" /><path
             d="m 96.257681,64.843137 q -1.102029,0.697655 -2.243436,0.750336 -1.141406,0.05268 -2.156797,-0.508395 -1.008461,-0.565463 -1.732442,-1.709078 -0.72837,-1.150546 -0.808076,-2.303971 -0.07277,-1.157812 0.46312,-2.16697 0.531507,-1.01609 1.633536,-1.713745 1.115891,-0.706431 2.254755,-0.747793 1.141407,-0.05268 2.149867,0.512783 1.015391,0.561076 1.74376,1.711621 0.723982,1.143615 0.796757,2.301427 0.07971,1.153425 -0.456189,2.162584 -0.528964,1.004771 -1.644855,1.711201 z m -1.048676,-1.656509 q 0.499032,-0.315919 0.710958,-0.809305 0.207539,-0.500318 0.108326,-1.117121 -0.09921,-0.616803 -0.524828,-1.28911 -0.434389,-0.686169 -0.949462,-1.039706 -0.515074,-0.353537 -1.051695,-0.373044 -0.541009,-0.02644 -1.040041,0.289481 -0.492101,0.311531 -0.69964,0.811848 -0.211927,0.493387 -0.112713,1.11019 0.09921,0.616803 0.533603,1.302972 0.430001,0.679238 0.945075,1.032775 0.510685,0.346606 1.051695,0.373044 0.536621,0.01951 1.028722,-0.292024 z"
             style="font-weight:bold;font-family:Inter;-inkscape-font-specification:'Inter Bold'"
             id="path5735" /><path
             d="m 101.97385,60.644448 -5.489702,-6.700902 1.802136,-1.476397 0.935745,1.1422 0.01904,-0.0156 q -0.309844,-0.753586 -0.155554,-1.367794 0.154289,-0.614207 0.820572,-1.160058 0.164983,-0.135163 0.303433,-0.237988 0.1396,-0.114368 0.25902,-0.201597 l 1.30485,1.592733 q -0.10673,0.07683 -0.35191,0.256488 -0.23884,0.174458 -0.47997,0.372004 -0.38073,0.311915 -0.53976,0.739122 -0.16423,0.420862 -0.0548,0.903883 0.10939,0.483022 0.52528,0.990666 l 2.97359,3.629655 z"
             style="font-weight:bold;font-family:Inter;-inkscape-font-specification:'Inter Bold'"
             id="path5737" /><path
             d="m 110.45935,53.296465 q -0.78186,0.807273 -1.63999,1.198078 -0.86403,0.385098 -1.70067,0.305659 -0.83665,-0.07944 -1.55957,-0.665402 l 1.65502,-1.708826 q 0.45224,0.346642 0.9674,0.274589 0.51515,-0.07205 1.00595,-0.578809 0.46798,-0.483185 0.54783,-0.931157 0.0856,-0.453864 -0.20317,-0.733506 -0.24749,-0.239693 -0.60614,-0.175945 -0.35295,0.05786 -0.79462,0.372386 l -1.26792,0.884662 q -1.05565,0.736236 -1.97182,0.762492 -0.91618,0.02626 -1.63506,-0.669996 -0.58925,-0.570698 -0.72301,-1.316917 -0.12806,-0.752112 0.20105,-1.575348 0.33481,-0.82913 1.12237,-1.642295 0.78186,-0.807274 1.62324,-1.157202 0.83549,-0.355635 1.63219,-0.234949 0.80241,0.114793 1.4677,0.724883 l -1.558,1.608654 q -0.38283,-0.359354 -0.90996,-0.310315 -0.52713,0.04904 -0.97798,0.514548 -0.43373,0.44783 -0.48468,0.889538 -0.0568,0.436001 0.22011,0.70423 0.2416,0.233986 0.58884,0.182022 0.34724,-0.05196 0.76626,-0.331323 l 1.37121,-0.955929 q 1.09578,-0.765884 1.94217,-0.802626 0.84621,-0.04834 1.53563,0.619375 0.61871,0.599233 0.7418,1.403635 0.12291,0.792802 -0.22276,1.668515 -0.34586,0.864113 -1.13342,1.677279 z"
             style="font-weight:bold;font-family:Inter;-inkscape-font-specification:'Inter Bold'"
             id="path5739" /></g></g><g
         id="g13513"
         inkscape:label="Middlepart"
         transform="translate(6.9885708,3.7571153)"><g
           style="fill:none"
           id="g13493"
           transform="matrix(2.871673,0,0,2.871673,-765.28098,-27.943634)"
           inkscape:label="user"><path
             d="M 15.5,3.29076 C 16.9659,3.88415 18,5.32131 18,7 c 0,1.67869 -1.0341,3.1159 -2.5,3.7092 m -0.9693,4.5953 C 13.7956,15 12.8638,15 11,15 H 8 C 6.13623,15 5.20435,15 4.46927,15.3045 3.48915,15.7105 2.71046,16.4892 2.30448,17.4693 2,18.2044 2,19.1362 2,21"
             stroke="#000000"
             stroke-width="2"
             stroke-linecap="round"
             stroke-linejoin="round"
             id="path13774"
             style="stroke:#ffffff;stroke-opacity:1"
             sodipodi:nodetypes="csccssssc" /><g
             style="fill:none"
             id="g16017"
             transform="matrix(1.2195122,0,0,1.2195122,16.431792,-4.3044051)"><path
               d="M 2.1059357,20.761546 V 15.913074 M -0.31830037,18.33731 H 4.5301716"
               stroke="#000000"
               stroke-width="1.61616"
               stroke-linecap="round"
               stroke-linejoin="round"
               id="path16008"
               sodipodi:nodetypes="cccc"
               style="stroke:#ffffff;stroke-opacity:1" /></g></g><g
           id="g13511"
           transform="matrix(1.8892585,0,0,1.8892585,-739.72275,-5.9525966)"
           inkscape:label="Logo"
           style="display:inline">
		<g
   transform="translate(0.91990781,-0.8)"
   id="g13497"
   inkscape:label="Circle">
<path
   style="opacity:1;fill:#e4003a;fill-opacity:1;fill-rule:nonzero;stroke:none;stroke-width:1;stroke-linecap:butt;stroke-linejoin:miter;stroke-miterlimit:4;stroke-dasharray:none;stroke-dashoffset:0"
   d="m 0,7.39996 a 7.6,7.6 0 1 1 7.6,-7.6 7.6,7.6 0 0 1 -7.6,7.6 z"
   stroke-linecap="round"
   id="path13495" />
</g>
		<g
   transform="translate(0.81,-1.08)"
   id="g13501"
   style="display:none"
   inkscape:label="undefined">
<path
   style="opacity:1;fill:#ffffff;fill-rule:nonzero;stroke:none;stroke-width:1;stroke-linecap:butt;stroke-linejoin:miter;stroke-miterlimit:4;stroke-dasharray:none;stroke-dashoffset:0"
   transform="translate(-10.81,-11.92)"
   d="m 8.46,13.2 h -0.8 c -0.3,0 -0.4,-0.1 -0.4,-0.4 a 0.43,0.43 0 0 1 0.4,-0.4 h 0.9 a 0.35,0.35 0 0 0 0.2,-0.1 1.42,1.42 0 0 0 0.2,-0.6 h -0.7 a 0.4,0.4 0 1 1 0,-0.8 h 0.8 c 0.1,0 0.2,0 0.2,-0.1 a 23.29,23.29 0 0 0 1.1,-2.8 0.1,0.1 0 0 1 0.1,-0.1 c 0.1,-0.2 0.2,-0.3 0.4,-0.3 0.2,0 0.3,0.1 0.4,0.3 0.2,0.6 0.4,1.1 0.6,1.7 0.2,0.4 0.3,0.8 0.5,1.2 0,0.1 0.1,0.1 0.2,0.1 h 0.8 a 0.37,0.37 0 0 1 0.4,0.4 0.43,0.43 0 0 1 -0.4,0.4 h -0.7 a 4.88,4.88 0 0 0 0.3,0.7 0.35,0.35 0 0 0 0.2,0.1 h 0.9 c 0.1,0 0.3,0.1 0.3,0.2 a 0.6,0.6 0 0 1 -0.1,0.4 0.37,0.37 0 0 1 -0.3,0.1 h -0.8 a 3.55,3.55 0 0 0 0.4,0.9 l 0.6,1.5 c 0.1,0.3 0.1,0.5 -0.2,0.6 -0.3,0.1 -0.4,0 -0.5,-0.3 -0.3,-0.9 -0.7,-1.7 -1,-2.6 -0.1,-0.2 -0.1,-0.2 -0.3,-0.2 h -2.9 c -0.2,0 -0.2,0 -0.3,0.2 a 18.61,18.61 0 0 1 -1,2.5 c -0.1,0.2 -0.2,0.3 -0.4,0.3 a 0.27,0.27 0 0 1 -0.3,-0.3 0.37,0.37 0 0 1 0.1,-0.3 c 0.3,-0.7 0.5,-1.4 0.8,-2.1 0.2,0 0.2,-0.1 0.3,-0.2 z m 1,-0.8 h 2.7 c -0.1,-0.2 -0.2,-0.5 -0.3,-0.7 a 0.35,0.35 0 0 0 -0.2,-0.1 h -1.8 c -0.1,0 -0.1,0 -0.2,0.1 a 1.45,1.45 0 0 1 -0.2,0.7 z m 2.2,-1.5 c -0.3,-0.7 -0.5,-1.3 -0.8,-2 -0.3,0.7 -0.5,1.3 -0.8,2 z"
   stroke-linecap="round"
   id="path13499" />
</g>
<path
   style="opacity:1;fill:#050001;fill-opacity:1;stroke:#ffffff;stroke-width:0.786824;stroke-linecap:round;stroke-miterlimit:3.7;stroke-dasharray:none;stroke-opacity:1;paint-order:stroke fill markers"
   d="M -2.3986007,2.7360851 0.88883187,-5.0028575"
   id="path13503"
   sodipodi:nodetypes="cc" /><path
   style="opacity:1;fill:#050001;fill-opacity:1;stroke:#ffffff;stroke-width:0.786824;stroke-linecap:round;stroke-miterlimit:3.7;stroke-dasharray:none;stroke-opacity:1"
   d="M 4.2651388,2.7342975 0.98031102,-5.0045294"
   id="path13505"
   sodipodi:nodetypes="cc" /><path
   style="opacity:1;fill:#050001;fill-opacity:1;stroke:#ffffff;stroke-width:0.786824;stroke-linecap:round;stroke-miterlimit:3.7;stroke-dasharray:none;stroke-opacity:1"
   d="m -1.664028,-1.6872983 5.178973,-0.015567"
   id="path13507" /><path
   style="fill:#050001;fill-opacity:1;stroke:#ffffff;stroke-width:0.786824;stroke-linecap:round;stroke-miterlimit:3.7;stroke-dasharray:none;stroke-opacity:1"
   d="m -2.3298842,-0.18348542 6.5097684,-0.0124693"
   id="path13509" /></g></g></g></g></svg>
