<?xml version="1.0" encoding="UTF-8" standalone="no"?>
<svg
   inkscape:version="1.2.2 (b0a84865, 2022-12-01)"
   xml:space="preserve"
   sodipodi:docname="final_awards_pre-text-to-path.svg"
   id="svg134"
   version="1.1"
   viewBox="-120 -120 300 300.00013"
   height="250.00011"
   width="250"
   inkscape:export-filename="0.svg"
   inkscape:export-xdpi="96"
   inkscape:export-ydpi="96"
   xmlns:inkscape="http://www.inkscape.org/namespaces/inkscape"
   xmlns:sodipodi="http://sodipodi.sourceforge.net/DTD/sodipodi-0.dtd"
   xmlns="http://www.w3.org/2000/svg"
   xmlns:svg="http://www.w3.org/2000/svg"><defs
     id="defs138" /><sodipodi:namedview
     id="namedview136"
     pagecolor="#ffffff"
     bordercolor="#000000"
     borderopacity="0.25"
     inkscape:showpageshadow="2"
     inkscape:pageopacity="0.0"
     inkscape:pagecheckerboard="0"
     inkscape:deskcolor="#d1d1d1"
     showgrid="false"
     inkscape:zoom="0.35355339"
     inkscape:cx="1480.6816"
     inkscape:cy="663.26616"
     inkscape:window-width="1425"
     inkscape:window-height="949"
     inkscape:window-x="0"
     inkscape:window-y="25"
     inkscape:window-maximized="1"
     inkscape:current-layer="g19337"
     showguides="true" /><style
     type="text/css"
     id="style8571">
	.st0{fill:#ffffff;}
</style><g
     id="g12580"
     inkscape:label="Delegators"
     transform="translate(-1854.0352,-1170.5448)"><g
       id="g16129"
       inkscape:label="200 delegators"
       transform="matrix(1.4245145,0,0,1.4245145,2915.2657,1185.9099)"
       inkscape:export-filename="33.svg"
       inkscape:export-xdpi="96"
       inkscape:export-ydpi="96"><g
         id="g16289"
         inkscape:label="Borders"
         transform="translate(-1336.6974,-590.17957)"><path
           fill="none"
           stroke="black"
           stroke-width="2"
           d="m 712.78023,600.45322 q 9.47,10.78 -1.92,19.51 7.18,12.42 -5.69,18.76 4.62,13.58 -9.24,17.29 1.88,14.22 -12.44,15.15 -0.93,14.32 -15.15,12.44 -3.71,13.86 -17.29,9.24 -6.34,12.87 -18.76,5.69 -8.73,11.39 -19.51,1.92 -10.78,9.47 -19.51,-1.92 -12.42,7.18 -18.76,-5.69 -13.58,4.62 -17.29,-9.24 -14.22,1.88 -15.15,-12.44 -14.32,-0.93 -12.44,-15.15 -13.86,-3.71 -9.24,-17.29 -12.87,-6.34 -5.69,-18.76 -11.39,-8.73 -1.92,-19.51 -9.47,-10.78 1.92,-19.51 -7.18,-12.42 5.69,-18.76 -4.62,-13.58 9.24,-17.29 -1.88,-14.22 12.44,-15.15 0.93,-14.32 15.15,-12.44 3.71,-13.86 17.29,-9.24 6.34,-12.87 18.76,-5.69 8.73,-11.39 19.51,-1.92 10.78,-9.47 19.51,1.92 12.42,-7.18 18.76,5.69 13.58,-4.62 17.29,9.24 14.22,-1.88 15.15,12.44 14.32,0.93 12.44,15.15 13.86,3.71 9.24,17.29 12.87,6.34 5.69,18.76 11.39,8.73 1.92,19.51 z"
           id="path16233"
           style="fill:#04344d;fill-opacity:1;stroke:#04344d;stroke-opacity:1" /><path
           style="fill:none;fill-opacity:1;stroke:#ffffff;stroke-width:3.6;stroke-linecap:round;stroke-dasharray:none;stroke-opacity:1;paint-order:stroke fill markers"
           id="path16235"
           sodipodi:type="arc"
           sodipodi:cx="612.78918"
           sodipodi:cy="600.44446"
           sodipodi:rx="92.730682"
           sodipodi:ry="92.730682"
           sodipodi:start="1.5902854"
           sodipodi:end="4.6926787"
           sodipodi:open="true"
           sodipodi:arc-type="arc"
           d="M 610.98206,693.15753 A 92.730682,92.730682 0 0 1 520.0585,600.45471 92.730682,92.730682 0 0 1 610.96156,507.73179" /><path
           style="fill:none;fill-opacity:1;stroke:#ffffff;stroke-width:2.22;stroke-linecap:round;stroke-dasharray:none;stroke-opacity:1;paint-order:stroke fill markers"
           id="path16237"
           sodipodi:type="arc"
           sodipodi:cx="612.78381"
           sodipodi:cy="600.44971"
           sodipodi:rx="86.865753"
           sodipodi:ry="86.865753"
           sodipodi:start="1.5835599"
           sodipodi:end="4.6996412"
           sodipodi:arc-type="arc"
           d="M 611.67513,687.30838 A 86.865753,86.865753 0 0 1 525.91806,600.44902 86.865753,86.865753 0 0 1 611.6765,513.59101"
           sodipodi:open="true" /><g
           id="g16287"
           inkscape:label="Circles"
           transform="translate(97.989291,600.44448)"><g
             id="g16241"
             transform="rotate(7.5,5558.9497,3252.8791)"
             inkscape:transform-center-x="-11.777454"
             inkscape:transform-center-y="-88.637902"><path
               sodipodi:type="star"
               style="fill:#fefeff;fill-opacity:1;stroke:#ffffff;stroke-width:2.22;stroke-linecap:round;stroke-opacity:1;paint-order:stroke fill markers"
               id="path16239"
               inkscape:flatsided="false"
               sodipodi:sides="5"
               sodipodi:cx="396.99625"
               sodipodi:cy="-372.60107"
               sodipodi:r1="3.6169088"
               sodipodi:r2="1.6637779"
               sodipodi:arg1="0.95906936"
               sodipodi:arg2="1.5873879"
               inkscape:rounded="0"
               inkscape:randomized="0"
               d="m 399.07337,-369.64006 -2.10473,-1.29747 -2.14661,1.22692 0.58356,-2.40265 -1.83021,-1.66242 2.46539,-0.18746 1.01548,-2.25435 0.94014,2.2868 2.45781,0.26915 -1.88435,1.60078 z"
               transform="matrix(1.0133273,0,0,1.0133273,-268.95197,974.58915)"
               inkscape:transform-center-x="1.0196929"
               inkscape:transform-center-y="-89.532179"
               inkscape:label="path5969" /></g><g
             id="g16245"
             transform="rotate(22.5,2049.0208,1301.9125)"
             inkscape:transform-center-x="-34.354027"
             inkscape:transform-center-y="-82.323429"><path
               sodipodi:type="star"
               style="fill:#fefeff;fill-opacity:1;stroke:#ffffff;stroke-width:2.22;stroke-linecap:round;stroke-opacity:1;paint-order:stroke fill markers"
               id="path16243"
               inkscape:flatsided="false"
               sodipodi:sides="5"
               sodipodi:cx="396.99625"
               sodipodi:cy="-372.60107"
               sodipodi:r1="3.6169088"
               sodipodi:r2="1.6637779"
               sodipodi:arg1="0.95906936"
               sodipodi:arg2="1.5873879"
               inkscape:rounded="0"
               inkscape:randomized="0"
               d="m 399.07337,-369.64006 -2.10473,-1.29747 -2.14661,1.22692 0.58356,-2.40265 -1.83021,-1.66242 2.46539,-0.18746 1.01548,-2.25435 0.94014,2.2868 2.45781,0.26915 -1.88435,1.60078 z"
               transform="matrix(1.0133273,0,0,1.0133273,-268.95197,974.58915)"
               inkscape:transform-center-x="1.0196929"
               inkscape:transform-center-y="-89.532179"
               inkscape:label="path5969" /></g><g
             id="g16249"
             transform="rotate(37.5,1334.8573,904.95028)"
             inkscape:transform-center-x="-54.232035"
             inkscape:transform-center-y="-70.490863"><path
               sodipodi:type="star"
               style="fill:#fefeff;fill-opacity:1;stroke:#ffffff;stroke-width:2.22;stroke-linecap:round;stroke-opacity:1;paint-order:stroke fill markers"
               id="path16247"
               inkscape:flatsided="false"
               sodipodi:sides="5"
               sodipodi:cx="396.99625"
               sodipodi:cy="-372.60107"
               sodipodi:r1="3.6169088"
               sodipodi:r2="1.6637779"
               sodipodi:arg1="0.95906936"
               sodipodi:arg2="1.5873879"
               inkscape:rounded="0"
               inkscape:randomized="0"
               d="m 399.07337,-369.64006 -2.10473,-1.29747 -2.14661,1.22692 0.58356,-2.40265 -1.83021,-1.66242 2.46539,-0.18746 1.01548,-2.25435 0.94014,2.2868 2.45781,0.26915 -1.88435,1.60078 z"
               transform="matrix(1.0133273,0,0,1.0133273,-268.95197,974.58915)"
               inkscape:transform-center-x="1.0196929"
               inkscape:transform-center-y="-89.532179"
               inkscape:label="path5969" /></g><g
             id="g16253"
             transform="rotate(52.5,1019.845,729.85313)"
             inkscape:transform-center-x="-70.414229"
             inkscape:transform-center-y="-54.322566"><path
               sodipodi:type="star"
               style="fill:#fefeff;fill-opacity:1;stroke:#ffffff;stroke-width:2.22;stroke-linecap:round;stroke-opacity:1;paint-order:stroke fill markers"
               id="path16251"
               inkscape:flatsided="false"
               sodipodi:sides="5"
               sodipodi:cx="396.99625"
               sodipodi:cy="-372.60107"
               sodipodi:r1="3.6169088"
               sodipodi:r2="1.6637779"
               sodipodi:arg1="0.95906936"
               sodipodi:arg2="1.5873879"
               inkscape:rounded="0"
               inkscape:randomized="0"
               d="m 399.07337,-369.64006 -2.10473,-1.29747 -2.14661,1.22692 0.58356,-2.40265 -1.83021,-1.66242 2.46539,-0.18746 1.01548,-2.25435 0.94014,2.2868 2.45781,0.26915 -1.88435,1.60078 z"
               transform="matrix(1.0133273,0,0,1.0133273,-268.95197,974.58915)"
               inkscape:transform-center-x="1.0196929"
               inkscape:transform-center-y="-89.532179"
               inkscape:label="path5969" /></g><g
             id="g16257"
             transform="rotate(67.5,837.58649,628.54617)"
             inkscape:transform-center-x="-82.3354"
             inkscape:transform-center-y="-34.452242"><path
               sodipodi:type="star"
               style="fill:#fefeff;fill-opacity:1;stroke:#ffffff;stroke-width:2.22;stroke-linecap:round;stroke-opacity:1;paint-order:stroke fill markers"
               id="path16255"
               inkscape:flatsided="false"
               sodipodi:sides="5"
               sodipodi:cx="396.99625"
               sodipodi:cy="-372.60107"
               sodipodi:r1="3.6169088"
               sodipodi:r2="1.6637779"
               sodipodi:arg1="0.95906936"
               sodipodi:arg2="1.5873879"
               inkscape:rounded="0"
               inkscape:randomized="0"
               d="m 399.07337,-369.64006 -2.10473,-1.29747 -2.14661,1.22692 0.58356,-2.40265 -1.83021,-1.66242 2.46539,-0.18746 1.01548,-2.25435 0.94014,2.2868 2.45781,0.26915 -1.88435,1.60078 z"
               transform="matrix(1.0133273,0,0,1.0133273,-268.95197,974.58915)"
               inkscape:transform-center-x="1.0196929"
               inkscape:transform-center-y="-89.532179"
               inkscape:label="path5969" /></g><g
             id="g16261"
             transform="rotate(82.5,715.32761,560.58954)"
             inkscape:transform-center-x="-88.666206"
             inkscape:transform-center-y="-11.806367"><path
               sodipodi:type="star"
               style="fill:#fefeff;fill-opacity:1;stroke:#ffffff;stroke-width:2.22;stroke-linecap:round;stroke-opacity:1;paint-order:stroke fill markers"
               id="path16259"
               inkscape:flatsided="false"
               sodipodi:sides="5"
               sodipodi:cx="396.99625"
               sodipodi:cy="-372.60107"
               sodipodi:r1="3.6169088"
               sodipodi:r2="1.6637779"
               sodipodi:arg1="0.95906936"
               sodipodi:arg2="1.5873879"
               inkscape:rounded="0"
               inkscape:randomized="0"
               d="m 399.07337,-369.64006 -2.10473,-1.29747 -2.14661,1.22692 0.58356,-2.40265 -1.83021,-1.66242 2.46539,-0.18746 1.01548,-2.25435 0.94014,2.2868 2.45781,0.26915 -1.88435,1.60078 z"
               transform="matrix(1.0133273,0,0,1.0133273,-268.95197,974.58915)"
               inkscape:transform-center-x="1.0196929"
               inkscape:transform-center-y="-89.532179"
               inkscape:label="path5969" /></g><g
             id="g16265"
             transform="rotate(97.5,624.98471,510.37315)"
             inkscape:transform-center-x="-88.637973"
             inkscape:transform-center-y="11.777454"><path
               sodipodi:type="star"
               style="fill:#fefeff;fill-opacity:1;stroke:#ffffff;stroke-width:2.22;stroke-linecap:round;stroke-opacity:1;paint-order:stroke fill markers"
               id="path16263"
               inkscape:flatsided="false"
               sodipodi:sides="5"
               sodipodi:cx="396.99625"
               sodipodi:cy="-372.60107"
               sodipodi:r1="3.6169088"
               sodipodi:r2="1.6637779"
               sodipodi:arg1="0.95906936"
               sodipodi:arg2="1.5873879"
               inkscape:rounded="0"
               inkscape:randomized="0"
               d="m 399.07337,-369.64006 -2.10473,-1.29747 -2.14661,1.22692 0.58356,-2.40265 -1.83021,-1.66242 2.46539,-0.18746 1.01548,-2.25435 0.94014,2.2868 2.45781,0.26915 -1.88435,1.60078 z"
               transform="matrix(1.0133273,0,0,1.0133273,-268.95197,974.58915)"
               inkscape:transform-center-x="1.0196929"
               inkscape:transform-center-y="-89.532179"
               inkscape:label="path5969" /></g><g
             id="g16269"
             transform="rotate(112.5,553.34383,470.55213)"
             inkscape:transform-center-x="-82.323487"
             inkscape:transform-center-y="34.35403"><path
               sodipodi:type="star"
               style="fill:#fefeff;fill-opacity:1;stroke:#ffffff;stroke-width:2.22;stroke-linecap:round;stroke-opacity:1;paint-order:stroke fill markers"
               id="path16267"
               inkscape:flatsided="false"
               sodipodi:sides="5"
               sodipodi:cx="396.99625"
               sodipodi:cy="-372.60107"
               sodipodi:r1="3.6169088"
               sodipodi:r2="1.6637779"
               sodipodi:arg1="0.95906936"
               sodipodi:arg2="1.5873879"
               inkscape:rounded="0"
               inkscape:randomized="0"
               d="m 399.07337,-369.64006 -2.10473,-1.29747 -2.14661,1.22692 0.58356,-2.40265 -1.83021,-1.66242 2.46539,-0.18746 1.01548,-2.25435 0.94014,2.2868 2.45781,0.26915 -1.88435,1.60078 z"
               transform="matrix(1.0133273,0,0,1.0133273,-268.95197,974.58915)"
               inkscape:transform-center-x="1.0196929"
               inkscape:transform-center-y="-89.532179"
               inkscape:label="path5969" /></g><g
             id="g16273"
             transform="rotate(127.5,493.28797,437.17055)"
             inkscape:transform-center-x="-70.490908"
             inkscape:transform-center-y="54.23204"><path
               sodipodi:type="star"
               style="fill:#fefeff;fill-opacity:1;stroke:#ffffff;stroke-width:2.22;stroke-linecap:round;stroke-opacity:1;paint-order:stroke fill markers"
               id="path16271"
               inkscape:flatsided="false"
               sodipodi:sides="5"
               sodipodi:cx="396.99625"
               sodipodi:cy="-372.60107"
               sodipodi:r1="3.6169088"
               sodipodi:r2="1.6637779"
               sodipodi:arg1="0.95906936"
               sodipodi:arg2="1.5873879"
               inkscape:rounded="0"
               inkscape:randomized="0"
               d="m 399.07337,-369.64006 -2.10473,-1.29747 -2.14661,1.22692 0.58356,-2.40265 -1.83021,-1.66242 2.46539,-0.18746 1.01548,-2.25435 0.94014,2.2868 2.45781,0.26915 -1.88435,1.60078 z"
               transform="matrix(1.0133273,0,0,1.0133273,-268.95197,974.58915)"
               inkscape:transform-center-x="1.0196929"
               inkscape:transform-center-y="-89.532179"
               inkscape:label="path5969" /></g><g
             id="g16277"
             transform="rotate(142.5,440.5548,407.85923)"
             inkscape:transform-center-x="-54.322569"
             inkscape:transform-center-y="70.414225"><path
               sodipodi:type="star"
               style="fill:#fefeff;fill-opacity:1;stroke:#ffffff;stroke-width:2.22;stroke-linecap:round;stroke-opacity:1;paint-order:stroke fill markers"
               id="path16275"
               inkscape:flatsided="false"
               sodipodi:sides="5"
               sodipodi:cx="396.99625"
               sodipodi:cy="-372.60107"
               sodipodi:r1="3.6169088"
               sodipodi:r2="1.6637779"
               sodipodi:arg1="0.95906936"
               sodipodi:arg2="1.5873879"
               inkscape:rounded="0"
               inkscape:randomized="0"
               d="m 399.07337,-369.64006 -2.10473,-1.29747 -2.14661,1.22692 0.58356,-2.40265 -1.83021,-1.66242 2.46539,-0.18746 1.01548,-2.25435 0.94014,2.2868 2.45781,0.26915 -1.88435,1.60078 z"
               transform="matrix(1.0133273,0,0,1.0133273,-268.95197,974.58915)"
               inkscape:transform-center-x="1.0196929"
               inkscape:transform-center-y="-89.532179"
               inkscape:label="path5969" /></g><g
             id="g16281"
             transform="rotate(157.5,392.3333,381.05569)"
             inkscape:transform-center-x="-34.452251"
             inkscape:transform-center-y="82.335402"><path
               sodipodi:type="star"
               style="fill:#fefeff;fill-opacity:1;stroke:#ffffff;stroke-width:2.22;stroke-linecap:round;stroke-opacity:1;paint-order:stroke fill markers"
               id="path16279"
               inkscape:flatsided="false"
               sodipodi:sides="5"
               sodipodi:cx="396.99625"
               sodipodi:cy="-372.60107"
               sodipodi:r1="3.6169088"
               sodipodi:r2="1.6637779"
               sodipodi:arg1="0.95906936"
               sodipodi:arg2="1.5873879"
               inkscape:rounded="0"
               inkscape:randomized="0"
               d="m 399.07337,-369.64006 -2.10473,-1.29747 -2.14661,1.22692 0.58356,-2.40265 -1.83021,-1.66242 2.46539,-0.18746 1.01548,-2.25435 0.94014,2.2868 2.45781,0.26915 -1.88435,1.60078 z"
               transform="matrix(1.0133273,0,0,1.0133273,-268.95197,974.58915)"
               inkscape:transform-center-x="1.0196929"
               inkscape:transform-center-y="-89.532179"
               inkscape:label="path5969" /></g><g
             id="g16285"
             transform="rotate(172.5,346.57293,355.62015)"
             inkscape:transform-center-x="-11.806385"
             inkscape:transform-center-y="88.666214"><path
               sodipodi:type="star"
               style="fill:#fefeff;fill-opacity:1;stroke:#ffffff;stroke-width:2.22;stroke-linecap:round;stroke-opacity:1;paint-order:stroke fill markers"
               id="path16283"
               inkscape:flatsided="false"
               sodipodi:sides="5"
               sodipodi:cx="396.99625"
               sodipodi:cy="-372.60107"
               sodipodi:r1="3.6169088"
               sodipodi:r2="1.6637779"
               sodipodi:arg1="0.95906936"
               sodipodi:arg2="1.5873879"
               inkscape:rounded="0"
               inkscape:randomized="0"
               d="m 399.07337,-369.64006 -2.10473,-1.29747 -2.14661,1.22692 0.58356,-2.40265 -1.83021,-1.66242 2.46539,-0.18746 1.01548,-2.25435 0.94014,2.2868 2.45781,0.26915 -1.88435,1.60078 z"
               transform="matrix(1.0133273,0,0,1.0133273,-268.95197,974.58915)"
               inkscape:transform-center-x="1.0196929"
               inkscape:transform-center-y="-89.532179"
               inkscape:label="path5969" /></g></g></g><g
         id="g16073"
         inkscape:label="Texts"
         transform="translate(-779.21288,8.6763509)"><circle
           style="fill:none;fill-opacity:1;stroke:none;stroke-width:3.01836;stroke-linecap:round;stroke-opacity:1;paint-order:stroke fill markers"
           id="circle16057"
           cx="-1.4210855e-14"
           cy="-55.295727"
           transform="matrix(0,-1,-1,0,0,0)"
           r="76.490822"
           inkscape:label="Bottom-text-path" /><circle
           style="fill:none;fill-opacity:1;stroke:none;stroke-width:2.48601;stroke-linecap:round;stroke-opacity:1;paint-order:stroke fill markers"
           id="circle16059"
           cx="1.4210855e-14"
           cy="-55.295727"
           transform="rotate(90)"
           inkscape:label="Top-text-path"
           r="63" /><g
           aria-label="Cexplorer.io"
           id="text16067"
           style="font-size:16.8px;font-family:ROBOTO;-inkscape-font-specification:ROBOTO;text-align:center;letter-spacing:1.2px;text-anchor:middle;fill:#fefeff;stroke:#ffffff;stroke-width:0.744;stroke-linecap:round;paint-order:stroke fill markers"><path
             d="m 14.858755,-48.055292 q -1.276057,1.082623 -2.776689,1.355314 -1.499685,0.261129 -2.987961,-0.32652 -1.4873279,-0.599212 -2.7397738,-2.075435 -1.2630598,-1.488732 -1.6119449,-3.053813 -0.3426299,-1.570388 0.1646503,-3.001236 0.5135355,-1.436154 1.7895923,-2.518777 0.8194286,-0.695214 1.7269808,-1.045643 0.9075521,-0.350429 1.8275993,-0.356455 0.926303,-0.01133 1.806343,0.328555 0.880039,0.33989 1.656004,1.026262 l -1.945361,1.650469 q -0.431578,-0.343851 -0.889889,-0.503656 -0.463618,-0.16606 -0.92459,-0.151485 -0.466279,0.0083 -0.9183498,0.198225 -0.4511226,0.178342 -0.8702197,0.533909 -0.7944079,0.673986 -1.0336487,1.53318 -0.2329856,0.853886 0.061147,1.809201 0.2888255,0.94906 1.1007925,1.906103 0.80666,0.950787 1.6897276,1.395684 0.8893231,0.43959 1.7760141,0.343529 0.886692,-0.09606 1.6811,-0.770048 0.419097,-0.355567 0.673861,-0.765351 0.254765,-0.409783 0.338942,-0.868477 0.08418,-0.458693 0.0012,-0.936917 -0.083,-0.478223 -0.334126,-0.964414 l 1.939106,-1.645162 q 0.545472,0.871168 0.737441,1.794824 0.19197,0.923657 0.02987,1.835737 -0.162098,0.91208 -0.655706,1.750413 -0.49266,0.826771 -1.312089,1.521984 z"
             style="font-weight:bold;font-family:Inter;-inkscape-font-specification:Inter"
             id="path5742" /><path
             d="m 24.407684,-54.696185 q -1.103047,0.632425 -2.175545,0.575976 -1.065382,-0.06053 -1.984075,-0.706316 -0.922773,-0.652904 -1.571518,-1.784416 -0.656906,-1.145745 -0.732824,-2.284189 -0.07592,-1.138443 0.402965,-2.084367 0.474803,-0.95304 1.471103,-1.524262 0.782807,-0.448818 1.572259,-0.523215 0.796568,-0.07848 1.546835,0.191089 0.750267,0.269565 1.401285,0.860796 0.654055,0.580033 1.155915,1.455354 l 0.191767,0.334472 -6.177059,3.541579 -0.595704,-1.038998 5.500999,-3.153964 -0.311411,0.660789 q -0.440657,-0.768574 -1.04053,-1.171645 -0.596838,-0.414268 -1.270434,-0.434664 -0.677677,-0.02751 -1.353738,0.360104 -0.668944,0.383535 -0.987567,0.982269 -0.315587,0.587538 -0.266715,1.315978 0.05191,0.717244 0.492566,1.485818 l 0.293772,0.512383 q 0.444737,0.775691 1.050778,1.222505 0.613158,0.442733 1.321389,0.49055 0.70415,0.0407 1.437142,-0.379556 0.533732,-0.306012 0.845525,-0.702259 0.307712,-0.403363 0.399653,-0.853219 0.09906,-0.453936 -0.01149,-0.910622 l 1.209793,-0.693627 q 0.269767,0.800362 0.135605,1.605377 -0.138243,0.797899 -0.638857,1.49152 -0.493497,0.689542 -1.311886,1.15876 z"
             style="font-family:Inter;-inkscape-font-specification:Inter"
             id="path5744" /><path
             d="m 29.024949,-57.419381 1.614151,-5.923659 0.376633,1.006479 -4.912407,-3.239941 1.532131,-0.586708 1.70565,1.17392 q 0.511287,0.348818 1.007253,0.703503 0.493033,0.347025 0.999593,0.706438 l -0.643494,0.246417 q 0.144595,-0.608763 0.279735,-1.196338 0.139868,-0.59817 0.287397,-1.199272 l 0.500618,-2.018779 1.509149,-0.577907 -1.49956,5.695313 -0.387227,-1.011206 5.122496,3.352738 -1.524469,0.583774 -1.99104,-1.345722 q -0.497759,-0.33643 -0.977264,-0.671067 -0.479505,-0.334637 -0.972538,-0.681662 l 0.651156,-0.249351 q -0.135141,0.587575 -0.276149,1.159829 -0.141008,0.572254 -0.286743,1.155102 l -0.598262,2.337258 z"
             style="font-family:Inter;-inkscape-font-specification:Inter"
             id="path5746" /><path
             d="m 39.607891,-57.605288 -2.432547,-11.844188 1.333878,-0.273951 0.257447,1.253524 0.01607,-0.0033 q 0.175836,-0.530199 0.529315,-0.929396 0.353479,-0.399197 0.836389,-0.657489 0.48126,-0.266327 1.027668,-0.378548 1.108886,-0.227742 2.050404,0.15672 0.941518,0.384462 1.604173,1.286785 0.661006,0.894288 0.930005,2.204059 0.267349,1.301736 0.01397,2.392193 -0.255031,1.082423 -0.967157,1.814882 -0.713776,0.724425 -1.822662,0.952166 -0.546407,0.112221 -1.069573,0.05218 -0.521516,-0.052 -0.997333,-0.289255 -0.475818,-0.23725 -0.881832,-0.664699 l -0.01607,0.0033 0.953875,4.644465 z m 2.915536,-5.213053 q 0.739258,-0.151828 1.227473,-0.628942 0.488214,-0.477115 0.664404,-1.250243 0.176189,-0.773128 -0.0367,-1.809695 -0.214539,-1.044603 -0.681182,-1.685706 -0.466643,-0.641104 -1.103385,-0.887176 -0.636742,-0.246072 -1.375999,-0.09424 -0.78747,0.16173 -1.285155,0.674286 -0.497684,0.512557 -0.664188,1.29207 -0.166504,0.779513 0.03153,1.743762 0.196386,0.956213 0.656644,1.607002 0.460257,0.65079 1.119671,0.925703 0.659415,0.274913 1.446884,0.113183 z"
             style="font-family:Inter;-inkscape-font-specification:Inter"
             id="path5748" /><path
             d="m 49.868364,-75.032574 0.983695,12.183007 -1.390008,0.112234 -0.983695,-12.183007 z"
             style="font-family:Inter;-inkscape-font-specification:Inter"
             id="path5750" /><path
             d="m 57.684922,-62.75852 q -1.196813,-0.04493 -2.085176,-0.652908 -0.879858,-0.615865 -1.349932,-1.651417 -0.461876,-1.035245 -0.412327,-2.355018 0.04986,-1.327971 0.588364,-2.333866 0.546705,-1.005588 1.470265,-1.553747 0.931756,-0.547851 2.128569,-0.502918 1.20501,0.04524 2.084868,0.661105 0.879858,0.615865 1.341427,1.659307 0.469766,1.04375 0.419909,2.37172 -0.04955,1.319774 -0.595946,2.317164 -0.5382,0.997698 -1.461759,1.545857 -0.923252,0.539961 -2.128262,0.494721 z m 0.04739,-1.262392 q 0.819735,0.03078 1.416827,-0.349044 0.597092,-0.379819 0.935982,-1.097689 0.339197,-0.726066 0.37582,-1.701551 0.03724,-0.991879 -0.24687,-1.733138 -0.283802,-0.749456 -0.850425,-1.181174 -0.566624,-0.431719 -1.386359,-0.462494 -0.811538,-0.03047 -1.417135,0.357241 -0.597092,0.379819 -0.936289,1.105886 -0.339198,0.726067 -0.376436,1.717946 -0.03693,0.983682 0.247178,1.724941 0.284109,0.741259 0.851041,1.164779 0.566931,0.423521 1.386666,0.454297 z"
             style="font-family:Inter;-inkscape-font-specification:Inter"
             id="path5752" /><path
             d="m 64.50772,-62.351707 1.472099,-8.5365 1.309576,0.225834 -0.231409,1.341912 0.03234,0.0056 q 0.348741,-0.622445 0.927723,-0.938812 0.578981,-0.316366 1.379278,-0.178357 0.185928,0.03206 0.336732,0.07472 0.158888,0.04405 0.236938,0.07416 l -0.236986,1.374247 q -0.07666,-0.03819 -0.30551,-0.110954 -0.219376,-0.07945 -0.518477,-0.131031 -0.468861,-0.08085 -0.91069,0.06771 -0.441829,0.148561 -0.763804,0.567517 -0.321974,0.418956 -0.447437,1.146498 l -0.906121,5.254475 z"
             style="font-family:Inter;-inkscape-font-specification:Inter"
             id="path5754" /><path
             d="m 74.208055,-59.905665 q -1.213253,-0.380379 -1.900034,-1.206073 -0.678954,-0.82324 -0.828643,-1.936178 -0.147235,-1.120766 0.242959,-2.36533 0.395103,-1.260218 1.179334,-2.088951 0.78423,-0.828733 1.803832,-1.119444 1.022056,-0.298538 2.117898,0.04503 0.861019,0.269946 1.451672,0.799 0.59848,0.531509 0.910009,1.265345 0.311529,0.733836 0.319521,1.613219 0.01827,0.87401 -0.283575,1.836786 l -0.11534,0.367889 -6.794221,-2.130118 0.358292,-1.142807 6.050614,1.896984 -0.696561,0.220053 q 0.265038,-0.845364 0.153638,-1.55944 -0.101118,-0.719449 -0.543515,-1.227813 -0.439943,-0.516191 -1.18355,-0.749326 -0.73578,-0.230681 -1.391679,-0.05806 -0.645618,0.167251 -1.147213,0.697738 -0.491313,0.525114 -0.756351,1.370478 l -0.176691,0.563576 q -0.267492,0.853191 -0.184017,1.601497 0.0913,0.750759 0.537083,1.303168 0.448236,0.544582 1.254463,0.797349 0.587058,0.184054 1.089665,0.143904 0.505062,-0.04798 0.897748,-0.28593 0.400513,-0.235499 0.660725,-0.626743 l 1.330665,0.417189 q -0.404408,0.741491 -1.086499,1.189598 -0.679637,0.440281 -1.528769,0.543726 -0.841304,0.105899 -1.74146,-0.176316 z"
             style="font-family:Inter;-inkscape-font-specification:Inter"
             id="path5756" /><path
             d="m 80.477228,-57.777399 3.609932,-7.874471 1.208016,0.553797 -0.567471,1.237843 0.02983,0.01367 q 0.496566,-0.512329 1.137275,-0.669808 0.640708,-0.157479 1.37894,0.180953 0.171508,0.07862 0.306352,0.15849 0.142301,0.08328 0.210033,0.132383 l -0.581145,1.26767 q -0.06431,-0.05656 -0.266889,-0.185519 -0.1917,-0.133003 -0.467605,-0.259487 -0.432499,-0.198273 -0.897643,-0.167862 -0.465143,0.03041 -0.883704,0.352899 -0.418561,0.322487 -0.726226,0.993607 l -2.222023,4.846975 z"
             style="font-family:Inter;-inkscape-font-specification:Inter"
             id="path5758" /><path
             d="m 86.108686,-54.803396 q -0.371631,-0.209394 -0.491095,-0.615669 -0.10829,-0.409396 0.101104,-0.781026 0.213422,-0.378778 0.61567,-0.491095 0.409395,-0.108291 0.781026,0.101104 0.378777,0.213422 0.491095,0.61567 0.112317,0.402248 -0.101105,0.781026 -0.209394,0.371631 -0.615669,0.491095 -0.402249,0.112317 -0.781026,-0.101105 z"
             style="font-family:Inter;-inkscape-font-specification:Inter"
             id="path5760" /><path
             d="m 89.66592,-52.811898 4.811696,-7.203227 1.159611,0.774611 -4.811697,7.203226 z m 6.330147,-8.221096 q -0.327419,-0.218714 -0.404419,-0.605558 -0.077,-0.386844 0.141713,-0.714263 0.218714,-0.32742 0.605558,-0.40442 0.386844,-0.077 0.714263,0.141714 0.32742,0.218713 0.40442,0.605557 0.077,0.386844 -0.141714,0.714264 -0.218713,0.327419 -0.605557,0.404419 -0.386845,0.077 -0.714264,-0.141713 z"
             style="font-family:Inter;-inkscape-font-specification:Inter"
             id="path5762" /><path
             d="m 96.123878,-47.722538 q -0.909702,-0.778988 -1.227838,-1.807391 -0.306569,-1.029298 -0.03127,-2.132725 0.281525,-1.098091 1.140546,-2.101256 0.864356,-1.009396 1.911379,-1.462783 1.053253,-0.448052 2.117465,-0.303533 1.07044,0.149855 1.98015,0.928843 0.91593,0.784323 1.2225,1.813621 0.30657,1.029298 0.0197,2.13362 -0.28063,1.109658 -1.14499,2.119054 -0.85902,1.003165 -1.90694,1.444986 -1.041679,0.447156 -2.105894,0.302637 -1.058879,-0.15075 -1.974813,-0.935073 z m 0.821672,-0.959549 q 0.623084,0.533553 1.326915,0.607065 0.70383,0.07351 1.415465,-0.278283 0.71697,-0.358025 1.3519,-1.099495 0.6456,-0.753931 0.88369,-1.511226 0.24342,-0.763526 0.0678,-1.45389 -0.17561,-0.690365 -0.7987,-1.223918 -0.61685,-0.528218 -1.332246,-0.600835 -0.70383,-0.07351 -1.4208,0.284514 -0.71697,0.358025 -1.362569,1.111957 -0.640264,0.7477 -0.878355,1.504995 -0.23809,0.757295 -0.05714,1.441429 0.180949,0.684134 0.804032,1.217687 z"
             style="font-family:Inter;-inkscape-font-specification:Inter"
             id="path5764" /></g><g
           aria-label="200 delegators"
           id="text16071"
           style="font-size:16.8px;font-family:ROBOTO;-inkscape-font-specification:ROBOTO;text-align:center;letter-spacing:1.34783px;text-anchor:middle;fill:#fefeff;stroke:#ffffff;stroke-width:0.744;stroke-linecap:round;paint-order:stroke fill markers"><path
             d="m -4.2668069,48.192763 1.3719775,-1.246854 5.8473273,0.738136 q 0.7162261,0.08068 1.3127185,0.114984 0.5964923,0.03431 1.096446,-0.0986 Q 5.867133,47.573595 6.2860111,47.192918 6.7170306,46.801208 6.8671953,46.3322 7.0289476,45.863746 6.9070773,45.375933 6.7907233,44.894193 6.3824612,44.444961 5.9410969,43.959306 5.4086333,43.800302 4.8816868,43.647369 4.3105458,43.811715 3.7509925,43.976615 3.198559,44.478667 L 1.6372326,42.76066 q 0.983453,-0.893763 2.0760622,-1.155143 1.104197,-0.260827 2.1724266,0.109602 1.0743003,0.364911 1.9901313,1.372647 0.8441094,0.928817 1.1546091,1.965702 0.3104997,1.036885 0.042719,2.022912 Q 8.816988,48.062961 7.9610196,48.840866 7.3296671,49.41464 6.5924221,49.652349 5.855177,49.890059 4.9551885,49.887708 4.0667877,49.885908 2.952722,49.745577 l -3.41283089,-0.40115 -0.0121414,0.01103 3.59711949,3.958094 -1.4994622,1.362713 z"
             style="font-weight:bold;font-family:Inter;-inkscape-font-specification:'Inter Bold'"
             id="path5767" /><path
             d="m 7.1543064,59.697635 q -1.1935212,-0.963647 -1.5822899,-2.25805 -0.377233,-1.295633 0.043196,-2.7696 0.4268113,-1.468814 1.6481175,-2.981458 1.2264595,-1.519027 2.5723459,-2.245782 1.3522691,-0.721601 2.6983011,-0.625872 1.346033,0.09573 2.545937,1.064529 1.193521,0.963646 1.570754,2.259279 0.388769,1.294403 -0.0432,2.7696 -0.420429,1.473967 -1.646889,2.992994 -1.221306,1.512644 -2.573575,2.234246 -1.345886,0.726754 -2.6983014,0.625872 -1.3408798,-0.102111 -2.534401,-1.065758 z m 1.267685,-1.570087 q 0.6190992,0.49986 1.3905229,0.458488 0.7714237,-0.04137 1.6168807,-0.5923 0.845457,-0.550927 1.680274,-1.584887 0.83997,-1.040342 1.20036,-1.982911 0.360389,-0.94257 0.238268,-1.705389 -0.116969,-0.769201 -0.736068,-1.269061 -0.619099,-0.499859 -1.402058,-0.457258 -0.771424,0.04137 -1.616881,0.592299 -0.8390748,0.556081 -1.6790449,1.596423 -0.834817,1.03396 -1.201589,1.971376 -0.3603897,0.94257 -0.238268,1.705389 0.1285041,0.767972 0.7476033,1.267831 z"
             style="font-weight:bold;font-family:Inter;-inkscape-font-specification:'Inter Bold'"
             id="path5769" /><path
             d="M 17.305063,66.631266 Q 15.97314,65.870287 15.382924,64.654447 14.803899,63.435555 14.983888,61.913404 15.171,60.395322 16.13545,58.70727 q 0.968518,-1.695175 2.181282,-2.627262 1.219887,-0.928017 2.563959,-1.04817 1.344073,-0.120153 2.683119,0.644895 1.331923,0.760979 1.910947,1.979872 0.590217,1.215839 0.399036,2.741043 -0.17999,1.522151 -1.148508,3.217326 -0.96445,1.688052 -2.184336,2.61607 -1.212764,0.932087 -2.563959,1.04817 -1.340004,0.113031 -2.671927,-0.647948 z m 1.001074,-1.752156 q 0.690891,0.394733 1.445844,0.230868 0.754953,-0.163864 1.501732,-0.842569 0.746779,-0.678704 1.406023,-1.832563 0.663313,-1.160981 0.868775,-2.14896 0.205463,-0.98798 -0.03675,-1.721561 -0.238138,-0.740704 -0.929029,-1.135436 -0.690891,-0.394733 -1.457036,-0.227815 -0.754953,0.163864 -1.501732,0.842569 -0.739656,0.682774 -1.402969,1.843755 -0.659244,1.153858 -0.871829,2.137769 -0.205462,0.987979 0.03675,1.72156 0.249331,0.737651 0.940221,1.132383 z"
             style="font-weight:bold;font-family:Inter;-inkscape-font-specification:'Inter Bold'"
             id="path5771" /><path
             d="m 31.954633,73.058009 q -1.08196,-0.332953 -1.723033,-1.122441 -0.641074,-0.789488 -0.788796,-1.899207 -0.139881,-1.107307 0.258214,-2.400955 0.39327,-1.277967 1.136928,-2.104799 0.753912,-0.832259 1.720098,-1.127144 0.976438,-0.300312 2.034877,0.0254 0.54098,0.166476 0.949876,0.455378 0.411308,0.281062 0.682692,0.682137 0.271383,0.401075 0.400429,0.930003 l 0.0078,0.0024 1.399366,-4.547368 2.305045,0.709333 -3.594921,11.682031 -2.273684,-0.699682 0.390857,-1.270127 -0.0078,-0.0024 q -0.390223,0.403464 -0.86005,0.61936 -0.459574,0.210467 -0.978245,0.222511 -0.518672,0.01204 -1.059652,-0.154432 z m 1.17491,-1.698305 q 0.588022,0.180953 1.11092,0.01572 0.533152,-0.17066 0.94509,-0.644687 0.411937,-0.474026 0.638731,-1.211013 0.229207,-0.744828 0.152634,-1.360601 -0.07416,-0.623614 -0.421534,-1.056657 -0.337121,-0.438469 -0.925142,-0.619422 -0.556661,-0.171301 -1.061466,-0.0091 -0.504805,0.162218 -0.90649,0.630817 -0.393845,0.471012 -0.632702,1.2472 -0.238857,0.776189 -0.180378,1.394978 0.06873,0.613361 0.394998,1.031324 0.328678,0.410124 0.885339,0.581425 z"
             style="font-weight:bold;font-family:Inter;-inkscape-font-specification:'Inter Bold'"
             id="path5773" /><path
             d="m 43.622118,75.804901 q -1.297209,-0.199764 -2.174612,-0.915867 -0.868046,-0.722962 -1.247079,-1.818809 -0.370926,-1.094598 -0.171162,-2.391807 0.20226,-1.313424 0.892176,-2.236358 0.699271,-0.929794 1.7365,-1.359353 1.037229,-0.429559 2.26147,-0.241032 0.948584,0.146077 1.668861,0.588989 0.721525,0.434804 1.188556,1.120911 0.468279,0.678 0.643406,1.534951 0.183235,0.858199 0.03216,1.839213 l -0.09863,0.640497 -7.564348,-1.164872 0.234722,-1.52422 6.413076,0.987581 -1.134489,0.198787 q 0.09988,-0.648604 -0.06282,-1.15505 -0.162705,-0.506445 -0.561809,-0.8252 -0.389748,-0.325613 -0.989707,-0.418004 -0.591851,-0.09114 -1.061504,0.102128 -0.468405,0.185163 -0.775938,0.619194 -0.307534,0.434031 -0.407416,1.082635 l -0.159811,1.037767 q -0.102378,0.66482 0.05533,1.203695 0.167067,0.532017 0.57864,0.877591 0.412822,0.337466 1.053319,0.4361 0.470238,0.07241 0.846947,-0.0024 0.386065,-0.08164 0.666747,-0.287416 0.290039,-0.21263 0.446626,-0.528809 l 2.180932,0.335853 q -0.285138,0.827571 -0.952549,1.388779 -0.66741,0.561208 -1.584243,0.801812 -0.915584,0.232497 -1.953351,0.07269 z"
             style="font-weight:bold;font-family:Inter;-inkscape-font-specification:'Inter Bold'"
             id="path5775" /><path
             d="M 53.428696,64.252913 52.854957,76.462095 50.437703,76.348503 51.011442,64.13932 Z"
             style="font-weight:bold;font-family:Inter;-inkscape-font-specification:'Inter Bold'"
             id="path5777" /><path
             d="m 59.872318,76.55343 q -1.310313,0.07573 -2.317989,-0.441214 -0.99996,-0.525603 -1.599626,-1.518048 -0.591476,-0.992919 -0.667203,-2.303233 -0.07667,-1.326692 0.405144,-2.373422 0.489532,-1.055393 1.414095,-1.69222 0.924563,-0.636826 2.161172,-0.708293 0.958167,-0.05537 1.755097,0.22724 0.796457,0.274427 1.396553,0.84779 0.599623,0.565173 0.949962,1.366607 0.358529,0.800961 0.415797,1.791886 l 0.03739,0.646967 -7.640766,0.44158 -0.08898,-1.539618 6.477863,-0.374373 -1.0679,0.431473 q -0.03786,-0.655156 -0.302809,-1.11642 -0.264945,-0.461263 -0.721848,-0.689578 -0.449186,-0.236979 -1.055206,-0.201955 -0.597831,0.03455 -1.016727,0.321697 -0.419369,0.278958 -0.629413,0.767672 -0.210043,0.488714 -0.17218,1.143871 l 0.06058,1.048251 q 0.03881,0.671535 0.305648,1.165556 0.274555,0.485359 0.749257,0.737296 0.474228,0.243748 1.121195,0.206358 0.474989,-0.02745 0.827752,-0.179307 0.36048,-0.160519 0.591965,-0.420401 0.239202,-0.268546 0.32626,-0.610466 l 2.202964,-0.127315 q -0.105904,0.868885 -0.641303,1.557172 -0.535399,0.688288 -1.38171,1.115172 -0.846785,0.418694 -1.895036,0.479275 z"
             style="font-weight:bold;font-family:Inter;-inkscape-font-specification:'Inter Bold'"
             id="path5779" /><path
             d="m 71.39291,78.414539 q -1.205341,0.247399 -2.120001,0.07505 -0.904975,-0.165966 -1.514109,-0.685748 -0.601099,-0.521432 -0.891513,-1.324359 l 2.282112,-0.468408 q 0.154365,0.303282 0.425543,0.482098 0.279214,0.177166 0.647835,0.218744 0.370271,0.04961 0.81223,-0.0411 0.867845,-0.178127 1.236601,-0.747888 0.37679,-0.571411 0.188768,-1.48747 l -0.267191,-1.301769 -0.008,0.0016 q -0.146846,0.549336 -0.458547,0.948279 -0.303665,0.397293 -0.754464,0.648929 -0.442764,0.249986 -0.997221,0.36379 -1.108914,0.227606 -2.050385,-0.15697 -0.94147,-0.384577 -1.599068,-1.262874 -0.649562,-0.879947 -0.908506,-2.141537 -0.262242,-1.277662 -0.0054,-2.352017 0.263199,-1.084041 0.969027,-1.806728 0.713865,-0.724338 1.798672,-0.946996 0.554457,-0.113803 1.051859,-0.05679 0.505438,0.05537 0.947435,0.291237 0.450033,0.234222 0.812518,0.653895 l 0.008,-0.0016 -0.252347,-1.229448 2.338362,-0.479953 1.674063,8.156141 q 0.275436,1.341947 -0.07535,2.284856 -0.349136,0.950945 -1.210135,1.529625 -0.851313,0.585066 -2.080761,0.837412 z m -1.196526,-5.339958 q 0.602671,-0.123699 0.983604,-0.51173 0.38732,-0.397715 0.522621,-1.003301 0.1353,-0.605586 -0.01644,-1.344862 -0.151737,-0.739275 -0.512995,-1.234568 -0.362907,-0.503328 -0.873926,-0.708283 -0.504633,-0.21464 -1.107303,-0.09094 -0.570529,0.117102 -0.93704,0.493798 -0.368161,0.36866 -0.497075,0.964561 -0.120879,0.594252 0.03911,1.373706 0.159985,0.779454 0.505171,1.278045 0.353222,0.496941 0.838485,0.698809 0.485263,0.201868 1.055791,0.08477 z"
             style="font-weight:bold;font-family:Inter;-inkscape-font-specification:'Inter Bold'"
             id="path5781" /><path
             d="m 80.319453,72.469102 q -0.80987,0.293251 -1.540091,0.252309 -0.73022,-0.04094 -1.288234,-0.449592 -0.560806,-0.416362 -0.854057,-1.226232 -0.248565,-0.686462 -0.158813,-1.233696 0.08696,-0.554948 0.42606,-0.991811 0.344021,-0.447369 0.861723,-0.800589 0.525414,-0.356012 1.138335,-0.639018 0.720237,-0.348039 1.134745,-0.576649 0.414509,-0.228611 0.559856,-0.429554 0.145348,-0.200944 0.05039,-0.463187 l -0.01955,-0.05399 q -0.108922,-0.300809 -0.351889,-0.465837 -0.24576,-0.172742 -0.594048,-0.194942 -0.340574,-0.02499 -0.757079,0.125821 -0.416505,0.150815 -0.692975,0.399237 -0.268756,0.245629 -0.367291,0.551763 -0.09853,0.306133 -0.01488,0.63354 l -2.136516,0.773622 q -0.25043,-0.860272 -0.03422,-1.63651 0.223928,-0.77903 0.905992,-1.401149 0.679272,-0.629832 1.797664,-1.034797 0.83301,-0.301629 1.558441,-0.346196 0.722638,-0.05228 1.30126,0.148248 0.586334,0.197734 1.004848,0.630723 0.418513,0.432989 0.655906,1.088598 l 1.999689,5.522546 -2.221359,0.804344 -0.416136,-1.149245 -0.03085,0.01117 q -0.07074,0.479279 -0.283636,0.87917 -0.212899,0.39989 -0.609319,0.726643 -0.399213,0.31904 -1.023971,0.545261 z m 0.05993,-1.81019 q 0.547627,-0.198293 0.868378,-0.541268 0.328464,-0.345769 0.418751,-0.771056 0.09029,-0.425288 -0.06891,-0.864932 l -0.296044,-0.817583 q -0.08072,0.0903 -0.223143,0.20294 -0.145217,0.104928 -0.344426,0.229407 -0.202001,0.116765 -0.439774,0.255208 -0.237774,0.138443 -0.493766,0.274758 -0.371023,0.20414 -0.63978,0.44977 -0.271549,0.237916 -0.378462,0.52091 -0.109706,0.275281 0.0076,0.599229 0.103336,0.285383 0.333004,0.437778 0.229668,0.152396 0.554151,0.157042 0.324483,0.0046 0.702423,-0.132203 z"
             style="font-weight:bold;font-family:Inter;-inkscape-font-specification:'Inter Bold'"
             id="path5783" /><path
             d="m 88.231493,59.377249 0.851628,1.692767 -5.0783,2.554883 -0.851628,-1.692767 z m -4.806374,-0.226558 2.161758,-1.087577 3.75306,7.459898 q 0.195396,0.388384 0.426704,0.464851 0.238637,0.07278 0.678316,-0.148422 0.1832,-0.09217 0.432352,-0.217515 0.25648,-0.129034 0.395712,-0.199082 l 0.851627,1.692767 q -0.197855,0.09954 -0.549599,0.276502 -0.351744,0.176962 -0.710816,0.35761 -1.275071,0.641486 -2.13399,0.449179 -0.851591,-0.195995 -1.382476,-1.251226 z"
             style="font-weight:bold;font-family:Inter;-inkscape-font-specification:'Inter Bold'"
             id="path5785" /><path
             d="m 97.733841,63.884814 q -1.085748,0.722731 -2.225648,0.801561 -1.139899,0.07883 -2.167884,-0.458824 -1.021157,-0.5422 -1.771161,-1.668919 -0.754551,-1.133548 -0.860674,-2.284843 -0.09929,-1.15584 0.413328,-2.177017 0.508077,-1.028006 1.593825,-1.750737 1.099405,-0.731823 2.237022,-0.799279 1.139899,-0.07883 2.161055,0.46337 1.027985,0.537654 1.782536,1.671202 0.750005,1.12672 0.849299,2.28256 0.106124,1.151294 -0.406499,2.172471 -0.505794,1.016632 -1.605199,1.748455 z M 96.64747,62.252777 q 0.49166,-0.327275 0.692221,-0.825389 0.196017,-0.504943 0.08269,-1.11931 -0.113326,-0.614367 -0.554238,-1.276741 -0.450003,-0.676032 -0.973044,-1.01767 -0.523042,-0.341638 -1.05997,-0.34884 -0.541473,-0.01403 -1.033132,0.313244 -0.484831,0.322729 -0.680848,0.827672 -0.200561,0.498115 -0.08724,1.112482 0.113326,0.614366 0.563329,1.290398 0.445457,0.669203 0.968499,1.010841 0.518497,0.334809 1.05997,0.34884 0.536927,0.0072 1.021758,-0.315527 z"
             style="font-weight:bold;font-family:Inter;-inkscape-font-specification:'Inter Bold'"
             id="path5787" /><path
             d="m 103.35244,59.556423 -5.641241,-6.573834 1.767963,-1.517152 0.961578,1.120539 0.0187,-0.01603 q -0.32696,-0.746316 -0.18674,-1.363886 0.14023,-0.617569 0.79388,-1.178488 0.16186,-0.138894 0.29793,-0.244853 0.13695,-0.117526 0.25435,-0.207458 l 1.34086,1.562531 q -0.10494,0.07925 -0.34596,0.264454 -0.23479,0.179865 -0.47135,0.382864 -0.37351,0.320525 -0.52275,0.751252 -0.15457,0.424501 -0.0342,0.904899 0.12039,0.480398 0.54776,0.978416 l 3.05567,3.560827 z"
             style="font-weight:bold;font-family:Inter;-inkscape-font-specification:'Inter Bold'"
             id="path5789" /><path
             d="m 111.66807,52.016767 q -0.76324,0.824897 -1.61223,1.235175 -0.85502,0.404706 -1.69326,0.344373 -0.83824,-0.06033 -1.57434,-0.629655 l 1.61561,-1.746133 q 0.46003,0.336236 0.97341,0.25245 0.51338,-0.08378 0.99249,-0.601604 0.45683,-0.493734 0.52645,-0.94341 0.0752,-0.455698 -0.21986,-0.728681 -0.25288,-0.233986 -0.60999,-0.162073 -0.35154,0.06589 -0.78592,0.390414 l -1.24741,0.913353 q -1.03858,0.760125 -1.95392,0.807272 -0.91533,0.04715 -1.64991,-0.632525 -0.60212,-0.557109 -0.75287,-1.300082 -0.14517,-0.748995 0.16507,-1.579525 0.31581,-0.83655 1.08462,-1.667469 0.76324,-0.824898 1.59642,-1.193927 0.82716,-0.374601 1.62641,-0.272119 0.80481,0.09646 1.48385,0.691216 l -1.52091,1.643774 q -0.39092,-0.350528 -0.91679,-0.289478 -0.52587,0.06105 -0.96599,0.536722 -0.4234,0.457607 -0.46426,0.900363 -0.0469,0.437184 0.23611,0.699025 0.24687,0.228414 0.59284,0.168544 0.34596,-0.05987 0.7585,-0.348716 l 1.34905,-0.986958 q 1.07803,-0.79068 1.92336,-0.846719 0.84488,-0.06763 1.54936,0.584185 0.63222,0.584965 0.77362,1.386349 0.14096,0.789793 -0.18465,1.673163 -0.32605,0.871777 -1.09486,1.702696 z"
             style="font-weight:bold;font-family:Inter;-inkscape-font-specification:'Inter Bold'"
             id="path5791" /></g></g><g
         id="g16101"
         inkscape:label="Middlepart"
         transform="matrix(0.82,0,0,0.82,-124.57448,4.9301506)"><g
           style="fill:none"
           id="g16081"
           transform="matrix(2.871673,0,0,2.871673,-765.28098,-27.943634)"
           inkscape:label="user"><path
             d="M 15.5,3.29076 C 16.9659,3.88415 18,5.32131 18,7 c 0,1.67869 -1.0341,3.1159 -2.5,3.7092 m -0.9693,4.5953 C 13.7956,15 12.8638,15 11,15 H 8 C 6.13623,15 5.20435,15 4.46927,15.3045 3.48915,15.7105 2.71046,16.4892 2.30448,17.4693 2,18.2044 2,19.1362 2,21"
             stroke="#000000"
             stroke-width="2"
             stroke-linecap="round"
             stroke-linejoin="round"
             id="path16075"
             style="stroke:#ffffff;stroke-opacity:1"
             sodipodi:nodetypes="csccssssc" /><g
             style="fill:none"
             id="g16079"
             transform="matrix(1.2195122,0,0,1.2195122,16.431792,-4.3044051)"><path
               d="M 2.1059357,20.761546 V 15.913074 M -0.31830037,18.33731 H 4.5301716"
               stroke="#000000"
               stroke-width="1.61616"
               stroke-linecap="round"
               stroke-linejoin="round"
               id="path16077"
               sodipodi:nodetypes="cccc"
               style="stroke:#ffffff;stroke-opacity:1" /></g></g><g
           id="g16099"
           transform="matrix(1.8892585,0,0,1.8892585,-739.72275,-5.9525966)"
           inkscape:label="Logo"
           style="display:inline">
		<g
   transform="translate(0.91990781,-0.8)"
   id="g16085"
   inkscape:label="Circle">
<path
   style="opacity:1;fill:#e4003a;fill-opacity:1;fill-rule:nonzero;stroke:none;stroke-width:1;stroke-linecap:butt;stroke-linejoin:miter;stroke-miterlimit:4;stroke-dasharray:none;stroke-dashoffset:0"
   d="m 0,7.39996 a 7.6,7.6 0 1 1 7.6,-7.6 7.6,7.6 0 0 1 -7.6,7.6 z"
   stroke-linecap="round"
   id="path16083" />
</g>
		<g
   transform="translate(0.81,-1.08)"
   id="g16089"
   style="display:none"
   inkscape:label="undefined">
<path
   style="opacity:1;fill:#ffffff;fill-rule:nonzero;stroke:none;stroke-width:1;stroke-linecap:butt;stroke-linejoin:miter;stroke-miterlimit:4;stroke-dasharray:none;stroke-dashoffset:0"
   transform="translate(-10.81,-11.92)"
   d="m 8.46,13.2 h -0.8 c -0.3,0 -0.4,-0.1 -0.4,-0.4 a 0.43,0.43 0 0 1 0.4,-0.4 h 0.9 a 0.35,0.35 0 0 0 0.2,-0.1 1.42,1.42 0 0 0 0.2,-0.6 h -0.7 a 0.4,0.4 0 1 1 0,-0.8 h 0.8 c 0.1,0 0.2,0 0.2,-0.1 a 23.29,23.29 0 0 0 1.1,-2.8 0.1,0.1 0 0 1 0.1,-0.1 c 0.1,-0.2 0.2,-0.3 0.4,-0.3 0.2,0 0.3,0.1 0.4,0.3 0.2,0.6 0.4,1.1 0.6,1.7 0.2,0.4 0.3,0.8 0.5,1.2 0,0.1 0.1,0.1 0.2,0.1 h 0.8 a 0.37,0.37 0 0 1 0.4,0.4 0.43,0.43 0 0 1 -0.4,0.4 h -0.7 a 4.88,4.88 0 0 0 0.3,0.7 0.35,0.35 0 0 0 0.2,0.1 h 0.9 c 0.1,0 0.3,0.1 0.3,0.2 a 0.6,0.6 0 0 1 -0.1,0.4 0.37,0.37 0 0 1 -0.3,0.1 h -0.8 a 3.55,3.55 0 0 0 0.4,0.9 l 0.6,1.5 c 0.1,0.3 0.1,0.5 -0.2,0.6 -0.3,0.1 -0.4,0 -0.5,-0.3 -0.3,-0.9 -0.7,-1.7 -1,-2.6 -0.1,-0.2 -0.1,-0.2 -0.3,-0.2 h -2.9 c -0.2,0 -0.2,0 -0.3,0.2 a 18.61,18.61 0 0 1 -1,2.5 c -0.1,0.2 -0.2,0.3 -0.4,0.3 a 0.27,0.27 0 0 1 -0.3,-0.3 0.37,0.37 0 0 1 0.1,-0.3 c 0.3,-0.7 0.5,-1.4 0.8,-2.1 0.2,0 0.2,-0.1 0.3,-0.2 z m 1,-0.8 h 2.7 c -0.1,-0.2 -0.2,-0.5 -0.3,-0.7 a 0.35,0.35 0 0 0 -0.2,-0.1 h -1.8 c -0.1,0 -0.1,0 -0.2,0.1 a 1.45,1.45 0 0 1 -0.2,0.7 z m 2.2,-1.5 c -0.3,-0.7 -0.5,-1.3 -0.8,-2 -0.3,0.7 -0.5,1.3 -0.8,2 z"
   stroke-linecap="round"
   id="path16087" />
</g>
<path
   style="opacity:1;fill:#050001;fill-opacity:1;stroke:#ffffff;stroke-width:0.786824;stroke-linecap:round;stroke-miterlimit:3.7;stroke-dasharray:none;stroke-opacity:1;paint-order:stroke fill markers"
   d="M -2.3986007,2.7360851 0.88883187,-5.0028575"
   id="path16091"
   sodipodi:nodetypes="cc" /><path
   style="opacity:1;fill:#050001;fill-opacity:1;stroke:#ffffff;stroke-width:0.786824;stroke-linecap:round;stroke-miterlimit:3.7;stroke-dasharray:none;stroke-opacity:1"
   d="M 4.2651388,2.7342975 0.98031102,-5.0045294"
   id="path16093"
   sodipodi:nodetypes="cc" /><path
   style="opacity:1;fill:#050001;fill-opacity:1;stroke:#ffffff;stroke-width:0.786824;stroke-linecap:round;stroke-miterlimit:3.7;stroke-dasharray:none;stroke-opacity:1"
   d="m -1.664028,-1.6872983 5.178973,-0.015567"
   id="path16095" /><path
   style="fill:#050001;fill-opacity:1;stroke:#ffffff;stroke-width:0.786824;stroke-linecap:round;stroke-miterlimit:3.7;stroke-dasharray:none;stroke-opacity:1"
   d="m -2.3298842,-0.18348542 6.5097684,-0.0124693"
   id="path16097" /></g></g><g
         id="g20065"
         inkscape:label="circles"
         transform="matrix(0.82310934,0,0,0.82310934,-2275.1895,-977.40065)"><circle
           style="fill:#e4003a;fill-opacity:1;stroke:none;stroke-width:0.511713;stroke-linecap:round;stroke-linejoin:round;stroke-dasharray:none;stroke-opacity:1;paint-order:stroke markers fill"
           id="circle20041"
           cx="-1259.1384"
           cy="1884.0352"
           inkscape:transform-center-x="6.1035156e-05"
           inkscape:transform-center-y="58.593567"
           transform="rotate(-90)"
           r="2.5585673" /></g></g></g></svg>
