<?xml version="1.0" encoding="UTF-8" standalone="no"?>
<svg
   inkscape:version="1.2.2 (b0a84865, 2022-12-01)"
   xml:space="preserve"
   sodipodi:docname="final_awards_pre-text-to-path.svg"
   id="svg134"
   version="1.1"
   viewBox="-120 -120 299.99976 300.00013"
   height="250.00011"
   width="249.9998"
   inkscape:export-filename="0.svg"
   inkscape:export-xdpi="96"
   inkscape:export-ydpi="96"
   xmlns:inkscape="http://www.inkscape.org/namespaces/inkscape"
   xmlns:sodipodi="http://sodipodi.sourceforge.net/DTD/sodipodi-0.dtd"
   xmlns="http://www.w3.org/2000/svg"
   xmlns:svg="http://www.w3.org/2000/svg"><defs
     id="defs138" /><sodipodi:namedview
     id="namedview136"
     pagecolor="#ffffff"
     bordercolor="#000000"
     borderopacity="0.25"
     inkscape:showpageshadow="2"
     inkscape:pageopacity="0.0"
     inkscape:pagecheckerboard="0"
     inkscape:deskcolor="#d1d1d1"
     showgrid="false"
     inkscape:zoom="0.35355339"
     inkscape:cx="1480.6816"
     inkscape:cy="663.26616"
     inkscape:window-width="1425"
     inkscape:window-height="949"
     inkscape:window-x="0"
     inkscape:window-y="25"
     inkscape:window-maximized="1"
     inkscape:current-layer="g19337"
     showguides="true" /><style
     type="text/css"
     id="style8571">
	.st0{fill:#ffffff;}
</style><g
     id="g12580"
     inkscape:label="Delegators"
     transform="translate(-2224.0352,-1170.5448)"><g
       id="g16913"
       inkscape:label="300 delegators"
       transform="matrix(1.4245145,0,0,1.4245145,3285.2657,1185.9099)"
       inkscape:export-filename="34.svg"
       inkscape:export-xdpi="96"
       inkscape:export-ydpi="96"><g
         id="g18063"
         inkscape:label="border"
         transform="translate(-1336.7064,-849.37075)"><path
           fill="none"
           stroke="black"
           stroke-width="2"
           d="m 712.78919,859.6444 q 9.47,10.78 -1.92,19.51 7.18,12.42 -5.69,18.76 4.62,13.58 -9.24,17.29 1.88,14.22 -12.44,15.15 -0.93,14.32 -15.15,12.44 -3.71,13.86 -17.29,9.24 -6.34,12.87 -18.76,5.69 -8.73,11.39 -19.51,1.92 -10.78,9.47 -19.51,-1.92 -12.42,7.18 -18.76,-5.69 -13.58,4.62 -17.29,-9.24 -14.22,1.88 -15.15,-12.44 -14.32,-0.93 -12.44,-15.15 -13.86,-3.71 -9.24,-17.29 -12.87,-6.34 -5.69,-18.76 -11.39,-8.73 -1.92,-19.51 -9.47,-10.78 1.92,-19.51 -7.18,-12.42 5.69,-18.76 -4.62,-13.58 9.24,-17.29 -1.88,-14.22 12.44,-15.15 0.93,-14.32 15.15,-12.44 3.71,-13.86 17.29,-9.24 6.34,-12.87 18.76,-5.69 8.73,-11.39 19.51,-1.92 10.78,-9.47 19.51,1.92 12.42,-7.18 18.76,5.69 13.58,-4.62 17.29,9.24 14.22,-1.88 15.15,12.44 14.32,0.93 12.44,15.15 13.86,3.71 9.24,17.29 12.87,6.34 5.69,18.76 11.39,8.73 1.92,19.51 z"
           id="path17983"
           style="fill:#04344d;fill-opacity:1;stroke:#04344d;stroke-opacity:1" /><path
           style="fill:none;fill-opacity:1;stroke:#ffffff;stroke-width:3.6;stroke-linecap:round;stroke-dasharray:none;stroke-opacity:1;paint-order:stroke fill markers"
           id="path17985"
           sodipodi:type="arc"
           sodipodi:cx="612.78918"
           sodipodi:cy="859.64441"
           sodipodi:rx="92.730682"
           sodipodi:ry="92.730682"
           sodipodi:start="3.1610934"
           sodipodi:end="4.6929925"
           sodipodi:open="true"
           sodipodi:arc-type="arc"
           d="m 520.07613,857.83621 a 92.730682,92.730682 0 0 1 90.91452,-90.90504" /><path
           style="fill:none;fill-opacity:1;stroke:#ffffff;stroke-width:2.22;stroke-linecap:round;stroke-dasharray:none;stroke-opacity:1;paint-order:stroke fill markers"
           id="path17987"
           sodipodi:type="arc"
           sodipodi:cx="612.78918"
           sodipodi:cy="859.64441"
           sodipodi:rx="86.865753"
           sodipodi:ry="86.865753"
           sodipodi:start="3.1544395"
           sodipodi:end="4.6995293"
           sodipodi:open="true"
           sodipodi:arc-type="arc"
           d="m 525.9306,858.52849 a 86.865753,86.865753 0 0 1 85.74155,-85.74265" /><g
           id="g18061"
           inkscape:label="Circles"
           transform="translate(97.989291,859.63566)"><g
             id="g17991"
             transform="rotate(7.5,5558.9497,3252.8791)"
             inkscape:transform-center-x="-11.777454"
             inkscape:transform-center-y="-88.637902"><path
               sodipodi:type="star"
               style="fill:#fefeff;fill-opacity:1;stroke:#ffffff;stroke-width:2.22;stroke-linecap:round;stroke-opacity:1;paint-order:stroke fill markers"
               id="path17989"
               inkscape:flatsided="false"
               sodipodi:sides="5"
               sodipodi:cx="396.99625"
               sodipodi:cy="-372.60107"
               sodipodi:r1="3.6169088"
               sodipodi:r2="1.6637779"
               sodipodi:arg1="0.95906936"
               sodipodi:arg2="1.5873879"
               inkscape:rounded="0"
               inkscape:randomized="0"
               d="m 399.07337,-369.64006 -2.10473,-1.29747 -2.14661,1.22692 0.58356,-2.40265 -1.83021,-1.66242 2.46539,-0.18746 1.01548,-2.25435 0.94014,2.2868 2.45781,0.26915 -1.88435,1.60078 z"
               transform="matrix(1.0133273,0,0,1.0133273,-268.95197,974.58915)"
               inkscape:transform-center-x="1.0196929"
               inkscape:transform-center-y="-89.532179"
               inkscape:label="path5969" /></g><g
             id="g17995"
             transform="rotate(22.5,2049.0208,1301.9125)"
             inkscape:transform-center-x="-34.354027"
             inkscape:transform-center-y="-82.323429"><path
               sodipodi:type="star"
               style="fill:#fefeff;fill-opacity:1;stroke:#ffffff;stroke-width:2.22;stroke-linecap:round;stroke-opacity:1;paint-order:stroke fill markers"
               id="path17993"
               inkscape:flatsided="false"
               sodipodi:sides="5"
               sodipodi:cx="396.99625"
               sodipodi:cy="-372.60107"
               sodipodi:r1="3.6169088"
               sodipodi:r2="1.6637779"
               sodipodi:arg1="0.95906936"
               sodipodi:arg2="1.5873879"
               inkscape:rounded="0"
               inkscape:randomized="0"
               d="m 399.07337,-369.64006 -2.10473,-1.29747 -2.14661,1.22692 0.58356,-2.40265 -1.83021,-1.66242 2.46539,-0.18746 1.01548,-2.25435 0.94014,2.2868 2.45781,0.26915 -1.88435,1.60078 z"
               transform="matrix(1.0133273,0,0,1.0133273,-268.95197,974.58915)"
               inkscape:transform-center-x="1.0196929"
               inkscape:transform-center-y="-89.532179"
               inkscape:label="path5969" /></g><g
             id="g17999"
             transform="rotate(37.5,1334.8573,904.95028)"
             inkscape:transform-center-x="-54.232035"
             inkscape:transform-center-y="-70.490863"><path
               sodipodi:type="star"
               style="fill:#fefeff;fill-opacity:1;stroke:#ffffff;stroke-width:2.22;stroke-linecap:round;stroke-opacity:1;paint-order:stroke fill markers"
               id="path17997"
               inkscape:flatsided="false"
               sodipodi:sides="5"
               sodipodi:cx="396.99625"
               sodipodi:cy="-372.60107"
               sodipodi:r1="3.6169088"
               sodipodi:r2="1.6637779"
               sodipodi:arg1="0.95906936"
               sodipodi:arg2="1.5873879"
               inkscape:rounded="0"
               inkscape:randomized="0"
               d="m 399.07337,-369.64006 -2.10473,-1.29747 -2.14661,1.22692 0.58356,-2.40265 -1.83021,-1.66242 2.46539,-0.18746 1.01548,-2.25435 0.94014,2.2868 2.45781,0.26915 -1.88435,1.60078 z"
               transform="matrix(1.0133273,0,0,1.0133273,-268.95197,974.58915)"
               inkscape:transform-center-x="1.0196929"
               inkscape:transform-center-y="-89.532179"
               inkscape:label="path5969" /></g><g
             id="g18003"
             transform="rotate(52.5,1019.845,729.85313)"
             inkscape:transform-center-x="-70.414229"
             inkscape:transform-center-y="-54.322566"><path
               sodipodi:type="star"
               style="fill:#fefeff;fill-opacity:1;stroke:#ffffff;stroke-width:2.22;stroke-linecap:round;stroke-opacity:1;paint-order:stroke fill markers"
               id="path18001"
               inkscape:flatsided="false"
               sodipodi:sides="5"
               sodipodi:cx="396.99625"
               sodipodi:cy="-372.60107"
               sodipodi:r1="3.6169088"
               sodipodi:r2="1.6637779"
               sodipodi:arg1="0.95906936"
               sodipodi:arg2="1.5873879"
               inkscape:rounded="0"
               inkscape:randomized="0"
               d="m 399.07337,-369.64006 -2.10473,-1.29747 -2.14661,1.22692 0.58356,-2.40265 -1.83021,-1.66242 2.46539,-0.18746 1.01548,-2.25435 0.94014,2.2868 2.45781,0.26915 -1.88435,1.60078 z"
               transform="matrix(1.0133273,0,0,1.0133273,-268.95197,974.58915)"
               inkscape:transform-center-x="1.0196929"
               inkscape:transform-center-y="-89.532179"
               inkscape:label="path5969" /></g><g
             id="g18007"
             transform="rotate(67.5,837.58649,628.54617)"
             inkscape:transform-center-x="-82.3354"
             inkscape:transform-center-y="-34.452242"><path
               sodipodi:type="star"
               style="fill:#fefeff;fill-opacity:1;stroke:#ffffff;stroke-width:2.22;stroke-linecap:round;stroke-opacity:1;paint-order:stroke fill markers"
               id="path18005"
               inkscape:flatsided="false"
               sodipodi:sides="5"
               sodipodi:cx="396.99625"
               sodipodi:cy="-372.60107"
               sodipodi:r1="3.6169088"
               sodipodi:r2="1.6637779"
               sodipodi:arg1="0.95906936"
               sodipodi:arg2="1.5873879"
               inkscape:rounded="0"
               inkscape:randomized="0"
               d="m 399.07337,-369.64006 -2.10473,-1.29747 -2.14661,1.22692 0.58356,-2.40265 -1.83021,-1.66242 2.46539,-0.18746 1.01548,-2.25435 0.94014,2.2868 2.45781,0.26915 -1.88435,1.60078 z"
               transform="matrix(1.0133273,0,0,1.0133273,-268.95197,974.58915)"
               inkscape:transform-center-x="1.0196929"
               inkscape:transform-center-y="-89.532179"
               inkscape:label="path5969" /></g><g
             id="g18011"
             transform="rotate(82.5,715.32761,560.58954)"
             inkscape:transform-center-x="-88.666206"
             inkscape:transform-center-y="-11.806367"><path
               sodipodi:type="star"
               style="fill:#fefeff;fill-opacity:1;stroke:#ffffff;stroke-width:2.22;stroke-linecap:round;stroke-opacity:1;paint-order:stroke fill markers"
               id="path18009"
               inkscape:flatsided="false"
               sodipodi:sides="5"
               sodipodi:cx="396.99625"
               sodipodi:cy="-372.60107"
               sodipodi:r1="3.6169088"
               sodipodi:r2="1.6637779"
               sodipodi:arg1="0.95906936"
               sodipodi:arg2="1.5873879"
               inkscape:rounded="0"
               inkscape:randomized="0"
               d="m 399.07337,-369.64006 -2.10473,-1.29747 -2.14661,1.22692 0.58356,-2.40265 -1.83021,-1.66242 2.46539,-0.18746 1.01548,-2.25435 0.94014,2.2868 2.45781,0.26915 -1.88435,1.60078 z"
               transform="matrix(1.0133273,0,0,1.0133273,-268.95197,974.58915)"
               inkscape:transform-center-x="1.0196929"
               inkscape:transform-center-y="-89.532179"
               inkscape:label="path5969" /></g><g
             id="g18015"
             transform="rotate(97.5,624.98471,510.37315)"
             inkscape:transform-center-x="-88.637973"
             inkscape:transform-center-y="11.777454"><path
               sodipodi:type="star"
               style="fill:#fefeff;fill-opacity:1;stroke:#ffffff;stroke-width:2.22;stroke-linecap:round;stroke-opacity:1;paint-order:stroke fill markers"
               id="path18013"
               inkscape:flatsided="false"
               sodipodi:sides="5"
               sodipodi:cx="396.99625"
               sodipodi:cy="-372.60107"
               sodipodi:r1="3.6169088"
               sodipodi:r2="1.6637779"
               sodipodi:arg1="0.95906936"
               sodipodi:arg2="1.5873879"
               inkscape:rounded="0"
               inkscape:randomized="0"
               d="m 399.07337,-369.64006 -2.10473,-1.29747 -2.14661,1.22692 0.58356,-2.40265 -1.83021,-1.66242 2.46539,-0.18746 1.01548,-2.25435 0.94014,2.2868 2.45781,0.26915 -1.88435,1.60078 z"
               transform="matrix(1.0133273,0,0,1.0133273,-268.95197,974.58915)"
               inkscape:transform-center-x="1.0196929"
               inkscape:transform-center-y="-89.532179"
               inkscape:label="path5969" /></g><g
             id="g18019"
             transform="rotate(112.5,553.34383,470.55213)"
             inkscape:transform-center-x="-82.323487"
             inkscape:transform-center-y="34.35403"><path
               sodipodi:type="star"
               style="fill:#fefeff;fill-opacity:1;stroke:#ffffff;stroke-width:2.22;stroke-linecap:round;stroke-opacity:1;paint-order:stroke fill markers"
               id="path18017"
               inkscape:flatsided="false"
               sodipodi:sides="5"
               sodipodi:cx="396.99625"
               sodipodi:cy="-372.60107"
               sodipodi:r1="3.6169088"
               sodipodi:r2="1.6637779"
               sodipodi:arg1="0.95906936"
               sodipodi:arg2="1.5873879"
               inkscape:rounded="0"
               inkscape:randomized="0"
               d="m 399.07337,-369.64006 -2.10473,-1.29747 -2.14661,1.22692 0.58356,-2.40265 -1.83021,-1.66242 2.46539,-0.18746 1.01548,-2.25435 0.94014,2.2868 2.45781,0.26915 -1.88435,1.60078 z"
               transform="matrix(1.0133273,0,0,1.0133273,-268.95197,974.58915)"
               inkscape:transform-center-x="1.0196929"
               inkscape:transform-center-y="-89.532179"
               inkscape:label="path5969" /></g><g
             id="g18023"
             transform="rotate(127.5,493.28797,437.17055)"
             inkscape:transform-center-x="-70.490908"
             inkscape:transform-center-y="54.23204"><path
               sodipodi:type="star"
               style="fill:#fefeff;fill-opacity:1;stroke:#ffffff;stroke-width:2.22;stroke-linecap:round;stroke-opacity:1;paint-order:stroke fill markers"
               id="path18021"
               inkscape:flatsided="false"
               sodipodi:sides="5"
               sodipodi:cx="396.99625"
               sodipodi:cy="-372.60107"
               sodipodi:r1="3.6169088"
               sodipodi:r2="1.6637779"
               sodipodi:arg1="0.95906936"
               sodipodi:arg2="1.5873879"
               inkscape:rounded="0"
               inkscape:randomized="0"
               d="m 399.07337,-369.64006 -2.10473,-1.29747 -2.14661,1.22692 0.58356,-2.40265 -1.83021,-1.66242 2.46539,-0.18746 1.01548,-2.25435 0.94014,2.2868 2.45781,0.26915 -1.88435,1.60078 z"
               transform="matrix(1.0133273,0,0,1.0133273,-268.95197,974.58915)"
               inkscape:transform-center-x="1.0196929"
               inkscape:transform-center-y="-89.532179"
               inkscape:label="path5969" /></g><g
             id="g18027"
             transform="rotate(142.5,440.5548,407.85923)"
             inkscape:transform-center-x="-54.322569"
             inkscape:transform-center-y="70.414225"><path
               sodipodi:type="star"
               style="fill:#fefeff;fill-opacity:1;stroke:#ffffff;stroke-width:2.22;stroke-linecap:round;stroke-opacity:1;paint-order:stroke fill markers"
               id="path18025"
               inkscape:flatsided="false"
               sodipodi:sides="5"
               sodipodi:cx="396.99625"
               sodipodi:cy="-372.60107"
               sodipodi:r1="3.6169088"
               sodipodi:r2="1.6637779"
               sodipodi:arg1="0.95906936"
               sodipodi:arg2="1.5873879"
               inkscape:rounded="0"
               inkscape:randomized="0"
               d="m 399.07337,-369.64006 -2.10473,-1.29747 -2.14661,1.22692 0.58356,-2.40265 -1.83021,-1.66242 2.46539,-0.18746 1.01548,-2.25435 0.94014,2.2868 2.45781,0.26915 -1.88435,1.60078 z"
               transform="matrix(1.0133273,0,0,1.0133273,-268.95197,974.58915)"
               inkscape:transform-center-x="1.0196929"
               inkscape:transform-center-y="-89.532179"
               inkscape:label="path5969" /></g><g
             id="g18031"
             transform="rotate(157.5,392.3333,381.05569)"
             inkscape:transform-center-x="-34.452251"
             inkscape:transform-center-y="82.335402"><path
               sodipodi:type="star"
               style="fill:#fefeff;fill-opacity:1;stroke:#ffffff;stroke-width:2.22;stroke-linecap:round;stroke-opacity:1;paint-order:stroke fill markers"
               id="path18029"
               inkscape:flatsided="false"
               sodipodi:sides="5"
               sodipodi:cx="396.99625"
               sodipodi:cy="-372.60107"
               sodipodi:r1="3.6169088"
               sodipodi:r2="1.6637779"
               sodipodi:arg1="0.95906936"
               sodipodi:arg2="1.5873879"
               inkscape:rounded="0"
               inkscape:randomized="0"
               d="m 399.07337,-369.64006 -2.10473,-1.29747 -2.14661,1.22692 0.58356,-2.40265 -1.83021,-1.66242 2.46539,-0.18746 1.01548,-2.25435 0.94014,2.2868 2.45781,0.26915 -1.88435,1.60078 z"
               transform="matrix(1.0133273,0,0,1.0133273,-268.95197,974.58915)"
               inkscape:transform-center-x="1.0196929"
               inkscape:transform-center-y="-89.532179"
               inkscape:label="path5969" /></g><g
             id="g18035"
             transform="rotate(172.5,346.57293,355.62015)"
             inkscape:transform-center-x="-11.806385"
             inkscape:transform-center-y="88.666214"><path
               sodipodi:type="star"
               style="fill:#fefeff;fill-opacity:1;stroke:#ffffff;stroke-width:2.22;stroke-linecap:round;stroke-opacity:1;paint-order:stroke fill markers"
               id="path18033"
               inkscape:flatsided="false"
               sodipodi:sides="5"
               sodipodi:cx="396.99625"
               sodipodi:cy="-372.60107"
               sodipodi:r1="3.6169088"
               sodipodi:r2="1.6637779"
               sodipodi:arg1="0.95906936"
               sodipodi:arg2="1.5873879"
               inkscape:rounded="0"
               inkscape:randomized="0"
               d="m 399.07337,-369.64006 -2.10473,-1.29747 -2.14661,1.22692 0.58356,-2.40265 -1.83021,-1.66242 2.46539,-0.18746 1.01548,-2.25435 0.94014,2.2868 2.45781,0.26915 -1.88435,1.60078 z"
               transform="matrix(1.0133273,0,0,1.0133273,-268.95197,974.58915)"
               inkscape:transform-center-x="1.0196929"
               inkscape:transform-center-y="-89.532179"
               inkscape:label="path5969" /></g><g
             id="g18039"
             transform="rotate(-172.5,301.59553,330.61982)"
             inkscape:transform-center-x="11.777442"
             inkscape:transform-center-y="88.637982"><path
               sodipodi:type="star"
               style="fill:#fefeff;fill-opacity:1;stroke:#ffffff;stroke-width:2.22;stroke-linecap:round;stroke-opacity:1;paint-order:stroke fill markers"
               id="path18037"
               inkscape:flatsided="false"
               sodipodi:sides="5"
               sodipodi:cx="396.99625"
               sodipodi:cy="-372.60107"
               sodipodi:r1="3.6169088"
               sodipodi:r2="1.6637779"
               sodipodi:arg1="0.95906936"
               sodipodi:arg2="1.5873879"
               inkscape:rounded="0"
               inkscape:randomized="0"
               d="m 399.07337,-369.64006 -2.10473,-1.29747 -2.14661,1.22692 0.58356,-2.40265 -1.83021,-1.66242 2.46539,-0.18746 1.01548,-2.25435 0.94014,2.2868 2.45781,0.26915 -1.88435,1.60078 z"
               transform="matrix(1.0133273,0,0,1.0133273,-268.95197,974.58915)"
               inkscape:transform-center-x="1.0196929"
               inkscape:transform-center-y="-89.532179"
               inkscape:label="path5969" /></g><g
             id="g18043"
             transform="rotate(-157.5,255.83516,305.18428)"
             inkscape:transform-center-x="34.354019"
             inkscape:transform-center-y="82.323499"><path
               sodipodi:type="star"
               style="fill:#fefeff;fill-opacity:1;stroke:#ffffff;stroke-width:2.22;stroke-linecap:round;stroke-opacity:1;paint-order:stroke fill markers"
               id="path18041"
               inkscape:flatsided="false"
               sodipodi:sides="5"
               sodipodi:cx="396.99625"
               sodipodi:cy="-372.60107"
               sodipodi:r1="3.6169088"
               sodipodi:r2="1.6637779"
               sodipodi:arg1="0.95906936"
               sodipodi:arg2="1.5873879"
               inkscape:rounded="0"
               inkscape:randomized="0"
               d="m 399.07337,-369.64006 -2.10473,-1.29747 -2.14661,1.22692 0.58356,-2.40265 -1.83021,-1.66242 2.46539,-0.18746 1.01548,-2.25435 0.94014,2.2868 2.45781,0.26915 -1.88435,1.60078 z"
               transform="matrix(1.0133273,0,0,1.0133273,-268.95197,974.58915)"
               inkscape:transform-center-x="1.0196929"
               inkscape:transform-center-y="-89.532179"
               inkscape:label="path5969" /></g><g
             id="g18047"
             transform="rotate(-142.5,207.61366,278.38074)"
             inkscape:transform-center-x="54.232031"
             inkscape:transform-center-y="70.490924"><path
               sodipodi:type="star"
               style="fill:#fefeff;fill-opacity:1;stroke:#ffffff;stroke-width:2.22;stroke-linecap:round;stroke-opacity:1;paint-order:stroke fill markers"
               id="path18045"
               inkscape:flatsided="false"
               sodipodi:sides="5"
               sodipodi:cx="396.99625"
               sodipodi:cy="-372.60107"
               sodipodi:r1="3.6169088"
               sodipodi:r2="1.6637779"
               sodipodi:arg1="0.95906936"
               sodipodi:arg2="1.5873879"
               inkscape:rounded="0"
               inkscape:randomized="0"
               d="m 399.07337,-369.64006 -2.10473,-1.29747 -2.14661,1.22692 0.58356,-2.40265 -1.83021,-1.66242 2.46539,-0.18746 1.01548,-2.25435 0.94014,2.2868 2.45781,0.26915 -1.88435,1.60078 z"
               transform="matrix(1.0133273,0,0,1.0133273,-268.95197,974.58915)"
               inkscape:transform-center-x="1.0196929"
               inkscape:transform-center-y="-89.532179"
               inkscape:label="path5969" /></g><g
             id="g18051"
             transform="rotate(-127.5,154.88049,249.06943)"
             inkscape:transform-center-x="70.414233"
             inkscape:transform-center-y="54.322599"><path
               sodipodi:type="star"
               style="fill:#fefeff;fill-opacity:1;stroke:#ffffff;stroke-width:2.22;stroke-linecap:round;stroke-opacity:1;paint-order:stroke fill markers"
               id="path18049"
               inkscape:flatsided="false"
               sodipodi:sides="5"
               sodipodi:cx="396.99625"
               sodipodi:cy="-372.60107"
               sodipodi:r1="3.6169088"
               sodipodi:r2="1.6637779"
               sodipodi:arg1="0.95906936"
               sodipodi:arg2="1.5873879"
               inkscape:rounded="0"
               inkscape:randomized="0"
               d="m 399.07337,-369.64006 -2.10473,-1.29747 -2.14661,1.22692 0.58356,-2.40265 -1.83021,-1.66242 2.46539,-0.18746 1.01548,-2.25435 0.94014,2.2868 2.45781,0.26915 -1.88435,1.60078 z"
               transform="matrix(1.0133273,0,0,1.0133273,-268.95197,974.58915)"
               inkscape:transform-center-x="1.0196929"
               inkscape:transform-center-y="-89.532179"
               inkscape:label="path5969" /></g><g
             id="g18055"
             transform="rotate(-112.5,94.824625,215.68785)"
             inkscape:transform-center-x="82.33541"
             inkscape:transform-center-y="34.452266"><path
               sodipodi:type="star"
               style="fill:#fefeff;fill-opacity:1;stroke:#ffffff;stroke-width:2.22;stroke-linecap:round;stroke-opacity:1;paint-order:stroke fill markers"
               id="path18053"
               inkscape:flatsided="false"
               sodipodi:sides="5"
               sodipodi:cx="396.99625"
               sodipodi:cy="-372.60107"
               sodipodi:r1="3.6169088"
               sodipodi:r2="1.6637779"
               sodipodi:arg1="0.95906936"
               sodipodi:arg2="1.5873879"
               inkscape:rounded="0"
               inkscape:randomized="0"
               d="m 399.07337,-369.64006 -2.10473,-1.29747 -2.14661,1.22692 0.58356,-2.40265 -1.83021,-1.66242 2.46539,-0.18746 1.01548,-2.25435 0.94014,2.2868 2.45781,0.26915 -1.88435,1.60078 z"
               transform="matrix(1.0133273,0,0,1.0133273,-268.95197,974.58915)"
               inkscape:transform-center-x="1.0196929"
               inkscape:transform-center-y="-89.532179"
               inkscape:label="path5969" /></g><g
             id="g18059"
             transform="rotate(-97.5,23.183742,175.86683)"
             inkscape:transform-center-x="88.66622"
             inkscape:transform-center-y="11.806393"><path
               sodipodi:type="star"
               style="fill:#fefeff;fill-opacity:1;stroke:#ffffff;stroke-width:2.22;stroke-linecap:round;stroke-opacity:1;paint-order:stroke fill markers"
               id="path18057"
               inkscape:flatsided="false"
               sodipodi:sides="5"
               sodipodi:cx="396.99625"
               sodipodi:cy="-372.60107"
               sodipodi:r1="3.6169088"
               sodipodi:r2="1.6637779"
               sodipodi:arg1="0.95906936"
               sodipodi:arg2="1.5873879"
               inkscape:rounded="0"
               inkscape:randomized="0"
               d="m 399.07337,-369.64006 -2.10473,-1.29747 -2.14661,1.22692 0.58356,-2.40265 -1.83021,-1.66242 2.46539,-0.18746 1.01548,-2.25435 0.94014,2.2868 2.45781,0.26915 -1.88435,1.60078 z"
               transform="matrix(1.0133273,0,0,1.0133273,-268.95197,974.58915)"
               inkscape:transform-center-x="1.0196929"
               inkscape:transform-center-y="-89.532179"
               inkscape:label="path5969" /></g></g></g><g
         id="g16857"
         inkscape:label="Texts"
         transform="translate(-779.21292,8.6898665)"><circle
           style="fill:none;fill-opacity:1;stroke:none;stroke-width:3.01836;stroke-linecap:round;stroke-opacity:1;paint-order:stroke fill markers"
           id="circle16841"
           cx="-1.4210855e-14"
           cy="-55.295727"
           transform="matrix(0,-1,-1,0,0,0)"
           r="76.490822"
           inkscape:label="Bottom-text-path" /><circle
           style="fill:none;fill-opacity:1;stroke:none;stroke-width:2.48601;stroke-linecap:round;stroke-opacity:1;paint-order:stroke fill markers"
           id="circle16843"
           cx="1.4210855e-14"
           cy="-55.295727"
           transform="rotate(90)"
           inkscape:label="Top-text-path"
           r="63" /><g
           aria-label="Cexplorer.io"
           id="text16851"
           style="font-size:16.8px;font-family:ROBOTO;-inkscape-font-specification:ROBOTO;text-align:center;letter-spacing:1.2px;text-anchor:middle;fill:#fefeff;stroke:#ffffff;stroke-width:0.744;stroke-linecap:round;paint-order:stroke fill markers"><path
             d="m 14.858755,-48.055292 q -1.276057,1.082623 -2.776689,1.355314 -1.499685,0.261129 -2.987961,-0.32652 -1.4873279,-0.599212 -2.7397738,-2.075435 -1.2630598,-1.488732 -1.6119449,-3.053813 -0.3426299,-1.570388 0.1646503,-3.001236 0.5135355,-1.436154 1.7895923,-2.518777 0.8194286,-0.695214 1.7269808,-1.045643 0.9075521,-0.350429 1.8275993,-0.356455 0.926303,-0.01133 1.806343,0.328555 0.880039,0.33989 1.656004,1.026262 l -1.945361,1.650469 q -0.431578,-0.343851 -0.889889,-0.503656 -0.463618,-0.16606 -0.92459,-0.151485 -0.466279,0.0083 -0.9183498,0.198225 -0.4511226,0.178342 -0.8702197,0.533909 -0.7944079,0.673986 -1.0336487,1.53318 -0.2329856,0.853886 0.061147,1.809201 0.2888255,0.94906 1.1007925,1.906103 0.80666,0.950787 1.6897276,1.395684 0.8893231,0.43959 1.7760141,0.343529 0.886692,-0.09606 1.6811,-0.770048 0.419097,-0.355567 0.673861,-0.765351 0.254765,-0.409783 0.338942,-0.868477 0.08418,-0.458693 0.0012,-0.936917 -0.083,-0.478223 -0.334126,-0.964414 l 1.939106,-1.645162 q 0.545472,0.871168 0.737441,1.794824 0.19197,0.923657 0.02987,1.835737 -0.162098,0.91208 -0.655706,1.750413 -0.49266,0.826771 -1.312089,1.521984 z"
             style="font-weight:bold;font-family:Inter;-inkscape-font-specification:Inter"
             id="path5794" /><path
             d="m 24.407684,-54.696185 q -1.103047,0.632425 -2.175545,0.575976 -1.065382,-0.06053 -1.984075,-0.706316 -0.922773,-0.652904 -1.571518,-1.784416 -0.656906,-1.145745 -0.732824,-2.284189 -0.07592,-1.138443 0.402965,-2.084367 0.474803,-0.95304 1.471103,-1.524262 0.782807,-0.448818 1.572259,-0.523215 0.796568,-0.07848 1.546835,0.191089 0.750267,0.269565 1.401285,0.860796 0.654055,0.580033 1.155915,1.455354 l 0.191767,0.334472 -6.177059,3.541579 -0.595704,-1.038998 5.500999,-3.153964 -0.311411,0.660789 q -0.440657,-0.768574 -1.04053,-1.171645 -0.596838,-0.414268 -1.270434,-0.434664 -0.677677,-0.02751 -1.353738,0.360104 -0.668944,0.383535 -0.987567,0.982269 -0.315587,0.587538 -0.266715,1.315978 0.05191,0.717244 0.492566,1.485818 l 0.293772,0.512383 q 0.444737,0.775691 1.050778,1.222505 0.613158,0.442733 1.321389,0.49055 0.70415,0.0407 1.437142,-0.379556 0.533732,-0.306012 0.845525,-0.702259 0.307712,-0.403363 0.399653,-0.853219 0.09906,-0.453936 -0.01149,-0.910622 l 1.209793,-0.693627 q 0.269767,0.800362 0.135605,1.605377 -0.138243,0.797899 -0.638857,1.49152 -0.493497,0.689542 -1.311886,1.15876 z"
             style="font-family:Inter;-inkscape-font-specification:Inter"
             id="path5796" /><path
             d="m 29.024949,-57.419381 1.614151,-5.923659 0.376633,1.006479 -4.912407,-3.239941 1.532131,-0.586708 1.70565,1.17392 q 0.511287,0.348818 1.007253,0.703503 0.493033,0.347025 0.999593,0.706438 l -0.643494,0.246417 q 0.144595,-0.608763 0.279735,-1.196338 0.139868,-0.59817 0.287397,-1.199272 l 0.500618,-2.018779 1.509149,-0.577907 -1.49956,5.695313 -0.387227,-1.011206 5.122496,3.352738 -1.524469,0.583774 -1.99104,-1.345722 q -0.497759,-0.33643 -0.977264,-0.671067 -0.479505,-0.334637 -0.972538,-0.681662 l 0.651156,-0.249351 q -0.135141,0.587575 -0.276149,1.159829 -0.141008,0.572254 -0.286743,1.155102 l -0.598262,2.337258 z"
             style="font-family:Inter;-inkscape-font-specification:Inter"
             id="path5798" /><path
             d="m 39.607891,-57.605288 -2.432547,-11.844188 1.333878,-0.273951 0.257447,1.253524 0.01607,-0.0033 q 0.175836,-0.530199 0.529315,-0.929396 0.353479,-0.399197 0.836389,-0.657489 0.48126,-0.266327 1.027668,-0.378548 1.108886,-0.227742 2.050404,0.15672 0.941518,0.384462 1.604173,1.286785 0.661006,0.894288 0.930005,2.204059 0.267349,1.301736 0.01397,2.392193 -0.255031,1.082423 -0.967157,1.814882 -0.713776,0.724425 -1.822662,0.952166 -0.546407,0.112221 -1.069573,0.05218 -0.521516,-0.052 -0.997333,-0.289255 -0.475818,-0.23725 -0.881832,-0.664699 l -0.01607,0.0033 0.953875,4.644465 z m 2.915536,-5.213053 q 0.739258,-0.151828 1.227473,-0.628942 0.488214,-0.477115 0.664404,-1.250243 0.176189,-0.773128 -0.0367,-1.809695 -0.214539,-1.044603 -0.681182,-1.685706 -0.466643,-0.641104 -1.103385,-0.887176 -0.636742,-0.246072 -1.375999,-0.09424 -0.78747,0.16173 -1.285155,0.674286 -0.497684,0.512557 -0.664188,1.29207 -0.166504,0.779513 0.03153,1.743762 0.196386,0.956213 0.656644,1.607002 0.460257,0.65079 1.119671,0.925703 0.659415,0.274913 1.446884,0.113183 z"
             style="font-family:Inter;-inkscape-font-specification:Inter"
             id="path5800" /><path
             d="m 49.868364,-75.032574 0.983695,12.183007 -1.390008,0.112234 -0.983695,-12.183007 z"
             style="font-family:Inter;-inkscape-font-specification:Inter"
             id="path5802" /><path
             d="m 57.684922,-62.75852 q -1.196813,-0.04493 -2.085176,-0.652908 -0.879858,-0.615865 -1.349932,-1.651417 -0.461876,-1.035245 -0.412327,-2.355018 0.04986,-1.327971 0.588364,-2.333866 0.546705,-1.005588 1.470265,-1.553747 0.931756,-0.547851 2.128569,-0.502918 1.20501,0.04524 2.084868,0.661105 0.879858,0.615865 1.341427,1.659307 0.469766,1.04375 0.419909,2.37172 -0.04955,1.319774 -0.595946,2.317164 -0.5382,0.997698 -1.461759,1.545857 -0.923252,0.539961 -2.128262,0.494721 z m 0.04739,-1.262392 q 0.819735,0.03078 1.416827,-0.349044 0.597092,-0.379819 0.935982,-1.097689 0.339197,-0.726066 0.37582,-1.701551 0.03724,-0.991879 -0.24687,-1.733138 -0.283802,-0.749456 -0.850425,-1.181174 -0.566624,-0.431719 -1.386359,-0.462494 -0.811538,-0.03047 -1.417135,0.357241 -0.597092,0.379819 -0.936289,1.105886 -0.339198,0.726067 -0.376436,1.717946 -0.03693,0.983682 0.247178,1.724941 0.284109,0.741259 0.851041,1.164779 0.566931,0.423521 1.386666,0.454297 z"
             style="font-family:Inter;-inkscape-font-specification:Inter"
             id="path5804" /><path
             d="m 64.50772,-62.351707 1.472099,-8.5365 1.309576,0.225834 -0.231409,1.341912 0.03234,0.0056 q 0.348741,-0.622445 0.927723,-0.938812 0.578981,-0.316366 1.379278,-0.178357 0.185928,0.03206 0.336732,0.07472 0.158888,0.04405 0.236938,0.07416 l -0.236986,1.374247 q -0.07666,-0.03819 -0.30551,-0.110954 -0.219376,-0.07945 -0.518477,-0.131031 -0.468861,-0.08085 -0.91069,0.06771 -0.441829,0.148561 -0.763804,0.567517 -0.321974,0.418956 -0.447437,1.146498 l -0.906121,5.254475 z"
             style="font-family:Inter;-inkscape-font-specification:Inter"
             id="path5806" /><path
             d="m 74.208055,-59.905665 q -1.213253,-0.380379 -1.900034,-1.206073 -0.678954,-0.82324 -0.828643,-1.936178 -0.147235,-1.120766 0.242959,-2.36533 0.395103,-1.260218 1.179334,-2.088951 0.78423,-0.828733 1.803832,-1.119444 1.022056,-0.298538 2.117898,0.04503 0.861019,0.269946 1.451672,0.799 0.59848,0.531509 0.910009,1.265345 0.311529,0.733836 0.319521,1.613219 0.01827,0.87401 -0.283575,1.836786 l -0.11534,0.367889 -6.794221,-2.130118 0.358292,-1.142807 6.050614,1.896984 -0.696561,0.220053 q 0.265038,-0.845364 0.153638,-1.55944 -0.101118,-0.719449 -0.543515,-1.227813 -0.439943,-0.516191 -1.18355,-0.749326 -0.73578,-0.230681 -1.391679,-0.05806 -0.645618,0.167251 -1.147213,0.697738 -0.491313,0.525114 -0.756351,1.370478 l -0.176691,0.563576 q -0.267492,0.853191 -0.184017,1.601497 0.0913,0.750759 0.537083,1.303168 0.448236,0.544582 1.254463,0.797349 0.587058,0.184054 1.089665,0.143904 0.505062,-0.04798 0.897748,-0.28593 0.400513,-0.235499 0.660725,-0.626743 l 1.330665,0.417189 q -0.404408,0.741491 -1.086499,1.189598 -0.679637,0.440281 -1.528769,0.543726 -0.841304,0.105899 -1.74146,-0.176316 z"
             style="font-family:Inter;-inkscape-font-specification:Inter"
             id="path5808" /><path
             d="m 80.477228,-57.777399 3.609932,-7.874471 1.208016,0.553797 -0.567471,1.237843 0.02983,0.01367 q 0.496566,-0.512329 1.137275,-0.669808 0.640708,-0.157479 1.37894,0.180953 0.171508,0.07862 0.306352,0.15849 0.142301,0.08328 0.210033,0.132383 l -0.581145,1.26767 q -0.06431,-0.05656 -0.266889,-0.185519 -0.1917,-0.133003 -0.467605,-0.259487 -0.432499,-0.198273 -0.897643,-0.167862 -0.465143,0.03041 -0.883704,0.352899 -0.418561,0.322487 -0.726226,0.993607 l -2.222023,4.846975 z"
             style="font-family:Inter;-inkscape-font-specification:Inter"
             id="path5810" /><path
             d="m 86.108686,-54.803396 q -0.371631,-0.209394 -0.491095,-0.615669 -0.10829,-0.409396 0.101104,-0.781026 0.213422,-0.378778 0.61567,-0.491095 0.409395,-0.108291 0.781026,0.101104 0.378777,0.213422 0.491095,0.61567 0.112317,0.402248 -0.101105,0.781026 -0.209394,0.371631 -0.615669,0.491095 -0.402249,0.112317 -0.781026,-0.101105 z"
             style="font-family:Inter;-inkscape-font-specification:Inter"
             id="path5812" /><path
             d="m 89.66592,-52.811898 4.811696,-7.203227 1.159611,0.774611 -4.811697,7.203226 z m 6.330147,-8.221096 q -0.327419,-0.218714 -0.404419,-0.605558 -0.077,-0.386844 0.141713,-0.714263 0.218714,-0.32742 0.605558,-0.40442 0.386844,-0.077 0.714263,0.141714 0.32742,0.218713 0.40442,0.605557 0.077,0.386844 -0.141714,0.714264 -0.218713,0.327419 -0.605557,0.404419 -0.386845,0.077 -0.714264,-0.141713 z"
             style="font-family:Inter;-inkscape-font-specification:Inter"
             id="path5814" /><path
             d="m 96.123878,-47.722538 q -0.909702,-0.778988 -1.227838,-1.807391 -0.306569,-1.029298 -0.03127,-2.132725 0.281525,-1.098091 1.140546,-2.101256 0.864356,-1.009396 1.911379,-1.462783 1.053253,-0.448052 2.117465,-0.303533 1.07044,0.149855 1.98015,0.928843 0.91593,0.784323 1.2225,1.813621 0.30657,1.029298 0.0197,2.13362 -0.28063,1.109658 -1.14499,2.119054 -0.85902,1.003165 -1.90694,1.444986 -1.041679,0.447156 -2.105894,0.302637 -1.058879,-0.15075 -1.974813,-0.935073 z m 0.821672,-0.959549 q 0.623084,0.533553 1.326915,0.607065 0.70383,0.07351 1.415465,-0.278283 0.71697,-0.358025 1.3519,-1.099495 0.6456,-0.753931 0.88369,-1.511226 0.24342,-0.763526 0.0678,-1.45389 -0.17561,-0.690365 -0.7987,-1.223918 -0.61685,-0.528218 -1.332246,-0.600835 -0.70383,-0.07351 -1.4208,0.284514 -0.71697,0.358025 -1.362569,1.111957 -0.640264,0.7477 -0.878355,1.504995 -0.23809,0.757295 -0.05714,1.441429 0.180949,0.684134 0.804032,1.217687 z"
             style="font-family:Inter;-inkscape-font-specification:Inter"
             id="path5816" /></g><g
           aria-label="300 delegators"
           id="text16855"
           style="font-size:16.8px;font-family:ROBOTO;-inkscape-font-specification:ROBOTO;text-align:center;letter-spacing:1.34783px;text-anchor:middle;fill:#fefeff;stroke:#ffffff;stroke-width:0.744;stroke-linecap:round;paint-order:stroke fill markers"><path
             d="m -1.4526062,51.5821 q -1.0261714,-1.12915 -1.2963708,-2.280252 -0.2701993,-1.151102 0.081464,-2.191192 0.3571807,-1.03402 1.2192202,-1.817441 l 1.62201292,1.784786 q -0.52208024,0.474466 -0.72191804,1.010785 -0.19432076,0.542391 -0.0636308,1.088695 0.13620698,0.552376 0.59963925,1.062315 0.44136406,0.485656 0.93629602,0.700937 0.50100265,0.209765 0.99211735,0.140316 0.4911148,-0.06945 0.891781,-0.433574 Q 3.19653,50.294384 3.2777221,49.810467 3.3644312,49.33262 3.158144,48.788511 2.957374,48.250472 2.4663564,47.710179 L 1.7325887,46.902776 3.0984963,45.66144 3.832264,46.468843 q 0.4468812,0.491727 0.918084,0.717489 0.4712028,0.225762 0.9087885,0.182791 0.4436565,-0.04849 0.8078985,-0.379511 0.3885248,-0.353091 0.5144069,-0.80003 0.1258821,-0.44694 -0.0142,-0.918201 Q 6.832676,44.80619 6.4409654,44.375171 6.0382207,43.93201 5.5587326,43.758116 5.0792445,43.584221 4.5864688,43.688433 4.0992101,43.798716 3.6621197,44.195944 L 2.062175,42.435441 q 0.8256153,-0.750319 1.8277178,-0.940531 1.0136903,-0.189658 2.0460491,0.202286 1.0323589,0.391944 1.9316381,1.381468 0.8441088,0.928817 1.167303,1.94308 0.3347819,1.014817 0.1337784,1.940157 -0.1894157,0.925893 -0.9300411,1.598974 -0.7588376,0.689631 -1.7167648,0.684512 -0.9518566,-0.01064 -1.8048432,-0.632101 l -0.018212,0.01655 q 0.4948542,0.703075 0.5935102,1.433676 0.1047267,0.725085 -0.1354108,1.375621 Q 4.916762,52.08967 4.3764697,52.580687 3.59942,53.28687 2.5835346,53.400931 1.5792369,53.515545 0.52095374,53.058485 -0.53125869,52.595907 -1.4526062,51.5821 Z"
             style="font-weight:bold;font-family:Inter;-inkscape-font-specification:'Inter Bold'"
             id="path5819" /><path
             d="M 7.2920043,59.808556 Q 6.0962745,58.847652 5.7045359,57.554144 5.3243302,56.259381 5.7413749,54.784452 6.1648138,53.314663 7.382645,51.799219 q 1.2229698,-1.521838 2.5671846,-2.25168 1.3506094,-0.724703 2.6968584,-0.632063 1.346249,0.09264 2.548373,1.058682 1.19573,0.960905 1.575935,2.255668 0.391739,1.293508 -0.03684,2.769692 -0.417045,1.474928 -1.640015,2.996766 -1.217831,1.515444 -2.56844,2.240147 -1.344215,0.729842 -2.6968582,0.632064 -1.3411106,-0.09903 -2.5368404,-1.059939 z m 1.264078,-1.572992 q 0.6202448,0.498437 1.3915715,0.455295 0.7713272,-0.04314 1.6155172,-0.596009 0.84419,-0.552866 1.676632,-1.588739 0.83758,-1.042267 1.195805,-1.985662 0.358225,-0.943394 0.234353,-1.705931 -0.118733,-0.76893 -0.738978,-1.267368 -0.620245,-0.498437 -1.403104,-0.454039 -0.771327,0.04314 -1.615518,0.596009 -0.837796,0.558005 -1.6753757,1.600272 -0.8324416,1.035873 -1.1970611,1.974129 -0.3582253,0.943395 -0.2343532,1.705931 0.1302664,0.767675 0.7505113,1.266112 z"
             style="font-weight:bold;font-family:Inter;-inkscape-font-specification:'Inter Bold'"
             id="path5821" /><path
             d="M 17.458676,66.718803 Q 16.125,65.960901 15.531978,64.746427 q -0.581836,-1.217552 -0.405362,-2.740115 0.183607,-1.518509 1.144157,-3.208783 0.964603,-1.697406 2.175212,-2.63229 1.217741,-0.930832 2.561533,-1.054087 1.343792,-0.123255 2.6846,0.6387 1.333676,0.757902 1.915513,1.975455 0.593021,1.214473 0.405361,2.740115 -0.176474,1.522562 -1.141077,3.219968 -0.96055,1.690274 -2.178291,2.621105 -1.210609,0.934885 -2.561533,1.054087 -1.339739,0.116123 -2.673415,-0.641779 z m 0.997027,-1.754461 q 0.691799,0.393136 1.446373,0.227529 0.754573,-0.165606 1.499783,-0.846033 0.745209,-0.680427 1.401788,-1.835804 0.660631,-1.162509 0.863812,-2.150961 0.203181,-0.988451 -0.04072,-1.721471 -0.239848,-0.740152 -0.931648,-1.133289 -0.6918,-0.393136 -1.457558,-0.22445 -0.754573,0.165606 -1.499783,0.846033 -0.738078,0.68448 -1.398709,1.846989 -0.656578,1.155377 -0.866891,2.139776 -0.203181,0.988451 0.04072,1.721471 0.251033,0.737073 0.942833,1.13021 z"
             style="font-weight:bold;font-family:Inter;-inkscape-font-specification:'Inter Bold'"
             id="path5823" /><path
             d="m 32.123073,73.111566 q -1.08273,-0.330438 -1.725637,-1.118434 -0.642906,-0.787996 -0.793206,-1.897369 -0.142455,-1.106979 0.252633,-2.401548 0.390299,-1.278878 1.132034,-2.107436 0.751976,-0.834009 1.717474,-1.131138 0.975738,-0.30258 2.034931,0.02067 0.541365,0.165219 0.950931,0.45317 0.41196,0.280105 0.684275,0.680548 0.272315,0.400444 0.40259,0.929071 l 0.0078,0.0024 1.388794,-4.550607 2.306687,0.703975 -3.567765,11.690353 -2.275303,-0.694397 0.387904,-1.271032 -0.0078,-0.0024 q -0.389285,0.40437 -0.858609,0.621356 -0.459083,0.211535 -0.977725,0.224784 -0.518642,0.01325 -1.060008,-0.151969 z m 1.17096,-1.70103 q 0.588441,0.179585 1.110954,0.01314 0.532754,-0.171899 0.943589,-0.646881 0.410835,-0.474983 0.635916,-1.212495 0.227474,-0.745358 0.149471,-1.360952 -0.07561,-0.62344 -0.423988,-1.055674 -0.338139,-0.437685 -0.926579,-0.61727 -0.557057,-0.170008 -1.061484,-0.0066 -0.504427,0.163391 -0.905022,0.632922 -0.392749,0.471925 -0.629802,1.248667 -0.237053,0.776742 -0.177135,1.395393 0.07016,0.613199 0.397393,1.030404 0.32963,0.409358 0.886687,0.579366 z"
             style="font-weight:bold;font-family:Inter;-inkscape-font-specification:'Inter Bold'"
             id="path5825" /><path
             d="M 43.796937,75.831395 Q 42.49927,75.634628 41.620216,74.920553 40.750503,74.199597 40.36894,73.104628 39.995487,72.01089 40.192255,70.713223 q 0.199227,-1.313887 0.887009,-2.238412 0.697123,-0.931406 1.733357,-1.36336 1.036234,-0.431953 2.260907,-0.246254 0.948919,0.143887 1.670216,0.585134 0.722528,0.433137 1.191142,1.118164 0.469843,0.676916 0.646949,1.53346 0.185216,0.857774 0.03641,1.839134 l -0.09715,0.640723 -7.567019,-1.1474 0.231202,-1.524758 6.415339,0.972769 -1.134026,0.201406 q 0.09838,-0.648834 -0.06549,-1.154902 -0.163874,-0.506068 -0.563713,-0.8239 -0.390498,-0.324713 -0.990669,-0.415718 -0.59206,-0.08977 -1.061266,0.104579 -0.467976,0.186244 -0.774506,0.620984 -0.30653,0.43474 -0.404914,1.083574 l -0.157414,1.038133 q -0.100843,0.665054 0.05811,1.203564 0.168295,0.531629 0.580666,0.876252 0.4136,0.336512 1.054323,0.433666 0.470404,0.07133 0.846939,-0.0043 0.385875,-0.08254 0.666081,-0.288955 0.289547,-0.213299 0.445404,-0.529839 l 2.181702,0.330815 q -0.283226,0.828228 -0.949339,1.390975 -0.666113,0.562748 -1.582388,0.805469 -0.915045,0.23461 -1.953178,0.0772 z"
             style="font-weight:bold;font-family:Inter;-inkscape-font-specification:'Inter Bold'"
             id="path5827" /><path
             d="M 53.577146,64.256959 53.031203,76.467416 50.613697,76.359326 51.15964,64.14887 Z"
             style="font-weight:bold;font-family:Inter;-inkscape-font-specification:'Inter Bold'"
             id="path5829" /><path
             d="m 60.048751,76.542839 q -1.310137,0.07872 -2.318991,-0.435922 -1.001157,-0.523319 -1.603086,-1.514393 -0.593741,-0.991566 -0.672459,-2.301703 -0.0797,-1.326514 0.399725,-2.374341 0.487122,-1.056508 1.410229,-1.695443 0.923107,-0.638936 2.159549,-0.713225 0.958038,-0.05756 1.755611,0.223234 0.797082,0.272607 1.398485,0.844599 0.600912,0.563803 0.953079,1.364436 0.360356,0.80014 0.419886,1.790932 l 0.03887,0.64688 -7.639738,0.45902 -0.09249,-1.539411 6.476991,-0.389159 -1.066912,0.43391 q -0.03936,-0.655069 -0.305356,-1.115726 -0.265998,-0.460657 -0.723421,-0.687929 -0.449726,-0.235953 -1.055664,-0.199546 -0.597751,0.03592 -1.01599,0.324017 -0.418732,0.279915 -0.627659,0.769107 -0.208927,0.489192 -0.169569,1.144261 l 0.06297,1.04811 q 0.04034,0.671445 0.308308,1.164856 0.275662,0.48473 0.750937,0.735583 0.474784,0.242665 1.121664,0.203798 0.474925,-0.02854 0.827341,-0.181196 0.360112,-0.161341 0.591003,-0.421751 0.238588,-0.269091 0.324865,-0.611209 l 2.202669,-0.132344 q -0.103921,0.869126 -0.637747,1.558633 -0.533827,0.689507 -1.379161,1.118322 -0.845827,0.420626 -1.893937,0.4836 z"
             style="font-weight:bold;font-family:Inter;-inkscape-font-specification:'Inter Bold'"
             id="path5831" /><path
             d="m 71.573828,78.377365 q -1.204765,0.25019 -2.119821,0.07996 -0.905357,-0.163869 -1.515694,-0.682239 -0.602305,-0.520038 -0.894578,-1.32229 l 2.281021,-0.473694 q 0.155067,0.302924 0.426658,0.481111 0.279623,0.176519 0.64834,0.217243 0.370385,0.04875 0.812132,-0.04298 0.867431,-0.180137 1.234865,-0.750751 0.375466,-0.572282 0.185322,-1.487904 l -0.270205,-1.301146 -0.008,0.0017 q -0.145573,0.549676 -0.456348,0.949339 -0.302744,0.397996 -0.75296,0.650675 -0.442183,0.251012 -0.996375,0.366099 -1.108383,0.230175 -2.050743,-0.152219 -0.942359,-0.382395 -1.601989,-1.259166 -0.651599,-0.87844 -0.913465,-2.139427 -0.265201,-1.277051 -0.01088,-2.351998 0.260686,-1.084647 0.964839,-1.808968 0.712184,-0.725989 1.796472,-0.95116 0.554192,-0.115088 1.051725,-0.05922 0.505565,0.0542 0.948108,0.289041 0.450574,0.233178 0.81403,0.65201 l 0.008,-0.0017 -0.255194,-1.22886 2.337244,-0.485368 1.692952,8.152241 q 0.278545,1.341305 -0.07006,2.285024 -0.346931,0.951751 -1.206587,1.532424 -0.849956,0.587037 -2.078816,0.842231 z m -1.208893,-5.337172 q 0.602382,-0.125095 0.982416,-0.514007 0.386397,-0.398611 0.520295,-1.004509 0.133897,-0.605898 -0.01955,-1.34482 -0.15345,-0.738922 -0.515854,-1.233377 -0.364072,-0.502485 -0.875565,-0.706256 -0.505128,-0.213471 -1.10751,-0.08838 -0.570256,0.118423 -0.935894,0.495967 -0.367306,0.369512 -0.494839,0.96571 -0.119502,0.594531 0.04229,1.373612 0.161789,0.779081 0.50813,1.276871 0.354372,0.496122 0.840102,0.696865 0.485729,0.200743 1.055984,0.08232 z"
             style="font-weight:bold;font-family:Inter;-inkscape-font-specification:'Inter Bold'"
             id="path5833" /><path
             d="m 80.48638,72.411263 q -0.809188,0.29513 -1.539501,0.255883 -0.730314,-0.03925 -1.289275,-0.446599 -0.561772,-0.415059 -0.856902,-1.224247 -0.250157,-0.685882 -0.161676,-1.233324 0.08567,-0.555148 0.423756,-0.992797 0.342982,-0.448166 0.859862,-0.802587 0.524586,-0.357232 1.136848,-0.64166 0.719427,-0.349709 1.133404,-0.579282 0.413976,-0.229572 0.558857,-0.430852 0.14488,-0.201281 0.04932,-0.463303 l -0.01968,-0.05395 q -0.109619,-0.300555 -0.352969,-0.465019 -0.24616,-0.172171 -0.594499,-0.193562 -0.340631,-0.0242 -0.756785,0.127578 -0.416154,0.151782 -0.692046,0.400845 -0.268185,0.246252 -0.366009,0.552614 -0.09782,0.306361 -0.01341,0.633572 l -2.134714,0.778581 q -0.252427,-0.859689 -0.03802,-1.636426 0.222119,-0.779548 0.902737,-1.403249 0.677808,-0.631407 1.795257,-1.038967 0.832307,-0.303563 1.557633,-0.349814 0.722515,-0.05396 1.3016,0.145226 0.586792,0.196373 1.00631,0.628389 0.419517,0.432016 0.658432,1.087072 l 2.012505,5.517888 -2.219486,0.8095 -0.418803,-1.148276 -0.03083,0.01124 q -0.06962,0.479442 -0.281594,0.879825 -0.21197,0.400384 -0.607631,0.728056 -0.398471,0.319966 -1.022701,0.547638 z m 0.05573,-1.810325 q 0.547164,-0.199564 0.867119,-0.543283 0.32766,-0.34653 0.416959,-0.772026 0.0893,-0.425496 -0.07091,-0.864769 l -0.297941,-0.816894 q -0.08051,0.09049 -0.222672,0.203458 -0.144973,0.105265 -0.343891,0.230206 -0.20173,0.117234 -0.439181,0.256228 -0.237452,0.138994 -0.493127,0.275904 -0.370548,0.205001 -0.638734,0.451254 -0.270996,0.238546 -0.377252,0.521787 -0.109066,0.275535 0.009,0.59921 0.103998,0.285142 0.334019,0.437004 0.230022,0.151862 0.554515,0.155755 0.324493,0.0039 0.702114,-0.133834 z"
             style="font-weight:bold;font-family:Inter;-inkscape-font-specification:'Inter Bold'"
             id="path5835" /><path
             d="m 88.36814,59.301056 0.855542,1.690791 -5.072374,2.566628 -0.855542,-1.690792 z m -4.806886,-0.215436 2.159236,-1.092576 3.770313,7.451193 q 0.196293,0.38793 0.427778,0.463862 0.238805,0.07223 0.677971,-0.149991 0.182986,-0.09259 0.431847,-0.218515 0.256181,-0.129628 0.39525,-0.199997 l 0.855543,1.690792 q -0.197625,0.1 -0.548958,0.277773 -0.351334,0.177775 -0.709986,0.359254 -1.273584,0.644435 -2.132945,0.454115 -0.852043,-0.194023 -1.385368,-1.248023 z"
             style="font-weight:bold;font-family:Inter;-inkscape-font-specification:'Inter Bold'"
             id="path5837" /><path
             d="m 97.880924,63.78667 q -1.084081,0.725229 -2.223796,0.806683 -1.139715,0.08145 -2.168935,-0.453833 -1.022402,-0.539847 -1.774998,-1.664837 -0.757158,-1.131809 -0.865932,-2.282856 -0.101955,-1.155608 0.408316,-2.177962 0.505709,-1.029173 1.589791,-1.754402 1.097717,-0.734352 2.235175,-0.804426 1.139715,-0.08145 2.162117,0.458393 1.02922,0.535287 1.786378,1.667095 0.752596,1.12499 0.854552,2.280598 0.108773,1.151047 -0.401497,2.173402 -0.503453,1.017793 -1.601171,1.752145 z M 96.7908,62.157139 q 0.490905,-0.328406 0.690319,-0.826981 0.194853,-0.505393 0.08011,-1.119497 -0.11474,-0.614105 -0.557175,-1.275462 -0.451558,-0.674995 -0.975385,-1.015427 -0.523827,-0.340433 -1.06077,-0.346399 -0.541504,-0.01278 -1.032409,0.315621 -0.484086,0.323845 -0.67894,0.829237 -0.199414,0.498575 -0.08467,1.11268 0.11474,0.614104 0.566298,1.289098 0.446997,0.668176 0.970824,1.008609 0.519265,0.333615 1.060769,0.346399 0.536943,0.006 1.021029,-0.317878 z"
             style="font-weight:bold;font-family:Inter;-inkscape-font-specification:'Inter Bold'"
             id="path5839" /><path
             d="m 103.48956,59.445385 -5.656305,-6.56088 1.764479,-1.521203 0.964146,1.118332 0.0186,-0.01607 q -0.32868,-0.745565 -0.18987,-1.363454 0.13881,-0.617889 0.79117,-1.180306 0.16154,-0.139265 0.29737,-0.245535 0.13668,-0.11784 0.25387,-0.208041 l 1.34444,1.559452 q -0.10476,0.07949 -0.34535,0.265247 -0.23438,0.180403 -0.47047,0.383944 -0.37278,0.321381 -0.52103,0.752448 -0.1536,0.424855 -0.0321,0.904976 0.12149,0.48012 0.55,0.977157 l 3.06383,3.55381 z"
             style="font-weight:bold;font-family:Inter;-inkscape-font-specification:'Inter Bold'"
             id="path5841" /><path
             d="m 111.78789,51.88668 q -0.76134,0.826645 -1.6094,1.238867 -0.85408,0.406665 -1.69246,0.348253 -0.83838,-0.05841 -1.57578,-0.626044 l 1.61161,-1.749832 q 0.4608,0.33518 0.97398,0.250219 0.51319,-0.08496 0.99111,-0.603878 0.4557,-0.49478 0.52428,-0.944615 0.0741,-0.455869 -0.22152,-0.728175 -0.25342,-0.233405 -0.61037,-0.160674 -0.35138,0.0667 -0.78501,0.392214 l -1.24532,0.916211 q -1.03683,0.762503 -1.95206,0.811748 -0.91523,0.04924 -1.65136,-0.628742 -0.60339,-0.555727 -0.75584,-1.298354 -0.1469,-0.74866 0.16144,-1.579898 0.3139,-0.837272 1.0808,-1.669951 0.76135,-0.826645 1.59368,-1.197583 0.8263,-0.376496 1.62578,-0.275846 0.80503,0.09461 1.48543,0.687813 l -1.51713,1.647256 q -0.39173,-0.349632 -0.91746,-0.287376 -0.52573,0.06226 -0.96476,0.538934 -0.42235,0.458577 -0.46219,0.901425 -0.0459,0.43729 0.23771,0.698482 0.24739,0.227848 0.59322,0.167185 0.34583,-0.06066 0.75771,-0.350454 l 1.34677,-0.990047 q 1.07622,-0.793149 1.92142,-0.851126 0.84473,-0.06957 1.55069,0.580633 0.63356,0.583514 0.77681,1.384573 0.14276,0.789467 -0.18082,1.673581 -0.32405,0.872522 -1.09096,1.705201 z"
             style="font-weight:bold;font-family:Inter;-inkscape-font-specification:'Inter Bold'"
             id="path5843" /></g></g><g
         id="g16885"
         inkscape:label="Middlepart"
         transform="matrix(0.82,0,0,0.82,-124.57452,4.9301506)"><g
           style="fill:none"
           id="g16865"
           transform="matrix(2.871673,0,0,2.871673,-765.28098,-27.943634)"
           inkscape:label="user"><path
             d="M 15.5,3.29076 C 16.9659,3.88415 18,5.32131 18,7 c 0,1.67869 -1.0341,3.1159 -2.5,3.7092 m -0.9693,4.5953 C 13.7956,15 12.8638,15 11,15 H 8 C 6.13623,15 5.20435,15 4.46927,15.3045 3.48915,15.7105 2.71046,16.4892 2.30448,17.4693 2,18.2044 2,19.1362 2,21"
             stroke="#000000"
             stroke-width="2"
             stroke-linecap="round"
             stroke-linejoin="round"
             id="path16859"
             style="stroke:#ffffff;stroke-opacity:1"
             sodipodi:nodetypes="csccssssc" /><g
             style="fill:none"
             id="g16863"
             transform="matrix(1.2195122,0,0,1.2195122,16.431792,-4.3044051)"><path
               d="M 2.1059357,20.761546 V 15.913074 M -0.31830037,18.33731 H 4.5301716"
               stroke="#000000"
               stroke-width="1.61616"
               stroke-linecap="round"
               stroke-linejoin="round"
               id="path16861"
               sodipodi:nodetypes="cccc"
               style="stroke:#ffffff;stroke-opacity:1" /></g></g><g
           id="g16883"
           transform="matrix(1.8892585,0,0,1.8892585,-739.72275,-5.9525966)"
           inkscape:label="Logo"
           style="display:inline">
		<g
   transform="translate(0.91990781,-0.8)"
   id="g16869"
   inkscape:label="Circle">
<path
   style="opacity:1;fill:#e4003a;fill-opacity:1;fill-rule:nonzero;stroke:none;stroke-width:1;stroke-linecap:butt;stroke-linejoin:miter;stroke-miterlimit:4;stroke-dasharray:none;stroke-dashoffset:0"
   d="m 0,7.39996 a 7.6,7.6 0 1 1 7.6,-7.6 7.6,7.6 0 0 1 -7.6,7.6 z"
   stroke-linecap="round"
   id="path16867" />
</g>
		<g
   transform="translate(0.81,-1.08)"
   id="g16873"
   style="display:none"
   inkscape:label="undefined">
<path
   style="opacity:1;fill:#ffffff;fill-rule:nonzero;stroke:none;stroke-width:1;stroke-linecap:butt;stroke-linejoin:miter;stroke-miterlimit:4;stroke-dasharray:none;stroke-dashoffset:0"
   transform="translate(-10.81,-11.92)"
   d="m 8.46,13.2 h -0.8 c -0.3,0 -0.4,-0.1 -0.4,-0.4 a 0.43,0.43 0 0 1 0.4,-0.4 h 0.9 a 0.35,0.35 0 0 0 0.2,-0.1 1.42,1.42 0 0 0 0.2,-0.6 h -0.7 a 0.4,0.4 0 1 1 0,-0.8 h 0.8 c 0.1,0 0.2,0 0.2,-0.1 a 23.29,23.29 0 0 0 1.1,-2.8 0.1,0.1 0 0 1 0.1,-0.1 c 0.1,-0.2 0.2,-0.3 0.4,-0.3 0.2,0 0.3,0.1 0.4,0.3 0.2,0.6 0.4,1.1 0.6,1.7 0.2,0.4 0.3,0.8 0.5,1.2 0,0.1 0.1,0.1 0.2,0.1 h 0.8 a 0.37,0.37 0 0 1 0.4,0.4 0.43,0.43 0 0 1 -0.4,0.4 h -0.7 a 4.88,4.88 0 0 0 0.3,0.7 0.35,0.35 0 0 0 0.2,0.1 h 0.9 c 0.1,0 0.3,0.1 0.3,0.2 a 0.6,0.6 0 0 1 -0.1,0.4 0.37,0.37 0 0 1 -0.3,0.1 h -0.8 a 3.55,3.55 0 0 0 0.4,0.9 l 0.6,1.5 c 0.1,0.3 0.1,0.5 -0.2,0.6 -0.3,0.1 -0.4,0 -0.5,-0.3 -0.3,-0.9 -0.7,-1.7 -1,-2.6 -0.1,-0.2 -0.1,-0.2 -0.3,-0.2 h -2.9 c -0.2,0 -0.2,0 -0.3,0.2 a 18.61,18.61 0 0 1 -1,2.5 c -0.1,0.2 -0.2,0.3 -0.4,0.3 a 0.27,0.27 0 0 1 -0.3,-0.3 0.37,0.37 0 0 1 0.1,-0.3 c 0.3,-0.7 0.5,-1.4 0.8,-2.1 0.2,0 0.2,-0.1 0.3,-0.2 z m 1,-0.8 h 2.7 c -0.1,-0.2 -0.2,-0.5 -0.3,-0.7 a 0.35,0.35 0 0 0 -0.2,-0.1 h -1.8 c -0.1,0 -0.1,0 -0.2,0.1 a 1.45,1.45 0 0 1 -0.2,0.7 z m 2.2,-1.5 c -0.3,-0.7 -0.5,-1.3 -0.8,-2 -0.3,0.7 -0.5,1.3 -0.8,2 z"
   stroke-linecap="round"
   id="path16871" />
</g>
<path
   style="opacity:1;fill:#050001;fill-opacity:1;stroke:#ffffff;stroke-width:0.786824;stroke-linecap:round;stroke-miterlimit:3.7;stroke-dasharray:none;stroke-opacity:1;paint-order:stroke fill markers"
   d="M -2.3986007,2.7360851 0.88883187,-5.0028575"
   id="path16875"
   sodipodi:nodetypes="cc" /><path
   style="opacity:1;fill:#050001;fill-opacity:1;stroke:#ffffff;stroke-width:0.786824;stroke-linecap:round;stroke-miterlimit:3.7;stroke-dasharray:none;stroke-opacity:1"
   d="M 4.2651388,2.7342975 0.98031102,-5.0045294"
   id="path16877"
   sodipodi:nodetypes="cc" /><path
   style="opacity:1;fill:#050001;fill-opacity:1;stroke:#ffffff;stroke-width:0.786824;stroke-linecap:round;stroke-miterlimit:3.7;stroke-dasharray:none;stroke-opacity:1"
   d="m -1.664028,-1.6872983 5.178973,-0.015567"
   id="path16879" /><path
   style="fill:#050001;fill-opacity:1;stroke:#ffffff;stroke-width:0.786824;stroke-linecap:round;stroke-miterlimit:3.7;stroke-dasharray:none;stroke-opacity:1"
   d="m -2.3298842,-0.18348542 6.5097684,-0.0124693"
   id="path16881" /></g></g><g
         id="g20182"
         inkscape:label="circles"
         transform="matrix(0.82310934,0,0,0.82310934,-2275.1896,-977.40065)"><circle
           style="fill:#e4003a;fill-opacity:1;stroke:none;stroke-width:0.511713;stroke-linecap:round;stroke-linejoin:round;stroke-dasharray:none;stroke-opacity:1;paint-order:stroke markers fill"
           id="circle20158"
           cx="-1259.1384"
           cy="1884.0352"
           inkscape:transform-center-x="6.1035156e-05"
           inkscape:transform-center-y="58.593567"
           transform="rotate(-90)"
           r="2.5585673" /><circle
           style="fill:#e4003a;fill-opacity:1;stroke:none;stroke-width:0.511713;stroke-linecap:round;stroke-linejoin:round;stroke-dasharray:none;stroke-opacity:1;paint-order:stroke markers fill"
           id="circle20160"
           cx="-156.27831"
           cy="2231.8948"
           inkscape:transform-center-x="29.296796"
           inkscape:transform-center-y="50.743509"
           transform="rotate(-60)"
           r="2.7632527" /></g></g></g></svg>
