<?xml version="1.0" encoding="UTF-8" standalone="no"?>
<svg
   inkscape:version="1.2.2 (b0a84865, 2022-12-01)"
   xml:space="preserve"
   sodipodi:docname="final_awards_pre-text-to-path.svg"
   id="svg134"
   version="1.1"
   viewBox="-120 -120 300 300.00013"
   height="250.00011"
   width="250"
   inkscape:export-filename="0.svg"
   inkscape:export-xdpi="96"
   inkscape:export-ydpi="96"
   xmlns:inkscape="http://www.inkscape.org/namespaces/inkscape"
   xmlns:sodipodi="http://sodipodi.sourceforge.net/DTD/sodipodi-0.dtd"
   xmlns="http://www.w3.org/2000/svg"
   xmlns:svg="http://www.w3.org/2000/svg"><defs
     id="defs138" /><sodipodi:namedview
     id="namedview136"
     pagecolor="#ffffff"
     bordercolor="#000000"
     borderopacity="0.25"
     inkscape:showpageshadow="2"
     inkscape:pageopacity="0.0"
     inkscape:pagecheckerboard="0"
     inkscape:deskcolor="#d1d1d1"
     showgrid="false"
     inkscape:zoom="0.35355339"
     inkscape:cx="1480.6816"
     inkscape:cy="663.26616"
     inkscape:window-width="1425"
     inkscape:window-height="949"
     inkscape:window-x="0"
     inkscape:window-y="25"
     inkscape:window-maximized="1"
     inkscape:current-layer="g19337"
     showguides="true" /><style
     type="text/css"
     id="style8571">
	.st0{fill:#ffffff;}
</style><g
     id="g12580"
     inkscape:label="Delegators"
     transform="translate(-2964.0352,-1170.5448)"><g
       id="g17453"
       inkscape:label="1000 delegators"
       transform="matrix(1.4245145,0,0,1.4245145,4025.2529,1185.9224)"
       inkscape:export-filename="./g8306.svg"
       inkscape:export-xdpi="96"
       inkscape:export-ydpi="96"><g
         id="g18265"
         inkscape:label="Borders"
         transform="translate(-779.20394,10.264873)"><path
           fill="none"
           stroke="black"
           stroke-width="2"
           d="M 155.29573,3.5528548e-7 Q 164.76573,10.78 153.37573,19.51 q 7.18,12.42 -5.69,18.76 4.62,13.58 -9.24,17.29 1.88,14.22 -12.44,15.15 -0.93,14.32 -15.15,12.44 -3.71,13.86 -17.290004,9.24 -6.34,12.87 -18.76,5.69 -8.73,11.39 -19.51,1.92 -10.78,9.47 -19.51,-1.92 -12.42,7.18 -18.76,-5.69 -13.5800024,4.62 -17.2900022,-9.24 -14.2199978,1.88 -15.1499978,-12.44 -14.32,-0.93 -12.44,-15.15 -13.86,-3.71 -9.24,-17.29 -12.87,-6.34 -5.69,-18.76 -11.39,-8.73 -1.92,-19.50999964471401 Q -54.174274,-10.78 -42.784274,-19.51 q -7.18,-12.42 5.69,-18.76 -4.62,-13.58 9.24,-17.29 -1.88,-14.22 12.44,-15.15 0.93,-14.32 15.1499978,-12.44 3.7099998,-13.86 17.2900022,-9.24 6.34,-12.87 18.76,-5.69 8.73,-11.39 19.51,-1.92 10.78,-9.47 19.51,1.92 12.42,-7.18 18.76,5.69 13.580004,-4.62 17.290004,9.24 14.22,-1.88 15.15,12.44 14.32,0.93 12.44,15.15 13.86,3.71 9.24,17.29 12.87,6.34 5.69,18.76 11.39,8.73 1.92,19.51000035528548 z"
           id="path18259"
           style="fill:#04344d;fill-opacity:1;stroke:#04344d;stroke-opacity:1"
           inkscape:export-filename="path132.svg"
           inkscape:export-xdpi="96"
           inkscape:export-ydpi="96" /><circle
           style="fill:none;fill-opacity:1;stroke:#efa900;stroke-width:3.6;stroke-linecap:round;stroke-dasharray:none;stroke-opacity:1;paint-order:stroke fill markers"
           id="circle18261"
           cx="55.295727"
           cy="1.4210855e-14"
           r="92.730682" /></g><g
         id="g17397"
         inkscape:label="Texts"
         transform="translate(-779.20394,9.347634)"><circle
           style="fill:none;fill-opacity:1;stroke:none;stroke-width:3.01836;stroke-linecap:round;stroke-opacity:1;paint-order:stroke fill markers"
           id="circle17381"
           cx="-1.4210855e-14"
           cy="-55.295727"
           transform="matrix(0,-1,-1,0,0,0)"
           r="76.490822"
           inkscape:label="Bottom-text-path" /><circle
           style="fill:none;fill-opacity:1;stroke:none;stroke-width:2.48601;stroke-linecap:round;stroke-opacity:1;paint-order:stroke fill markers"
           id="circle17383"
           cx="1.4210855e-14"
           cy="-55.295727"
           transform="rotate(90)"
           inkscape:label="Top-text-path"
           r="63" /><g
           aria-label="Cexplorer.io"
           id="text17391"
           style="font-size:16.8px;font-family:ROBOTO;-inkscape-font-specification:ROBOTO;text-align:center;letter-spacing:1.2px;text-anchor:middle;fill:#fefeff;stroke:#ffffff;stroke-width:0.744;stroke-linecap:round;paint-order:stroke fill markers"><path
             d="m 14.858755,-48.055292 q -1.276057,1.082623 -2.776689,1.355314 -1.499685,0.261129 -2.987961,-0.32652 -1.4873279,-0.599212 -2.7397738,-2.075435 -1.2630598,-1.488732 -1.6119449,-3.053813 -0.3426299,-1.570388 0.1646503,-3.001236 0.5135355,-1.436154 1.7895923,-2.518777 0.8194286,-0.695214 1.7269808,-1.045643 0.9075521,-0.350429 1.8275993,-0.356455 0.926303,-0.01133 1.806343,0.328555 0.880039,0.33989 1.656004,1.026262 l -1.945361,1.650469 q -0.431578,-0.343851 -0.889889,-0.503656 -0.463618,-0.16606 -0.92459,-0.151485 -0.466279,0.0083 -0.9183498,0.198225 -0.4511226,0.178342 -0.8702197,0.533909 -0.7944079,0.673986 -1.0336487,1.53318 -0.2329856,0.853886 0.061147,1.809201 0.2888255,0.94906 1.1007925,1.906103 0.80666,0.950787 1.6897276,1.395684 0.8893231,0.43959 1.7760141,0.343529 0.886692,-0.09606 1.6811,-0.770048 0.419097,-0.355567 0.673861,-0.765351 0.254765,-0.409783 0.338942,-0.868477 0.08418,-0.458693 0.0012,-0.936917 -0.083,-0.478223 -0.334126,-0.964414 l 1.939106,-1.645162 q 0.545472,0.871168 0.737441,1.794824 0.19197,0.923657 0.02987,1.835737 -0.162098,0.91208 -0.655706,1.750413 -0.49266,0.826771 -1.312089,1.521984 z"
             style="font-weight:bold;font-family:Inter;-inkscape-font-specification:Inter"
             id="path5898" /><path
             d="m 24.407684,-54.696185 q -1.103047,0.632425 -2.175545,0.575976 -1.065382,-0.06053 -1.984075,-0.706316 -0.922773,-0.652904 -1.571518,-1.784416 -0.656906,-1.145745 -0.732824,-2.284189 -0.07592,-1.138443 0.402965,-2.084367 0.474803,-0.95304 1.471103,-1.524262 0.782807,-0.448818 1.572259,-0.523215 0.796568,-0.07848 1.546835,0.191089 0.750267,0.269565 1.401285,0.860796 0.654055,0.580033 1.155915,1.455354 l 0.191767,0.334472 -6.177059,3.541579 -0.595704,-1.038998 5.500999,-3.153964 -0.311411,0.660789 q -0.440657,-0.768574 -1.04053,-1.171645 -0.596838,-0.414268 -1.270434,-0.434664 -0.677677,-0.02751 -1.353738,0.360104 -0.668944,0.383535 -0.987567,0.982269 -0.315587,0.587538 -0.266715,1.315978 0.05191,0.717244 0.492566,1.485818 l 0.293772,0.512383 q 0.444737,0.775691 1.050778,1.222505 0.613158,0.442733 1.321389,0.49055 0.70415,0.0407 1.437142,-0.379556 0.533732,-0.306012 0.845525,-0.702259 0.307712,-0.403363 0.399653,-0.853219 0.09906,-0.453936 -0.01149,-0.910622 l 1.209793,-0.693627 q 0.269767,0.800362 0.135605,1.605377 -0.138243,0.797899 -0.638857,1.49152 -0.493497,0.689542 -1.311886,1.15876 z"
             style="font-family:Inter;-inkscape-font-specification:Inter"
             id="path5900" /><path
             d="m 29.024949,-57.419381 1.614151,-5.923659 0.376633,1.006479 -4.912407,-3.239941 1.532131,-0.586708 1.70565,1.17392 q 0.511287,0.348818 1.007253,0.703503 0.493033,0.347025 0.999593,0.706438 l -0.643494,0.246417 q 0.144595,-0.608763 0.279735,-1.196338 0.139868,-0.59817 0.287397,-1.199272 l 0.500618,-2.018779 1.509149,-0.577907 -1.49956,5.695313 -0.387227,-1.011206 5.122496,3.352738 -1.524469,0.583774 -1.99104,-1.345722 q -0.497759,-0.33643 -0.977264,-0.671067 -0.479505,-0.334637 -0.972538,-0.681662 l 0.651156,-0.249351 q -0.135141,0.587575 -0.276149,1.159829 -0.141008,0.572254 -0.286743,1.155102 l -0.598262,2.337258 z"
             style="font-family:Inter;-inkscape-font-specification:Inter"
             id="path5902" /><path
             d="m 39.607891,-57.605288 -2.432547,-11.844188 1.333878,-0.273951 0.257447,1.253524 0.01607,-0.0033 q 0.175836,-0.530199 0.529315,-0.929396 0.353479,-0.399197 0.836389,-0.657489 0.48126,-0.266327 1.027668,-0.378548 1.108886,-0.227742 2.050404,0.15672 0.941518,0.384462 1.604173,1.286785 0.661006,0.894288 0.930005,2.204059 0.267349,1.301736 0.01397,2.392193 -0.255031,1.082423 -0.967157,1.814882 -0.713776,0.724425 -1.822662,0.952166 -0.546407,0.112221 -1.069573,0.05218 -0.521516,-0.052 -0.997333,-0.289255 -0.475818,-0.23725 -0.881832,-0.664699 l -0.01607,0.0033 0.953875,4.644465 z m 2.915536,-5.213053 q 0.739258,-0.151828 1.227473,-0.628942 0.488214,-0.477115 0.664404,-1.250243 0.176189,-0.773128 -0.0367,-1.809695 -0.214539,-1.044603 -0.681182,-1.685706 -0.466643,-0.641104 -1.103385,-0.887176 -0.636742,-0.246072 -1.375999,-0.09424 -0.78747,0.16173 -1.285155,0.674286 -0.497684,0.512557 -0.664188,1.29207 -0.166504,0.779513 0.03153,1.743762 0.196386,0.956213 0.656644,1.607002 0.460257,0.65079 1.119671,0.925703 0.659415,0.274913 1.446884,0.113183 z"
             style="font-family:Inter;-inkscape-font-specification:Inter"
             id="path5904" /><path
             d="m 49.868364,-75.032574 0.983695,12.183007 -1.390008,0.112234 -0.983695,-12.183007 z"
             style="font-family:Inter;-inkscape-font-specification:Inter"
             id="path5906" /><path
             d="m 57.684922,-62.75852 q -1.196813,-0.04493 -2.085176,-0.652908 -0.879858,-0.615865 -1.349932,-1.651417 -0.461876,-1.035245 -0.412327,-2.355018 0.04986,-1.327971 0.588364,-2.333866 0.546705,-1.005588 1.470265,-1.553747 0.931756,-0.547851 2.128569,-0.502918 1.20501,0.04524 2.084868,0.661105 0.879858,0.615865 1.341427,1.659307 0.469766,1.04375 0.419909,2.37172 -0.04955,1.319774 -0.595946,2.317164 -0.5382,0.997698 -1.461759,1.545857 -0.923252,0.539961 -2.128262,0.494721 z m 0.04739,-1.262392 q 0.819735,0.03078 1.416827,-0.349044 0.597092,-0.379819 0.935982,-1.097689 0.339197,-0.726066 0.37582,-1.701551 0.03724,-0.991879 -0.24687,-1.733138 -0.283802,-0.749456 -0.850425,-1.181174 -0.566624,-0.431719 -1.386359,-0.462494 -0.811538,-0.03047 -1.417135,0.357241 -0.597092,0.379819 -0.936289,1.105886 -0.339198,0.726067 -0.376436,1.717946 -0.03693,0.983682 0.247178,1.724941 0.284109,0.741259 0.851041,1.164779 0.566931,0.423521 1.386666,0.454297 z"
             style="font-family:Inter;-inkscape-font-specification:Inter"
             id="path5908" /><path
             d="m 64.50772,-62.351707 1.472099,-8.5365 1.309576,0.225834 -0.231409,1.341912 0.03234,0.0056 q 0.348741,-0.622445 0.927723,-0.938812 0.578981,-0.316366 1.379278,-0.178357 0.185928,0.03206 0.336732,0.07472 0.158888,0.04405 0.236938,0.07416 l -0.236986,1.374247 q -0.07666,-0.03819 -0.30551,-0.110954 -0.219376,-0.07945 -0.518477,-0.131031 -0.468861,-0.08085 -0.91069,0.06771 -0.441829,0.148561 -0.763804,0.567517 -0.321974,0.418956 -0.447437,1.146498 l -0.906121,5.254475 z"
             style="font-family:Inter;-inkscape-font-specification:Inter"
             id="path5910" /><path
             d="m 74.208055,-59.905665 q -1.213253,-0.380379 -1.900034,-1.206073 -0.678954,-0.82324 -0.828643,-1.936178 -0.147235,-1.120766 0.242959,-2.36533 0.395103,-1.260218 1.179334,-2.088951 0.78423,-0.828733 1.803832,-1.119444 1.022056,-0.298538 2.117898,0.04503 0.861019,0.269946 1.451672,0.799 0.59848,0.531509 0.910009,1.265345 0.311529,0.733836 0.319521,1.613219 0.01827,0.87401 -0.283575,1.836786 l -0.11534,0.367889 -6.794221,-2.130118 0.358292,-1.142807 6.050614,1.896984 -0.696561,0.220053 q 0.265038,-0.845364 0.153638,-1.55944 -0.101118,-0.719449 -0.543515,-1.227813 -0.439943,-0.516191 -1.18355,-0.749326 -0.73578,-0.230681 -1.391679,-0.05806 -0.645618,0.167251 -1.147213,0.697738 -0.491313,0.525114 -0.756351,1.370478 l -0.176691,0.563576 q -0.267492,0.853191 -0.184017,1.601497 0.0913,0.750759 0.537083,1.303168 0.448236,0.544582 1.254463,0.797349 0.587058,0.184054 1.089665,0.143904 0.505062,-0.04798 0.897748,-0.28593 0.400513,-0.235499 0.660725,-0.626743 l 1.330665,0.417189 q -0.404408,0.741491 -1.086499,1.189598 -0.679637,0.440281 -1.528769,0.543726 -0.841304,0.105899 -1.74146,-0.176316 z"
             style="font-family:Inter;-inkscape-font-specification:Inter"
             id="path5912" /><path
             d="m 80.477228,-57.777399 3.609932,-7.874471 1.208016,0.553797 -0.567471,1.237843 0.02983,0.01367 q 0.496566,-0.512329 1.137275,-0.669808 0.640708,-0.157479 1.37894,0.180953 0.171508,0.07862 0.306352,0.15849 0.142301,0.08328 0.210033,0.132383 l -0.581145,1.26767 q -0.06431,-0.05656 -0.266889,-0.185519 -0.1917,-0.133003 -0.467605,-0.259487 -0.432499,-0.198273 -0.897643,-0.167862 -0.465143,0.03041 -0.883704,0.352899 -0.418561,0.322487 -0.726226,0.993607 l -2.222023,4.846975 z"
             style="font-family:Inter;-inkscape-font-specification:Inter"
             id="path5914" /><path
             d="m 86.108686,-54.803396 q -0.371631,-0.209394 -0.491095,-0.615669 -0.10829,-0.409396 0.101104,-0.781026 0.213422,-0.378778 0.61567,-0.491095 0.409395,-0.108291 0.781026,0.101104 0.378777,0.213422 0.491095,0.61567 0.112317,0.402248 -0.101105,0.781026 -0.209394,0.371631 -0.615669,0.491095 -0.402249,0.112317 -0.781026,-0.101105 z"
             style="font-family:Inter;-inkscape-font-specification:Inter"
             id="path5916" /><path
             d="m 89.66592,-52.811898 4.811696,-7.203227 1.159611,0.774611 -4.811697,7.203226 z m 6.330147,-8.221096 q -0.327419,-0.218714 -0.404419,-0.605558 -0.077,-0.386844 0.141713,-0.714263 0.218714,-0.32742 0.605558,-0.40442 0.386844,-0.077 0.714263,0.141714 0.32742,0.218713 0.40442,0.605557 0.077,0.386844 -0.141714,0.714264 -0.218713,0.327419 -0.605557,0.404419 -0.386845,0.077 -0.714264,-0.141713 z"
             style="font-family:Inter;-inkscape-font-specification:Inter"
             id="path5918" /><path
             d="m 96.123878,-47.722538 q -0.909702,-0.778988 -1.227838,-1.807391 -0.306569,-1.029298 -0.03127,-2.132725 0.281525,-1.098091 1.140546,-2.101256 0.864356,-1.009396 1.911379,-1.462783 1.053253,-0.448052 2.117465,-0.303533 1.07044,0.149855 1.98015,0.928843 0.91593,0.784323 1.2225,1.813621 0.30657,1.029298 0.0197,2.13362 -0.28063,1.109658 -1.14499,2.119054 -0.85902,1.003165 -1.90694,1.444986 -1.041679,0.447156 -2.105894,0.302637 -1.058879,-0.15075 -1.974813,-0.935073 z m 0.821672,-0.959549 q 0.623084,0.533553 1.326915,0.607065 0.70383,0.07351 1.415465,-0.278283 0.71697,-0.358025 1.3519,-1.099495 0.6456,-0.753931 0.88369,-1.511226 0.24342,-0.763526 0.0678,-1.45389 -0.17561,-0.690365 -0.7987,-1.223918 -0.61685,-0.528218 -1.332246,-0.600835 -0.70383,-0.07351 -1.4208,0.284514 -0.71697,0.358025 -1.362569,1.111957 -0.640264,0.7477 -0.878355,1.504995 -0.23809,0.757295 -0.05714,1.441429 0.180949,0.684134 0.804032,1.217687 z"
             style="font-family:Inter;-inkscape-font-specification:Inter"
             id="path5920" /></g><g
           aria-label="1 000 delegators"
           id="text17395"
           style="font-size:16.8px;font-family:ROBOTO;-inkscape-font-specification:ROBOTO;text-align:center;letter-spacing:1.34783px;text-anchor:middle;fill:#fefeff;stroke:#ffffff;stroke-width:0.744;stroke-linecap:round;paint-order:stroke fill markers"><path
             d="m 4.5417072,39.502343 -9.9077736,7.157467 -1.4218861,-1.968256 8.0259616,-5.798029 -0.00961,-0.0133 -3.157476,-1.260914 1.7953684,-1.296991 3.3351894,1.324808 z"
             style="font-weight:bold;font-family:Inter;-inkscape-font-specification:'Inter Bold'"
             id="path5923" /><path
             d="M 3.0516054,56.139128 Q 1.9288824,55.093853 1.6321996,53.775293 1.3471103,52.456319 1.870258,51.015605 q 0.5291516,-1.435124 1.8539126,-2.85804 1.3303507,-1.428921 2.724059,-2.059127 1.3997121,-0.624616 2.7356667,-0.434368 1.3359547,0.190247 2.4646817,1.241112 1.122723,1.045276 1.407812,2.36425 0.296683,1.31856 -0.238058,2.759688 -0.523148,1.440713 -1.853499,2.869633 Q 9.6400721,56.32167 8.2403599,56.946286 6.8466516,57.576492 5.5046932,57.380655 4.1743284,57.184404 3.0516054,56.139128 Z m 1.3750684,-1.476951 q 0.582375,0.542202 1.3547973,0.555238 0.7724223,0.01304 1.6545651,-0.477007 0.8821429,-0.490044 1.7876757,-1.46267 0.9111221,-0.97863 1.3369711,-1.893492 0.42585,-0.914861 0.357731,-1.684384 -0.06253,-0.775527 -0.644905,-1.317729 Q 9.6911343,47.839931 8.9071184,47.82731 8.1346961,47.814273 7.2525533,48.304317 6.3764143,48.79995 5.4652917,49.77858 4.5597589,50.751206 4.127906,51.660478 q -0.425849,0.914861 -0.3577301,1.684384 0.074123,0.775113 0.6564979,1.317315 z"
             style="font-weight:bold;font-family:Inter;-inkscape-font-specification:'Inter Bold'"
             id="path5925" /><path
             d="m 12.687941,63.771548 q -1.274738,-0.853317 -1.777443,-2.107872 -0.491326,-1.256808 -0.204082,-2.762408 0.294061,-1.501036 1.375538,-3.116614 1.08604,-1.622394 2.361717,-2.466331 1.282494,-0.839373 2.6317,-0.86412 1.349206,-0.02475 2.630761,0.833134 1.274738,0.853317 1.766064,2.110125 0.502705,1.254555 0.204081,2.762409 -0.287244,1.505599 -1.373284,3.127994 -1.081476,1.615577 -2.363971,2.454951 -1.275677,0.843936 -2.6317,0.86412 -1.344642,0.01793 -2.619381,-0.835388 z m 1.122546,-1.676928 q 0.661228,0.44263 1.425884,0.332596 0.764656,-0.110034 1.557587,-0.734196 0.792931,-0.624163 1.532168,-1.728481 0.743801,-1.111136 1.018657,-2.082101 0.274856,-0.970965 0.08516,-1.719845 -0.185131,-0.755698 -0.846358,-1.198328 -0.661228,-0.442629 -1.437264,-0.330342 -0.764656,0.110034 -1.557587,0.734196 -0.786115,0.628725 -1.529915,1.739861 -0.739238,1.104319 -1.02091,2.07072 -0.274856,0.970965 -0.08516,1.719846 0.19651,0.753444 0.857738,1.196074 z"
             style="font-weight:bold;font-family:Inter;-inkscape-font-specification:'Inter Bold'"
             id="path5927" /><path
             d="m 23.418503,69.768914 q -1.394879,-0.638295 -2.091895,-1.79622 -0.686144,-1.16197 -0.643573,-2.694135 0.05003,-1.528751 0.858993,-3.296592 0.812376,-1.7753 1.936537,-2.812529 1.13162,-1.033816 2.459472,-1.274183 1.327853,-0.240367 2.730191,0.401341 1.394878,0.638296 2.081022,1.800267 0.697016,1.157924 0.643573,2.694134 -0.04257,1.532165 -0.854947,3.307465 -0.808962,1.767841 -1.940583,2.801657 -1.124161,1.037229 -2.459472,1.274183 -1.324439,0.232908 -2.719318,-0.405388 z m 0.839683,-1.834974 q 0.723546,0.331095 1.460734,0.100097 0.737188,-0.230999 1.420001,-0.974023 0.682813,-0.743025 1.235774,-1.951422 0.556376,-1.215857 0.672286,-2.218296 0.11591,-1.002439 -0.191196,-1.711305 -0.303693,-0.716326 -1.02724,-1.04742 -0.723547,-0.331095 -1.471607,-0.09605 -0.737188,0.230998 -1.420001,0.974023 -0.675353,0.746438 -1.231729,1.962295 -0.552961,1.208397 -0.676331,2.207423 -0.11591,1.002438 0.191196,1.711305 0.314566,0.71228 1.038113,1.043373 z"
             style="font-weight:bold;font-family:Inter;-inkscape-font-specification:'Inter Bold'"
             id="path5929" /><path
             d="m 38.587415,74.849651 q -1.107565,-0.234083 -1.817184,-0.962579 -0.70962,-0.728496 -0.956758,-1.820385 -0.239112,-1.090193 0.04077,-2.414456 0.276488,-1.30821 0.942599,-2.198702 0.675833,-0.896821 1.611509,-1.277586 0.945398,-0.387095 2.028886,-0.158101 0.553782,0.117041 0.987052,0.367914 0.434966,0.242847 0.741393,0.61783 0.306427,0.374984 0.482619,0.890129 l 0.008,0.0017 0.983824,-4.654983 2.359595,0.498696 -2.527409,11.958492 -2.327492,-0.491912 0.274792,-1.300185 -0.008,-0.0017 q -0.352272,0.436992 -0.800729,0.694353 -0.438734,0.251032 -0.954209,0.309774 -0.515475,0.05874 -1.069258,-0.0583 z m 1.017063,-1.797286 q 0.601937,0.127219 1.107816,-0.08447 0.5156,-0.218018 0.883138,-0.727242 0.367538,-0.509225 0.526986,-1.263653 0.161143,-0.762454 0.02938,-1.368821 -0.130063,-0.614392 -0.515052,-1.014363 -0.375268,-0.406301 -0.977205,-0.53352 -0.569834,-0.120433 -1.057965,0.08662 -0.48813,0.207055 -0.845946,0.70995 -0.34979,0.504591 -0.517719,1.299149 -0.167928,0.794557 -0.05392,1.405557 0.123734,0.60467 0.486342,0.991527 0.364304,0.378831 0.934138,0.499264 z"
             style="font-weight:bold;font-family:Inter;-inkscape-font-specification:'Inter Bold'"
             id="path5931" /><path
             d="m 50.454608,76.537425 q -1.309856,-0.08327 -2.247632,-0.718259 -0.929069,-0.642658 -1.404332,-1.700331 -0.467076,-1.057152 -0.383809,-2.367008 0.08431,-1.32623 0.689156,-2.30702 0.613555,-0.988457 1.608337,-1.508816 0.994782,-0.520359 2.230959,-0.441776 0.957832,0.06089 1.714742,0.437793 0.757431,0.368718 1.283795,1.010435 0.526884,0.633531 0.777747,1.471447 0.259048,0.838436 0.196077,1.829014 l -0.04111,0.646742 -7.638098,-0.485553 0.09784,-1.539081 6.4756,0.411653 -1.112237,0.299181 q 0.04163,-0.654928 -0.165593,-1.144843 -0.207227,-0.489915 -0.63317,-0.771802 -0.417237,-0.289554 -1.023045,-0.328065 -0.597622,-0.03799 -1.048165,0.196398 -0.450023,0.226202 -0.717619,0.685933 -0.267596,0.459731 -0.309229,1.114658 l -0.06661,1.047885 q -0.04268,0.671301 0.162471,1.193963 0.213852,0.514995 0.654607,0.822483 0.441276,0.299301 1.088017,0.340415 0.474823,0.03018 0.84336,-0.0779 0.377244,-0.115753 0.638455,-0.345739 0.269918,-0.237651 0.397681,-0.566536 l 2.202195,0.139993 q -0.21019,0.849705 -0.824885,1.468204 -0.614696,0.618498 -1.506415,0.939917 -0.891198,0.313232 -1.939083,0.246618 z"
             style="font-weight:bold;font-family:Inter;-inkscape-font-specification:'Inter Bold'"
             id="path5933" /><path
             d="m 59.206165,64.162751 0.50365,12.212274 -2.417866,0.09972 -0.50365,-12.212274 z"
             style="font-weight:bold;font-family:Inter;-inkscape-font-specification:'Inter Bold'"
             id="path5935" /><path
             d="m 66.707135,75.844473 q -1.298349,0.192213 -2.348089,-0.232857 -1.042827,-0.434386 -1.728562,-1.369434 -0.67762,-0.936249 -0.869832,-2.234598 -0.194615,-1.314578 0.191989,-2.400086 0.393518,-1.094825 1.257641,-1.811522 0.864124,-0.716698 2.089441,-0.898099 0.949418,-0.140555 1.768366,0.06991 0.817746,0.202347 1.466558,0.719942 0.64761,0.50948 1.067986,1.276499 0.42849,0.765818 0.573851,1.747694 l 0.0949,0.64106 -7.570999,1.120839 -0.225849,-1.525561 6.418713,-0.95025 -1.025193,0.524938 q -0.09611,-0.649175 -0.401109,-1.084988 -0.305002,-0.435813 -0.780436,-0.622496 -0.468521,-0.196 -1.069008,-0.107102 -0.592371,0.0877 -0.984007,0.411037 -0.392837,0.315226 -0.558486,0.820716 -0.165649,0.50549 -0.06954,1.154665 l 0.15377,1.038679 q 0.09851,0.665404 0.408316,1.133676 0.316722,0.458955 0.811989,0.66758 0.494066,0.20051 1.135126,0.105606 0.470652,-0.06968 0.808476,-0.252371 0.344739,-0.192009 0.552139,-0.471489 0.214314,-0.288797 0.270551,-0.637116 l 2.182849,-0.323157 q -0.02804,0.874867 -0.499961,1.608134 -0.471922,0.733268 -1.276817,1.233884 -0.806096,0.492501 -1.844776,0.646271 z"
             style="font-weight:bold;font-family:Inter;-inkscape-font-specification:'Inter Bold'"
             id="path5937" /><path
             d="m 78.349615,76.663435 q -1.178143,0.355009 -2.104613,0.26578 -0.916248,-0.08374 -1.569744,-0.546517 -0.645641,-0.465143 -1.007228,-1.238634 l 2.230619,-0.672151 q 0.181066,0.288138 0.467254,0.44179 0.294043,0.151285 0.664912,0.159476 0.373235,0.01605 0.805221,-0.114125 0.848263,-0.255607 1.164175,-0.85628 0.323766,-0.60304 0.05396,-1.498429 l -0.383409,-1.272394 -0.0079,0.0024 q -0.09675,0.560335 -0.371229,0.985742 -0.266628,0.423041 -0.692918,0.714276 -0.418435,0.288869 -0.960381,0.452173 -1.083892,0.326608 -2.056188,0.02844 -0.972296,-0.298173 -1.706364,-1.113639 -0.726214,-0.817832 -1.09779,-2.050956 -0.37631,-1.248832 -0.217356,-2.341959 0.164442,-1.103347 0.802275,-1.886699 0.645688,-0.785719 1.706017,-1.105227 0.541946,-0.163304 1.042463,-0.151343 0.508371,0.0096 0.969824,0.204676 0.469309,0.192715 0.868137,0.578016 l 0.0079,-0.0024 -0.362109,-1.201706 2.285598,-0.688718 2.402227,7.972104 q 0.395244,1.311667 0.130854,2.28235 -0.262022,0.978537 -1.067371,1.63245 -0.795128,0.659401 -1.996835,1.02151 z m -1.672857,-5.210411 q 0.589071,-0.177504 0.933488,-0.598283 0.349905,-0.430999 0.430084,-1.046314 0.08018,-0.615314 -0.13756,-1.337909 -0.217739,-0.722595 -0.622159,-1.183318 -0.406787,-0.468577 -0.934196,-0.626649 -0.521922,-0.168293 -1.110993,0.0092 -0.557655,0.168038 -0.88873,0.576229 -0.333442,0.400336 -0.408133,1.00543 -0.06684,0.602726 0.162735,1.364592 0.229572,0.761866 0.618284,1.227323 0.396566,0.46309 0.898046,0.620408 0.501479,0.157318 1.059134,-0.01072 z"
             style="font-weight:bold;font-family:Inter;-inkscape-font-specification:'Inter Bold'"
             id="path5939" /><path
             d="m 86.703619,69.937131 q -0.780166,0.365003 -1.511106,0.389998 -0.73094,0.025 -1.323493,-0.331733 -0.596029,-0.364158 -0.961032,-1.144324 -0.309384,-0.661283 -0.269286,-1.214378 0.03662,-0.560524 0.334996,-1.026154 0.302329,-0.476536 0.786112,-0.87495 0.491213,-0.401889 1.076151,-0.738951 0.685963,-0.411495 1.078195,-0.676511 0.392233,-0.265016 0.518891,-0.478234 0.126658,-0.213218 0.0085,-0.465843 l -0.02433,-0.05201 q -0.135573,-0.289776 -0.392417,-0.43225 -0.260319,-0.149903 -0.609191,-0.140643 -0.341442,0.0058 -0.74267,0.1935 -0.401228,0.187716 -0.654198,0.460029 -0.245541,0.268838 -0.316101,0.582602 -0.07056,0.313764 0.04224,0.632305 l -2.058151,0.962914 q -0.326897,-0.83422 -0.181477,-1.626777 0.152851,-0.796033 0.776109,-1.477056 0.619782,-0.688454 1.697154,-1.192506 0.802456,-0.375432 1.520925,-0.485157 0.714992,-0.117156 1.309323,0.03044 0.601761,0.14412 1.057573,0.537654 0.455811,0.393533 0.75129,1.025096 l 2.488975,5.319988 -2.139883,1.001152 -0.517957,-1.107093 -0.02972,0.0139 q -0.02728,0.483702 -0.203297,0.901143 -0.176016,0.41744 -0.541394,0.778571 -0.368854,0.3537 -0.970696,0.635274 z M 86.600265,68.1289 q 0.527541,-0.246812 0.816097,-0.617283 0.295986,-0.373948 0.3476,-0.805639 0.05161,-0.431691 -0.14653,-0.855209 l -0.36848,-0.787596 q -0.07226,0.0972 -0.203958,0.222213 -0.135176,0.117582 -0.322362,0.259497 -0.190664,0.134485 -0.415001,0.293781 -0.224338,0.159297 -0.467012,0.318115 -0.351128,0.236729 -0.596668,0.505566 -0.249017,0.261408 -0.330006,0.552881 -0.08447,0.284044 0.06154,0.59611 0.12862,0.274916 0.371081,0.406005 0.242461,0.13109 0.566043,0.106492 0.323583,-0.0246 0.68766,-0.194933 z"
             style="font-weight:bold;font-family:Inter;-inkscape-font-specification:'Inter Bold'"
             id="path5941" /><path
             d="m 93.408791,56.186391 0.999975,1.60959 -4.828769,2.999925 -0.999975,-1.60959 z m -4.807329,0.205305 2.055536,-1.277024 4.406816,7.093343 q 0.229431,0.3693 0.466665,0.424719 0.244201,0.05109 0.662276,-0.208643 0.174198,-0.108222 0.411107,-0.255405 0.243877,-0.151511 0.376268,-0.23376 l 0.999975,1.609589 q -0.188134,0.11688 -0.522594,0.324667 -0.33446,0.207787 -0.675888,0.419903 -1.212419,0.753228 -2.085121,0.638708 -0.865734,-0.118849 -1.489095,-1.12223 z"
             style="font-weight:bold;font-family:Inter;-inkscape-font-specification:'Inter Bold'"
             id="path5943" /><path
             d="m 103.27826,59.825581 q -1.01693,0.816726 -2.14525,0.99695 -1.12831,0.180224 -2.200172,-0.263562 -1.065462,-0.448924 -1.913008,-1.504229 -0.852682,-1.061702 -1.061108,-2.198935 -0.20203,-1.14237 0.217433,-2.205213 0.414326,-1.06924 1.431257,-1.885966 1.029722,-0.826999 2.156782,-0.995691 1.128316,-0.180224 2.193786,0.268699 1.07185,0.443787 1.92454,1.505489 0.84754,1.055305 1.04957,2.197675 0.20843,1.137233 -0.21104,2.200077 -0.41306,1.057707 -1.44279,1.884706 z m -1.22765,-1.528594 q 0.46049,-0.369839 0.61581,-0.883862 0.15018,-0.520418 -0.0175,-1.122223 -0.16769,-0.601805 -0.66594,-1.222197 -0.50853,-0.633183 -1.05997,-0.926789 -0.55144,-0.293607 -1.086869,-0.252872 -0.540565,0.03434 -1.001062,0.404177 -0.454101,0.364701 -0.604281,0.88512 -0.155317,0.514023 0.01237,1.115828 0.167691,0.601805 0.676219,1.234988 0.50339,0.626788 1.054829,0.920394 0.546304,0.28721 1.086874,0.252872 0.53543,-0.04074 0.98953,-0.405436 z"
             style="font-weight:bold;font-family:Inter;-inkscape-font-specification:'Inter Bold'"
             id="path5945" /><path
             d="m 108.48885,55.013785 -6.20382,-6.045784 1.62595,-1.668452 1.05747,1.030531 0.0172,-0.01762 q -0.39208,-0.714262 -0.30736,-1.341859 0.0847,-0.627598 0.68586,-1.244455 0.14885,-0.152746 0.27496,-0.270392 0.12595,-0.129246 0.23488,-0.229268 l 1.47458,1.437019 q -0.0975,0.08827 -0.32106,0.29419 -0.21785,0.200044 -0.43541,0.423288 -0.34351,0.352489 -0.45382,0.794786 -0.11619,0.436572 0.0465,0.904351 0.16266,0.46778 0.63265,0.925794 l 3.3604,3.2748 z"
             style="font-weight:bold;font-family:Inter;-inkscape-font-specification:'Inter Bold'"
             id="path5947" /><path
             d="m 116.10059,46.764057 q -0.68674,0.889589 -1.49583,1.373842 -0.81558,0.47924 -1.65586,0.493795 -0.84028,0.01455 -1.62416,-0.486953 l 1.4537,-1.883072 q 0.48814,0.293933 0.99202,0.164763 0.50388,-0.12917 0.93497,-0.687599 0.41105,-0.532454 0.44034,-0.986544 0.0343,-0.460582 -0.28387,-0.706207 -0.27272,-0.210536 -0.62201,-0.107106 -0.34427,0.09694 -0.74802,0.45885 l -1.16112,1.020811 q -0.96676,0.849594 -1.87426,0.978067 -0.9075,0.128474 -1.69969,-0.483082 -0.64934,-0.501274 -0.86565,-1.227872 -0.2113,-0.73309 0.0238,-1.587948 0.24006,-0.861351 0.93182,-1.757433 0.68674,-0.889589 1.48375,-1.33135 0.79052,-0.446774 1.59571,-0.415875 0.81021,0.02441 1.53951,0.556328 l -1.36848,1.772685 q -0.42058,-0.314323 -0.93893,-0.206684 -0.51834,0.107639 -0.91435,0.620614 -0.38097,0.493494 -0.38224,0.938129 -0.008,0.439622 0.29743,0.675221 0.26623,0.205523 0.60549,0.11508 0.33926,-0.09044 0.72444,-0.414877 l 1.25579,-1.103173 q 1.00333,-0.883541 1.84031,-1.014637 0.83551,-0.142602 1.59523,0.443889 0.6818,0.526339 0.89401,1.311947 0.21073,0.774102 -0.0349,1.682958 -0.24713,0.89735 -0.93889,1.793433 z"
             style="font-weight:bold;font-family:Inter;-inkscape-font-specification:'Inter Bold'"
             id="path5949" /></g></g><g
         id="g17425"
         inkscape:label="Middlepart"
         transform="matrix(0.82,0,0,0.82,-124.56554,4.9213738)"><g
           style="fill:none"
           id="g17405"
           transform="matrix(2.871673,0,0,2.871673,-765.28098,-27.943634)"
           inkscape:label="user"><path
             d="M 15.5,3.29076 C 16.9659,3.88415 18,5.32131 18,7 c 0,1.67869 -1.0341,3.1159 -2.5,3.7092 m -0.9693,4.5953 C 13.7956,15 12.8638,15 11,15 H 8 C 6.13623,15 5.20435,15 4.46927,15.3045 3.48915,15.7105 2.71046,16.4892 2.30448,17.4693 2,18.2044 2,19.1362 2,21"
             stroke="#000000"
             stroke-width="2"
             stroke-linecap="round"
             stroke-linejoin="round"
             id="path17399"
             style="stroke:#ffffff;stroke-opacity:1"
             sodipodi:nodetypes="csccssssc" /><g
             style="fill:none"
             id="g17403"
             transform="matrix(1.2195122,0,0,1.2195122,16.431792,-4.3044051)"><path
               d="M 2.1059357,20.761546 V 15.913074 M -0.31830037,18.33731 H 4.5301716"
               stroke="#000000"
               stroke-width="1.61616"
               stroke-linecap="round"
               stroke-linejoin="round"
               id="path17401"
               sodipodi:nodetypes="cccc"
               style="stroke:#ffffff;stroke-opacity:1" /></g></g><g
           id="g17423"
           transform="matrix(1.8892585,0,0,1.8892585,-739.72275,-5.9525966)"
           inkscape:label="Logo"
           style="display:inline">
		<g
   transform="translate(0.91990781,-0.8)"
   id="g17409"
   inkscape:label="Circle">
<path
   style="opacity:1;fill:#e4003a;fill-opacity:1;fill-rule:nonzero;stroke:none;stroke-width:1;stroke-linecap:butt;stroke-linejoin:miter;stroke-miterlimit:4;stroke-dasharray:none;stroke-dashoffset:0"
   d="m 0,7.39996 a 7.6,7.6 0 1 1 7.6,-7.6 7.6,7.6 0 0 1 -7.6,7.6 z"
   stroke-linecap="round"
   id="path17407" />
</g>
		<g
   transform="translate(0.81,-1.08)"
   id="g17413"
   style="display:none"
   inkscape:label="undefined">
<path
   style="opacity:1;fill:#ffffff;fill-rule:nonzero;stroke:none;stroke-width:1;stroke-linecap:butt;stroke-linejoin:miter;stroke-miterlimit:4;stroke-dasharray:none;stroke-dashoffset:0"
   transform="translate(-10.81,-11.92)"
   d="m 8.46,13.2 h -0.8 c -0.3,0 -0.4,-0.1 -0.4,-0.4 a 0.43,0.43 0 0 1 0.4,-0.4 h 0.9 a 0.35,0.35 0 0 0 0.2,-0.1 1.42,1.42 0 0 0 0.2,-0.6 h -0.7 a 0.4,0.4 0 1 1 0,-0.8 h 0.8 c 0.1,0 0.2,0 0.2,-0.1 a 23.29,23.29 0 0 0 1.1,-2.8 0.1,0.1 0 0 1 0.1,-0.1 c 0.1,-0.2 0.2,-0.3 0.4,-0.3 0.2,0 0.3,0.1 0.4,0.3 0.2,0.6 0.4,1.1 0.6,1.7 0.2,0.4 0.3,0.8 0.5,1.2 0,0.1 0.1,0.1 0.2,0.1 h 0.8 a 0.37,0.37 0 0 1 0.4,0.4 0.43,0.43 0 0 1 -0.4,0.4 h -0.7 a 4.88,4.88 0 0 0 0.3,0.7 0.35,0.35 0 0 0 0.2,0.1 h 0.9 c 0.1,0 0.3,0.1 0.3,0.2 a 0.6,0.6 0 0 1 -0.1,0.4 0.37,0.37 0 0 1 -0.3,0.1 h -0.8 a 3.55,3.55 0 0 0 0.4,0.9 l 0.6,1.5 c 0.1,0.3 0.1,0.5 -0.2,0.6 -0.3,0.1 -0.4,0 -0.5,-0.3 -0.3,-0.9 -0.7,-1.7 -1,-2.6 -0.1,-0.2 -0.1,-0.2 -0.3,-0.2 h -2.9 c -0.2,0 -0.2,0 -0.3,0.2 a 18.61,18.61 0 0 1 -1,2.5 c -0.1,0.2 -0.2,0.3 -0.4,0.3 a 0.27,0.27 0 0 1 -0.3,-0.3 0.37,0.37 0 0 1 0.1,-0.3 c 0.3,-0.7 0.5,-1.4 0.8,-2.1 0.2,0 0.2,-0.1 0.3,-0.2 z m 1,-0.8 h 2.7 c -0.1,-0.2 -0.2,-0.5 -0.3,-0.7 a 0.35,0.35 0 0 0 -0.2,-0.1 h -1.8 c -0.1,0 -0.1,0 -0.2,0.1 a 1.45,1.45 0 0 1 -0.2,0.7 z m 2.2,-1.5 c -0.3,-0.7 -0.5,-1.3 -0.8,-2 -0.3,0.7 -0.5,1.3 -0.8,2 z"
   stroke-linecap="round"
   id="path17411" />
</g>
<path
   style="opacity:1;fill:#050001;fill-opacity:1;stroke:#ffffff;stroke-width:0.786824;stroke-linecap:round;stroke-miterlimit:3.7;stroke-dasharray:none;stroke-opacity:1;paint-order:stroke fill markers"
   d="M -2.3986007,2.7360851 0.88883187,-5.0028575"
   id="path17415"
   sodipodi:nodetypes="cc" /><path
   style="opacity:1;fill:#050001;fill-opacity:1;stroke:#ffffff;stroke-width:0.786824;stroke-linecap:round;stroke-miterlimit:3.7;stroke-dasharray:none;stroke-opacity:1"
   d="M 4.2651388,2.7342975 0.98031102,-5.0045294"
   id="path17417"
   sodipodi:nodetypes="cc" /><path
   style="opacity:1;fill:#050001;fill-opacity:1;stroke:#ffffff;stroke-width:0.786824;stroke-linecap:round;stroke-miterlimit:3.7;stroke-dasharray:none;stroke-opacity:1"
   d="m -1.664028,-1.6872983 5.178973,-0.015567"
   id="path17419" /><path
   style="fill:#050001;fill-opacity:1;stroke:#ffffff;stroke-width:0.786824;stroke-linecap:round;stroke-miterlimit:3.7;stroke-dasharray:none;stroke-opacity:1"
   d="m -2.3298842,-0.18348542 6.5097684,-0.0124693"
   id="path17421" /></g></g><g
         id="g19987"
         inkscape:label="circles"
         transform="matrix(0.82310934,0,0,0.82310934,-2275.1806,-977.40943)"><circle
           style="fill:#e4003a;fill-opacity:1;stroke:none;stroke-width:0.511713;stroke-linecap:round;stroke-linejoin:round;stroke-dasharray:none;stroke-opacity:1;paint-order:stroke markers fill"
           id="circle19963"
           cx="-1259.1384"
           cy="1884.0352"
           inkscape:transform-center-x="6.1035156e-05"
           inkscape:transform-center-y="58.593567"
           transform="rotate(-90)"
           r="2.5585673" /><circle
           style="fill:#e4003a;fill-opacity:1;stroke:none;stroke-width:0.511713;stroke-linecap:round;stroke-linejoin:round;stroke-dasharray:none;stroke-opacity:1;paint-order:stroke markers fill"
           id="circle19965"
           cx="-156.27831"
           cy="2231.8948"
           inkscape:transform-center-x="29.296796"
           inkscape:transform-center-y="50.743509"
           transform="rotate(-60)"
           r="2.7632527" /><circle
           style="fill:#e4003a;fill-opacity:1;stroke:none;stroke-width:0.511713;stroke-linecap:round;stroke-linejoin:round;stroke-dasharray:none;stroke-opacity:1;paint-order:stroke markers fill"
           id="circle19967"
           cx="972.75635"
           cy="1981.72"
           inkscape:transform-center-x="50.743523"
           inkscape:transform-center-y="29.296803"
           transform="rotate(-30)"
           r="2.9679382" /><circle
           style="fill:#e4003a;fill-opacity:1;stroke:none;stroke-width:0.511713;stroke-linecap:round;stroke-linejoin:round;stroke-dasharray:none;stroke-opacity:1;paint-order:stroke markers fill"
           id="circle19969"
           cx="1825.4417"
           cy="1200.5449"
           inkscape:transform-center-x="58.593567"
           inkscape:transform-center-y="6.0887265e-05"
           r="3.1726236" /></g></g></g></svg>
