<?xml version="1.0" encoding="UTF-8" standalone="no"?>
<svg
   inkscape:version="1.2.2 (b0a84865, 2022-12-01)"
   xml:space="preserve"
   sodipodi:docname="final_awards_pre-text-to-path.svg"
   id="svg134"
   version="1.1"
   viewBox="-120 -120 300 300.00013"
   height="250.00011"
   width="250"
   inkscape:export-filename="0.svg"
   inkscape:export-xdpi="96"
   inkscape:export-ydpi="96"
   xmlns:inkscape="http://www.inkscape.org/namespaces/inkscape"
   xmlns:sodipodi="http://sodipodi.sourceforge.net/DTD/sodipodi-0.dtd"
   xmlns="http://www.w3.org/2000/svg"
   xmlns:svg="http://www.w3.org/2000/svg"><defs
     id="defs138" /><sodipodi:namedview
     id="namedview136"
     pagecolor="#ffffff"
     bordercolor="#000000"
     borderopacity="0.25"
     inkscape:showpageshadow="2"
     inkscape:pageopacity="0.0"
     inkscape:pagecheckerboard="0"
     inkscape:deskcolor="#d1d1d1"
     showgrid="false"
     inkscape:zoom="0.35355339"
     inkscape:cx="1480.6816"
     inkscape:cy="663.26616"
     inkscape:window-width="1425"
     inkscape:window-height="949"
     inkscape:window-x="0"
     inkscape:window-y="25"
     inkscape:window-maximized="1"
     inkscape:current-layer="g19337"
     showguides="true" /><style
     type="text/css"
     id="style8571">
	.st0{fill:#ffffff;}
</style><g
     id="g12580"
     inkscape:label="Delegators"
     transform="translate(-3334.0352,-1170.5448)"><g
       id="g17585"
       inkscape:label="2000 delegators"
       transform="matrix(1.4245145,0,0,1.4245145,4395.2529,1185.9224)"
       inkscape:export-filename="./g8306.svg"
       inkscape:export-xdpi="96"
       inkscape:export-ydpi="96"><g
         id="g18303"
         inkscape:label="Borders"
         transform="translate(-723.90821,-241.73513)"><path
           fill="none"
           stroke="black"
           stroke-width="2"
           d="m 100,252 q 9.47,10.78 -1.919998,19.51 7.179998,12.42 -5.69,18.76 4.62,13.58 -9.24,17.29 1.88,14.22 -12.44,15.15 -0.93,14.32 -15.15,12.44 -3.71,13.86 -17.29,9.24 -6.34,12.87 -18.76,5.69 Q 10.780002,361.47 1.5258789e-6,352 -10.779998,361.47 -19.509998,350.08 q -12.42,7.18 -18.76,-5.69 -13.58,4.62 -17.29,-9.24 -14.22,1.88 -15.15,-12.44 -14.32,-0.93 -12.44,-15.15 -13.86,-3.71 -9.24,-17.29 -12.870002,-6.34 -5.69,-18.76 -11.390002,-8.73 -1.92,-19.51 -9.470002,-10.78 1.92,-19.51 -7.180002,-12.42 5.69,-18.76 -4.62,-13.58 9.24,-17.29 -1.88,-14.22 12.44,-15.15 0.93,-14.32 15.15,-12.44 3.71,-13.86 17.29,-9.24 6.34,-12.87 18.76,-5.69 Q -10.779998,142.53 1.5258789e-6,152 10.780002,142.53 19.510002,153.92 q 12.42,-7.18 18.76,5.69 13.58,-4.62 17.29,9.24 14.22,-1.88 15.15,12.44 14.32,0.93 12.44,15.15 13.86,3.71 9.24,17.29 12.869998,6.34 5.69,18.76 Q 109.47,241.22 100,252 Z"
           id="path18271"
           style="fill:#04344d;fill-opacity:1;stroke:#04344d;stroke-opacity:1" /><path
           style="fill:none;fill-opacity:1;stroke:#efa900;stroke-width:3.6;stroke-linecap:round;stroke-dasharray:none;stroke-opacity:1;paint-order:stroke fill markers"
           id="path18273"
           sodipodi:type="arc"
           sodipodi:cx="0.0089565562"
           sodipodi:cy="251.99123"
           sodipodi:rx="92.730682"
           sodipodi:ry="92.730682"
           sodipodi:start="0.019634549"
           sodipodi:end="4.6929609"
           sodipodi:open="true"
           sodipodi:arc-type="arc"
           d="M 92.721765,253.81183 A 92.730682,92.730682 0 0 1 -0.60432934,344.71988 92.730682,92.730682 0 0 1 -92.719822,252.58537 92.730682,92.730682 0 0 1 -1.7925093,159.27804" /><path
           style="fill:none;fill-opacity:1;stroke:#efa900;stroke-width:2.22;stroke-linecap:round;stroke-dasharray:none;stroke-opacity:1;paint-order:stroke fill markers"
           id="path18275"
           sodipodi:type="arc"
           sodipodi:cx="0.003594999"
           sodipodi:cy="251.99646"
           sodipodi:rx="86.865753"
           sodipodi:ry="86.865753"
           sodipodi:start="0.012850983"
           sodipodi:end="4.6996412"
           sodipodi:arc-type="arc"
           d="M 86.862175,253.11274 A 86.865753,86.865753 0 0 1 -0.37149553,338.8614 86.865753,86.865753 0 0 1 -86.861387,252.36259 86.865753,86.865753 0 0 1 -1.1037206,165.13776"
           sodipodi:open="true" /><g
           id="g18301"
           inkscape:label="Circles"
           transform="translate(-514.7999,251.99126)"><g
             id="g18279"
             transform="rotate(7.5,5558.9497,3252.8791)"
             inkscape:transform-center-x="-11.777454"
             inkscape:transform-center-y="-88.637902"><path
               sodipodi:type="star"
               style="fill:#efa900;fill-opacity:1;stroke:#efa900;stroke-width:2.22;stroke-linecap:round;stroke-opacity:1;paint-order:stroke fill markers"
               id="path18277"
               inkscape:flatsided="false"
               sodipodi:sides="5"
               sodipodi:cx="396.99625"
               sodipodi:cy="-372.60107"
               sodipodi:r1="3.6169088"
               sodipodi:r2="1.6637779"
               sodipodi:arg1="0.95906936"
               sodipodi:arg2="1.5873879"
               inkscape:rounded="0"
               inkscape:randomized="0"
               d="m 399.07337,-369.64006 -2.10473,-1.29747 -2.14661,1.22692 0.58356,-2.40265 -1.83021,-1.66242 2.46539,-0.18746 1.01548,-2.25435 0.94014,2.2868 2.45781,0.26915 -1.88435,1.60078 z"
               transform="matrix(1.0133273,0,0,1.0133273,-268.95197,974.58915)"
               inkscape:transform-center-x="1.0196929"
               inkscape:transform-center-y="-89.532179"
               inkscape:label="path5969" /></g><g
             id="g18283"
             transform="rotate(22.5,2049.0208,1301.9125)"
             inkscape:transform-center-x="-34.354027"
             inkscape:transform-center-y="-82.323429"><path
               sodipodi:type="star"
               style="fill:#efa900;fill-opacity:1;stroke:#efa900;stroke-width:2.22;stroke-linecap:round;stroke-opacity:1;paint-order:stroke fill markers"
               id="path18281"
               inkscape:flatsided="false"
               sodipodi:sides="5"
               sodipodi:cx="396.99625"
               sodipodi:cy="-372.60107"
               sodipodi:r1="3.6169088"
               sodipodi:r2="1.6637779"
               sodipodi:arg1="0.95906936"
               sodipodi:arg2="1.5873879"
               inkscape:rounded="0"
               inkscape:randomized="0"
               d="m 399.07337,-369.64006 -2.10473,-1.29747 -2.14661,1.22692 0.58356,-2.40265 -1.83021,-1.66242 2.46539,-0.18746 1.01548,-2.25435 0.94014,2.2868 2.45781,0.26915 -1.88435,1.60078 z"
               transform="matrix(1.0133273,0,0,1.0133273,-268.95197,974.58915)"
               inkscape:transform-center-x="1.0196929"
               inkscape:transform-center-y="-89.532179"
               inkscape:label="path5969" /></g><g
             id="g18287"
             transform="rotate(37.5,1334.8573,904.95028)"
             inkscape:transform-center-x="-54.232035"
             inkscape:transform-center-y="-70.490863"><path
               sodipodi:type="star"
               style="fill:#efa900;fill-opacity:1;stroke:#efa900;stroke-width:2.22;stroke-linecap:round;stroke-opacity:1;paint-order:stroke fill markers"
               id="path18285"
               inkscape:flatsided="false"
               sodipodi:sides="5"
               sodipodi:cx="396.99625"
               sodipodi:cy="-372.60107"
               sodipodi:r1="3.6169088"
               sodipodi:r2="1.6637779"
               sodipodi:arg1="0.95906936"
               sodipodi:arg2="1.5873879"
               inkscape:rounded="0"
               inkscape:randomized="0"
               d="m 399.07337,-369.64006 -2.10473,-1.29747 -2.14661,1.22692 0.58356,-2.40265 -1.83021,-1.66242 2.46539,-0.18746 1.01548,-2.25435 0.94014,2.2868 2.45781,0.26915 -1.88435,1.60078 z"
               transform="matrix(1.0133273,0,0,1.0133273,-268.95197,974.58915)"
               inkscape:transform-center-x="1.0196929"
               inkscape:transform-center-y="-89.532179"
               inkscape:label="path5969" /></g><g
             id="g18291"
             transform="rotate(52.5,1019.845,729.85313)"
             inkscape:transform-center-x="-70.414229"
             inkscape:transform-center-y="-54.322566"><path
               sodipodi:type="star"
               style="fill:#efa900;fill-opacity:1;stroke:#efa900;stroke-width:2.22;stroke-linecap:round;stroke-opacity:1;paint-order:stroke fill markers"
               id="path18289"
               inkscape:flatsided="false"
               sodipodi:sides="5"
               sodipodi:cx="396.99625"
               sodipodi:cy="-372.60107"
               sodipodi:r1="3.6169088"
               sodipodi:r2="1.6637779"
               sodipodi:arg1="0.95906936"
               sodipodi:arg2="1.5873879"
               inkscape:rounded="0"
               inkscape:randomized="0"
               d="m 399.07337,-369.64006 -2.10473,-1.29747 -2.14661,1.22692 0.58356,-2.40265 -1.83021,-1.66242 2.46539,-0.18746 1.01548,-2.25435 0.94014,2.2868 2.45781,0.26915 -1.88435,1.60078 z"
               transform="matrix(1.0133273,0,0,1.0133273,-268.95197,974.58915)"
               inkscape:transform-center-x="1.0196929"
               inkscape:transform-center-y="-89.532179"
               inkscape:label="path5969" /></g><g
             id="g18295"
             transform="rotate(67.5,837.58649,628.54617)"
             inkscape:transform-center-x="-82.3354"
             inkscape:transform-center-y="-34.452242"><path
               sodipodi:type="star"
               style="fill:#efa900;fill-opacity:1;stroke:#efa900;stroke-width:2.22;stroke-linecap:round;stroke-opacity:1;paint-order:stroke fill markers"
               id="path18293"
               inkscape:flatsided="false"
               sodipodi:sides="5"
               sodipodi:cx="396.99625"
               sodipodi:cy="-372.60107"
               sodipodi:r1="3.6169088"
               sodipodi:r2="1.6637779"
               sodipodi:arg1="0.95906936"
               sodipodi:arg2="1.5873879"
               inkscape:rounded="0"
               inkscape:randomized="0"
               d="m 399.07337,-369.64006 -2.10473,-1.29747 -2.14661,1.22692 0.58356,-2.40265 -1.83021,-1.66242 2.46539,-0.18746 1.01548,-2.25435 0.94014,2.2868 2.45781,0.26915 -1.88435,1.60078 z"
               transform="matrix(1.0133273,0,0,1.0133273,-268.95197,974.58915)"
               inkscape:transform-center-x="1.0196929"
               inkscape:transform-center-y="-89.532179"
               inkscape:label="path5969" /></g><g
             id="g18299"
             transform="rotate(82.5,715.32761,560.58954)"
             inkscape:transform-center-x="-88.666206"
             inkscape:transform-center-y="-11.806367"><path
               sodipodi:type="star"
               style="fill:#efa900;fill-opacity:1;stroke:#efa900;stroke-width:2.22;stroke-linecap:round;stroke-opacity:1;paint-order:stroke fill markers"
               id="path18297"
               inkscape:flatsided="false"
               sodipodi:sides="5"
               sodipodi:cx="396.99625"
               sodipodi:cy="-372.60107"
               sodipodi:r1="3.6169088"
               sodipodi:r2="1.6637779"
               sodipodi:arg1="0.95906936"
               sodipodi:arg2="1.5873879"
               inkscape:rounded="0"
               inkscape:randomized="0"
               d="m 399.07337,-369.64006 -2.10473,-1.29747 -2.14661,1.22692 0.58356,-2.40265 -1.83021,-1.66242 2.46539,-0.18746 1.01548,-2.25435 0.94014,2.2868 2.45781,0.26915 -1.88435,1.60078 z"
               transform="matrix(1.0133273,0,0,1.0133273,-268.95197,974.58915)"
               inkscape:transform-center-x="1.0196929"
               inkscape:transform-center-y="-89.532179"
               inkscape:label="path5969" /></g></g></g><g
         id="g17529"
         inkscape:label="Texts"
         transform="translate(-779.20394,9.5727008)"><circle
           style="fill:none;fill-opacity:1;stroke:none;stroke-width:3.01836;stroke-linecap:round;stroke-opacity:1;paint-order:stroke fill markers"
           id="circle17513"
           cx="-1.4210855e-14"
           cy="-55.295727"
           transform="matrix(0,-1,-1,0,0,0)"
           r="76.490822"
           inkscape:label="Bottom-text-path" /><circle
           style="fill:none;fill-opacity:1;stroke:none;stroke-width:2.48601;stroke-linecap:round;stroke-opacity:1;paint-order:stroke fill markers"
           id="circle17515"
           cx="1.4210855e-14"
           cy="-55.295727"
           transform="rotate(90)"
           inkscape:label="Top-text-path"
           r="63" /><g
           aria-label="Cexplorer.io"
           id="text17523"
           style="font-size:16.8px;font-family:ROBOTO;-inkscape-font-specification:ROBOTO;text-align:center;letter-spacing:1.2px;text-anchor:middle;fill:#fefeff;stroke:#ffffff;stroke-width:0.744;stroke-linecap:round;paint-order:stroke fill markers"><path
             d="m 14.858755,-48.055292 q -1.276057,1.082623 -2.776689,1.355314 -1.499685,0.261129 -2.987961,-0.32652 -1.4873279,-0.599212 -2.7397738,-2.075435 -1.2630598,-1.488732 -1.6119449,-3.053813 -0.3426299,-1.570388 0.1646503,-3.001236 0.5135355,-1.436154 1.7895923,-2.518777 0.8194286,-0.695214 1.7269808,-1.045643 0.9075521,-0.350429 1.8275993,-0.356455 0.926303,-0.01133 1.806343,0.328555 0.880039,0.33989 1.656004,1.026262 l -1.945361,1.650469 q -0.431578,-0.343851 -0.889889,-0.503656 -0.463618,-0.16606 -0.92459,-0.151485 -0.466279,0.0083 -0.9183498,0.198225 -0.4511226,0.178342 -0.8702197,0.533909 -0.7944079,0.673986 -1.0336487,1.53318 -0.2329856,0.853886 0.061147,1.809201 0.2888255,0.94906 1.1007925,1.906103 0.80666,0.950787 1.6897276,1.395684 0.8893231,0.43959 1.7760141,0.343529 0.886692,-0.09606 1.6811,-0.770048 0.419097,-0.355567 0.673861,-0.765351 0.254765,-0.409783 0.338942,-0.868477 0.08418,-0.458693 0.0012,-0.936917 -0.083,-0.478223 -0.334126,-0.964414 l 1.939106,-1.645162 q 0.545472,0.871168 0.737441,1.794824 0.19197,0.923657 0.02987,1.835737 -0.162098,0.91208 -0.655706,1.750413 -0.49266,0.826771 -1.312089,1.521984 z"
             style="font-weight:bold;font-family:Inter;-inkscape-font-specification:Inter"
             id="path5952" /><path
             d="m 24.407684,-54.696185 q -1.103047,0.632425 -2.175545,0.575976 -1.065382,-0.06053 -1.984075,-0.706316 -0.922773,-0.652904 -1.571518,-1.784416 -0.656906,-1.145745 -0.732824,-2.284189 -0.07592,-1.138443 0.402965,-2.084367 0.474803,-0.95304 1.471103,-1.524262 0.782807,-0.448818 1.572259,-0.523215 0.796568,-0.07848 1.546835,0.191089 0.750267,0.269565 1.401285,0.860796 0.654055,0.580033 1.155915,1.455354 l 0.191767,0.334472 -6.177059,3.541579 -0.595704,-1.038998 5.500999,-3.153964 -0.311411,0.660789 q -0.440657,-0.768574 -1.04053,-1.171645 -0.596838,-0.414268 -1.270434,-0.434664 -0.677677,-0.02751 -1.353738,0.360104 -0.668944,0.383535 -0.987567,0.982269 -0.315587,0.587538 -0.266715,1.315978 0.05191,0.717244 0.492566,1.485818 l 0.293772,0.512383 q 0.444737,0.775691 1.050778,1.222505 0.613158,0.442733 1.321389,0.49055 0.70415,0.0407 1.437142,-0.379556 0.533732,-0.306012 0.845525,-0.702259 0.307712,-0.403363 0.399653,-0.853219 0.09906,-0.453936 -0.01149,-0.910622 l 1.209793,-0.693627 q 0.269767,0.800362 0.135605,1.605377 -0.138243,0.797899 -0.638857,1.49152 -0.493497,0.689542 -1.311886,1.15876 z"
             style="font-family:Inter;-inkscape-font-specification:Inter"
             id="path5954" /><path
             d="m 29.024949,-57.419381 1.614151,-5.923659 0.376633,1.006479 -4.912407,-3.239941 1.532131,-0.586708 1.70565,1.17392 q 0.511287,0.348818 1.007253,0.703503 0.493033,0.347025 0.999593,0.706438 l -0.643494,0.246417 q 0.144595,-0.608763 0.279735,-1.196338 0.139868,-0.59817 0.287397,-1.199272 l 0.500618,-2.018779 1.509149,-0.577907 -1.49956,5.695313 -0.387227,-1.011206 5.122496,3.352738 -1.524469,0.583774 -1.99104,-1.345722 q -0.497759,-0.33643 -0.977264,-0.671067 -0.479505,-0.334637 -0.972538,-0.681662 l 0.651156,-0.249351 q -0.135141,0.587575 -0.276149,1.159829 -0.141008,0.572254 -0.286743,1.155102 l -0.598262,2.337258 z"
             style="font-family:Inter;-inkscape-font-specification:Inter"
             id="path5956" /><path
             d="m 39.607891,-57.605288 -2.432547,-11.844188 1.333878,-0.273951 0.257447,1.253524 0.01607,-0.0033 q 0.175836,-0.530199 0.529315,-0.929396 0.353479,-0.399197 0.836389,-0.657489 0.48126,-0.266327 1.027668,-0.378548 1.108886,-0.227742 2.050404,0.15672 0.941518,0.384462 1.604173,1.286785 0.661006,0.894288 0.930005,2.204059 0.267349,1.301736 0.01397,2.392193 -0.255031,1.082423 -0.967157,1.814882 -0.713776,0.724425 -1.822662,0.952166 -0.546407,0.112221 -1.069573,0.05218 -0.521516,-0.052 -0.997333,-0.289255 -0.475818,-0.23725 -0.881832,-0.664699 l -0.01607,0.0033 0.953875,4.644465 z m 2.915536,-5.213053 q 0.739258,-0.151828 1.227473,-0.628942 0.488214,-0.477115 0.664404,-1.250243 0.176189,-0.773128 -0.0367,-1.809695 -0.214539,-1.044603 -0.681182,-1.685706 -0.466643,-0.641104 -1.103385,-0.887176 -0.636742,-0.246072 -1.375999,-0.09424 -0.78747,0.16173 -1.285155,0.674286 -0.497684,0.512557 -0.664188,1.29207 -0.166504,0.779513 0.03153,1.743762 0.196386,0.956213 0.656644,1.607002 0.460257,0.65079 1.119671,0.925703 0.659415,0.274913 1.446884,0.113183 z"
             style="font-family:Inter;-inkscape-font-specification:Inter"
             id="path5958" /><path
             d="m 49.868364,-75.032574 0.983695,12.183007 -1.390008,0.112234 -0.983695,-12.183007 z"
             style="font-family:Inter;-inkscape-font-specification:Inter"
             id="path5960" /><path
             d="m 57.684922,-62.75852 q -1.196813,-0.04493 -2.085176,-0.652908 -0.879858,-0.615865 -1.349932,-1.651417 -0.461876,-1.035245 -0.412327,-2.355018 0.04986,-1.327971 0.588364,-2.333866 0.546705,-1.005588 1.470265,-1.553747 0.931756,-0.547851 2.128569,-0.502918 1.20501,0.04524 2.084868,0.661105 0.879858,0.615865 1.341427,1.659307 0.469766,1.04375 0.419909,2.37172 -0.04955,1.319774 -0.595946,2.317164 -0.5382,0.997698 -1.461759,1.545857 -0.923252,0.539961 -2.128262,0.494721 z m 0.04739,-1.262392 q 0.819735,0.03078 1.416827,-0.349044 0.597092,-0.379819 0.935982,-1.097689 0.339197,-0.726066 0.37582,-1.701551 0.03724,-0.991879 -0.24687,-1.733138 -0.283802,-0.749456 -0.850425,-1.181174 -0.566624,-0.431719 -1.386359,-0.462494 -0.811538,-0.03047 -1.417135,0.357241 -0.597092,0.379819 -0.936289,1.105886 -0.339198,0.726067 -0.376436,1.717946 -0.03693,0.983682 0.247178,1.724941 0.284109,0.741259 0.851041,1.164779 0.566931,0.423521 1.386666,0.454297 z"
             style="font-family:Inter;-inkscape-font-specification:Inter"
             id="path5962" /><path
             d="m 64.50772,-62.351707 1.472099,-8.5365 1.309576,0.225834 -0.231409,1.341912 0.03234,0.0056 q 0.348741,-0.622445 0.927723,-0.938812 0.578981,-0.316366 1.379278,-0.178357 0.185928,0.03206 0.336732,0.07472 0.158888,0.04405 0.236938,0.07416 l -0.236986,1.374247 q -0.07666,-0.03819 -0.30551,-0.110954 -0.219376,-0.07945 -0.518477,-0.131031 -0.468861,-0.08085 -0.91069,0.06771 -0.441829,0.148561 -0.763804,0.567517 -0.321974,0.418956 -0.447437,1.146498 l -0.906121,5.254475 z"
             style="font-family:Inter;-inkscape-font-specification:Inter"
             id="path5964" /><path
             d="m 74.208055,-59.905665 q -1.213253,-0.380379 -1.900034,-1.206073 -0.678954,-0.82324 -0.828643,-1.936178 -0.147235,-1.120766 0.242959,-2.36533 0.395103,-1.260218 1.179334,-2.088951 0.78423,-0.828733 1.803832,-1.119444 1.022056,-0.298538 2.117898,0.04503 0.861019,0.269946 1.451672,0.799 0.59848,0.531509 0.910009,1.265345 0.311529,0.733836 0.319521,1.613219 0.01827,0.87401 -0.283575,1.836786 l -0.11534,0.367889 -6.794221,-2.130118 0.358292,-1.142807 6.050614,1.896984 -0.696561,0.220053 q 0.265038,-0.845364 0.153638,-1.55944 -0.101118,-0.719449 -0.543515,-1.227813 -0.439943,-0.516191 -1.18355,-0.749326 -0.73578,-0.230681 -1.391679,-0.05806 -0.645618,0.167251 -1.147213,0.697738 -0.491313,0.525114 -0.756351,1.370478 l -0.176691,0.563576 q -0.267492,0.853191 -0.184017,1.601497 0.0913,0.750759 0.537083,1.303168 0.448236,0.544582 1.254463,0.797349 0.587058,0.184054 1.089665,0.143904 0.505062,-0.04798 0.897748,-0.28593 0.400513,-0.235499 0.660725,-0.626743 l 1.330665,0.417189 q -0.404408,0.741491 -1.086499,1.189598 -0.679637,0.440281 -1.528769,0.543726 -0.841304,0.105899 -1.74146,-0.176316 z"
             style="font-family:Inter;-inkscape-font-specification:Inter"
             id="path5966" /><path
             d="m 80.477228,-57.777399 3.609932,-7.874471 1.208016,0.553797 -0.567471,1.237843 0.02983,0.01367 q 0.496566,-0.512329 1.137275,-0.669808 0.640708,-0.157479 1.37894,0.180953 0.171508,0.07862 0.306352,0.15849 0.142301,0.08328 0.210033,0.132383 l -0.581145,1.26767 q -0.06431,-0.05656 -0.266889,-0.185519 -0.1917,-0.133003 -0.467605,-0.259487 -0.432499,-0.198273 -0.897643,-0.167862 -0.465143,0.03041 -0.883704,0.352899 -0.418561,0.322487 -0.726226,0.993607 l -2.222023,4.846975 z"
             style="font-family:Inter;-inkscape-font-specification:Inter"
             id="path5968" /><path
             d="m 86.108686,-54.803396 q -0.371631,-0.209394 -0.491095,-0.615669 -0.10829,-0.409396 0.101104,-0.781026 0.213422,-0.378778 0.61567,-0.491095 0.409395,-0.108291 0.781026,0.101104 0.378777,0.213422 0.491095,0.61567 0.112317,0.402248 -0.101105,0.781026 -0.209394,0.371631 -0.615669,0.491095 -0.402249,0.112317 -0.781026,-0.101105 z"
             style="font-family:Inter;-inkscape-font-specification:Inter"
             id="path5970" /><path
             d="m 89.66592,-52.811898 4.811696,-7.203227 1.159611,0.774611 -4.811697,7.203226 z m 6.330147,-8.221096 q -0.327419,-0.218714 -0.404419,-0.605558 -0.077,-0.386844 0.141713,-0.714263 0.218714,-0.32742 0.605558,-0.40442 0.386844,-0.077 0.714263,0.141714 0.32742,0.218713 0.40442,0.605557 0.077,0.386844 -0.141714,0.714264 -0.218713,0.327419 -0.605557,0.404419 -0.386845,0.077 -0.714264,-0.141713 z"
             style="font-family:Inter;-inkscape-font-specification:Inter"
             id="path5972" /><path
             d="m 96.123878,-47.722538 q -0.909702,-0.778988 -1.227838,-1.807391 -0.306569,-1.029298 -0.03127,-2.132725 0.281525,-1.098091 1.140546,-2.101256 0.864356,-1.009396 1.911379,-1.462783 1.053253,-0.448052 2.117465,-0.303533 1.07044,0.149855 1.98015,0.928843 0.91593,0.784323 1.2225,1.813621 0.30657,1.029298 0.0197,2.13362 -0.28063,1.109658 -1.14499,2.119054 -0.85902,1.003165 -1.90694,1.444986 -1.041679,0.447156 -2.105894,0.302637 -1.058879,-0.15075 -1.974813,-0.935073 z m 0.821672,-0.959549 q 0.623084,0.533553 1.326915,0.607065 0.70383,0.07351 1.415465,-0.278283 0.71697,-0.358025 1.3519,-1.099495 0.6456,-0.753931 0.88369,-1.511226 0.24342,-0.763526 0.0678,-1.45389 -0.17561,-0.690365 -0.7987,-1.223918 -0.61685,-0.528218 -1.332246,-0.600835 -0.70383,-0.07351 -1.4208,0.284514 -0.71697,0.358025 -1.362569,1.111957 -0.640264,0.7477 -0.878355,1.504995 -0.23809,0.757295 -0.05714,1.441429 0.180949,0.684134 0.804032,1.217687 z"
             style="font-family:Inter;-inkscape-font-specification:Inter"
             id="path5974" /></g><g
           aria-label="2 000 delegators"
           id="text17527"
           style="font-size:16.8px;font-family:ROBOTO;-inkscape-font-specification:ROBOTO;text-align:center;letter-spacing:1.34783px;text-anchor:middle;fill:#fefeff;stroke:#ffffff;stroke-width:0.744;stroke-linecap:round;paint-order:stroke fill markers"><path
             d="m -9.309831,41.200523 1.5028058,-1.085607 5.7281053,1.387404 q 0.7027116,0.160265 1.29162602,0.261061 0.58891445,0.100797 1.10059468,0.02463 0.51648379,-0.06951 0.975305,-0.400959 Q 1.7607262,41.046003 1.9623974,40.59673 2.1755217,40.149303 2.1089667,39.650922 2.0472153,39.15919 1.691751,38.667121 1.3074653,38.135154 0.79612274,37.917603 0.28958375,37.706702 -0.29635343,37.806148 -0.87083746,37.907439 -1.4759495,38.344564 l -1.3594108,-1.881832 q 1.0772325,-0.778178 2.19221814,-0.915734 1.12643883,-0.135711 2.14654346,0.351853 1.0267542,0.482761 1.8241471,1.586591 0.7349465,1.017386 0.9275453,2.08249 0.1925988,1.065104 -0.1837681,2.015001 -0.3649138,0.951744 -1.302505,1.629047 -0.6915566,0.499572 -1.45076,0.653345 -0.75920345,0.153773 -1.65328397,0.05079 -0.88262733,-0.101134 -1.97401173,-0.365173 l -3.3465639,-0.780286 -0.013299,0.0096 3.1319287,4.335528 -1.642447,1.186482 z"
             style="font-weight:bold;font-family:Inter;-inkscape-font-specification:'Inter Bold'"
             id="path5977" /><path
             d="m 4.3532821,57.323605 q -1.1462799,-1.019387 -1.47297,-2.330835 -0.315109,-1.312126 0.175031,-2.764401 0.4962697,-1.446823 1.7882204,-2.899595 1.2974019,-1.458902 2.6763685,-2.120743 1.3850964,-0.656389 2.725044,-0.496673 1.339947,0.159716 2.492357,1.184555 1.14628,1.019387 1.461389,2.331513 0.32669,1.311448 -0.175031,2.764401 -0.49014,1.452275 -1.787542,2.911177 -1.29195,1.452772 -2.6770469,2.109161 Q 8.1801355,58.674006 6.8340582,58.508839 5.499562,58.342992 4.3532821,57.323605 Z m 1.3410121,-1.50794 q 0.5945943,0.528773 1.367113,0.524182 0.7725186,-0.0046 1.6432509,-0.514634 0.8707323,-0.510043 1.7538379,-1.503077 0.888557,-0.999164 1.293421,-1.923503 0.404865,-0.924339 0.319206,-1.692108 -0.08021,-0.773899 -0.674802,-1.302672 -0.594594,-0.528773 -1.378694,-0.523503 -0.7725187,0.0046 -1.643251,0.514634 -0.8646025,0.515494 -1.7531592,1.514658 -0.8831055,0.993034 -1.2940999,1.911922 -0.4048646,0.924339 -0.3192058,1.692108 0.091789,0.77322 0.6863831,1.301993 z"
             style="font-weight:bold;font-family:Inter;-inkscape-font-specification:'Inter Bold'"
             id="path5979" /><path
             d="m 14.161551,64.733799 q -1.293961,-0.823877 -1.825289,-2.06658 -0.520002,-1.245218 -0.267341,-2.757006 0.25958,-1.507381 1.303744,-3.147322 1.04857,-1.646859 2.30457,-2.519813 1.262919,-0.868547 2.611203,-0.92421 1.348284,-0.05566 2.649165,0.772618 1.293961,0.823877 1.813964,2.069094 0.531327,1.242704 0.267341,2.757005 -0.252661,1.511788 -1.301231,3.158648 -1.044164,1.63994 -2.307083,2.508487 -1.256,0.872953 -2.611203,0.924211 -1.343879,0.04874 -2.63784,-0.775132 z m 1.083816,-1.702217 q 0.671199,0.427358 1.433132,0.299828 0.761933,-0.127531 1.540351,-0.769703 0.778417,-0.642172 1.492149,-1.763143 0.718139,-1.127892 0.970668,-2.104901 0.25253,-0.97701 0.04572,-1.721346 -0.202403,-0.751256 -0.873602,-1.178614 -0.671199,-0.427358 -1.444457,-0.297314 -0.761933,0.12753 -1.540351,0.769702 -0.771498,0.646578 -1.489636,1.77447 -0.713732,1.120971 -0.973181,2.093575 -0.25253,0.977009 -0.04572,1.721346 0.213728,0.748742 0.884927,1.1761 z"
             style="font-weight:bold;font-family:Inter;-inkscape-font-specification:'Inter Bold'"
             id="path5981" /><path
             d="m 25.027191,70.482776 q -1.409234,-0.605941 -2.132782,-1.747476 -0.712771,-1.145829 -0.705563,-2.678568 0.01474,-1.529498 0.782702,-3.315534 0.771199,-1.793571 1.871129,-2.856462 1.107465,-1.05965 2.429418,-1.330591 1.321953,-0.270941 2.738724,0.338241 1.409235,0.605942 2.122006,1.751772 0.723547,1.141534 0.705563,2.678568 -0.0072,1.532739 -0.778406,3.32631 -0.767959,1.786036 -1.875424,2.845686 -1.09993,1.062891 -2.429419,1.330591 -1.318713,0.263405 -2.727948,-0.342537 z m 0.797122,-1.853859 q 0.730993,0.314312 1.462655,0.06637 0.731662,-0.247946 1.397149,-1.006527 0.665487,-0.758581 1.19042,-1.979415 0.528174,-1.228371 0.620924,-2.233217 0.09275,-1.004846 -0.23063,-1.706438 -0.32014,-0.709128 -1.051133,-1.02344 -0.730994,-0.314312 -1.473432,-0.06207 -0.731662,0.247946 -1.397149,1.006527 -0.657951,0.761822 -1.186125,1.990192 -0.524933,1.220834 -0.625219,2.22244 -0.09275,1.004846 0.23063,1.706438 0.330916,0.704833 1.06191,1.019145 z"
             style="font-weight:bold;font-family:Inter;-inkscape-font-specification:'Inter Bold'"
             id="path5983" /><path
             d="m 40.309506,75.211548 q -1.112667,-0.208484 -1.838894,-0.920426 -0.726227,-0.711942 -0.998473,-1.797843 -0.264183,-1.084391 -0.01491,-2.414754 0.246253,-1.314237 0.891656,-2.21985 0.654977,-0.912164 1.581626,-1.3144 0.936222,-0.408789 2.024701,-0.204837 0.556334,0.104243 0.995272,0.34506 0.440449,0.232754 0.75544,0.600573 0.314992,0.367819 0.503014,0.878765 l 0.0081,0.0015 0.876239,-4.676428 2.370465,0.444163 -2.251028,12.013583 -2.338214,-0.43812 0.244742,-1.306175 -0.0081,-0.0015 q -0.342104,0.444998 -0.784507,0.71263 -0.432831,0.26108 -0.946814,0.331691 -0.513984,0.07061 -1.070318,-0.03363 z m 0.975356,-1.820256 q 0.60471,0.113307 1.105573,-0.109988 0.510437,-0.229847 0.866137,-0.74741 0.3557,-0.517563 0.497711,-1.275467 0.143522,-0.765967 -0.0022,-1.369134 -0.144194,-0.61123 -0.538303,-1.002219 -0.384535,-0.397541 -0.989245,-0.510848 -0.57246,-0.107264 -1.055686,0.11099 -0.483227,0.218253 -0.829354,0.729264 -0.338063,0.512522 -0.487628,1.31074 -0.149565,0.798218 -0.0215,1.406427 0.137642,0.601656 0.509073,0.98005 0.372941,0.370331 0.945401,0.477595 z"
             style="font-weight:bold;font-family:Inter;-inkscape-font-specification:'Inter Bold'"
             id="path5985" /><path
             d="m 52.212023,76.626885 q -1.311408,-0.05353 -2.263349,-0.667079 -0.943411,-0.621413 -1.442549,-1.668031 -0.490941,-1.046283 -0.437414,-2.357691 0.0542,-1.3278 0.636636,-2.322061 0.59097,-1.002123 1.57369,-1.544919 0.982719,-0.542796 2.220361,-0.492279 0.958967,0.03914 1.724234,0.398775 0.765601,0.351438 1.306389,0.981047 0.541123,0.621414 0.810932,1.453422 0.278005,0.832343 0.237525,1.824095 l -0.02643,0.647508 -7.647148,-0.312131 0.06289,-1.540904 6.483274,0.264625 -1.105163,0.324339 q 0.02676,-0.655704 -0.191525,-1.140791 -0.218289,-0.485087 -0.650519,-0.757238 -0.423698,-0.280013 -1.030224,-0.304769 -0.59833,-0.02442 -1.04344,0.220129 -0.444774,0.236354 -0.701871,0.702038 -0.257096,0.465684 -0.28386,1.121388 l -0.04282,1.049126 q -0.02743,0.672097 0.189518,1.189969 0.225482,0.510011 0.6731,0.807419 0.447953,0.289213 1.095461,0.315642 0.475385,0.0194 0.841375,-0.09702 0.374521,-0.124283 0.630446,-0.360136 0.264456,-0.243714 0.384724,-0.575413 l 2.204805,0.08999 q -0.190857,0.854255 -0.791361,1.486541 -0.600505,0.632286 -1.484702,0.973854 -0.883862,0.333372 -1.932989,0.29055 z"
             style="font-weight:bold;font-family:Inter;-inkscape-font-specification:'Inter Bold'"
             id="path5987" /><path
             d="m 60.680583,64.057737 0.780619,12.197702 -2.414981,0.154552 -0.78062,-12.197702 z"
             style="font-weight:bold;font-family:Inter;-inkscape-font-specification:'Inter Bold'"
             id="path5989" /><path
             d="m 68.444736,75.564785 q -1.293587,0.222015 -2.352823,-0.178806 -1.052539,-0.410293 -1.759592,-1.329326 -0.698969,-0.920421 -0.920984,-2.214007 -0.22479,-1.309756 0.136753,-2.403867 0.36824,-1.103583 1.215656,-1.83996 0.847416,-0.736377 2.068238,-0.945904 0.945935,-0.162348 1.769506,0.02923 0.822183,0.183491 1.482724,0.68603 0.659153,0.494455 1.097054,1.251606 0.445986,0.755763 0.613885,1.734037 l 0.10962,0.638709 -7.543225,1.294623 -0.260868,-1.519964 6.395167,-1.097585 -1.012851,0.548371 q -0.111008,-0.646793 -0.425951,-1.075478 -0.314943,-0.428685 -0.794543,-0.604387 -0.472904,-0.185175 -1.071187,-0.08249 -0.590199,0.101295 -0.974297,0.433554 -0.385485,0.324175 -0.539467,0.83334 -0.153982,0.509166 -0.04297,1.155959 l 0.177612,1.034869 q 0.113783,0.662963 0.434276,1.123987 0.327191,0.451552 0.827124,0.648734 0.498546,0.189097 1.137254,0.07948 0.468925,-0.08048 0.80246,-0.270893 0.340232,-0.199885 0.541151,-0.48406 0.207617,-0.293648 0.25583,-0.643168 l 2.174842,-0.373262 q -0.0079,0.87528 -0.462853,1.619205 -0.454936,0.743924 -1.248108,1.262915 -0.794559,0.510906 -1.829428,0.688518 z"
             style="font-weight:bold;font-family:Inter;-inkscape-font-specification:'Inter Bold'"
             id="path5991" /><path
             d="m 80.103095,76.114658 q -1.169618,0.382158 -2.097904,0.314378 -0.91794,-0.06253 -1.581962,-0.510071 -0.656225,-0.450088 -1.035602,-1.215011 l 2.214478,-0.723553 q 0.187681,0.283873 0.477346,0.430866 0.297463,0.144445 0.668422,0.144057 0.373506,0.0074 0.802366,-0.132715 0.842126,-0.275154 1.144063,-0.882972 0.309734,-0.610366 0.01929,-1.499276 l -0.412731,-1.263188 -0.0078,0.0025 q -0.08376,0.562422 -0.348334,0.994064 -0.256774,0.429093 -0.676215,0.730108 -0.411643,0.298468 -0.949668,0.474261 -1.076049,0.351585 -2.05498,0.07598 -0.978931,-0.275609 -1.731661,-1.073881 -0.744932,-0.80082 -1.144925,-2.025021 -0.405088,-1.239796 -0.271455,-2.336306 0.138883,-1.106856 0.758431,-1.904748 0.627345,-0.80044 1.680002,-1.144383 0.538025,-0.175793 1.038684,-0.175409 0.508457,-0.0022 0.974299,0.182194 0.473639,0.18181 0.881271,0.557785 l 0.0078,-0.0025 -0.389802,-1.193011 2.269061,-0.741388 2.585939,7.914421 q 0.42547,1.302175 0.183598,2.278713 -0.239324,0.984335 -1.029336,1.656697 -0.779667,0.677611 -1.972678,1.067413 z m -1.792901,-5.170333 q 0.58481,-0.191079 0.919404,-0.61971 0.339845,-0.438975 0.405773,-1.05598 0.06593,-0.617004 -0.168462,-1.33437 -0.234391,-0.717366 -0.649357,-1.168614 -0.417514,-0.459045 -0.948438,-0.604878 -0.525674,-0.156179 -1.110483,0.0349 -0.553619,0.180888 -0.875167,0.596626 -0.324095,0.407941 -0.384773,1.0146 -0.05288,0.604111 0.194248,1.360464 0.247129,0.756354 0.6465,1.212697 0.407169,0.453795 0.912153,0.599475 0.504983,0.145679 1.058602,-0.03521 z"
             style="font-weight:bold;font-family:Inter;-inkscape-font-specification:'Inter Bold'"
             id="path5993" /><path
             d="m 88.299404,69.197119 q -0.771547,0.382886 -1.501717,0.42472 -0.73017,0.04183 -1.330786,-0.301143 -0.604263,-0.350325 -0.98715,-1.121872 -0.324542,-0.653977 -0.297201,-1.207848 0.02369,-0.56122 0.311258,-1.033603 0.291265,-0.483377 0.765738,-0.892834 0.48182,-0.413104 1.058836,-0.763556 0.676296,-0.427195 1.062317,-0.70118 0.386021,-0.273986 0.507731,-0.490066 0.12171,-0.216081 -0.0023,-0.465915 l -0.02553,-0.05144 q -0.142215,-0.286575 -0.402273,-0.423091 -0.263706,-0.143865 -0.612271,-0.126567 -0.341218,0.01365 -0.738013,0.210565 -0.396796,0.196913 -0.643423,0.474984 -0.23928,0.274426 -0.30259,0.589732 -0.06331,0.315307 0.0568,0.631164 l -2.035414,1.010091 q -0.346036,-0.826465 -0.218919,-1.622162 0.134464,-0.799344 0.741862,-1.494551 0.60375,-0.702555 1.669219,-1.231303 0.793591,-0.393826 1.50934,-0.52008 0.712102,-0.133602 1.309677,2.58e-4 0.604923,0.130213 1.069683,0.513137 0.46476,0.382924 0.774715,1.007509 l 2.610921,5.261213 -2.116241,1.050202 -0.543335,-1.094861 -0.02939,0.01459 q -0.01613,0.484203 -0.182474,0.905589 -0.166349,0.421386 -0.523307,0.790841 -0.360605,0.362107 -0.955798,0.657477 z M 88.154405,67.39175 q 0.521712,-0.258904 0.801653,-0.635927 0.287289,-0.38067 0.328941,-0.813436 0.04165,-0.432765 -0.166201,-0.851605 l -0.386533,-0.778895 q -0.07,0.09884 -0.198783,0.226856 -0.13243,0.120665 -0.316296,0.266857 -0.187513,0.138843 -0.40812,0.303267 -0.220607,0.164424 -0.459556,0.328793 -0.345579,0.244758 -0.584859,0.519183 -0.242926,0.267077 -0.317176,0.56034 -0.0779,0.285915 0.07526,0.594533 0.134921,0.271879 0.380339,0.397346 0.245418,0.125466 0.568348,0.09342 0.32293,-0.03205 0.682985,-0.210729 z"
             style="font-weight:bold;font-family:Inter;-inkscape-font-specification:'Inter Bold'"
             id="path5995" /><path
             d="m 94.687222,55.295651 1.036618,1.586239 -4.758715,3.109854 -1.036618,-1.586238 z m -4.801358,0.315478 2.025715,-1.32382 4.5683,6.990435 q 0.237838,0.363942 0.47628,0.413908 0.245308,0.04548 0.657318,-0.223774 0.171671,-0.112188 0.405143,-0.264764 0.240339,-0.157063 0.370809,-0.242326 l 1.036618,1.586238 q -0.185404,0.121163 -0.515012,0.336564 -0.329608,0.215401 -0.666083,0.43529 -1.194829,0.780829 -2.069927,0.686349 -0.868232,-0.09897 -1.514436,-1.087791 z"
             style="font-weight:bold;font-family:Inter;-inkscape-font-specification:'Inter Bold'"
             id="path5997" /><path
             d="m 104.63781,58.707993 q -0.99802,0.839735 -2.12193,1.045678 -1.12391,0.205943 -2.20562,-0.213252 -1.075433,-0.424475 -1.946856,-1.460152 -0.876705,-1.041953 -1.111046,-2.17413 -0.228063,-1.137459 0.167019,-2.209604 0.389801,-1.078421 1.387817,-1.918157 1.010569,-0.850298 2.133486,-1.044682 1.12391,-0.205943 2.19934,0.218532 1.08171,0.419195 1.95842,1.461148 0.87142,1.035676 1.09949,2.173135 0.23434,1.132177 -0.16075,2.204322 -0.3888,1.066864 -1.39937,1.917162 z m -1.26224,-1.500162 q 0.45193,-0.380257 0.59547,-0.897693 0.13825,-0.523713 -0.0431,-1.121531 -0.18139,-0.597819 -0.69368,-1.206671 -0.52285,-0.621406 -1.08085,-0.902343 -0.558,-0.280937 -1.09236,-0.227986 -0.53964,0.04667 -0.99157,0.426931 -0.445657,0.374976 -0.583914,0.898688 -0.143539,0.517436 0.03785,1.115255 0.18139,0.597818 0.704244,1.219224 0.51757,0.615129 1.07557,0.896066 0.55272,0.274661 1.09236,0.227987 0.53436,-0.05295 0.98002,-0.427927 z"
             style="font-weight:bold;font-family:Inter;-inkscape-font-specification:'Inter Bold'"
             id="path5999" /><path
             d="m 109.73727,53.778577 -6.3401,-5.902712 1.58747,-1.705103 1.0807,1.006144 0.0168,-0.01801 q -0.40827,-0.705133 -0.33789,-1.3345 0.0704,-0.629366 0.6573,-1.259774 0.14533,-0.156101 0.26872,-0.276593 0.12298,-0.132085 0.22959,-0.234566 l 1.50698,1.403013 q -0.0954,0.09047 -0.31427,0.301436 -0.21323,0.204961 -0.42564,0.433108 -0.33538,0.360233 -0.43558,0.804931 -0.1062,0.439108 0.0671,0.903056 0.17329,0.463948 0.6536,0.911124 l 3.43422,3.197302 z"
             style="font-weight:bold;font-family:Inter;-inkscape-font-specification:'Inter Bold'"
             id="path6001" /><path
             d="m 117.15872,45.35729 q -0.66623,0.905056 -1.46403,1.407679 -0.80441,0.497761 -1.64414,0.531521 -0.83973,0.03376 -1.63487,-0.449694 l 1.41027,-1.915813 q 0.49474,0.282696 0.99553,0.14204 0.50079,-0.140656 0.91901,-0.708793 0.39877,-0.541713 0.41767,-0.996353 0.0238,-0.461247 -0.29994,-0.699534 -0.27746,-0.204245 -0.62429,-0.09286 -0.34197,0.104781 -0.73734,0.475832 l -1.13748,1.047088 q -0.94709,0.871473 -1.85141,1.02066 -0.90433,0.149187 -1.71029,-0.444098 -0.66063,-0.486299 -0.8935,-1.207761 -0.228,-0.728068 -0.0126,-1.588076 0.22031,-0.866614 0.8914,-1.778277 0.66623,-0.905057 1.45293,-1.364923 0.7801,-0.464729 1.58579,-0.452246 0.81055,0.0059 1.55183,0.520987 l -1.3276,1.803507 q -0.42766,-0.304625 -0.94341,-0.185164 -0.51575,0.11946 -0.89993,0.641354 -0.36959,0.502075 -0.36069,0.946623 0.002,0.439684 0.31279,0.668245 0.27085,0.199383 0.60796,0.101208 0.3371,-0.09818 0.71476,-0.431331 l 1.23025,-1.131594 q 0.98287,-0.906247 1.81664,-1.056444 0.83202,-0.161666 1.60495,0.407305 0.69366,0.510614 0.92377,1.291165 0.22837,0.769082 0.004,1.683317 -0.22654,0.902765 -0.89764,1.814428 z"
             style="font-weight:bold;font-family:Inter;-inkscape-font-specification:'Inter Bold'"
             id="path6003" /></g></g><g
         id="g17557"
         inkscape:label="Middlepart"
         transform="matrix(0.82,0,0,0.82,-124.56554,4.9213738)"><g
           style="fill:none"
           id="g17537"
           transform="matrix(2.871673,0,0,2.871673,-765.28098,-27.943634)"
           inkscape:label="user"><path
             d="M 15.5,3.29076 C 16.9659,3.88415 18,5.32131 18,7 c 0,1.67869 -1.0341,3.1159 -2.5,3.7092 m -0.9693,4.5953 C 13.7956,15 12.8638,15 11,15 H 8 C 6.13623,15 5.20435,15 4.46927,15.3045 3.48915,15.7105 2.71046,16.4892 2.30448,17.4693 2,18.2044 2,19.1362 2,21"
             stroke="#000000"
             stroke-width="2"
             stroke-linecap="round"
             stroke-linejoin="round"
             id="path17531"
             style="stroke:#ffffff;stroke-opacity:1"
             sodipodi:nodetypes="csccssssc" /><g
             style="fill:none"
             id="g17535"
             transform="matrix(1.2195122,0,0,1.2195122,16.431792,-4.3044051)"><path
               d="M 2.1059357,20.761546 V 15.913074 M -0.31830037,18.33731 H 4.5301716"
               stroke="#000000"
               stroke-width="1.61616"
               stroke-linecap="round"
               stroke-linejoin="round"
               id="path17533"
               sodipodi:nodetypes="cccc"
               style="stroke:#ffffff;stroke-opacity:1" /></g></g><g
           id="g17555"
           transform="matrix(1.8892585,0,0,1.8892585,-739.72275,-5.9525966)"
           inkscape:label="Logo"
           style="display:inline">
		<g
   transform="translate(0.91990781,-0.8)"
   id="g17541"
   inkscape:label="Circle">
<path
   style="opacity:1;fill:#e4003a;fill-opacity:1;fill-rule:nonzero;stroke:none;stroke-width:1;stroke-linecap:butt;stroke-linejoin:miter;stroke-miterlimit:4;stroke-dasharray:none;stroke-dashoffset:0"
   d="m 0,7.39996 a 7.6,7.6 0 1 1 7.6,-7.6 7.6,7.6 0 0 1 -7.6,7.6 z"
   stroke-linecap="round"
   id="path17539" />
</g>
		<g
   transform="translate(0.81,-1.08)"
   id="g17545"
   style="display:none"
   inkscape:label="undefined">
<path
   style="opacity:1;fill:#ffffff;fill-rule:nonzero;stroke:none;stroke-width:1;stroke-linecap:butt;stroke-linejoin:miter;stroke-miterlimit:4;stroke-dasharray:none;stroke-dashoffset:0"
   transform="translate(-10.81,-11.92)"
   d="m 8.46,13.2 h -0.8 c -0.3,0 -0.4,-0.1 -0.4,-0.4 a 0.43,0.43 0 0 1 0.4,-0.4 h 0.9 a 0.35,0.35 0 0 0 0.2,-0.1 1.42,1.42 0 0 0 0.2,-0.6 h -0.7 a 0.4,0.4 0 1 1 0,-0.8 h 0.8 c 0.1,0 0.2,0 0.2,-0.1 a 23.29,23.29 0 0 0 1.1,-2.8 0.1,0.1 0 0 1 0.1,-0.1 c 0.1,-0.2 0.2,-0.3 0.4,-0.3 0.2,0 0.3,0.1 0.4,0.3 0.2,0.6 0.4,1.1 0.6,1.7 0.2,0.4 0.3,0.8 0.5,1.2 0,0.1 0.1,0.1 0.2,0.1 h 0.8 a 0.37,0.37 0 0 1 0.4,0.4 0.43,0.43 0 0 1 -0.4,0.4 h -0.7 a 4.88,4.88 0 0 0 0.3,0.7 0.35,0.35 0 0 0 0.2,0.1 h 0.9 c 0.1,0 0.3,0.1 0.3,0.2 a 0.6,0.6 0 0 1 -0.1,0.4 0.37,0.37 0 0 1 -0.3,0.1 h -0.8 a 3.55,3.55 0 0 0 0.4,0.9 l 0.6,1.5 c 0.1,0.3 0.1,0.5 -0.2,0.6 -0.3,0.1 -0.4,0 -0.5,-0.3 -0.3,-0.9 -0.7,-1.7 -1,-2.6 -0.1,-0.2 -0.1,-0.2 -0.3,-0.2 h -2.9 c -0.2,0 -0.2,0 -0.3,0.2 a 18.61,18.61 0 0 1 -1,2.5 c -0.1,0.2 -0.2,0.3 -0.4,0.3 a 0.27,0.27 0 0 1 -0.3,-0.3 0.37,0.37 0 0 1 0.1,-0.3 c 0.3,-0.7 0.5,-1.4 0.8,-2.1 0.2,0 0.2,-0.1 0.3,-0.2 z m 1,-0.8 h 2.7 c -0.1,-0.2 -0.2,-0.5 -0.3,-0.7 a 0.35,0.35 0 0 0 -0.2,-0.1 h -1.8 c -0.1,0 -0.1,0 -0.2,0.1 a 1.45,1.45 0 0 1 -0.2,0.7 z m 2.2,-1.5 c -0.3,-0.7 -0.5,-1.3 -0.8,-2 -0.3,0.7 -0.5,1.3 -0.8,2 z"
   stroke-linecap="round"
   id="path17543" />
</g>
<path
   style="opacity:1;fill:#050001;fill-opacity:1;stroke:#ffffff;stroke-width:0.786824;stroke-linecap:round;stroke-miterlimit:3.7;stroke-dasharray:none;stroke-opacity:1;paint-order:stroke fill markers"
   d="M -2.3986007,2.7360851 0.88883187,-5.0028575"
   id="path17547"
   sodipodi:nodetypes="cc" /><path
   style="opacity:1;fill:#050001;fill-opacity:1;stroke:#ffffff;stroke-width:0.786824;stroke-linecap:round;stroke-miterlimit:3.7;stroke-dasharray:none;stroke-opacity:1"
   d="M 4.2651388,2.7342975 0.98031102,-5.0045294"
   id="path17549"
   sodipodi:nodetypes="cc" /><path
   style="opacity:1;fill:#050001;fill-opacity:1;stroke:#ffffff;stroke-width:0.786824;stroke-linecap:round;stroke-miterlimit:3.7;stroke-dasharray:none;stroke-opacity:1"
   d="m -1.664028,-1.6872983 5.178973,-0.015567"
   id="path17551" /><path
   style="fill:#050001;fill-opacity:1;stroke:#ffffff;stroke-width:0.786824;stroke-linecap:round;stroke-miterlimit:3.7;stroke-dasharray:none;stroke-opacity:1"
   d="m -2.3298842,-0.18348542 6.5097684,-0.0124693"
   id="path17553" /></g></g><g
         id="g19857"
         inkscape:label="circles"
         transform="matrix(0.82310934,0,0,0.82310934,-2275.1806,-977.40943)"><circle
           style="fill:#e4003a;fill-opacity:1;stroke:none;stroke-width:0.511713;stroke-linecap:round;stroke-linejoin:round;stroke-dasharray:none;stroke-opacity:1;paint-order:stroke markers fill"
           id="circle19833"
           cx="-1259.1384"
           cy="1884.0352"
           inkscape:transform-center-x="6.1035156e-05"
           inkscape:transform-center-y="58.593567"
           transform="rotate(-90)"
           r="2.5585673" /><circle
           style="fill:#e4003a;fill-opacity:1;stroke:none;stroke-width:0.511713;stroke-linecap:round;stroke-linejoin:round;stroke-dasharray:none;stroke-opacity:1;paint-order:stroke markers fill"
           id="circle19835"
           cx="-156.27831"
           cy="2231.8948"
           inkscape:transform-center-x="29.296796"
           inkscape:transform-center-y="50.743509"
           transform="rotate(-60)"
           r="2.7632527" /><circle
           style="fill:#e4003a;fill-opacity:1;stroke:none;stroke-width:0.511713;stroke-linecap:round;stroke-linejoin:round;stroke-dasharray:none;stroke-opacity:1;paint-order:stroke markers fill"
           id="circle19837"
           cx="972.75635"
           cy="1981.72"
           inkscape:transform-center-x="50.743523"
           inkscape:transform-center-y="29.296803"
           transform="rotate(-30)"
           r="2.9679382" /><circle
           style="fill:#e4003a;fill-opacity:1;stroke:none;stroke-width:0.511713;stroke-linecap:round;stroke-linejoin:round;stroke-dasharray:none;stroke-opacity:1;paint-order:stroke markers fill"
           id="circle19839"
           cx="1825.4417"
           cy="1200.5449"
           inkscape:transform-center-x="58.593567"
           inkscape:transform-center-y="6.0887265e-05"
           r="3.1726236" /><circle
           style="fill:#e4003a;fill-opacity:1;stroke:none;stroke-width:0.511713;stroke-linecap:round;stroke-linejoin:round;stroke-dasharray:none;stroke-opacity:1;paint-order:stroke markers fill"
           id="circle19841"
           cx="2173.3013"
           cy="97.684799"
           inkscape:transform-center-x="50.743507"
           inkscape:transform-center-y="-29.296709"
           transform="rotate(30)"
           r="3.3773088" /></g></g></g></svg>
