<?xml version="1.0" encoding="UTF-8" standalone="no"?>
<svg
   inkscape:version="1.2.2 (b0a84865, 2022-12-01)"
   xml:space="preserve"
   sodipodi:docname="final_awards_pre-text-to-path.svg"
   id="svg134"
   version="1.1"
   viewBox="-120 -120 300 300.00013"
   height="250.00011"
   width="250"
   inkscape:export-filename="0.svg"
   inkscape:export-xdpi="96"
   inkscape:export-ydpi="96"
   xmlns:inkscape="http://www.inkscape.org/namespaces/inkscape"
   xmlns:sodipodi="http://sodipodi.sourceforge.net/DTD/sodipodi-0.dtd"
   xmlns="http://www.w3.org/2000/svg"
   xmlns:svg="http://www.w3.org/2000/svg"><defs
     id="defs138" /><sodipodi:namedview
     id="namedview136"
     pagecolor="#ffffff"
     bordercolor="#000000"
     borderopacity="0.25"
     inkscape:showpageshadow="2"
     inkscape:pageopacity="0.0"
     inkscape:pagecheckerboard="0"
     inkscape:deskcolor="#d1d1d1"
     showgrid="false"
     inkscape:zoom="0.35355339"
     inkscape:cx="1480.6816"
     inkscape:cy="663.26616"
     inkscape:window-width="1425"
     inkscape:window-height="949"
     inkscape:window-x="0"
     inkscape:window-y="25"
     inkscape:window-maximized="1"
     inkscape:current-layer="g19337"
     showguides="true" /><style
     type="text/css"
     id="style8571">
	.st0{fill:#ffffff;}
</style><g
     id="g12580"
     inkscape:label="Delegators"
     transform="translate(-3704.0354,-1170.5448)"><g
       id="g17717"
       inkscape:label="3000 delegators"
       transform="matrix(1.4245145,0,0,1.4245145,4765.2529,1185.9224)"
       inkscape:export-filename="./g8306.svg"
       inkscape:export-xdpi="96"
       inkscape:export-ydpi="96"><g
         id="g18384"
         inkscape:label="Borders"
         transform="translate(-1336.6884,-590.18835)"><path
           fill="none"
           stroke="black"
           stroke-width="2"
           d="m 712.78023,600.45322 q 9.47,10.78 -1.92,19.51 7.18,12.42 -5.69,18.76 4.62,13.58 -9.24,17.29 1.88,14.22 -12.44,15.15 -0.93,14.32 -15.15,12.44 -3.71,13.86 -17.29,9.24 -6.34,12.87 -18.76,5.69 -8.73,11.39 -19.51,1.92 -10.78,9.47 -19.51,-1.92 -12.42,7.18 -18.76,-5.69 -13.58,4.62 -17.29,-9.24 -14.22,1.88 -15.15,-12.44 -14.32,-0.93 -12.44,-15.15 -13.86,-3.71 -9.24,-17.29 -12.87,-6.34 -5.69,-18.76 -11.39,-8.73 -1.92,-19.51 -9.47,-10.78 1.92,-19.51 -7.18,-12.42 5.69,-18.76 -4.62,-13.58 9.24,-17.29 -1.88,-14.22 12.44,-15.15 0.93,-14.32 15.15,-12.44 3.71,-13.86 17.29,-9.24 6.34,-12.87 18.76,-5.69 8.73,-11.39 19.51,-1.92 10.78,-9.47 19.51,1.92 12.42,-7.18 18.76,5.69 13.58,-4.62 17.29,9.24 14.22,-1.88 15.15,12.44 14.32,0.93 12.44,15.15 13.86,3.71 9.24,17.29 12.87,6.34 5.69,18.76 11.39,8.73 1.92,19.51 z"
           id="path18328"
           style="fill:#04344d;fill-opacity:1;stroke:#04344d;stroke-opacity:1" /><path
           style="fill:none;fill-opacity:1;stroke:#efa900;stroke-width:3.6;stroke-linecap:round;stroke-dasharray:none;stroke-opacity:1;paint-order:stroke fill markers"
           id="path18330"
           sodipodi:type="arc"
           sodipodi:cx="612.78918"
           sodipodi:cy="600.44446"
           sodipodi:rx="92.730682"
           sodipodi:ry="92.730682"
           sodipodi:start="1.5902854"
           sodipodi:end="4.6926787"
           sodipodi:open="true"
           sodipodi:arc-type="arc"
           d="M 610.98206,693.15753 A 92.730682,92.730682 0 0 1 520.0585,600.45471 92.730682,92.730682 0 0 1 610.96156,507.73179" /><path
           style="fill:none;fill-opacity:1;stroke:#efa900;stroke-width:2.22;stroke-linecap:round;stroke-dasharray:none;stroke-opacity:1;paint-order:stroke fill markers"
           id="path18332"
           sodipodi:type="arc"
           sodipodi:cx="612.78381"
           sodipodi:cy="600.44971"
           sodipodi:rx="86.865753"
           sodipodi:ry="86.865753"
           sodipodi:start="1.5835599"
           sodipodi:end="4.6996412"
           sodipodi:arc-type="arc"
           d="M 611.67513,687.30838 A 86.865753,86.865753 0 0 1 525.91806,600.44902 86.865753,86.865753 0 0 1 611.6765,513.59101"
           sodipodi:open="true" /><g
           id="g18382"
           inkscape:label="Circles"
           transform="translate(97.989291,600.44448)"><g
             id="g18336"
             transform="rotate(7.5,5558.9497,3252.8791)"
             inkscape:transform-center-x="-11.777454"
             inkscape:transform-center-y="-88.637902"><path
               sodipodi:type="star"
               style="fill:#efa900;fill-opacity:1;stroke:#efa900;stroke-width:2.22;stroke-linecap:round;stroke-opacity:1;paint-order:stroke fill markers"
               id="path18334"
               inkscape:flatsided="false"
               sodipodi:sides="5"
               sodipodi:cx="396.99625"
               sodipodi:cy="-372.60107"
               sodipodi:r1="3.6169088"
               sodipodi:r2="1.6637779"
               sodipodi:arg1="0.95906936"
               sodipodi:arg2="1.5873879"
               inkscape:rounded="0"
               inkscape:randomized="0"
               d="m 399.07337,-369.64006 -2.10473,-1.29747 -2.14661,1.22692 0.58356,-2.40265 -1.83021,-1.66242 2.46539,-0.18746 1.01548,-2.25435 0.94014,2.2868 2.45781,0.26915 -1.88435,1.60078 z"
               transform="matrix(1.0133273,0,0,1.0133273,-268.95197,974.58915)"
               inkscape:transform-center-x="1.0196929"
               inkscape:transform-center-y="-89.532179"
               inkscape:label="path5969" /></g><g
             id="g18340"
             transform="rotate(22.5,2049.0208,1301.9125)"
             inkscape:transform-center-x="-34.354027"
             inkscape:transform-center-y="-82.323429"><path
               sodipodi:type="star"
               style="fill:#efa900;fill-opacity:1;stroke:#efa900;stroke-width:2.22;stroke-linecap:round;stroke-opacity:1;paint-order:stroke fill markers"
               id="path18338"
               inkscape:flatsided="false"
               sodipodi:sides="5"
               sodipodi:cx="396.99625"
               sodipodi:cy="-372.60107"
               sodipodi:r1="3.6169088"
               sodipodi:r2="1.6637779"
               sodipodi:arg1="0.95906936"
               sodipodi:arg2="1.5873879"
               inkscape:rounded="0"
               inkscape:randomized="0"
               d="m 399.07337,-369.64006 -2.10473,-1.29747 -2.14661,1.22692 0.58356,-2.40265 -1.83021,-1.66242 2.46539,-0.18746 1.01548,-2.25435 0.94014,2.2868 2.45781,0.26915 -1.88435,1.60078 z"
               transform="matrix(1.0133273,0,0,1.0133273,-268.95197,974.58915)"
               inkscape:transform-center-x="1.0196929"
               inkscape:transform-center-y="-89.532179"
               inkscape:label="path5969" /></g><g
             id="g18344"
             transform="rotate(37.5,1334.8573,904.95028)"
             inkscape:transform-center-x="-54.232035"
             inkscape:transform-center-y="-70.490863"><path
               sodipodi:type="star"
               style="fill:#efa900;fill-opacity:1;stroke:#efa900;stroke-width:2.22;stroke-linecap:round;stroke-opacity:1;paint-order:stroke fill markers"
               id="path18342"
               inkscape:flatsided="false"
               sodipodi:sides="5"
               sodipodi:cx="396.99625"
               sodipodi:cy="-372.60107"
               sodipodi:r1="3.6169088"
               sodipodi:r2="1.6637779"
               sodipodi:arg1="0.95906936"
               sodipodi:arg2="1.5873879"
               inkscape:rounded="0"
               inkscape:randomized="0"
               d="m 399.07337,-369.64006 -2.10473,-1.29747 -2.14661,1.22692 0.58356,-2.40265 -1.83021,-1.66242 2.46539,-0.18746 1.01548,-2.25435 0.94014,2.2868 2.45781,0.26915 -1.88435,1.60078 z"
               transform="matrix(1.0133273,0,0,1.0133273,-268.95197,974.58915)"
               inkscape:transform-center-x="1.0196929"
               inkscape:transform-center-y="-89.532179"
               inkscape:label="path5969" /></g><g
             id="g18348"
             transform="rotate(52.5,1019.845,729.85313)"
             inkscape:transform-center-x="-70.414229"
             inkscape:transform-center-y="-54.322566"><path
               sodipodi:type="star"
               style="fill:#efa900;fill-opacity:1;stroke:#efa900;stroke-width:2.22;stroke-linecap:round;stroke-opacity:1;paint-order:stroke fill markers"
               id="path18346"
               inkscape:flatsided="false"
               sodipodi:sides="5"
               sodipodi:cx="396.99625"
               sodipodi:cy="-372.60107"
               sodipodi:r1="3.6169088"
               sodipodi:r2="1.6637779"
               sodipodi:arg1="0.95906936"
               sodipodi:arg2="1.5873879"
               inkscape:rounded="0"
               inkscape:randomized="0"
               d="m 399.07337,-369.64006 -2.10473,-1.29747 -2.14661,1.22692 0.58356,-2.40265 -1.83021,-1.66242 2.46539,-0.18746 1.01548,-2.25435 0.94014,2.2868 2.45781,0.26915 -1.88435,1.60078 z"
               transform="matrix(1.0133273,0,0,1.0133273,-268.95197,974.58915)"
               inkscape:transform-center-x="1.0196929"
               inkscape:transform-center-y="-89.532179"
               inkscape:label="path5969" /></g><g
             id="g18352"
             transform="rotate(67.5,837.58649,628.54617)"
             inkscape:transform-center-x="-82.3354"
             inkscape:transform-center-y="-34.452242"><path
               sodipodi:type="star"
               style="fill:#efa900;fill-opacity:1;stroke:#efa900;stroke-width:2.22;stroke-linecap:round;stroke-opacity:1;paint-order:stroke fill markers"
               id="path18350"
               inkscape:flatsided="false"
               sodipodi:sides="5"
               sodipodi:cx="396.99625"
               sodipodi:cy="-372.60107"
               sodipodi:r1="3.6169088"
               sodipodi:r2="1.6637779"
               sodipodi:arg1="0.95906936"
               sodipodi:arg2="1.5873879"
               inkscape:rounded="0"
               inkscape:randomized="0"
               d="m 399.07337,-369.64006 -2.10473,-1.29747 -2.14661,1.22692 0.58356,-2.40265 -1.83021,-1.66242 2.46539,-0.18746 1.01548,-2.25435 0.94014,2.2868 2.45781,0.26915 -1.88435,1.60078 z"
               transform="matrix(1.0133273,0,0,1.0133273,-268.95197,974.58915)"
               inkscape:transform-center-x="1.0196929"
               inkscape:transform-center-y="-89.532179"
               inkscape:label="path5969" /></g><g
             id="g18356"
             transform="rotate(82.5,715.32761,560.58954)"
             inkscape:transform-center-x="-88.666206"
             inkscape:transform-center-y="-11.806367"><path
               sodipodi:type="star"
               style="fill:#efa900;fill-opacity:1;stroke:#efa900;stroke-width:2.22;stroke-linecap:round;stroke-opacity:1;paint-order:stroke fill markers"
               id="path18354"
               inkscape:flatsided="false"
               sodipodi:sides="5"
               sodipodi:cx="396.99625"
               sodipodi:cy="-372.60107"
               sodipodi:r1="3.6169088"
               sodipodi:r2="1.6637779"
               sodipodi:arg1="0.95906936"
               sodipodi:arg2="1.5873879"
               inkscape:rounded="0"
               inkscape:randomized="0"
               d="m 399.07337,-369.64006 -2.10473,-1.29747 -2.14661,1.22692 0.58356,-2.40265 -1.83021,-1.66242 2.46539,-0.18746 1.01548,-2.25435 0.94014,2.2868 2.45781,0.26915 -1.88435,1.60078 z"
               transform="matrix(1.0133273,0,0,1.0133273,-268.95197,974.58915)"
               inkscape:transform-center-x="1.0196929"
               inkscape:transform-center-y="-89.532179"
               inkscape:label="path5969" /></g><g
             id="g18360"
             transform="rotate(97.5,624.98471,510.37315)"
             inkscape:transform-center-x="-88.637973"
             inkscape:transform-center-y="11.777454"><path
               sodipodi:type="star"
               style="fill:#efa900;fill-opacity:1;stroke:#efa900;stroke-width:2.22;stroke-linecap:round;stroke-opacity:1;paint-order:stroke fill markers"
               id="path18358"
               inkscape:flatsided="false"
               sodipodi:sides="5"
               sodipodi:cx="396.99625"
               sodipodi:cy="-372.60107"
               sodipodi:r1="3.6169088"
               sodipodi:r2="1.6637779"
               sodipodi:arg1="0.95906936"
               sodipodi:arg2="1.5873879"
               inkscape:rounded="0"
               inkscape:randomized="0"
               d="m 399.07337,-369.64006 -2.10473,-1.29747 -2.14661,1.22692 0.58356,-2.40265 -1.83021,-1.66242 2.46539,-0.18746 1.01548,-2.25435 0.94014,2.2868 2.45781,0.26915 -1.88435,1.60078 z"
               transform="matrix(1.0133273,0,0,1.0133273,-268.95197,974.58915)"
               inkscape:transform-center-x="1.0196929"
               inkscape:transform-center-y="-89.532179"
               inkscape:label="path5969" /></g><g
             id="g18364"
             transform="rotate(112.5,553.34383,470.55213)"
             inkscape:transform-center-x="-82.323487"
             inkscape:transform-center-y="34.35403"><path
               sodipodi:type="star"
               style="fill:#efa900;fill-opacity:1;stroke:#efa900;stroke-width:2.22;stroke-linecap:round;stroke-opacity:1;paint-order:stroke fill markers"
               id="path18362"
               inkscape:flatsided="false"
               sodipodi:sides="5"
               sodipodi:cx="396.99625"
               sodipodi:cy="-372.60107"
               sodipodi:r1="3.6169088"
               sodipodi:r2="1.6637779"
               sodipodi:arg1="0.95906936"
               sodipodi:arg2="1.5873879"
               inkscape:rounded="0"
               inkscape:randomized="0"
               d="m 399.07337,-369.64006 -2.10473,-1.29747 -2.14661,1.22692 0.58356,-2.40265 -1.83021,-1.66242 2.46539,-0.18746 1.01548,-2.25435 0.94014,2.2868 2.45781,0.26915 -1.88435,1.60078 z"
               transform="matrix(1.0133273,0,0,1.0133273,-268.95197,974.58915)"
               inkscape:transform-center-x="1.0196929"
               inkscape:transform-center-y="-89.532179"
               inkscape:label="path5969" /></g><g
             id="g18368"
             transform="rotate(127.5,493.28797,437.17055)"
             inkscape:transform-center-x="-70.490908"
             inkscape:transform-center-y="54.23204"><path
               sodipodi:type="star"
               style="fill:#efa900;fill-opacity:1;stroke:#efa900;stroke-width:2.22;stroke-linecap:round;stroke-opacity:1;paint-order:stroke fill markers"
               id="path18366"
               inkscape:flatsided="false"
               sodipodi:sides="5"
               sodipodi:cx="396.99625"
               sodipodi:cy="-372.60107"
               sodipodi:r1="3.6169088"
               sodipodi:r2="1.6637779"
               sodipodi:arg1="0.95906936"
               sodipodi:arg2="1.5873879"
               inkscape:rounded="0"
               inkscape:randomized="0"
               d="m 399.07337,-369.64006 -2.10473,-1.29747 -2.14661,1.22692 0.58356,-2.40265 -1.83021,-1.66242 2.46539,-0.18746 1.01548,-2.25435 0.94014,2.2868 2.45781,0.26915 -1.88435,1.60078 z"
               transform="matrix(1.0133273,0,0,1.0133273,-268.95197,974.58915)"
               inkscape:transform-center-x="1.0196929"
               inkscape:transform-center-y="-89.532179"
               inkscape:label="path5969" /></g><g
             id="g18372"
             transform="rotate(142.5,440.5548,407.85923)"
             inkscape:transform-center-x="-54.322569"
             inkscape:transform-center-y="70.414225"><path
               sodipodi:type="star"
               style="fill:#efa900;fill-opacity:1;stroke:#efa900;stroke-width:2.22;stroke-linecap:round;stroke-opacity:1;paint-order:stroke fill markers"
               id="path18370"
               inkscape:flatsided="false"
               sodipodi:sides="5"
               sodipodi:cx="396.99625"
               sodipodi:cy="-372.60107"
               sodipodi:r1="3.6169088"
               sodipodi:r2="1.6637779"
               sodipodi:arg1="0.95906936"
               sodipodi:arg2="1.5873879"
               inkscape:rounded="0"
               inkscape:randomized="0"
               d="m 399.07337,-369.64006 -2.10473,-1.29747 -2.14661,1.22692 0.58356,-2.40265 -1.83021,-1.66242 2.46539,-0.18746 1.01548,-2.25435 0.94014,2.2868 2.45781,0.26915 -1.88435,1.60078 z"
               transform="matrix(1.0133273,0,0,1.0133273,-268.95197,974.58915)"
               inkscape:transform-center-x="1.0196929"
               inkscape:transform-center-y="-89.532179"
               inkscape:label="path5969" /></g><g
             id="g18376"
             transform="rotate(157.5,392.3333,381.05569)"
             inkscape:transform-center-x="-34.452251"
             inkscape:transform-center-y="82.335402"><path
               sodipodi:type="star"
               style="fill:#efa900;fill-opacity:1;stroke:#efa900;stroke-width:2.22;stroke-linecap:round;stroke-opacity:1;paint-order:stroke fill markers"
               id="path18374"
               inkscape:flatsided="false"
               sodipodi:sides="5"
               sodipodi:cx="396.99625"
               sodipodi:cy="-372.60107"
               sodipodi:r1="3.6169088"
               sodipodi:r2="1.6637779"
               sodipodi:arg1="0.95906936"
               sodipodi:arg2="1.5873879"
               inkscape:rounded="0"
               inkscape:randomized="0"
               d="m 399.07337,-369.64006 -2.10473,-1.29747 -2.14661,1.22692 0.58356,-2.40265 -1.83021,-1.66242 2.46539,-0.18746 1.01548,-2.25435 0.94014,2.2868 2.45781,0.26915 -1.88435,1.60078 z"
               transform="matrix(1.0133273,0,0,1.0133273,-268.95197,974.58915)"
               inkscape:transform-center-x="1.0196929"
               inkscape:transform-center-y="-89.532179"
               inkscape:label="path5969" /></g><g
             id="g18380"
             transform="rotate(172.5,346.57293,355.62015)"
             inkscape:transform-center-x="-11.806385"
             inkscape:transform-center-y="88.666214"><path
               sodipodi:type="star"
               style="fill:#efa900;fill-opacity:1;stroke:#efa900;stroke-width:2.22;stroke-linecap:round;stroke-opacity:1;paint-order:stroke fill markers"
               id="path18378"
               inkscape:flatsided="false"
               sodipodi:sides="5"
               sodipodi:cx="396.99625"
               sodipodi:cy="-372.60107"
               sodipodi:r1="3.6169088"
               sodipodi:r2="1.6637779"
               sodipodi:arg1="0.95906936"
               sodipodi:arg2="1.5873879"
               inkscape:rounded="0"
               inkscape:randomized="0"
               d="m 399.07337,-369.64006 -2.10473,-1.29747 -2.14661,1.22692 0.58356,-2.40265 -1.83021,-1.66242 2.46539,-0.18746 1.01548,-2.25435 0.94014,2.2868 2.45781,0.26915 -1.88435,1.60078 z"
               transform="matrix(1.0133273,0,0,1.0133273,-268.95197,974.58915)"
               inkscape:transform-center-x="1.0196929"
               inkscape:transform-center-y="-89.532179"
               inkscape:label="path5969" /></g></g></g><g
         id="g17661"
         inkscape:label="Texts"
         transform="translate(-779.20394,9.5964659)"><circle
           style="fill:none;fill-opacity:1;stroke:none;stroke-width:3.01836;stroke-linecap:round;stroke-opacity:1;paint-order:stroke fill markers"
           id="circle17645"
           cx="-1.4210855e-14"
           cy="-55.295727"
           transform="matrix(0,-1,-1,0,0,0)"
           r="76.490822"
           inkscape:label="Bottom-text-path" /><circle
           style="fill:none;fill-opacity:1;stroke:none;stroke-width:2.48601;stroke-linecap:round;stroke-opacity:1;paint-order:stroke fill markers"
           id="circle17647"
           cx="1.4210855e-14"
           cy="-55.295727"
           transform="rotate(90)"
           inkscape:label="Top-text-path"
           r="63" /><g
           aria-label="Cexplorer.io"
           id="text17655"
           style="font-size:16.8px;font-family:ROBOTO;-inkscape-font-specification:ROBOTO;text-align:center;letter-spacing:1.2px;text-anchor:middle;fill:#fefeff;stroke:#ffffff;stroke-width:0.744;stroke-linecap:round;paint-order:stroke fill markers"><path
             d="m 14.858755,-48.055292 q -1.276057,1.082623 -2.776689,1.355314 -1.499685,0.261129 -2.987961,-0.32652 -1.4873279,-0.599212 -2.7397738,-2.075435 -1.2630598,-1.488732 -1.6119449,-3.053813 -0.3426299,-1.570388 0.1646503,-3.001236 0.5135355,-1.436154 1.7895923,-2.518777 0.8194286,-0.695214 1.7269808,-1.045643 0.9075521,-0.350429 1.8275993,-0.356455 0.926303,-0.01133 1.806343,0.328555 0.880039,0.33989 1.656004,1.026262 l -1.945361,1.650469 q -0.431578,-0.343851 -0.889889,-0.503656 -0.463618,-0.16606 -0.92459,-0.151485 -0.466279,0.0083 -0.9183498,0.198225 -0.4511226,0.178342 -0.8702197,0.533909 -0.7944079,0.673986 -1.0336487,1.53318 -0.2329856,0.853886 0.061147,1.809201 0.2888255,0.94906 1.1007925,1.906103 0.80666,0.950787 1.6897276,1.395684 0.8893231,0.43959 1.7760141,0.343529 0.886692,-0.09606 1.6811,-0.770048 0.419097,-0.355567 0.673861,-0.765351 0.254765,-0.409783 0.338942,-0.868477 0.08418,-0.458693 0.0012,-0.936917 -0.083,-0.478223 -0.334126,-0.964414 l 1.939106,-1.645162 q 0.545472,0.871168 0.737441,1.794824 0.19197,0.923657 0.02987,1.835737 -0.162098,0.91208 -0.655706,1.750413 -0.49266,0.826771 -1.312089,1.521984 z"
             style="font-weight:bold;font-family:Inter;-inkscape-font-specification:Inter"
             id="path6006" /><path
             d="m 24.407684,-54.696185 q -1.103047,0.632425 -2.175545,0.575976 -1.065382,-0.06053 -1.984075,-0.706316 -0.922773,-0.652904 -1.571518,-1.784416 -0.656906,-1.145745 -0.732824,-2.284189 -0.07592,-1.138443 0.402965,-2.084367 0.474803,-0.95304 1.471103,-1.524262 0.782807,-0.448818 1.572259,-0.523215 0.796568,-0.07848 1.546835,0.191089 0.750267,0.269565 1.401285,0.860796 0.654055,0.580033 1.155915,1.455354 l 0.191767,0.334472 -6.177059,3.541579 -0.595704,-1.038998 5.500999,-3.153964 -0.311411,0.660789 q -0.440657,-0.768574 -1.04053,-1.171645 -0.596838,-0.414268 -1.270434,-0.434664 -0.677677,-0.02751 -1.353738,0.360104 -0.668944,0.383535 -0.987567,0.982269 -0.315587,0.587538 -0.266715,1.315978 0.05191,0.717244 0.492566,1.485818 l 0.293772,0.512383 q 0.444737,0.775691 1.050778,1.222505 0.613158,0.442733 1.321389,0.49055 0.70415,0.0407 1.437142,-0.379556 0.533732,-0.306012 0.845525,-0.702259 0.307712,-0.403363 0.399653,-0.853219 0.09906,-0.453936 -0.01149,-0.910622 l 1.209793,-0.693627 q 0.269767,0.800362 0.135605,1.605377 -0.138243,0.797899 -0.638857,1.49152 -0.493497,0.689542 -1.311886,1.15876 z"
             style="font-family:Inter;-inkscape-font-specification:Inter"
             id="path6008" /><path
             d="m 29.024949,-57.419381 1.614151,-5.923659 0.376633,1.006479 -4.912407,-3.239941 1.532131,-0.586708 1.70565,1.17392 q 0.511287,0.348818 1.007253,0.703503 0.493033,0.347025 0.999593,0.706438 l -0.643494,0.246417 q 0.144595,-0.608763 0.279735,-1.196338 0.139868,-0.59817 0.287397,-1.199272 l 0.500618,-2.018779 1.509149,-0.577907 -1.49956,5.695313 -0.387227,-1.011206 5.122496,3.352738 -1.524469,0.583774 -1.99104,-1.345722 q -0.497759,-0.33643 -0.977264,-0.671067 -0.479505,-0.334637 -0.972538,-0.681662 l 0.651156,-0.249351 q -0.135141,0.587575 -0.276149,1.159829 -0.141008,0.572254 -0.286743,1.155102 l -0.598262,2.337258 z"
             style="font-family:Inter;-inkscape-font-specification:Inter"
             id="path6010" /><path
             d="m 39.607891,-57.605288 -2.432547,-11.844188 1.333878,-0.273951 0.257447,1.253524 0.01607,-0.0033 q 0.175836,-0.530199 0.529315,-0.929396 0.353479,-0.399197 0.836389,-0.657489 0.48126,-0.266327 1.027668,-0.378548 1.108886,-0.227742 2.050404,0.15672 0.941518,0.384462 1.604173,1.286785 0.661006,0.894288 0.930005,2.204059 0.267349,1.301736 0.01397,2.392193 -0.255031,1.082423 -0.967157,1.814882 -0.713776,0.724425 -1.822662,0.952166 -0.546407,0.112221 -1.069573,0.05218 -0.521516,-0.052 -0.997333,-0.289255 -0.475818,-0.23725 -0.881832,-0.664699 l -0.01607,0.0033 0.953875,4.644465 z m 2.915536,-5.213053 q 0.739258,-0.151828 1.227473,-0.628942 0.488214,-0.477115 0.664404,-1.250243 0.176189,-0.773128 -0.0367,-1.809695 -0.214539,-1.044603 -0.681182,-1.685706 -0.466643,-0.641104 -1.103385,-0.887176 -0.636742,-0.246072 -1.375999,-0.09424 -0.78747,0.16173 -1.285155,0.674286 -0.497684,0.512557 -0.664188,1.29207 -0.166504,0.779513 0.03153,1.743762 0.196386,0.956213 0.656644,1.607002 0.460257,0.65079 1.119671,0.925703 0.659415,0.274913 1.446884,0.113183 z"
             style="font-family:Inter;-inkscape-font-specification:Inter"
             id="path6012" /><path
             d="m 49.868364,-75.032574 0.983695,12.183007 -1.390008,0.112234 -0.983695,-12.183007 z"
             style="font-family:Inter;-inkscape-font-specification:Inter"
             id="path6014" /><path
             d="m 57.684922,-62.75852 q -1.196813,-0.04493 -2.085176,-0.652908 -0.879858,-0.615865 -1.349932,-1.651417 -0.461876,-1.035245 -0.412327,-2.355018 0.04986,-1.327971 0.588364,-2.333866 0.546705,-1.005588 1.470265,-1.553747 0.931756,-0.547851 2.128569,-0.502918 1.20501,0.04524 2.084868,0.661105 0.879858,0.615865 1.341427,1.659307 0.469766,1.04375 0.419909,2.37172 -0.04955,1.319774 -0.595946,2.317164 -0.5382,0.997698 -1.461759,1.545857 -0.923252,0.539961 -2.128262,0.494721 z m 0.04739,-1.262392 q 0.819735,0.03078 1.416827,-0.349044 0.597092,-0.379819 0.935982,-1.097689 0.339197,-0.726066 0.37582,-1.701551 0.03724,-0.991879 -0.24687,-1.733138 -0.283802,-0.749456 -0.850425,-1.181174 -0.566624,-0.431719 -1.386359,-0.462494 -0.811538,-0.03047 -1.417135,0.357241 -0.597092,0.379819 -0.936289,1.105886 -0.339198,0.726067 -0.376436,1.717946 -0.03693,0.983682 0.247178,1.724941 0.284109,0.741259 0.851041,1.164779 0.566931,0.423521 1.386666,0.454297 z"
             style="font-family:Inter;-inkscape-font-specification:Inter"
             id="path6016" /><path
             d="m 64.50772,-62.351707 1.472099,-8.5365 1.309576,0.225834 -0.231409,1.341912 0.03234,0.0056 q 0.348741,-0.622445 0.927723,-0.938812 0.578981,-0.316366 1.379278,-0.178357 0.185928,0.03206 0.336732,0.07472 0.158888,0.04405 0.236938,0.07416 l -0.236986,1.374247 q -0.07666,-0.03819 -0.30551,-0.110954 -0.219376,-0.07945 -0.518477,-0.131031 -0.468861,-0.08085 -0.91069,0.06771 -0.441829,0.148561 -0.763804,0.567517 -0.321974,0.418956 -0.447437,1.146498 l -0.906121,5.254475 z"
             style="font-family:Inter;-inkscape-font-specification:Inter"
             id="path6018" /><path
             d="m 74.208055,-59.905665 q -1.213253,-0.380379 -1.900034,-1.206073 -0.678954,-0.82324 -0.828643,-1.936178 -0.147235,-1.120766 0.242959,-2.36533 0.395103,-1.260218 1.179334,-2.088951 0.78423,-0.828733 1.803832,-1.119444 1.022056,-0.298538 2.117898,0.04503 0.861019,0.269946 1.451672,0.799 0.59848,0.531509 0.910009,1.265345 0.311529,0.733836 0.319521,1.613219 0.01827,0.87401 -0.283575,1.836786 l -0.11534,0.367889 -6.794221,-2.130118 0.358292,-1.142807 6.050614,1.896984 -0.696561,0.220053 q 0.265038,-0.845364 0.153638,-1.55944 -0.101118,-0.719449 -0.543515,-1.227813 -0.439943,-0.516191 -1.18355,-0.749326 -0.73578,-0.230681 -1.391679,-0.05806 -0.645618,0.167251 -1.147213,0.697738 -0.491313,0.525114 -0.756351,1.370478 l -0.176691,0.563576 q -0.267492,0.853191 -0.184017,1.601497 0.0913,0.750759 0.537083,1.303168 0.448236,0.544582 1.254463,0.797349 0.587058,0.184054 1.089665,0.143904 0.505062,-0.04798 0.897748,-0.28593 0.400513,-0.235499 0.660725,-0.626743 l 1.330665,0.417189 q -0.404408,0.741491 -1.086499,1.189598 -0.679637,0.440281 -1.528769,0.543726 -0.841304,0.105899 -1.74146,-0.176316 z"
             style="font-family:Inter;-inkscape-font-specification:Inter"
             id="path6020" /><path
             d="m 80.477228,-57.777399 3.609932,-7.874471 1.208016,0.553797 -0.567471,1.237843 0.02983,0.01367 q 0.496566,-0.512329 1.137275,-0.669808 0.640708,-0.157479 1.37894,0.180953 0.171508,0.07862 0.306352,0.15849 0.142301,0.08328 0.210033,0.132383 l -0.581145,1.26767 q -0.06431,-0.05656 -0.266889,-0.185519 -0.1917,-0.133003 -0.467605,-0.259487 -0.432499,-0.198273 -0.897643,-0.167862 -0.465143,0.03041 -0.883704,0.352899 -0.418561,0.322487 -0.726226,0.993607 l -2.222023,4.846975 z"
             style="font-family:Inter;-inkscape-font-specification:Inter"
             id="path6022" /><path
             d="m 86.108686,-54.803396 q -0.371631,-0.209394 -0.491095,-0.615669 -0.10829,-0.409396 0.101104,-0.781026 0.213422,-0.378778 0.61567,-0.491095 0.409395,-0.108291 0.781026,0.101104 0.378777,0.213422 0.491095,0.61567 0.112317,0.402248 -0.101105,0.781026 -0.209394,0.371631 -0.615669,0.491095 -0.402249,0.112317 -0.781026,-0.101105 z"
             style="font-family:Inter;-inkscape-font-specification:Inter"
             id="path6024" /><path
             d="m 89.66592,-52.811898 4.811696,-7.203227 1.159611,0.774611 -4.811697,7.203226 z m 6.330147,-8.221096 q -0.327419,-0.218714 -0.404419,-0.605558 -0.077,-0.386844 0.141713,-0.714263 0.218714,-0.32742 0.605558,-0.40442 0.386844,-0.077 0.714263,0.141714 0.32742,0.218713 0.40442,0.605557 0.077,0.386844 -0.141714,0.714264 -0.218713,0.327419 -0.605557,0.404419 -0.386845,0.077 -0.714264,-0.141713 z"
             style="font-family:Inter;-inkscape-font-specification:Inter"
             id="path6026" /><path
             d="m 96.123878,-47.722538 q -0.909702,-0.778988 -1.227838,-1.807391 -0.306569,-1.029298 -0.03127,-2.132725 0.281525,-1.098091 1.140546,-2.101256 0.864356,-1.009396 1.911379,-1.462783 1.053253,-0.448052 2.117465,-0.303533 1.07044,0.149855 1.98015,0.928843 0.91593,0.784323 1.2225,1.813621 0.30657,1.029298 0.0197,2.13362 -0.28063,1.109658 -1.14499,2.119054 -0.85902,1.003165 -1.90694,1.444986 -1.041679,0.447156 -2.105894,0.302637 -1.058879,-0.15075 -1.974813,-0.935073 z m 0.821672,-0.959549 q 0.623084,0.533553 1.326915,0.607065 0.70383,0.07351 1.415465,-0.278283 0.71697,-0.358025 1.3519,-1.099495 0.6456,-0.753931 0.88369,-1.511226 0.24342,-0.763526 0.0678,-1.45389 -0.17561,-0.690365 -0.7987,-1.223918 -0.61685,-0.528218 -1.332246,-0.600835 -0.70383,-0.07351 -1.4208,0.284514 -0.71697,0.358025 -1.362569,1.111957 -0.640264,0.7477 -0.878355,1.504995 -0.23809,0.757295 -0.05714,1.441429 0.180949,0.684134 0.804032,1.217687 z"
             style="font-family:Inter;-inkscape-font-specification:Inter"
             id="path6028" /></g><g
           aria-label="3 000 delegators"
           id="text17659"
           style="font-size:16.8px;font-family:ROBOTO;-inkscape-font-specification:ROBOTO;text-align:center;letter-spacing:1.34783px;text-anchor:middle;fill:#fefeff;stroke:#ffffff;stroke-width:0.744;stroke-linecap:round;paint-order:stroke fill markers"><path
             d="m -6.8923062,44.883307 q -0.893462,-1.236825 -1.033239,-2.410922 -0.139777,-1.174098 0.325994,-2.168338 0.4705745,-0.98759 1.4148166,-1.669696 l 1.4122463,1.95498 q -0.5718649,0.413107 -0.8304258,0.923714 -0.2537572,0.517257 -0.1849802,1.07475 0.07358,0.564143 0.4770795,1.122709 0.3842847,0.531967 0.8520372,0.801246 0.4744021,0.264476 0.9702027,0.250384 0.4958007,-0.01409 0.9346737,-0.331126 0.4255739,-0.307428 0.5603731,-0.77923 0.1396027,-0.465153 -0.00454,-1.028918 -0.1393419,-0.557116 -0.5668587,-1.14893 l -0.6388733,-0.884396 1.4961582,-1.080801 0.6388733,0.884396 q 0.3890883,0.538617 0.83208849,0.815658 0.44300019,0.27704 0.88264654,0.283274 0.44629597,0.0014 0.84527147,-0.286783 Q 1.916809,40.89785 2.0918826,40.467791 2.2669563,40.037733 2.1804535,39.553762 2.0987543,39.076441 1.7577016,38.60432 1.4070418,38.1189 0.95000787,37.892476 0.49297396,37.666052 -0.00836475,37.714503 -0.5048999,37.769604 -0.98367053,38.11546 L -2.3767026,36.187078 q 0.9043445,-0.653284 1.92143259,-0.730238 1.02854125,-0.07511 2.01059341,0.429827 0.9820522,0.504934 1.7650323,1.588817 0.7349445,1.017388 0.9426865,2.061432 0.2191952,1.04589 -0.084028,1.942947 -0.2917701,0.898903 -1.1030203,1.484937 -0.831199,0.600445 -1.7825451,0.488234 -0.94469651,-0.117016 -1.72283433,-0.829972 l -0.0199488,0.01441 q 0.41312543,0.754004 0.4294596,1.491055 0.02298376,0.732248 -0.28839685,1.351849 -0.31138061,0.619601 -0.90319432,1.047118 -0.8511478,0.614855 -1.8734164,0.614594 -1.0108154,0.0016 -2.0113473,-0.570956 -0.9938823,-0.577345 -1.7960766,-1.687826 z"
             style="font-weight:bold;font-family:Inter;-inkscape-font-specification:'Inter Bold'"
             id="path6031" /><path
             d="M 4.4855466,57.440957 Q 3.3369324,56.424201 3.007236,55.113506 q -0.3181167,-1.3114 0.168692,-2.764795 0.492951,-1.447958 1.7815671,-2.903688 1.2940534,-1.461873 2.6714988,-2.126874 1.3835877,-0.659564 2.7238981,-0.50292 1.34031,0.156643 2.495067,1.178837 1.148614,1.016756 1.466731,2.328156 0.329696,1.310695 -0.168692,2.764795 -0.486809,1.453395 -1.780862,2.915268 -1.288617,1.45573 -2.6722042,2.115294 -1.3774454,0.665001 -2.723898,0.50292 -1.334873,-0.162785 -2.4834872,-1.179542 z m 1.3375509,-1.511011 q 0.5958053,0.527408 1.3683114,0.521046 0.7725061,-0.0064 1.6420666,-0.518401 0.8695605,-0.512038 1.7503865,-1.507094 0.886264,-1.001198 1.289008,-1.926464 0.402744,-0.925265 0.315325,-1.692835 -0.08198,-0.773713 -0.677787,-1.301121 -0.595806,-0.527408 -1.379891,-0.520341 -0.7725063,0.0064 -1.6420668,0.518401 -0.8634182,0.517475 -1.7496817,1.518674 -0.8808262,0.995056 -1.2897125,1.914884 -0.4027441,0.925265 -0.315325,1.692835 0.093561,0.773008 0.6893665,1.300416 z"
             style="font-weight:bold;font-family:Inter;-inkscape-font-specification:'Inter Bold'"
             id="path6033" /><path
             d="m 14.310796,64.828592 q -1.295856,-0.820893 -1.830045,-2.062369 -0.52287,-1.244017 -0.273692,-2.756382 0.256107,-1.507976 1.29649,-3.150318 1.044773,-1.649271 2.298758,-2.525115 1.260915,-0.871455 2.609067,-0.930224 1.348152,-0.05877 2.650938,0.766513 1.295856,0.820893 1.818725,2.064909 0.534189,1.241476 0.273693,2.756382 -0.249177,1.512366 -1.29395,3.161637 -1.040384,1.642341 -2.301299,2.513796 -1.253985,0.875845 -2.609067,0.930224 -1.343762,0.05184 -2.639618,-0.769053 z m 1.079891,-1.704709 q 0.672182,0.425811 1.433819,0.296525 0.761638,-0.129285 1.538574,-0.773249 0.776936,-0.643964 1.488084,-1.766577 0.715537,-1.129542 0.965815,-2.107131 0.250278,-0.977589 0.04176,-1.721447 -0.204132,-0.750787 -0.876314,-1.176598 -0.672182,-0.425811 -1.445139,-0.293985 -0.761637,0.129285 -1.538573,0.773249 -0.770006,0.648353 -1.485544,1.777896 -0.711148,1.122613 -0.968356,2.095812 -0.250278,0.977589 -0.04176,1.721446 0.215452,0.748248 0.887634,1.174059 z"
             style="font-weight:bold;font-family:Inter;-inkscape-font-specification:'Inter Bold'"
             id="path6035" /><path
             d="m 25.189732,70.552448 q -1.410636,-0.602671 -2.136829,-1.742524 -0.715427,-1.144174 -0.711774,-2.676925 0.0112,-1.529529 0.775009,-3.31734 0.767037,-1.795356 1.864499,-2.860795 1.105005,-1.062216 2.426326,-1.336222 1.321321,-0.274006 2.739501,0.331888 1.410636,0.602672 2.126062,1.746845 0.726193,1.139853 0.711774,2.676925 -0.0037,1.532751 -0.770689,3.328107 -0.763813,1.787811 -1.868818,2.850028 -1.097462,1.065439 -2.426327,1.336222 -1.318098,0.266463 -2.728734,-0.336209 z m 0.792819,-1.855703 q 0.731721,0.312615 1.462805,0.06297 0.731085,-0.249642 1.394811,-1.009765 0.663726,-0.760122 1.185826,-1.982171 0.525324,-1.229592 0.615743,-2.234651 0.09042,-1.005058 -0.234588,-1.705898 -0.321783,-0.708384 -1.053504,-1.021 -0.73172,-0.312615 -1.473571,-0.05865 -0.731085,0.249642 -1.394811,1.009764 -0.656182,0.763346 -1.181506,1.992938 -0.5221,1.222048 -0.620063,2.223884 -0.09042,1.005059 0.234588,1.705899 0.33255,0.704063 1.06427,1.01668 z"
             style="font-weight:bold;font-family:Inter;-inkscape-font-specification:'Inter Bold'"
             id="path6037" /><path
             d="m 40.482942,75.245699 q -1.113147,-0.205909 -1.841019,-0.916168 -0.727873,-0.71026 -1.002632,-1.795528 -0.266692,-1.083776 -0.0205,-2.414713 0.243212,-1.314804 0.886517,-2.221907 0.652864,-0.913678 1.578579,-1.318058 0.935274,-0.410954 2.024222,-0.209521 0.556574,0.102954 0.996068,0.342755 0.440987,0.231734 0.756828,0.598823 0.315842,0.367089 0.505046,0.877598 l 0.0081,0.0015 0.865414,-4.678444 2.371487,0.438676 -2.223219,12.018761 -2.339222,-0.432707 0.241719,-1.306738 -0.0081,-0.0015 q -0.341073,0.445788 -0.782856,0.714444 -0.432225,0.262081 -0.946043,0.333881 -0.513819,0.0718 -1.070393,-0.03115 z m 0.97114,-1.822509 q 0.604971,0.111907 1.105316,-0.112547 0.509904,-0.231028 0.864405,-0.749412 0.354501,-0.518385 0.494758,-1.276616 0.141749,-0.766297 -0.0054,-1.369125 -0.145609,-0.610895 -0.540621,-1.000971 -0.385454,-0.39665 -0.990425,-0.508557 -0.572706,-0.105938 -1.055426,0.113433 -0.482721,0.219372 -0.827664,0.731182 -0.336876,0.513303 -0.484594,1.311865 -0.147717,0.798562 -0.01824,1.406472 0.139034,0.601337 0.511339,0.97887 0.373798,0.369467 0.946504,0.475406 z"
             style="font-weight:bold;font-family:Inter;-inkscape-font-specification:'Inter Bold'"
             id="path6039" /><path
             d="m 52.388893,76.633678 q -1.311526,-0.05054 -2.264861,-0.661929 -0.944822,-0.619266 -1.446338,-1.664746 -0.49332,-1.045163 -0.442776,-2.35669 0.05118,-1.32792 0.631352,-2.323503 0.58869,-1.003465 1.570172,-1.548494 0.981483,-0.54503 2.219236,-0.497329 0.959054,0.03696 1.725136,0.394853 0.766399,0.349695 1.308618,0.978073 0.542535,0.620182 0.814235,1.451574 0.279898,0.831708 0.241673,1.82355 l -0.02496,0.647566 -7.647838,-0.294736 0.05939,-1.541043 6.483858,0.249878 -1.104422,0.326851 q 0.02527,-0.655763 -0.194119,-1.140352 -0.219392,-0.48459 -0.65224,-0.755756 -0.424334,-0.279049 -1.030915,-0.302425 -0.598384,-0.02306 -1.042936,0.222501 -0.444236,0.237366 -0.700272,0.703633 -0.256037,0.466267 -0.281309,1.12203 l -0.04043,1.049221 q -0.0259,0.672158 0.192224,1.189535 0.226642,0.509497 0.674935,0.805887 0.44861,0.288192 1.096176,0.313149 0.475428,0.01832 0.841152,-0.09893 0.374237,-0.125134 0.629626,-0.361568 0.263901,-0.244316 0.383414,-0.576288 l 2.205004,0.08498 q -0.188914,0.854687 -0.787978,1.488337 -0.599065,0.63365 -1.482483,0.977228 -0.883102,0.335382 -1.932323,0.294946 z"
             style="font-weight:bold;font-family:Inter;-inkscape-font-specification:'Inter Bold'"
             id="path6041" /><path
             d="m 60.828678,64.04532 0.8085,12.195886 -2.414622,0.160072 -0.8085,-12.195886 z"
             style="font-weight:bold;font-family:Inter;-inkscape-font-specification:'Inter Bold'"
             id="path6043" /><path
             d="m 68.618929,75.534475 q -1.293069,0.225005 -2.35323,-0.173365 -1.053484,-0.407858 -1.762661,-1.325254 -0.701095,-0.918802 -0.9261,-2.211871 -0.227818,-1.309233 0.131194,-2.404177 0.365687,-1.104431 1.211398,-1.842766 0.845711,-0.738335 2.066045,-0.950684 0.945557,-0.164535 1.769569,0.02514 0.822605,0.181588 1.484306,0.682599 0.660295,0.49293 1.099946,1.249066 0.447732,0.754729 0.617892,1.732613 l 0.111097,0.638453 -7.540212,1.312063 -0.264381,-1.519357 6.392612,-1.11237 -1.011581,0.550711 q -0.112503,-0.646534 -0.428436,-1.07449 -0.315933,-0.427955 -0.795939,-0.602548 -0.47333,-0.184081 -1.071375,-0.08002 -0.589963,0.102659 -0.973291,0.435805 -0.384735,0.325066 -0.537539,0.834586 -0.152804,0.50952 -0.0403,1.156054 l 0.180005,1.034456 q 0.115315,0.662698 0.436873,1.12298 0.328234,0.450794 0.828622,0.64682 0.498982,0.187944 1.137435,0.07685 0.468737,-0.08156 0.801831,-0.272748 0.339769,-0.200671 0.540031,-0.48531 0.206937,-0.294127 0.254342,-0.643758 l 2.173973,-0.37829 q -0.0059,0.875296 -0.459108,1.620271 -0.453215,0.744974 -1.245184,1.265798 -0.793376,0.512742 -1.827832,0.692746 z"
             style="font-weight:bold;font-family:Inter;-inkscape-font-specification:'Inter Bold'"
             id="path6045" /><path
             d="m 80.278609,76.057261 q -1.168728,0.384874 -2.097168,0.319251 -0.918083,-0.0604 -1.583143,-0.506396 -0.657268,-0.448563 -1.038421,-1.212602 l 2.212792,-0.728695 q 0.188339,0.283437 0.478345,0.429756 0.297797,0.143754 0.668754,0.142504 0.373523,0.0065 0.802057,-0.134578 0.841484,-0.277109 1.142008,-0.885627 0.308316,-0.611083 0.01581,-1.499316 l -0.415664,-1.262227 -0.0078,0.0026 q -0.08246,0.562615 -0.346025,0.99487 -0.255777,0.429688 -0.674517,0.731677 -0.410949,0.299423 -0.948564,0.476465 -1.07523,0.354084 -2.054798,0.08075 -0.979569,-0.273335 -1.734151,-1.069857 -0.74679,-0.799087 -1.149625,-2.022356 -0.407966,-1.238852 -0.27688,-2.335669 0.136311,-1.107175 0.754004,-1.906504 0.625485,-0.801896 1.67734,-1.148282 0.537615,-0.177042 1.038274,-0.177821 0.50845,-0.0033 0.974719,0.17993 0.47406,0.18071 0.882564,0.555737 l 0.0078,-0.0026 -0.392572,-1.192103 2.267333,-0.746656 2.604313,7.908394 q 0.428494,1.301183 0.188891,2.27828 -0.237037,0.984889 -1.025486,1.659083 -0.77809,0.679421 -1.970193,1.071992 z m -1.804905,-5.166154 q 0.584364,-0.192437 0.917963,-0.621844 0.338823,-0.439764 0.403318,-1.056919 0.0645,-0.617156 -0.171561,-1.333976 -0.236056,-0.716819 -0.652069,-1.167102 -0.418579,-0.458075 -0.94984,-0.602674 -0.526035,-0.154958 -1.110399,0.03748 -0.553198,0.182174 -0.873779,0.598657 -0.323146,0.408692 -0.382416,1.015491 -0.05148,0.604232 0.197408,1.360009 0.248885,0.755778 0.649315,1.211192 0.408222,0.452849 0.913542,0.597355 0.505321,0.144506 1.058518,-0.03767 z"
             style="font-weight:bold;font-family:Inter;-inkscape-font-specification:'Inter Bold'"
             id="path6047" /><path
             d="m 88.45881,69.120722 q -0.770658,0.384672 -1.500729,0.428196 -0.730071,0.04352 -1.33148,-0.298062 -0.605072,-0.348925 -0.989744,-1.119583 -0.326055,-0.653225 -0.299997,-1.207158 0.0224,-0.561273 0.308865,-1.03432 0.290146,-0.48405 0.763669,-0.894605 0.480863,-0.414217 1.057065,-0.766005 0.675306,-0.428759 1.060692,-0.703637 0.385385,-0.274878 0.506595,-0.49124 0.12121,-0.216362 -0.0034,-0.465908 l -0.02564,-0.05138 q -0.142878,-0.286245 -0.403253,-0.422159 -0.264037,-0.143253 -0.612562,-0.125149 -0.341185,0.01444 -0.737523,0.212273 -0.396339,0.197831 -0.642322,0.476473 -0.238643,0.274978 -0.301224,0.59043 -0.06258,0.315453 0.05827,0.631031 l -2.03307,1.0148 q -0.347948,-0.825661 -0.222674,-1.621651 0.132614,-0.799653 0.7384,-1.496264 0.602123,-0.703951 1.666365,-1.235164 0.792677,-0.395662 1.508132,-0.523573 0.711791,-0.13525 1.309674,-0.0028 0.605222,0.128812 1.070868,0.51066 0.465645,0.381847 0.777045,1.005713 l 2.623094,5.255154 -2.113805,1.055099 -0.545867,-1.093601 -0.02936,0.01465 q -0.01501,0.484238 -0.180377,0.906008 -0.165373,0.421771 -0.521475,0.792051 -0.359766,0.362941 -0.954274,0.659687 z m -0.149178,-1.805028 q 0.521112,-0.260111 0.80018,-0.637781 0.286407,-0.381334 0.327057,-0.814195 0.04065,-0.432861 -0.168173,-0.851218 l -0.388335,-0.777998 q -0.06977,0.099 -0.198257,0.227315 -0.13215,0.120972 -0.315678,0.267588 -0.187191,0.139277 -0.407416,0.304212 -0.220226,0.164934 -0.458794,0.329856 -0.345012,0.245557 -0.583655,0.520535 -0.242307,0.267639 -0.315878,0.561073 -0.07724,0.286094 0.07663,0.594357 0.135551,0.271565 0.381259,0.396464 0.245707,0.124898 0.568562,0.0921 0.322855,-0.0328 0.682495,-0.21231 z"
             style="font-weight:bold;font-family:Inter;-inkscape-font-specification:'Inter Bold'"
             id="path6049" /><path
             d="m 94.814508,55.204559 1.040267,1.583847 -4.751541,3.120804 -1.040267,-1.583847 z m -4.800619,0.326532 2.022661,-1.32848 4.584384,6.979897 q 0.238677,0.363393 0.477233,0.412809 0.245412,0.04491 0.656801,-0.225286 0.171412,-0.112583 0.404532,-0.265696 0.239977,-0.157616 0.37025,-0.24318 l 1.040268,1.583847 q -0.185125,0.12159 -0.514236,0.33775 -0.329111,0.216159 -0.665079,0.436822 -1.193027,0.783579 -2.068341,0.691114 -0.868458,-0.09697 -1.516936,-1.084302 z"
             style="font-weight:bold;font-family:Inter;-inkscape-font-specification:'Inter Bold'"
             id="path6051" /><path
             d="m 104.77297,58.594013 q -0.99609,0.842023 -2.11952,1.050543 -1.12343,0.20852 -2.2061,-0.208192 -1.076411,-0.422008 -1.950207,-1.455683 -0.879093,-1.039939 -1.116029,-2.171576 -0.230673,-1.136933 0.16195,-2.209981 0.387326,-1.079313 1.383413,-1.921335 1.008616,-0.852614 2.131083,-1.049574 1.12343,-0.20852 2.19984,0.213488 1.08267,0.416712 1.96176,1.456652 0.8738,1.033675 1.10447,2.170607 0.23694,1.131637 -0.15569,2.204685 -0.38635,1.067753 -1.39497,1.920366 z m -1.26568,-1.497262 q 0.45106,-0.381293 0.59341,-0.899057 0.13705,-0.524028 -0.0457,-1.121429 -0.18276,-0.597401 -0.69644,-1.205076 -0.52428,-0.620205 -1.08292,-0.899862 -0.55865,-0.279656 -1.09288,-0.22548 -0.53953,0.04791 -0.99059,0.429204 -0.444795,0.375998 -0.581851,0.900026 -0.142351,0.517763 0.04041,1.115164 0.182761,0.597401 0.707041,1.217606 0.51898,0.61394 1.07762,0.893597 0.55335,0.273392 1.09288,0.22548 0.53424,-0.05418 0.97903,-0.430173 z"
             style="font-weight:bold;font-family:Inter;-inkscape-font-specification:'Inter Bold'"
             id="path6053" /><path
             d="m 109.86112,53.652925 -6.35361,-5.888167 1.58356,-1.708737 1.083,1.003665 0.0167,-0.01805 q -0.40988,-0.704195 -0.34094,-1.333722 0.0689,-0.629526 0.65441,-1.261277 0.14497,-0.156434 0.26808,-0.277208 0.12267,-0.132367 0.22906,-0.235091 l 1.51018,1.399555 q -0.0952,0.09069 -0.31357,0.302156 -0.21277,0.205449 -0.42465,0.434082 -0.33456,0.361001 -0.43374,0.805927 -0.10519,0.439351 0.0692,0.9029 0.17435,0.46355 0.65569,0.909623 l 3.44154,3.189424 z"
             style="font-weight:bold;font-family:Inter;-inkscape-font-specification:'Inter Bold'"
             id="path6055" /><path
             d="m 117.26326,45.214613 q -0.66415,0.906585 -1.46079,1.41104 -0.80327,0.499608 -1.64292,0.535298 -0.83965,0.03569 -1.63589,-0.445936 l 1.40586,-1.919049 q 0.49538,0.281559 0.99585,0.139752 0.50047,-0.141806 0.91738,-0.710903 0.39752,-0.542628 0.41538,-0.99731 0.0227,-0.4613 -0.30155,-0.698842 -0.27793,-0.203608 -0.6245,-0.09142 -0.34173,0.105567 -0.73625,0.477525 l -1.13506,1.0497 q -0.94509,0.873647 -1.84907,1.024911 -0.90398,0.151265 -1.71131,-0.440166 -0.66174,-0.48478 -0.89626,-1.205705 -0.22968,-0.727543 -0.0162,-1.588043 0.21831,-0.867118 0.88731,-1.780321 0.66415,-0.906585 1.44979,-1.368258 0.77902,-0.46652 1.58474,-0.455889 0.81056,0.004 1.55302,0.51742 l -1.32345,1.806553 q -0.42836,-0.303642 -0.94383,-0.182996 -0.51547,0.120645 -0.89845,0.643421 -0.36843,0.502923 -0.35851,0.947449 0.003,0.439678 0.31432,0.667524 0.27131,0.19876 0.60819,0.09981 0.33688,-0.09895 0.71377,-0.432972 l 1.22764,-1.134418 q 0.98079,-0.908504 1.81421,-1.060616 0.83165,-0.163577 1.60588,0.403615 0.69483,0.509019 0.92674,1.289039 0.23014,0.768556 0.007,1.683304 -0.22447,0.903284 -0.89347,1.816486 z"
             style="font-weight:bold;font-family:Inter;-inkscape-font-specification:'Inter Bold'"
             id="path6057" /></g></g><g
         id="g17689"
         inkscape:label="Middlepart"
         transform="matrix(0.82,0,0,0.82,-124.56554,4.9213738)"><g
           style="fill:none"
           id="g17669"
           transform="matrix(2.871673,0,0,2.871673,-765.28098,-27.943634)"
           inkscape:label="user"><path
             d="M 15.5,3.29076 C 16.9659,3.88415 18,5.32131 18,7 c 0,1.67869 -1.0341,3.1159 -2.5,3.7092 m -0.9693,4.5953 C 13.7956,15 12.8638,15 11,15 H 8 C 6.13623,15 5.20435,15 4.46927,15.3045 3.48915,15.7105 2.71046,16.4892 2.30448,17.4693 2,18.2044 2,19.1362 2,21"
             stroke="#000000"
             stroke-width="2"
             stroke-linecap="round"
             stroke-linejoin="round"
             id="path17663"
             style="stroke:#ffffff;stroke-opacity:1"
             sodipodi:nodetypes="csccssssc" /><g
             style="fill:none"
             id="g17667"
             transform="matrix(1.2195122,0,0,1.2195122,16.431792,-4.3044051)"><path
               d="M 2.1059357,20.761546 V 15.913074 M -0.31830037,18.33731 H 4.5301716"
               stroke="#000000"
               stroke-width="1.61616"
               stroke-linecap="round"
               stroke-linejoin="round"
               id="path17665"
               sodipodi:nodetypes="cccc"
               style="stroke:#ffffff;stroke-opacity:1" /></g></g><g
           id="g17687"
           transform="matrix(1.8892585,0,0,1.8892585,-739.72275,-5.9525966)"
           inkscape:label="Logo"
           style="display:inline">
		<g
   transform="translate(0.91990781,-0.8)"
   id="g17673"
   inkscape:label="Circle">
<path
   style="opacity:1;fill:#e4003a;fill-opacity:1;fill-rule:nonzero;stroke:none;stroke-width:1;stroke-linecap:butt;stroke-linejoin:miter;stroke-miterlimit:4;stroke-dasharray:none;stroke-dashoffset:0"
   d="m 0,7.39996 a 7.6,7.6 0 1 1 7.6,-7.6 7.6,7.6 0 0 1 -7.6,7.6 z"
   stroke-linecap="round"
   id="path17671" />
</g>
		<g
   transform="translate(0.81,-1.08)"
   id="g17677"
   style="display:none"
   inkscape:label="undefined">
<path
   style="opacity:1;fill:#ffffff;fill-rule:nonzero;stroke:none;stroke-width:1;stroke-linecap:butt;stroke-linejoin:miter;stroke-miterlimit:4;stroke-dasharray:none;stroke-dashoffset:0"
   transform="translate(-10.81,-11.92)"
   d="m 8.46,13.2 h -0.8 c -0.3,0 -0.4,-0.1 -0.4,-0.4 a 0.43,0.43 0 0 1 0.4,-0.4 h 0.9 a 0.35,0.35 0 0 0 0.2,-0.1 1.42,1.42 0 0 0 0.2,-0.6 h -0.7 a 0.4,0.4 0 1 1 0,-0.8 h 0.8 c 0.1,0 0.2,0 0.2,-0.1 a 23.29,23.29 0 0 0 1.1,-2.8 0.1,0.1 0 0 1 0.1,-0.1 c 0.1,-0.2 0.2,-0.3 0.4,-0.3 0.2,0 0.3,0.1 0.4,0.3 0.2,0.6 0.4,1.1 0.6,1.7 0.2,0.4 0.3,0.8 0.5,1.2 0,0.1 0.1,0.1 0.2,0.1 h 0.8 a 0.37,0.37 0 0 1 0.4,0.4 0.43,0.43 0 0 1 -0.4,0.4 h -0.7 a 4.88,4.88 0 0 0 0.3,0.7 0.35,0.35 0 0 0 0.2,0.1 h 0.9 c 0.1,0 0.3,0.1 0.3,0.2 a 0.6,0.6 0 0 1 -0.1,0.4 0.37,0.37 0 0 1 -0.3,0.1 h -0.8 a 3.55,3.55 0 0 0 0.4,0.9 l 0.6,1.5 c 0.1,0.3 0.1,0.5 -0.2,0.6 -0.3,0.1 -0.4,0 -0.5,-0.3 -0.3,-0.9 -0.7,-1.7 -1,-2.6 -0.1,-0.2 -0.1,-0.2 -0.3,-0.2 h -2.9 c -0.2,0 -0.2,0 -0.3,0.2 a 18.61,18.61 0 0 1 -1,2.5 c -0.1,0.2 -0.2,0.3 -0.4,0.3 a 0.27,0.27 0 0 1 -0.3,-0.3 0.37,0.37 0 0 1 0.1,-0.3 c 0.3,-0.7 0.5,-1.4 0.8,-2.1 0.2,0 0.2,-0.1 0.3,-0.2 z m 1,-0.8 h 2.7 c -0.1,-0.2 -0.2,-0.5 -0.3,-0.7 a 0.35,0.35 0 0 0 -0.2,-0.1 h -1.8 c -0.1,0 -0.1,0 -0.2,0.1 a 1.45,1.45 0 0 1 -0.2,0.7 z m 2.2,-1.5 c -0.3,-0.7 -0.5,-1.3 -0.8,-2 -0.3,0.7 -0.5,1.3 -0.8,2 z"
   stroke-linecap="round"
   id="path17675" />
</g>
<path
   style="opacity:1;fill:#050001;fill-opacity:1;stroke:#ffffff;stroke-width:0.786824;stroke-linecap:round;stroke-miterlimit:3.7;stroke-dasharray:none;stroke-opacity:1;paint-order:stroke fill markers"
   d="M -2.3986007,2.7360851 0.88883187,-5.0028575"
   id="path17679"
   sodipodi:nodetypes="cc" /><path
   style="opacity:1;fill:#050001;fill-opacity:1;stroke:#ffffff;stroke-width:0.786824;stroke-linecap:round;stroke-miterlimit:3.7;stroke-dasharray:none;stroke-opacity:1"
   d="M 4.2651388,2.7342975 0.98031102,-5.0045294"
   id="path17681"
   sodipodi:nodetypes="cc" /><path
   style="opacity:1;fill:#050001;fill-opacity:1;stroke:#ffffff;stroke-width:0.786824;stroke-linecap:round;stroke-miterlimit:3.7;stroke-dasharray:none;stroke-opacity:1"
   d="m -1.664028,-1.6872983 5.178973,-0.015567"
   id="path17683" /><path
   style="fill:#050001;fill-opacity:1;stroke:#ffffff;stroke-width:0.786824;stroke-linecap:round;stroke-miterlimit:3.7;stroke-dasharray:none;stroke-opacity:1"
   d="m -2.3298842,-0.18348542 6.5097684,-0.0124693"
   id="path17685" /></g></g><g
         id="g19922"
         inkscape:label="circles"
         transform="matrix(0.82310934,0,0,0.82310934,-2275.1806,-977.40943)"><circle
           style="fill:#e4003a;fill-opacity:1;stroke:none;stroke-width:0.511713;stroke-linecap:round;stroke-linejoin:round;stroke-dasharray:none;stroke-opacity:1;paint-order:stroke markers fill"
           id="circle19898"
           cx="-1259.1384"
           cy="1884.0352"
           inkscape:transform-center-x="6.1035156e-05"
           inkscape:transform-center-y="58.593567"
           transform="rotate(-90)"
           r="2.5585673" /><circle
           style="fill:#e4003a;fill-opacity:1;stroke:none;stroke-width:0.511713;stroke-linecap:round;stroke-linejoin:round;stroke-dasharray:none;stroke-opacity:1;paint-order:stroke markers fill"
           id="circle19900"
           cx="-156.27831"
           cy="2231.8948"
           inkscape:transform-center-x="29.296796"
           inkscape:transform-center-y="50.743509"
           transform="rotate(-60)"
           r="2.7632527" /><circle
           style="fill:#e4003a;fill-opacity:1;stroke:none;stroke-width:0.511713;stroke-linecap:round;stroke-linejoin:round;stroke-dasharray:none;stroke-opacity:1;paint-order:stroke markers fill"
           id="circle19902"
           cx="972.75635"
           cy="1981.72"
           inkscape:transform-center-x="50.743523"
           inkscape:transform-center-y="29.296803"
           transform="rotate(-30)"
           r="2.9679382" /><circle
           style="fill:#e4003a;fill-opacity:1;stroke:none;stroke-width:0.511713;stroke-linecap:round;stroke-linejoin:round;stroke-dasharray:none;stroke-opacity:1;paint-order:stroke markers fill"
           id="circle19904"
           cx="1825.4417"
           cy="1200.5449"
           inkscape:transform-center-x="58.593567"
           inkscape:transform-center-y="6.0887265e-05"
           r="3.1726236" /><circle
           style="fill:#e4003a;fill-opacity:1;stroke:none;stroke-width:0.511713;stroke-linecap:round;stroke-linejoin:round;stroke-dasharray:none;stroke-opacity:1;paint-order:stroke markers fill"
           id="circle19906"
           cx="2173.3013"
           cy="97.684799"
           inkscape:transform-center-x="50.743507"
           inkscape:transform-center-y="-29.296709"
           transform="rotate(30)"
           r="3.3773088" /><circle
           style="fill:#e4003a;fill-opacity:1;stroke:none;stroke-width:0.511713;stroke-linecap:round;stroke-linejoin:round;stroke-dasharray:none;stroke-opacity:1;paint-order:stroke markers fill"
           id="circle19908"
           cx="1923.1265"
           cy="-1031.3499"
           inkscape:transform-center-x="29.296811"
           inkscape:transform-center-y="-50.743415"
           transform="rotate(60)"
           r="3.5819943" /></g></g></g></svg>
