<?xml version="1.0" encoding="UTF-8" standalone="no"?>
<svg
   inkscape:version="1.2.2 (b0a84865, 2022-12-01)"
   xml:space="preserve"
   sodipodi:docname="final_awards_pre-text-to-path.svg"
   id="svg134"
   version="1.1"
   viewBox="-120 -120 300 300.00013"
   height="250.00011"
   width="250"
   inkscape:export-filename="0.svg"
   inkscape:export-xdpi="96"
   inkscape:export-ydpi="96"
   xmlns:inkscape="http://www.inkscape.org/namespaces/inkscape"
   xmlns:sodipodi="http://sodipodi.sourceforge.net/DTD/sodipodi-0.dtd"
   xmlns="http://www.w3.org/2000/svg"
   xmlns:svg="http://www.w3.org/2000/svg"><defs
     id="defs138" /><sodipodi:namedview
     id="namedview136"
     pagecolor="#ffffff"
     bordercolor="#000000"
     borderopacity="0.25"
     inkscape:showpageshadow="2"
     inkscape:pageopacity="0.0"
     inkscape:pagecheckerboard="0"
     inkscape:deskcolor="#d1d1d1"
     showgrid="false"
     inkscape:zoom="0.35355339"
     inkscape:cx="1480.6816"
     inkscape:cy="663.26616"
     inkscape:window-width="1425"
     inkscape:window-height="949"
     inkscape:window-x="0"
     inkscape:window-y="25"
     inkscape:window-maximized="1"
     inkscape:current-layer="g19337"
     showguides="true" /><style
     type="text/css"
     id="style8571">
	.st0{fill:#ffffff;}
</style><g
     id="g12580"
     inkscape:label="Delegators"
     transform="translate(-4074.0352,-1170.5448)"><g
       id="g17849"
       inkscape:label="5000 delegators"
       transform="matrix(1.4245145,0,0,1.4245145,5135.2529,1185.9224)"
       inkscape:export-filename="./g8306.svg"
       inkscape:export-xdpi="96"
       inkscape:export-ydpi="96"><g
         id="g18495"
         inkscape:label="border"
         transform="translate(-1336.6974,-849.37953)"><path
           fill="none"
           stroke="black"
           stroke-width="2"
           d="m 712.78919,859.6444 q 9.47,10.78 -1.92,19.51 7.18,12.42 -5.69,18.76 4.62,13.58 -9.24,17.29 1.88,14.22 -12.44,15.15 -0.93,14.32 -15.15,12.44 -3.71,13.86 -17.29,9.24 -6.34,12.87 -18.76,5.69 -8.73,11.39 -19.51,1.92 -10.78,9.47 -19.51,-1.92 -12.42,7.18 -18.76,-5.69 -13.58,4.62 -17.29,-9.24 -14.22,1.88 -15.15,-12.44 -14.32,-0.93 -12.44,-15.15 -13.86,-3.71 -9.24,-17.29 -12.87,-6.34 -5.69,-18.76 -11.39,-8.73 -1.92,-19.51 -9.47,-10.78 1.92,-19.51 -7.18,-12.42 5.69,-18.76 -4.62,-13.58 9.24,-17.29 -1.88,-14.22 12.44,-15.15 0.93,-14.32 15.15,-12.44 3.71,-13.86 17.29,-9.24 6.34,-12.87 18.76,-5.69 8.73,-11.39 19.51,-1.92 10.78,-9.47 19.51,1.92 12.42,-7.18 18.76,5.69 13.58,-4.62 17.29,9.24 14.22,-1.88 15.15,12.44 14.32,0.93 12.44,15.15 13.86,3.71 9.24,17.29 12.87,6.34 5.69,18.76 11.39,8.73 1.92,19.51 z"
           id="path18415"
           style="fill:#04344d;fill-opacity:1;stroke:#04344d;stroke-opacity:1" /><path
           style="fill:none;fill-opacity:1;stroke:#efa900;stroke-width:3.6;stroke-linecap:round;stroke-dasharray:none;stroke-opacity:1;paint-order:stroke fill markers"
           id="path18417"
           sodipodi:type="arc"
           sodipodi:cx="612.78918"
           sodipodi:cy="859.64441"
           sodipodi:rx="92.730682"
           sodipodi:ry="92.730682"
           sodipodi:start="3.1610934"
           sodipodi:end="4.6929925"
           sodipodi:open="true"
           sodipodi:arc-type="arc"
           d="m 520.07613,857.83621 a 92.730682,92.730682 0 0 1 90.91452,-90.90504" /><path
           style="fill:none;fill-opacity:1;stroke:#efa900;stroke-width:2.22;stroke-linecap:round;stroke-dasharray:none;stroke-opacity:1;paint-order:stroke fill markers"
           id="path18419"
           sodipodi:type="arc"
           sodipodi:cx="612.78918"
           sodipodi:cy="859.64441"
           sodipodi:rx="86.865753"
           sodipodi:ry="86.865753"
           sodipodi:start="3.1544395"
           sodipodi:end="4.6995293"
           sodipodi:open="true"
           sodipodi:arc-type="arc"
           d="m 525.9306,858.52849 a 86.865753,86.865753 0 0 1 85.74155,-85.74265" /><g
           id="g18493"
           inkscape:label="Circles"
           transform="translate(97.989291,859.63566)"><g
             id="g18423"
             transform="rotate(7.5,5558.9497,3252.8791)"
             inkscape:transform-center-x="-11.777454"
             inkscape:transform-center-y="-88.637902"><path
               sodipodi:type="star"
               style="fill:#efa900;fill-opacity:1;stroke:#efa900;stroke-width:2.22;stroke-linecap:round;stroke-opacity:1;paint-order:stroke fill markers"
               id="path18421"
               inkscape:flatsided="false"
               sodipodi:sides="5"
               sodipodi:cx="396.99625"
               sodipodi:cy="-372.60107"
               sodipodi:r1="3.6169088"
               sodipodi:r2="1.6637779"
               sodipodi:arg1="0.95906936"
               sodipodi:arg2="1.5873879"
               inkscape:rounded="0"
               inkscape:randomized="0"
               d="m 399.07337,-369.64006 -2.10473,-1.29747 -2.14661,1.22692 0.58356,-2.40265 -1.83021,-1.66242 2.46539,-0.18746 1.01548,-2.25435 0.94014,2.2868 2.45781,0.26915 -1.88435,1.60078 z"
               transform="matrix(1.0133273,0,0,1.0133273,-268.95197,974.58915)"
               inkscape:transform-center-x="1.0196929"
               inkscape:transform-center-y="-89.532179"
               inkscape:label="path5969" /></g><g
             id="g18427"
             transform="rotate(22.5,2049.0208,1301.9125)"
             inkscape:transform-center-x="-34.354027"
             inkscape:transform-center-y="-82.323429"><path
               sodipodi:type="star"
               style="fill:#efa900;fill-opacity:1;stroke:#efa900;stroke-width:2.22;stroke-linecap:round;stroke-opacity:1;paint-order:stroke fill markers"
               id="path18425"
               inkscape:flatsided="false"
               sodipodi:sides="5"
               sodipodi:cx="396.99625"
               sodipodi:cy="-372.60107"
               sodipodi:r1="3.6169088"
               sodipodi:r2="1.6637779"
               sodipodi:arg1="0.95906936"
               sodipodi:arg2="1.5873879"
               inkscape:rounded="0"
               inkscape:randomized="0"
               d="m 399.07337,-369.64006 -2.10473,-1.29747 -2.14661,1.22692 0.58356,-2.40265 -1.83021,-1.66242 2.46539,-0.18746 1.01548,-2.25435 0.94014,2.2868 2.45781,0.26915 -1.88435,1.60078 z"
               transform="matrix(1.0133273,0,0,1.0133273,-268.95197,974.58915)"
               inkscape:transform-center-x="1.0196929"
               inkscape:transform-center-y="-89.532179"
               inkscape:label="path5969" /></g><g
             id="g18431"
             transform="rotate(37.5,1334.8573,904.95028)"
             inkscape:transform-center-x="-54.232035"
             inkscape:transform-center-y="-70.490863"><path
               sodipodi:type="star"
               style="fill:#efa900;fill-opacity:1;stroke:#efa900;stroke-width:2.22;stroke-linecap:round;stroke-opacity:1;paint-order:stroke fill markers"
               id="path18429"
               inkscape:flatsided="false"
               sodipodi:sides="5"
               sodipodi:cx="396.99625"
               sodipodi:cy="-372.60107"
               sodipodi:r1="3.6169088"
               sodipodi:r2="1.6637779"
               sodipodi:arg1="0.95906936"
               sodipodi:arg2="1.5873879"
               inkscape:rounded="0"
               inkscape:randomized="0"
               d="m 399.07337,-369.64006 -2.10473,-1.29747 -2.14661,1.22692 0.58356,-2.40265 -1.83021,-1.66242 2.46539,-0.18746 1.01548,-2.25435 0.94014,2.2868 2.45781,0.26915 -1.88435,1.60078 z"
               transform="matrix(1.0133273,0,0,1.0133273,-268.95197,974.58915)"
               inkscape:transform-center-x="1.0196929"
               inkscape:transform-center-y="-89.532179"
               inkscape:label="path5969" /></g><g
             id="g18435"
             transform="rotate(52.5,1019.845,729.85313)"
             inkscape:transform-center-x="-70.414229"
             inkscape:transform-center-y="-54.322566"><path
               sodipodi:type="star"
               style="fill:#efa900;fill-opacity:1;stroke:#efa900;stroke-width:2.22;stroke-linecap:round;stroke-opacity:1;paint-order:stroke fill markers"
               id="path18433"
               inkscape:flatsided="false"
               sodipodi:sides="5"
               sodipodi:cx="396.99625"
               sodipodi:cy="-372.60107"
               sodipodi:r1="3.6169088"
               sodipodi:r2="1.6637779"
               sodipodi:arg1="0.95906936"
               sodipodi:arg2="1.5873879"
               inkscape:rounded="0"
               inkscape:randomized="0"
               d="m 399.07337,-369.64006 -2.10473,-1.29747 -2.14661,1.22692 0.58356,-2.40265 -1.83021,-1.66242 2.46539,-0.18746 1.01548,-2.25435 0.94014,2.2868 2.45781,0.26915 -1.88435,1.60078 z"
               transform="matrix(1.0133273,0,0,1.0133273,-268.95197,974.58915)"
               inkscape:transform-center-x="1.0196929"
               inkscape:transform-center-y="-89.532179"
               inkscape:label="path5969" /></g><g
             id="g18439"
             transform="rotate(67.5,837.58649,628.54617)"
             inkscape:transform-center-x="-82.3354"
             inkscape:transform-center-y="-34.452242"><path
               sodipodi:type="star"
               style="fill:#efa900;fill-opacity:1;stroke:#efa900;stroke-width:2.22;stroke-linecap:round;stroke-opacity:1;paint-order:stroke fill markers"
               id="path18437"
               inkscape:flatsided="false"
               sodipodi:sides="5"
               sodipodi:cx="396.99625"
               sodipodi:cy="-372.60107"
               sodipodi:r1="3.6169088"
               sodipodi:r2="1.6637779"
               sodipodi:arg1="0.95906936"
               sodipodi:arg2="1.5873879"
               inkscape:rounded="0"
               inkscape:randomized="0"
               d="m 399.07337,-369.64006 -2.10473,-1.29747 -2.14661,1.22692 0.58356,-2.40265 -1.83021,-1.66242 2.46539,-0.18746 1.01548,-2.25435 0.94014,2.2868 2.45781,0.26915 -1.88435,1.60078 z"
               transform="matrix(1.0133273,0,0,1.0133273,-268.95197,974.58915)"
               inkscape:transform-center-x="1.0196929"
               inkscape:transform-center-y="-89.532179"
               inkscape:label="path5969" /></g><g
             id="g18443"
             transform="rotate(82.5,715.32761,560.58954)"
             inkscape:transform-center-x="-88.666206"
             inkscape:transform-center-y="-11.806367"><path
               sodipodi:type="star"
               style="fill:#efa900;fill-opacity:1;stroke:#efa900;stroke-width:2.22;stroke-linecap:round;stroke-opacity:1;paint-order:stroke fill markers"
               id="path18441"
               inkscape:flatsided="false"
               sodipodi:sides="5"
               sodipodi:cx="396.99625"
               sodipodi:cy="-372.60107"
               sodipodi:r1="3.6169088"
               sodipodi:r2="1.6637779"
               sodipodi:arg1="0.95906936"
               sodipodi:arg2="1.5873879"
               inkscape:rounded="0"
               inkscape:randomized="0"
               d="m 399.07337,-369.64006 -2.10473,-1.29747 -2.14661,1.22692 0.58356,-2.40265 -1.83021,-1.66242 2.46539,-0.18746 1.01548,-2.25435 0.94014,2.2868 2.45781,0.26915 -1.88435,1.60078 z"
               transform="matrix(1.0133273,0,0,1.0133273,-268.95197,974.58915)"
               inkscape:transform-center-x="1.0196929"
               inkscape:transform-center-y="-89.532179"
               inkscape:label="path5969" /></g><g
             id="g18447"
             transform="rotate(97.5,624.98471,510.37315)"
             inkscape:transform-center-x="-88.637973"
             inkscape:transform-center-y="11.777454"><path
               sodipodi:type="star"
               style="fill:#efa900;fill-opacity:1;stroke:#efa900;stroke-width:2.22;stroke-linecap:round;stroke-opacity:1;paint-order:stroke fill markers"
               id="path18445"
               inkscape:flatsided="false"
               sodipodi:sides="5"
               sodipodi:cx="396.99625"
               sodipodi:cy="-372.60107"
               sodipodi:r1="3.6169088"
               sodipodi:r2="1.6637779"
               sodipodi:arg1="0.95906936"
               sodipodi:arg2="1.5873879"
               inkscape:rounded="0"
               inkscape:randomized="0"
               d="m 399.07337,-369.64006 -2.10473,-1.29747 -2.14661,1.22692 0.58356,-2.40265 -1.83021,-1.66242 2.46539,-0.18746 1.01548,-2.25435 0.94014,2.2868 2.45781,0.26915 -1.88435,1.60078 z"
               transform="matrix(1.0133273,0,0,1.0133273,-268.95197,974.58915)"
               inkscape:transform-center-x="1.0196929"
               inkscape:transform-center-y="-89.532179"
               inkscape:label="path5969" /></g><g
             id="g18451"
             transform="rotate(112.5,553.34383,470.55213)"
             inkscape:transform-center-x="-82.323487"
             inkscape:transform-center-y="34.35403"><path
               sodipodi:type="star"
               style="fill:#efa900;fill-opacity:1;stroke:#efa900;stroke-width:2.22;stroke-linecap:round;stroke-opacity:1;paint-order:stroke fill markers"
               id="path18449"
               inkscape:flatsided="false"
               sodipodi:sides="5"
               sodipodi:cx="396.99625"
               sodipodi:cy="-372.60107"
               sodipodi:r1="3.6169088"
               sodipodi:r2="1.6637779"
               sodipodi:arg1="0.95906936"
               sodipodi:arg2="1.5873879"
               inkscape:rounded="0"
               inkscape:randomized="0"
               d="m 399.07337,-369.64006 -2.10473,-1.29747 -2.14661,1.22692 0.58356,-2.40265 -1.83021,-1.66242 2.46539,-0.18746 1.01548,-2.25435 0.94014,2.2868 2.45781,0.26915 -1.88435,1.60078 z"
               transform="matrix(1.0133273,0,0,1.0133273,-268.95197,974.58915)"
               inkscape:transform-center-x="1.0196929"
               inkscape:transform-center-y="-89.532179"
               inkscape:label="path5969" /></g><g
             id="g18455"
             transform="rotate(127.5,493.28797,437.17055)"
             inkscape:transform-center-x="-70.490908"
             inkscape:transform-center-y="54.23204"><path
               sodipodi:type="star"
               style="fill:#efa900;fill-opacity:1;stroke:#efa900;stroke-width:2.22;stroke-linecap:round;stroke-opacity:1;paint-order:stroke fill markers"
               id="path18453"
               inkscape:flatsided="false"
               sodipodi:sides="5"
               sodipodi:cx="396.99625"
               sodipodi:cy="-372.60107"
               sodipodi:r1="3.6169088"
               sodipodi:r2="1.6637779"
               sodipodi:arg1="0.95906936"
               sodipodi:arg2="1.5873879"
               inkscape:rounded="0"
               inkscape:randomized="0"
               d="m 399.07337,-369.64006 -2.10473,-1.29747 -2.14661,1.22692 0.58356,-2.40265 -1.83021,-1.66242 2.46539,-0.18746 1.01548,-2.25435 0.94014,2.2868 2.45781,0.26915 -1.88435,1.60078 z"
               transform="matrix(1.0133273,0,0,1.0133273,-268.95197,974.58915)"
               inkscape:transform-center-x="1.0196929"
               inkscape:transform-center-y="-89.532179"
               inkscape:label="path5969" /></g><g
             id="g18459"
             transform="rotate(142.5,440.5548,407.85923)"
             inkscape:transform-center-x="-54.322569"
             inkscape:transform-center-y="70.414225"><path
               sodipodi:type="star"
               style="fill:#efa900;fill-opacity:1;stroke:#efa900;stroke-width:2.22;stroke-linecap:round;stroke-opacity:1;paint-order:stroke fill markers"
               id="path18457"
               inkscape:flatsided="false"
               sodipodi:sides="5"
               sodipodi:cx="396.99625"
               sodipodi:cy="-372.60107"
               sodipodi:r1="3.6169088"
               sodipodi:r2="1.6637779"
               sodipodi:arg1="0.95906936"
               sodipodi:arg2="1.5873879"
               inkscape:rounded="0"
               inkscape:randomized="0"
               d="m 399.07337,-369.64006 -2.10473,-1.29747 -2.14661,1.22692 0.58356,-2.40265 -1.83021,-1.66242 2.46539,-0.18746 1.01548,-2.25435 0.94014,2.2868 2.45781,0.26915 -1.88435,1.60078 z"
               transform="matrix(1.0133273,0,0,1.0133273,-268.95197,974.58915)"
               inkscape:transform-center-x="1.0196929"
               inkscape:transform-center-y="-89.532179"
               inkscape:label="path5969" /></g><g
             id="g18463"
             transform="rotate(157.5,392.3333,381.05569)"
             inkscape:transform-center-x="-34.452251"
             inkscape:transform-center-y="82.335402"><path
               sodipodi:type="star"
               style="fill:#efa900;fill-opacity:1;stroke:#efa900;stroke-width:2.22;stroke-linecap:round;stroke-opacity:1;paint-order:stroke fill markers"
               id="path18461"
               inkscape:flatsided="false"
               sodipodi:sides="5"
               sodipodi:cx="396.99625"
               sodipodi:cy="-372.60107"
               sodipodi:r1="3.6169088"
               sodipodi:r2="1.6637779"
               sodipodi:arg1="0.95906936"
               sodipodi:arg2="1.5873879"
               inkscape:rounded="0"
               inkscape:randomized="0"
               d="m 399.07337,-369.64006 -2.10473,-1.29747 -2.14661,1.22692 0.58356,-2.40265 -1.83021,-1.66242 2.46539,-0.18746 1.01548,-2.25435 0.94014,2.2868 2.45781,0.26915 -1.88435,1.60078 z"
               transform="matrix(1.0133273,0,0,1.0133273,-268.95197,974.58915)"
               inkscape:transform-center-x="1.0196929"
               inkscape:transform-center-y="-89.532179"
               inkscape:label="path5969" /></g><g
             id="g18467"
             transform="rotate(172.5,346.57293,355.62015)"
             inkscape:transform-center-x="-11.806385"
             inkscape:transform-center-y="88.666214"><path
               sodipodi:type="star"
               style="fill:#efa900;fill-opacity:1;stroke:#efa900;stroke-width:2.22;stroke-linecap:round;stroke-opacity:1;paint-order:stroke fill markers"
               id="path18465"
               inkscape:flatsided="false"
               sodipodi:sides="5"
               sodipodi:cx="396.99625"
               sodipodi:cy="-372.60107"
               sodipodi:r1="3.6169088"
               sodipodi:r2="1.6637779"
               sodipodi:arg1="0.95906936"
               sodipodi:arg2="1.5873879"
               inkscape:rounded="0"
               inkscape:randomized="0"
               d="m 399.07337,-369.64006 -2.10473,-1.29747 -2.14661,1.22692 0.58356,-2.40265 -1.83021,-1.66242 2.46539,-0.18746 1.01548,-2.25435 0.94014,2.2868 2.45781,0.26915 -1.88435,1.60078 z"
               transform="matrix(1.0133273,0,0,1.0133273,-268.95197,974.58915)"
               inkscape:transform-center-x="1.0196929"
               inkscape:transform-center-y="-89.532179"
               inkscape:label="path5969" /></g><g
             id="g18471"
             transform="rotate(-172.5,301.59553,330.61982)"
             inkscape:transform-center-x="11.777442"
             inkscape:transform-center-y="88.637982"><path
               sodipodi:type="star"
               style="fill:#efa900;fill-opacity:1;stroke:#efa900;stroke-width:2.22;stroke-linecap:round;stroke-opacity:1;paint-order:stroke fill markers"
               id="path18469"
               inkscape:flatsided="false"
               sodipodi:sides="5"
               sodipodi:cx="396.99625"
               sodipodi:cy="-372.60107"
               sodipodi:r1="3.6169088"
               sodipodi:r2="1.6637779"
               sodipodi:arg1="0.95906936"
               sodipodi:arg2="1.5873879"
               inkscape:rounded="0"
               inkscape:randomized="0"
               d="m 399.07337,-369.64006 -2.10473,-1.29747 -2.14661,1.22692 0.58356,-2.40265 -1.83021,-1.66242 2.46539,-0.18746 1.01548,-2.25435 0.94014,2.2868 2.45781,0.26915 -1.88435,1.60078 z"
               transform="matrix(1.0133273,0,0,1.0133273,-268.95197,974.58915)"
               inkscape:transform-center-x="1.0196929"
               inkscape:transform-center-y="-89.532179"
               inkscape:label="path5969" /></g><g
             id="g18475"
             transform="rotate(-157.5,255.83516,305.18428)"
             inkscape:transform-center-x="34.354019"
             inkscape:transform-center-y="82.323499"><path
               sodipodi:type="star"
               style="fill:#efa900;fill-opacity:1;stroke:#efa900;stroke-width:2.22;stroke-linecap:round;stroke-opacity:1;paint-order:stroke fill markers"
               id="path18473"
               inkscape:flatsided="false"
               sodipodi:sides="5"
               sodipodi:cx="396.99625"
               sodipodi:cy="-372.60107"
               sodipodi:r1="3.6169088"
               sodipodi:r2="1.6637779"
               sodipodi:arg1="0.95906936"
               sodipodi:arg2="1.5873879"
               inkscape:rounded="0"
               inkscape:randomized="0"
               d="m 399.07337,-369.64006 -2.10473,-1.29747 -2.14661,1.22692 0.58356,-2.40265 -1.83021,-1.66242 2.46539,-0.18746 1.01548,-2.25435 0.94014,2.2868 2.45781,0.26915 -1.88435,1.60078 z"
               transform="matrix(1.0133273,0,0,1.0133273,-268.95197,974.58915)"
               inkscape:transform-center-x="1.0196929"
               inkscape:transform-center-y="-89.532179"
               inkscape:label="path5969" /></g><g
             id="g18479"
             transform="rotate(-142.5,207.61366,278.38074)"
             inkscape:transform-center-x="54.232031"
             inkscape:transform-center-y="70.490924"><path
               sodipodi:type="star"
               style="fill:#efa900;fill-opacity:1;stroke:#efa900;stroke-width:2.22;stroke-linecap:round;stroke-opacity:1;paint-order:stroke fill markers"
               id="path18477"
               inkscape:flatsided="false"
               sodipodi:sides="5"
               sodipodi:cx="396.99625"
               sodipodi:cy="-372.60107"
               sodipodi:r1="3.6169088"
               sodipodi:r2="1.6637779"
               sodipodi:arg1="0.95906936"
               sodipodi:arg2="1.5873879"
               inkscape:rounded="0"
               inkscape:randomized="0"
               d="m 399.07337,-369.64006 -2.10473,-1.29747 -2.14661,1.22692 0.58356,-2.40265 -1.83021,-1.66242 2.46539,-0.18746 1.01548,-2.25435 0.94014,2.2868 2.45781,0.26915 -1.88435,1.60078 z"
               transform="matrix(1.0133273,0,0,1.0133273,-268.95197,974.58915)"
               inkscape:transform-center-x="1.0196929"
               inkscape:transform-center-y="-89.532179"
               inkscape:label="path5969" /></g><g
             id="g18483"
             transform="rotate(-127.5,154.88049,249.06943)"
             inkscape:transform-center-x="70.414233"
             inkscape:transform-center-y="54.322599"><path
               sodipodi:type="star"
               style="fill:#efa900;fill-opacity:1;stroke:#efa900;stroke-width:2.22;stroke-linecap:round;stroke-opacity:1;paint-order:stroke fill markers"
               id="path18481"
               inkscape:flatsided="false"
               sodipodi:sides="5"
               sodipodi:cx="396.99625"
               sodipodi:cy="-372.60107"
               sodipodi:r1="3.6169088"
               sodipodi:r2="1.6637779"
               sodipodi:arg1="0.95906936"
               sodipodi:arg2="1.5873879"
               inkscape:rounded="0"
               inkscape:randomized="0"
               d="m 399.07337,-369.64006 -2.10473,-1.29747 -2.14661,1.22692 0.58356,-2.40265 -1.83021,-1.66242 2.46539,-0.18746 1.01548,-2.25435 0.94014,2.2868 2.45781,0.26915 -1.88435,1.60078 z"
               transform="matrix(1.0133273,0,0,1.0133273,-268.95197,974.58915)"
               inkscape:transform-center-x="1.0196929"
               inkscape:transform-center-y="-89.532179"
               inkscape:label="path5969" /></g><g
             id="g18487"
             transform="rotate(-112.5,94.824625,215.68785)"
             inkscape:transform-center-x="82.33541"
             inkscape:transform-center-y="34.452266"><path
               sodipodi:type="star"
               style="fill:#efa900;fill-opacity:1;stroke:#efa900;stroke-width:2.22;stroke-linecap:round;stroke-opacity:1;paint-order:stroke fill markers"
               id="path18485"
               inkscape:flatsided="false"
               sodipodi:sides="5"
               sodipodi:cx="396.99625"
               sodipodi:cy="-372.60107"
               sodipodi:r1="3.6169088"
               sodipodi:r2="1.6637779"
               sodipodi:arg1="0.95906936"
               sodipodi:arg2="1.5873879"
               inkscape:rounded="0"
               inkscape:randomized="0"
               d="m 399.07337,-369.64006 -2.10473,-1.29747 -2.14661,1.22692 0.58356,-2.40265 -1.83021,-1.66242 2.46539,-0.18746 1.01548,-2.25435 0.94014,2.2868 2.45781,0.26915 -1.88435,1.60078 z"
               transform="matrix(1.0133273,0,0,1.0133273,-268.95197,974.58915)"
               inkscape:transform-center-x="1.0196929"
               inkscape:transform-center-y="-89.532179"
               inkscape:label="path5969" /></g><g
             id="g18491"
             transform="rotate(-97.5,23.183742,175.86683)"
             inkscape:transform-center-x="88.66622"
             inkscape:transform-center-y="11.806393"><path
               sodipodi:type="star"
               style="fill:#efa900;fill-opacity:1;stroke:#efa900;stroke-width:2.22;stroke-linecap:round;stroke-opacity:1;paint-order:stroke fill markers"
               id="path18489"
               inkscape:flatsided="false"
               sodipodi:sides="5"
               sodipodi:cx="396.99625"
               sodipodi:cy="-372.60107"
               sodipodi:r1="3.6169088"
               sodipodi:r2="1.6637779"
               sodipodi:arg1="0.95906936"
               sodipodi:arg2="1.5873879"
               inkscape:rounded="0"
               inkscape:randomized="0"
               d="m 399.07337,-369.64006 -2.10473,-1.29747 -2.14661,1.22692 0.58356,-2.40265 -1.83021,-1.66242 2.46539,-0.18746 1.01548,-2.25435 0.94014,2.2868 2.45781,0.26915 -1.88435,1.60078 z"
               transform="matrix(1.0133273,0,0,1.0133273,-268.95197,974.58915)"
               inkscape:transform-center-x="1.0196929"
               inkscape:transform-center-y="-89.532179"
               inkscape:label="path5969" /></g></g></g><g
         id="g17793"
         inkscape:label="Texts"
         transform="translate(-779.20394,9.5743526)"><circle
           style="fill:none;fill-opacity:1;stroke:none;stroke-width:3.01836;stroke-linecap:round;stroke-opacity:1;paint-order:stroke fill markers"
           id="circle17777"
           cx="-1.4210855e-14"
           cy="-55.295727"
           transform="matrix(0,-1,-1,0,0,0)"
           r="76.490822"
           inkscape:label="Bottom-text-path" /><circle
           style="fill:none;fill-opacity:1;stroke:none;stroke-width:2.48601;stroke-linecap:round;stroke-opacity:1;paint-order:stroke fill markers"
           id="circle17779"
           cx="1.4210855e-14"
           cy="-55.295727"
           transform="rotate(90)"
           inkscape:label="Top-text-path"
           r="63" /><g
           aria-label="Cexplorer.io"
           id="text17787"
           style="font-size:16.8px;font-family:ROBOTO;-inkscape-font-specification:ROBOTO;text-align:center;letter-spacing:1.2px;text-anchor:middle;fill:#fefeff;stroke:#ffffff;stroke-width:0.744;stroke-linecap:round;paint-order:stroke fill markers"><path
             d="m 14.858755,-48.055292 q -1.276057,1.082623 -2.776689,1.355314 -1.499685,0.261129 -2.987961,-0.32652 -1.4873279,-0.599212 -2.7397738,-2.075435 -1.2630598,-1.488732 -1.6119449,-3.053813 -0.3426299,-1.570388 0.1646503,-3.001236 0.5135355,-1.436154 1.7895923,-2.518777 0.8194286,-0.695214 1.7269808,-1.045643 0.9075521,-0.350429 1.8275993,-0.356455 0.926303,-0.01133 1.806343,0.328555 0.880039,0.33989 1.656004,1.026262 l -1.945361,1.650469 q -0.431578,-0.343851 -0.889889,-0.503656 -0.463618,-0.16606 -0.92459,-0.151485 -0.466279,0.0083 -0.9183498,0.198225 -0.4511226,0.178342 -0.8702197,0.533909 -0.7944079,0.673986 -1.0336487,1.53318 -0.2329856,0.853886 0.061147,1.809201 0.2888255,0.94906 1.1007925,1.906103 0.80666,0.950787 1.6897276,1.395684 0.8893231,0.43959 1.7760141,0.343529 0.886692,-0.09606 1.6811,-0.770048 0.419097,-0.355567 0.673861,-0.765351 0.254765,-0.409783 0.338942,-0.868477 0.08418,-0.458693 0.0012,-0.936917 -0.083,-0.478223 -0.334126,-0.964414 l 1.939106,-1.645162 q 0.545472,0.871168 0.737441,1.794824 0.19197,0.923657 0.02987,1.835737 -0.162098,0.91208 -0.655706,1.750413 -0.49266,0.826771 -1.312089,1.521984 z"
             style="font-weight:bold;font-family:Inter;-inkscape-font-specification:Inter"
             id="path6060" /><path
             d="m 24.407684,-54.696185 q -1.103047,0.632425 -2.175545,0.575976 -1.065382,-0.06053 -1.984075,-0.706316 -0.922773,-0.652904 -1.571518,-1.784416 -0.656906,-1.145745 -0.732824,-2.284189 -0.07592,-1.138443 0.402965,-2.084367 0.474803,-0.95304 1.471103,-1.524262 0.782807,-0.448818 1.572259,-0.523215 0.796568,-0.07848 1.546835,0.191089 0.750267,0.269565 1.401285,0.860796 0.654055,0.580033 1.155915,1.455354 l 0.191767,0.334472 -6.177059,3.541579 -0.595704,-1.038998 5.500999,-3.153964 -0.311411,0.660789 q -0.440657,-0.768574 -1.04053,-1.171645 -0.596838,-0.414268 -1.270434,-0.434664 -0.677677,-0.02751 -1.353738,0.360104 -0.668944,0.383535 -0.987567,0.982269 -0.315587,0.587538 -0.266715,1.315978 0.05191,0.717244 0.492566,1.485818 l 0.293772,0.512383 q 0.444737,0.775691 1.050778,1.222505 0.613158,0.442733 1.321389,0.49055 0.70415,0.0407 1.437142,-0.379556 0.533732,-0.306012 0.845525,-0.702259 0.307712,-0.403363 0.399653,-0.853219 0.09906,-0.453936 -0.01149,-0.910622 l 1.209793,-0.693627 q 0.269767,0.800362 0.135605,1.605377 -0.138243,0.797899 -0.638857,1.49152 -0.493497,0.689542 -1.311886,1.15876 z"
             style="font-family:Inter;-inkscape-font-specification:Inter"
             id="path6062" /><path
             d="m 29.024949,-57.419381 1.614151,-5.923659 0.376633,1.006479 -4.912407,-3.239941 1.532131,-0.586708 1.70565,1.17392 q 0.511287,0.348818 1.007253,0.703503 0.493033,0.347025 0.999593,0.706438 l -0.643494,0.246417 q 0.144595,-0.608763 0.279735,-1.196338 0.139868,-0.59817 0.287397,-1.199272 l 0.500618,-2.018779 1.509149,-0.577907 -1.49956,5.695313 -0.387227,-1.011206 5.122496,3.352738 -1.524469,0.583774 -1.99104,-1.345722 q -0.497759,-0.33643 -0.977264,-0.671067 -0.479505,-0.334637 -0.972538,-0.681662 l 0.651156,-0.249351 q -0.135141,0.587575 -0.276149,1.159829 -0.141008,0.572254 -0.286743,1.155102 l -0.598262,2.337258 z"
             style="font-family:Inter;-inkscape-font-specification:Inter"
             id="path6064" /><path
             d="m 39.607891,-57.605288 -2.432547,-11.844188 1.333878,-0.273951 0.257447,1.253524 0.01607,-0.0033 q 0.175836,-0.530199 0.529315,-0.929396 0.353479,-0.399197 0.836389,-0.657489 0.48126,-0.266327 1.027668,-0.378548 1.108886,-0.227742 2.050404,0.15672 0.941518,0.384462 1.604173,1.286785 0.661006,0.894288 0.930005,2.204059 0.267349,1.301736 0.01397,2.392193 -0.255031,1.082423 -0.967157,1.814882 -0.713776,0.724425 -1.822662,0.952166 -0.546407,0.112221 -1.069573,0.05218 -0.521516,-0.052 -0.997333,-0.289255 -0.475818,-0.23725 -0.881832,-0.664699 l -0.01607,0.0033 0.953875,4.644465 z m 2.915536,-5.213053 q 0.739258,-0.151828 1.227473,-0.628942 0.488214,-0.477115 0.664404,-1.250243 0.176189,-0.773128 -0.0367,-1.809695 -0.214539,-1.044603 -0.681182,-1.685706 -0.466643,-0.641104 -1.103385,-0.887176 -0.636742,-0.246072 -1.375999,-0.09424 -0.78747,0.16173 -1.285155,0.674286 -0.497684,0.512557 -0.664188,1.29207 -0.166504,0.779513 0.03153,1.743762 0.196386,0.956213 0.656644,1.607002 0.460257,0.65079 1.119671,0.925703 0.659415,0.274913 1.446884,0.113183 z"
             style="font-family:Inter;-inkscape-font-specification:Inter"
             id="path6066" /><path
             d="m 49.868364,-75.032574 0.983695,12.183007 -1.390008,0.112234 -0.983695,-12.183007 z"
             style="font-family:Inter;-inkscape-font-specification:Inter"
             id="path6068" /><path
             d="m 57.684922,-62.75852 q -1.196813,-0.04493 -2.085176,-0.652908 -0.879858,-0.615865 -1.349932,-1.651417 -0.461876,-1.035245 -0.412327,-2.355018 0.04986,-1.327971 0.588364,-2.333866 0.546705,-1.005588 1.470265,-1.553747 0.931756,-0.547851 2.128569,-0.502918 1.20501,0.04524 2.084868,0.661105 0.879858,0.615865 1.341427,1.659307 0.469766,1.04375 0.419909,2.37172 -0.04955,1.319774 -0.595946,2.317164 -0.5382,0.997698 -1.461759,1.545857 -0.923252,0.539961 -2.128262,0.494721 z m 0.04739,-1.262392 q 0.819735,0.03078 1.416827,-0.349044 0.597092,-0.379819 0.935982,-1.097689 0.339197,-0.726066 0.37582,-1.701551 0.03724,-0.991879 -0.24687,-1.733138 -0.283802,-0.749456 -0.850425,-1.181174 -0.566624,-0.431719 -1.386359,-0.462494 -0.811538,-0.03047 -1.417135,0.357241 -0.597092,0.379819 -0.936289,1.105886 -0.339198,0.726067 -0.376436,1.717946 -0.03693,0.983682 0.247178,1.724941 0.284109,0.741259 0.851041,1.164779 0.566931,0.423521 1.386666,0.454297 z"
             style="font-family:Inter;-inkscape-font-specification:Inter"
             id="path6070" /><path
             d="m 64.50772,-62.351707 1.472099,-8.5365 1.309576,0.225834 -0.231409,1.341912 0.03234,0.0056 q 0.348741,-0.622445 0.927723,-0.938812 0.578981,-0.316366 1.379278,-0.178357 0.185928,0.03206 0.336732,0.07472 0.158888,0.04405 0.236938,0.07416 l -0.236986,1.374247 q -0.07666,-0.03819 -0.30551,-0.110954 -0.219376,-0.07945 -0.518477,-0.131031 -0.468861,-0.08085 -0.91069,0.06771 -0.441829,0.148561 -0.763804,0.567517 -0.321974,0.418956 -0.447437,1.146498 l -0.906121,5.254475 z"
             style="font-family:Inter;-inkscape-font-specification:Inter"
             id="path6072" /><path
             d="m 74.208055,-59.905665 q -1.213253,-0.380379 -1.900034,-1.206073 -0.678954,-0.82324 -0.828643,-1.936178 -0.147235,-1.120766 0.242959,-2.36533 0.395103,-1.260218 1.179334,-2.088951 0.78423,-0.828733 1.803832,-1.119444 1.022056,-0.298538 2.117898,0.04503 0.861019,0.269946 1.451672,0.799 0.59848,0.531509 0.910009,1.265345 0.311529,0.733836 0.319521,1.613219 0.01827,0.87401 -0.283575,1.836786 l -0.11534,0.367889 -6.794221,-2.130118 0.358292,-1.142807 6.050614,1.896984 -0.696561,0.220053 q 0.265038,-0.845364 0.153638,-1.55944 -0.101118,-0.719449 -0.543515,-1.227813 -0.439943,-0.516191 -1.18355,-0.749326 -0.73578,-0.230681 -1.391679,-0.05806 -0.645618,0.167251 -1.147213,0.697738 -0.491313,0.525114 -0.756351,1.370478 l -0.176691,0.563576 q -0.267492,0.853191 -0.184017,1.601497 0.0913,0.750759 0.537083,1.303168 0.448236,0.544582 1.254463,0.797349 0.587058,0.184054 1.089665,0.143904 0.505062,-0.04798 0.897748,-0.28593 0.400513,-0.235499 0.660725,-0.626743 l 1.330665,0.417189 q -0.404408,0.741491 -1.086499,1.189598 -0.679637,0.440281 -1.528769,0.543726 -0.841304,0.105899 -1.74146,-0.176316 z"
             style="font-family:Inter;-inkscape-font-specification:Inter"
             id="path6074" /><path
             d="m 80.477228,-57.777399 3.609932,-7.874471 1.208016,0.553797 -0.567471,1.237843 0.02983,0.01367 q 0.496566,-0.512329 1.137275,-0.669808 0.640708,-0.157479 1.37894,0.180953 0.171508,0.07862 0.306352,0.15849 0.142301,0.08328 0.210033,0.132383 l -0.581145,1.26767 q -0.06431,-0.05656 -0.266889,-0.185519 -0.1917,-0.133003 -0.467605,-0.259487 -0.432499,-0.198273 -0.897643,-0.167862 -0.465143,0.03041 -0.883704,0.352899 -0.418561,0.322487 -0.726226,0.993607 l -2.222023,4.846975 z"
             style="font-family:Inter;-inkscape-font-specification:Inter"
             id="path6076" /><path
             d="m 86.108686,-54.803396 q -0.371631,-0.209394 -0.491095,-0.615669 -0.10829,-0.409396 0.101104,-0.781026 0.213422,-0.378778 0.61567,-0.491095 0.409395,-0.108291 0.781026,0.101104 0.378777,0.213422 0.491095,0.61567 0.112317,0.402248 -0.101105,0.781026 -0.209394,0.371631 -0.615669,0.491095 -0.402249,0.112317 -0.781026,-0.101105 z"
             style="font-family:Inter;-inkscape-font-specification:Inter"
             id="path6078" /><path
             d="m 89.66592,-52.811898 4.811696,-7.203227 1.159611,0.774611 -4.811697,7.203226 z m 6.330147,-8.221096 q -0.327419,-0.218714 -0.404419,-0.605558 -0.077,-0.386844 0.141713,-0.714263 0.218714,-0.32742 0.605558,-0.40442 0.386844,-0.077 0.714263,0.141714 0.32742,0.218713 0.40442,0.605557 0.077,0.386844 -0.141714,0.714264 -0.218713,0.327419 -0.605557,0.404419 -0.386845,0.077 -0.714264,-0.141713 z"
             style="font-family:Inter;-inkscape-font-specification:Inter"
             id="path6080" /><path
             d="m 96.123878,-47.722538 q -0.909702,-0.778988 -1.227838,-1.807391 -0.306569,-1.029298 -0.03127,-2.132725 0.281525,-1.098091 1.140546,-2.101256 0.864356,-1.009396 1.911379,-1.462783 1.053253,-0.448052 2.117465,-0.303533 1.07044,0.149855 1.98015,0.928843 0.91593,0.784323 1.2225,1.813621 0.30657,1.029298 0.0197,2.13362 -0.28063,1.109658 -1.14499,2.119054 -0.85902,1.003165 -1.90694,1.444986 -1.041679,0.447156 -2.105894,0.302637 -1.058879,-0.15075 -1.974813,-0.935073 z m 0.821672,-0.959549 q 0.623084,0.533553 1.326915,0.607065 0.70383,0.07351 1.415465,-0.278283 0.71697,-0.358025 1.3519,-1.099495 0.6456,-0.753931 0.88369,-1.511226 0.24342,-0.763526 0.0678,-1.45389 -0.17561,-0.690365 -0.7987,-1.223918 -0.61685,-0.528218 -1.332246,-0.600835 -0.70383,-0.07351 -1.4208,0.284514 -0.71697,0.358025 -1.362569,1.111957 -0.640264,0.7477 -0.878355,1.504995 -0.23809,0.757295 -0.05714,1.441429 0.180949,0.684134 0.804032,1.217687 z"
             style="font-family:Inter;-inkscape-font-specification:Inter"
             id="path6082" /></g><g
           aria-label="5 000 delegators"
           id="text17791"
           style="font-size:16.8px;font-family:ROBOTO;-inkscape-font-specification:ROBOTO;text-align:center;letter-spacing:1.34783px;text-anchor:middle;fill:#fefeff;stroke:#ffffff;stroke-width:0.744;stroke-linecap:round;paint-order:stroke fill markers"><path
             d="m -6.8982233,44.847104 q -0.7637677,-1.057284 -0.9508284,-2.156748 -0.1870606,-1.099463 0.1852373,-2.097019 0.3722979,-0.997555 1.2866058,-1.749116 l 1.3978391,1.935029 q -0.439607,0.358045 -0.6372091,0.854977 -0.1909525,0.492128 -0.1203285,1.038167 0.077274,0.541237 0.4375414,1.039955 0.369875,0.512018 0.8812175,0.729569 0.5227957,0.219397 1.0887841,0.134362 0.5774416,-0.08319 1.1160579,-0.472278 0.5519154,-0.398696 0.8171249,-0.914108 0.2652095,-0.515411 0.230791,-1.067366 -0.034418,-0.551955 -0.3946864,-1.050674 -0.4707499,-0.651659 -1.0862824,-0.91538 -0.6040793,-0.261875 -1.2210413,-0.0793 l -1.3449998,-1.861883 6.01940104,-3.882833 4.58260656,6.343703 -1.6557463,1.196089 -3.28083885,-4.541666 -2.47034985,1.511319 0.00961,0.0133 q 0.6709325,0.102265 1.22884182,0.46833 0.56936246,0.367911 1.01609455,0.986322 0.48516065,0.671608 0.65999428,1.445956 0.18148325,0.769545 0.0445012,1.546514 -0.12552886,0.778814 -0.56140443,1.478231 -0.42442242,0.701262 -1.14257744,1.220048 -1.01738628,0.734946 -2.14013308,0.84775 -1.1112937,0.114649 -2.1572621,-0.394709 -1.0411649,-0.50271 -1.8385577,-1.60654 z"
             style="font-weight:bold;font-family:Inter;-inkscape-font-specification:'Inter Bold'"
             id="path6086" /><path
             d="m 4.3625015,57.3318 q -1.1464429,-1.019204 -1.4733428,-2.330599 -0.315319,-1.312076 0.1745886,-2.764429 0.4960384,-1.446903 1.7877566,-2.899881 1.2971685,-1.45911 2.6760292,-2.121171 1.3849914,-0.656611 2.7249649,-0.497109 1.339973,0.159502 2.492546,1.184156 1.146443,1.019204 1.461762,2.331279 0.3269,1.311396 -0.174589,2.764429 -0.489907,1.452354 -1.787076,2.911463 -1.291718,1.452978 -2.6767094,2.10959 Q 8.1895709,58.681589 6.8434672,58.516637 5.5089444,58.351004 4.3625015,57.3318 Z m 1.3407708,-1.508155 q 0.594679,0.528678 1.3671969,0.523964 0.7725179,-0.0047 1.6431686,-0.514897 0.8706506,-0.510183 1.7535972,-1.503358 0.888397,-0.999306 1.293114,-1.92371 0.404716,-0.924404 0.318935,-1.692159 -0.08033,-0.773885 -0.675011,-1.302563 -0.594679,-0.528678 -1.378777,-0.523283 -0.7725184,0.0047 -1.6431691,0.514897 -0.8645199,0.515632 -1.7529168,1.514938 -0.8829467,0.993175 -1.2937941,1.912129 -0.4047166,0.924404 -0.318935,1.692159 0.091912,0.773205 0.6865913,1.301883 z"
             style="font-weight:bold;font-family:Inter;-inkscape-font-specification:'Inter Bold'"
             id="path6088" /><path
             d="m 14.171954,64.740422 q -1.294094,-0.823668 -1.825621,-2.066287 -0.520202,-1.245133 -0.267785,-2.756962 0.259339,-1.507423 1.303239,-3.147531 1.048305,-1.647028 2.304165,-2.520183 1.262779,-0.868751 2.611055,-0.924631 1.348275,-0.05588 2.649289,0.772193 1.294093,0.823669 1.814295,2.068802 0.531528,1.242619 0.267785,2.756963 -0.252418,1.511828 -1.300723,3.158856 -1.043901,1.640108 -2.30668,2.508858 -1.25586,0.873155 -2.611055,0.924631 -1.343871,0.04896 -2.637964,-0.774709 z m 1.083542,-1.70239 q 0.671268,0.42725 1.43318,0.299597 0.761913,-0.127653 1.540227,-0.76995 0.778314,-0.642297 1.491867,-1.763384 0.717957,-1.128006 0.970329,-2.105056 0.252372,-0.97705 0.04544,-1.721353 -0.202523,-0.751224 -0.873791,-1.178474 -0.671268,-0.427251 -1.444505,-0.297082 -0.761913,0.127653 -1.540227,0.76995 -0.771394,0.646702 -1.489351,1.774708 -0.713552,1.121087 -0.972845,2.093732 -0.252372,0.97705 -0.04544,1.721353 0.213848,0.748708 0.885116,1.175959 z"
             style="font-weight:bold;font-family:Inter;-inkscape-font-specification:'Inter Bold'"
             id="path6090" /><path
             d="m 25.038527,70.487653 q -1.409333,-0.605713 -2.133065,-1.747131 -0.712956,-1.145714 -0.705996,-2.678454 0.0145,-1.529501 0.782165,-3.31566 0.770909,-1.793696 1.870667,-2.856765 1.107294,-1.05983 2.429203,-1.330984 1.321909,-0.271155 2.738779,0.337798 1.409332,0.605714 2.122289,1.751428 0.723732,1.141418 0.705996,2.678455 -0.007,1.532739 -0.777868,3.326436 -0.767669,1.786159 -1.874964,2.845989 -1.099758,1.063068 -2.429203,1.330984 -1.31867,0.263618 -2.728003,-0.342096 z m 0.796821,-1.853988 q 0.731045,0.314194 1.462666,0.06613 0.731622,-0.248064 1.396986,-1.006752 0.665365,-0.758689 1.190101,-1.979609 0.527975,-1.228455 0.620562,-2.233317 0.09259,-1.004861 -0.230906,-1.7064 -0.320254,-0.709077 -1.051299,-1.02327 -0.731044,-0.314194 -1.473441,-0.06183 -0.731622,0.248064 -1.396986,1.006753 -0.657828,0.761928 -1.185803,1.990384 -0.524736,1.220919 -0.62486,2.222541 -0.09259,1.004862 0.230906,1.706401 0.33103,0.704779 1.062074,1.018973 z"
             style="font-weight:bold;font-family:Inter;-inkscape-font-specification:'Inter Bold'"
             id="path6092" /><path
             d="m 40.321602,75.213943 q -1.112701,-0.208305 -1.839043,-0.92013 -0.726342,-0.711824 -0.998763,-1.797682 -0.264358,-1.084347 -0.0153,-2.414751 0.246041,-1.314277 0.891298,-2.219994 0.65483,-0.91227 1.581413,-1.314656 0.936157,-0.408939 2.024668,-0.205163 0.556351,0.104153 0.995328,0.344899 0.440487,0.232684 0.755538,0.600451 0.31505,0.367768 0.503155,0.878684 l 0.0081,0.0015 0.875484,-4.67657 2.370537,0.44378 -2.249089,12.013947 -2.338285,-0.437742 0.244532,-1.306215 -0.0081,-0.0015 q -0.342031,0.445053 -0.784392,0.712757 -0.432788,0.26115 -0.94676,0.331843 -0.513972,0.07069 -1.070323,-0.03346 z m 0.975061,-1.820414 q 0.604729,0.113209 1.105556,-0.110167 0.5104,-0.229929 0.866017,-0.74755 0.355616,-0.51762 0.497505,-1.275547 0.143398,-0.76599 -0.0024,-1.369133 -0.144293,-0.611207 -0.538464,-1.002133 -0.384599,-0.397479 -0.989328,-0.510688 -0.572477,-0.107171 -1.055668,0.11116 -0.483192,0.218332 -0.829236,0.729399 -0.337981,0.512576 -0.487417,1.310818 -0.149436,0.798243 -0.02127,1.40643 0.137739,0.601635 0.50923,0.979969 0.373002,0.370271 0.945478,0.477442 z"
             style="font-weight:bold;font-family:Inter;-inkscape-font-specification:'Inter Bold'"
             id="path6094" /><path
             d="m 52.224363,76.627375 q -1.311417,-0.05332 -2.263456,-0.66672 -0.943509,-0.621263 -1.442813,-1.667802 -0.491108,-1.046204 -0.437789,-2.357621 0.05399,-1.327809 0.636267,-2.322163 0.590811,-1.002217 1.573444,-1.545168 0.982634,-0.542952 2.220283,-0.492632 0.958974,0.03899 1.724297,0.398501 0.765658,0.351316 1.306546,0.98084 0.541222,0.621327 0.811162,1.453293 0.278138,0.832298 0.237815,1.824057 l -0.02633,0.647512 -7.647197,-0.310916 0.06265,-1.540914 6.483315,0.263595 -1.10511,0.324515 q 0.02666,-0.655709 -0.191707,-1.140761 -0.218366,-0.485053 -0.650639,-0.757135 -0.423743,-0.279945 -1.030273,-0.304605 -0.598334,-0.02433 -1.043404,0.220295 -0.444737,0.236425 -0.70176,0.702149 -0.257022,0.465725 -0.283681,1.121433 l -0.04266,1.049133 q -0.02733,0.672101 0.189707,1.189939 0.225563,0.509975 0.673228,0.807313 0.447999,0.289141 1.095511,0.315467 0.475388,0.01933 0.84136,-0.09715 0.374501,-0.124342 0.630389,-0.360235 0.264417,-0.243757 0.384633,-0.575475 l 2.204819,0.08964 q -0.190722,0.854286 -0.791126,1.486667 -0.600404,0.632381 -1.484546,0.97409 -0.88381,0.333512 -1.932943,0.290857 z"
             style="font-weight:bold;font-family:Inter;-inkscape-font-specification:'Inter Bold'"
             id="path6096" /><path
             d="M 60.690914,64.056883 61.473476,76.254461 59.05852,76.409398 58.275958,64.21182 Z"
             style="font-weight:bold;font-family:Inter;-inkscape-font-specification:'Inter Bold'"
             id="path6098" /><path
             d="m 68.456898,75.56268 q -1.293551,0.222223 -2.352852,-0.178426 -1.052605,-0.410123 -1.759807,-1.329043 -0.699117,-0.920308 -0.92134,-2.213858 -0.225001,-1.30972 0.136365,-2.403889 0.368062,-1.103642 1.215359,-1.840156 0.847297,-0.736514 2.068085,-0.946237 0.945909,-0.162501 1.769511,0.02894 0.822212,0.183358 1.482834,0.685791 0.659233,0.494348 1.097257,1.251428 0.446108,0.755691 0.614164,1.733939 l 0.109723,0.63869 -7.543016,1.295841 -0.261113,-1.519922 6.39499,-1.098617 -1.012763,0.548534 q -0.111112,-0.646775 -0.426124,-1.075409 -0.315012,-0.428634 -0.794641,-0.604259 -0.472933,-0.185098 -1.0712,-0.08232 -0.590183,0.101389 -0.974227,0.433711 -0.385433,0.324237 -0.539333,0.833427 -0.1539,0.50919 -0.04279,1.155965 l 0.177779,1.034841 q 0.11389,0.662944 0.434457,1.123917 0.327264,0.451499 0.827229,0.648601 0.498576,0.189016 1.137267,0.07929 0.468912,-0.08056 0.802416,-0.271022 0.340199,-0.19994 0.541073,-0.484148 0.20757,-0.293681 0.255726,-0.643209 l 2.174782,-0.373614 q -0.0078,0.875282 -0.462592,1.61928 -0.454816,0.743998 -1.247904,1.263117 -0.794477,0.511034 -1.829317,0.688813 z"
             style="font-weight:bold;font-family:Inter;-inkscape-font-specification:'Inter Bold'"
             id="path6100" /><path
             d="m 80.115334,76.110665 q -1.169557,0.382348 -2.097853,0.314719 -0.917951,-0.06238 -1.582045,-0.509814 -0.656298,-0.449983 -1.035799,-1.214844 l 2.214361,-0.723912 q 0.187727,0.283843 0.477416,0.430789 0.297486,0.144396 0.668444,0.143949 0.373508,0.0073 0.802346,-0.132845 0.842081,-0.275291 1.143919,-0.883158 0.309635,-0.610416 0.01905,-1.499279 l -0.412936,-1.263121 -0.0078,0.0025 q -0.08367,0.562435 -0.348173,0.994119 -0.256705,0.429135 -0.676097,0.730218 -0.411594,0.298535 -0.949591,0.474415 -1.075992,0.35176 -2.054968,0.07631 -0.978975,-0.27545 -1.731834,-1.0736 -0.745062,-0.8007 -1.145253,-2.024836 -0.405289,-1.23973 -0.271834,-2.336262 0.138703,-1.106878 0.758122,-1.904871 0.627215,-0.800541 1.679817,-1.144655 0.537996,-0.17588 1.038655,-0.175577 0.508457,-0.0022 0.974328,0.182036 0.473669,0.181733 0.881362,0.557643 l 0.0078,-0.0025 -0.389995,-1.192948 2.26894,-0.741756 2.587221,7.914002 q 0.425681,1.302106 0.183968,2.278683 -0.239164,0.984374 -1.029067,1.656864 -0.779557,0.677737 -1.972505,1.067732 z m -1.793739,-5.170041 q 0.584778,-0.191174 0.919303,-0.619859 0.339773,-0.439031 0.405602,-1.056046 0.06583,-0.617015 -0.168679,-1.334343 -0.234506,-0.717328 -0.649546,-1.168508 -0.417589,-0.458978 -0.948536,-0.604725 -0.525699,-0.156094 -1.110477,0.03508 -0.55359,0.180978 -0.87507,0.596768 -0.324029,0.407993 -0.384609,1.014662 -0.05278,0.604119 0.194468,1.360433 0.247252,0.756313 0.646697,1.212592 0.407243,0.453729 0.91225,0.599327 0.505007,0.145597 1.058597,-0.03538 z"
             style="font-weight:bold;font-family:Inter;-inkscape-font-specification:'Inter Bold'"
             id="path6102" /><path
             d="m 88.310535,69.191803 q -0.771484,0.383011 -1.501647,0.424963 -0.730164,0.04195 -1.330835,-0.300929 -0.60432,-0.350227 -0.987331,-1.121712 -0.324648,-0.653925 -0.297397,-1.207801 0.0236,-0.561223 0.311091,-1.033652 0.291188,-0.483425 0.765594,-0.892958 0.481754,-0.413182 1.058713,-0.763727 0.676227,-0.427304 1.062204,-0.701352 0.385976,-0.274047 0.507652,-0.490148 0.121675,-0.2161 -0.0023,-0.465914 l -0.02553,-0.05143 q -0.142261,-0.286552 -0.402342,-0.423026 -0.263729,-0.143822 -0.612292,-0.126468 -0.341215,0.01371 -0.737979,0.210684 -0.396763,0.196977 -0.643346,0.475088 -0.239235,0.274464 -0.302495,0.589781 -0.06326,0.315317 0.05691,0.631154 l -2.03525,1.01042 q -0.34617,-0.826409 -0.219182,-1.622127 0.134336,-0.799366 0.741621,-1.49467 0.603637,-0.702653 1.669021,-1.231573 0.793527,-0.393954 1.509255,-0.520323 0.712081,-0.133718 1.309678,4.6e-5 0.604944,0.130115 1.069765,0.512964 0.464822,0.382849 0.774878,1.007384 l 2.611771,5.260791 -2.116072,1.050545 -0.543511,-1.094774 -0.02939,0.01459 q -0.01605,0.484205 -0.182328,0.905618 -0.166281,0.421413 -0.52318,0.790926 -0.360546,0.362165 -0.955692,0.657631 z m -0.14529,-1.805346 q 0.52167,-0.258988 0.801551,-0.636056 0.287228,-0.380716 0.328809,-0.813489 0.04158,-0.432772 -0.166338,-0.851578 l -0.386659,-0.778832 q -0.06998,0.09885 -0.198746,0.226887 -0.132411,0.120687 -0.316254,0.266908 -0.18749,0.138874 -0.40807,0.303333 -0.220581,0.16446 -0.459504,0.328868 -0.345539,0.244814 -0.584774,0.519277 -0.242883,0.267116 -0.317086,0.560391 -0.07785,0.285927 0.07535,0.594521 0.134965,0.271857 0.380403,0.397284 0.245438,0.125427 0.568363,0.09333 0.322925,-0.0321 0.682951,-0.21084 z"
             style="font-weight:bold;font-family:Inter;-inkscape-font-specification:'Inter Bold'"
             id="path6104" /><path
             d="m 94.696098,55.289304 1.036873,1.586071 -4.758215,3.110619 -1.036873,-1.586072 z m -4.801307,0.316248 2.025502,-1.324145 4.569422,6.989701 q 0.237898,0.363904 0.476347,0.413831 0.245316,0.04544 0.657282,-0.223879 0.171653,-0.112215 0.405101,-0.264829 0.240314,-0.157102 0.37077,-0.242385 l 1.036873,1.586071 q -0.185385,0.121193 -0.514959,0.336647 -0.329573,0.215454 -0.666012,0.435397 -1.194704,0.781021 -2.069818,0.686682 -0.868247,-0.09883 -1.51461,-1.087549 z"
             style="font-weight:bold;font-family:Inter;-inkscape-font-specification:'Inter Bold'"
             id="path6106" /><path
             d="m 104.64724,58.700052 q -0.99788,0.839895 -2.12175,1.046017 -1.12388,0.206123 -2.20566,-0.212898 -1.075503,-0.424304 -1.947092,-1.459841 -0.876872,-1.041813 -1.111394,-2.173953 -0.228245,-1.137422 0.166666,-2.20963 0.389628,-1.078484 1.38751,-1.918379 1.010433,-0.85046 2.13332,-1.045024 1.12387,-0.206122 2.19938,0.218181 1.08177,0.419022 1.95865,1.460835 0.87158,1.035537 1.09983,2.172959 0.23452,1.132139 -0.16039,2.204347 -0.38863,1.066926 -1.39907,1.917386 z m -1.26248,-1.49996 q 0.45187,-0.38033 0.59533,-0.897788 0.13817,-0.523735 -0.0433,-1.121524 -0.18148,-0.59779 -0.69387,-1.20656 -0.52295,-0.621322 -1.081,-0.90217 -0.55804,-0.280848 -1.09239,-0.227812 -0.53964,0.04676 -0.99151,0.42709 -0.445592,0.375047 -0.583765,0.898782 -0.143456,0.517458 0.03803,1.115248 0.181486,0.597789 0.704435,1.219112 0.51768,0.615046 1.07572,0.895894 0.55276,0.274572 1.09239,0.227812 0.53435,-0.05304 0.97995,-0.428084 z"
             style="font-weight:bold;font-family:Inter;-inkscape-font-specification:'Inter Bold'"
             id="path6108" /><path
             d="m 109.74591,53.769829 -6.34105,-5.9017 1.5872,-1.705357 1.08086,1.005972 0.0168,-0.01801 q -0.40838,-0.705068 -0.3381,-1.334445 0.0703,-0.629378 0.6571,-1.25988 0.14531,-0.156124 0.26867,-0.276635 0.12296,-0.132105 0.22956,-0.234603 l 1.5072,1.402772 q -0.0954,0.09049 -0.31422,0.301487 -0.2132,0.204994 -0.42558,0.433176 -0.33532,0.360286 -0.43544,0.805 -0.10614,0.439125 0.0672,0.903045 0.17336,0.463921 0.65374,0.911019 l 3.43473,3.196754 z"
             style="font-weight:bold;font-family:Inter;-inkscape-font-specification:'Inter Bold'"
             id="path6110" /><path
             d="m 117.16602,45.347344 q -0.66608,0.905163 -1.46381,1.407914 -0.80432,0.49789 -1.64405,0.531785 -0.83973,0.0339 -1.63494,-0.449433 l 1.40996,-1.916039 q 0.49478,0.282617 0.99555,0.141881 0.50077,-0.140736 0.9189,-0.708941 0.39868,-0.541776 0.41751,-0.99642 0.0237,-0.46125 -0.30005,-0.699485 -0.2775,-0.204201 -0.62431,-0.09276 -0.34195,0.104836 -0.73726,0.47595 l -1.13731,1.047271 q -0.94695,0.871625 -1.85125,1.020957 -0.90431,0.149331 -1.71037,-0.443824 -0.6607,-0.486194 -0.89368,-1.207618 -0.22812,-0.728032 -0.0128,-1.588074 0.22017,-0.86665 0.89112,-1.77842 0.66608,-0.905163 1.45271,-1.365156 0.78002,-0.464854 1.58571,-0.4525 0.81055,0.0057 1.55191,0.520738 l -1.3273,1.80372 q -0.42772,-0.304557 -0.94345,-0.185013 -0.51573,0.119543 -0.89982,0.641499 -0.36951,0.502134 -0.36054,0.94668 0.002,0.439684 0.3129,0.668195 0.27088,0.199339 0.60797,0.101111 0.33709,-0.09823 0.7147,-0.431446 l 1.23006,-1.131791 q 0.98273,-0.906405 1.81647,-1.056735 0.832,-0.161799 1.60502,0.407047 0.69374,0.510503 0.92398,1.291017 0.22849,0.769046 0.004,1.683316 -0.2264,0.902802 -0.89735,1.814572 z"
             style="font-weight:bold;font-family:Inter;-inkscape-font-specification:'Inter Bold'"
             id="path6112" /></g></g><g
         id="g17821"
         inkscape:label="Middlepart"
         transform="matrix(0.82,0,0,0.82,-124.56554,4.9213738)"><g
           style="fill:none"
           id="g17801"
           transform="matrix(2.871673,0,0,2.871673,-765.28098,-27.943634)"
           inkscape:label="user"><path
             d="M 15.5,3.29076 C 16.9659,3.88415 18,5.32131 18,7 c 0,1.67869 -1.0341,3.1159 -2.5,3.7092 m -0.9693,4.5953 C 13.7956,15 12.8638,15 11,15 H 8 C 6.13623,15 5.20435,15 4.46927,15.3045 3.48915,15.7105 2.71046,16.4892 2.30448,17.4693 2,18.2044 2,19.1362 2,21"
             stroke="#000000"
             stroke-width="2"
             stroke-linecap="round"
             stroke-linejoin="round"
             id="path17795"
             style="stroke:#ffffff;stroke-opacity:1"
             sodipodi:nodetypes="csccssssc" /><g
             style="fill:none"
             id="g17799"
             transform="matrix(1.2195122,0,0,1.2195122,16.431792,-4.3044051)"><path
               d="M 2.1059357,20.761546 V 15.913074 M -0.31830037,18.33731 H 4.5301716"
               stroke="#000000"
               stroke-width="1.61616"
               stroke-linecap="round"
               stroke-linejoin="round"
               id="path17797"
               sodipodi:nodetypes="cccc"
               style="stroke:#ffffff;stroke-opacity:1" /></g></g><g
           id="g17819"
           transform="matrix(1.8892585,0,0,1.8892585,-739.72275,-5.9525966)"
           inkscape:label="Logo"
           style="display:inline">
		<g
   transform="translate(0.91990781,-0.8)"
   id="g17805"
   inkscape:label="Circle">
<path
   style="opacity:1;fill:#e4003a;fill-opacity:1;fill-rule:nonzero;stroke:none;stroke-width:1;stroke-linecap:butt;stroke-linejoin:miter;stroke-miterlimit:4;stroke-dasharray:none;stroke-dashoffset:0"
   d="m 0,7.39996 a 7.6,7.6 0 1 1 7.6,-7.6 7.6,7.6 0 0 1 -7.6,7.6 z"
   stroke-linecap="round"
   id="path17803" />
</g>
		<g
   transform="translate(0.81,-1.08)"
   id="g17809"
   style="display:none"
   inkscape:label="undefined">
<path
   style="opacity:1;fill:#ffffff;fill-rule:nonzero;stroke:none;stroke-width:1;stroke-linecap:butt;stroke-linejoin:miter;stroke-miterlimit:4;stroke-dasharray:none;stroke-dashoffset:0"
   transform="translate(-10.81,-11.92)"
   d="m 8.46,13.2 h -0.8 c -0.3,0 -0.4,-0.1 -0.4,-0.4 a 0.43,0.43 0 0 1 0.4,-0.4 h 0.9 a 0.35,0.35 0 0 0 0.2,-0.1 1.42,1.42 0 0 0 0.2,-0.6 h -0.7 a 0.4,0.4 0 1 1 0,-0.8 h 0.8 c 0.1,0 0.2,0 0.2,-0.1 a 23.29,23.29 0 0 0 1.1,-2.8 0.1,0.1 0 0 1 0.1,-0.1 c 0.1,-0.2 0.2,-0.3 0.4,-0.3 0.2,0 0.3,0.1 0.4,0.3 0.2,0.6 0.4,1.1 0.6,1.7 0.2,0.4 0.3,0.8 0.5,1.2 0,0.1 0.1,0.1 0.2,0.1 h 0.8 a 0.37,0.37 0 0 1 0.4,0.4 0.43,0.43 0 0 1 -0.4,0.4 h -0.7 a 4.88,4.88 0 0 0 0.3,0.7 0.35,0.35 0 0 0 0.2,0.1 h 0.9 c 0.1,0 0.3,0.1 0.3,0.2 a 0.6,0.6 0 0 1 -0.1,0.4 0.37,0.37 0 0 1 -0.3,0.1 h -0.8 a 3.55,3.55 0 0 0 0.4,0.9 l 0.6,1.5 c 0.1,0.3 0.1,0.5 -0.2,0.6 -0.3,0.1 -0.4,0 -0.5,-0.3 -0.3,-0.9 -0.7,-1.7 -1,-2.6 -0.1,-0.2 -0.1,-0.2 -0.3,-0.2 h -2.9 c -0.2,0 -0.2,0 -0.3,0.2 a 18.61,18.61 0 0 1 -1,2.5 c -0.1,0.2 -0.2,0.3 -0.4,0.3 a 0.27,0.27 0 0 1 -0.3,-0.3 0.37,0.37 0 0 1 0.1,-0.3 c 0.3,-0.7 0.5,-1.4 0.8,-2.1 0.2,0 0.2,-0.1 0.3,-0.2 z m 1,-0.8 h 2.7 c -0.1,-0.2 -0.2,-0.5 -0.3,-0.7 a 0.35,0.35 0 0 0 -0.2,-0.1 h -1.8 c -0.1,0 -0.1,0 -0.2,0.1 a 1.45,1.45 0 0 1 -0.2,0.7 z m 2.2,-1.5 c -0.3,-0.7 -0.5,-1.3 -0.8,-2 -0.3,0.7 -0.5,1.3 -0.8,2 z"
   stroke-linecap="round"
   id="path17807" />
</g>
<path
   style="opacity:1;fill:#050001;fill-opacity:1;stroke:#ffffff;stroke-width:0.786824;stroke-linecap:round;stroke-miterlimit:3.7;stroke-dasharray:none;stroke-opacity:1;paint-order:stroke fill markers"
   d="M -2.3986007,2.7360851 0.88883187,-5.0028575"
   id="path17811"
   sodipodi:nodetypes="cc" /><path
   style="opacity:1;fill:#050001;fill-opacity:1;stroke:#ffffff;stroke-width:0.786824;stroke-linecap:round;stroke-miterlimit:3.7;stroke-dasharray:none;stroke-opacity:1"
   d="M 4.2651388,2.7342975 0.98031102,-5.0045294"
   id="path17813"
   sodipodi:nodetypes="cc" /><path
   style="opacity:1;fill:#050001;fill-opacity:1;stroke:#ffffff;stroke-width:0.786824;stroke-linecap:round;stroke-miterlimit:3.7;stroke-dasharray:none;stroke-opacity:1"
   d="m -1.664028,-1.6872983 5.178973,-0.015567"
   id="path17815" /><path
   style="fill:#050001;fill-opacity:1;stroke:#ffffff;stroke-width:0.786824;stroke-linecap:round;stroke-miterlimit:3.7;stroke-dasharray:none;stroke-opacity:1"
   d="m -2.3298842,-0.18348542 6.5097684,-0.0124693"
   id="path17817" /></g></g><g
         id="g19805"
         inkscape:label="circles"
         transform="matrix(0.82310934,0,0,0.82310934,-2275.1806,-977.40943)"><circle
           style="fill:#e4003a;fill-opacity:1;stroke:none;stroke-width:0.511713;stroke-linecap:round;stroke-linejoin:round;stroke-dasharray:none;stroke-opacity:1;paint-order:stroke markers fill"
           id="circle19781"
           cx="-1259.1384"
           cy="1884.0352"
           inkscape:transform-center-x="6.1035156e-05"
           inkscape:transform-center-y="58.593567"
           transform="rotate(-90)"
           r="2.5585673" /><circle
           style="fill:#e4003a;fill-opacity:1;stroke:none;stroke-width:0.511713;stroke-linecap:round;stroke-linejoin:round;stroke-dasharray:none;stroke-opacity:1;paint-order:stroke markers fill"
           id="circle19783"
           cx="-156.27831"
           cy="2231.8948"
           inkscape:transform-center-x="29.296796"
           inkscape:transform-center-y="50.743509"
           transform="rotate(-60)"
           r="2.7632527" /><circle
           style="fill:#e4003a;fill-opacity:1;stroke:none;stroke-width:0.511713;stroke-linecap:round;stroke-linejoin:round;stroke-dasharray:none;stroke-opacity:1;paint-order:stroke markers fill"
           id="circle19785"
           cx="972.75635"
           cy="1981.72"
           inkscape:transform-center-x="50.743523"
           inkscape:transform-center-y="29.296803"
           transform="rotate(-30)"
           r="2.9679382" /><circle
           style="fill:#e4003a;fill-opacity:1;stroke:none;stroke-width:0.511713;stroke-linecap:round;stroke-linejoin:round;stroke-dasharray:none;stroke-opacity:1;paint-order:stroke markers fill"
           id="circle19787"
           cx="1825.4417"
           cy="1200.5449"
           inkscape:transform-center-x="58.593567"
           inkscape:transform-center-y="6.0887265e-05"
           r="3.1726236" /><circle
           style="fill:#e4003a;fill-opacity:1;stroke:none;stroke-width:0.511713;stroke-linecap:round;stroke-linejoin:round;stroke-dasharray:none;stroke-opacity:1;paint-order:stroke markers fill"
           id="circle19789"
           cx="2173.3013"
           cy="97.684799"
           inkscape:transform-center-x="50.743507"
           inkscape:transform-center-y="-29.296709"
           transform="rotate(30)"
           r="3.3773088" /><circle
           style="fill:#e4003a;fill-opacity:1;stroke:none;stroke-width:0.511713;stroke-linecap:round;stroke-linejoin:round;stroke-dasharray:none;stroke-opacity:1;paint-order:stroke markers fill"
           id="circle19791"
           cx="1923.1265"
           cy="-1031.3499"
           inkscape:transform-center-x="29.296811"
           inkscape:transform-center-y="-50.743415"
           transform="rotate(60)"
           r="3.5819943" /><circle
           style="fill:#e4003a;fill-opacity:1;stroke:none;stroke-width:0.511713;stroke-linecap:round;stroke-linejoin:round;stroke-dasharray:none;stroke-opacity:1;paint-order:stroke markers fill"
           id="circle19793"
           cx="1141.9514"
           cy="-1884.0352"
           inkscape:transform-center-x="6.0505766e-05"
           inkscape:transform-center-y="-58.593445"
           transform="rotate(90)"
           r="3.7866797" /></g></g></g></svg>
