<?xml version="1.0" encoding="UTF-8" standalone="no"?>
<svg
   inkscape:version="1.2.2 (b0a84865, 2022-12-01)"
   xml:space="preserve"
   sodipodi:docname="final_awards_pre-text-to-path.svg"
   id="svg134"
   version="1.1"
   viewBox="-120 -120 299.99976 300.00004"
   height="250.00003"
   width="249.9998"
   inkscape:export-filename="0.svg"
   inkscape:export-xdpi="96"
   inkscape:export-ydpi="96"
   xmlns:inkscape="http://www.inkscape.org/namespaces/inkscape"
   xmlns:sodipodi="http://sodipodi.sourceforge.net/DTD/sodipodi-0.dtd"
   xmlns="http://www.w3.org/2000/svg"
   xmlns:svg="http://www.w3.org/2000/svg"><defs
     id="defs138" /><sodipodi:namedview
     id="namedview136"
     pagecolor="#ffffff"
     bordercolor="#000000"
     borderopacity="0.25"
     inkscape:showpageshadow="2"
     inkscape:pageopacity="0.0"
     inkscape:pagecheckerboard="0"
     inkscape:deskcolor="#d1d1d1"
     showgrid="false"
     inkscape:zoom="0.35355339"
     inkscape:cx="1480.6816"
     inkscape:cy="663.26616"
     inkscape:window-width="1425"
     inkscape:window-height="949"
     inkscape:window-x="0"
     inkscape:window-y="25"
     inkscape:window-maximized="1"
     inkscape:current-layer="g19337"
     showguides="true" /><style
     type="text/css"
     id="style8571">
	.st0{fill:#ffffff;}
</style><g
     id="g2049"
     inkscape:label="Blocks"
     transform="translate(-1124.0352,-404.63494)"><g
       id="g3446"
       inkscape:label="10k blocs"
       transform="matrix(1.4245145,0,0,1.4245145,973.4422,870.54479)"
       inkscape:export-filename="./g8306.svg"
       inkscape:export-xdpi="96"
       inkscape:export-ydpi="96"><g
         id="g3386"
         inkscape:label="border"
         style="fill:#112c50;fill-opacity:1"
         transform="translate(-486.01402,-1421.859)"><path
           fill="none"
           stroke="black"
           stroke-width="2"
           d="m 712.78911,1115.8531 q 9.47,10.78 -1.92,19.51 7.18,12.42 -5.69,18.76 4.62,13.58 -9.24,17.29 1.88,14.22 -12.44,15.15 -0.93,14.32 -15.15,12.44 -3.71,13.86 -17.29,9.24 -6.34,12.87 -18.76,5.69 -8.73,11.39 -19.51,1.92 -10.78,9.47 -19.51,-1.92 -12.42,7.18 -18.76,-5.69 -13.58,4.62 -17.29,-9.24 -14.22,1.88 -15.15,-12.44 -14.32,-0.93 -12.44,-15.15 -13.86,-3.71 -9.24,-17.29 -12.87,-6.34 -5.69,-18.76 -11.39,-8.73 -1.92,-19.51 -9.47,-10.78 1.92,-19.51 -7.18,-12.42 5.69,-18.76 -4.62,-13.58 9.24,-17.29 -1.88,-14.22 12.44,-15.15 0.93,-14.32 15.15,-12.44 3.71,-13.86 17.29,-9.24 6.34,-12.87 18.76,-5.69 8.73,-11.39 19.51,-1.92 10.78,-9.47 19.51,1.92 12.42,-7.18 18.76,5.69 13.58,-4.62 17.29,9.24 14.22,-1.88 15.15,12.44 14.32,0.93 12.44,15.15 13.86,3.71 9.24,17.29 12.87,6.34 5.69,18.76 11.39,8.73 1.92,19.51 z"
           id="path3286"
           style="fill:#04344d;fill-opacity:1;stroke:#04344d;stroke-opacity:1" /><g
           id="g3384"
           inkscape:label="Circles"
           transform="translate(97.989201,1115.8444)"
           style="fill:#112c50;fill-opacity:1"><g
             id="g3290"
             transform="rotate(7.5,5558.9497,3252.8791)"
             inkscape:transform-center-x="-11.777454"
             inkscape:transform-center-y="-88.637902"
             style="fill:#ffffff;fill-opacity:1"><path
               sodipodi:type="star"
               style="fill:#ffffff;fill-opacity:1;stroke:#ffffff;stroke-width:2.22;stroke-linecap:round;stroke-opacity:1;paint-order:stroke fill markers"
               id="path3288"
               inkscape:flatsided="false"
               sodipodi:sides="5"
               sodipodi:cx="396.99625"
               sodipodi:cy="-372.60107"
               sodipodi:r1="3.6169088"
               sodipodi:r2="1.6637779"
               sodipodi:arg1="0.95906936"
               sodipodi:arg2="1.5873879"
               inkscape:rounded="0"
               inkscape:randomized="0"
               d="m 399.07337,-369.64006 -2.10473,-1.29747 -2.14661,1.22692 0.58356,-2.40265 -1.83021,-1.66242 2.46539,-0.18746 1.01548,-2.25435 0.94014,2.2868 2.45781,0.26915 -1.88435,1.60078 z"
               transform="matrix(1.0133273,0,0,1.0133273,-268.95197,974.58915)"
               inkscape:transform-center-x="1.0196929"
               inkscape:transform-center-y="-89.532179"
               inkscape:label="path5969" /></g><g
             id="g3294"
             transform="rotate(22.5,2049.0208,1301.9125)"
             inkscape:transform-center-x="-34.354027"
             inkscape:transform-center-y="-82.323429"
             style="fill:#ffffff;fill-opacity:1"><path
               sodipodi:type="star"
               style="fill:#ffffff;fill-opacity:1;stroke:#ffffff;stroke-width:2.22;stroke-linecap:round;stroke-opacity:1;paint-order:stroke fill markers"
               id="path3292"
               inkscape:flatsided="false"
               sodipodi:sides="5"
               sodipodi:cx="396.99625"
               sodipodi:cy="-372.60107"
               sodipodi:r1="3.6169088"
               sodipodi:r2="1.6637779"
               sodipodi:arg1="0.95906936"
               sodipodi:arg2="1.5873879"
               inkscape:rounded="0"
               inkscape:randomized="0"
               d="m 399.07337,-369.64006 -2.10473,-1.29747 -2.14661,1.22692 0.58356,-2.40265 -1.83021,-1.66242 2.46539,-0.18746 1.01548,-2.25435 0.94014,2.2868 2.45781,0.26915 -1.88435,1.60078 z"
               transform="matrix(1.0133273,0,0,1.0133273,-268.95197,974.58915)"
               inkscape:transform-center-x="1.0196929"
               inkscape:transform-center-y="-89.532179"
               inkscape:label="path5969" /></g><g
             id="g3298"
             transform="rotate(37.5,1334.8573,904.95028)"
             inkscape:transform-center-x="-54.232035"
             inkscape:transform-center-y="-70.490863"
             style="fill:#ffffff;fill-opacity:1"><path
               sodipodi:type="star"
               style="fill:#ffffff;fill-opacity:1;stroke:#ffffff;stroke-width:2.22;stroke-linecap:round;stroke-opacity:1;paint-order:stroke fill markers"
               id="path3296"
               inkscape:flatsided="false"
               sodipodi:sides="5"
               sodipodi:cx="396.99625"
               sodipodi:cy="-372.60107"
               sodipodi:r1="3.6169088"
               sodipodi:r2="1.6637779"
               sodipodi:arg1="0.95906936"
               sodipodi:arg2="1.5873879"
               inkscape:rounded="0"
               inkscape:randomized="0"
               d="m 399.07337,-369.64006 -2.10473,-1.29747 -2.14661,1.22692 0.58356,-2.40265 -1.83021,-1.66242 2.46539,-0.18746 1.01548,-2.25435 0.94014,2.2868 2.45781,0.26915 -1.88435,1.60078 z"
               transform="matrix(1.0133273,0,0,1.0133273,-268.95197,974.58915)"
               inkscape:transform-center-x="1.0196929"
               inkscape:transform-center-y="-89.532179"
               inkscape:label="path5969" /></g><g
             id="g3302"
             transform="rotate(52.5,1019.845,729.85313)"
             inkscape:transform-center-x="-70.414229"
             inkscape:transform-center-y="-54.322566"
             style="fill:#ffffff;fill-opacity:1"><path
               sodipodi:type="star"
               style="fill:#ffffff;fill-opacity:1;stroke:#ffffff;stroke-width:2.22;stroke-linecap:round;stroke-opacity:1;paint-order:stroke fill markers"
               id="path3300"
               inkscape:flatsided="false"
               sodipodi:sides="5"
               sodipodi:cx="396.99625"
               sodipodi:cy="-372.60107"
               sodipodi:r1="3.6169088"
               sodipodi:r2="1.6637779"
               sodipodi:arg1="0.95906936"
               sodipodi:arg2="1.5873879"
               inkscape:rounded="0"
               inkscape:randomized="0"
               d="m 399.07337,-369.64006 -2.10473,-1.29747 -2.14661,1.22692 0.58356,-2.40265 -1.83021,-1.66242 2.46539,-0.18746 1.01548,-2.25435 0.94014,2.2868 2.45781,0.26915 -1.88435,1.60078 z"
               transform="matrix(1.0133273,0,0,1.0133273,-268.95197,974.58915)"
               inkscape:transform-center-x="1.0196929"
               inkscape:transform-center-y="-89.532179"
               inkscape:label="path5969" /></g><g
             id="g3306"
             transform="rotate(67.5,837.58649,628.54617)"
             inkscape:transform-center-x="-82.3354"
             inkscape:transform-center-y="-34.452242"
             style="fill:#ffffff;fill-opacity:1"><path
               sodipodi:type="star"
               style="fill:#ffffff;fill-opacity:1;stroke:#ffffff;stroke-width:2.22;stroke-linecap:round;stroke-opacity:1;paint-order:stroke fill markers"
               id="path3304"
               inkscape:flatsided="false"
               sodipodi:sides="5"
               sodipodi:cx="396.99625"
               sodipodi:cy="-372.60107"
               sodipodi:r1="3.6169088"
               sodipodi:r2="1.6637779"
               sodipodi:arg1="0.95906936"
               sodipodi:arg2="1.5873879"
               inkscape:rounded="0"
               inkscape:randomized="0"
               d="m 399.07337,-369.64006 -2.10473,-1.29747 -2.14661,1.22692 0.58356,-2.40265 -1.83021,-1.66242 2.46539,-0.18746 1.01548,-2.25435 0.94014,2.2868 2.45781,0.26915 -1.88435,1.60078 z"
               transform="matrix(1.0133273,0,0,1.0133273,-268.95197,974.58915)"
               inkscape:transform-center-x="1.0196929"
               inkscape:transform-center-y="-89.532179"
               inkscape:label="path5969" /></g><g
             id="g3310"
             transform="rotate(82.5,715.32761,560.58954)"
             inkscape:transform-center-x="-88.666206"
             inkscape:transform-center-y="-11.806367"
             style="fill:#ffffff;fill-opacity:1"><path
               sodipodi:type="star"
               style="fill:#ffffff;fill-opacity:1;stroke:#ffffff;stroke-width:2.22;stroke-linecap:round;stroke-opacity:1;paint-order:stroke fill markers"
               id="path3308"
               inkscape:flatsided="false"
               sodipodi:sides="5"
               sodipodi:cx="396.99625"
               sodipodi:cy="-372.60107"
               sodipodi:r1="3.6169088"
               sodipodi:r2="1.6637779"
               sodipodi:arg1="0.95906936"
               sodipodi:arg2="1.5873879"
               inkscape:rounded="0"
               inkscape:randomized="0"
               d="m 399.07337,-369.64006 -2.10473,-1.29747 -2.14661,1.22692 0.58356,-2.40265 -1.83021,-1.66242 2.46539,-0.18746 1.01548,-2.25435 0.94014,2.2868 2.45781,0.26915 -1.88435,1.60078 z"
               transform="matrix(1.0133273,0,0,1.0133273,-268.95197,974.58915)"
               inkscape:transform-center-x="1.0196929"
               inkscape:transform-center-y="-89.532179"
               inkscape:label="path5969" /></g><g
             id="g3314"
             transform="rotate(97.5,624.98471,510.37315)"
             inkscape:transform-center-x="-88.637973"
             inkscape:transform-center-y="11.777454"
             style="fill:#ffffff;fill-opacity:1"><path
               sodipodi:type="star"
               style="fill:#ffffff;fill-opacity:1;stroke:#ffffff;stroke-width:2.22;stroke-linecap:round;stroke-opacity:1;paint-order:stroke fill markers"
               id="path3312"
               inkscape:flatsided="false"
               sodipodi:sides="5"
               sodipodi:cx="396.99625"
               sodipodi:cy="-372.60107"
               sodipodi:r1="3.6169088"
               sodipodi:r2="1.6637779"
               sodipodi:arg1="0.95906936"
               sodipodi:arg2="1.5873879"
               inkscape:rounded="0"
               inkscape:randomized="0"
               d="m 399.07337,-369.64006 -2.10473,-1.29747 -2.14661,1.22692 0.58356,-2.40265 -1.83021,-1.66242 2.46539,-0.18746 1.01548,-2.25435 0.94014,2.2868 2.45781,0.26915 -1.88435,1.60078 z"
               transform="matrix(1.0133273,0,0,1.0133273,-268.95197,974.58915)"
               inkscape:transform-center-x="1.0196929"
               inkscape:transform-center-y="-89.532179"
               inkscape:label="path5969" /></g><g
             id="g3318"
             transform="rotate(112.5,553.34383,470.55213)"
             inkscape:transform-center-x="-82.323487"
             inkscape:transform-center-y="34.35403"
             style="fill:#ffffff;fill-opacity:1"><path
               sodipodi:type="star"
               style="fill:#ffffff;fill-opacity:1;stroke:#ffffff;stroke-width:2.22;stroke-linecap:round;stroke-opacity:1;paint-order:stroke fill markers"
               id="path3316"
               inkscape:flatsided="false"
               sodipodi:sides="5"
               sodipodi:cx="396.99625"
               sodipodi:cy="-372.60107"
               sodipodi:r1="3.6169088"
               sodipodi:r2="1.6637779"
               sodipodi:arg1="0.95906936"
               sodipodi:arg2="1.5873879"
               inkscape:rounded="0"
               inkscape:randomized="0"
               d="m 399.07337,-369.64006 -2.10473,-1.29747 -2.14661,1.22692 0.58356,-2.40265 -1.83021,-1.66242 2.46539,-0.18746 1.01548,-2.25435 0.94014,2.2868 2.45781,0.26915 -1.88435,1.60078 z"
               transform="matrix(1.0133273,0,0,1.0133273,-268.95197,974.58915)"
               inkscape:transform-center-x="1.0196929"
               inkscape:transform-center-y="-89.532179"
               inkscape:label="path5969" /></g><g
             id="g3322"
             transform="rotate(127.5,493.28797,437.17055)"
             inkscape:transform-center-x="-70.490908"
             inkscape:transform-center-y="54.23204"
             style="fill:#ffffff;fill-opacity:1"><path
               sodipodi:type="star"
               style="fill:#ffffff;fill-opacity:1;stroke:#ffffff;stroke-width:2.22;stroke-linecap:round;stroke-opacity:1;paint-order:stroke fill markers"
               id="path3320"
               inkscape:flatsided="false"
               sodipodi:sides="5"
               sodipodi:cx="396.99625"
               sodipodi:cy="-372.60107"
               sodipodi:r1="3.6169088"
               sodipodi:r2="1.6637779"
               sodipodi:arg1="0.95906936"
               sodipodi:arg2="1.5873879"
               inkscape:rounded="0"
               inkscape:randomized="0"
               d="m 399.07337,-369.64006 -2.10473,-1.29747 -2.14661,1.22692 0.58356,-2.40265 -1.83021,-1.66242 2.46539,-0.18746 1.01548,-2.25435 0.94014,2.2868 2.45781,0.26915 -1.88435,1.60078 z"
               transform="matrix(1.0133273,0,0,1.0133273,-268.95197,974.58915)"
               inkscape:transform-center-x="1.0196929"
               inkscape:transform-center-y="-89.532179"
               inkscape:label="path5969" /></g><g
             id="g3326"
             transform="rotate(142.5,440.5548,407.85923)"
             inkscape:transform-center-x="-54.322569"
             inkscape:transform-center-y="70.414225"
             style="fill:#ffffff;fill-opacity:1"><path
               sodipodi:type="star"
               style="fill:#ffffff;fill-opacity:1;stroke:#ffffff;stroke-width:2.22;stroke-linecap:round;stroke-opacity:1;paint-order:stroke fill markers"
               id="path3324"
               inkscape:flatsided="false"
               sodipodi:sides="5"
               sodipodi:cx="396.99625"
               sodipodi:cy="-372.60107"
               sodipodi:r1="3.6169088"
               sodipodi:r2="1.6637779"
               sodipodi:arg1="0.95906936"
               sodipodi:arg2="1.5873879"
               inkscape:rounded="0"
               inkscape:randomized="0"
               d="m 399.07337,-369.64006 -2.10473,-1.29747 -2.14661,1.22692 0.58356,-2.40265 -1.83021,-1.66242 2.46539,-0.18746 1.01548,-2.25435 0.94014,2.2868 2.45781,0.26915 -1.88435,1.60078 z"
               transform="matrix(1.0133273,0,0,1.0133273,-268.95197,974.58915)"
               inkscape:transform-center-x="1.0196929"
               inkscape:transform-center-y="-89.532179"
               inkscape:label="path5969" /></g><g
             id="g3330"
             transform="rotate(157.5,392.3333,381.05569)"
             inkscape:transform-center-x="-34.452251"
             inkscape:transform-center-y="82.335402"
             style="fill:#ffffff;fill-opacity:1"><path
               sodipodi:type="star"
               style="fill:#ffffff;fill-opacity:1;stroke:#ffffff;stroke-width:2.22;stroke-linecap:round;stroke-opacity:1;paint-order:stroke fill markers"
               id="path3328"
               inkscape:flatsided="false"
               sodipodi:sides="5"
               sodipodi:cx="396.99625"
               sodipodi:cy="-372.60107"
               sodipodi:r1="3.6169088"
               sodipodi:r2="1.6637779"
               sodipodi:arg1="0.95906936"
               sodipodi:arg2="1.5873879"
               inkscape:rounded="0"
               inkscape:randomized="0"
               d="m 399.07337,-369.64006 -2.10473,-1.29747 -2.14661,1.22692 0.58356,-2.40265 -1.83021,-1.66242 2.46539,-0.18746 1.01548,-2.25435 0.94014,2.2868 2.45781,0.26915 -1.88435,1.60078 z"
               transform="matrix(1.0133273,0,0,1.0133273,-268.95197,974.58915)"
               inkscape:transform-center-x="1.0196929"
               inkscape:transform-center-y="-89.532179"
               inkscape:label="path5969" /></g><g
             id="g3334"
             transform="rotate(172.5,346.57293,355.62015)"
             inkscape:transform-center-x="-11.806385"
             inkscape:transform-center-y="88.666214"
             style="fill:#ffffff;fill-opacity:1"><path
               sodipodi:type="star"
               style="fill:#ffffff;fill-opacity:1;stroke:#ffffff;stroke-width:2.22;stroke-linecap:round;stroke-opacity:1;paint-order:stroke fill markers"
               id="path3332"
               inkscape:flatsided="false"
               sodipodi:sides="5"
               sodipodi:cx="396.99625"
               sodipodi:cy="-372.60107"
               sodipodi:r1="3.6169088"
               sodipodi:r2="1.6637779"
               sodipodi:arg1="0.95906936"
               sodipodi:arg2="1.5873879"
               inkscape:rounded="0"
               inkscape:randomized="0"
               d="m 399.07337,-369.64006 -2.10473,-1.29747 -2.14661,1.22692 0.58356,-2.40265 -1.83021,-1.66242 2.46539,-0.18746 1.01548,-2.25435 0.94014,2.2868 2.45781,0.26915 -1.88435,1.60078 z"
               transform="matrix(1.0133273,0,0,1.0133273,-268.95197,974.58915)"
               inkscape:transform-center-x="1.0196929"
               inkscape:transform-center-y="-89.532179"
               inkscape:label="path5969" /></g><g
             id="g3338"
             transform="rotate(-172.5,301.59553,330.61982)"
             inkscape:transform-center-x="11.777442"
             inkscape:transform-center-y="88.637982"
             style="fill:#ffffff;fill-opacity:1"><path
               sodipodi:type="star"
               style="fill:#ffffff;fill-opacity:1;stroke:#ffffff;stroke-width:2.22;stroke-linecap:round;stroke-opacity:1;paint-order:stroke fill markers"
               id="path3336"
               inkscape:flatsided="false"
               sodipodi:sides="5"
               sodipodi:cx="396.99625"
               sodipodi:cy="-372.60107"
               sodipodi:r1="3.6169088"
               sodipodi:r2="1.6637779"
               sodipodi:arg1="0.95906936"
               sodipodi:arg2="1.5873879"
               inkscape:rounded="0"
               inkscape:randomized="0"
               d="m 399.07337,-369.64006 -2.10473,-1.29747 -2.14661,1.22692 0.58356,-2.40265 -1.83021,-1.66242 2.46539,-0.18746 1.01548,-2.25435 0.94014,2.2868 2.45781,0.26915 -1.88435,1.60078 z"
               transform="matrix(1.0133273,0,0,1.0133273,-268.95197,974.58915)"
               inkscape:transform-center-x="1.0196929"
               inkscape:transform-center-y="-89.532179"
               inkscape:label="path5969" /></g><g
             id="g3342"
             transform="rotate(-157.5,255.83516,305.18428)"
             inkscape:transform-center-x="34.354019"
             inkscape:transform-center-y="82.323499"
             style="fill:#ffffff;fill-opacity:1"><path
               sodipodi:type="star"
               style="fill:#ffffff;fill-opacity:1;stroke:#ffffff;stroke-width:2.22;stroke-linecap:round;stroke-opacity:1;paint-order:stroke fill markers"
               id="path3340"
               inkscape:flatsided="false"
               sodipodi:sides="5"
               sodipodi:cx="396.99625"
               sodipodi:cy="-372.60107"
               sodipodi:r1="3.6169088"
               sodipodi:r2="1.6637779"
               sodipodi:arg1="0.95906936"
               sodipodi:arg2="1.5873879"
               inkscape:rounded="0"
               inkscape:randomized="0"
               d="m 399.07337,-369.64006 -2.10473,-1.29747 -2.14661,1.22692 0.58356,-2.40265 -1.83021,-1.66242 2.46539,-0.18746 1.01548,-2.25435 0.94014,2.2868 2.45781,0.26915 -1.88435,1.60078 z"
               transform="matrix(1.0133273,0,0,1.0133273,-268.95197,974.58915)"
               inkscape:transform-center-x="1.0196929"
               inkscape:transform-center-y="-89.532179"
               inkscape:label="path5969" /></g><g
             id="g3346"
             transform="rotate(-142.5,207.61366,278.38074)"
             inkscape:transform-center-x="54.232031"
             inkscape:transform-center-y="70.490924"
             style="fill:#ffffff;fill-opacity:1"><path
               sodipodi:type="star"
               style="fill:#ffffff;fill-opacity:1;stroke:#ffffff;stroke-width:2.22;stroke-linecap:round;stroke-opacity:1;paint-order:stroke fill markers"
               id="path3344"
               inkscape:flatsided="false"
               sodipodi:sides="5"
               sodipodi:cx="396.99625"
               sodipodi:cy="-372.60107"
               sodipodi:r1="3.6169088"
               sodipodi:r2="1.6637779"
               sodipodi:arg1="0.95906936"
               sodipodi:arg2="1.5873879"
               inkscape:rounded="0"
               inkscape:randomized="0"
               d="m 399.07337,-369.64006 -2.10473,-1.29747 -2.14661,1.22692 0.58356,-2.40265 -1.83021,-1.66242 2.46539,-0.18746 1.01548,-2.25435 0.94014,2.2868 2.45781,0.26915 -1.88435,1.60078 z"
               transform="matrix(1.0133273,0,0,1.0133273,-268.95197,974.58915)"
               inkscape:transform-center-x="1.0196929"
               inkscape:transform-center-y="-89.532179"
               inkscape:label="path5969" /></g><g
             id="g3350"
             transform="rotate(-127.5,154.88049,249.06943)"
             inkscape:transform-center-x="70.414233"
             inkscape:transform-center-y="54.322599"
             style="fill:#ffffff;fill-opacity:1"><path
               sodipodi:type="star"
               style="fill:#ffffff;fill-opacity:1;stroke:#ffffff;stroke-width:2.22;stroke-linecap:round;stroke-opacity:1;paint-order:stroke fill markers"
               id="path3348"
               inkscape:flatsided="false"
               sodipodi:sides="5"
               sodipodi:cx="396.99625"
               sodipodi:cy="-372.60107"
               sodipodi:r1="3.6169088"
               sodipodi:r2="1.6637779"
               sodipodi:arg1="0.95906936"
               sodipodi:arg2="1.5873879"
               inkscape:rounded="0"
               inkscape:randomized="0"
               d="m 399.07337,-369.64006 -2.10473,-1.29747 -2.14661,1.22692 0.58356,-2.40265 -1.83021,-1.66242 2.46539,-0.18746 1.01548,-2.25435 0.94014,2.2868 2.45781,0.26915 -1.88435,1.60078 z"
               transform="matrix(1.0133273,0,0,1.0133273,-268.95197,974.58915)"
               inkscape:transform-center-x="1.0196929"
               inkscape:transform-center-y="-89.532179"
               inkscape:label="path5969" /></g><g
             id="g3354"
             transform="rotate(-112.5,94.824625,215.68785)"
             inkscape:transform-center-x="82.33541"
             inkscape:transform-center-y="34.452266"
             style="fill:#ffffff;fill-opacity:1"><path
               sodipodi:type="star"
               style="fill:#ffffff;fill-opacity:1;stroke:#ffffff;stroke-width:2.22;stroke-linecap:round;stroke-opacity:1;paint-order:stroke fill markers"
               id="path3352"
               inkscape:flatsided="false"
               sodipodi:sides="5"
               sodipodi:cx="396.99625"
               sodipodi:cy="-372.60107"
               sodipodi:r1="3.6169088"
               sodipodi:r2="1.6637779"
               sodipodi:arg1="0.95906936"
               sodipodi:arg2="1.5873879"
               inkscape:rounded="0"
               inkscape:randomized="0"
               d="m 399.07337,-369.64006 -2.10473,-1.29747 -2.14661,1.22692 0.58356,-2.40265 -1.83021,-1.66242 2.46539,-0.18746 1.01548,-2.25435 0.94014,2.2868 2.45781,0.26915 -1.88435,1.60078 z"
               transform="matrix(1.0133273,0,0,1.0133273,-268.95197,974.58915)"
               inkscape:transform-center-x="1.0196929"
               inkscape:transform-center-y="-89.532179"
               inkscape:label="path5969" /></g><g
             id="g3358"
             transform="rotate(-97.5,23.183742,175.86683)"
             inkscape:transform-center-x="88.66622"
             inkscape:transform-center-y="11.806393"
             style="fill:#ffffff;fill-opacity:1"><path
               sodipodi:type="star"
               style="fill:#ffffff;fill-opacity:1;stroke:#ffffff;stroke-width:2.22;stroke-linecap:round;stroke-opacity:1;paint-order:stroke fill markers"
               id="path3356"
               inkscape:flatsided="false"
               sodipodi:sides="5"
               sodipodi:cx="396.99625"
               sodipodi:cy="-372.60107"
               sodipodi:r1="3.6169088"
               sodipodi:r2="1.6637779"
               sodipodi:arg1="0.95906936"
               sodipodi:arg2="1.5873879"
               inkscape:rounded="0"
               inkscape:randomized="0"
               d="m 399.07337,-369.64006 -2.10473,-1.29747 -2.14661,1.22692 0.58356,-2.40265 -1.83021,-1.66242 2.46539,-0.18746 1.01548,-2.25435 0.94014,2.2868 2.45781,0.26915 -1.88435,1.60078 z"
               transform="matrix(1.0133273,0,0,1.0133273,-268.95197,974.58915)"
               inkscape:transform-center-x="1.0196929"
               inkscape:transform-center-y="-89.532179"
               inkscape:label="path5969" /></g><g
             id="g3362"
             transform="rotate(-82.5,-67.159164,125.65044)"
             inkscape:transform-center-x="88.637986"
             inkscape:transform-center-y="-11.777433"
             style="fill:#ffffff;fill-opacity:1"><path
               sodipodi:type="star"
               style="fill:#ffffff;fill-opacity:1;stroke:#ffffff;stroke-width:2.22;stroke-linecap:round;stroke-opacity:1;paint-order:stroke fill markers"
               id="path3360"
               inkscape:flatsided="false"
               sodipodi:sides="5"
               sodipodi:cx="396.99625"
               sodipodi:cy="-372.60107"
               sodipodi:r1="3.6169088"
               sodipodi:r2="1.6637779"
               sodipodi:arg1="0.95906936"
               sodipodi:arg2="1.5873879"
               inkscape:rounded="0"
               inkscape:randomized="0"
               d="m 399.07337,-369.64006 -2.10473,-1.29747 -2.14661,1.22692 0.58356,-2.40265 -1.83021,-1.66242 2.46539,-0.18746 1.01548,-2.25435 0.94014,2.2868 2.45781,0.26915 -1.88435,1.60078 z"
               transform="matrix(1.0133273,0,0,1.0133273,-268.95197,974.58915)"
               inkscape:transform-center-x="1.0196929"
               inkscape:transform-center-y="-89.532179"
               inkscape:label="path5969" /></g><g
             id="g3366"
             transform="rotate(-67.5,-189.41804,57.69381)"
             inkscape:transform-center-x="82.323501"
             inkscape:transform-center-y="-34.354012"
             style="fill:#ffffff;fill-opacity:1"><path
               sodipodi:type="star"
               style="fill:#ffffff;fill-opacity:1;stroke:#ffffff;stroke-width:2.22;stroke-linecap:round;stroke-opacity:1;paint-order:stroke fill markers"
               id="path3364"
               inkscape:flatsided="false"
               sodipodi:sides="5"
               sodipodi:cx="396.99625"
               sodipodi:cy="-372.60107"
               sodipodi:r1="3.6169088"
               sodipodi:r2="1.6637779"
               sodipodi:arg1="0.95906936"
               sodipodi:arg2="1.5873879"
               inkscape:rounded="0"
               inkscape:randomized="0"
               d="m 399.07337,-369.64006 -2.10473,-1.29747 -2.14661,1.22692 0.58356,-2.40265 -1.83021,-1.66242 2.46539,-0.18746 1.01548,-2.25435 0.94014,2.2868 2.45781,0.26915 -1.88435,1.60078 z"
               transform="matrix(1.0133273,0,0,1.0133273,-268.95197,974.58915)"
               inkscape:transform-center-x="1.0196929"
               inkscape:transform-center-y="-89.532179"
               inkscape:label="path5969" /></g><g
             id="g3370"
             transform="rotate(-52.5,-371.67655,-43.613143)"
             inkscape:transform-center-x="70.49092"
             inkscape:transform-center-y="-54.232028"
             style="fill:#ffffff;fill-opacity:1"><path
               sodipodi:type="star"
               style="fill:#ffffff;fill-opacity:1;stroke:#ffffff;stroke-width:2.22;stroke-linecap:round;stroke-opacity:1;paint-order:stroke fill markers"
               id="path3368"
               inkscape:flatsided="false"
               sodipodi:sides="5"
               sodipodi:cx="396.99625"
               sodipodi:cy="-372.60107"
               sodipodi:r1="3.6169088"
               sodipodi:r2="1.6637779"
               sodipodi:arg1="0.95906936"
               sodipodi:arg2="1.5873879"
               inkscape:rounded="0"
               inkscape:randomized="0"
               d="m 399.07337,-369.64006 -2.10473,-1.29747 -2.14661,1.22692 0.58356,-2.40265 -1.83021,-1.66242 2.46539,-0.18746 1.01548,-2.25435 0.94014,2.2868 2.45781,0.26915 -1.88435,1.60078 z"
               transform="matrix(1.0133273,0,0,1.0133273,-268.95197,974.58915)"
               inkscape:transform-center-x="1.0196929"
               inkscape:transform-center-y="-89.532179"
               inkscape:label="path5969" /></g><g
             id="g3374"
             transform="rotate(-37.5,-686.68891,-218.71027)"
             inkscape:transform-center-x="54.32259"
             inkscape:transform-center-y="-70.414223"
             style="fill:#ffffff;fill-opacity:1"><path
               sodipodi:type="star"
               style="fill:#ffffff;fill-opacity:1;stroke:#ffffff;stroke-width:2.22;stroke-linecap:round;stroke-opacity:1;paint-order:stroke fill markers"
               id="path3372"
               inkscape:flatsided="false"
               sodipodi:sides="5"
               sodipodi:cx="396.99625"
               sodipodi:cy="-372.60107"
               sodipodi:r1="3.6169088"
               sodipodi:r2="1.6637779"
               sodipodi:arg1="0.95906936"
               sodipodi:arg2="1.5873879"
               inkscape:rounded="0"
               inkscape:randomized="0"
               d="m 399.07337,-369.64006 -2.10473,-1.29747 -2.14661,1.22692 0.58356,-2.40265 -1.83021,-1.66242 2.46539,-0.18746 1.01548,-2.25435 0.94014,2.2868 2.45781,0.26915 -1.88435,1.60078 z"
               transform="matrix(1.0133273,0,0,1.0133273,-268.95197,974.58915)"
               inkscape:transform-center-x="1.0196929"
               inkscape:transform-center-y="-89.532179"
               inkscape:label="path5969" /></g><g
             id="g3378"
             transform="rotate(-22.5,-1400.8525,-615.67245)"
             inkscape:transform-center-x="34.452265"
             inkscape:transform-center-y="-82.335403"
             style="fill:#ffffff;fill-opacity:1"><path
               sodipodi:type="star"
               style="fill:#ffffff;fill-opacity:1;stroke:#ffffff;stroke-width:2.22;stroke-linecap:round;stroke-opacity:1;paint-order:stroke fill markers"
               id="path3376"
               inkscape:flatsided="false"
               sodipodi:sides="5"
               sodipodi:cx="396.99625"
               sodipodi:cy="-372.60107"
               sodipodi:r1="3.6169088"
               sodipodi:r2="1.6637779"
               sodipodi:arg1="0.95906936"
               sodipodi:arg2="1.5873879"
               inkscape:rounded="0"
               inkscape:randomized="0"
               d="m 399.07337,-369.64006 -2.10473,-1.29747 -2.14661,1.22692 0.58356,-2.40265 -1.83021,-1.66242 2.46539,-0.18746 1.01548,-2.25435 0.94014,2.2868 2.45781,0.26915 -1.88435,1.60078 z"
               transform="matrix(1.0133273,0,0,1.0133273,-268.95197,974.58915)"
               inkscape:transform-center-x="1.0196929"
               inkscape:transform-center-y="-89.532179"
               inkscape:label="path5969" /></g><g
             id="g3382"
             transform="rotate(-7.5000002,-4910.7816,-2566.6388)"
             inkscape:transform-center-x="11.806395"
             inkscape:transform-center-y="-88.666211"
             style="fill:#ffffff;fill-opacity:1"><path
               sodipodi:type="star"
               style="fill:#ffffff;fill-opacity:1;stroke:#ffffff;stroke-width:2.22;stroke-linecap:round;stroke-opacity:1;paint-order:stroke fill markers"
               id="path3380"
               inkscape:flatsided="false"
               sodipodi:sides="5"
               sodipodi:cx="396.99625"
               sodipodi:cy="-372.60107"
               sodipodi:r1="3.6169088"
               sodipodi:r2="1.6637779"
               sodipodi:arg1="0.95906936"
               sodipodi:arg2="1.5873879"
               inkscape:rounded="0"
               inkscape:randomized="0"
               d="m 399.07337,-369.64006 -2.10473,-1.29747 -2.14661,1.22692 0.58356,-2.40265 -1.83021,-1.66242 2.46539,-0.18746 1.01548,-2.25435 0.94014,2.2868 2.45781,0.26915 -1.88435,1.60078 z"
               transform="matrix(1.0133273,0,0,1.0133273,-268.95197,974.58915)"
               inkscape:transform-center-x="1.0196929"
               inkscape:transform-center-y="-89.532179"
               inkscape:label="path5969" /></g></g></g><g
         id="g3404"
         inkscape:label="Texts"
         transform="translate(71.479365,-306.33805)"><circle
           style="fill:none;fill-opacity:1;stroke:none;stroke-width:3.01836;stroke-linecap:round;stroke-opacity:1;paint-order:stroke fill markers"
           id="circle3388"
           cx="-1.4210855e-14"
           cy="-55.295727"
           transform="matrix(0,-1,-1,0,0,0)"
           r="76.490822"
           inkscape:label="Bottom-text-path" /><circle
           style="fill:none;fill-opacity:1;stroke:none;stroke-width:2.48601;stroke-linecap:round;stroke-opacity:1;paint-order:stroke fill markers"
           id="circle3390"
           cx="1.4210855e-14"
           cy="-55.295727"
           transform="rotate(90)"
           inkscape:label="Top-text-path"
           r="63" /><g
           aria-label="Cexplorer.io"
           id="text3398"
           style="font-size:16.8px;font-family:ROBOTO;-inkscape-font-specification:ROBOTO;text-align:center;letter-spacing:1.2px;text-anchor:middle;fill:#fefeff;stroke:#ffffff;stroke-width:0.744;stroke-linecap:round;paint-order:stroke fill markers"><path
             d="m 14.858755,-48.055292 q -1.276057,1.082623 -2.776689,1.355314 -1.499685,0.261129 -2.987961,-0.32652 -1.4873279,-0.599212 -2.7397738,-2.075435 -1.2630598,-1.488732 -1.6119449,-3.053813 -0.3426299,-1.570388 0.1646503,-3.001236 0.5135355,-1.436154 1.7895923,-2.518777 0.8194286,-0.695214 1.7269808,-1.045643 0.9075521,-0.350429 1.8275993,-0.356455 0.926303,-0.01133 1.806343,0.328555 0.880039,0.33989 1.656004,1.026262 l -1.945361,1.650469 q -0.431578,-0.343851 -0.889889,-0.503656 -0.463618,-0.16606 -0.92459,-0.151485 -0.466279,0.0083 -0.9183498,0.198225 -0.4511226,0.178342 -0.8702197,0.533909 -0.7944079,0.673986 -1.0336487,1.53318 -0.2329856,0.853886 0.061147,1.809201 0.2888255,0.94906 1.1007925,1.906103 0.80666,0.950787 1.6897276,1.395684 0.8893231,0.43959 1.7760141,0.343529 0.886692,-0.09606 1.6811,-0.770048 0.419097,-0.355567 0.673861,-0.765351 0.254765,-0.409783 0.338942,-0.868477 0.08418,-0.458693 0.0012,-0.936917 -0.083,-0.478223 -0.334126,-0.964414 l 1.939106,-1.645162 q 0.545472,0.871168 0.737441,1.794824 0.19197,0.923657 0.02987,1.835737 -0.162098,0.91208 -0.655706,1.750413 -0.49266,0.826771 -1.312089,1.521984 z"
             style="font-weight:bold;font-family:Inter;-inkscape-font-specification:Inter"
             id="path4864" /><path
             d="m 24.407684,-54.696185 q -1.103047,0.632425 -2.175545,0.575976 -1.065382,-0.06053 -1.984075,-0.706316 -0.922773,-0.652904 -1.571518,-1.784416 -0.656906,-1.145745 -0.732824,-2.284189 -0.07592,-1.138443 0.402965,-2.084367 0.474803,-0.95304 1.471103,-1.524262 0.782807,-0.448818 1.572259,-0.523215 0.796568,-0.07848 1.546835,0.191089 0.750267,0.269565 1.401285,0.860796 0.654055,0.580033 1.155915,1.455354 l 0.191767,0.334472 -6.177059,3.541579 -0.595704,-1.038998 5.500999,-3.153964 -0.311411,0.660789 q -0.440657,-0.768574 -1.04053,-1.171645 -0.596838,-0.414268 -1.270434,-0.434664 -0.677677,-0.02751 -1.353738,0.360104 -0.668944,0.383535 -0.987567,0.982269 -0.315587,0.587538 -0.266715,1.315978 0.05191,0.717244 0.492566,1.485818 l 0.293772,0.512383 q 0.444737,0.775691 1.050778,1.222505 0.613158,0.442733 1.321389,0.49055 0.70415,0.0407 1.437142,-0.379556 0.533732,-0.306012 0.845525,-0.702259 0.307712,-0.403363 0.399653,-0.853219 0.09906,-0.453936 -0.01149,-0.910622 l 1.209793,-0.693627 q 0.269767,0.800362 0.135605,1.605377 -0.138243,0.797899 -0.638857,1.49152 -0.493497,0.689542 -1.311886,1.15876 z"
             style="font-family:Inter;-inkscape-font-specification:Inter"
             id="path4866" /><path
             d="m 29.024949,-57.419381 1.614151,-5.923659 0.376633,1.006479 -4.912407,-3.239941 1.532131,-0.586708 1.70565,1.17392 q 0.511287,0.348818 1.007253,0.703503 0.493033,0.347025 0.999593,0.706438 l -0.643494,0.246417 q 0.144595,-0.608763 0.279735,-1.196338 0.139868,-0.59817 0.287397,-1.199272 l 0.500618,-2.018779 1.509149,-0.577907 -1.49956,5.695313 -0.387227,-1.011206 5.122496,3.352738 -1.524469,0.583774 -1.99104,-1.345722 q -0.497759,-0.33643 -0.977264,-0.671067 -0.479505,-0.334637 -0.972538,-0.681662 l 0.651156,-0.249351 q -0.135141,0.587575 -0.276149,1.159829 -0.141008,0.572254 -0.286743,1.155102 l -0.598262,2.337258 z"
             style="font-family:Inter;-inkscape-font-specification:Inter"
             id="path4868" /><path
             d="m 39.607891,-57.605288 -2.432547,-11.844188 1.333878,-0.273951 0.257447,1.253524 0.01607,-0.0033 q 0.175836,-0.530199 0.529315,-0.929396 0.353479,-0.399197 0.836389,-0.657489 0.48126,-0.266327 1.027668,-0.378548 1.108886,-0.227742 2.050404,0.15672 0.941518,0.384462 1.604173,1.286785 0.661006,0.894288 0.930005,2.204059 0.267349,1.301736 0.01397,2.392193 -0.255031,1.082423 -0.967157,1.814882 -0.713776,0.724425 -1.822662,0.952166 -0.546407,0.112221 -1.069573,0.05218 -0.521516,-0.052 -0.997333,-0.289255 -0.475818,-0.23725 -0.881832,-0.664699 l -0.01607,0.0033 0.953875,4.644465 z m 2.915536,-5.213053 q 0.739258,-0.151828 1.227473,-0.628942 0.488214,-0.477115 0.664404,-1.250243 0.176189,-0.773128 -0.0367,-1.809695 -0.214539,-1.044603 -0.681182,-1.685706 -0.466643,-0.641104 -1.103385,-0.887176 -0.636742,-0.246072 -1.375999,-0.09424 -0.78747,0.16173 -1.285155,0.674286 -0.497684,0.512557 -0.664188,1.29207 -0.166504,0.779513 0.03153,1.743762 0.196386,0.956213 0.656644,1.607002 0.460257,0.65079 1.119671,0.925703 0.659415,0.274913 1.446884,0.113183 z"
             style="font-family:Inter;-inkscape-font-specification:Inter"
             id="path4870" /><path
             d="m 49.868364,-75.032574 0.983695,12.183007 -1.390008,0.112234 -0.983695,-12.183007 z"
             style="font-family:Inter;-inkscape-font-specification:Inter"
             id="path4872" /><path
             d="m 57.684922,-62.75852 q -1.196813,-0.04493 -2.085176,-0.652908 -0.879858,-0.615865 -1.349932,-1.651417 -0.461876,-1.035245 -0.412327,-2.355018 0.04986,-1.327971 0.588364,-2.333866 0.546705,-1.005588 1.470265,-1.553747 0.931756,-0.547851 2.128569,-0.502918 1.20501,0.04524 2.084868,0.661105 0.879858,0.615865 1.341427,1.659307 0.469766,1.04375 0.419909,2.37172 -0.04955,1.319774 -0.595946,2.317164 -0.5382,0.997698 -1.461759,1.545857 -0.923252,0.539961 -2.128262,0.494721 z m 0.04739,-1.262392 q 0.819735,0.03078 1.416827,-0.349044 0.597092,-0.379819 0.935982,-1.097689 0.339197,-0.726066 0.37582,-1.701551 0.03724,-0.991879 -0.24687,-1.733138 -0.283802,-0.749456 -0.850425,-1.181174 -0.566624,-0.431719 -1.386359,-0.462494 -0.811538,-0.03047 -1.417135,0.357241 -0.597092,0.379819 -0.936289,1.105886 -0.339198,0.726067 -0.376436,1.717946 -0.03693,0.983682 0.247178,1.724941 0.284109,0.741259 0.851041,1.164779 0.566931,0.423521 1.386666,0.454297 z"
             style="font-family:Inter;-inkscape-font-specification:Inter"
             id="path4874" /><path
             d="m 64.50772,-62.351707 1.472099,-8.5365 1.309576,0.225834 -0.231409,1.341912 0.03234,0.0056 q 0.348741,-0.622445 0.927723,-0.938812 0.578981,-0.316366 1.379278,-0.178357 0.185928,0.03206 0.336732,0.07472 0.158888,0.04405 0.236938,0.07416 l -0.236986,1.374247 q -0.07666,-0.03819 -0.30551,-0.110954 -0.219376,-0.07945 -0.518477,-0.131031 -0.468861,-0.08085 -0.91069,0.06771 -0.441829,0.148561 -0.763804,0.567517 -0.321974,0.418956 -0.447437,1.146498 l -0.906121,5.254475 z"
             style="font-family:Inter;-inkscape-font-specification:Inter"
             id="path4876" /><path
             d="m 74.208055,-59.905665 q -1.213253,-0.380379 -1.900034,-1.206073 -0.678954,-0.82324 -0.828643,-1.936178 -0.147235,-1.120766 0.242959,-2.36533 0.395103,-1.260218 1.179334,-2.088951 0.78423,-0.828733 1.803832,-1.119444 1.022056,-0.298538 2.117898,0.04503 0.861019,0.269946 1.451672,0.799 0.59848,0.531509 0.910009,1.265345 0.311529,0.733836 0.319521,1.613219 0.01827,0.87401 -0.283575,1.836786 l -0.11534,0.367889 -6.794221,-2.130118 0.358292,-1.142807 6.050614,1.896984 -0.696561,0.220053 q 0.265038,-0.845364 0.153638,-1.55944 -0.101118,-0.719449 -0.543515,-1.227813 -0.439943,-0.516191 -1.18355,-0.749326 -0.73578,-0.230681 -1.391679,-0.05806 -0.645618,0.167251 -1.147213,0.697738 -0.491313,0.525114 -0.756351,1.370478 l -0.176691,0.563576 q -0.267492,0.853191 -0.184017,1.601497 0.0913,0.750759 0.537083,1.303168 0.448236,0.544582 1.254463,0.797349 0.587058,0.184054 1.089665,0.143904 0.505062,-0.04798 0.897748,-0.28593 0.400513,-0.235499 0.660725,-0.626743 l 1.330665,0.417189 q -0.404408,0.741491 -1.086499,1.189598 -0.679637,0.440281 -1.528769,0.543726 -0.841304,0.105899 -1.74146,-0.176316 z"
             style="font-family:Inter;-inkscape-font-specification:Inter"
             id="path4878" /><path
             d="m 80.477228,-57.777399 3.609932,-7.874471 1.208016,0.553797 -0.567471,1.237843 0.02983,0.01367 q 0.496566,-0.512329 1.137275,-0.669808 0.640708,-0.157479 1.37894,0.180953 0.171508,0.07862 0.306352,0.15849 0.142301,0.08328 0.210033,0.132383 l -0.581145,1.26767 q -0.06431,-0.05656 -0.266889,-0.185519 -0.1917,-0.133003 -0.467605,-0.259487 -0.432499,-0.198273 -0.897643,-0.167862 -0.465143,0.03041 -0.883704,0.352899 -0.418561,0.322487 -0.726226,0.993607 l -2.222023,4.846975 z"
             style="font-family:Inter;-inkscape-font-specification:Inter"
             id="path4880" /><path
             d="m 86.108686,-54.803396 q -0.371631,-0.209394 -0.491095,-0.615669 -0.10829,-0.409396 0.101104,-0.781026 0.213422,-0.378778 0.61567,-0.491095 0.409395,-0.108291 0.781026,0.101104 0.378777,0.213422 0.491095,0.61567 0.112317,0.402248 -0.101105,0.781026 -0.209394,0.371631 -0.615669,0.491095 -0.402249,0.112317 -0.781026,-0.101105 z"
             style="font-family:Inter;-inkscape-font-specification:Inter"
             id="path4882" /><path
             d="m 89.66592,-52.811898 4.811696,-7.203227 1.159611,0.774611 -4.811697,7.203226 z m 6.330147,-8.221096 q -0.327419,-0.218714 -0.404419,-0.605558 -0.077,-0.386844 0.141713,-0.714263 0.218714,-0.32742 0.605558,-0.40442 0.386844,-0.077 0.714263,0.141714 0.32742,0.218713 0.40442,0.605557 0.077,0.386844 -0.141714,0.714264 -0.218713,0.327419 -0.605557,0.404419 -0.386845,0.077 -0.714264,-0.141713 z"
             style="font-family:Inter;-inkscape-font-specification:Inter"
             id="path4884" /><path
             d="m 96.123878,-47.722538 q -0.909702,-0.778988 -1.227838,-1.807391 -0.306569,-1.029298 -0.03127,-2.132725 0.281525,-1.098091 1.140546,-2.101256 0.864356,-1.009396 1.911379,-1.462783 1.053253,-0.448052 2.117465,-0.303533 1.07044,0.149855 1.98015,0.928843 0.91593,0.784323 1.2225,1.813621 0.30657,1.029298 0.0197,2.13362 -0.28063,1.109658 -1.14499,2.119054 -0.85902,1.003165 -1.90694,1.444986 -1.041679,0.447156 -2.105894,0.302637 -1.058879,-0.15075 -1.974813,-0.935073 z m 0.821672,-0.959549 q 0.623084,0.533553 1.326915,0.607065 0.70383,0.07351 1.415465,-0.278283 0.71697,-0.358025 1.3519,-1.099495 0.6456,-0.753931 0.88369,-1.511226 0.24342,-0.763526 0.0678,-1.45389 -0.17561,-0.690365 -0.7987,-1.223918 -0.61685,-0.528218 -1.332246,-0.600835 -0.70383,-0.07351 -1.4208,0.284514 -0.71697,0.358025 -1.362569,1.111957 -0.640264,0.7477 -0.878355,1.504995 -0.23809,0.757295 -0.05714,1.441429 0.180949,0.684134 0.804032,1.217687 z"
             style="font-family:Inter;-inkscape-font-specification:Inter"
             id="path4886" /></g><g
           aria-label="10 000 blocks"
           id="text3402"
           style="font-size:16.8px;font-family:ROBOTO;-inkscape-font-specification:ROBOTO;text-align:center;letter-spacing:1.34783px;text-anchor:middle;fill:#fefeff;stroke:#ffffff;stroke-width:0.744;stroke-linecap:round;paint-order:stroke fill markers"><path
             d="M 11.678861,47.260507 3.0647484,55.931745 1.34214,54.220485 8.3201496,47.1962 8.3085106,47.18464 4.9881976,46.453146 6.5491442,44.881848 10.055187,45.647531 Z"
             style="font-weight:bold;font-family:Inter;-inkscape-font-specification:'Inter Bold'"
             id="path4889" /><path
             d="M 8.8681306,61.04186 Q 7.6478364,60.112349 7.2226197,58.829457 6.8088993,57.54501 7.1874787,56.059743 q 0.385105,-1.480296 1.5631479,-3.026872 1.1830135,-1.553101 2.5078104,-2.317625 1.331322,-0.759552 2.679524,-0.701925 1.348202,0.05763 2.575021,0.992108 1.220295,0.929511 1.634015,2.213958 0.425217,1.282892 0.03514,2.769714 -0.378579,1.485266 -1.561593,3.038368 -1.178043,1.546576 -2.509365,2.306129 -1.324797,0.764523 -2.679524,0.701925 -1.343231,-0.06415 -2.5635244,-0.993663 z m 1.2227784,-1.605307 q 0.632987,0.482152 1.402932,0.418982 0.769946,-0.06317 1.599485,-0.637785 0.82954,-0.574615 1.634784,-1.631768 0.810215,-1.063679 1.143807,-2.016063 0.333591,-0.952384 0.189947,-1.711444 -0.138673,-0.765586 -0.77166,-1.247739 -0.632987,-0.482152 -1.414429,-0.417427 -0.769945,0.06317 -1.599484,0.637785 -0.823014,0.579585 -1.63323,1.643264 -0.8052441,1.057154 -1.145361,2.004567 -0.3335912,0.952384 -0.1899472,1.711444 0.1501696,0.764031 0.7831562,1.246184 z"
             style="font-weight:bold;font-family:Inter;-inkscape-font-specification:'Inter Bold'"
             id="path4891" /><path
             d="m 23.660705,69.879238 q -1.397096,-0.633426 -2.098147,-1.788913 -0.690192,-1.15957 -0.652966,-2.691874 0.0447,-1.528916 0.847489,-3.299568 0.806179,-1.778122 1.926715,-2.819266 1.128008,-1.037757 2.455014,-1.282754 1.327006,-0.244998 2.731573,0.391816 1.397097,0.633427 2.087289,1.792997 0.701051,1.155486 0.652966,2.691874 -0.03723,1.532303 -0.843405,3.310426 -0.802792,1.770652 -1.930799,2.808408 -1.120537,1.041144 -2.455014,1.282754 -1.323618,0.237526 -2.720715,-0.3959 z m 0.833278,-1.837892 q 0.724697,0.328569 1.461074,0.095 0.736378,-0.233568 1.416595,-0.97897 0.680217,-0.745401 1.228961,-1.95572 0.552131,-1.21779 0.664544,-2.220627 0.112413,-1.002837 -0.197164,-1.710628 -0.30619,-0.715262 -1.030887,-1.043831 -0.724697,-0.328569 -1.471933,-0.09092 -0.736378,0.233568 -1.416595,0.97897 -0.672746,0.748789 -1.224877,1.966579 -0.548744,1.210319 -0.668628,2.209768 -0.112413,1.002837 0.197164,1.710628 0.317048,0.711179 1.041746,1.039747 z"
             style="font-weight:bold;font-family:Inter;-inkscape-font-specification:'Inter Bold'"
             id="path4893" /><path
             d="m 35.229603,74.035698 q -1.480804,-0.400409 -2.358619,-1.428058 -0.867755,-1.033426 -1.077532,-2.551759 -0.201859,-1.516191 0.305611,-3.392932 0.509611,-1.884659 1.44805,-3.092514 0.946358,-1.205714 2.216663,-1.66101 1.270305,-0.455297 2.759027,-0.05275 1.480805,0.400409 2.348559,1.433835 0.877815,1.027649 1.077533,2.551759 0.209777,1.518332 -0.299834,3.402992 -0.50747,1.876741 -1.453828,3.082455 -0.938439,1.207855 -2.216663,1.66101 -1.268163,0.447378 -2.748967,0.04697 z m 0.526741,-1.94801 q 0.768117,0.207699 1.457326,-0.141296 0.689209,-0.348995 1.240644,-1.194121 0.551435,-0.845126 0.898313,-2.127962 0.349019,-1.290754 0.29863,-2.298613 -0.05039,-1.007859 -0.469803,-1.656625 -0.417274,-0.656685 -1.185391,-0.864383 -0.768118,-0.207699 -1.467387,0.147074 -0.689208,0.348995 -1.240644,1.19412 -0.543516,0.847268 -0.892535,2.138022 -0.346878,1.282836 -0.304408,2.288553 0.05039,1.007859 0.469804,1.656625 0.427333,0.650908 1.195451,0.858606 z"
             style="font-weight:bold;font-family:Inter;-inkscape-font-specification:'Inter Bold'"
             id="path4895" /><path
             d="m 47.316184,76.27754 q -1.525833,-0.157924 -2.556991,-1.031615 -1.022153,-0.881006 -1.472542,-2.346096 -0.44223,-1.464246 -0.24208,-3.398056 0.200994,-1.94197 0.933737,-3.284605 0.740903,-1.341791 1.921825,-1.994778 1.180922,-0.652987 2.714915,-0.494218 1.525834,0.157924 2.547987,1.03893 1.031157,0.873691 1.472542,2.346096 0.45039,1.46509 0.249396,3.40706 -0.200151,1.93381 -0.941053,3.275601 -0.732744,1.342635 -1.921825,1.994778 -1.180077,0.644827 -2.705911,0.486903 z m 0.207751,-2.007246 q 0.791475,0.08192 1.415847,-0.373017 0.624372,-0.454935 1.033243,-1.377509 0.40887,-0.922574 0.545682,-2.244419 0.137656,-1.330005 -0.0736,-2.316762 -0.211254,-0.986758 -0.729217,-1.559925 -0.517118,-0.581326 -1.308594,-0.663244 -0.791475,-0.08192 -1.424851,0.380332 -0.624372,0.454935 -1.033243,1.377509 -0.400711,0.923419 -0.538367,2.253423 -0.136811,1.321845 0.06628,2.307758 0.211254,0.986758 0.729217,1.559925 0.526123,0.574011 1.317598,0.655929 z"
             style="font-weight:bold;font-family:Inter;-inkscape-font-specification:'Inter Bold'"
             id="path4897" /><path
             d="m 64.89523,76.080228 q -0.562343,0.06438 -1.069996,-0.04264 Q 63.31758,75.93057 62.896282,75.640276 62.4822,75.340899 62.17264,74.872678 l -0.0082,9.33e-4 0.151147,1.320283 -2.371618,0.271505 -1.39018,-12.143341 2.404219,-0.275236 0.541143,4.726937 0.0082,-9.33e-4 q 0.223915,-0.496266 0.564289,-0.84073 0.340374,-0.344464 0.796274,-0.545277 0.463116,-0.209895 1.017309,-0.27334 1.100235,-0.125955 1.996835,0.34937 0.903816,0.466243 1.484053,1.423649 0.587453,0.948322 0.739533,2.276755 0.153946,1.344732 -0.194905,2.4085 -0.348851,1.063768 -1.115762,1.721277 -0.766912,0.65751 -1.899747,0.787198 z m -0.843313,-1.885066 q 0.586792,-0.06718 0.976998,-0.409089 0.397423,-0.350996 0.569393,-0.940395 0.179186,-0.598483 0.08682,-1.405322 -0.09237,-0.80684 -0.401242,-1.341192 -0.300724,-0.535286 -0.767189,-0.787382 -0.458316,-0.25303 -1.045108,-0.185854 -0.603092,0.06904 -1.031249,0.44007 -0.42094,0.361944 -0.608276,0.96136 -0.180119,0.590333 -0.09148,1.364573 0.0877,0.76609 0.39751,1.308592 0.317957,0.541569 0.810738,0.807167 0.499998,0.256514 1.103091,0.187472 z"
             style="font-weight:bold;font-family:Inter;-inkscape-font-specification:'Inter Bold'"
             id="path4899" /><path
             d="M 70.850269,62.38787 73.570701,74.303934 71.21148,74.842542 68.491049,62.926479 Z"
             style="font-weight:bold;font-family:Inter;-inkscape-font-specification:'Inter Bold'"
             id="path4901" /><path
             d="m 80.414936,72.479132 q -1.232383,0.427108 -2.355583,0.217333 -1.123201,-0.209775 -1.983349,-0.988216 -0.852397,-0.781128 -1.295623,-2.060016 -0.445913,-1.286639 -0.259697,-2.427719 0.193965,-1.143767 0.946468,-2.003607 0.749816,-0.867591 1.982199,-1.2947 1.247885,-0.432481 2.366021,-0.212269 1.1232,0.209775 1.975597,0.990903 0.860148,0.778441 1.306061,2.06508 0.443226,1.278888 0.24926,2.422655 -0.186215,1.14108 -0.938718,2.00092 -0.744751,0.857154 -1.992636,1.289636 z M 79.77293,70.626681 q 0.55806,-0.193407 0.877215,-0.625244 0.316469,-0.439588 0.360959,-1.062733 0.04449,-0.623145 -0.216073,-1.374976 -0.265936,-0.767333 -0.686496,-1.229305 -0.420561,-0.461972 -0.938496,-0.603698 -0.520622,-0.149476 -1.078682,0.04393 -0.550309,0.190722 -0.866778,0.630309 -0.319155,0.431837 -0.363645,1.054982 -0.04449,0.623145 0.221446,1.390478 0.263249,0.759582 0.683809,1.221554 0.417875,0.454222 0.938496,0.603698 0.517935,0.141725 1.068245,-0.049 z"
             style="font-weight:bold;font-family:Inter;-inkscape-font-specification:'Inter Bold'"
             id="path4903" /><path
             d="m 90.584345,68.104132 q -1.151552,0.594801 -2.285903,0.543656 -1.130827,-0.0622 -2.085949,-0.713721 -0.951598,-0.662576 -1.565222,-1.850569 -0.617389,-1.195281 -0.603167,-2.347492 0.01775,-1.163263 0.621534,-2.121427 0.611076,-0.961929 1.762627,-1.55673 0.757984,-0.391514 1.516055,-0.496859 0.754308,-0.112633 1.438863,0.05082 0.691843,0.159683 1.265958,0.574064 0.570351,0.407093 0.971473,1.058553 l -2.077165,1.072901 q -0.198077,-0.276233 -0.446209,-0.45275 -0.240843,-0.18028 -0.520688,-0.257321 -0.279846,-0.07704 -0.591164,-0.03626 -0.30403,0.03701 -0.632003,0.206417 -0.539334,0.278578 -0.778796,0.762344 -0.243226,0.476477 -0.187303,1.103119 0.05945,0.615588 0.42461,1.322553 0.361398,0.699677 0.82899,1.10445 0.47488,0.401009 1.007978,0.485731 0.529333,0.07743 1.068667,-0.201145 0.327974,-0.169405 0.534125,-0.395913 0.206151,-0.226507 0.298009,-0.495541 0.09915,-0.272798 0.09153,-0.573545 -0.01138,-0.308035 -0.118476,-0.640495 l 2.091741,-1.08043 q 0.309899,0.689346 0.315527,1.397363 0.0092,0.696964 -0.257296,1.360859 -0.266448,0.663894 -0.798405,1.224878 -0.524669,0.557218 -1.28994,0.952498 z"
             style="font-weight:bold;font-family:Inter;-inkscape-font-specification:'Inter Bold'"
             id="path4905" /><path
             d="m 96.700641,61.358144 -1.648939,-2.330287 0.207583,-0.146889 0.563318,-4.458458 2.316894,-1.639463 -0.691438,5.825358 -0.455344,0.322206 z m -0.34744,3.300788 -7.060114,-9.97738 1.975387,-1.397807 7.060114,9.977379 z m 4.627089,-3.274188 -4.416168,-1.497662 0.334406,-2.296701 6.391962,2.159639 z"
             style="font-weight:bold;font-family:Inter;-inkscape-font-specification:'Inter Bold'"
             id="path4907" /><path
             d="m 107.65103,56.057933 q -0.82203,0.766331 -1.69898,1.112845 -0.88255,0.340514 -1.71405,0.218493 -0.83151,-0.122021 -1.52359,-0.744105 l 1.74005,-1.622161 q 0.43396,0.369263 0.95213,0.323588 0.51816,-0.04568 1.03417,-0.526731 0.49202,-0.45868 0.59463,-0.901994 0.1086,-0.448908 -0.16549,-0.742917 -0.23493,-0.252008 -0.59637,-0.206641 -0.35545,0.03977 -0.81258,0.331359 l -1.31141,0.81882 q -1.09184,0.681418 -2.00816,0.660897 -0.91632,-0.02052 -1.59874,-0.752545 -0.559369,-0.600018 -0.654884,-1.35209 -0.08951,-0.757665 0.281164,-1.563039 0.37668,-0.810967 1.2047,-1.582892 0.82203,-0.766331 1.68017,-1.072876 0.85255,-0.312545 1.64205,-0.151369 0.7955,0.155583 1.42881,0.798822 l -1.63805,1.527069 q -0.364,-0.378418 -0.89294,-0.356337 -0.52894,0.02208 -1.00296,0.463981 -0.45601,0.425118 -0.52943,0.863651 -0.079,0.432534 0.18389,0.714542 0.22934,0.246008 0.57878,0.211828 0.34944,-0.03418 0.78217,-0.291796 l 1.41819,-0.884725 q 1.13344,-0.70898 1.9806,-0.702491 0.84757,-0.0051 1.50203,0.696917 0.58733,0.630019 0.66922,1.439654 0.0823,0.79804 -0.3076,1.654976 -0.3895,0.845342 -1.21752,1.617267 z"
             style="font-weight:bold;font-family:Inter;-inkscape-font-specification:'Inter Bold'"
             id="path4910" /></g></g><g
         id="g3424"
         inkscape:label="middlebox"
         transform="translate(71.47935,-306.00592)"><g
           id="g3410"
           inkscape:label="boxbase"><path
             sodipodi:type="star"
             style="fill:#ffffff;fill-opacity:1;stroke:#ffffff;stroke-width:7.74927;stroke-linecap:butt;stroke-linejoin:round;stroke-dasharray:none;stroke-dashoffset:11.3999;stroke-opacity:1;paint-order:stroke markers fill"
             id="path3406"
             inkscape:flatsided="true"
             sodipodi:sides="6"
             sodipodi:cx="60.971188"
             sodipodi:cy="1662.2568"
             sodipodi:r1="209.38361"
             sodipodi:r2="169.3949"
             sodipodi:arg1="0.93197839"
             sodipodi:arg2="1.4555772"
             inkscape:rounded="0"
             inkscape:randomized="0"
             d="m 185.81551,1830.3502 -207.995309,24.0717 -124.844321,-168.0934 83.150982,-192.1651 207.995308,-24.0716 124.84433,168.0934 z"
             transform="matrix(-0.02402512,0.21608047,-0.21608047,-0.02402512,415.94182,26.76123)"
             inkscape:transform-center-x="-6.0949903"
             inkscape:transform-center-y="0.65854956"
             inkscape:label="path5295" /><path
             sodipodi:type="star"
             style="fill:#04344d;fill-opacity:1;stroke:#04344d;stroke-width:15.4985;stroke-linecap:square;stroke-linejoin:miter;stroke-dasharray:none;stroke-dashoffset:11.3999;stroke-opacity:1;paint-order:stroke markers fill"
             id="path3408"
             inkscape:flatsided="true"
             sodipodi:sides="6"
             sodipodi:cx="60.971188"
             sodipodi:cy="1662.2568"
             sodipodi:r1="209.38361"
             sodipodi:r2="169.3949"
             sodipodi:arg1="0.93197839"
             sodipodi:arg2="1.4555772"
             inkscape:rounded="0"
             inkscape:randomized="0"
             d="m 185.81551,1830.3502 -207.995309,24.0717 -124.844321,-168.0934 83.150982,-192.1651 207.995308,-24.0716 124.84433,168.0934 z"
             transform="matrix(-0.0208739,0.18782418,-0.18773877,-0.02088341,368.63847,23.261722)"
             inkscape:transform-center-x="-5.29561"
             inkscape:transform-center-y="0.5724448"
             inkscape:label="path4909" /></g><g
           id="g3422"
           inkscape:label="Boxfills"><path
             style="display:inline;fill:none;fill-opacity:1;stroke:#fffefe;stroke-width:0.829091;stroke-linecap:round;stroke-linejoin:round;stroke-dasharray:none;stroke-opacity:1;paint-order:stroke fill markers"
             d="M -3.6004704,2.4457647 1.6243234,5.4334834 6.8221031,2.4001554"
             id="path3412"
             inkscape:label="path10042"
             transform="matrix(6.0962598,0,0,6.0962598,45.475732,2.4629809)" /><path
             style="display:inline;fill:none;fill-opacity:1;stroke:#fffefe;stroke-width:0.829091;stroke-linecap:round;stroke-linejoin:round;stroke-dasharray:none;stroke-opacity:1;paint-order:stroke fill markers"
             d="M -3.6004704,1.0639467 1.6243234,4.0516654 6.8221031,1.0183374"
             id="path3414"
             inkscape:label="path10042"
             transform="matrix(6.0962598,0,0,6.0962598,45.475732,2.4629809)" /><path
             style="display:inline;fill:none;fill-opacity:1;stroke:#fffefe;stroke-width:0.829091;stroke-linecap:round;stroke-linejoin:round;stroke-dasharray:none;stroke-opacity:1;paint-order:stroke fill markers"
             d="M -3.6004704,-0.3178715 1.6243234,2.6698474 6.8221031,-0.3634808"
             id="path3416"
             inkscape:label="path10042"
             transform="matrix(6.0962598,0,0,6.0962598,45.475732,2.4629809)" /><g
             transform="matrix(1.9339678,1.235842,-2.4130706,1.4163754,51.205563,-28.374993)"
             id="g3444"
             inkscape:label="Logo">
<g
   id="g3471"
   inkscape:label="top-box"
   transform="translate(3.5528936,2.8474849)"><path
     style="display:inline;fill:#ffffff;fill-opacity:1;stroke:#fffefe;stroke-width:5.05542;stroke-linecap:square;stroke-linejoin:round;stroke-dasharray:none;stroke-opacity:1;paint-order:stroke fill markers"
     d="M 86.948736,-17.269832 55.436283,1.8906878 23.642748,-16.876449 55.040983,-35.542806 Z"
     id="path3420"
     inkscape:label="path10042"
     sodipodi:nodetypes="ccccc"
     transform="matrix(0.24755755,-0.21600348,0.42176237,0.33802361,-4.2617168,17.804514)" /><g
     id="g3442"
     transform="matrix(0.6933596,0,0,0.6933596,0.97298999,0.28937229)"
     inkscape:label="Logo"
     style="display:inline">
		<g
   transform="translate(0.91990781,-0.8)"
   id="g3428"
   inkscape:label="Circle">
<path
   style="opacity:1;fill:#e4003a;fill-opacity:1;fill-rule:nonzero;stroke:none;stroke-width:1;stroke-linecap:butt;stroke-linejoin:miter;stroke-miterlimit:4;stroke-dasharray:none;stroke-dashoffset:0"
   d="m 0,7.39996 a 7.6,7.6 0 1 1 7.6,-7.6 7.6,7.6 0 0 1 -7.6,7.6 z"
   stroke-linecap="round"
   id="path3426" />
</g>
		<g
   transform="translate(0.81,-1.08)"
   id="g3432"
   style="display:none"
   inkscape:label="undefined">
<path
   style="opacity:1;fill:#ffffff;fill-rule:nonzero;stroke:none;stroke-width:1;stroke-linecap:butt;stroke-linejoin:miter;stroke-miterlimit:4;stroke-dasharray:none;stroke-dashoffset:0"
   transform="translate(-10.81,-11.92)"
   d="m 8.46,13.2 h -0.8 c -0.3,0 -0.4,-0.1 -0.4,-0.4 a 0.43,0.43 0 0 1 0.4,-0.4 h 0.9 a 0.35,0.35 0 0 0 0.2,-0.1 1.42,1.42 0 0 0 0.2,-0.6 h -0.7 a 0.4,0.4 0 1 1 0,-0.8 h 0.8 c 0.1,0 0.2,0 0.2,-0.1 a 23.29,23.29 0 0 0 1.1,-2.8 0.1,0.1 0 0 1 0.1,-0.1 c 0.1,-0.2 0.2,-0.3 0.4,-0.3 0.2,0 0.3,0.1 0.4,0.3 0.2,0.6 0.4,1.1 0.6,1.7 0.2,0.4 0.3,0.8 0.5,1.2 0,0.1 0.1,0.1 0.2,0.1 h 0.8 a 0.37,0.37 0 0 1 0.4,0.4 0.43,0.43 0 0 1 -0.4,0.4 h -0.7 a 4.88,4.88 0 0 0 0.3,0.7 0.35,0.35 0 0 0 0.2,0.1 h 0.9 c 0.1,0 0.3,0.1 0.3,0.2 a 0.6,0.6 0 0 1 -0.1,0.4 0.37,0.37 0 0 1 -0.3,0.1 h -0.8 a 3.55,3.55 0 0 0 0.4,0.9 l 0.6,1.5 c 0.1,0.3 0.1,0.5 -0.2,0.6 -0.3,0.1 -0.4,0 -0.5,-0.3 -0.3,-0.9 -0.7,-1.7 -1,-2.6 -0.1,-0.2 -0.1,-0.2 -0.3,-0.2 h -2.9 c -0.2,0 -0.2,0 -0.3,0.2 a 18.61,18.61 0 0 1 -1,2.5 c -0.1,0.2 -0.2,0.3 -0.4,0.3 a 0.27,0.27 0 0 1 -0.3,-0.3 0.37,0.37 0 0 1 0.1,-0.3 c 0.3,-0.7 0.5,-1.4 0.8,-2.1 0.2,0 0.2,-0.1 0.3,-0.2 z m 1,-0.8 h 2.7 c -0.1,-0.2 -0.2,-0.5 -0.3,-0.7 a 0.35,0.35 0 0 0 -0.2,-0.1 h -1.8 c -0.1,0 -0.1,0 -0.2,0.1 a 1.45,1.45 0 0 1 -0.2,0.7 z m 2.2,-1.5 c -0.3,-0.7 -0.5,-1.3 -0.8,-2 -0.3,0.7 -0.5,1.3 -0.8,2 z"
   stroke-linecap="round"
   id="path3430" />
</g>
<path
   style="opacity:1;fill:#050001;fill-opacity:1;stroke:#ffffff;stroke-width:0.786824;stroke-linecap:round;stroke-miterlimit:3.7;stroke-dasharray:none;stroke-opacity:1;paint-order:stroke fill markers"
   d="M -2.3986007,2.7360851 0.88883187,-5.0028575"
   id="path3434"
   sodipodi:nodetypes="cc" /><path
   style="opacity:1;fill:#050001;fill-opacity:1;stroke:#ffffff;stroke-width:0.786824;stroke-linecap:round;stroke-miterlimit:3.7;stroke-dasharray:none;stroke-opacity:1"
   d="M 4.2651388,2.7342975 0.98031102,-5.0045294"
   id="path3436"
   sodipodi:nodetypes="cc" /><path
   style="opacity:1;fill:#050001;fill-opacity:1;stroke:#ffffff;stroke-width:0.786824;stroke-linecap:round;stroke-miterlimit:3.7;stroke-dasharray:none;stroke-opacity:1"
   d="m -1.664028,-1.6872983 5.178973,-0.015567"
   id="path3438" /><path
   style="fill:#050001;fill-opacity:1;stroke:#ffffff;stroke-width:0.786824;stroke-linecap:round;stroke-miterlimit:3.7;stroke-dasharray:none;stroke-opacity:1"
   d="m -2.3298842,-0.18348542 6.5097684,-0.0124693"
   id="path3440" /></g></g>
</g><path
             style="display:inline;fill:none;fill-opacity:1;stroke:#fffefe;stroke-width:5.05435;stroke-linecap:round;stroke-linejoin:round;stroke-dasharray:none;stroke-opacity:1;paint-order:stroke fill markers"
             d="M 23.526329,-7.8987689 55.378029,10.31514 87.065045,-8.176815"
             id="path5167"
             inkscape:label="path10042" /></g></g></g></g></svg>
