<?xml version="1.0" encoding="UTF-8" standalone="no"?>
<svg
   inkscape:version="1.2.2 (b0a84865, 2022-12-01)"
   xml:space="preserve"
   sodipodi:docname="final_awards_pre-text-to-path.svg"
   id="svg134"
   version="1.1"
   viewBox="-120 -120 300 300"
   height="250"
   width="250"
   inkscape:export-filename="0.svg"
   inkscape:export-xdpi="96"
   inkscape:export-ydpi="96"
   xmlns:inkscape="http://www.inkscape.org/namespaces/inkscape"
   xmlns:sodipodi="http://sodipodi.sourceforge.net/DTD/sodipodi-0.dtd"
   xmlns="http://www.w3.org/2000/svg"
   xmlns:svg="http://www.w3.org/2000/svg"><defs
     id="defs138" /><sodipodi:namedview
     id="namedview136"
     pagecolor="#ffffff"
     bordercolor="#000000"
     borderopacity="0.25"
     inkscape:showpageshadow="2"
     inkscape:pageopacity="0.0"
     inkscape:pagecheckerboard="0"
     inkscape:deskcolor="#d1d1d1"
     showgrid="false"
     inkscape:zoom="0.35355339"
     inkscape:cx="1480.6816"
     inkscape:cy="663.26616"
     inkscape:window-width="1425"
     inkscape:window-height="949"
     inkscape:window-x="0"
     inkscape:window-y="25"
     inkscape:window-maximized="1"
     inkscape:current-layer="g19337"
     showguides="true" /><style
     type="text/css"
     id="style8571">
	.st0{fill:#ffffff;}
</style><g
     id="g12580"
     inkscape:label="Delegators"
     transform="translate(-5554.0352,-1170.5449)"><g
       id="g19217"
       inkscape:label="40000 delegators"
       transform="matrix(1.4245145,0,0,1.4245145,6615.2529,1185.9224)"
       inkscape:export-filename="./g8306.svg"
       inkscape:export-xdpi="96"
       inkscape:export-ydpi="96"><g
         id="g19143"
         inkscape:label="border"
         style="fill:#112c50;fill-opacity:1"
         transform="translate(-1336.6973,-1105.5882)"><path
           fill="none"
           stroke="black"
           stroke-width="2"
           d="m 712.78911,1115.8531 q 9.47,10.78 -1.92,19.51 7.18,12.42 -5.69,18.76 4.62,13.58 -9.24,17.29 1.88,14.22 -12.44,15.15 -0.93,14.32 -15.15,12.44 -3.71,13.86 -17.29,9.24 -6.34,12.87 -18.76,5.69 -8.73,11.39 -19.51,1.92 -10.78,9.47 -19.51,-1.92 -12.42,7.18 -18.76,-5.69 -13.58,4.62 -17.29,-9.24 -14.22,1.88 -15.15,-12.44 -14.32,-0.93 -12.44,-15.15 -13.86,-3.71 -9.24,-17.29 -12.87,-6.34 -5.69,-18.76 -11.39,-8.73 -1.92,-19.51 -9.47,-10.78 1.92,-19.51 -7.18,-12.42 5.69,-18.76 -4.62,-13.58 9.24,-17.29 -1.88,-14.22 12.44,-15.15 0.93,-14.32 15.15,-12.44 3.71,-13.86 17.29,-9.24 6.34,-12.87 18.76,-5.69 8.73,-11.39 19.51,-1.92 10.78,-9.47 19.51,1.92 12.42,-7.18 18.76,5.69 13.58,-4.62 17.29,9.24 14.22,-1.88 15.15,12.44 14.32,0.93 12.44,15.15 13.86,3.71 9.24,17.29 12.87,6.34 5.69,18.76 11.39,8.73 1.92,19.51 z"
           id="path19043"
           style="fill:#04344d;fill-opacity:1;stroke:#04344d;stroke-opacity:1" /><g
           id="g19141"
           inkscape:label="Circles"
           transform="translate(97.989201,1115.8444)"
           style="fill:#112c50;fill-opacity:1"><g
             id="g19047"
             transform="rotate(7.5,5558.9497,3252.8791)"
             inkscape:transform-center-x="-11.777454"
             inkscape:transform-center-y="-88.637902"
             style="fill:#ffffff;fill-opacity:1"><path
               sodipodi:type="star"
               style="fill:#efa900;fill-opacity:1;stroke:#efa900;stroke-width:2.22;stroke-linecap:round;stroke-opacity:1;paint-order:stroke fill markers"
               id="path19045"
               inkscape:flatsided="false"
               sodipodi:sides="5"
               sodipodi:cx="396.99625"
               sodipodi:cy="-372.60107"
               sodipodi:r1="3.6169088"
               sodipodi:r2="1.6637779"
               sodipodi:arg1="0.95906936"
               sodipodi:arg2="1.5873879"
               inkscape:rounded="0"
               inkscape:randomized="0"
               d="m 399.07337,-369.64006 -2.10473,-1.29747 -2.14661,1.22692 0.58356,-2.40265 -1.83021,-1.66242 2.46539,-0.18746 1.01548,-2.25435 0.94014,2.2868 2.45781,0.26915 -1.88435,1.60078 z"
               transform="matrix(1.0133273,0,0,1.0133273,-268.95197,974.58915)"
               inkscape:transform-center-x="1.0196929"
               inkscape:transform-center-y="-89.532179"
               inkscape:label="path5969" /></g><g
             id="g19051"
             transform="rotate(22.5,2049.0208,1301.9125)"
             inkscape:transform-center-x="-34.354027"
             inkscape:transform-center-y="-82.323429"
             style="fill:#ffffff;fill-opacity:1"><path
               sodipodi:type="star"
               style="fill:#efa900;fill-opacity:1;stroke:#efa900;stroke-width:2.22;stroke-linecap:round;stroke-opacity:1;paint-order:stroke fill markers"
               id="path19049"
               inkscape:flatsided="false"
               sodipodi:sides="5"
               sodipodi:cx="396.99625"
               sodipodi:cy="-372.60107"
               sodipodi:r1="3.6169088"
               sodipodi:r2="1.6637779"
               sodipodi:arg1="0.95906936"
               sodipodi:arg2="1.5873879"
               inkscape:rounded="0"
               inkscape:randomized="0"
               d="m 399.07337,-369.64006 -2.10473,-1.29747 -2.14661,1.22692 0.58356,-2.40265 -1.83021,-1.66242 2.46539,-0.18746 1.01548,-2.25435 0.94014,2.2868 2.45781,0.26915 -1.88435,1.60078 z"
               transform="matrix(1.0133273,0,0,1.0133273,-268.95197,974.58915)"
               inkscape:transform-center-x="1.0196929"
               inkscape:transform-center-y="-89.532179"
               inkscape:label="path5969" /></g><g
             id="g19055"
             transform="rotate(37.5,1334.8573,904.95028)"
             inkscape:transform-center-x="-54.232035"
             inkscape:transform-center-y="-70.490863"
             style="fill:#ffffff;fill-opacity:1"><path
               sodipodi:type="star"
               style="fill:#efa900;fill-opacity:1;stroke:#efa900;stroke-width:2.22;stroke-linecap:round;stroke-opacity:1;paint-order:stroke fill markers"
               id="path19053"
               inkscape:flatsided="false"
               sodipodi:sides="5"
               sodipodi:cx="396.99625"
               sodipodi:cy="-372.60107"
               sodipodi:r1="3.6169088"
               sodipodi:r2="1.6637779"
               sodipodi:arg1="0.95906936"
               sodipodi:arg2="1.5873879"
               inkscape:rounded="0"
               inkscape:randomized="0"
               d="m 399.07337,-369.64006 -2.10473,-1.29747 -2.14661,1.22692 0.58356,-2.40265 -1.83021,-1.66242 2.46539,-0.18746 1.01548,-2.25435 0.94014,2.2868 2.45781,0.26915 -1.88435,1.60078 z"
               transform="matrix(1.0133273,0,0,1.0133273,-268.95197,974.58915)"
               inkscape:transform-center-x="1.0196929"
               inkscape:transform-center-y="-89.532179"
               inkscape:label="path5969" /></g><g
             id="g19059"
             transform="rotate(52.5,1019.845,729.85313)"
             inkscape:transform-center-x="-70.414229"
             inkscape:transform-center-y="-54.322566"
             style="fill:#ffffff;fill-opacity:1"><path
               sodipodi:type="star"
               style="fill:#efa900;fill-opacity:1;stroke:#efa900;stroke-width:2.22;stroke-linecap:round;stroke-opacity:1;paint-order:stroke fill markers"
               id="path19057"
               inkscape:flatsided="false"
               sodipodi:sides="5"
               sodipodi:cx="396.99625"
               sodipodi:cy="-372.60107"
               sodipodi:r1="3.6169088"
               sodipodi:r2="1.6637779"
               sodipodi:arg1="0.95906936"
               sodipodi:arg2="1.5873879"
               inkscape:rounded="0"
               inkscape:randomized="0"
               d="m 399.07337,-369.64006 -2.10473,-1.29747 -2.14661,1.22692 0.58356,-2.40265 -1.83021,-1.66242 2.46539,-0.18746 1.01548,-2.25435 0.94014,2.2868 2.45781,0.26915 -1.88435,1.60078 z"
               transform="matrix(1.0133273,0,0,1.0133273,-268.95197,974.58915)"
               inkscape:transform-center-x="1.0196929"
               inkscape:transform-center-y="-89.532179"
               inkscape:label="path5969" /></g><g
             id="g19063"
             transform="rotate(67.5,837.58649,628.54617)"
             inkscape:transform-center-x="-82.3354"
             inkscape:transform-center-y="-34.452242"
             style="fill:#ffffff;fill-opacity:1"><path
               sodipodi:type="star"
               style="fill:#efa900;fill-opacity:1;stroke:#efa900;stroke-width:2.22;stroke-linecap:round;stroke-opacity:1;paint-order:stroke fill markers"
               id="path19061"
               inkscape:flatsided="false"
               sodipodi:sides="5"
               sodipodi:cx="396.99625"
               sodipodi:cy="-372.60107"
               sodipodi:r1="3.6169088"
               sodipodi:r2="1.6637779"
               sodipodi:arg1="0.95906936"
               sodipodi:arg2="1.5873879"
               inkscape:rounded="0"
               inkscape:randomized="0"
               d="m 399.07337,-369.64006 -2.10473,-1.29747 -2.14661,1.22692 0.58356,-2.40265 -1.83021,-1.66242 2.46539,-0.18746 1.01548,-2.25435 0.94014,2.2868 2.45781,0.26915 -1.88435,1.60078 z"
               transform="matrix(1.0133273,0,0,1.0133273,-268.95197,974.58915)"
               inkscape:transform-center-x="1.0196929"
               inkscape:transform-center-y="-89.532179"
               inkscape:label="path5969" /></g><g
             id="g19067"
             transform="rotate(82.5,715.32761,560.58954)"
             inkscape:transform-center-x="-88.666206"
             inkscape:transform-center-y="-11.806367"
             style="fill:#ffffff;fill-opacity:1"><path
               sodipodi:type="star"
               style="fill:#efa900;fill-opacity:1;stroke:#efa900;stroke-width:2.22;stroke-linecap:round;stroke-opacity:1;paint-order:stroke fill markers"
               id="path19065"
               inkscape:flatsided="false"
               sodipodi:sides="5"
               sodipodi:cx="396.99625"
               sodipodi:cy="-372.60107"
               sodipodi:r1="3.6169088"
               sodipodi:r2="1.6637779"
               sodipodi:arg1="0.95906936"
               sodipodi:arg2="1.5873879"
               inkscape:rounded="0"
               inkscape:randomized="0"
               d="m 399.07337,-369.64006 -2.10473,-1.29747 -2.14661,1.22692 0.58356,-2.40265 -1.83021,-1.66242 2.46539,-0.18746 1.01548,-2.25435 0.94014,2.2868 2.45781,0.26915 -1.88435,1.60078 z"
               transform="matrix(1.0133273,0,0,1.0133273,-268.95197,974.58915)"
               inkscape:transform-center-x="1.0196929"
               inkscape:transform-center-y="-89.532179"
               inkscape:label="path5969" /></g><g
             id="g19071"
             transform="rotate(97.5,624.98471,510.37315)"
             inkscape:transform-center-x="-88.637973"
             inkscape:transform-center-y="11.777454"
             style="fill:#ffffff;fill-opacity:1"><path
               sodipodi:type="star"
               style="fill:#efa900;fill-opacity:1;stroke:#efa900;stroke-width:2.22;stroke-linecap:round;stroke-opacity:1;paint-order:stroke fill markers"
               id="path19069"
               inkscape:flatsided="false"
               sodipodi:sides="5"
               sodipodi:cx="396.99625"
               sodipodi:cy="-372.60107"
               sodipodi:r1="3.6169088"
               sodipodi:r2="1.6637779"
               sodipodi:arg1="0.95906936"
               sodipodi:arg2="1.5873879"
               inkscape:rounded="0"
               inkscape:randomized="0"
               d="m 399.07337,-369.64006 -2.10473,-1.29747 -2.14661,1.22692 0.58356,-2.40265 -1.83021,-1.66242 2.46539,-0.18746 1.01548,-2.25435 0.94014,2.2868 2.45781,0.26915 -1.88435,1.60078 z"
               transform="matrix(1.0133273,0,0,1.0133273,-268.95197,974.58915)"
               inkscape:transform-center-x="1.0196929"
               inkscape:transform-center-y="-89.532179"
               inkscape:label="path5969" /></g><g
             id="g19075"
             transform="rotate(112.5,553.34383,470.55213)"
             inkscape:transform-center-x="-82.323487"
             inkscape:transform-center-y="34.35403"
             style="fill:#ffffff;fill-opacity:1"><path
               sodipodi:type="star"
               style="fill:#efa900;fill-opacity:1;stroke:#efa900;stroke-width:2.22;stroke-linecap:round;stroke-opacity:1;paint-order:stroke fill markers"
               id="path19073"
               inkscape:flatsided="false"
               sodipodi:sides="5"
               sodipodi:cx="396.99625"
               sodipodi:cy="-372.60107"
               sodipodi:r1="3.6169088"
               sodipodi:r2="1.6637779"
               sodipodi:arg1="0.95906936"
               sodipodi:arg2="1.5873879"
               inkscape:rounded="0"
               inkscape:randomized="0"
               d="m 399.07337,-369.64006 -2.10473,-1.29747 -2.14661,1.22692 0.58356,-2.40265 -1.83021,-1.66242 2.46539,-0.18746 1.01548,-2.25435 0.94014,2.2868 2.45781,0.26915 -1.88435,1.60078 z"
               transform="matrix(1.0133273,0,0,1.0133273,-268.95197,974.58915)"
               inkscape:transform-center-x="1.0196929"
               inkscape:transform-center-y="-89.532179"
               inkscape:label="path5969" /></g><g
             id="g19079"
             transform="rotate(127.5,493.28797,437.17055)"
             inkscape:transform-center-x="-70.490908"
             inkscape:transform-center-y="54.23204"
             style="fill:#ffffff;fill-opacity:1"><path
               sodipodi:type="star"
               style="fill:#efa900;fill-opacity:1;stroke:#efa900;stroke-width:2.22;stroke-linecap:round;stroke-opacity:1;paint-order:stroke fill markers"
               id="path19077"
               inkscape:flatsided="false"
               sodipodi:sides="5"
               sodipodi:cx="396.99625"
               sodipodi:cy="-372.60107"
               sodipodi:r1="3.6169088"
               sodipodi:r2="1.6637779"
               sodipodi:arg1="0.95906936"
               sodipodi:arg2="1.5873879"
               inkscape:rounded="0"
               inkscape:randomized="0"
               d="m 399.07337,-369.64006 -2.10473,-1.29747 -2.14661,1.22692 0.58356,-2.40265 -1.83021,-1.66242 2.46539,-0.18746 1.01548,-2.25435 0.94014,2.2868 2.45781,0.26915 -1.88435,1.60078 z"
               transform="matrix(1.0133273,0,0,1.0133273,-268.95197,974.58915)"
               inkscape:transform-center-x="1.0196929"
               inkscape:transform-center-y="-89.532179"
               inkscape:label="path5969" /></g><g
             id="g19083"
             transform="rotate(142.5,440.5548,407.85923)"
             inkscape:transform-center-x="-54.322569"
             inkscape:transform-center-y="70.414225"
             style="fill:#ffffff;fill-opacity:1"><path
               sodipodi:type="star"
               style="fill:#efa900;fill-opacity:1;stroke:#efa900;stroke-width:2.22;stroke-linecap:round;stroke-opacity:1;paint-order:stroke fill markers"
               id="path19081"
               inkscape:flatsided="false"
               sodipodi:sides="5"
               sodipodi:cx="396.99625"
               sodipodi:cy="-372.60107"
               sodipodi:r1="3.6169088"
               sodipodi:r2="1.6637779"
               sodipodi:arg1="0.95906936"
               sodipodi:arg2="1.5873879"
               inkscape:rounded="0"
               inkscape:randomized="0"
               d="m 399.07337,-369.64006 -2.10473,-1.29747 -2.14661,1.22692 0.58356,-2.40265 -1.83021,-1.66242 2.46539,-0.18746 1.01548,-2.25435 0.94014,2.2868 2.45781,0.26915 -1.88435,1.60078 z"
               transform="matrix(1.0133273,0,0,1.0133273,-268.95197,974.58915)"
               inkscape:transform-center-x="1.0196929"
               inkscape:transform-center-y="-89.532179"
               inkscape:label="path5969" /></g><g
             id="g19087"
             transform="rotate(157.5,392.3333,381.05569)"
             inkscape:transform-center-x="-34.452251"
             inkscape:transform-center-y="82.335402"
             style="fill:#ffffff;fill-opacity:1"><path
               sodipodi:type="star"
               style="fill:#efa900;fill-opacity:1;stroke:#efa900;stroke-width:2.22;stroke-linecap:round;stroke-opacity:1;paint-order:stroke fill markers"
               id="path19085"
               inkscape:flatsided="false"
               sodipodi:sides="5"
               sodipodi:cx="396.99625"
               sodipodi:cy="-372.60107"
               sodipodi:r1="3.6169088"
               sodipodi:r2="1.6637779"
               sodipodi:arg1="0.95906936"
               sodipodi:arg2="1.5873879"
               inkscape:rounded="0"
               inkscape:randomized="0"
               d="m 399.07337,-369.64006 -2.10473,-1.29747 -2.14661,1.22692 0.58356,-2.40265 -1.83021,-1.66242 2.46539,-0.18746 1.01548,-2.25435 0.94014,2.2868 2.45781,0.26915 -1.88435,1.60078 z"
               transform="matrix(1.0133273,0,0,1.0133273,-268.95197,974.58915)"
               inkscape:transform-center-x="1.0196929"
               inkscape:transform-center-y="-89.532179"
               inkscape:label="path5969" /></g><g
             id="g19091"
             transform="rotate(172.5,346.57293,355.62015)"
             inkscape:transform-center-x="-11.806385"
             inkscape:transform-center-y="88.666214"
             style="fill:#ffffff;fill-opacity:1"><path
               sodipodi:type="star"
               style="fill:#efa900;fill-opacity:1;stroke:#efa900;stroke-width:2.22;stroke-linecap:round;stroke-opacity:1;paint-order:stroke fill markers"
               id="path19089"
               inkscape:flatsided="false"
               sodipodi:sides="5"
               sodipodi:cx="396.99625"
               sodipodi:cy="-372.60107"
               sodipodi:r1="3.6169088"
               sodipodi:r2="1.6637779"
               sodipodi:arg1="0.95906936"
               sodipodi:arg2="1.5873879"
               inkscape:rounded="0"
               inkscape:randomized="0"
               d="m 399.07337,-369.64006 -2.10473,-1.29747 -2.14661,1.22692 0.58356,-2.40265 -1.83021,-1.66242 2.46539,-0.18746 1.01548,-2.25435 0.94014,2.2868 2.45781,0.26915 -1.88435,1.60078 z"
               transform="matrix(1.0133273,0,0,1.0133273,-268.95197,974.58915)"
               inkscape:transform-center-x="1.0196929"
               inkscape:transform-center-y="-89.532179"
               inkscape:label="path5969" /></g><g
             id="g19095"
             transform="rotate(-172.5,301.59553,330.61982)"
             inkscape:transform-center-x="11.777442"
             inkscape:transform-center-y="88.637982"
             style="fill:#ffffff;fill-opacity:1"><path
               sodipodi:type="star"
               style="fill:#efa900;fill-opacity:1;stroke:#efa900;stroke-width:2.22;stroke-linecap:round;stroke-opacity:1;paint-order:stroke fill markers"
               id="path19093"
               inkscape:flatsided="false"
               sodipodi:sides="5"
               sodipodi:cx="396.99625"
               sodipodi:cy="-372.60107"
               sodipodi:r1="3.6169088"
               sodipodi:r2="1.6637779"
               sodipodi:arg1="0.95906936"
               sodipodi:arg2="1.5873879"
               inkscape:rounded="0"
               inkscape:randomized="0"
               d="m 399.07337,-369.64006 -2.10473,-1.29747 -2.14661,1.22692 0.58356,-2.40265 -1.83021,-1.66242 2.46539,-0.18746 1.01548,-2.25435 0.94014,2.2868 2.45781,0.26915 -1.88435,1.60078 z"
               transform="matrix(1.0133273,0,0,1.0133273,-268.95197,974.58915)"
               inkscape:transform-center-x="1.0196929"
               inkscape:transform-center-y="-89.532179"
               inkscape:label="path5969" /></g><g
             id="g19099"
             transform="rotate(-157.5,255.83516,305.18428)"
             inkscape:transform-center-x="34.354019"
             inkscape:transform-center-y="82.323499"
             style="fill:#ffffff;fill-opacity:1"><path
               sodipodi:type="star"
               style="fill:#efa900;fill-opacity:1;stroke:#efa900;stroke-width:2.22;stroke-linecap:round;stroke-opacity:1;paint-order:stroke fill markers"
               id="path19097"
               inkscape:flatsided="false"
               sodipodi:sides="5"
               sodipodi:cx="396.99625"
               sodipodi:cy="-372.60107"
               sodipodi:r1="3.6169088"
               sodipodi:r2="1.6637779"
               sodipodi:arg1="0.95906936"
               sodipodi:arg2="1.5873879"
               inkscape:rounded="0"
               inkscape:randomized="0"
               d="m 399.07337,-369.64006 -2.10473,-1.29747 -2.14661,1.22692 0.58356,-2.40265 -1.83021,-1.66242 2.46539,-0.18746 1.01548,-2.25435 0.94014,2.2868 2.45781,0.26915 -1.88435,1.60078 z"
               transform="matrix(1.0133273,0,0,1.0133273,-268.95197,974.58915)"
               inkscape:transform-center-x="1.0196929"
               inkscape:transform-center-y="-89.532179"
               inkscape:label="path5969" /></g><g
             id="g19103"
             transform="rotate(-142.5,207.61366,278.38074)"
             inkscape:transform-center-x="54.232031"
             inkscape:transform-center-y="70.490924"
             style="fill:#ffffff;fill-opacity:1"><path
               sodipodi:type="star"
               style="fill:#efa900;fill-opacity:1;stroke:#efa900;stroke-width:2.22;stroke-linecap:round;stroke-opacity:1;paint-order:stroke fill markers"
               id="path19101"
               inkscape:flatsided="false"
               sodipodi:sides="5"
               sodipodi:cx="396.99625"
               sodipodi:cy="-372.60107"
               sodipodi:r1="3.6169088"
               sodipodi:r2="1.6637779"
               sodipodi:arg1="0.95906936"
               sodipodi:arg2="1.5873879"
               inkscape:rounded="0"
               inkscape:randomized="0"
               d="m 399.07337,-369.64006 -2.10473,-1.29747 -2.14661,1.22692 0.58356,-2.40265 -1.83021,-1.66242 2.46539,-0.18746 1.01548,-2.25435 0.94014,2.2868 2.45781,0.26915 -1.88435,1.60078 z"
               transform="matrix(1.0133273,0,0,1.0133273,-268.95197,974.58915)"
               inkscape:transform-center-x="1.0196929"
               inkscape:transform-center-y="-89.532179"
               inkscape:label="path5969" /></g><g
             id="g19107"
             transform="rotate(-127.5,154.88049,249.06943)"
             inkscape:transform-center-x="70.414233"
             inkscape:transform-center-y="54.322599"
             style="fill:#ffffff;fill-opacity:1"><path
               sodipodi:type="star"
               style="fill:#efa900;fill-opacity:1;stroke:#efa900;stroke-width:2.22;stroke-linecap:round;stroke-opacity:1;paint-order:stroke fill markers"
               id="path19105"
               inkscape:flatsided="false"
               sodipodi:sides="5"
               sodipodi:cx="396.99625"
               sodipodi:cy="-372.60107"
               sodipodi:r1="3.6169088"
               sodipodi:r2="1.6637779"
               sodipodi:arg1="0.95906936"
               sodipodi:arg2="1.5873879"
               inkscape:rounded="0"
               inkscape:randomized="0"
               d="m 399.07337,-369.64006 -2.10473,-1.29747 -2.14661,1.22692 0.58356,-2.40265 -1.83021,-1.66242 2.46539,-0.18746 1.01548,-2.25435 0.94014,2.2868 2.45781,0.26915 -1.88435,1.60078 z"
               transform="matrix(1.0133273,0,0,1.0133273,-268.95197,974.58915)"
               inkscape:transform-center-x="1.0196929"
               inkscape:transform-center-y="-89.532179"
               inkscape:label="path5969" /></g><g
             id="g19111"
             transform="rotate(-112.5,94.824625,215.68785)"
             inkscape:transform-center-x="82.33541"
             inkscape:transform-center-y="34.452266"
             style="fill:#ffffff;fill-opacity:1"><path
               sodipodi:type="star"
               style="fill:#efa900;fill-opacity:1;stroke:#efa900;stroke-width:2.22;stroke-linecap:round;stroke-opacity:1;paint-order:stroke fill markers"
               id="path19109"
               inkscape:flatsided="false"
               sodipodi:sides="5"
               sodipodi:cx="396.99625"
               sodipodi:cy="-372.60107"
               sodipodi:r1="3.6169088"
               sodipodi:r2="1.6637779"
               sodipodi:arg1="0.95906936"
               sodipodi:arg2="1.5873879"
               inkscape:rounded="0"
               inkscape:randomized="0"
               d="m 399.07337,-369.64006 -2.10473,-1.29747 -2.14661,1.22692 0.58356,-2.40265 -1.83021,-1.66242 2.46539,-0.18746 1.01548,-2.25435 0.94014,2.2868 2.45781,0.26915 -1.88435,1.60078 z"
               transform="matrix(1.0133273,0,0,1.0133273,-268.95197,974.58915)"
               inkscape:transform-center-x="1.0196929"
               inkscape:transform-center-y="-89.532179"
               inkscape:label="path5969" /></g><g
             id="g19115"
             transform="rotate(-97.5,23.183742,175.86683)"
             inkscape:transform-center-x="88.66622"
             inkscape:transform-center-y="11.806393"
             style="fill:#ffffff;fill-opacity:1"><path
               sodipodi:type="star"
               style="fill:#efa900;fill-opacity:1;stroke:#efa900;stroke-width:2.22;stroke-linecap:round;stroke-opacity:1;paint-order:stroke fill markers"
               id="path19113"
               inkscape:flatsided="false"
               sodipodi:sides="5"
               sodipodi:cx="396.99625"
               sodipodi:cy="-372.60107"
               sodipodi:r1="3.6169088"
               sodipodi:r2="1.6637779"
               sodipodi:arg1="0.95906936"
               sodipodi:arg2="1.5873879"
               inkscape:rounded="0"
               inkscape:randomized="0"
               d="m 399.07337,-369.64006 -2.10473,-1.29747 -2.14661,1.22692 0.58356,-2.40265 -1.83021,-1.66242 2.46539,-0.18746 1.01548,-2.25435 0.94014,2.2868 2.45781,0.26915 -1.88435,1.60078 z"
               transform="matrix(1.0133273,0,0,1.0133273,-268.95197,974.58915)"
               inkscape:transform-center-x="1.0196929"
               inkscape:transform-center-y="-89.532179"
               inkscape:label="path5969" /></g><g
             id="g19119"
             transform="rotate(-82.5,-67.159164,125.65044)"
             inkscape:transform-center-x="88.637986"
             inkscape:transform-center-y="-11.777433"
             style="fill:#ffffff;fill-opacity:1"><path
               sodipodi:type="star"
               style="fill:#efa900;fill-opacity:1;stroke:#efa900;stroke-width:2.22;stroke-linecap:round;stroke-opacity:1;paint-order:stroke fill markers"
               id="path19117"
               inkscape:flatsided="false"
               sodipodi:sides="5"
               sodipodi:cx="396.99625"
               sodipodi:cy="-372.60107"
               sodipodi:r1="3.6169088"
               sodipodi:r2="1.6637779"
               sodipodi:arg1="0.95906936"
               sodipodi:arg2="1.5873879"
               inkscape:rounded="0"
               inkscape:randomized="0"
               d="m 399.07337,-369.64006 -2.10473,-1.29747 -2.14661,1.22692 0.58356,-2.40265 -1.83021,-1.66242 2.46539,-0.18746 1.01548,-2.25435 0.94014,2.2868 2.45781,0.26915 -1.88435,1.60078 z"
               transform="matrix(1.0133273,0,0,1.0133273,-268.95197,974.58915)"
               inkscape:transform-center-x="1.0196929"
               inkscape:transform-center-y="-89.532179"
               inkscape:label="path5969" /></g><g
             id="g19123"
             transform="rotate(-67.5,-189.41804,57.69381)"
             inkscape:transform-center-x="82.323501"
             inkscape:transform-center-y="-34.354012"
             style="fill:#ffffff;fill-opacity:1"><path
               sodipodi:type="star"
               style="fill:#efa900;fill-opacity:1;stroke:#efa900;stroke-width:2.22;stroke-linecap:round;stroke-opacity:1;paint-order:stroke fill markers"
               id="path19121"
               inkscape:flatsided="false"
               sodipodi:sides="5"
               sodipodi:cx="396.99625"
               sodipodi:cy="-372.60107"
               sodipodi:r1="3.6169088"
               sodipodi:r2="1.6637779"
               sodipodi:arg1="0.95906936"
               sodipodi:arg2="1.5873879"
               inkscape:rounded="0"
               inkscape:randomized="0"
               d="m 399.07337,-369.64006 -2.10473,-1.29747 -2.14661,1.22692 0.58356,-2.40265 -1.83021,-1.66242 2.46539,-0.18746 1.01548,-2.25435 0.94014,2.2868 2.45781,0.26915 -1.88435,1.60078 z"
               transform="matrix(1.0133273,0,0,1.0133273,-268.95197,974.58915)"
               inkscape:transform-center-x="1.0196929"
               inkscape:transform-center-y="-89.532179"
               inkscape:label="path5969" /></g><g
             id="g19127"
             transform="rotate(-52.5,-371.67655,-43.613143)"
             inkscape:transform-center-x="70.49092"
             inkscape:transform-center-y="-54.232028"
             style="fill:#ffffff;fill-opacity:1"><path
               sodipodi:type="star"
               style="fill:#efa900;fill-opacity:1;stroke:#efa900;stroke-width:2.22;stroke-linecap:round;stroke-opacity:1;paint-order:stroke fill markers"
               id="path19125"
               inkscape:flatsided="false"
               sodipodi:sides="5"
               sodipodi:cx="396.99625"
               sodipodi:cy="-372.60107"
               sodipodi:r1="3.6169088"
               sodipodi:r2="1.6637779"
               sodipodi:arg1="0.95906936"
               sodipodi:arg2="1.5873879"
               inkscape:rounded="0"
               inkscape:randomized="0"
               d="m 399.07337,-369.64006 -2.10473,-1.29747 -2.14661,1.22692 0.58356,-2.40265 -1.83021,-1.66242 2.46539,-0.18746 1.01548,-2.25435 0.94014,2.2868 2.45781,0.26915 -1.88435,1.60078 z"
               transform="matrix(1.0133273,0,0,1.0133273,-268.95197,974.58915)"
               inkscape:transform-center-x="1.0196929"
               inkscape:transform-center-y="-89.532179"
               inkscape:label="path5969" /></g><g
             id="g19131"
             transform="rotate(-37.5,-686.68891,-218.71027)"
             inkscape:transform-center-x="54.32259"
             inkscape:transform-center-y="-70.414223"
             style="fill:#ffffff;fill-opacity:1"><path
               sodipodi:type="star"
               style="fill:#efa900;fill-opacity:1;stroke:#efa900;stroke-width:2.22;stroke-linecap:round;stroke-opacity:1;paint-order:stroke fill markers"
               id="path19129"
               inkscape:flatsided="false"
               sodipodi:sides="5"
               sodipodi:cx="396.99625"
               sodipodi:cy="-372.60107"
               sodipodi:r1="3.6169088"
               sodipodi:r2="1.6637779"
               sodipodi:arg1="0.95906936"
               sodipodi:arg2="1.5873879"
               inkscape:rounded="0"
               inkscape:randomized="0"
               d="m 399.07337,-369.64006 -2.10473,-1.29747 -2.14661,1.22692 0.58356,-2.40265 -1.83021,-1.66242 2.46539,-0.18746 1.01548,-2.25435 0.94014,2.2868 2.45781,0.26915 -1.88435,1.60078 z"
               transform="matrix(1.0133273,0,0,1.0133273,-268.95197,974.58915)"
               inkscape:transform-center-x="1.0196929"
               inkscape:transform-center-y="-89.532179"
               inkscape:label="path5969" /></g><g
             id="g19135"
             transform="rotate(-22.5,-1400.8525,-615.67245)"
             inkscape:transform-center-x="34.452265"
             inkscape:transform-center-y="-82.335403"
             style="fill:#ffffff;fill-opacity:1"><path
               sodipodi:type="star"
               style="fill:#efa900;fill-opacity:1;stroke:#efa900;stroke-width:2.22;stroke-linecap:round;stroke-opacity:1;paint-order:stroke fill markers"
               id="path19133"
               inkscape:flatsided="false"
               sodipodi:sides="5"
               sodipodi:cx="396.99625"
               sodipodi:cy="-372.60107"
               sodipodi:r1="3.6169088"
               sodipodi:r2="1.6637779"
               sodipodi:arg1="0.95906936"
               sodipodi:arg2="1.5873879"
               inkscape:rounded="0"
               inkscape:randomized="0"
               d="m 399.07337,-369.64006 -2.10473,-1.29747 -2.14661,1.22692 0.58356,-2.40265 -1.83021,-1.66242 2.46539,-0.18746 1.01548,-2.25435 0.94014,2.2868 2.45781,0.26915 -1.88435,1.60078 z"
               transform="matrix(1.0133273,0,0,1.0133273,-268.95197,974.58915)"
               inkscape:transform-center-x="1.0196929"
               inkscape:transform-center-y="-89.532179"
               inkscape:label="path5969" /></g><g
             id="g19139"
             transform="rotate(-7.5000002,-4910.7816,-2566.6388)"
             inkscape:transform-center-x="11.806395"
             inkscape:transform-center-y="-88.666211"
             style="fill:#ffffff;fill-opacity:1"><path
               sodipodi:type="star"
               style="fill:#efa900;fill-opacity:1;stroke:#efa900;stroke-width:2.22;stroke-linecap:round;stroke-opacity:1;paint-order:stroke fill markers"
               id="path19137"
               inkscape:flatsided="false"
               sodipodi:sides="5"
               sodipodi:cx="396.99625"
               sodipodi:cy="-372.60107"
               sodipodi:r1="3.6169088"
               sodipodi:r2="1.6637779"
               sodipodi:arg1="0.95906936"
               sodipodi:arg2="1.5873879"
               inkscape:rounded="0"
               inkscape:randomized="0"
               d="m 399.07337,-369.64006 -2.10473,-1.29747 -2.14661,1.22692 0.58356,-2.40265 -1.83021,-1.66242 2.46539,-0.18746 1.01548,-2.25435 0.94014,2.2868 2.45781,0.26915 -1.88435,1.60078 z"
               transform="matrix(1.0133273,0,0,1.0133273,-268.95197,974.58915)"
               inkscape:transform-center-x="1.0196929"
               inkscape:transform-center-y="-89.532179"
               inkscape:label="path5969" /></g></g></g><g
         id="g19161"
         inkscape:label="Texts"
         transform="translate(-779.20394,9.9244708)"><circle
           style="fill:none;fill-opacity:1;stroke:none;stroke-width:3.01836;stroke-linecap:round;stroke-opacity:1;paint-order:stroke fill markers"
           id="circle19145"
           cx="-1.4210855e-14"
           cy="-55.295727"
           transform="matrix(0,-1,-1,0,0,0)"
           r="76.490822"
           inkscape:label="Bottom-text-path" /><circle
           style="fill:none;fill-opacity:1;stroke:none;stroke-width:2.48601;stroke-linecap:round;stroke-opacity:1;paint-order:stroke fill markers"
           id="circle19147"
           cx="1.4210855e-14"
           cy="-55.295727"
           transform="rotate(90)"
           inkscape:label="Top-text-path"
           r="63" /><g
           aria-label="Cexplorer.io"
           id="text19155"
           style="font-size:16.8px;font-family:ROBOTO;-inkscape-font-specification:ROBOTO;text-align:center;letter-spacing:1.2px;text-anchor:middle;fill:#fefeff;stroke:#ffffff;stroke-width:0.744;stroke-linecap:round;paint-order:stroke fill markers"><path
             d="m 14.858755,-48.055292 q -1.276057,1.082623 -2.776689,1.355314 -1.499685,0.261129 -2.987961,-0.32652 -1.4873279,-0.599212 -2.7397738,-2.075435 -1.2630598,-1.488732 -1.6119449,-3.053813 -0.3426299,-1.570388 0.1646503,-3.001236 0.5135355,-1.436154 1.7895923,-2.518777 0.8194286,-0.695214 1.7269808,-1.045643 0.9075521,-0.350429 1.8275993,-0.356455 0.926303,-0.01133 1.806343,0.328555 0.880039,0.33989 1.656004,1.026262 l -1.945361,1.650469 q -0.431578,-0.343851 -0.889889,-0.503656 -0.463618,-0.16606 -0.92459,-0.151485 -0.466279,0.0083 -0.9183498,0.198225 -0.4511226,0.178342 -0.8702197,0.533909 -0.7944079,0.673986 -1.0336487,1.53318 -0.2329856,0.853886 0.061147,1.809201 0.2888255,0.94906 1.1007925,1.906103 0.80666,0.950787 1.6897276,1.395684 0.8893231,0.43959 1.7760141,0.343529 0.886692,-0.09606 1.6811,-0.770048 0.419097,-0.355567 0.673861,-0.765351 0.254765,-0.409783 0.338942,-0.868477 0.08418,-0.458693 0.0012,-0.936917 -0.083,-0.478223 -0.334126,-0.964414 l 1.939106,-1.645162 q 0.545472,0.871168 0.737441,1.794824 0.19197,0.923657 0.02987,1.835737 -0.162098,0.91208 -0.655706,1.750413 -0.49266,0.826771 -1.312089,1.521984 z"
             style="font-weight:bold;font-family:Inter;-inkscape-font-specification:Inter"
             id="path6285" /><path
             d="m 24.407684,-54.696185 q -1.103047,0.632425 -2.175545,0.575976 -1.065382,-0.06053 -1.984075,-0.706316 -0.922773,-0.652904 -1.571518,-1.784416 -0.656906,-1.145745 -0.732824,-2.284189 -0.07592,-1.138443 0.402965,-2.084367 0.474803,-0.95304 1.471103,-1.524262 0.782807,-0.448818 1.572259,-0.523215 0.796568,-0.07848 1.546835,0.191089 0.750267,0.269565 1.401285,0.860796 0.654055,0.580033 1.155915,1.455354 l 0.191767,0.334472 -6.177059,3.541579 -0.595704,-1.038998 5.500999,-3.153964 -0.311411,0.660789 q -0.440657,-0.768574 -1.04053,-1.171645 -0.596838,-0.414268 -1.270434,-0.434664 -0.677677,-0.02751 -1.353738,0.360104 -0.668944,0.383535 -0.987567,0.982269 -0.315587,0.587538 -0.266715,1.315978 0.05191,0.717244 0.492566,1.485818 l 0.293772,0.512383 q 0.444737,0.775691 1.050778,1.222505 0.613158,0.442733 1.321389,0.49055 0.70415,0.0407 1.437142,-0.379556 0.533732,-0.306012 0.845525,-0.702259 0.307712,-0.403363 0.399653,-0.853219 0.09906,-0.453936 -0.01149,-0.910622 l 1.209793,-0.693627 q 0.269767,0.800362 0.135605,1.605377 -0.138243,0.797899 -0.638857,1.49152 -0.493497,0.689542 -1.311886,1.15876 z"
             style="font-family:Inter;-inkscape-font-specification:Inter"
             id="path6287" /><path
             d="m 29.024949,-57.419381 1.614151,-5.923659 0.376633,1.006479 -4.912407,-3.239941 1.532131,-0.586708 1.70565,1.17392 q 0.511287,0.348818 1.007253,0.703503 0.493033,0.347025 0.999593,0.706438 l -0.643494,0.246417 q 0.144595,-0.608763 0.279735,-1.196338 0.139868,-0.59817 0.287397,-1.199272 l 0.500618,-2.018779 1.509149,-0.577907 -1.49956,5.695313 -0.387227,-1.011206 5.122496,3.352738 -1.524469,0.583774 -1.99104,-1.345722 q -0.497759,-0.33643 -0.977264,-0.671067 -0.479505,-0.334637 -0.972538,-0.681662 l 0.651156,-0.249351 q -0.135141,0.587575 -0.276149,1.159829 -0.141008,0.572254 -0.286743,1.155102 l -0.598262,2.337258 z"
             style="font-family:Inter;-inkscape-font-specification:Inter"
             id="path6289" /><path
             d="m 39.607891,-57.605288 -2.432547,-11.844188 1.333878,-0.273951 0.257447,1.253524 0.01607,-0.0033 q 0.175836,-0.530199 0.529315,-0.929396 0.353479,-0.399197 0.836389,-0.657489 0.48126,-0.266327 1.027668,-0.378548 1.108886,-0.227742 2.050404,0.15672 0.941518,0.384462 1.604173,1.286785 0.661006,0.894288 0.930005,2.204059 0.267349,1.301736 0.01397,2.392193 -0.255031,1.082423 -0.967157,1.814882 -0.713776,0.724425 -1.822662,0.952166 -0.546407,0.112221 -1.069573,0.05218 -0.521516,-0.052 -0.997333,-0.289255 -0.475818,-0.23725 -0.881832,-0.664699 l -0.01607,0.0033 0.953875,4.644465 z m 2.915536,-5.213053 q 0.739258,-0.151828 1.227473,-0.628942 0.488214,-0.477115 0.664404,-1.250243 0.176189,-0.773128 -0.0367,-1.809695 -0.214539,-1.044603 -0.681182,-1.685706 -0.466643,-0.641104 -1.103385,-0.887176 -0.636742,-0.246072 -1.375999,-0.09424 -0.78747,0.16173 -1.285155,0.674286 -0.497684,0.512557 -0.664188,1.29207 -0.166504,0.779513 0.03153,1.743762 0.196386,0.956213 0.656644,1.607002 0.460257,0.65079 1.119671,0.925703 0.659415,0.274913 1.446884,0.113183 z"
             style="font-family:Inter;-inkscape-font-specification:Inter"
             id="path6291" /><path
             d="m 49.868364,-75.032574 0.983695,12.183007 -1.390008,0.112234 -0.983695,-12.183007 z"
             style="font-family:Inter;-inkscape-font-specification:Inter"
             id="path6293" /><path
             d="m 57.684922,-62.75852 q -1.196813,-0.04493 -2.085176,-0.652908 -0.879858,-0.615865 -1.349932,-1.651417 -0.461876,-1.035245 -0.412327,-2.355018 0.04986,-1.327971 0.588364,-2.333866 0.546705,-1.005588 1.470265,-1.553747 0.931756,-0.547851 2.128569,-0.502918 1.20501,0.04524 2.084868,0.661105 0.879858,0.615865 1.341427,1.659307 0.469766,1.04375 0.419909,2.37172 -0.04955,1.319774 -0.595946,2.317164 -0.5382,0.997698 -1.461759,1.545857 -0.923252,0.539961 -2.128262,0.494721 z m 0.04739,-1.262392 q 0.819735,0.03078 1.416827,-0.349044 0.597092,-0.379819 0.935982,-1.097689 0.339197,-0.726066 0.37582,-1.701551 0.03724,-0.991879 -0.24687,-1.733138 -0.283802,-0.749456 -0.850425,-1.181174 -0.566624,-0.431719 -1.386359,-0.462494 -0.811538,-0.03047 -1.417135,0.357241 -0.597092,0.379819 -0.936289,1.105886 -0.339198,0.726067 -0.376436,1.717946 -0.03693,0.983682 0.247178,1.724941 0.284109,0.741259 0.851041,1.164779 0.566931,0.423521 1.386666,0.454297 z"
             style="font-family:Inter;-inkscape-font-specification:Inter"
             id="path6295" /><path
             d="m 64.50772,-62.351707 1.472099,-8.5365 1.309576,0.225834 -0.231409,1.341912 0.03234,0.0056 q 0.348741,-0.622445 0.927723,-0.938812 0.578981,-0.316366 1.379278,-0.178357 0.185928,0.03206 0.336732,0.07472 0.158888,0.04405 0.236938,0.07416 l -0.236986,1.374247 q -0.07666,-0.03819 -0.30551,-0.110954 -0.219376,-0.07945 -0.518477,-0.131031 -0.468861,-0.08085 -0.91069,0.06771 -0.441829,0.148561 -0.763804,0.567517 -0.321974,0.418956 -0.447437,1.146498 l -0.906121,5.254475 z"
             style="font-family:Inter;-inkscape-font-specification:Inter"
             id="path6297" /><path
             d="m 74.208055,-59.905665 q -1.213253,-0.380379 -1.900034,-1.206073 -0.678954,-0.82324 -0.828643,-1.936178 -0.147235,-1.120766 0.242959,-2.36533 0.395103,-1.260218 1.179334,-2.088951 0.78423,-0.828733 1.803832,-1.119444 1.022056,-0.298538 2.117898,0.04503 0.861019,0.269946 1.451672,0.799 0.59848,0.531509 0.910009,1.265345 0.311529,0.733836 0.319521,1.613219 0.01827,0.87401 -0.283575,1.836786 l -0.11534,0.367889 -6.794221,-2.130118 0.358292,-1.142807 6.050614,1.896984 -0.696561,0.220053 q 0.265038,-0.845364 0.153638,-1.55944 -0.101118,-0.719449 -0.543515,-1.227813 -0.439943,-0.516191 -1.18355,-0.749326 -0.73578,-0.230681 -1.391679,-0.05806 -0.645618,0.167251 -1.147213,0.697738 -0.491313,0.525114 -0.756351,1.370478 l -0.176691,0.563576 q -0.267492,0.853191 -0.184017,1.601497 0.0913,0.750759 0.537083,1.303168 0.448236,0.544582 1.254463,0.797349 0.587058,0.184054 1.089665,0.143904 0.505062,-0.04798 0.897748,-0.28593 0.400513,-0.235499 0.660725,-0.626743 l 1.330665,0.417189 q -0.404408,0.741491 -1.086499,1.189598 -0.679637,0.440281 -1.528769,0.543726 -0.841304,0.105899 -1.74146,-0.176316 z"
             style="font-family:Inter;-inkscape-font-specification:Inter"
             id="path6299" /><path
             d="m 80.477228,-57.777399 3.609932,-7.874471 1.208016,0.553797 -0.567471,1.237843 0.02983,0.01367 q 0.496566,-0.512329 1.137275,-0.669808 0.640708,-0.157479 1.37894,0.180953 0.171508,0.07862 0.306352,0.15849 0.142301,0.08328 0.210033,0.132383 l -0.581145,1.26767 q -0.06431,-0.05656 -0.266889,-0.185519 -0.1917,-0.133003 -0.467605,-0.259487 -0.432499,-0.198273 -0.897643,-0.167862 -0.465143,0.03041 -0.883704,0.352899 -0.418561,0.322487 -0.726226,0.993607 l -2.222023,4.846975 z"
             style="font-family:Inter;-inkscape-font-specification:Inter"
             id="path6301" /><path
             d="m 86.108686,-54.803396 q -0.371631,-0.209394 -0.491095,-0.615669 -0.10829,-0.409396 0.101104,-0.781026 0.213422,-0.378778 0.61567,-0.491095 0.409395,-0.108291 0.781026,0.101104 0.378777,0.213422 0.491095,0.61567 0.112317,0.402248 -0.101105,0.781026 -0.209394,0.371631 -0.615669,0.491095 -0.402249,0.112317 -0.781026,-0.101105 z"
             style="font-family:Inter;-inkscape-font-specification:Inter"
             id="path6303" /><path
             d="m 89.66592,-52.811898 4.811696,-7.203227 1.159611,0.774611 -4.811697,7.203226 z m 6.330147,-8.221096 q -0.327419,-0.218714 -0.404419,-0.605558 -0.077,-0.386844 0.141713,-0.714263 0.218714,-0.32742 0.605558,-0.40442 0.386844,-0.077 0.714263,0.141714 0.32742,0.218713 0.40442,0.605557 0.077,0.386844 -0.141714,0.714264 -0.218713,0.327419 -0.605557,0.404419 -0.386845,0.077 -0.714264,-0.141713 z"
             style="font-family:Inter;-inkscape-font-specification:Inter"
             id="path6305" /><path
             d="m 96.123878,-47.722538 q -0.909702,-0.778988 -1.227838,-1.807391 -0.306569,-1.029298 -0.03127,-2.132725 0.281525,-1.098091 1.140546,-2.101256 0.864356,-1.009396 1.911379,-1.462783 1.053253,-0.448052 2.117465,-0.303533 1.07044,0.149855 1.98015,0.928843 0.91593,0.784323 1.2225,1.813621 0.30657,1.029298 0.0197,2.13362 -0.28063,1.109658 -1.14499,2.119054 -0.85902,1.003165 -1.90694,1.444986 -1.041679,0.447156 -2.105894,0.302637 -1.058879,-0.15075 -1.974813,-0.935073 z m 0.821672,-0.959549 q 0.623084,0.533553 1.326915,0.607065 0.70383,0.07351 1.415465,-0.278283 0.71697,-0.358025 1.3519,-1.099495 0.6456,-0.753931 0.88369,-1.511226 0.24342,-0.763526 0.0678,-1.45389 -0.17561,-0.690365 -0.7987,-1.223918 -0.61685,-0.528218 -1.332246,-0.600835 -0.70383,-0.07351 -1.4208,0.284514 -0.71697,0.358025 -1.362569,1.111957 -0.640264,0.7477 -0.878355,1.504995 -0.23809,0.757295 -0.05714,1.441429 0.180949,0.684134 0.804032,1.217687 z"
             style="font-family:Inter;-inkscape-font-specification:Inter"
             id="path6307" /></g><g
           aria-label="40 000 delegators"
           id="text19159"
           style="font-size:16.8px;font-family:ROBOTO;-inkscape-font-specification:ROBOTO;text-align:center;letter-spacing:1.34783px;text-anchor:middle;fill:#fefeff;stroke:#ffffff;stroke-width:0.744;stroke-linecap:round;paint-order:stroke fill markers"><path
             d="m -10.504833,33.955929 1.6690226,-1.012921 9.32074098,0.638021 0.82140262,1.353451 -2.06173374,1.251256 -0.45538896,-0.750359 -6.3399591,-0.422365 -0.014025,0.0085 3.9623098,6.528823 -1.6760352,1.017177 z m 0.9153666,6.583616 2.755991,-1.672597 0.7503588,-0.455389 6.94257271,-4.213413 1.22997589,2.026671 -10.4489225,6.341398 z"
             style="font-weight:bold;font-family:Inter;-inkscape-font-specification:'Inter Bold'"
             id="path6310" /><path
             d="m -3.0759474,49.739102 q -0.995447,-1.16713 -1.138964,-2.511014 -0.1319525,-1.342966 0.5529608,-2.714182 0.6902364,-1.364975 2.1694336,-2.626584 1.48543855,-1.266933 2.9422225,-1.733155 1.4621071,-0.45998 2.7674312,-0.117785 1.305324,0.342196 2.3060943,1.515567 0.995447,1.167131 1.1273994,2.510097 0.143517,1.343883 -0.5529608,2.714181 -0.6849132,1.371216 -2.1703517,2.638149 -1.4791972,1.261609 -2.9413044,1.72159 -1.45678392,0.466222 -2.76743119,0.117785 -1.29908271,-0.347519 -2.29452971,-1.514649 z m 1.5353692,-1.309519 q 0.5163549,0.60541 1.28218644,0.706939 0.76583154,0.10153 1.69835146,-0.284119 0.93252,-0.385649 1.9436168,-1.248015 1.0173381,-0.867689 1.5452914,-1.72768 0.5279532,-0.859991 0.5485303,-1.632249 0.026818,-0.777581 -0.4895365,-1.382991 -0.5163548,-0.60541 -1.293751,-0.707857 -0.7658315,-0.101529 -1.6983515,0.28412 -0.9271966,0.39189 -1.9445348,1.259579 -1.01109681,0.862366 -1.5443733,1.716115 -0.5279532,0.859991 -0.5485303,1.632249 -0.015254,0.7785 0.501101,1.383909 z"
             style="font-weight:bold;font-family:Inter;-inkscape-font-specification:'Inter Bold'"
             id="path6313" /><path
             d="M 9.500623,61.518541 Q 8.2708294,60.601635 7.8324351,59.323186 7.4055205,58.043064 7.7687975,56.553981 q 0.3698534,-1.48418 1.5319207,-3.042796 1.1669708,-1.565192 2.4838308,-2.343306 1.323437,-0.77321 2.67216,-0.729458 1.348723,0.04375 2.585093,0.965561 1.229794,0.916905 1.656708,2.197027 0.438395,1.278449 0.06364,2.769205 -0.363277,1.489084 -1.530247,3.054276 -1.162068,1.558615 -2.485504,2.331826 -1.316861,0.778114 -2.67216,0.729459 -1.34382,-0.05033 -2.573614,-0.967234 z m 1.206196,-1.617804 q 0.637915,0.475614 1.407169,0.404525 0.769255,-0.07109 1.592838,-0.654208 0.823583,-0.58312 1.617908,-1.648503 0.799228,-1.071959 1.123002,-2.027725 0.323774,-0.955766 0.172328,-1.713309 -0.146544,-0.764118 -0.784458,-1.239732 -0.637914,-0.475614 -1.418649,-0.402852 -0.769254,0.07109 -1.592838,0.654209 -0.817006,0.588023 -1.616234,1.659982 -0.794325,1.065383 -1.124675,2.016246 -0.3237745,0.955766 -0.172328,1.713308 0.158023,0.762445 0.795937,1.238059 z"
             style="font-weight:bold;font-family:Inter;-inkscape-font-specification:'Inter Bold'"
             id="path6315" /><path
             d="m 19.911906,68.054426 q -1.360449,-0.708722 -1.997401,-1.900742 -0.625886,-1.195506 -0.505098,-2.723495 0.128063,-1.524199 1.026282,-3.248404 0.902009,-1.731481 2.077691,-2.709926 1.182956,-0.974656 2.521355,-1.146874 1.338398,-0.172218 2.706122,0.540294 1.360449,0.708721 1.986335,1.904227 0.636952,1.192021 0.505099,2.723495 -0.120788,1.527989 -1.022797,3.259469 -0.89822,1.724206 -2.081176,2.698861 -1.175682,0.978446 -2.521355,1.146874 -1.334608,0.164943 -2.695057,-0.543779 z m 0.932329,-1.789682 q 0.705687,0.367626 1.453713,0.17459 0.748027,-0.193036 1.467906,-0.900208 0.71988,-0.707172 1.333853,-1.885743 0.617762,-1.185846 0.784732,-2.181054 0.16697,-0.995208 -0.103522,-1.718838 -0.266702,-0.730905 -0.972389,-1.098531 -0.705688,-0.367626 -1.464779,-0.171104 -0.748026,0.193036 -1.467906,0.900208 -0.712604,0.710962 -1.330367,1.896807 -0.613973,1.178571 -0.788218,2.16999 -0.166969,0.995208 0.103522,1.718838 0.277767,0.72742 0.983455,1.095045 z"
             style="font-weight:bold;font-family:Inter;-inkscape-font-specification:'Inter Bold'"
             id="path6317" /><path
             d="m 31.235997,72.837566 q -1.456658,-0.48089 -2.276887,-1.555062 -0.809868,-1.079391 -0.936194,-2.606932 -0.118536,-1.524969 0.490934,-3.371108 0.612041,-1.853928 1.615209,-3.008587 1.010958,-1.152087 2.304287,-1.537144 1.293328,-0.385058 2.757776,0.0984 1.456658,0.48089 2.266526,1.56028 0.820228,1.074172 0.936193,2.606931 0.126327,1.527541 -0.485715,3.38147 -0.60947,1.846138 -1.620428,2.998225 -1.003168,1.154659 -2.304286,1.537145 -1.290757,0.377267 -2.747415,-0.103622 z m 0.632614,-1.916246 q 0.755593,0.249446 1.462877,-0.06129 0.707284,-0.310733 1.304167,-1.124398 0.596883,-0.813664 1.013482,-2.075581 0.419172,-1.269708 0.424044,-2.278814 0.0049,-1.009106 -0.37839,-1.679864 -0.38069,-0.678547 -1.136283,-0.927993 -0.755593,-0.249445 -1.473238,0.06651 -0.707284,0.310734 -1.304167,1.124398 -0.589094,0.816236 -1.008265,2.085943 -0.4166,1.261918 -0.429261,2.268452 -0.0049,1.009106 0.37839,1.679864 0.391051,0.67333 1.146644,0.922775 z"
             style="font-weight:bold;font-family:Inter;-inkscape-font-specification:'Inter Bold'"
             id="path6319" /><path
             d="m 46.872031,76.217878 q -1.126533,-0.111435 -1.911633,-0.757875 -0.785101,-0.646439 -1.150277,-1.704714 -0.357014,-1.057468 -0.223775,-2.404409 0.131623,-1.330615 0.696253,-2.288671 0.573601,-0.965412 1.461973,-1.446313 0.897344,-0.488257 1.999387,-0.379244 0.563267,0.05572 1.021394,0.257655 0.458936,0.193774 0.804569,0.532961 0.345634,0.339187 0.577157,0.831949 l 0.0082,8.08e-4 0.468352,-4.734705 2.400005,0.237407 -1.203181,12.163291 -2.367352,-0.234176 0.130816,-1.322452 -0.0082,-8.07e-4 q -0.302319,0.472927 -0.719909,0.777833 -0.408618,0.297549 -0.914565,0.412364 -0.505947,0.114816 -1.069214,0.0591 z m 0.814211,-1.897818 q 0.612246,0.06056 1.091912,-0.205229 0.488636,-0.273148 0.798223,-0.819545 0.309587,-0.546397 0.385493,-1.313746 0.07671,-0.775511 -0.120631,-1.363811 -0.196537,-0.596462 -0.622996,-0.951887 -0.417488,-0.362781 -1.029734,-0.423344 -0.579593,-0.05733 -1.042125,0.201911 -0.462531,0.259244 -0.763148,0.798286 -0.292452,0.539848 -0.372395,1.348013 -0.07994,0.808165 0.100267,1.403013 0.18918,0.587492 0.591957,0.932331 0.403584,0.336676 0.983177,0.394008 z"
             style="font-weight:bold;font-family:Inter;-inkscape-font-specification:'Inter Bold'"
             id="path6321" /><path
             d="m 58.852676,76.606704 q -1.311196,0.05848 -2.311983,-0.471678 -0.992957,-0.538716 -1.579511,-1.538967 -0.578359,-1.000615 -0.636836,-2.311812 -0.05921,-1.327586 0.43634,-2.367886 0.503378,-1.04886 1.436241,-1.673465 0.932863,-0.624605 2.170305,-0.679793 0.958812,-0.04276 1.751954,0.250316 0.792777,0.284883 1.385277,0.866093 0.592134,0.573015 0.931896,1.37899 0.347958,0.80561 0.392182,1.797202 l 0.02887,0.647404 -7.645915,0.340997 -0.06871,-1.540656 6.482228,-0.289099 -1.073486,0.417384 q -0.02924,-0.655598 -0.288091,-1.120308 -0.258852,-0.46471 -0.712711,-0.699018 -0.44603,-0.242869 -1.052458,-0.215823 -0.598233,0.02668 -1.020872,0.308291 -0.423004,0.273415 -0.63946,0.759322 -0.216456,0.485908 -0.187217,1.141507 l 0.04678,1.048957 q 0.02997,0.671988 0.290284,1.169478 0.268144,0.488929 0.739489,0.747091 0.47098,0.249967 1.118383,0.221094 0.475309,-0.0212 0.83004,-0.168399 0.362561,-0.155762 0.597446,-0.412576 0.242714,-0.265374 0.334264,-0.606119 l 2.204449,-0.09832 q -0.117329,0.867417 -0.661738,1.548599 -0.54441,0.681183 -1.396265,1.096893 -0.852221,0.407515 -1.901179,0.454297 z"
             style="font-weight:bold;font-family:Inter;-inkscape-font-specification:'Inter Bold'"
             id="path6323" /><path
             d="m 66.206057,63.359432 1.829427,12.08497 -2.392662,0.362202 -1.829426,-12.08497 z"
             style="font-weight:bold;font-family:Inter;-inkscape-font-specification:'Inter Bold'"
             id="path6325" /><path
             d="m 74.932691,74.150449 q -1.269373,0.333686 -2.359458,0.02651 -1.084236,-0.317191 -1.868545,-1.171244 -0.776375,-0.856138 -1.110061,-2.125512 -0.337856,-1.285241 -0.07285,-2.406651 0.270858,-1.131429 1.051015,-1.938722 0.780156,-0.807292 1.978128,-1.122208 0.928229,-0.244008 1.765341,-0.12479 0.835027,0.111284 1.536774,0.554467 0.699662,0.43525 1.201758,1.151444 0.51003,0.714108 0.76238,1.674072 l 0.164757,0.626753 -7.402036,1.945805 -0.392081,-1.491514 6.275467,-1.649659 -0.961318,0.634388 q -0.166843,-0.634687 -0.517878,-1.034355 -0.351035,-0.399667 -0.8441,-0.532989 -0.487217,-0.143342 -1.074303,0.01099 -0.579152,0.152244 -0.932894,0.516652 -0.355829,0.356475 -0.464942,0.877104 -0.109113,0.520628 0.05773,1.155315 l 0.266949,1.015499 q 0.171014,0.650554 0.530391,1.081956 0.365225,0.421383 0.880414,0.574335 0.513104,0.145018 1.139857,-0.01974 0.460148,-0.120961 0.775857,-0.339662 0.321558,-0.22872 0.496999,-0.529293 0.18129,-0.310593 0.198919,-0.662982 L 78.1491,70.28541 q 0.06824,0.872651 -0.320265,1.653326 -0.388508,0.780674 -1.133533,1.366686 -0.747111,0.578078 -1.762611,0.845027 z"
             style="font-weight:bold;font-family:Inter;-inkscape-font-specification:'Inter Bold'"
             id="path6327" /><path
             d="m 86.594566,73.682274 q -1.131882,0.482594 -2.062542,0.495936 -0.919898,0.01767 -1.620382,-0.370324 -0.692938,-0.391212 -1.137507,-1.120179 l 2.143029,-0.91371 q 0.211697,0.266445 0.513065,0.387646 0.308915,0.117983 0.67843,0.08528 0.372732,-0.02516 0.787755,-0.202107 0.814955,-0.347467 1.062796,-0.979277 0.255387,-0.635027 -0.111384,-1.495257 l -0.521201,-1.222432 -0.0075,0.0032 q -0.03445,0.56758 -0.260415,1.020628 -0.218419,0.449831 -0.610043,0.78624 -0.384078,0.333192 -0.904744,0.555185 -1.041331,0.443986 -2.04055,0.254701 -0.999219,-0.189285 -1.818626,-0.918951 -0.811861,-0.732883 -1.316976,-1.917586 -0.511549,-1.199795 -0.473943,-2.303778 0.04193,-1.114746 0.589621,-1.963575 0.555233,-0.852047 1.573926,-1.286381 0.520666,-0.221993 1.019456,-0.265224 0.506335,-0.04645 0.986466,0.09663 0.487676,0.13986 0.92651,0.478896 l 0.0075,-0.0032 -0.492245,-1.15452 2.195851,-0.936231 3.265549,7.659068 q 0.537288,1.260162 0.381404,2.254057 -0.152667,1.001441 -0.881105,1.740066 -0.717675,0.742954 -1.872195,1.235199 z M 84.358083,68.68778 q 0.565941,-0.241297 0.861925,-0.697445 0.300312,-0.466912 0.312242,-1.087314 0.01193,-0.620401 -0.284062,-1.314622 -0.295991,-0.694221 -0.748689,-1.107605 -0.455915,-0.42093 -0.997524,-0.519959 -0.53728,-0.109792 -1.103221,0.131504 -0.535758,0.228428 -0.819867,0.670596 -0.287326,0.434622 -0.294927,1.044261 -5.5e-5,0.606421 0.312022,1.338371 0.312078,0.731951 0.749684,1.151769 0.445152,0.416601 0.960906,0.517736 0.515754,0.101136 1.051511,-0.127292 z"
             style="font-weight:bold;font-family:Inter;-inkscape-font-specification:'Inter Bold'"
             id="path6329" /><path
             d="m 94.157802,66.078407 q -0.735456,0.44832 -1.459252,0.553285 -0.723796,0.104965 -1.35188,-0.184663 -0.632354,-0.296631 -1.080674,-1.032087 -0.380005,-0.623386 -0.400775,-1.177543 -0.02504,-0.561161 0.220498,-1.056691 0.248272,-0.506804 0.685469,-0.955845 0.444201,-0.453311 0.988669,-0.852459 0.636723,-0.484205 0.997543,-0.790618 0.36082,-0.306413 0.463344,-0.53223 0.102523,-0.225817 -0.04265,-0.463964 l -0.02989,-0.04903 q -0.166519,-0.273169 -0.437432,-0.386631 -0.275183,-0.120466 -0.620937,-0.07302 -0.33875,0.04318 -0.716985,0.273741 -0.378234,0.230564 -0.599831,0.528966 -0.214593,0.294132 -0.250336,0.61374 -0.03574,0.319608 0.111298,0.623864 l -1.940202,1.182712 q -0.416369,-0.793361 -0.358699,-1.597082 0.06467,-0.807991 0.609528,-1.553228 0.540584,-0.752241 1.556213,-1.37135 0.756469,-0.46113 1.458581,-0.648947 0.697842,-0.194822 1.30477,-0.113261 0.613933,0.07729 1.110134,0.41849 0.496201,0.341199 0.859127,0.936568 l 3.057117,5.015107 -2.01725,1.229678 -0.636187,-1.043646 -0.02802,0.01708 q 0.0259,0.483777 -0.103294,0.917996 -0.129199,0.434219 -0.452791,0.833224 -0.327862,0.392 -0.895213,0.737847 z M 93.856866,64.2924 q 0.497308,-0.30315 0.743517,-0.703018 0.253213,-0.404138 0.257197,-0.838885 0.004,-0.434748 -0.23939,-0.833995 l -0.452589,-0.74246 q -0.06117,0.104537 -0.178372,0.243231 -0.121473,0.13169 -0.291976,0.293268 -0.174773,0.154574 -0.380298,0.337501 -0.205525,0.182926 -0.429328,0.367388 -0.323064,0.27379 -0.537656,0.567922 -0.218863,0.287128 -0.267415,0.585723 -0.05282,0.29159 0.126506,0.585773 0.15798,0.25916 0.413349,0.362883 0.255369,0.103723 0.574306,0.0438 0.318936,-0.05992 0.662149,-0.269135 z"
             style="font-weight:bold;font-family:Inter;-inkscape-font-specification:'Inter Bold'"
             id="path6331" /><path
             d="m 99.321407,51.675899 1.169573,1.490916 -4.472752,3.508713 -1.16957,-1.490916 z m -4.756254,0.728427 1.903984,-1.493608 5.154213,6.57036 q 0.26834,0.342072 0.51021,0.371285 0.24831,0.02415 0.63556,-0.279634 0.16136,-0.126577 0.3808,-0.298722 0.2259,-0.177208 0.34853,-0.273406 l 1.16957,1.490917 q -0.17427,0.136703 -0.48407,0.37973 -0.3098,0.243028 -0.62605,0.491119 -1.12303,0.880975 -2.00302,0.862326 -0.87353,-0.02371 -1.602613,-0.953114 z"
             style="font-weight:bold;font-family:Inter;-inkscape-font-specification:'Inter Bold'"
             id="path6333" /><path
             d="m 109.53018,54.218325 q -0.92209,0.922463 -2.02413,1.224309 -1.10203,0.301847 -2.21579,-0.02276 -1.10795,-0.330405 -2.06523,-1.287293 -0.96307,-0.962687 -1.29392,-2.070513 -0.32505,-1.113628 -0.0237,-2.215781 0.2956,-1.107952 1.2177,-2.030414 0.93369,-0.934066 2.03572,-1.224312 1.10203,-0.301846 2.20999,0.02856 1.11376,0.324603 2.07683,1.28729 0.95728,0.956888 1.28233,2.070515 0.33085,1.107827 0.0294,2.209979 -0.2956,1.096351 -1.22929,2.030417 z m -1.3866,-1.386037 q 0.41755,-0.417719 0.51606,-0.945583 0.0927,-0.533663 -0.13944,-1.113665 -0.23213,-0.580002 -0.7949,-1.142536 -0.57436,-0.574132 -1.15445,-0.806035 -0.5801,-0.231903 -1.10792,-0.133189 -0.53363,0.09291 -0.95118,0.510634 -0.41175,0.411917 -0.50445,0.94558 -0.0985,0.527864 0.13363,1.107866 0.23214,0.580002 0.8065,1.154135 0.56856,0.568333 1.14866,0.800236 0.57429,0.226103 1.10792,0.133188 0.52782,-0.09871 0.93957,-0.510631 z"
             style="font-weight:bold;font-family:Inter;-inkscape-font-specification:'Inter Bold'"
             id="path6335" /><path
             d="m 114.18695,48.868745 -6.8245,-5.335267 1.43486,-1.835377 1.16327,0.90942 0.0152,-0.01939 q -0.46742,-0.667387 -0.45146,-1.300475 0.016,-0.633089 0.54646,-1.311661 0.13136,-0.168028 0.24392,-0.29869 0.11116,-0.142177 0.20856,-0.253451 l 1.62211,1.268136 q -0.0873,0.09835 -0.28716,0.327361 -0.19481,0.222548 -0.3868,0.468127 -0.30314,0.387756 -0.3647,0.839426 -0.068,0.446618 0.14455,0.893934 0.21256,0.447316 0.72957,0.851503 l 3.69661,2.889937 z"
             style="font-weight:bold;font-family:Inter;-inkscape-font-specification:'Inter Bold'"
             id="path6337" /><path
             d="m 120.85529,39.839365 q -0.58558,0.959208 -1.337,1.528848 -0.75842,0.565365 -1.5921,0.671515 -0.83368,0.10615 -1.66759,-0.306836 l 1.23956,-2.03044 q 0.5173,0.238918 1.00407,0.05554 0.48678,-0.183376 0.85437,-0.785507 0.3505,-0.574124 0.33007,-1.028699 -0.0162,-0.461576 -0.35923,-0.671018 -0.29406,-0.179523 -0.62998,-0.0386 -0.33164,0.13392 -0.69349,0.537727 l -1.04281,1.141404 q -0.86829,0.950003 -1.75636,1.176726 -0.88806,0.226723 -1.74225,-0.294747 -0.70015,-0.427435 -0.99445,-1.126092 -0.29002,-0.705659 -0.14965,-1.581059 0.14464,-0.882401 0.7345,-1.848611 0.58559,-0.959208 1.32964,-1.485291 0.73705,-0.530358 1.54081,-0.587498 0.80803,-0.06414 1.59102,0.385033 l -1.1669,1.911414 q -0.45237,-0.266556 -0.95587,-0.103004 -0.50351,0.163552 -0.84118,0.716672 -0.32485,0.532115 -0.2776,0.974234 0.0403,0.437844 0.36932,0.638738 0.28706,0.175248 0.61443,0.04833 0.32737,-0.126918 0.67485,-0.491443 l 1.12793,-1.233604 q 0.90094,-0.987738 1.71862,-1.209374 0.81496,-0.232911 1.63414,0.267187 0.73516,0.448806 1.03181,1.20657 0.29394,0.746489 0.14892,1.67672 -0.14774,0.918957 -0.7376,1.885166 z"
             style="font-weight:bold;font-family:Inter;-inkscape-font-specification:'Inter Bold'"
             id="path6339" /></g></g><g
         id="g19189"
         inkscape:label="Middlepart"
         transform="matrix(0.82,0,0,0.82,-124.56554,4.9214006)"><g
           style="fill:none"
           id="g19169"
           transform="matrix(2.871673,0,0,2.871673,-765.28098,-27.943634)"
           inkscape:label="user"><path
             d="M 15.5,3.29076 C 16.9659,3.88415 18,5.32131 18,7 c 0,1.67869 -1.0341,3.1159 -2.5,3.7092 m -0.9693,4.5953 C 13.7956,15 12.8638,15 11,15 H 8 C 6.13623,15 5.20435,15 4.46927,15.3045 3.48915,15.7105 2.71046,16.4892 2.30448,17.4693 2,18.2044 2,19.1362 2,21"
             stroke="#000000"
             stroke-width="2"
             stroke-linecap="round"
             stroke-linejoin="round"
             id="path19163"
             style="stroke:#ffffff;stroke-opacity:1"
             sodipodi:nodetypes="csccssssc" /><g
             style="fill:none"
             id="g19167"
             transform="matrix(1.2195122,0,0,1.2195122,16.431792,-4.3044051)"><path
               d="M 2.1059357,20.761546 V 15.913074 M -0.31830037,18.33731 H 4.5301716"
               stroke="#000000"
               stroke-width="1.61616"
               stroke-linecap="round"
               stroke-linejoin="round"
               id="path19165"
               sodipodi:nodetypes="cccc"
               style="stroke:#ffffff;stroke-opacity:1" /></g></g><g
           id="g19187"
           transform="matrix(1.8892585,0,0,1.8892585,-739.72275,-5.9525966)"
           inkscape:label="Logo"
           style="display:inline">
		<g
   transform="translate(0.91990781,-0.8)"
   id="g19173"
   inkscape:label="Circle">
<path
   style="opacity:1;fill:#e4003a;fill-opacity:1;fill-rule:nonzero;stroke:none;stroke-width:1;stroke-linecap:butt;stroke-linejoin:miter;stroke-miterlimit:4;stroke-dasharray:none;stroke-dashoffset:0"
   d="m 0,7.39996 a 7.6,7.6 0 1 1 7.6,-7.6 7.6,7.6 0 0 1 -7.6,7.6 z"
   stroke-linecap="round"
   id="path19171" />
</g>
		<g
   transform="translate(0.81,-1.08)"
   id="g19177"
   style="display:none"
   inkscape:label="undefined">
<path
   style="opacity:1;fill:#ffffff;fill-rule:nonzero;stroke:none;stroke-width:1;stroke-linecap:butt;stroke-linejoin:miter;stroke-miterlimit:4;stroke-dasharray:none;stroke-dashoffset:0"
   transform="translate(-10.81,-11.92)"
   d="m 8.46,13.2 h -0.8 c -0.3,0 -0.4,-0.1 -0.4,-0.4 a 0.43,0.43 0 0 1 0.4,-0.4 h 0.9 a 0.35,0.35 0 0 0 0.2,-0.1 1.42,1.42 0 0 0 0.2,-0.6 h -0.7 a 0.4,0.4 0 1 1 0,-0.8 h 0.8 c 0.1,0 0.2,0 0.2,-0.1 a 23.29,23.29 0 0 0 1.1,-2.8 0.1,0.1 0 0 1 0.1,-0.1 c 0.1,-0.2 0.2,-0.3 0.4,-0.3 0.2,0 0.3,0.1 0.4,0.3 0.2,0.6 0.4,1.1 0.6,1.7 0.2,0.4 0.3,0.8 0.5,1.2 0,0.1 0.1,0.1 0.2,0.1 h 0.8 a 0.37,0.37 0 0 1 0.4,0.4 0.43,0.43 0 0 1 -0.4,0.4 h -0.7 a 4.88,4.88 0 0 0 0.3,0.7 0.35,0.35 0 0 0 0.2,0.1 h 0.9 c 0.1,0 0.3,0.1 0.3,0.2 a 0.6,0.6 0 0 1 -0.1,0.4 0.37,0.37 0 0 1 -0.3,0.1 h -0.8 a 3.55,3.55 0 0 0 0.4,0.9 l 0.6,1.5 c 0.1,0.3 0.1,0.5 -0.2,0.6 -0.3,0.1 -0.4,0 -0.5,-0.3 -0.3,-0.9 -0.7,-1.7 -1,-2.6 -0.1,-0.2 -0.1,-0.2 -0.3,-0.2 h -2.9 c -0.2,0 -0.2,0 -0.3,0.2 a 18.61,18.61 0 0 1 -1,2.5 c -0.1,0.2 -0.2,0.3 -0.4,0.3 a 0.27,0.27 0 0 1 -0.3,-0.3 0.37,0.37 0 0 1 0.1,-0.3 c 0.3,-0.7 0.5,-1.4 0.8,-2.1 0.2,0 0.2,-0.1 0.3,-0.2 z m 1,-0.8 h 2.7 c -0.1,-0.2 -0.2,-0.5 -0.3,-0.7 a 0.35,0.35 0 0 0 -0.2,-0.1 h -1.8 c -0.1,0 -0.1,0 -0.2,0.1 a 1.45,1.45 0 0 1 -0.2,0.7 z m 2.2,-1.5 c -0.3,-0.7 -0.5,-1.3 -0.8,-2 -0.3,0.7 -0.5,1.3 -0.8,2 z"
   stroke-linecap="round"
   id="path19175" />
</g>
<path
   style="opacity:1;fill:#050001;fill-opacity:1;stroke:#ffffff;stroke-width:0.786824;stroke-linecap:round;stroke-miterlimit:3.7;stroke-dasharray:none;stroke-opacity:1;paint-order:stroke fill markers"
   d="M -2.3986007,2.7360851 0.88883187,-5.0028575"
   id="path19179"
   sodipodi:nodetypes="cc" /><path
   style="opacity:1;fill:#050001;fill-opacity:1;stroke:#ffffff;stroke-width:0.786824;stroke-linecap:round;stroke-miterlimit:3.7;stroke-dasharray:none;stroke-opacity:1"
   d="M 4.2651388,2.7342975 0.98031102,-5.0045294"
   id="path19181"
   sodipodi:nodetypes="cc" /><path
   style="opacity:1;fill:#050001;fill-opacity:1;stroke:#ffffff;stroke-width:0.786824;stroke-linecap:round;stroke-miterlimit:3.7;stroke-dasharray:none;stroke-opacity:1"
   d="m -1.664028,-1.6872983 5.178973,-0.015567"
   id="path19183" /><path
   style="fill:#050001;fill-opacity:1;stroke:#ffffff;stroke-width:0.786824;stroke-linecap:round;stroke-miterlimit:3.7;stroke-dasharray:none;stroke-opacity:1"
   d="m -2.3298842,-0.18348542 6.5097684,-0.0124693"
   id="path19185" /></g></g><g
         id="g19458"
         inkscape:label="circles"
         transform="matrix(0.82310934,0,0,0.82310934,-2275.1806,-977.4094)"><circle
           style="fill:#e4003a;fill-opacity:1;stroke:none;stroke-width:0.511713;stroke-linecap:round;stroke-linejoin:round;stroke-dasharray:none;stroke-opacity:1;paint-order:stroke markers fill"
           id="circle19434"
           cx="-1259.1384"
           cy="1884.0352"
           inkscape:transform-center-x="6.1035156e-05"
           inkscape:transform-center-y="58.593567"
           transform="rotate(-90)"
           r="2.5585673" /><circle
           style="fill:#e4003a;fill-opacity:1;stroke:none;stroke-width:0.511713;stroke-linecap:round;stroke-linejoin:round;stroke-dasharray:none;stroke-opacity:1;paint-order:stroke markers fill"
           id="circle19436"
           cx="-156.27831"
           cy="2231.8948"
           inkscape:transform-center-x="29.296796"
           inkscape:transform-center-y="50.743509"
           transform="rotate(-60)"
           r="2.7632527" /><circle
           style="fill:#e4003a;fill-opacity:1;stroke:none;stroke-width:0.511713;stroke-linecap:round;stroke-linejoin:round;stroke-dasharray:none;stroke-opacity:1;paint-order:stroke markers fill"
           id="circle19438"
           cx="972.75635"
           cy="1981.72"
           inkscape:transform-center-x="50.743523"
           inkscape:transform-center-y="29.296803"
           transform="rotate(-30)"
           r="2.9679382" /><circle
           style="fill:#e4003a;fill-opacity:1;stroke:none;stroke-width:0.511713;stroke-linecap:round;stroke-linejoin:round;stroke-dasharray:none;stroke-opacity:1;paint-order:stroke markers fill"
           id="circle19440"
           cx="1825.4417"
           cy="1200.5449"
           inkscape:transform-center-x="58.593567"
           inkscape:transform-center-y="6.0887265e-05"
           r="3.1726236" /><circle
           style="fill:#e4003a;fill-opacity:1;stroke:none;stroke-width:0.511713;stroke-linecap:round;stroke-linejoin:round;stroke-dasharray:none;stroke-opacity:1;paint-order:stroke markers fill"
           id="circle19442"
           cx="2173.3013"
           cy="97.684799"
           inkscape:transform-center-x="50.743507"
           inkscape:transform-center-y="-29.296709"
           transform="rotate(30)"
           r="3.3773088" /><circle
           style="fill:#e4003a;fill-opacity:1;stroke:none;stroke-width:0.511713;stroke-linecap:round;stroke-linejoin:round;stroke-dasharray:none;stroke-opacity:1;paint-order:stroke markers fill"
           id="circle19444"
           cx="1923.1265"
           cy="-1031.3499"
           inkscape:transform-center-x="29.296811"
           inkscape:transform-center-y="-50.743415"
           transform="rotate(60)"
           r="3.5819943" /><circle
           style="fill:#e4003a;fill-opacity:1;stroke:none;stroke-width:0.511713;stroke-linecap:round;stroke-linejoin:round;stroke-dasharray:none;stroke-opacity:1;paint-order:stroke markers fill"
           id="circle19446"
           cx="1141.9514"
           cy="-1884.0352"
           inkscape:transform-center-x="6.0505766e-05"
           inkscape:transform-center-y="-58.593445"
           transform="rotate(90)"
           r="3.7866797" /><circle
           style="fill:#e4003a;fill-opacity:1;stroke:none;stroke-width:0.511713;stroke-linecap:round;stroke-linejoin:round;stroke-dasharray:none;stroke-opacity:1;paint-order:stroke markers fill"
           id="circle19448"
           cx="39.091293"
           cy="-2231.8948"
           inkscape:transform-center-x="-29.296711"
           inkscape:transform-center-y="-50.74342"
           transform="rotate(120)"
           r="3.9913652" /><circle
           style="fill:#e4003a;fill-opacity:1;stroke:none;stroke-width:0.511713;stroke-linecap:round;stroke-linejoin:round;stroke-dasharray:none;stroke-opacity:1;paint-order:stroke markers fill"
           id="circle19450"
           cx="-1089.9434"
           cy="-1981.72"
           inkscape:transform-center-x="-50.743407"
           inkscape:transform-center-y="-29.296703"
           transform="rotate(150)"
           r="4.1960506" /><circle
           style="fill:#e4003a;fill-opacity:1;stroke:none;stroke-width:0.511713;stroke-linecap:round;stroke-linejoin:round;stroke-dasharray:none;stroke-opacity:1;paint-order:stroke markers fill"
           id="circle19452"
           cx="-1942.6287"
           cy="-1200.5449"
           inkscape:transform-center-x="-58.593446"
           inkscape:transform-center-y="6.074664e-05"
           transform="scale(-1)"
           r="4.4007359" /><circle
           style="fill:#e4003a;fill-opacity:1;stroke:none;stroke-width:0.511713;stroke-linecap:round;stroke-linejoin:round;stroke-dasharray:none;stroke-opacity:1;paint-order:stroke markers fill"
           id="circle19454"
           cx="-2290.4883"
           cy="-97.684799"
           inkscape:transform-center-x="-50.743423"
           inkscape:transform-center-y="29.296797"
           transform="rotate(-150)"
           r="4.6054211" /></g></g></g></svg>
