<svg width="56" height="56" viewBox="0 0 56 56" fill="currentColor" xmlns="http://www.w3.org/2000/svg" class="block h-9 w-auto text-primary"><g clip-path="url(#clip0_2505_51)"><path d="M26.0162 49.2228L18.7694 41.974L26.0162 39.53V49.2228ZM29.9814 6.76698L37.328 14.1101L29.9869 16.5596L29.9814 6.76698ZM55.8962 27.363C55.7704 26.9906 55.537 26.6639 55.2254 26.4243C54.9138 26.1848 54.5382 26.0431 54.1461 26.0172C53.886 25.9998 53.625 26.0333 53.3776 26.1157L29.9841 34.0045V20.7448L41.631 16.8605L41.6788 16.8427C41.7158 16.8277 41.7527 16.814 41.7896 16.7976L41.8662 16.762C41.899 16.747 41.9304 16.7306 41.9632 16.7128L42.048 16.6622L42.1246 16.613L42.2176 16.5446L42.2777 16.4967C42.3092 16.4694 42.342 16.4393 42.3734 16.4092L42.4063 16.3805L42.4227 16.3627C42.4527 16.3326 42.4801 16.3011 42.5074 16.2683L42.558 16.2109L42.6196 16.1247C42.6387 16.0973 42.6565 16.0741 42.6742 16.0467L42.7166 15.9743C42.7303 15.9496 42.7549 15.91 42.7713 15.8758C42.7877 15.8416 42.7918 15.8334 42.8014 15.8101C42.811 15.7869 42.8356 15.739 42.8493 15.698C42.8629 15.657 42.867 15.6474 42.8752 15.6228C42.8834 15.5981 42.8999 15.5544 42.9108 15.5202C42.9217 15.486 42.9258 15.4559 42.934 15.4244C42.9422 15.393 42.9477 15.367 42.9532 15.3383C42.9587 15.3096 42.9655 15.259 42.9696 15.2207C42.9737 15.1824 42.9764 15.1742 42.9778 15.1509C42.9767 15.1088 42.9789 15.0668 42.9846 15.0251V14.9608C42.9874 14.9212 42.9874 14.8814 42.9846 14.8418C42.9846 14.8035 42.9846 14.7898 42.9846 14.7639C42.9846 14.7379 42.9764 14.6982 42.971 14.6654C42.9655 14.6326 42.96 14.5984 42.9532 14.5655C42.9463 14.5327 42.9409 14.5136 42.934 14.4876C42.9272 14.4616 42.9149 14.4083 42.9026 14.3686L42.8958 14.3453L42.878 14.3029C42.8645 14.2621 42.849 14.2219 42.8315 14.1826C42.8137 14.1429 42.8096 14.1361 42.8 14.1128C42.7905 14.0896 42.7659 14.0444 42.7481 14.0103L42.692 13.9364C42.6756 13.9077 42.6578 13.8803 42.6387 13.853L42.5744 13.7654C42.5539 13.7381 42.5402 13.7217 42.5225 13.6998C42.5047 13.6779 42.4691 13.6396 42.4418 13.6109L42.4076 13.574L29.4181 0.580924C29.3729 0.53579 29.3251 0.493392 29.2745 0.444155L29.202 0.390815L29.12 0.329269C29.0899 0.310122 29.0612 0.293709 29.0311 0.277297L28.9532 0.229428L28.8506 0.189765C28.8206 0.176088 28.7959 0.162411 28.7672 0.15147C28.7385 0.140528 28.7071 0.128219 28.677 0.117278L28.5772 0.0844531L28.4842 0.0612024L28.3885 0.0379517C28.3557 0.0311133 28.316 0.0270102 28.2764 0.0215394C28.2367 0.0160687 28.2217 0.0119656 28.1943 0.00923024C28.0638 -0.00307675 27.9324 -0.00307675 27.8019 0.00923024C27.7738 0.0113221 27.746 0.0154359 27.7185 0.0215394L27.6064 0.0379517L27.512 0.0612024L27.419 0.0844531L27.3274 0.117278L27.2358 0.15147L27.1511 0.189765L27.0608 0.233531C27.0307 0.249943 27.0075 0.264988 26.9815 0.2814C26.9515 0.297195 26.9222 0.314542 26.894 0.333372C26.8653 0.35252 26.8379 0.374403 26.8092 0.394918L26.7381 0.448258C26.6875 0.490657 26.641 0.533055 26.5946 0.585027C26.5487 0.631046 26.5054 0.679437 26.4647 0.730002C26.4455 0.751885 26.4291 0.776503 26.4113 0.799754C26.3936 0.823005 26.3689 0.855829 26.3498 0.885918L26.2965 0.970715L26.2486 1.05141C26.2322 1.0815 26.2199 1.11159 26.2062 1.14168C26.1926 1.17177 26.1775 1.19775 26.1652 1.22921C26.1529 1.26067 26.1447 1.28665 26.1338 1.31537C26.1228 1.34409 26.1105 1.37829 26.101 1.41111C26.0914 1.44394 26.0845 1.47129 26.0777 1.50001C26.0674 1.53321 26.0592 1.56701 26.0531 1.60122C26.0531 1.63541 26.0422 1.66824 26.0381 1.70106C26.034 1.73389 26.0285 1.76124 26.0244 1.7927C26.0175 1.85424 26.0162 1.91716 26.0148 1.98007V17.8849L1.35654 26.1143C0.909025 26.263 0.529094 26.5663 0.284864 26.9698C0.0406343 27.3733 -0.0519222 27.8506 0.0237878 28.3162C0.0994977 28.7818 0.338523 29.2052 0.698012 29.5105C1.0575 29.8157 1.51394 29.9829 1.98551 29.9821C2.19846 29.9824 2.41002 29.9478 2.61175 29.8795L26.0189 22.0687V35.3421L14.4719 39.2359L14.4404 39.2482L14.3037 39.3015L14.249 39.3275C14.2105 39.3454 14.1731 39.3655 14.1369 39.3877L14.0713 39.426C14.0398 39.4452 14.007 39.4657 13.9755 39.4889L13.9017 39.5436C13.8744 39.5628 13.8498 39.5833 13.8238 39.6052C13.7978 39.6271 13.7718 39.6503 13.7458 39.6749L13.7048 39.7132C13.6959 39.7217 13.6877 39.7308 13.6802 39.7406C13.6565 39.7644 13.6341 39.7895 13.6132 39.8158L13.5462 39.8924L13.4997 39.958C13.4765 39.9895 13.4532 40.0223 13.4314 40.0565L13.4013 40.1071C13.3773 40.1456 13.3554 40.1853 13.3356 40.2261L13.3151 40.2699C13.2946 40.3123 13.2741 40.356 13.2577 40.3998C13.2577 40.4176 13.2468 40.434 13.2399 40.4504C13.2249 40.4928 13.2112 40.5352 13.1989 40.579C13.1989 40.6009 13.1866 40.6255 13.1811 40.6487C13.1757 40.672 13.162 40.7226 13.1552 40.7609C13.1483 40.7992 13.147 40.8238 13.1429 40.8552C13.1387 40.8867 13.1333 40.9154 13.1305 40.9469C13.1278 40.9783 13.1305 41.018 13.1305 41.0536V41.2423C13.1269 41.2723 13.1269 41.3026 13.1305 41.3326C13.1374 41.3627 13.1401 41.3941 13.1442 41.4242C13.1483 41.4543 13.1552 41.494 13.162 41.5364C13.1665 41.5619 13.1729 41.587 13.1811 41.6116C13.1811 41.6376 13.203 41.6923 13.2153 41.7306C13.2147 41.7354 13.2151 41.7404 13.2166 41.7451C13.218 41.7498 13.2203 41.7542 13.2235 41.7579C13.2312 41.7752 13.2376 41.793 13.2427 41.8113L13.2741 41.8933C13.2851 41.9207 13.3069 41.9644 13.3233 42.0055L13.3493 42.0574C13.3767 42.1108 13.4081 42.1614 13.4396 42.2106L13.4642 42.2462C13.4915 42.2872 13.5202 42.3255 13.5503 42.3652L13.5777 42.398C13.6132 42.4404 13.6501 42.4814 13.6898 42.5211L13.7007 42.532L13.7144 42.5471L13.7267 42.558L26.5877 55.4211C26.6311 55.4663 26.6767 55.5092 26.7244 55.5497L26.7955 55.6044C26.8202 55.6222 26.8516 55.6468 26.8803 55.6659L26.9678 55.7193C26.9933 55.7363 27.0198 55.7518 27.0471 55.7658C27.0745 55.7808 27.1073 55.7959 27.1374 55.8095L27.2222 55.8492L27.3124 55.882C27.3425 55.8916 27.3739 55.9053 27.4054 55.9149C27.4368 55.9244 27.4655 55.9299 27.4956 55.9381L27.5941 55.9627C27.6282 55.9696 27.6638 55.9723 27.6993 55.9778L27.7855 55.9901C27.8509 55.9967 27.9166 55.9999 27.9824 55.9997C28.0477 55.9999 28.1129 55.9967 28.1779 55.9901C28.2073 55.988 28.2366 55.9839 28.2654 55.9778C28.2941 55.9778 28.3352 55.9696 28.3693 55.9627C28.4035 55.9559 28.435 55.9463 28.4664 55.9381C28.4979 55.9299 28.5279 55.9244 28.558 55.9149C28.5881 55.9053 28.6209 55.893 28.6524 55.882L28.7412 55.8492L28.826 55.8095C28.8561 55.7959 28.8876 55.7822 28.9176 55.7658C28.9477 55.7494 28.9696 55.7343 28.9969 55.7193L29.0844 55.6659L29.1679 55.6044L29.2403 55.5497C29.2881 55.5092 29.3337 55.4663 29.3771 55.4211C29.4252 55.3753 29.4708 55.3269 29.5138 55.2761C29.5329 55.2543 29.5493 55.2296 29.5671 55.2078L29.63 55.1216C29.6505 55.0915 29.6642 55.0642 29.682 55.0341C29.6997 55.004 29.7148 54.9821 29.7298 54.9534L29.7736 54.8645C29.7872 54.8344 29.8009 54.8084 29.8132 54.7783C29.8255 54.7482 29.8351 54.7195 29.8447 54.6908C29.8542 54.6621 29.8679 54.6265 29.8789 54.595C29.8898 54.5636 29.8939 54.5362 29.9007 54.5061C29.9076 54.4761 29.9185 54.4405 29.9253 54.4063C29.9322 54.3721 29.9363 54.3379 29.9404 54.3037C29.9445 54.2695 29.9513 54.2449 29.9541 54.2148C29.9541 54.1519 29.9636 54.089 29.9636 54.0261V38.1937L54.626 29.8782C54.8738 29.7958 55.1029 29.6651 55.3001 29.4939C55.4979 29.3234 55.6597 29.115 55.7759 28.8811C55.8923 28.6476 55.9615 28.3933 55.9796 28.133C56.0033 27.8733 55.975 27.6116 55.8962 27.363Z"></path></g><defs><clipPath id="clip0_2505_51"><rect width="56" height="56" fill="white"></rect></clipPath></defs></svg>