<svg fill="none" height="740" viewBox="0 0 640 740" width="640" xmlns="http://www.w3.org/2000/svg"><path d="m120 100h240l-160 340h-120z" fill="#000"/><path d="m520 540h-240l160-340h120z" fill="#1f5aff"/><path clip-rule="evenodd" d="m305.258 623.351s-9.382-3.351-22.784-3.351c-18.763 0-25.464 7.371-25.464 18.763 0 10.051 5.361 16.752 20.103 20.103.635.144 1.248.283 1.839.416l.006.002c10.631 2.401 14.238 3.216 14.238 8.293 0 5.361-4.691 6.701-13.402 6.701-10.052 0-22.784-5.36-22.784-5.36v13.402c3.798 1.563 13.402 4.69 25.464 4.69 14.072 0 25.464-4.02 25.464-18.763 0-14.072-8.087-17.879-24.124-21.443-12.061-2.68-13.402-6.031-13.402-8.041 0-4.582 3.351-7.371 12.062-7.371 5.361 0 12.982 1.636 22.784 4.02zm-231.8559 27.475 25.2453-29.486h17.6436l-27.3312 31.921 30.0112 32.409h-18.266l-27.3029-29.484v29.484h-13.4021v-64.33h13.4021zm69.6909-29.486h34.845v10.722h-34.845zm0 10.722v16.082h29.484v10.722h-29.484v16.082h34.845v10.722h-48.247v-53.608zm174.227-10.722h53.608v10.722h-20.103v53.608h-13.402v-53.608h-20.103zm165.061 0h-23v64.33h13.403v-53.516l19.886 40.114h9.598v13.402h13.402v-64.33h-13.402v40.115zm97.619 0h-34.845v10.722h-13.402v53.608h48.247v-10.722h-34.845v-16.082h29.484v-10.722h-29.484v-16.082h34.845zm-368.557 36.185-22.786-36.185h15.838l13.649 21.676 13.65-21.676h15.838l-22.787 36.186v28.144h-13.402zm233.196-4.02c0 18.763-11.579 33.505-32.165 33.505-20.585 0-32.165-14.742-32.165-33.505s11.58-33.505 32.165-33.505c20.586 0 32.165 14.742 32.165 33.505zm-13.402 0c0 12.008-6.755 21.443-18.763 21.443s-18.763-9.435-18.763-21.443 6.755-21.443 18.763-21.443 18.763 9.435 18.763 21.443z" fill="#000" fill-rule="evenodd"/></svg>