<?xml version="1.0" encoding="UTF-8"?>
<svg id="Layer_1" data-name="Layer 1" xmlns="http://www.w3.org/2000/svg" xmlns:xlink="http://www.w3.org/1999/xlink" viewBox="0 0 52 52">
  <defs>
    <radialGradient id="radial-gradient" cx="-165.05" cy="267.71" fx="-165.05" fy="267.71" r="1" gradientTransform="translate(4273.19 6851.78) scale(25.73 -25.5)" gradientUnits="userSpaceOnUse">
      <stop offset="0" stop-color="#fdc300"/>
      <stop offset=".09" stop-color="#fdc109"/>
      <stop offset=".25" stop-color="#fdbc21"/>
      <stop offset=".44" stop-color="#feb348"/>
      <stop offset=".66" stop-color="#fea77e"/>
      <stop offset=".91" stop-color="#ff98c3"/>
      <stop offset="1" stop-color="#ff92de"/>
    </radialGradient>
  </defs>
  <path d="m8.61,23.13c-.26.66-.49,1.34-.68,2.03-1.04,3.77-1,7.75.11,11.49.19.64.42,1.28.67,1.9,1.74,4.23,4.83,7.77,8.79,10.08.93.54,1.9,1.01,2.9,1.41,7.71,3.02,16.5,1.28,22.44-4.47,1.83-1.76,3.31-3.85,4.38-6.15-3.16,3.3-7.25,5.56-11.72,6.49-.19.09-.39.18-.58.26-6.09,2.62-13.16,1.48-18.1-2.91-.28-.24-.55-.5-.81-.76l-.12-.12c-2.38-2.44-3.95-5.55-4.5-8.92-.05-.3-.09-.6-.13-.91-.07-.6-.1-1.21-.1-1.82-.01-3.31.96-6.55,2.81-9.31.46-.7.98-1.36,1.54-1.98,3.18-3.51,7.68-5.53,12.42-5.58h.4c3.71.03,7.31,1.27,10.25,3.53-.1-.37-.22-.74-.35-1.11-.1-.29-.21-.57-.33-.85-.67-1.6-1.62-3.07-2.8-4.34l-.07-.05c-.99-.34-2-.6-3.03-.79-2.66-.49-5.4-.46-8.05.07-1.83.37-3.61.98-5.27,1.81-1.15.58-2.24,1.26-3.26,2.03l-.09.07c-.65.5-1.26,1.04-1.85,1.6-1.31,1.27-2.44,2.7-3.38,4.26-.53.89-.99,1.83-1.38,2.79v.23h-.1s0,0,0,0Zm12.68-15.79c-1.26,0-2.53.11-3.77.34-.16.02-.32.06-.48.09-.58.12-1.17.26-1.75.44-.67.19-1.32.42-1.97.68-4.26,1.7-7.84,4.76-10.16,8.72-.3.5-.58,1.02-.83,1.55-.21.42-.4.85-.57,1.29-4.08,10.16.48,21.72,10.43,26.45l.29.14c-3.32-3.12-5.61-7.18-6.57-11.64-.1-.19-.19-.38-.28-.58-.15-.35-.29-.71-.42-1.07-1.5-4.21-1.25-8.85.7-12.88.88-1.83,2.09-3.49,3.56-4.89.58-.55,1.19-1.06,1.85-1.52,1-.71,2.07-1.31,3.2-1.78,2.65-2,5.72-3.38,8.97-4.03,1.21-.25,2.44-.4,3.67-.45l-.28-.08c-1.83-.51-3.71-.77-5.61-.77,0,0,0,0,0,0Zm3.57,36.49l.28.08c3.05.83,6.26.98,9.38.42h.09c.73-.15,1.45-.32,2.16-.53.6-.18,1.2-.38,1.8-.62l.21.27-.12-.31c2.54-1.01,4.85-2.51,6.8-4.41,1.31-1.27,2.45-2.7,3.38-4.27.54-.91,1.01-1.86,1.4-2.83,3.1-7.66,1.34-16.43-4.47-22.3-1.78-1.81-3.88-3.27-6.18-4.33,2.59,2.44,4.55,5.47,5.74,8.82.33.93.6,1.88.81,2.85.07.14.17.35.27.56.54,1.25.92,2.55,1.14,3.89.15.91.23,1.83.23,2.76,0,4.54-1.83,8.88-5.1,12.03l-.12.11c-1.47,1.41-3.19,2.54-5.06,3.33-1.84,1.37-3.89,2.45-6.06,3.21-.94.33-1.91.6-2.89.81-1.2.25-2.43.4-3.66.46h0,0Zm-7.91-2.88c.99.35,2.01.62,3.05.81,2.68.5,5.43.48,8.1-.08,1.81-.37,3.57-.98,5.23-1.81,4.13-2.05,7.47-5.42,9.47-9.58.2-.41.38-.82.54-1.23l.02-.07c1.47-3.61,1.87-7.57,1.15-11.4h0c-.02-.16-.05-.31-.09-.45-.12-.59-.27-1.17-.44-1.75-.19-.65-.42-1.28-.67-1.9-1.72-4.24-4.79-7.79-8.75-10.09-.91-.53-1.87-1-2.85-1.39-10.27-4.1-22,.41-26.78,10.31-.04.09-.09.18-.13.27,2.48-2.57,5.53-4.53,8.91-5.7.93-.32,1.89-.59,2.85-.8.16-.08.39-.19.62-.28.33-.14.67-.27,1.02-.39.95-.33,1.92-.58,2.91-.74,4.22-.68,8.54.24,12.11,2.58.7.45,1.36.96,1.99,1.51.31.27.61.56.9.85,1.41,1.46,2.55,3.16,3.36,5.02.15.35.29.7.42,1.07.33.93.58,1.89.74,2.86.57,3.41.07,6.91-1.45,10.01-.7,1.45-1.6,2.79-2.67,3.98-3.2,3.51-7.71,5.54-12.45,5.6-.84.01-1.68-.04-2.51-.15-1.75-.24-3.45-.75-5.05-1.51-1.08-.51-2.11-1.14-3.06-1.86.64,2.36,1.84,4.52,3.5,6.31h0,0s0,0,0,0Zm-3.98-9.06c1.24,1.25,2.7,2.28,4.29,3.03.35.17.72.32,1.08.47-2.56-2.69-4.15-6.17-4.51-9.86-.74,2.04-1.04,4.21-.86,6.37h0s0,0,0,0Zm20.7-15.28c2.55,2.69,4.13,6.15,4.52,9.84.74-2.02,1.04-4.17.87-6.31h0c-1.53-1.55-3.37-2.75-5.39-3.53h0s0,0,0,0Z" fill="url(#radial-gradient)"/>
</svg>