<svg width="22" height="23" viewBox="0 0 22 23" xmlns="http://www.w3.org/2000/svg">
<rect width="100%" height="100%" fill="#212121" />
<path d="M4.30999 9.00008C5.30877 6.20401 7.98069 4.20308 11.12 4.20308C14.2592 4.20308 16.9311 6.20401 17.9299 9.00008C17.979 9.13747 18.1074 9.23218 18.2533 9.23218H21.0594C21.2725 9.23218 21.4317 9.03576 21.3794 8.82919C20.2195 4.24362 16.066 0.850342 11.12 0.850342C6.17391 0.850342 2.02042 4.24362 0.860468 8.82918C0.808213 9.03576 0.967434 9.23218 1.18052 9.23218H3.98659C4.13249 9.23218 4.26091 9.13747 4.30999 9.00008Z" fill="#C6FF00"/>
<path d="M3.98659 13.6327C4.13249 13.6327 4.26091 13.7274 4.30999 13.8648C5.30877 16.6608 7.98069 18.6618 11.12 18.6618C14.2592 18.6618 16.9311 16.6608 17.9299 13.8648C17.979 13.7274 18.1074 13.6327 18.2533 13.6327H21.0594C21.2725 13.6327 21.4317 13.8291 21.3794 14.0357C20.2195 18.6212 16.066 22.0145 11.12 22.0145C6.17391 22.0145 2.02042 18.6212 0.860468 14.0357C0.808213 13.8291 0.967434 13.6327 1.18052 13.6327H3.98659Z" fill="#C6FF00"/>
<path d="M9.25499 9.23218C9.06983 9.23218 8.91972 9.38229 8.91972 9.56746V13.2974C8.91972 13.4825 9.06983 13.6327 9.25499 13.6327H12.9849C13.1701 13.6327 13.3202 13.4825 13.3202 13.2974V9.56746C13.3202 9.38229 13.1701 9.23218 12.9849 9.23218H9.25499Z" fill="#C6FF00"/>
</svg>
