<svg  viewBox="0 0 106 106" fill="none" xmlns="http://www.w3.org/2000/svg">
<rect width="105.92" height="105.92" rx="52.9598" fill="#0C3DB9"/>1
<mask id="mask0_5299_628" style="mask-type:alpha" maskUnits="userSpaceOnUse" x="0" y="0" width="106" height="106">
<rect width="105.92" height="105.92" rx="52.9598" fill="#0C3DB9"/>
</mask>
<g mask="url(#mask0_5299_628)">
<path d="M73.1689 65.4408C70.9586 71.3311 65.5846 74.3628 63.1738 75.1423L65.7212 77.8716C71.8957 75.2712 76.0352 77.043 77.3331 78.254C78.7304 72.3391 83.6506 73.1076 85.9362 74.2313C81.2327 69.385 88.465 68.6618 92.6692 68.9059C84.6659 62.7328 76.3343 64.0237 73.1689 65.4408Z" fill="#007DFF"/>
<path d="M77.2947 78.9023C71.3515 81.8169 65.1914 80.6391 62.8542 79.686L62.7148 83.294C69.1442 85.2934 70.8732 89.2071 70.934 90.9137C76.3002 87.4673 79.3376 91.14 80.1855 93.407C80.3013 86.8866 86.1264 90.9289 89.0245 93.765C87.6991 84.1873 80.6524 79.8658 77.2947 78.9023Z" fill="#007DFF"/>
<path d="M22.9736 61.4902L30.1428 77.2958L44.6658 69.7821L27.9766 58.1689L22.9736 61.4902Z" fill="#88C1FF"/>
<path d="M110.107 101.024C103.341 126.982 83.6217 114.536 76.2715 118.201" stroke="#88C1FF" stroke-width="2.26307"/>
<path d="M111.997 93.4014L106.718 98.5616L114.393 100.401L111.997 93.4014Z" fill="#007DFF" stroke="#007DFF" stroke-width="2.26307" stroke-linejoin="round"/>
<path d="M36.7316 66.8175L36.2031 62.5898L65.7257 73.4358L64.6029 77.848L36.7316 66.8175Z" fill="#BCE7FF"/>
<path d="M39.0873 19.1992L64.6914 38.6498L47.0204 61.61L21.4163 42.1594L39.0873 19.1992Z" fill="#88C1FF"/>
<path d="M63.2007 27.8942L85.8162 44.7279L59.528 77.7625L34.625 59.9206L39.0411 19.5967C39.0411 19.5967 42.8172 22.4042 47.5689 25.8476C50.3939 27.4349 55.2501 30.0596 63.2007 27.8942Z" fill="#88C1FF"/>
<path d="M25.7134 86.2273C33.8586 73.3164 34.6225 63.9211 33.9862 60.8374L74.6101 57.2402C57.3646 86.0469 65.1915 110.201 85.3443 115.712C100.276 119.796 107.139 106.479 108.698 103.456L108.716 103.42C108.716 115.017 94.0961 127.089 81.1557 128.729L27.2354 126.542C25.9869 124.551 24.8789 122.415 23.9447 120.177C23.1463 118.265 23.2037 114.581 22.7597 113.772C22.7177 113.609 21.87 113.924 21.8345 113.772C21.6722 113.078 21.5671 112.472 21.4249 111.715C19.8474 103.305 20.761 94.0776 25.7134 86.2273Z" fill="#88C1FF"/>
<path d="M53.4602 134.303C43.6943 110.164 52.3613 66.593 56.6648 59.4228C56.6648 59.4228 50.4452 62.2766 43.4521 59.9608C36.4591 57.6449 35.4141 52.7109 35.4141 52.7109C34.2495 63.0041 31.3203 69.1697 22.6078 86.0575C15.6933 99.4599 19.689 114.426 27.8172 121.903C35.9456 129.381 41.6323 131.07 45.6417 132.552C49.6511 134.034 53.4602 134.303 53.4602 134.303Z" fill="#007DFF"/>
<path d="M40.9905 85.6143L58.6478 82.913L53.8292 67.5996L38.5781 80.1566L40.9905 85.6143Z" fill="#88C1FF"/>
<path d="M59.7517 41.1557C59.7517 41.1557 58.7961 41.7889 56.1222 41.3139C53.4483 40.8389 50.9346 38.0039 50.9346 38.0039" stroke="#007DFF" stroke-width="1.67473"/>
</g>
</svg>