<svg width="14" height="11" viewBox="0 0 14 11" fill="none" xmlns="http://www.w3.org/2000/svg">
<path d="M12.172 1.76667C11.2259 0.966667 10.0906 0.566667 8.8922 0.5L8.70298 0.7C9.77523 0.966667 10.7213 1.5 11.6044 2.23333C10.5321 1.63333 9.33372 1.23333 8.07225 1.1C7.69381 1.03333 7.37844 1.03333 7 1.03333C6.62156 1.03333 6.30619 1.03333 5.92775 1.1C4.66628 1.23333 3.46789 1.63333 2.39564 2.23333C3.27867 1.5 4.22477 0.966667 5.29702 0.7L5.1078 0.5C3.9094 0.566667 2.77408 0.966667 1.82798 1.76667C0.755734 3.9 0.188073 6.3 0.125 8.76667C1.0711 9.83333 2.39564 10.5 3.78326 10.5C3.78326 10.5 4.22477 9.96667 4.54014 9.5C3.72018 9.3 2.9633 8.83333 2.45872 8.1C2.90023 8.36667 3.34174 8.63333 3.78326 8.83333C4.35092 9.1 4.91858 9.23333 5.48624 9.36667C5.99083 9.43333 6.49541 9.5 7 9.5C7.50459 9.5 8.00917 9.43333 8.51376 9.36667C9.08142 9.23333 9.64908 9.1 10.2167 8.83333C10.6583 8.63333 11.0998 8.36667 11.5413 8.1C11.0367 8.83333 10.2798 9.3 9.45986 9.5C9.77523 9.96667 10.2167 10.5 10.2167 10.5C11.6044 10.5 12.9289 9.83333 13.875 8.76667C13.8119 6.3 13.2443 3.9 12.172 1.76667ZM4.91858 7.56667C4.28784 7.56667 3.72018 6.96667 3.72018 6.23333C3.72018 5.5 4.28784 4.9 4.91858 4.9C5.54931 4.9 6.11697 5.5 6.11697 6.23333C6.11697 6.96667 5.54931 7.56667 4.91858 7.56667ZM9.08142 7.56667C8.45069 7.56667 7.88303 6.96667 7.88303 6.23333C7.88303 5.5 8.45069 4.9 9.08142 4.9C9.71216 4.9 10.2798 5.5 10.2798 6.23333C10.2798 6.96667 9.71216 7.56667 9.08142 7.56667Z" fill="white"/>
</svg>
