<svg width="25" height="24" viewBox="0 0 25 24" fill="none" xmlns="http://www.w3.org/2000/svg">
<path fill-rule="evenodd" clip-rule="evenodd" d="M9.56866 2.91333C10.3251 2.4908 11.197 2.25 12.125 2.25C13.053 2.25 13.9249 2.4908 14.6813 2.91333L15.2348 2.35984C15.3813 2.21339 15.6187 2.21339 15.7652 2.35984C15.9116 2.50628 15.9116 2.74372 15.7652 2.89016L15.3209 3.33446C16.5699 4.29419 17.375 5.80307 17.375 7.5H6.875C6.875 5.80307 7.68009 4.29419 8.92913 3.33446L8.48483 2.89016C8.33839 2.74372 8.33839 2.50628 8.48483 2.35984C8.63128 2.21339 8.86872 2.21339 9.01517 2.35984L9.56866 2.91333ZM10.625 5.25C10.625 5.66421 10.2892 6 9.875 6C9.46079 6 9.125 5.66421 9.125 5.25C9.125 4.83579 9.46079 4.5 9.875 4.5C10.2892 4.5 10.625 4.83579 10.625 5.25ZM14.375 6C14.7892 6 15.125 5.66421 15.125 5.25C15.125 4.83579 14.7892 4.5 14.375 4.5C13.9608 4.5 13.625 4.83579 13.625 5.25C13.625 5.66421 13.9608 6 14.375 6Z" fill="#D0D5DD"/>
<path d="M3.875 9.375C3.875 8.75368 4.37868 8.25 5 8.25C5.62132 8.25 6.125 8.75368 6.125 9.375V13.875C6.125 14.4963 5.62132 15 5 15C4.37868 15 3.875 14.4963 3.875 13.875V9.375Z" fill="#D0D5DD"/>
<path d="M9.125 18V20.625C9.125 21.2463 9.62868 21.75 10.25 21.75C10.8713 21.75 11.375 21.2463 11.375 20.625V18H12.875V20.625C12.875 21.2463 13.3787 21.75 14 21.75C14.6213 21.75 15.125 21.2463 15.125 20.625V18H15.875C16.7034 18 17.375 17.3284 17.375 16.5V8.25H6.875V16.5C6.875 17.3284 7.54657 18 8.375 18H9.125Z" fill="#D0D5DD"/>
<path d="M18.125 9.375C18.125 8.75368 18.6287 8.25 19.25 8.25C19.8713 8.25 20.375 8.75368 20.375 9.375V13.875C20.375 14.4963 19.8713 15 19.25 15C18.6287 15 18.125 14.4963 18.125 13.875V9.375Z" fill="#D0D5DD"/>
</svg>
