<svg width="25" height="24" viewBox="0 0 25 24" fill="none" xmlns="http://www.w3.org/2000/svg">
<path d="M22.625 12C22.625 17.796 17.9262 22.5 12.125 22.5C6.32375 22.5 1.625 17.796 1.625 12C1.625 6.19875 6.32375 1.5 12.125 1.5C17.9262 1.5 22.625 6.19875 22.625 12Z" fill="#344054"/>
<path d="M17.0466 9.34304C16.9893 9.37646 15.6253 10.0819 15.6253 11.6459C15.6896 13.4296 17.3466 14.0551 17.375 14.0551C17.3466 14.0885 17.1248 14.9072 16.468 15.7654C15.9467 16.5047 15.3682 17.25 14.4896 17.25C13.6539 17.25 13.3539 16.7573 12.3896 16.7573C11.354 16.7573 11.061 17.25 10.2681 17.25C9.38958 17.25 8.76815 16.4647 8.21845 15.7324C7.50432 14.7739 6.89733 13.2698 6.8759 11.8256C6.86146 11.0603 7.01892 10.308 7.41861 9.66904C7.98274 8.77699 8.98989 8.17143 10.0897 8.15146C10.9324 8.12498 11.6824 8.6906 12.1967 8.6906C12.6896 8.6906 13.611 8.15146 14.6536 8.15146C15.1036 8.1519 16.3036 8.27822 17.0466 9.34304ZM12.1255 7.99866C11.9755 7.29978 12.3896 6.60089 12.7753 6.15508C13.2682 5.61594 14.0466 5.25 14.7179 5.25C14.7607 5.94889 14.4891 6.63432 14.0037 7.13352C13.5682 7.67266 12.8182 8.07853 12.1255 7.99866Z" fill="white"/>
</svg>
