<svg width="23" height="20" viewBox="0 0 23 20" fill="none" xmlns="http://www.w3.org/2000/svg">
<path d="M14.125 15V19H8.125V15M4.325 15H17.925C19.0451 15 19.6052 15 20.033 14.782C20.4093 14.5903 20.7153 14.2843 20.907 13.908C21.125 13.4802 21.125 12.9201 21.125 11.8V4.2C21.125 3.0799 21.125 2.51984 20.907 2.09202C20.7153 1.71569 20.4093 1.40973 20.033 1.21799C19.6052 1 19.0451 1 17.925 1H4.325C3.20489 1 2.64484 1 2.21702 1.21799C1.84069 1.40973 1.53473 1.71569 1.34299 2.09202C1.125 2.51984 1.125 3.07989 1.125 4.2V11.8C1.125 12.9201 1.125 13.4802 1.34299 13.908C1.53473 14.2843 1.84069 14.5903 2.21702 14.782C2.64484 15 3.2049 15 4.325 15Z" stroke="#344054" stroke-width="2" stroke-linecap="round" stroke-linejoin="round"/>
</svg>
