<svg width="25" height="24" viewBox="0 0 25 24" fill="none" xmlns="http://www.w3.org/2000/svg">
<path d="M15.125 17V21H9.125V17M5.325 17H18.925C20.0451 17 20.6052 17 21.033 16.782C21.4093 16.5903 21.7153 16.2843 21.907 15.908C22.125 15.4802 22.125 14.9201 22.125 13.8V6.2C22.125 5.0799 22.125 4.51984 21.907 4.09202C21.7153 3.71569 21.4093 3.40973 21.033 3.21799C20.6052 3 20.0451 3 18.925 3H5.325C4.20489 3 3.64484 3 3.21702 3.21799C2.84069 3.40973 2.53473 3.71569 2.34299 4.09202C2.125 4.51984 2.125 5.07989 2.125 6.2V13.8C2.125 14.9201 2.125 15.4802 2.34299 15.908C2.53473 16.2843 2.84069 16.5903 3.21702 16.782C3.64484 17 4.2049 17 5.325 17Z" stroke="#D0D5DD" stroke-width="2" stroke-linecap="round" stroke-linejoin="round"/>
</svg>
