<svg width="2000" height="1000" viewBox="0 0 2000 1000" fill="none" xmlns="http://www.w3.org/2000/svg">
<g clip-path="url(#clip0_7901_69739)">
<rect width="2000" height="1000" fill="white"/>
<rect width="2000" height="1000" fill="url(#paint0_linear_7901_69739)"/>
<path d="M188.864 220.136H153.232L147.52 237H123.176L157.72 141.528H184.648L219.192 237H194.576L188.864 220.136ZM182.88 202.184L171.048 167.232L159.352 202.184H182.88ZM260.577 238.088C253.959 238.088 248.065 236.955 242.897 234.688C237.729 232.421 233.649 229.339 230.657 225.44C227.665 221.451 225.988 217.008 225.625 212.112H248.609C248.881 214.741 250.105 216.872 252.281 218.504C254.457 220.136 257.132 220.952 260.305 220.952C263.207 220.952 265.428 220.408 266.969 219.32C268.601 218.141 269.417 216.645 269.417 214.832C269.417 212.656 268.284 211.069 266.017 210.072C263.751 208.984 260.079 207.805 255.001 206.536C249.561 205.267 245.028 203.952 241.401 202.592C237.775 201.141 234.647 198.92 232.017 195.928C229.388 192.845 228.073 188.72 228.073 183.552C228.073 179.2 229.252 175.256 231.609 171.72C234.057 168.093 237.593 165.237 242.217 163.152C246.932 161.067 252.508 160.024 258.945 160.024C268.465 160.024 275.945 162.381 281.385 167.096C286.916 171.811 290.089 178.067 290.905 185.864H269.417C269.055 183.235 267.876 181.149 265.881 179.608C263.977 178.067 261.439 177.296 258.265 177.296C255.545 177.296 253.46 177.84 252.009 178.928C250.559 179.925 249.833 181.331 249.833 183.144C249.833 185.32 250.967 186.952 253.233 188.04C255.591 189.128 259.217 190.216 264.113 191.304C269.735 192.755 274.313 194.205 277.849 195.656C281.385 197.016 284.468 199.283 287.097 202.456C289.817 205.539 291.223 209.709 291.313 214.968C291.313 219.411 290.044 223.4 287.505 226.936C285.057 230.381 281.476 233.101 276.761 235.096C272.137 237.091 266.743 238.088 260.577 238.088ZM336.413 238.088C329.795 238.088 323.901 236.955 318.733 234.688C313.565 232.421 309.485 229.339 306.493 225.44C303.501 221.451 301.824 217.008 301.461 212.112H324.445C324.717 214.741 325.941 216.872 328.117 218.504C330.293 220.136 332.968 220.952 336.141 220.952C339.043 220.952 341.264 220.408 342.805 219.32C344.437 218.141 345.253 216.645 345.253 214.832C345.253 212.656 344.12 211.069 341.853 210.072C339.587 208.984 335.915 207.805 330.837 206.536C325.397 205.267 320.864 203.952 317.237 202.592C313.611 201.141 310.483 198.92 307.853 195.928C305.224 192.845 303.909 188.72 303.909 183.552C303.909 179.2 305.088 175.256 307.445 171.72C309.893 168.093 313.429 165.237 318.053 163.152C322.768 161.067 328.344 160.024 334.781 160.024C344.301 160.024 351.781 162.381 357.221 167.096C362.752 171.811 365.925 178.067 366.741 185.864H345.253C344.891 183.235 343.712 181.149 341.717 179.608C339.813 178.067 337.275 177.296 334.101 177.296C331.381 177.296 329.296 177.84 327.845 178.928C326.395 179.925 325.669 181.331 325.669 183.144C325.669 185.32 326.803 186.952 329.069 188.04C331.427 189.128 335.053 190.216 339.949 191.304C345.571 192.755 350.149 194.205 353.685 195.656C357.221 197.016 360.304 199.283 362.933 202.456C365.653 205.539 367.059 209.709 367.149 214.968C367.149 219.411 365.88 223.4 363.341 226.936C360.893 230.381 357.312 233.101 352.597 235.096C347.973 237.091 342.579 238.088 336.413 238.088ZM452.913 197.832C452.913 200.008 452.777 202.275 452.505 204.632H399.873C400.236 209.347 401.732 212.973 404.361 215.512C407.081 217.96 410.391 219.184 414.289 219.184C420.092 219.184 424.127 216.736 426.393 211.84H451.145C449.876 216.827 447.564 221.315 444.209 225.304C440.945 229.293 436.82 232.421 431.833 234.688C426.847 236.955 421.271 238.088 415.105 238.088C407.671 238.088 401.052 236.501 395.249 233.328C389.447 230.155 384.913 225.621 381.649 219.728C378.385 213.835 376.753 206.944 376.753 199.056C376.753 191.168 378.34 184.277 381.513 178.384C384.777 172.491 389.311 167.957 395.113 164.784C400.916 161.611 407.58 160.024 415.105 160.024C422.449 160.024 428.977 161.565 434.689 164.648C440.401 167.731 444.844 172.128 448.017 177.84C451.281 183.552 452.913 190.216 452.913 197.832ZM429.113 191.712C429.113 187.723 427.753 184.549 425.033 182.192C422.313 179.835 418.913 178.656 414.833 178.656C410.935 178.656 407.625 179.789 404.905 182.056C402.276 184.323 400.644 187.541 400.009 191.712H429.113ZM507.478 217.28V237H495.646C487.214 237 480.641 234.96 475.926 230.88C471.211 226.709 468.854 219.955 468.854 210.616V180.424H459.606V161.112H468.854V142.616H492.11V161.112H507.342V180.424H492.11V210.888C492.11 213.155 492.654 214.787 493.742 215.784C494.83 216.781 496.643 217.28 499.182 217.28H507.478ZM544.628 198.92C544.628 191.123 546.079 184.277 548.98 178.384C551.972 172.491 556.007 167.957 561.084 164.784C566.162 161.611 571.828 160.024 578.084 160.024C583.071 160.024 587.604 161.067 591.684 163.152C595.855 165.237 599.119 168.048 601.476 171.584V136.36H624.732V237H601.476V226.12C599.3 229.747 596.172 232.648 592.092 234.824C588.103 237 583.434 238.088 578.084 238.088C571.828 238.088 566.162 236.501 561.084 233.328C556.007 230.064 551.972 225.485 548.98 219.592C546.079 213.608 544.628 206.717 544.628 198.92ZM601.476 199.056C601.476 193.253 599.844 188.675 596.58 185.32C593.407 181.965 589.508 180.288 584.884 180.288C580.26 180.288 576.316 181.965 573.052 185.32C569.879 188.584 568.292 193.117 568.292 198.92C568.292 204.723 569.879 209.347 573.052 212.792C576.316 216.147 580.26 217.824 584.884 217.824C589.508 217.824 593.407 216.147 596.58 212.792C599.844 209.437 601.476 204.859 601.476 199.056ZM713.093 197.832C713.093 200.008 712.957 202.275 712.685 204.632H660.053C660.416 209.347 661.912 212.973 664.541 215.512C667.261 217.96 670.57 219.184 674.469 219.184C680.272 219.184 684.306 216.736 686.573 211.84H711.325C710.056 216.827 707.744 221.315 704.389 225.304C701.125 229.293 697 232.421 692.013 234.688C687.026 236.955 681.45 238.088 675.285 238.088C667.85 238.088 661.232 236.501 655.429 233.328C649.626 230.155 645.093 225.621 641.829 219.728C638.565 213.835 636.933 206.944 636.933 199.056C636.933 191.168 638.52 184.277 641.693 178.384C644.957 172.491 649.49 167.957 655.293 164.784C661.096 161.611 667.76 160.024 675.285 160.024C682.629 160.024 689.157 161.565 694.869 164.648C700.581 167.731 705.024 172.128 708.197 177.84C711.461 183.552 713.093 190.216 713.093 197.832ZM689.293 191.712C689.293 187.723 687.933 184.549 685.213 182.192C682.493 179.835 679.093 178.656 675.013 178.656C671.114 178.656 667.805 179.789 665.085 182.056C662.456 184.323 660.824 187.541 660.189 191.712H689.293ZM767.658 217.28V237H755.826C747.394 237 740.82 234.96 736.106 230.88C731.391 226.709 729.034 219.955 729.034 210.616V180.424H719.786V161.112H729.034V142.616H752.29V161.112H767.522V180.424H752.29V210.888C752.29 213.155 752.834 214.787 753.922 215.784C755.01 216.781 756.823 217.28 759.362 217.28H767.658ZM775.988 198.92C775.988 191.123 777.438 184.277 780.34 178.384C783.332 172.491 787.366 167.957 792.444 164.784C797.521 161.611 803.188 160.024 809.444 160.024C814.793 160.024 819.462 161.112 823.452 163.288C827.532 165.464 830.66 168.32 832.836 171.856V161.112H856.092V237H832.836V226.256C830.569 229.792 827.396 232.648 823.316 234.824C819.326 237 814.657 238.088 809.308 238.088C803.142 238.088 797.521 236.501 792.444 233.328C787.366 230.064 783.332 225.485 780.34 219.592C777.438 213.608 775.988 206.717 775.988 198.92ZM832.836 199.056C832.836 193.253 831.204 188.675 827.94 185.32C824.766 181.965 820.868 180.288 816.244 180.288C811.62 180.288 807.676 181.965 804.412 185.32C801.238 188.584 799.652 193.117 799.652 198.92C799.652 204.723 801.238 209.347 804.412 212.792C807.676 216.147 811.62 217.824 816.244 217.824C820.868 217.824 824.766 216.147 827.94 212.792C831.204 209.437 832.836 204.859 832.836 199.056ZM884.612 153.224C880.532 153.224 877.178 152.045 874.548 149.688C872.01 147.24 870.74 144.248 870.74 140.712C870.74 137.085 872.01 134.093 874.548 131.736C877.178 129.288 880.532 128.064 884.612 128.064C888.602 128.064 891.866 129.288 894.404 131.736C897.034 134.093 898.348 137.085 898.348 140.712C898.348 144.248 897.034 147.24 894.404 149.688C891.866 152.045 888.602 153.224 884.612 153.224ZM896.172 161.112V237H872.916V161.112H896.172ZM936.282 136.36V237H913.026V136.36H936.282Z" fill="white"/>
<rect x="121" y="391" width="1758" height="488" rx="12" fill="#F9FAFB"/>
<rect x="217" y="455" width="360" height="360" rx="12" fill="#D0D5DD"/>
<rect x="673" y="457.5" width="148" height="45" rx="4" fill="#E4E7EC"/>
<rect x="901" y="458" width="609" height="45" rx="4" fill="#D0D5DD"/>
<rect x="673" y="535.5" width="187" height="45" rx="4" fill="#E4E7EC"/>
<rect x="901" y="535" width="778" height="45" rx="4" fill="#D0D5DD"/>
<rect x="673" y="611.5" width="88" height="45" rx="4" fill="#E4E7EC"/>
<rect x="901" y="612" width="407" height="45" rx="4" fill="#D0D5DD"/>
<rect x="673" y="688.5" width="139" height="45" rx="4" fill="#E4E7EC"/>
<rect x="901" y="689" width="273" height="46" rx="4" fill="#D0D5DD"/>
<rect x="673" y="767.5" width="200" height="45" rx="4" fill="#E4E7EC"/>
<rect x="901" y="767" width="652" height="45" rx="4" fill="#D0D5DD"/>
<mask id="mask0_7901_69739" style="mask-type:alpha" maskUnits="userSpaceOnUse" x="-455" y="184" width="651" height="651">
<rect x="-226.316" y="834.707" width="480" height="480" rx="12" transform="rotate(-118.452 -226.316 834.707)" fill="url(#paint1_linear_7901_69739)"/>
</mask>
<g mask="url(#mask0_7901_69739)">
<rect x="-140.628" y="664.528" width="220" height="220" rx="10" transform="rotate(-130.952 -140.628 664.528)" stroke="#2CCEFF" stroke-width="4"/>
<rect x="-143.824" y="709.671" width="284" height="284" rx="10" transform="rotate(-130.952 -143.824 709.671)" stroke="#2CCEFF" stroke-width="4"/>
<rect x="-147.015" y="754.813" width="348" height="348" rx="10" transform="rotate(-130.952 -147.015 754.813)" stroke="#2CCEFF" stroke-width="4"/>
<rect x="-150.21" y="799.956" width="412" height="412" rx="10" transform="rotate(-130.952 -150.21 799.956)" stroke="#2CCEFF" stroke-width="4"/>
<rect x="-153.406" y="845.097" width="476" height="476" rx="10" transform="rotate(-130.952 -153.406 845.097)" stroke="#2CCEFF" stroke-width="4"/>
</g>
<mask id="mask1_7901_69739" style="mask-type:alpha" maskUnits="userSpaceOnUse" x="1609" y="-229" width="628" height="628">
<rect x="1794.06" y="-229" width="480" height="480" rx="12" transform="rotate(22.6777 1794.06 -229)" fill="url(#paint2_linear_7901_69739)"/>
</mask>
<g mask="url(#mask1_7901_69739)">
<rect x="1885.02" y="30.411" width="94" height="94" rx="11" transform="rotate(10.1777 1885.02 30.411)" stroke="#2CCEFF" stroke-width="2"/>
<rect x="1859.99" y="-5.57846" width="156" height="156" rx="10" transform="rotate(10.1777 1859.99 -5.57846)" stroke="#2CCEFF" stroke-width="4"/>
<rect x="1834.15" y="-42.7288" width="220" height="220" rx="10" transform="rotate(10.1777 1834.15 -42.7288)" stroke="#2CCEFF" stroke-width="4"/>
<rect x="1808.3" y="-79.8812" width="284" height="284" rx="10" transform="rotate(10.1777 1808.3 -79.8812)" stroke="#2CCEFF" stroke-width="4"/>
<rect x="1782.46" y="-117.032" width="348" height="348" rx="10" transform="rotate(10.1777 1782.46 -117.032)" stroke="#2CCEFF" stroke-width="4"/>
<rect x="1756.62" y="-154.182" width="412" height="412" rx="10" transform="rotate(10.1777 1756.62 -154.182)" stroke="#2CCEFF" stroke-width="4"/>
<rect x="1730.78" y="-191.332" width="476" height="476" rx="10" transform="rotate(10.1777 1730.78 -191.332)" stroke="#2CCEFF" stroke-width="4"/>
</g>
</g>
<defs>
<linearGradient id="paint0_linear_7901_69739" x1="-3.86544e-05" y1="12.037" x2="805.855" y2="1604.35" gradientUnits="userSpaceOnUse">
<stop stop-color="#242A33"/>
<stop offset="1" stop-color="#053246"/>
</linearGradient>
<linearGradient id="paint1_linear_7901_69739" x1="13.6836" y1="834.707" x2="13.6836" y2="1314.71" gradientUnits="userSpaceOnUse">
<stop/>
<stop offset="0.991144" stop-opacity="0"/>
</linearGradient>
<linearGradient id="paint2_linear_7901_69739" x1="2034.06" y1="-229" x2="2034.06" y2="251" gradientUnits="userSpaceOnUse">
<stop/>
<stop offset="0.991144" stop-opacity="0"/>
</linearGradient>
<clipPath id="clip0_7901_69739">
<rect width="2000" height="1000" fill="white"/>
</clipPath>
</defs>
</svg>
