<svg width="2000" height="1000" viewBox="0 0 2000 1000" fill="none" xmlns="http://www.w3.org/2000/svg">
<g clip-path="url(#clip0_7838_71356)">
<rect width="2000" height="1000" fill="white"/>
<rect width="2000" height="1000" fill="url(#paint0_linear_7838_71356)"/>
<path d="M187.232 188.04C192.763 189.219 197.205 191.984 200.56 196.336C203.915 200.597 205.592 205.493 205.592 211.024C205.592 219.003 202.781 225.349 197.16 230.064C191.629 234.688 183.877 237 173.904 237H129.432V141.528H172.408C182.109 141.528 189.68 143.749 195.12 148.192C200.651 152.635 203.416 158.664 203.416 166.28C203.416 171.901 201.92 176.571 198.928 180.288C196.027 184.005 192.128 186.589 187.232 188.04ZM152.688 180.152H167.92C171.728 180.152 174.629 179.336 176.624 177.704C178.709 175.981 179.752 173.488 179.752 170.224C179.752 166.96 178.709 164.467 176.624 162.744C174.629 161.021 171.728 160.16 167.92 160.16H152.688V180.152ZM169.824 218.232C173.723 218.232 176.715 217.371 178.8 215.648C180.976 213.835 182.064 211.251 182.064 207.896C182.064 204.541 180.931 201.912 178.664 200.008C176.488 198.104 173.451 197.152 169.552 197.152H152.688V218.232H169.824ZM242.336 136.36V237H219.08V136.36H242.336ZM293.734 238.088C286.299 238.088 279.59 236.501 273.606 233.328C267.712 230.155 263.043 225.621 259.598 219.728C256.243 213.835 254.566 206.944 254.566 199.056C254.566 191.259 256.288 184.413 259.734 178.52C263.179 172.536 267.894 167.957 273.878 164.784C279.862 161.611 286.571 160.024 294.006 160.024C301.44 160.024 308.15 161.611 314.134 164.784C320.118 167.957 324.832 172.536 328.278 178.52C331.723 184.413 333.446 191.259 333.446 199.056C333.446 206.853 331.678 213.744 328.142 219.728C324.696 225.621 319.936 230.155 313.862 233.328C307.878 236.501 301.168 238.088 293.734 238.088ZM293.734 217.96C298.176 217.96 301.939 216.328 305.022 213.064C308.195 209.8 309.782 205.131 309.782 199.056C309.782 192.981 308.24 188.312 305.158 185.048C302.166 181.784 298.448 180.152 294.006 180.152C289.472 180.152 285.71 181.784 282.718 185.048C279.726 188.221 278.23 192.891 278.23 199.056C278.23 205.131 279.68 209.8 282.582 213.064C285.574 216.328 289.291 217.96 293.734 217.96ZM341.16 199.056C341.16 191.168 342.746 184.277 345.92 178.384C349.184 172.491 353.672 167.957 359.384 164.784C365.186 161.611 371.805 160.024 379.24 160.024C388.76 160.024 396.693 162.517 403.04 167.504C409.477 172.491 413.693 179.517 415.688 188.584H390.936C388.85 182.781 384.816 179.88 378.832 179.88C374.57 179.88 371.17 181.557 368.632 184.912C366.093 188.176 364.824 192.891 364.824 199.056C364.824 205.221 366.093 209.981 368.632 213.336C371.17 216.6 374.57 218.232 378.832 218.232C384.816 218.232 388.85 215.331 390.936 209.528H415.688C413.693 218.413 409.477 225.395 403.04 230.472C396.602 235.549 388.669 238.088 379.24 238.088C371.805 238.088 365.186 236.501 359.384 233.328C353.672 230.155 349.184 225.621 345.92 219.728C342.746 213.835 341.16 206.944 341.16 199.056ZM474.503 237L451.383 205.176V237H428.127V136.36H451.383V191.984L474.367 161.112H503.063L471.511 199.192L503.335 237H474.503ZM571.89 238.088C565.271 238.088 559.378 236.955 554.21 234.688C549.042 232.421 544.962 229.339 541.97 225.44C538.978 221.451 537.301 217.008 536.938 212.112H559.922C560.194 214.741 561.418 216.872 563.594 218.504C565.77 220.136 568.445 220.952 571.618 220.952C574.519 220.952 576.741 220.408 578.282 219.32C579.914 218.141 580.73 216.645 580.73 214.832C580.73 212.656 579.597 211.069 577.33 210.072C575.063 208.984 571.391 207.805 566.314 206.536C560.874 205.267 556.341 203.952 552.714 202.592C549.087 201.141 545.959 198.92 543.33 195.928C540.701 192.845 539.386 188.72 539.386 183.552C539.386 179.2 540.565 175.256 542.922 171.72C545.37 168.093 548.906 165.237 553.53 163.152C558.245 161.067 563.821 160.024 570.258 160.024C579.778 160.024 587.258 162.381 592.698 167.096C598.229 171.811 601.402 178.067 602.218 185.864H580.73C580.367 183.235 579.189 181.149 577.194 179.608C575.29 178.067 572.751 177.296 569.578 177.296C566.858 177.296 564.773 177.84 563.322 178.928C561.871 179.925 561.146 181.331 561.146 183.144C561.146 185.32 562.279 186.952 564.546 188.04C566.903 189.128 570.53 190.216 575.426 191.304C581.047 192.755 585.626 194.205 589.162 195.656C592.698 197.016 595.781 199.283 598.41 202.456C601.13 205.539 602.535 209.709 602.626 214.968C602.626 219.411 601.357 223.4 598.818 226.936C596.37 230.381 592.789 233.101 588.074 235.096C583.45 237.091 578.055 238.088 571.89 238.088ZM628.55 153.224C624.47 153.224 621.115 152.045 618.486 149.688C615.947 147.24 614.678 144.248 614.678 140.712C614.678 137.085 615.947 134.093 618.486 131.736C621.115 129.288 624.47 128.064 628.55 128.064C632.539 128.064 635.803 129.288 638.342 131.736C640.971 134.093 642.286 137.085 642.286 140.712C642.286 144.248 640.971 147.24 638.342 149.688C635.803 152.045 632.539 153.224 628.55 153.224ZM640.11 161.112V237H616.854V161.112H640.11ZM678.723 217.824H711.635V237H652.747V218.504L684.299 180.288H653.019V161.112H710.955V179.608L678.723 217.824ZM795.968 197.832C795.968 200.008 795.832 202.275 795.56 204.632H742.928C743.291 209.347 744.787 212.973 747.416 215.512C750.136 217.96 753.445 219.184 757.344 219.184C763.147 219.184 767.181 216.736 769.448 211.84H794.2C792.931 216.827 790.619 221.315 787.264 225.304C784 229.293 779.875 232.421 774.888 234.688C769.901 236.955 764.325 238.088 758.16 238.088C750.725 238.088 744.107 236.501 738.304 233.328C732.501 230.155 727.968 225.621 724.704 219.728C721.44 213.835 719.808 206.944 719.808 199.056C719.808 191.168 721.395 184.277 724.568 178.384C727.832 172.491 732.365 167.957 738.168 164.784C743.971 161.611 750.635 160.024 758.16 160.024C765.504 160.024 772.032 161.565 777.744 164.648C783.456 167.731 787.899 172.128 791.072 177.84C794.336 183.552 795.968 190.216 795.968 197.832ZM772.168 191.712C772.168 187.723 770.808 184.549 768.088 182.192C765.368 179.835 761.968 178.656 757.888 178.656C753.989 178.656 750.68 179.789 747.96 182.056C745.331 184.323 743.699 187.541 743.064 191.712H772.168ZM911.993 161.112V237H888.737V226.664C886.38 230.019 883.161 232.739 879.081 234.824C875.092 236.819 870.649 237.816 865.753 237.816C859.95 237.816 854.828 236.547 850.385 234.008C845.942 231.379 842.497 227.616 840.049 222.72C837.601 217.824 836.377 212.067 836.377 205.448V161.112H859.497V202.32C859.497 207.397 860.812 211.341 863.441 214.152C866.07 216.963 869.606 218.368 874.049 218.368C878.582 218.368 882.164 216.963 884.793 214.152C887.422 211.341 888.737 207.397 888.737 202.32V161.112H911.993ZM959.57 238.088C952.951 238.088 947.058 236.955 941.89 234.688C936.722 232.421 932.642 229.339 929.65 225.44C926.658 221.451 924.98 217.008 924.618 212.112H947.602C947.874 214.741 949.098 216.872 951.274 218.504C953.45 220.136 956.124 220.952 959.298 220.952C962.199 220.952 964.42 220.408 965.962 219.32C967.594 218.141 968.41 216.645 968.41 214.832C968.41 212.656 967.276 211.069 965.01 210.072C962.743 208.984 959.071 207.805 953.994 206.536C948.554 205.267 944.02 203.952 940.394 202.592C936.767 201.141 933.639 198.92 931.01 195.928C928.38 192.845 927.066 188.72 927.066 183.552C927.066 179.2 928.244 175.256 930.602 171.72C933.05 168.093 936.586 165.237 941.21 163.152C945.924 161.067 951.5 160.024 957.938 160.024C967.458 160.024 974.938 162.381 980.378 167.096C985.908 171.811 989.082 178.067 989.898 185.864H968.41C968.047 183.235 966.868 181.149 964.874 179.608C962.97 178.067 960.431 177.296 957.258 177.296C954.538 177.296 952.452 177.84 951.002 178.928C949.551 179.925 948.826 181.331 948.826 183.144C948.826 185.32 949.959 186.952 952.226 188.04C954.583 189.128 958.21 190.216 963.106 191.304C968.727 192.755 973.306 194.205 976.842 195.656C980.378 197.016 983.46 199.283 986.09 202.456C988.81 205.539 990.215 209.709 990.306 214.968C990.306 219.411 989.036 223.4 986.498 226.936C984.05 230.381 980.468 233.101 975.754 235.096C971.13 237.091 965.735 238.088 959.57 238.088ZM1076.07 197.832C1076.07 200.008 1075.93 202.275 1075.66 204.632H1023.03C1023.39 209.347 1024.89 212.973 1027.52 215.512C1030.24 217.96 1033.55 219.184 1037.45 219.184C1043.25 219.184 1047.28 216.736 1049.55 211.84H1074.3C1073.03 216.827 1070.72 221.315 1067.37 225.304C1064.1 229.293 1059.98 232.421 1054.99 234.688C1050 236.955 1044.43 238.088 1038.26 238.088C1030.83 238.088 1024.21 236.501 1018.41 233.328C1012.6 230.155 1008.07 225.621 1004.81 219.728C1001.54 213.835 999.91 206.944 999.91 199.056C999.91 191.168 1001.5 184.277 1004.67 178.384C1007.93 172.491 1012.47 167.957 1018.27 164.784C1024.07 161.611 1030.74 160.024 1038.26 160.024C1045.61 160.024 1052.13 161.565 1057.85 164.648C1063.56 167.731 1068 172.128 1071.17 177.84C1074.44 183.552 1076.07 190.216 1076.07 197.832ZM1052.27 191.712C1052.27 187.723 1050.91 184.549 1048.19 182.192C1045.47 179.835 1042.07 178.656 1037.99 178.656C1034.09 178.656 1030.78 179.789 1028.06 182.056C1025.43 184.323 1023.8 187.541 1023.17 191.712H1052.27ZM1083.71 198.92C1083.71 191.123 1085.16 184.277 1088.07 178.384C1091.06 172.491 1095.09 167.957 1100.17 164.784C1105.25 161.611 1110.91 160.024 1117.17 160.024C1122.16 160.024 1126.69 161.067 1130.77 163.152C1134.94 165.237 1138.2 168.048 1140.56 171.584V136.36H1163.82V237H1140.56V226.12C1138.39 229.747 1135.26 232.648 1131.18 234.824C1127.19 237 1122.52 238.088 1117.17 238.088C1110.91 238.088 1105.25 236.501 1100.17 233.328C1095.09 230.064 1091.06 225.485 1088.07 219.592C1085.16 213.608 1083.71 206.717 1083.71 198.92ZM1140.56 199.056C1140.56 193.253 1138.93 188.675 1135.67 185.32C1132.49 181.965 1128.59 180.288 1123.97 180.288C1119.35 180.288 1115.4 181.965 1112.14 185.32C1108.96 188.584 1107.38 193.117 1107.38 198.92C1107.38 204.723 1108.96 209.347 1112.14 212.792C1115.4 216.147 1119.35 217.824 1123.97 217.824C1128.59 217.824 1132.49 216.147 1135.67 212.792C1138.93 209.437 1140.56 204.859 1140.56 199.056Z" fill="white"/>
<rect x="121" y="391" width="1758" height="488" rx="12" fill="#F9FAFB"/>
<path d="M173 477C173 473.686 175.686 471 179 471H263C266.314 471 269 473.686 269 477V847H173V477Z" fill="#2CCEFF"/>
<path d="M173 586.666C173 583.352 175.686 580.666 179 580.666H263C266.314 580.666 269 583.352 269 586.666V846.999H173V586.666Z" fill="#0075AB"/>
<path d="M173 712C173 708.686 175.686 706 179 706H263C266.314 706 269 708.686 269 712V847H173V712Z" fill="#065274"/>
<path d="M314.637 445C314.637 441.686 317.323 439 320.637 439H404.637C407.95 439 410.637 441.686 410.637 445V847H314.637V445Z" fill="#2CCEFF"/>
<path d="M314.637 564C314.637 560.686 317.323 558 320.637 558H404.637C407.95 558 410.637 560.686 410.637 564V847H314.637V564Z" fill="#0075AB"/>
<path d="M314.637 700C314.637 696.686 317.323 694 320.637 694H404.637C407.95 694 410.637 696.686 410.637 700V847H314.637V700Z" fill="#065274"/>
<path d="M456.273 509C456.273 505.686 458.96 503 462.273 503H546.273C549.587 503 552.273 505.686 552.273 509V847H456.273V509Z" fill="#2CCEFF"/>
<path d="M456.273 609.334C456.273 606.02 458.96 603.334 462.273 603.334H546.273C549.587 603.334 552.273 606.02 552.273 609.334V847.001H456.273V609.334Z" fill="#0075AB"/>
<path d="M456.273 724C456.273 720.686 458.96 718 462.273 718H546.273C549.587 718 552.273 720.686 552.273 724V847H456.273V724Z" fill="#065274"/>
<path d="M597.91 469C597.91 465.686 600.596 463 603.91 463H687.91C691.224 463 693.91 465.686 693.91 469V847H597.91V469Z" fill="#2CCEFF"/>
<path d="M597.91 581C597.91 577.686 600.596 575 603.91 575H687.91C691.224 575 693.91 577.686 693.91 581V847H597.91V581Z" fill="#0075AB"/>
<path d="M597.91 709C597.91 705.686 600.596 703 603.91 703H687.91C691.224 703 693.91 705.686 693.91 709V847H597.91V709Z" fill="#065274"/>
<path d="M739.547 509C739.547 505.686 742.233 503 745.547 503H829.547C832.861 503 835.547 505.686 835.547 509V847H739.547V509Z" fill="#2CCEFF"/>
<path d="M739.547 609.334C739.547 606.02 742.233 603.334 745.547 603.334H829.547C832.861 603.334 835.547 606.02 835.547 609.334V847.001H739.547V609.334Z" fill="#0075AB"/>
<path d="M739.547 724C739.547 720.686 742.233 718 745.547 718H829.547C832.861 718 835.547 720.686 835.547 724V847H739.547V724Z" fill="#065274"/>
<path d="M881.184 453C881.184 449.686 883.87 447 887.184 447H971.184C974.497 447 977.184 449.686 977.184 453V847H881.184V453Z" fill="#2CCEFF"/>
<path d="M881.184 569.666C881.184 566.352 883.87 563.666 887.184 563.666H971.184C974.497 563.666 977.184 566.352 977.184 569.666V846.999H881.184V569.666Z" fill="#0075AB"/>
<path d="M881.184 703C881.184 699.686 883.87 697 887.184 697H971.184C974.497 697 977.184 699.686 977.184 703V847H881.184V703Z" fill="#065274"/>
<path d="M1022.82 477C1022.82 473.686 1025.5 471 1028.82 471H1112.82C1116.13 471 1118.82 473.686 1118.82 477V847H1022.82V477Z" fill="#2CCEFF"/>
<path d="M1022.82 586.666C1022.82 583.352 1025.5 580.666 1028.82 580.666H1112.82C1116.13 580.666 1118.82 583.352 1118.82 586.666V846.999H1022.82V586.666Z" fill="#0075AB"/>
<path d="M1022.82 712C1022.82 708.686 1025.5 706 1028.82 706H1112.82C1116.13 706 1118.82 708.686 1118.82 712V847H1022.82V712Z" fill="#065274"/>
<path d="M1164.45 469C1164.45 465.686 1167.14 463 1170.45 463H1254.45C1257.77 463 1260.45 465.686 1260.45 469V847H1164.45V469Z" fill="#2CCEFF"/>
<path d="M1164.45 581C1164.45 577.686 1167.14 575 1170.45 575H1254.45C1257.77 575 1260.45 577.686 1260.45 581V847H1164.45V581Z" fill="#0075AB"/>
<path d="M1164.45 709C1164.45 705.686 1167.14 703 1170.45 703H1254.45C1257.77 703 1260.45 705.686 1260.45 709V847H1164.45V709Z" fill="#065274"/>
<path d="M1306.09 477C1306.09 473.686 1308.78 471 1312.09 471H1396.09C1399.4 471 1402.09 473.686 1402.09 477V847H1306.09V477Z" fill="#2CCEFF"/>
<path d="M1306.09 586.666C1306.09 583.352 1308.78 580.666 1312.09 580.666H1396.09C1399.4 580.666 1402.09 583.352 1402.09 586.666V846.999H1306.09V586.666Z" fill="#0075AB"/>
<path d="M1306.09 712C1306.09 708.686 1308.78 706 1312.09 706H1396.09C1399.4 706 1402.09 708.686 1402.09 712V847H1306.09V712Z" fill="#065274"/>
<path d="M1447.73 461C1447.73 457.686 1450.41 455 1453.73 455H1537.73C1541.04 455 1543.73 457.686 1543.73 461V847H1447.73V461Z" fill="#2CCEFF"/>
<path d="M1447.73 575.334C1447.73 572.02 1450.41 569.334 1453.73 569.334H1537.73C1541.04 569.334 1543.73 572.02 1543.73 575.334V847.001H1447.73V575.334Z" fill="#0075AB"/>
<path d="M1447.73 706C1447.73 702.686 1450.41 700 1453.73 700H1537.73C1541.04 700 1543.73 702.686 1543.73 706V847H1447.73V706Z" fill="#065274"/>
<path d="M1589.36 445C1589.36 441.686 1592.05 439 1595.36 439H1679.36C1682.68 439 1685.36 441.686 1685.36 445V847H1589.36V445Z" fill="#2CCEFF"/>
<path d="M1589.36 564C1589.36 560.686 1592.05 558 1595.36 558H1679.36C1682.68 558 1685.36 560.686 1685.36 564V847H1589.36V564Z" fill="#0075AB"/>
<path d="M1589.36 700C1589.36 696.686 1592.05 694 1595.36 694H1679.36C1682.68 694 1685.36 696.686 1685.36 700V847H1589.36V700Z" fill="#065274"/>
<path d="M1731 485C1731 481.686 1733.69 479 1737 479H1821C1824.31 479 1827 481.686 1827 485V847H1731V485Z" fill="#2CCEFF"/>
<path d="M1731 592.334C1731 589.02 1733.69 586.334 1737 586.334H1821C1824.31 586.334 1827 589.02 1827 592.334V847.001H1731V592.334Z" fill="#0075AB"/>
<path d="M1731 715C1731 711.686 1733.69 709 1737 709H1821C1824.31 709 1827 711.686 1827 715V847H1731V715Z" fill="#065274"/>
<mask id="mask0_7838_71356" style="mask-type:alpha" maskUnits="userSpaceOnUse" x="-455" y="184" width="651" height="651">
<rect x="-226.316" y="834.707" width="480" height="480" rx="12" transform="rotate(-118.452 -226.316 834.707)" fill="url(#paint1_linear_7838_71356)"/>
</mask>
<g mask="url(#mask0_7838_71356)">
<rect x="-140.628" y="664.528" width="220" height="220" rx="10" transform="rotate(-130.952 -140.628 664.528)" stroke="#2CCEFF" stroke-width="4"/>
<rect x="-143.824" y="709.671" width="284" height="284" rx="10" transform="rotate(-130.952 -143.824 709.671)" stroke="#2CCEFF" stroke-width="4"/>
<rect x="-147.015" y="754.813" width="348" height="348" rx="10" transform="rotate(-130.952 -147.015 754.813)" stroke="#2CCEFF" stroke-width="4"/>
<rect x="-150.21" y="799.956" width="412" height="412" rx="10" transform="rotate(-130.952 -150.21 799.956)" stroke="#2CCEFF" stroke-width="4"/>
<rect x="-153.406" y="845.097" width="476" height="476" rx="10" transform="rotate(-130.952 -153.406 845.097)" stroke="#2CCEFF" stroke-width="4"/>
</g>
<mask id="mask1_7838_71356" style="mask-type:alpha" maskUnits="userSpaceOnUse" x="1609" y="-229" width="628" height="628">
<rect x="1794.06" y="-229" width="480" height="480" rx="12" transform="rotate(22.6777 1794.06 -229)" fill="url(#paint2_linear_7838_71356)"/>
</mask>
<g mask="url(#mask1_7838_71356)">
<rect x="1885.02" y="30.411" width="94" height="94" rx="11" transform="rotate(10.1777 1885.02 30.411)" stroke="#2CCEFF" stroke-width="2"/>
<rect x="1859.99" y="-5.57846" width="156" height="156" rx="10" transform="rotate(10.1777 1859.99 -5.57846)" stroke="#2CCEFF" stroke-width="4"/>
<rect x="1834.15" y="-42.7288" width="220" height="220" rx="10" transform="rotate(10.1777 1834.15 -42.7288)" stroke="#2CCEFF" stroke-width="4"/>
<rect x="1808.3" y="-79.8812" width="284" height="284" rx="10" transform="rotate(10.1777 1808.3 -79.8812)" stroke="#2CCEFF" stroke-width="4"/>
<rect x="1782.46" y="-117.032" width="348" height="348" rx="10" transform="rotate(10.1777 1782.46 -117.032)" stroke="#2CCEFF" stroke-width="4"/>
<rect x="1756.62" y="-154.182" width="412" height="412" rx="10" transform="rotate(10.1777 1756.62 -154.182)" stroke="#2CCEFF" stroke-width="4"/>
<rect x="1730.78" y="-191.332" width="476" height="476" rx="10" transform="rotate(10.1777 1730.78 -191.332)" stroke="#2CCEFF" stroke-width="4"/>
</g>
</g>
<defs>
<linearGradient id="paint0_linear_7838_71356" x1="-3.86544e-05" y1="12.037" x2="805.855" y2="1604.35" gradientUnits="userSpaceOnUse">
<stop stop-color="#242A33"/>
<stop offset="1" stop-color="#053246"/>
</linearGradient>
<linearGradient id="paint1_linear_7838_71356" x1="13.6836" y1="834.707" x2="13.6836" y2="1314.71" gradientUnits="userSpaceOnUse">
<stop/>
<stop offset="0.991144" stop-opacity="0"/>
</linearGradient>
<linearGradient id="paint2_linear_7838_71356" x1="2034.06" y1="-229" x2="2034.06" y2="251" gradientUnits="userSpaceOnUse">
<stop/>
<stop offset="0.991144" stop-opacity="0"/>
</linearGradient>
<clipPath id="clip0_7838_71356">
<rect width="2000" height="1000" fill="white"/>
</clipPath>
</defs>
</svg>
