<svg width="2000" height="1000" viewBox="0 0 2000 1000" fill="none" xmlns="http://www.w3.org/2000/svg">
<g clip-path="url(#clip0_7838_71270)">
<rect width="2000" height="1000" fill="white"/>
<rect width="2000" height="1000" fill="url(#paint0_linear_7838_71270)"/>
<path d="M187.232 188.04C192.763 189.219 197.205 191.984 200.56 196.336C203.915 200.597 205.592 205.493 205.592 211.024C205.592 219.003 202.781 225.349 197.16 230.064C191.629 234.688 183.877 237 173.904 237H129.432V141.528H172.408C182.109 141.528 189.68 143.749 195.12 148.192C200.651 152.635 203.416 158.664 203.416 166.28C203.416 171.901 201.92 176.571 198.928 180.288C196.027 184.005 192.128 186.589 187.232 188.04ZM152.688 180.152H167.92C171.728 180.152 174.629 179.336 176.624 177.704C178.709 175.981 179.752 173.488 179.752 170.224C179.752 166.96 178.709 164.467 176.624 162.744C174.629 161.021 171.728 160.16 167.92 160.16H152.688V180.152ZM169.824 218.232C173.723 218.232 176.715 217.371 178.8 215.648C180.976 213.835 182.064 211.251 182.064 207.896C182.064 204.541 180.931 201.912 178.664 200.008C176.488 198.104 173.451 197.152 169.552 197.152H152.688V218.232H169.824ZM242.336 136.36V237H219.08V136.36H242.336ZM293.734 238.088C286.299 238.088 279.59 236.501 273.606 233.328C267.712 230.155 263.043 225.621 259.598 219.728C256.243 213.835 254.566 206.944 254.566 199.056C254.566 191.259 256.288 184.413 259.734 178.52C263.179 172.536 267.894 167.957 273.878 164.784C279.862 161.611 286.571 160.024 294.006 160.024C301.44 160.024 308.15 161.611 314.134 164.784C320.118 167.957 324.832 172.536 328.278 178.52C331.723 184.413 333.446 191.259 333.446 199.056C333.446 206.853 331.678 213.744 328.142 219.728C324.696 225.621 319.936 230.155 313.862 233.328C307.878 236.501 301.168 238.088 293.734 238.088ZM293.734 217.96C298.176 217.96 301.939 216.328 305.022 213.064C308.195 209.8 309.782 205.131 309.782 199.056C309.782 192.981 308.24 188.312 305.158 185.048C302.166 181.784 298.448 180.152 294.006 180.152C289.472 180.152 285.71 181.784 282.718 185.048C279.726 188.221 278.23 192.891 278.23 199.056C278.23 205.131 279.68 209.8 282.582 213.064C285.574 216.328 289.291 217.96 293.734 217.96ZM341.16 199.056C341.16 191.168 342.746 184.277 345.92 178.384C349.184 172.491 353.672 167.957 359.384 164.784C365.186 161.611 371.805 160.024 379.24 160.024C388.76 160.024 396.693 162.517 403.04 167.504C409.477 172.491 413.693 179.517 415.688 188.584H390.936C388.85 182.781 384.816 179.88 378.832 179.88C374.57 179.88 371.17 181.557 368.632 184.912C366.093 188.176 364.824 192.891 364.824 199.056C364.824 205.221 366.093 209.981 368.632 213.336C371.17 216.6 374.57 218.232 378.832 218.232C384.816 218.232 388.85 215.331 390.936 209.528H415.688C413.693 218.413 409.477 225.395 403.04 230.472C396.602 235.549 388.669 238.088 379.24 238.088C371.805 238.088 365.186 236.501 359.384 233.328C353.672 230.155 349.184 225.621 345.92 219.728C342.746 213.835 341.16 206.944 341.16 199.056ZM474.503 237L451.383 205.176V237H428.127V136.36H451.383V191.984L474.367 161.112H503.063L471.511 199.192L503.335 237H474.503ZM564.274 171.856C566.541 168.32 569.669 165.464 573.658 163.288C577.647 161.112 582.317 160.024 587.666 160.024C593.922 160.024 599.589 161.611 604.666 164.784C609.743 167.957 613.733 172.491 616.634 178.384C619.626 184.277 621.122 191.123 621.122 198.92C621.122 206.717 619.626 213.608 616.634 219.592C613.733 225.485 609.743 230.064 604.666 233.328C599.589 236.501 593.922 238.088 587.666 238.088C582.407 238.088 577.738 237 573.658 234.824C569.669 232.648 566.541 229.837 564.274 226.392V273.176H541.018V161.112H564.274V171.856ZM597.458 198.92C597.458 193.117 595.826 188.584 592.562 185.32C589.389 181.965 585.445 180.288 580.73 180.288C576.106 180.288 572.162 181.965 568.898 185.32C565.725 188.675 564.138 193.253 564.138 199.056C564.138 204.859 565.725 209.437 568.898 212.792C572.162 216.147 576.106 217.824 580.73 217.824C585.354 217.824 589.298 216.147 592.562 212.792C595.826 209.347 597.458 204.723 597.458 198.92ZM656.579 173.76C659.299 169.589 662.699 166.325 666.779 163.968C670.859 161.52 675.392 160.296 680.379 160.296V184.912H673.987C668.184 184.912 663.832 186.181 660.931 188.72C658.029 191.168 656.579 195.52 656.579 201.776V237H633.323V161.112H656.579V173.76ZM726.039 238.088C718.604 238.088 711.895 236.501 705.911 233.328C700.017 230.155 695.348 225.621 691.903 219.728C688.548 213.835 686.871 206.944 686.871 199.056C686.871 191.259 688.593 184.413 692.038 178.52C695.484 172.536 700.199 167.957 706.183 164.784C712.167 161.611 718.876 160.024 726.311 160.024C733.745 160.024 740.455 161.611 746.439 164.784C752.423 167.957 757.137 172.536 760.583 178.52C764.028 184.413 765.751 191.259 765.751 199.056C765.751 206.853 763.983 213.744 760.447 219.728C757.001 225.621 752.241 230.155 746.167 233.328C740.183 236.501 733.473 238.088 726.039 238.088ZM726.039 217.96C730.481 217.96 734.244 216.328 737.327 213.064C740.5 209.8 742.087 205.131 742.087 199.056C742.087 192.981 740.545 188.312 737.463 185.048C734.471 181.784 730.753 180.152 726.311 180.152C721.777 180.152 718.015 181.784 715.023 185.048C712.031 188.221 710.535 192.891 710.535 199.056C710.535 205.131 711.985 209.8 714.887 213.064C717.879 216.328 721.596 217.96 726.039 217.96ZM773.464 198.92C773.464 191.123 774.915 184.277 777.816 178.384C780.808 172.491 784.843 167.957 789.92 164.784C794.998 161.611 800.664 160.024 806.92 160.024C811.907 160.024 816.44 161.067 820.52 163.152C824.691 165.237 827.955 168.048 830.312 171.584V136.36H853.568V237H830.312V226.12C828.136 229.747 825.008 232.648 820.928 234.824C816.939 237 812.27 238.088 806.92 238.088C800.664 238.088 794.998 236.501 789.92 233.328C784.843 230.064 780.808 225.485 777.816 219.592C774.915 213.608 773.464 206.717 773.464 198.92ZM830.312 199.056C830.312 193.253 828.68 188.675 825.416 185.32C822.243 181.965 818.344 180.288 813.72 180.288C809.096 180.288 805.152 181.965 801.888 185.32C798.715 188.584 797.128 193.117 797.128 198.92C797.128 204.723 798.715 209.347 801.888 212.792C805.152 216.147 809.096 217.824 813.72 217.824C818.344 217.824 822.243 216.147 825.416 212.792C828.68 209.437 830.312 204.859 830.312 199.056ZM945.329 161.112V237H922.073V226.664C919.716 230.019 916.497 232.739 912.417 234.824C908.428 236.819 903.985 237.816 899.089 237.816C893.286 237.816 888.164 236.547 883.721 234.008C879.278 231.379 875.833 227.616 873.385 222.72C870.937 217.824 869.713 212.067 869.713 205.448V161.112H892.833V202.32C892.833 207.397 894.148 211.341 896.777 214.152C899.406 216.963 902.942 218.368 907.385 218.368C911.918 218.368 915.5 216.963 918.129 214.152C920.758 211.341 922.073 207.397 922.073 202.32V161.112H945.329ZM957.41 199.056C957.41 191.168 958.996 184.277 962.17 178.384C965.434 172.491 969.922 167.957 975.634 164.784C981.436 161.611 988.055 160.024 995.49 160.024C1005.01 160.024 1012.94 162.517 1019.29 167.504C1025.73 172.491 1029.94 179.517 1031.94 188.584H1007.19C1005.1 182.781 1001.07 179.88 995.082 179.88C990.82 179.88 987.42 181.557 984.882 184.912C982.343 188.176 981.074 192.891 981.074 199.056C981.074 205.221 982.343 209.981 984.882 213.336C987.42 216.6 990.82 218.232 995.082 218.232C1001.07 218.232 1005.1 215.331 1007.19 209.528H1031.94C1029.94 218.413 1025.73 225.395 1019.29 230.472C1012.85 235.549 1004.92 238.088 995.49 238.088C988.055 238.088 981.436 236.501 975.634 233.328C969.922 230.155 965.434 225.621 962.17 219.728C958.996 213.835 957.41 206.944 957.41 199.056ZM1086.67 217.28V237H1074.84C1066.41 237 1059.84 234.96 1055.12 230.88C1050.41 226.709 1048.05 219.955 1048.05 210.616V180.424H1038.8V161.112H1048.05V142.616H1071.31V161.112H1086.54V180.424H1071.31V210.888C1071.31 213.155 1071.85 214.787 1072.94 215.784C1074.03 216.781 1075.84 217.28 1078.38 217.28H1086.67ZM1111.32 153.224C1107.24 153.224 1103.89 152.045 1101.26 149.688C1098.72 147.24 1097.45 144.248 1097.45 140.712C1097.45 137.085 1098.72 134.093 1101.26 131.736C1103.89 129.288 1107.24 128.064 1111.32 128.064C1115.31 128.064 1118.58 129.288 1121.12 131.736C1123.74 134.093 1125.06 137.085 1125.06 140.712C1125.06 144.248 1123.74 147.24 1121.12 149.688C1118.58 152.045 1115.31 153.224 1111.32 153.224ZM1122.88 161.112V237H1099.63V161.112H1122.88ZM1174.28 238.088C1166.85 238.088 1160.14 236.501 1154.15 233.328C1148.26 230.155 1143.59 225.621 1140.14 219.728C1136.79 213.835 1135.11 206.944 1135.11 199.056C1135.11 191.259 1136.84 184.413 1140.28 178.52C1143.73 172.536 1148.44 167.957 1154.42 164.784C1160.41 161.611 1167.12 160.024 1174.55 160.024C1181.99 160.024 1188.7 161.611 1194.68 164.784C1200.66 167.957 1205.38 172.536 1208.82 178.52C1212.27 184.413 1213.99 191.259 1213.99 199.056C1213.99 206.853 1212.22 213.744 1208.69 219.728C1205.24 225.621 1200.48 230.155 1194.41 233.328C1188.42 236.501 1181.72 238.088 1174.28 238.088ZM1174.28 217.96C1178.72 217.96 1182.49 216.328 1185.57 213.064C1188.74 209.8 1190.33 205.131 1190.33 199.056C1190.33 192.981 1188.79 188.312 1185.7 185.048C1182.71 181.784 1179 180.152 1174.55 180.152C1170.02 180.152 1166.26 181.784 1163.26 185.048C1160.27 188.221 1158.78 192.891 1158.78 199.056C1158.78 205.131 1160.23 209.8 1163.13 213.064C1166.12 216.328 1169.84 217.96 1174.28 217.96ZM1272.57 160.296C1281.46 160.296 1288.53 163.197 1293.79 169C1299.14 174.712 1301.81 182.6 1301.81 192.664V237H1278.69V195.792C1278.69 190.715 1277.38 186.771 1274.75 183.96C1272.12 181.149 1268.58 179.744 1264.14 179.744C1259.7 179.744 1256.16 181.149 1253.53 183.96C1250.9 186.771 1249.59 190.715 1249.59 195.792V237H1226.33V161.112H1249.59V171.176C1251.94 167.821 1255.12 165.192 1259.11 163.288C1263.1 161.293 1267.58 160.296 1272.57 160.296Z" fill="white"/>
<rect x="121" y="391" width="1758" height="488" rx="12" fill="#F9FAFB"/>
<path d="M173 477C173 473.686 175.686 471 179 471H263C266.314 471 269 473.686 269 477V847H173V477Z" fill="#2CCEFF"/>
<path d="M173 586.666C173 583.352 175.686 580.666 179 580.666H263C266.314 580.666 269 583.352 269 586.666V846.999H173V586.666Z" fill="#0075AB"/>
<path d="M173 712C173 708.686 175.686 706 179 706H263C266.314 706 269 708.686 269 712V847H173V712Z" fill="#065274"/>
<path d="M314.637 445C314.637 441.686 317.323 439 320.637 439H404.637C407.95 439 410.637 441.686 410.637 445V847H314.637V445Z" fill="#2CCEFF"/>
<path d="M314.637 564C314.637 560.686 317.323 558 320.637 558H404.637C407.95 558 410.637 560.686 410.637 564V847H314.637V564Z" fill="#0075AB"/>
<path d="M314.637 700C314.637 696.686 317.323 694 320.637 694H404.637C407.95 694 410.637 696.686 410.637 700V847H314.637V700Z" fill="#065274"/>
<path d="M456.273 509C456.273 505.686 458.96 503 462.273 503H546.273C549.587 503 552.273 505.686 552.273 509V847H456.273V509Z" fill="#2CCEFF"/>
<path d="M456.273 609.334C456.273 606.02 458.96 603.334 462.273 603.334H546.273C549.587 603.334 552.273 606.02 552.273 609.334V847.001H456.273V609.334Z" fill="#0075AB"/>
<path d="M456.273 724C456.273 720.686 458.96 718 462.273 718H546.273C549.587 718 552.273 720.686 552.273 724V847H456.273V724Z" fill="#065274"/>
<path d="M597.91 469C597.91 465.686 600.596 463 603.91 463H687.91C691.224 463 693.91 465.686 693.91 469V847H597.91V469Z" fill="#2CCEFF"/>
<path d="M597.91 581C597.91 577.686 600.596 575 603.91 575H687.91C691.224 575 693.91 577.686 693.91 581V847H597.91V581Z" fill="#0075AB"/>
<path d="M597.91 709C597.91 705.686 600.596 703 603.91 703H687.91C691.224 703 693.91 705.686 693.91 709V847H597.91V709Z" fill="#065274"/>
<path d="M739.547 509C739.547 505.686 742.233 503 745.547 503H829.547C832.861 503 835.547 505.686 835.547 509V847H739.547V509Z" fill="#2CCEFF"/>
<path d="M739.547 609.334C739.547 606.02 742.233 603.334 745.547 603.334H829.547C832.861 603.334 835.547 606.02 835.547 609.334V847.001H739.547V609.334Z" fill="#0075AB"/>
<path d="M739.547 724C739.547 720.686 742.233 718 745.547 718H829.547C832.861 718 835.547 720.686 835.547 724V847H739.547V724Z" fill="#065274"/>
<path d="M881.184 453C881.184 449.686 883.87 447 887.184 447H971.184C974.497 447 977.184 449.686 977.184 453V847H881.184V453Z" fill="#2CCEFF"/>
<path d="M881.184 569.666C881.184 566.352 883.87 563.666 887.184 563.666H971.184C974.497 563.666 977.184 566.352 977.184 569.666V846.999H881.184V569.666Z" fill="#0075AB"/>
<path d="M881.184 703C881.184 699.686 883.87 697 887.184 697H971.184C974.497 697 977.184 699.686 977.184 703V847H881.184V703Z" fill="#065274"/>
<path d="M1022.82 477C1022.82 473.686 1025.5 471 1028.82 471H1112.82C1116.13 471 1118.82 473.686 1118.82 477V847H1022.82V477Z" fill="#2CCEFF"/>
<path d="M1022.82 586.666C1022.82 583.352 1025.5 580.666 1028.82 580.666H1112.82C1116.13 580.666 1118.82 583.352 1118.82 586.666V846.999H1022.82V586.666Z" fill="#0075AB"/>
<path d="M1022.82 712C1022.82 708.686 1025.5 706 1028.82 706H1112.82C1116.13 706 1118.82 708.686 1118.82 712V847H1022.82V712Z" fill="#065274"/>
<path d="M1164.45 469C1164.45 465.686 1167.14 463 1170.45 463H1254.45C1257.77 463 1260.45 465.686 1260.45 469V847H1164.45V469Z" fill="#2CCEFF"/>
<path d="M1164.45 581C1164.45 577.686 1167.14 575 1170.45 575H1254.45C1257.77 575 1260.45 577.686 1260.45 581V847H1164.45V581Z" fill="#0075AB"/>
<path d="M1164.45 709C1164.45 705.686 1167.14 703 1170.45 703H1254.45C1257.77 703 1260.45 705.686 1260.45 709V847H1164.45V709Z" fill="#065274"/>
<path d="M1306.09 477C1306.09 473.686 1308.78 471 1312.09 471H1396.09C1399.4 471 1402.09 473.686 1402.09 477V847H1306.09V477Z" fill="#2CCEFF"/>
<path d="M1306.09 586.666C1306.09 583.352 1308.78 580.666 1312.09 580.666H1396.09C1399.4 580.666 1402.09 583.352 1402.09 586.666V846.999H1306.09V586.666Z" fill="#0075AB"/>
<path d="M1306.09 712C1306.09 708.686 1308.78 706 1312.09 706H1396.09C1399.4 706 1402.09 708.686 1402.09 712V847H1306.09V712Z" fill="#065274"/>
<path d="M1447.73 461C1447.73 457.686 1450.41 455 1453.73 455H1537.73C1541.04 455 1543.73 457.686 1543.73 461V847H1447.73V461Z" fill="#2CCEFF"/>
<path d="M1447.73 575.334C1447.73 572.02 1450.41 569.334 1453.73 569.334H1537.73C1541.04 569.334 1543.73 572.02 1543.73 575.334V847.001H1447.73V575.334Z" fill="#0075AB"/>
<path d="M1447.73 706C1447.73 702.686 1450.41 700 1453.73 700H1537.73C1541.04 700 1543.73 702.686 1543.73 706V847H1447.73V706Z" fill="#065274"/>
<path d="M1589.36 445C1589.36 441.686 1592.05 439 1595.36 439H1679.36C1682.68 439 1685.36 441.686 1685.36 445V847H1589.36V445Z" fill="#2CCEFF"/>
<path d="M1589.36 564C1589.36 560.686 1592.05 558 1595.36 558H1679.36C1682.68 558 1685.36 560.686 1685.36 564V847H1589.36V564Z" fill="#0075AB"/>
<path d="M1589.36 700C1589.36 696.686 1592.05 694 1595.36 694H1679.36C1682.68 694 1685.36 696.686 1685.36 700V847H1589.36V700Z" fill="#065274"/>
<path d="M1731 485C1731 481.686 1733.69 479 1737 479H1821C1824.31 479 1827 481.686 1827 485V847H1731V485Z" fill="#2CCEFF"/>
<path d="M1731 592.334C1731 589.02 1733.69 586.334 1737 586.334H1821C1824.31 586.334 1827 589.02 1827 592.334V847.001H1731V592.334Z" fill="#0075AB"/>
<path d="M1731 715C1731 711.686 1733.69 709 1737 709H1821C1824.31 709 1827 711.686 1827 715V847H1731V715Z" fill="#065274"/>
<mask id="mask0_7838_71270" style="mask-type:alpha" maskUnits="userSpaceOnUse" x="-455" y="184" width="651" height="651">
<rect x="-226.316" y="834.707" width="480" height="480" rx="12" transform="rotate(-118.452 -226.316 834.707)" fill="url(#paint1_linear_7838_71270)"/>
</mask>
<g mask="url(#mask0_7838_71270)">
<rect x="-140.628" y="664.528" width="220" height="220" rx="10" transform="rotate(-130.952 -140.628 664.528)" stroke="#2CCEFF" stroke-width="4"/>
<rect x="-143.824" y="709.671" width="284" height="284" rx="10" transform="rotate(-130.952 -143.824 709.671)" stroke="#2CCEFF" stroke-width="4"/>
<rect x="-147.015" y="754.813" width="348" height="348" rx="10" transform="rotate(-130.952 -147.015 754.813)" stroke="#2CCEFF" stroke-width="4"/>
<rect x="-150.21" y="799.956" width="412" height="412" rx="10" transform="rotate(-130.952 -150.21 799.956)" stroke="#2CCEFF" stroke-width="4"/>
<rect x="-153.406" y="845.097" width="476" height="476" rx="10" transform="rotate(-130.952 -153.406 845.097)" stroke="#2CCEFF" stroke-width="4"/>
</g>
<mask id="mask1_7838_71270" style="mask-type:alpha" maskUnits="userSpaceOnUse" x="1609" y="-229" width="628" height="628">
<rect x="1794.06" y="-229" width="480" height="480" rx="12" transform="rotate(22.6777 1794.06 -229)" fill="url(#paint2_linear_7838_71270)"/>
</mask>
<g mask="url(#mask1_7838_71270)">
<rect x="1885.02" y="30.411" width="94" height="94" rx="11" transform="rotate(10.1777 1885.02 30.411)" stroke="#2CCEFF" stroke-width="2"/>
<rect x="1859.99" y="-5.57846" width="156" height="156" rx="10" transform="rotate(10.1777 1859.99 -5.57846)" stroke="#2CCEFF" stroke-width="4"/>
<rect x="1834.15" y="-42.7288" width="220" height="220" rx="10" transform="rotate(10.1777 1834.15 -42.7288)" stroke="#2CCEFF" stroke-width="4"/>
<rect x="1808.3" y="-79.8812" width="284" height="284" rx="10" transform="rotate(10.1777 1808.3 -79.8812)" stroke="#2CCEFF" stroke-width="4"/>
<rect x="1782.46" y="-117.032" width="348" height="348" rx="10" transform="rotate(10.1777 1782.46 -117.032)" stroke="#2CCEFF" stroke-width="4"/>
<rect x="1756.62" y="-154.182" width="412" height="412" rx="10" transform="rotate(10.1777 1756.62 -154.182)" stroke="#2CCEFF" stroke-width="4"/>
<rect x="1730.78" y="-191.332" width="476" height="476" rx="10" transform="rotate(10.1777 1730.78 -191.332)" stroke="#2CCEFF" stroke-width="4"/>
</g>
</g>
<defs>
<linearGradient id="paint0_linear_7838_71270" x1="-3.86544e-05" y1="12.037" x2="805.855" y2="1604.35" gradientUnits="userSpaceOnUse">
<stop stop-color="#242A33"/>
<stop offset="1" stop-color="#053246"/>
</linearGradient>
<linearGradient id="paint1_linear_7838_71270" x1="13.6836" y1="834.707" x2="13.6836" y2="1314.71" gradientUnits="userSpaceOnUse">
<stop/>
<stop offset="0.991144" stop-opacity="0"/>
</linearGradient>
<linearGradient id="paint2_linear_7838_71270" x1="2034.06" y1="-229" x2="2034.06" y2="251" gradientUnits="userSpaceOnUse">
<stop/>
<stop offset="0.991144" stop-opacity="0"/>
</linearGradient>
<clipPath id="clip0_7838_71270">
<rect width="2000" height="1000" fill="white"/>
</clipPath>
</defs>
</svg>
