<svg width="2000" height="1000" viewBox="0 0 2000 1000" fill="none" xmlns="http://www.w3.org/2000/svg">
<g clip-path="url(#clip0_7901_69672)">
<rect width="2000" height="1000" fill="white"/>
<rect width="2000" height="1000" fill="url(#paint0_linear_7901_69672)"/>
<path d="M165.2 141.528C175.264 141.528 184.059 143.523 191.584 147.512C199.109 151.501 204.912 157.123 208.992 164.376C213.163 171.539 215.248 179.835 215.248 189.264C215.248 198.603 213.163 206.899 208.992 214.152C204.912 221.405 199.064 227.027 191.448 231.016C183.923 235.005 175.173 237 165.2 237H129.432V141.528H165.2ZM163.704 216.872C172.499 216.872 179.344 214.469 184.24 209.664C189.136 204.859 191.584 198.059 191.584 189.264C191.584 180.469 189.136 173.624 184.24 168.728C179.344 163.832 172.499 161.384 163.704 161.384H152.688V216.872H163.704ZM276.933 237L257.077 200.96H251.501V237H228.245V141.528H267.277C274.802 141.528 281.194 142.843 286.453 145.472C291.802 148.101 295.791 151.728 298.421 156.352C301.05 160.885 302.365 165.963 302.365 171.584C302.365 177.931 300.551 183.597 296.925 188.584C293.389 193.571 288.13 197.107 281.149 199.192L303.181 237H276.933ZM251.501 184.504H265.917C270.178 184.504 273.351 183.461 275.437 181.376C277.613 179.291 278.701 176.344 278.701 172.536C278.701 168.909 277.613 166.053 275.437 163.968C273.351 161.883 270.178 160.84 265.917 160.84H251.501V184.504ZM388.499 197.832C388.499 200.008 388.363 202.275 388.091 204.632H335.459C335.822 209.347 337.318 212.973 339.947 215.512C342.667 217.96 345.977 219.184 349.875 219.184C355.678 219.184 359.713 216.736 361.979 211.84H386.731C385.462 216.827 383.15 221.315 379.795 225.304C376.531 229.293 372.406 232.421 367.419 234.688C362.433 236.955 356.857 238.088 350.691 238.088C343.257 238.088 336.638 236.501 330.835 233.328C325.033 230.155 320.499 225.621 317.235 219.728C313.971 213.835 312.339 206.944 312.339 199.056C312.339 191.168 313.926 184.277 317.099 178.384C320.363 172.491 324.897 167.957 330.699 164.784C336.502 161.611 343.166 160.024 350.691 160.024C358.035 160.024 364.563 161.565 370.275 164.648C375.987 167.731 380.43 172.128 383.603 177.84C386.867 183.552 388.499 190.216 388.499 197.832ZM364.699 191.712C364.699 187.723 363.339 184.549 360.619 182.192C357.899 179.835 354.499 178.656 350.419 178.656C346.521 178.656 343.211 179.789 340.491 182.056C337.862 184.323 336.23 187.541 335.595 191.712H364.699ZM424.024 171.856C426.291 168.32 429.419 165.464 433.408 163.288C437.397 161.112 442.067 160.024 447.416 160.024C453.672 160.024 459.339 161.611 464.416 164.784C469.493 167.957 473.483 172.491 476.384 178.384C479.376 184.277 480.872 191.123 480.872 198.92C480.872 206.717 479.376 213.608 476.384 219.592C473.483 225.485 469.493 230.064 464.416 233.328C459.339 236.501 453.672 238.088 447.416 238.088C442.157 238.088 437.488 237 433.408 234.824C429.419 232.648 426.291 229.837 424.024 226.392V273.176H400.768V161.112H424.024V171.856ZM457.208 198.92C457.208 193.117 455.576 188.584 452.312 185.32C449.139 181.965 445.195 180.288 440.48 180.288C435.856 180.288 431.912 181.965 428.648 185.32C425.475 188.675 423.888 193.253 423.888 199.056C423.888 204.859 425.475 209.437 428.648 212.792C431.912 216.147 435.856 217.824 440.48 217.824C445.104 217.824 449.048 216.147 452.312 212.792C455.576 209.347 457.208 204.723 457.208 198.92ZM517.269 198.92C517.269 191.123 518.72 184.277 521.621 178.384C524.613 172.491 528.648 167.957 533.725 164.784C538.802 161.611 544.469 160.024 550.725 160.024C555.712 160.024 560.245 161.067 564.325 163.152C568.496 165.237 571.76 168.048 574.117 171.584V136.36H597.373V237H574.117V226.12C571.941 229.747 568.813 232.648 564.733 234.824C560.744 237 556.074 238.088 550.725 238.088C544.469 238.088 538.802 236.501 533.725 233.328C528.648 230.064 524.613 225.485 521.621 219.592C518.72 213.608 517.269 206.717 517.269 198.92ZM574.117 199.056C574.117 193.253 572.485 188.675 569.221 185.32C566.048 181.965 562.149 180.288 557.525 180.288C552.901 180.288 548.957 181.965 545.693 185.32C542.52 188.584 540.933 193.117 540.933 198.92C540.933 204.723 542.52 209.347 545.693 212.792C548.957 216.147 552.901 217.824 557.525 217.824C562.149 217.824 566.048 216.147 569.221 212.792C572.485 209.437 574.117 204.859 574.117 199.056ZM685.734 197.832C685.734 200.008 685.598 202.275 685.326 204.632H632.694C633.056 209.347 634.552 212.973 637.182 215.512C639.902 217.96 643.211 219.184 647.11 219.184C652.912 219.184 656.947 216.736 659.214 211.84H683.966C682.696 216.827 680.384 221.315 677.03 225.304C673.766 229.293 669.64 232.421 664.654 234.688C659.667 236.955 654.091 238.088 647.926 238.088C640.491 238.088 633.872 236.501 628.07 233.328C622.267 230.155 617.734 225.621 614.47 219.728C611.206 213.835 609.574 206.944 609.574 199.056C609.574 191.168 611.16 184.277 614.334 178.384C617.598 172.491 622.131 167.957 627.934 164.784C633.736 161.611 640.4 160.024 647.926 160.024C655.27 160.024 661.798 161.565 667.51 164.648C673.222 167.731 677.664 172.128 680.838 177.84C684.102 183.552 685.734 190.216 685.734 197.832ZM661.934 191.712C661.934 187.723 660.574 184.549 657.854 182.192C655.134 179.835 651.734 178.656 647.654 178.656C643.755 178.656 640.446 179.789 637.726 182.056C635.096 184.323 633.464 187.541 632.83 191.712H661.934ZM740.298 217.28V237H728.466C720.034 237 713.461 234.96 708.746 230.88C704.032 226.709 701.674 219.955 701.674 210.616V180.424H692.426V161.112H701.674V142.616H724.93V161.112H740.162V180.424H724.93V210.888C724.93 213.155 725.474 214.787 726.562 215.784C727.65 216.781 729.464 217.28 732.002 217.28H740.298ZM748.628 198.92C748.628 191.123 750.079 184.277 752.98 178.384C755.972 172.491 760.007 167.957 765.084 164.784C770.162 161.611 775.828 160.024 782.084 160.024C787.434 160.024 792.103 161.112 796.092 163.288C800.172 165.464 803.3 168.32 805.476 171.856V161.112H828.732V237H805.476V226.256C803.21 229.792 800.036 232.648 795.956 234.824C791.967 237 787.298 238.088 781.948 238.088C775.783 238.088 770.162 236.501 765.084 233.328C760.007 230.064 755.972 225.485 752.98 219.592C750.079 213.608 748.628 206.717 748.628 198.92ZM805.476 199.056C805.476 193.253 803.844 188.675 800.58 185.32C797.407 181.965 793.508 180.288 788.884 180.288C784.26 180.288 780.316 181.965 777.052 185.32C773.879 188.584 772.292 193.117 772.292 198.92C772.292 204.723 773.879 209.347 777.052 212.792C780.316 216.147 784.26 217.824 788.884 217.824C793.508 217.824 797.407 216.147 800.58 212.792C803.844 209.437 805.476 204.859 805.476 199.056ZM857.253 153.224C853.173 153.224 849.818 152.045 847.189 149.688C844.65 147.24 843.381 144.248 843.381 140.712C843.381 137.085 844.65 134.093 847.189 131.736C849.818 129.288 853.173 128.064 857.253 128.064C861.242 128.064 864.506 129.288 867.045 131.736C869.674 134.093 870.989 137.085 870.989 140.712C870.989 144.248 869.674 147.24 867.045 149.688C864.506 152.045 861.242 153.224 857.253 153.224ZM868.813 161.112V237H845.557V161.112H868.813ZM908.922 136.36V237H885.666V136.36H908.922Z" fill="white"/>
<rect x="121" y="391" width="1758" height="488" rx="12" fill="#F9FAFB"/>
<rect x="217" y="455" width="360" height="360" rx="12" fill="#D0D5DD"/>
<rect x="673" y="457.5" width="148" height="45" rx="4" fill="#E4E7EC"/>
<rect x="901" y="458" width="609" height="45" rx="4" fill="#D0D5DD"/>
<rect x="673" y="535.5" width="187" height="45" rx="4" fill="#E4E7EC"/>
<rect x="901" y="535" width="778" height="45" rx="4" fill="#D0D5DD"/>
<rect x="673" y="611.5" width="88" height="45" rx="4" fill="#E4E7EC"/>
<rect x="901" y="612" width="407" height="45" rx="4" fill="#D0D5DD"/>
<rect x="673" y="688.5" width="139" height="45" rx="4" fill="#E4E7EC"/>
<rect x="901" y="689" width="273" height="46" rx="4" fill="#D0D5DD"/>
<rect x="673" y="767.5" width="200" height="45" rx="4" fill="#E4E7EC"/>
<rect x="901" y="767" width="652" height="45" rx="4" fill="#D0D5DD"/>
<mask id="mask0_7901_69672" style="mask-type:alpha" maskUnits="userSpaceOnUse" x="-455" y="184" width="651" height="651">
<rect x="-226.316" y="834.707" width="480" height="480" rx="12" transform="rotate(-118.452 -226.316 834.707)" fill="url(#paint1_linear_7901_69672)"/>
</mask>
<g mask="url(#mask0_7901_69672)">
<rect x="-140.628" y="664.528" width="220" height="220" rx="10" transform="rotate(-130.952 -140.628 664.528)" stroke="#2CCEFF" stroke-width="4"/>
<rect x="-143.824" y="709.671" width="284" height="284" rx="10" transform="rotate(-130.952 -143.824 709.671)" stroke="#2CCEFF" stroke-width="4"/>
<rect x="-147.015" y="754.813" width="348" height="348" rx="10" transform="rotate(-130.952 -147.015 754.813)" stroke="#2CCEFF" stroke-width="4"/>
<rect x="-150.21" y="799.956" width="412" height="412" rx="10" transform="rotate(-130.952 -150.21 799.956)" stroke="#2CCEFF" stroke-width="4"/>
<rect x="-153.406" y="845.097" width="476" height="476" rx="10" transform="rotate(-130.952 -153.406 845.097)" stroke="#2CCEFF" stroke-width="4"/>
</g>
<mask id="mask1_7901_69672" style="mask-type:alpha" maskUnits="userSpaceOnUse" x="1609" y="-229" width="628" height="628">
<rect x="1794.06" y="-229" width="480" height="480" rx="12" transform="rotate(22.6777 1794.06 -229)" fill="url(#paint2_linear_7901_69672)"/>
</mask>
<g mask="url(#mask1_7901_69672)">
<rect x="1885.02" y="30.411" width="94" height="94" rx="11" transform="rotate(10.1777 1885.02 30.411)" stroke="#2CCEFF" stroke-width="2"/>
<rect x="1859.99" y="-5.57846" width="156" height="156" rx="10" transform="rotate(10.1777 1859.99 -5.57846)" stroke="#2CCEFF" stroke-width="4"/>
<rect x="1834.15" y="-42.7288" width="220" height="220" rx="10" transform="rotate(10.1777 1834.15 -42.7288)" stroke="#2CCEFF" stroke-width="4"/>
<rect x="1808.3" y="-79.8812" width="284" height="284" rx="10" transform="rotate(10.1777 1808.3 -79.8812)" stroke="#2CCEFF" stroke-width="4"/>
<rect x="1782.46" y="-117.032" width="348" height="348" rx="10" transform="rotate(10.1777 1782.46 -117.032)" stroke="#2CCEFF" stroke-width="4"/>
<rect x="1756.62" y="-154.182" width="412" height="412" rx="10" transform="rotate(10.1777 1756.62 -154.182)" stroke="#2CCEFF" stroke-width="4"/>
<rect x="1730.78" y="-191.332" width="476" height="476" rx="10" transform="rotate(10.1777 1730.78 -191.332)" stroke="#2CCEFF" stroke-width="4"/>
</g>
</g>
<defs>
<linearGradient id="paint0_linear_7901_69672" x1="-3.86544e-05" y1="12.037" x2="805.855" y2="1604.35" gradientUnits="userSpaceOnUse">
<stop stop-color="#242A33"/>
<stop offset="1" stop-color="#053246"/>
</linearGradient>
<linearGradient id="paint1_linear_7901_69672" x1="13.6836" y1="834.707" x2="13.6836" y2="1314.71" gradientUnits="userSpaceOnUse">
<stop/>
<stop offset="0.991144" stop-opacity="0"/>
</linearGradient>
<linearGradient id="paint2_linear_7901_69672" x1="2034.06" y1="-229" x2="2034.06" y2="251" gradientUnits="userSpaceOnUse">
<stop/>
<stop offset="0.991144" stop-opacity="0"/>
</linearGradient>
<clipPath id="clip0_7901_69672">
<rect width="2000" height="1000" fill="white"/>
</clipPath>
</defs>
</svg>
