<svg width="2000" height="1000" viewBox="0 0 2000 1000" fill="none" xmlns="http://www.w3.org/2000/svg">
<g clip-path="url(#clip0_7838_71528)">
<rect width="2000" height="1000" fill="white"/>
<rect width="2000" height="1000" fill="url(#paint0_linear_7838_71528)"/>
<path d="M152.688 160.16V179.472H183.832V197.424H152.688V218.368H187.912V237H129.432V141.528H187.912V160.16H152.688ZM226.266 171.856C228.533 168.32 231.661 165.464 235.65 163.288C239.639 161.112 244.309 160.024 249.658 160.024C255.914 160.024 261.581 161.611 266.658 164.784C271.735 167.957 275.725 172.491 278.626 178.384C281.618 184.277 283.114 191.123 283.114 198.92C283.114 206.717 281.618 213.608 278.626 219.592C275.725 225.485 271.735 230.064 266.658 233.328C261.581 236.501 255.914 238.088 249.658 238.088C244.399 238.088 239.73 237 235.65 234.824C231.661 232.648 228.533 229.837 226.266 226.392V273.176H203.01V161.112H226.266V171.856ZM259.45 198.92C259.45 193.117 257.818 188.584 254.554 185.32C251.381 181.965 247.437 180.288 242.722 180.288C238.098 180.288 234.154 181.965 230.89 185.32C227.717 188.675 226.13 193.253 226.13 199.056C226.13 204.859 227.717 209.437 230.89 212.792C234.154 216.147 238.098 217.824 242.722 217.824C247.346 217.824 251.29 216.147 254.554 212.792C257.818 209.347 259.45 204.723 259.45 198.92ZM329.859 238.088C322.424 238.088 315.715 236.501 309.731 233.328C303.837 230.155 299.168 225.621 295.723 219.728C292.368 213.835 290.691 206.944 290.691 199.056C290.691 191.259 292.413 184.413 295.859 178.52C299.304 172.536 304.019 167.957 310.003 164.784C315.987 161.611 322.696 160.024 330.131 160.024C337.565 160.024 344.275 161.611 350.259 164.784C356.243 167.957 360.957 172.536 364.403 178.52C367.848 184.413 369.571 191.259 369.571 199.056C369.571 206.853 367.803 213.744 364.267 219.728C360.821 225.621 356.061 230.155 349.987 233.328C344.003 236.501 337.293 238.088 329.859 238.088ZM329.859 217.96C334.301 217.96 338.064 216.328 341.147 213.064C344.32 209.8 345.907 205.131 345.907 199.056C345.907 192.981 344.365 188.312 341.283 185.048C338.291 181.784 334.573 180.152 330.131 180.152C325.597 180.152 321.835 181.784 318.843 185.048C315.851 188.221 314.355 192.891 314.355 199.056C314.355 205.131 315.805 209.8 318.707 213.064C321.699 216.328 325.416 217.96 329.859 217.96ZM377.285 199.056C377.285 191.168 378.871 184.277 382.045 178.384C385.309 172.491 389.797 167.957 395.509 164.784C401.311 161.611 407.93 160.024 415.365 160.024C424.885 160.024 432.818 162.517 439.165 167.504C445.602 172.491 449.818 179.517 451.813 188.584H427.061C424.975 182.781 420.941 179.88 414.957 179.88C410.695 179.88 407.295 181.557 404.757 184.912C402.218 188.176 400.949 192.891 400.949 199.056C400.949 205.221 402.218 209.981 404.757 213.336C407.295 216.6 410.695 218.232 414.957 218.232C420.941 218.232 424.975 215.331 427.061 209.528H451.813C449.818 218.413 445.602 225.395 439.165 230.472C432.727 235.549 424.794 238.088 415.365 238.088C407.93 238.088 401.311 236.501 395.509 233.328C389.797 230.155 385.309 225.621 382.045 219.728C378.871 213.835 377.285 206.944 377.285 199.056ZM510.9 160.296C519.604 160.296 526.586 163.197 531.844 169C537.103 174.712 539.732 182.6 539.732 192.664V237H516.612V195.792C516.612 190.715 515.298 186.771 512.668 183.96C510.039 181.149 506.503 179.744 502.06 179.744C497.618 179.744 494.082 181.149 491.452 183.96C488.823 186.771 487.508 190.715 487.508 195.792V237H464.252V136.36H487.508V171.312C489.866 167.957 493.084 165.283 497.164 163.288C501.244 161.293 505.823 160.296 510.9 160.296ZM586.765 238.088C580.146 238.088 574.253 236.955 569.085 234.688C563.917 232.421 559.837 229.339 556.845 225.44C553.853 221.451 552.176 217.008 551.813 212.112H574.797C575.069 214.741 576.293 216.872 578.469 218.504C580.645 220.136 583.32 220.952 586.493 220.952C589.394 220.952 591.616 220.408 593.157 219.32C594.789 218.141 595.605 216.645 595.605 214.832C595.605 212.656 594.472 211.069 592.205 210.072C589.938 208.984 586.266 207.805 581.189 206.536C575.749 205.267 571.216 203.952 567.589 202.592C563.962 201.141 560.834 198.92 558.205 195.928C555.576 192.845 554.261 188.72 554.261 183.552C554.261 179.2 555.44 175.256 557.797 171.72C560.245 168.093 563.781 165.237 568.405 163.152C573.12 161.067 578.696 160.024 585.133 160.024C594.653 160.024 602.133 162.381 607.573 167.096C613.104 171.811 616.277 178.067 617.093 185.864H595.605C595.242 183.235 594.064 181.149 592.069 179.608C590.165 178.067 587.626 177.296 584.453 177.296C581.733 177.296 579.648 177.84 578.197 178.928C576.746 179.925 576.021 181.331 576.021 183.144C576.021 185.32 577.154 186.952 579.421 188.04C581.778 189.128 585.405 190.216 590.301 191.304C595.922 192.755 600.501 194.205 604.037 195.656C607.573 197.016 610.656 199.283 613.285 202.456C616.005 205.539 617.41 209.709 617.501 214.968C617.501 219.411 616.232 223.4 613.693 226.936C611.245 230.381 607.664 233.101 602.949 235.096C598.325 237.091 592.93 238.088 586.765 238.088ZM672.245 153.224C668.165 153.224 664.811 152.045 662.181 149.688C659.643 147.24 658.373 144.248 658.373 140.712C658.373 137.085 659.643 134.093 662.181 131.736C664.811 129.288 668.165 128.064 672.245 128.064C676.235 128.064 679.499 129.288 682.037 131.736C684.667 134.093 685.981 137.085 685.981 140.712C685.981 144.248 684.667 147.24 682.037 149.688C679.499 152.045 676.235 153.224 672.245 153.224ZM683.805 161.112V237H660.549V161.112H683.805ZM746.899 160.296C755.784 160.296 762.856 163.197 768.115 169C773.464 174.712 776.139 182.6 776.139 192.664V237H753.019V195.792C753.019 190.715 751.704 186.771 749.075 183.96C746.445 181.149 742.909 179.744 738.467 179.744C734.024 179.744 730.488 181.149 727.859 183.96C725.229 186.771 723.915 190.715 723.915 195.792V237H700.659V161.112H723.915V171.176C726.272 167.821 729.445 165.192 733.435 163.288C737.424 161.293 741.912 160.296 746.899 160.296ZM863.416 217.28V237H851.584C843.152 237 836.578 234.96 831.864 230.88C827.149 226.709 824.792 219.955 824.792 210.616V180.424H815.544V161.112H824.792V142.616H848.048V161.112H863.28V180.424H848.048V210.888C848.048 213.155 848.592 214.787 849.68 215.784C850.768 216.781 852.581 217.28 855.12 217.28H863.416ZM888.066 153.224C883.986 153.224 880.631 152.045 878.002 149.688C875.463 147.24 874.194 144.248 874.194 140.712C874.194 137.085 875.463 134.093 878.002 131.736C880.631 129.288 883.986 128.064 888.066 128.064C892.055 128.064 895.319 129.288 897.858 131.736C900.487 134.093 901.802 137.085 901.802 140.712C901.802 144.248 900.487 147.24 897.858 149.688C895.319 152.045 892.055 153.224 888.066 153.224ZM899.626 161.112V237H876.37V161.112H899.626ZM1013.31 160.296C1022.74 160.296 1030.22 163.152 1035.75 168.864C1041.37 174.576 1044.18 182.509 1044.18 192.664V237H1021.06V195.792C1021.06 190.896 1019.75 187.133 1017.12 184.504C1014.58 181.784 1011.04 180.424 1006.51 180.424C1001.98 180.424 998.396 181.784 995.767 184.504C993.228 187.133 991.959 190.896 991.959 195.792V237H968.839V195.792C968.839 190.896 967.524 187.133 964.895 184.504C962.356 181.784 958.82 180.424 954.287 180.424C949.754 180.424 946.172 181.784 943.543 184.504C941.004 187.133 939.735 190.896 939.735 195.792V237H916.479V161.112H939.735V170.632C942.092 167.459 945.175 164.965 948.983 163.152C952.791 161.248 957.098 160.296 961.903 160.296C967.615 160.296 972.692 161.52 977.135 163.968C981.668 166.416 985.204 169.907 987.743 174.44C990.372 170.269 993.954 166.869 998.487 164.24C1003.02 161.611 1007.96 160.296 1013.31 160.296ZM1131.98 197.832C1131.98 200.008 1131.85 202.275 1131.58 204.632H1078.94C1079.31 209.347 1080.8 212.973 1083.43 215.512C1086.15 217.96 1089.46 219.184 1093.36 219.184C1099.16 219.184 1103.2 216.736 1105.46 211.84H1130.22C1128.95 216.827 1126.63 221.315 1123.28 225.304C1120.02 229.293 1115.89 232.421 1110.9 234.688C1105.92 236.955 1100.34 238.088 1094.18 238.088C1086.74 238.088 1080.12 236.501 1074.32 233.328C1068.52 230.155 1063.98 225.621 1060.72 219.728C1057.46 213.835 1055.82 206.944 1055.82 199.056C1055.82 191.168 1057.41 184.277 1060.58 178.384C1063.85 172.491 1068.38 167.957 1074.18 164.784C1079.99 161.611 1086.65 160.024 1094.18 160.024C1101.52 160.024 1108.05 161.565 1113.76 164.648C1119.47 167.731 1123.91 172.128 1127.09 177.84C1130.35 183.552 1131.98 190.216 1131.98 197.832ZM1108.18 191.712C1108.18 187.723 1106.82 184.549 1104.1 182.192C1101.38 179.835 1097.98 178.656 1093.9 178.656C1090 178.656 1086.7 179.789 1083.98 182.056C1081.35 184.323 1079.71 187.541 1079.08 191.712H1108.18Z" fill="white"/>
<rect x="121" y="391" width="1758" height="488" rx="12" fill="#F9FAFB"/>
<mask id="mask0_7838_71528" style="mask-type:alpha" maskUnits="userSpaceOnUse" x="153" y="448" width="1694" height="399">
<rect width="1694" height="399" transform="translate(153 448)" fill="url(#paint1_linear_7838_71528)"/>
</mask>
<g mask="url(#mask0_7838_71528)">
<path opacity="0.1" d="M1798.6 507.933C1822.8 507.933 1822.8 478.209 1847 478.209V847.001H153V668.233C179.217 668.233 177.2 679.167 201.4 679.167C225.6 679.167 225.6 648.116 249.8 648.116C274 648.116 269.967 657.67 298.2 657.67C326.433 657.67 318.367 675.558 346.6 675.558C374.833 675.558 368.783 668.764 395 668.764C421.217 668.764 416.175 636.385 443.4 636.385C470.625 636.385 463.567 646.948 491.8 646.948C520.033 646.948 514.992 661.492 540.2 661.492C565.408 661.492 561.375 613.19 588.6 613.19C615.825 613.19 612.8 629.91 637 629.91C661.2 629.91 657.167 606.502 685.4 606.502C713.633 606.502 707.583 621.47 733.8 621.47C760.017 621.47 755.983 560.27 782.2 560.27C808.417 560.27 803.375 577.308 830.6 577.308C857.825 577.308 850.767 588.561 879 588.561C907.233 588.561 900.175 559.367 927.4 559.367C954.625 559.367 947.567 573.699 975.8 573.699C1004.03 573.699 998.992 550.078 1024.2 550.078C1049.41 550.078 1046.38 510.587 1072.6 510.587C1098.82 510.587 1094.78 576.671 1121 576.671C1147.22 576.671 1144.19 530.386 1169.4 530.386C1194.61 530.386 1189.57 550.662 1217.8 550.662C1246.03 550.662 1239.98 568.868 1266.2 568.868C1292.42 568.868 1289.39 538.719 1314.6 538.719C1339.81 538.719 1337.79 567.382 1363 567.382C1388.21 567.382 1385.18 554.643 1411.4 554.643C1437.62 554.643 1433.58 528.369 1459.8 528.369C1486.02 528.369 1481.98 538.879 1508.2 538.879C1534.42 538.879 1532.4 500.502 1556.6 500.502C1580.8 500.502 1576.77 553.104 1605 553.104C1633.23 553.104 1626.18 517.382 1653.4 517.382C1680.62 517.382 1676.59 532.085 1701.8 532.085C1727.01 532.085 1724.99 495.46 1750.2 495.46C1775.41 495.46 1774.4 507.933 1798.6 507.933Z" fill="#0094D4"/>
</g>
<path d="M1847 478.209C1822.8 478.209 1822.8 507.933 1798.6 507.933C1774.4 507.933 1775.41 495.46 1750.2 495.46C1724.99 495.46 1727.01 532.085 1701.8 532.085C1676.59 532.085 1680.63 517.382 1653.4 517.382C1626.18 517.382 1633.23 553.104 1605 553.104C1576.77 553.104 1580.8 500.502 1556.6 500.502C1532.4 500.502 1534.42 538.879 1508.2 538.879C1481.98 538.879 1486.02 528.369 1459.8 528.369C1433.58 528.369 1437.62 554.643 1411.4 554.643C1385.18 554.643 1388.21 567.382 1363 567.382C1337.79 567.382 1339.81 538.719 1314.6 538.719C1289.39 538.719 1292.42 568.868 1266.2 568.868C1239.98 568.868 1246.03 550.662 1217.8 550.662C1189.57 550.662 1194.61 530.386 1169.4 530.386C1144.19 530.386 1147.22 576.671 1121 576.671C1094.78 576.671 1098.82 510.587 1072.6 510.587C1046.38 510.587 1049.41 550.078 1024.2 550.078C998.992 550.078 1004.03 573.699 975.8 573.699C947.567 573.699 954.625 559.367 927.4 559.367C900.175 559.367 907.233 588.561 879 588.561C850.767 588.561 857.825 577.308 830.6 577.308C803.375 577.308 808.417 560.27 782.2 560.27C755.983 560.27 760.017 621.47 733.8 621.47C707.583 621.47 713.633 606.502 685.4 606.502C657.167 606.502 661.2 629.91 637 629.91C612.8 629.91 615.825 613.19 588.6 613.19C561.375 613.19 565.408 661.492 540.2 661.492C514.992 661.492 520.033 646.948 491.8 646.948C463.567 646.948 470.625 636.385 443.4 636.385C416.175 636.385 421.217 668.764 395 668.764C368.783 668.764 374.833 675.558 346.6 675.558C318.367 675.558 326.433 657.67 298.2 657.67C269.967 657.67 274 648.116 249.8 648.116C225.6 648.116 225.6 679.167 201.4 679.167C177.2 679.167 179.217 668.233 153 668.233" stroke="#0094D4" stroke-width="6" stroke-linecap="round" stroke-linejoin="round"/>
<path d="M1847 630.584C1822.8 630.584 1822.8 643.802 1798.6 643.802C1774.4 643.802 1775.41 645.55 1750.2 645.55C1724.99 645.55 1727.01 654.541 1701.8 654.541C1676.59 654.541 1680.63 648.003 1653.4 648.003C1626.18 648.003 1633.23 663.888 1605 663.888C1576.77 663.888 1580.8 651.44 1556.6 651.44C1532.4 651.44 1534.42 657.562 1508.2 657.562C1481.98 657.562 1486.02 652.889 1459.8 652.889C1433.58 652.889 1437.62 664.573 1411.4 664.573C1385.18 664.573 1388.21 670.237 1363 670.237C1337.79 670.237 1339.81 657.492 1314.6 657.492C1289.39 657.492 1292.42 641.719 1266.2 641.719C1239.98 641.719 1246.03 662.802 1217.8 662.802C1189.57 662.802 1194.61 653.786 1169.4 653.786C1144.19 653.786 1139.98 658.65 1121 659.778C1102.12 660.9 1098.82 659.572 1072.6 659.572C1046.38 659.572 1049.41 662.543 1024.2 662.543C998.992 662.543 1004.03 673.046 975.8 673.046C947.567 673.046 954.625 666.673 927.4 666.673C900.175 666.673 907.233 679.655 879 679.655C850.767 679.655 857.825 674.651 830.6 674.651C803.375 674.651 808.417 667.074 782.2 667.074C755.983 667.074 760.017 679.699 733.8 679.699C707.583 679.699 713.633 687.633 685.4 687.633C657.167 687.633 654.996 690.082 637 698.042C616.035 707.315 615.825 734.376 588.6 734.376C561.375 734.376 559.911 717.735 540.2 712.086C521.713 706.787 520.033 705.618 491.8 705.618C463.567 705.618 470.625 700.921 443.4 700.921C416.175 700.921 421.217 715.319 395 715.319C368.783 715.319 374.833 718.34 346.6 718.34C318.367 718.34 326.433 710.386 298.2 710.386C269.967 710.386 274 706.138 249.8 706.138C225.6 706.138 225.6 719.945 201.4 719.945C177.2 719.945 179.217 715.083 153 715.083" stroke="#2CCEFF" stroke-width="6" stroke-linecap="round" stroke-linejoin="round"/>
<path d="M1847 716.709C1822.8 716.709 1822.8 729.775 1798.6 729.775C1774.4 729.775 1775.41 724.292 1750.2 724.292C1724.99 724.292 1727.01 740.391 1701.8 740.391C1676.59 740.391 1680.63 733.928 1653.4 733.928C1626.18 733.928 1633.23 749.63 1605 749.63C1576.77 749.63 1580.8 726.508 1556.6 726.508C1532.4 726.508 1534.42 743.377 1508.2 743.377C1481.98 743.377 1486.02 738.757 1459.8 738.757C1433.58 738.757 1437.62 750.306 1411.4 750.306C1385.18 750.306 1388.21 755.906 1363 755.906C1337.79 755.906 1339.81 743.307 1314.6 743.307C1289.39 743.307 1292.42 756.559 1266.2 756.559C1239.98 756.559 1246.03 748.557 1217.8 748.557C1189.57 748.557 1194.61 739.644 1169.4 739.644C1144.19 739.644 1147.22 759.989 1121 759.989C1094.78 759.989 1098.82 730.941 1072.6 730.941C1046.38 730.941 1049.41 748.3 1024.2 748.3C998.992 748.3 1004.03 758.682 975.8 758.682C947.567 758.682 954.625 752.383 927.4 752.383C900.175 752.383 907.233 765.215 879 765.215C850.767 765.215 857.825 760.269 830.6 760.269C803.375 760.269 808.417 752.78 782.2 752.78C755.983 752.78 760.017 779.681 733.8 779.681C707.583 779.681 713.633 773.101 685.4 773.101C657.167 773.101 661.2 783.391 637 783.391C612.8 783.391 615.825 776.041 588.6 776.041C561.375 776.041 565.408 797.273 540.2 797.273C514.992 797.273 520.033 790.88 491.8 790.88C463.567 790.88 470.625 786.237 443.4 786.237C416.175 786.237 421.217 800.469 395 800.469C368.783 800.469 374.833 803.456 346.6 803.456C318.367 803.456 326.433 795.593 298.2 795.593C269.967 795.593 274 791.393 249.8 791.393C225.6 791.393 225.6 805.042 201.4 805.042C177.2 805.042 179.217 800.236 153 800.236" stroke="#0075AB" stroke-width="6" stroke-linecap="round" stroke-linejoin="round"/>
<mask id="mask1_7838_71528" style="mask-type:alpha" maskUnits="userSpaceOnUse" x="-455" y="184" width="651" height="651">
<rect x="-226.316" y="834.707" width="480" height="480" rx="12" transform="rotate(-118.452 -226.316 834.707)" fill="url(#paint2_linear_7838_71528)"/>
</mask>
<g mask="url(#mask1_7838_71528)">
<rect x="-140.628" y="664.528" width="220" height="220" rx="10" transform="rotate(-130.952 -140.628 664.528)" stroke="#2CCEFF" stroke-width="4"/>
<rect x="-143.824" y="709.671" width="284" height="284" rx="10" transform="rotate(-130.952 -143.824 709.671)" stroke="#2CCEFF" stroke-width="4"/>
<rect x="-147.015" y="754.813" width="348" height="348" rx="10" transform="rotate(-130.952 -147.015 754.813)" stroke="#2CCEFF" stroke-width="4"/>
<rect x="-150.21" y="799.956" width="412" height="412" rx="10" transform="rotate(-130.952 -150.21 799.956)" stroke="#2CCEFF" stroke-width="4"/>
<rect x="-153.406" y="845.097" width="476" height="476" rx="10" transform="rotate(-130.952 -153.406 845.097)" stroke="#2CCEFF" stroke-width="4"/>
</g>
<mask id="mask2_7838_71528" style="mask-type:alpha" maskUnits="userSpaceOnUse" x="1609" y="-229" width="628" height="628">
<rect x="1794.06" y="-229" width="480" height="480" rx="12" transform="rotate(22.6777 1794.06 -229)" fill="url(#paint3_linear_7838_71528)"/>
</mask>
<g mask="url(#mask2_7838_71528)">
<rect x="1885.02" y="30.411" width="94" height="94" rx="11" transform="rotate(10.1777 1885.02 30.411)" stroke="#2CCEFF" stroke-width="2"/>
<rect x="1859.99" y="-5.57846" width="156" height="156" rx="10" transform="rotate(10.1777 1859.99 -5.57846)" stroke="#2CCEFF" stroke-width="4"/>
<rect x="1834.15" y="-42.7288" width="220" height="220" rx="10" transform="rotate(10.1777 1834.15 -42.7288)" stroke="#2CCEFF" stroke-width="4"/>
<rect x="1808.3" y="-79.8812" width="284" height="284" rx="10" transform="rotate(10.1777 1808.3 -79.8812)" stroke="#2CCEFF" stroke-width="4"/>
<rect x="1782.46" y="-117.032" width="348" height="348" rx="10" transform="rotate(10.1777 1782.46 -117.032)" stroke="#2CCEFF" stroke-width="4"/>
<rect x="1756.62" y="-154.182" width="412" height="412" rx="10" transform="rotate(10.1777 1756.62 -154.182)" stroke="#2CCEFF" stroke-width="4"/>
<rect x="1730.78" y="-191.332" width="476" height="476" rx="10" transform="rotate(10.1777 1730.78 -191.332)" stroke="#2CCEFF" stroke-width="4"/>
</g>
</g>
<defs>
<linearGradient id="paint0_linear_7838_71528" x1="-3.86544e-05" y1="12.037" x2="805.855" y2="1604.35" gradientUnits="userSpaceOnUse">
<stop stop-color="#242A33"/>
<stop offset="1" stop-color="#053246"/>
</linearGradient>
<linearGradient id="paint1_linear_7838_71528" x1="847" y1="0" x2="847" y2="399" gradientUnits="userSpaceOnUse">
<stop/>
<stop offset="1" stop-opacity="0"/>
</linearGradient>
<linearGradient id="paint2_linear_7838_71528" x1="13.6836" y1="834.707" x2="13.6836" y2="1314.71" gradientUnits="userSpaceOnUse">
<stop/>
<stop offset="0.991144" stop-opacity="0"/>
</linearGradient>
<linearGradient id="paint3_linear_7838_71528" x1="2034.06" y1="-229" x2="2034.06" y2="251" gradientUnits="userSpaceOnUse">
<stop/>
<stop offset="0.991144" stop-opacity="0"/>
</linearGradient>
<clipPath id="clip0_7838_71528">
<rect width="2000" height="1000" fill="white"/>
</clipPath>
</defs>
</svg>
