<svg width="2000" height="1000" viewBox="0 0 2000 1000" fill="none" xmlns="http://www.w3.org/2000/svg">
<g clip-path="url(#clip0_7838_71563)">
<rect width="2000" height="1000" fill="white"/>
<rect width="2000" height="1000" fill="url(#paint0_linear_7838_71563)"/>
<path d="M152.688 219.048H183.152V237H129.432V141.528H152.688V219.048ZM189.621 198.92C189.621 191.123 191.071 184.277 193.973 178.384C196.965 172.491 200.999 167.957 206.077 164.784C211.154 161.611 216.821 160.024 223.077 160.024C228.426 160.024 233.095 161.112 237.085 163.288C241.165 165.464 244.293 168.32 246.469 171.856V161.112H269.725V237H246.469V226.256C244.202 229.792 241.029 232.648 236.949 234.824C232.959 237 228.29 238.088 222.941 238.088C216.775 238.088 211.154 236.501 206.077 233.328C200.999 230.064 196.965 225.485 193.973 219.592C191.071 213.608 189.621 206.717 189.621 198.92ZM246.469 199.056C246.469 193.253 244.837 188.675 241.573 185.32C238.399 181.965 234.501 180.288 229.877 180.288C225.253 180.288 221.309 181.965 218.045 185.32C214.871 188.584 213.285 193.117 213.285 198.92C213.285 204.723 214.871 209.347 218.045 212.792C221.309 216.147 225.253 217.824 229.877 217.824C234.501 217.824 238.399 216.147 241.573 212.792C244.837 209.437 246.469 204.859 246.469 199.056ZM328.845 217.28V237H317.013C308.581 237 302.008 234.96 297.293 230.88C292.579 226.709 290.221 219.955 290.221 210.616V180.424H280.973V161.112H290.221V142.616H313.477V161.112H328.709V180.424H313.477V210.888C313.477 213.155 314.021 214.787 315.109 215.784C316.197 216.781 318.011 217.28 320.549 217.28H328.845ZM413.335 197.832C413.335 200.008 413.199 202.275 412.927 204.632H360.295C360.658 209.347 362.154 212.973 364.783 215.512C367.503 217.96 370.813 219.184 374.711 219.184C380.514 219.184 384.549 216.736 386.815 211.84H411.567C410.298 216.827 407.986 221.315 404.631 225.304C401.367 229.293 397.242 232.421 392.255 234.688C387.269 236.955 381.693 238.088 375.527 238.088C368.093 238.088 361.474 236.501 355.671 233.328C349.869 230.155 345.335 225.621 342.071 219.728C338.807 213.835 337.175 206.944 337.175 199.056C337.175 191.168 338.762 184.277 341.935 178.384C345.199 172.491 349.733 167.957 355.535 164.784C361.338 161.611 368.002 160.024 375.527 160.024C382.871 160.024 389.399 161.565 395.111 164.648C400.823 167.731 405.266 172.128 408.439 177.84C411.703 183.552 413.335 190.216 413.335 197.832ZM389.535 191.712C389.535 187.723 388.175 184.549 385.455 182.192C382.735 179.835 379.335 178.656 375.255 178.656C371.357 178.656 368.047 179.789 365.327 182.056C362.698 184.323 361.066 187.541 360.431 191.712H389.535ZM456.476 238.088C449.857 238.088 443.964 236.955 438.796 234.688C433.628 232.421 429.548 229.339 426.556 225.44C423.564 221.451 421.887 217.008 421.524 212.112H444.508C444.78 214.741 446.004 216.872 448.18 218.504C450.356 220.136 453.031 220.952 456.204 220.952C459.105 220.952 461.327 220.408 462.868 219.32C464.5 218.141 465.316 216.645 465.316 214.832C465.316 212.656 464.183 211.069 461.916 210.072C459.649 208.984 455.977 207.805 450.9 206.536C445.46 205.267 440.927 203.952 437.3 202.592C433.673 201.141 430.545 198.92 427.916 195.928C425.287 192.845 423.972 188.72 423.972 183.552C423.972 179.2 425.151 175.256 427.508 171.72C429.956 168.093 433.492 165.237 438.116 163.152C442.831 161.067 448.407 160.024 454.844 160.024C464.364 160.024 471.844 162.381 477.284 167.096C482.815 171.811 485.988 178.067 486.804 185.864H465.316C464.953 183.235 463.775 181.149 461.78 179.608C459.876 178.067 457.337 177.296 454.164 177.296C451.444 177.296 449.359 177.84 447.908 178.928C446.457 179.925 445.732 181.331 445.732 183.144C445.732 185.32 446.865 186.952 449.132 188.04C451.489 189.128 455.116 190.216 460.012 191.304C465.633 192.755 470.212 194.205 473.748 195.656C477.284 197.016 480.367 199.283 482.996 202.456C485.716 205.539 487.121 209.709 487.212 214.968C487.212 219.411 485.943 223.4 483.404 226.936C480.956 230.381 477.375 233.101 472.66 235.096C468.036 237.091 462.641 238.088 456.476 238.088ZM543.736 217.28V237H531.904C523.472 237 516.898 234.96 512.184 230.88C507.469 226.709 505.112 219.955 505.112 210.616V180.424H495.864V161.112H505.112V142.616H528.368V161.112H543.6V180.424H528.368V210.888C528.368 213.155 528.912 214.787 530 215.784C531.088 216.781 532.901 217.28 535.44 217.28H543.736ZM608.766 171.856C610.942 168.32 614.07 165.464 618.15 163.288C622.23 161.112 626.899 160.024 632.158 160.024C638.414 160.024 644.081 161.611 649.158 164.784C654.235 167.957 658.225 172.491 661.126 178.384C664.118 184.277 665.614 191.123 665.614 198.92C665.614 206.717 664.118 213.608 661.126 219.592C658.225 225.485 654.235 230.064 649.158 233.328C644.081 236.501 638.414 238.088 632.158 238.088C626.809 238.088 622.139 237.045 618.15 234.96C614.161 232.784 611.033 229.928 608.766 226.392V237H585.51V136.36H608.766V171.856ZM641.95 198.92C641.95 193.117 640.318 188.584 637.054 185.32C633.881 181.965 629.937 180.288 625.222 180.288C620.598 180.288 616.654 181.965 613.39 185.32C610.217 188.675 608.63 193.253 608.63 199.056C608.63 204.859 610.217 209.437 613.39 212.792C616.654 216.147 620.598 217.824 625.222 217.824C629.846 217.824 633.79 216.147 637.054 212.792C640.318 209.347 641.95 204.723 641.95 198.92ZM701.071 136.36V237H677.815V136.36H701.071ZM752.468 238.088C745.034 238.088 738.324 236.501 732.34 233.328C726.447 230.155 721.778 225.621 718.332 219.728C714.978 213.835 713.3 206.944 713.3 199.056C713.3 191.259 715.023 184.413 718.468 178.52C721.914 172.536 726.628 167.957 732.612 164.784C738.596 161.611 745.306 160.024 752.74 160.024C760.175 160.024 766.884 161.611 772.868 164.784C778.852 167.957 783.567 172.536 787.012 178.52C790.458 184.413 792.18 191.259 792.18 199.056C792.18 206.853 790.412 213.744 786.876 219.728C783.431 225.621 778.671 230.155 772.596 233.328C766.612 236.501 759.903 238.088 752.468 238.088ZM752.468 217.96C756.911 217.96 760.674 216.328 763.756 213.064C766.93 209.8 768.516 205.131 768.516 199.056C768.516 192.981 766.975 188.312 763.892 185.048C760.9 181.784 757.183 180.152 752.74 180.152C748.207 180.152 744.444 181.784 741.452 185.048C738.46 188.221 736.964 192.891 736.964 199.056C736.964 205.131 738.415 209.8 741.316 213.064C744.308 216.328 748.026 217.96 752.468 217.96ZM799.894 199.056C799.894 191.168 801.481 184.277 804.654 178.384C807.918 172.491 812.406 167.957 818.118 164.784C823.921 161.611 830.539 160.024 837.974 160.024C847.494 160.024 855.427 162.517 861.774 167.504C868.211 172.491 872.427 179.517 874.422 188.584H849.67C847.585 182.781 843.55 179.88 837.566 179.88C833.305 179.88 829.905 181.557 827.366 184.912C824.827 188.176 823.558 192.891 823.558 199.056C823.558 205.221 824.827 209.981 827.366 213.336C829.905 216.6 833.305 218.232 837.566 218.232C843.55 218.232 847.585 215.331 849.67 209.528H874.422C872.427 218.413 868.211 225.395 861.774 230.472C855.337 235.549 847.403 238.088 837.974 238.088C830.539 238.088 823.921 236.501 818.118 233.328C812.406 230.155 807.918 225.621 804.654 219.728C801.481 213.835 799.894 206.944 799.894 199.056ZM933.238 237L910.118 205.176V237H886.862V136.36H910.118V191.984L933.102 161.112H961.798L930.246 199.192L962.07 237H933.238ZM1001.8 238.088C995.185 238.088 989.292 236.955 984.124 234.688C978.956 232.421 974.876 229.339 971.884 225.44C968.892 221.451 967.215 217.008 966.852 212.112H989.836C990.108 214.741 991.332 216.872 993.508 218.504C995.684 220.136 998.359 220.952 1001.53 220.952C1004.43 220.952 1006.65 220.408 1008.2 219.32C1009.83 218.141 1010.64 216.645 1010.64 214.832C1010.64 212.656 1009.51 211.069 1007.24 210.072C1004.98 208.984 1001.31 207.805 996.228 206.536C990.788 205.267 986.255 203.952 982.628 202.592C979.001 201.141 975.873 198.92 973.244 195.928C970.615 192.845 969.3 188.72 969.3 183.552C969.3 179.2 970.479 175.256 972.836 171.72C975.284 168.093 978.82 165.237 983.444 163.152C988.159 161.067 993.735 160.024 1000.17 160.024C1009.69 160.024 1017.17 162.381 1022.61 167.096C1028.14 171.811 1031.32 178.067 1032.13 185.864H1010.64C1010.28 183.235 1009.1 181.149 1007.11 179.608C1005.2 178.067 1002.67 177.296 999.492 177.296C996.772 177.296 994.687 177.84 993.236 178.928C991.785 179.925 991.06 181.331 991.06 183.144C991.06 185.32 992.193 186.952 994.46 188.04C996.817 189.128 1000.44 190.216 1005.34 191.304C1010.96 192.755 1015.54 194.205 1019.08 195.656C1022.61 197.016 1025.69 199.283 1028.32 202.456C1031.04 205.539 1032.45 209.709 1032.54 214.968C1032.54 219.411 1031.27 223.4 1028.73 226.936C1026.28 230.381 1022.7 233.101 1017.99 235.096C1013.36 237.091 1007.97 238.088 1001.8 238.088Z" fill="white"/>
<rect x="121" y="391" width="1758" height="488" rx="12" fill="#F9FAFB"/>
<rect x="217" y="455" width="60" height="60" rx="4" fill="#16B364"/>
<rect x="217" y="530" width="60" height="60" rx="4" fill="#EAAA08"/>
<rect x="217" y="605" width="60" height="60" rx="4" fill="#EAAA08"/>
<rect x="217" y="680" width="60" height="60" rx="4" fill="#16B364"/>
<rect x="217" y="755" width="60" height="60" rx="4" fill="#16B364"/>
<rect x="292.301" y="455" width="60" height="60" rx="4" fill="#16B364"/>
<rect x="292.301" y="530" width="60" height="60" rx="4" fill="#16B364"/>
<rect x="292.301" y="605" width="60" height="60" rx="4" fill="#16B364"/>
<rect x="292.301" y="680" width="60" height="60" rx="4" fill="#EAAA08"/>
<rect x="292.301" y="755" width="60" height="60" rx="4" fill="#16B364"/>
<rect x="367.602" y="455" width="60" height="60" rx="4" fill="#16B364"/>
<rect x="367.602" y="530" width="60" height="60" rx="4" fill="#16B364"/>
<rect x="367.602" y="605" width="60" height="60" rx="4" fill="#16B364"/>
<rect x="367.602" y="680" width="60" height="60" rx="4" fill="#EAAA08"/>
<rect x="367.602" y="755" width="60" height="60" rx="4" fill="#16B364"/>
<rect x="442.898" y="455" width="60" height="60" rx="4" fill="#16B364"/>
<rect x="442.898" y="530" width="60" height="60" rx="4" fill="#16B364"/>
<rect x="442.898" y="605" width="60" height="60" rx="4" fill="#EAAA08"/>
<rect x="442.898" y="680" width="60" height="60" rx="4" fill="#16B364"/>
<rect x="442.898" y="755" width="60" height="60" rx="4" fill="#16B364"/>
<rect x="518.199" y="455" width="60" height="60" rx="4" fill="#16B364"/>
<rect x="518.199" y="530" width="60" height="60" rx="4" fill="#16B364"/>
<rect x="518.199" y="605" width="60" height="60" rx="4" fill="#16B364"/>
<rect x="518.199" y="680" width="60" height="60" rx="4" fill="#F04438"/>
<rect x="518.199" y="755" width="60" height="60" rx="4" fill="#16B364"/>
<rect x="593.5" y="455" width="60" height="60" rx="4" fill="#16B364"/>
<rect x="593.5" y="530" width="60" height="60" rx="4" fill="#EAAA08"/>
<rect x="593.5" y="605" width="60" height="60" rx="4" fill="#EAAA08"/>
<rect x="593.5" y="680" width="60" height="60" rx="4" fill="#F04438"/>
<rect x="593.5" y="755" width="60" height="60" rx="4" fill="#16B364"/>
<rect x="668.801" y="455" width="60" height="60" rx="4" fill="#16B364"/>
<rect x="668.801" y="530" width="60" height="60" rx="4" fill="#16B364"/>
<rect x="668.801" y="605" width="60" height="60" rx="4" fill="#16B364"/>
<rect x="668.801" y="680" width="60" height="60" rx="4" fill="#16B364"/>
<rect x="668.801" y="755" width="60" height="60" rx="4" fill="#16B364"/>
<rect x="744.102" y="455" width="60" height="60" rx="4" fill="#16B364"/>
<rect x="744.102" y="530" width="60" height="60" rx="4" fill="#EAAA08"/>
<rect x="744.102" y="605" width="60" height="60" rx="4" fill="#16B364"/>
<rect x="744.102" y="680" width="60" height="60" rx="4" fill="#16B364"/>
<rect x="744.102" y="755" width="60" height="60" rx="4" fill="#16B364"/>
<rect x="819.398" y="455" width="60" height="60" rx="4" fill="#16B364"/>
<rect x="819.398" y="530" width="60" height="60" rx="4" fill="#16B364"/>
<rect x="819.398" y="605" width="60" height="60" rx="4" fill="#F04438"/>
<rect x="819.398" y="680" width="60" height="60" rx="4" fill="#16B364"/>
<rect x="819.398" y="755" width="60" height="60" rx="4" fill="#EAAA08"/>
<rect x="894.699" y="455" width="60" height="60" rx="4" fill="#16B364"/>
<rect x="894.699" y="530" width="60" height="60" rx="4" fill="#16B364"/>
<rect x="894.699" y="605" width="60" height="60" rx="4" fill="#EAAA08"/>
<rect x="894.699" y="680" width="60" height="60" rx="4" fill="#16B364"/>
<rect x="894.699" y="755" width="60" height="60" rx="4" fill="#16B364"/>
<rect x="970" y="455" width="60" height="60" rx="4" fill="#16B364"/>
<rect x="970" y="530" width="60" height="60" rx="4" fill="#16B364"/>
<rect x="970" y="605" width="60" height="60" rx="4" fill="#16B364"/>
<rect x="970" y="680" width="60" height="60" rx="4" fill="#16B364"/>
<rect x="970" y="755" width="60" height="60" rx="4" fill="#16B364"/>
<rect x="1045.3" y="455" width="60" height="60" rx="4" fill="#16B364"/>
<rect x="1045.3" y="530" width="60" height="60" rx="4" fill="#16B364"/>
<rect x="1045.3" y="605" width="60" height="60" rx="4" fill="#EAAA08"/>
<rect x="1045.3" y="680" width="60" height="60" rx="4" fill="#16B364"/>
<rect x="1045.3" y="755" width="60" height="60" rx="4" fill="#EAAA08"/>
<rect x="1120.6" y="455" width="60" height="60" rx="4" fill="#F04438"/>
<rect x="1120.6" y="530" width="60" height="60" rx="4" fill="#16B364"/>
<rect x="1120.6" y="605" width="60" height="60" rx="4" fill="#16B364"/>
<rect x="1120.6" y="680" width="60" height="60" rx="4" fill="#EAAA08"/>
<rect x="1120.6" y="755" width="60" height="60" rx="4" fill="#16B364"/>
<rect x="1195.9" y="455" width="60" height="60" rx="4" fill="#16B364"/>
<rect x="1195.9" y="530" width="60" height="60" rx="4" fill="#16B364"/>
<rect x="1195.9" y="605" width="60" height="60" rx="4" fill="#16B364"/>
<rect x="1195.9" y="680" width="60" height="60" rx="4" fill="#16B364"/>
<rect x="1195.9" y="755" width="60" height="60" rx="4" fill="#F04438"/>
<rect x="1271.2" y="455" width="60" height="60" rx="4" fill="#16B364"/>
<rect x="1271.2" y="530" width="60" height="60" rx="4" fill="#16B364"/>
<rect x="1271.2" y="605" width="60" height="60" rx="4" fill="#EAAA08"/>
<rect x="1271.2" y="680" width="60" height="60" rx="4" fill="#EAAA08"/>
<rect x="1271.2" y="755" width="60" height="60" rx="4" fill="#16B364"/>
<rect x="1346.5" y="455" width="60" height="60" rx="4" fill="#16B364"/>
<rect x="1346.5" y="530" width="60" height="60" rx="4" fill="#16B364"/>
<rect x="1346.5" y="605" width="60" height="60" rx="4" fill="#16B364"/>
<rect x="1346.5" y="680" width="60" height="60" rx="4" fill="#16B364"/>
<rect x="1346.5" y="755" width="60" height="60" rx="4" fill="#16B364"/>
<rect x="1421.8" y="455" width="60" height="60" rx="4" fill="#EAAA08"/>
<rect x="1421.8" y="530" width="60" height="60" rx="4" fill="#16B364"/>
<rect x="1421.8" y="605" width="60" height="60" rx="4" fill="#16B364"/>
<rect x="1421.8" y="680" width="60" height="60" rx="4" fill="#16B364"/>
<rect x="1421.8" y="755" width="60" height="60" rx="4" fill="#16B364"/>
<rect x="1497.1" y="455" width="60" height="60" rx="4" fill="#EAAA08"/>
<rect x="1497.1" y="530" width="60" height="60" rx="4" fill="#16B364"/>
<rect x="1497.1" y="605" width="60" height="60" rx="4" fill="#EAAA08"/>
<rect x="1497.1" y="680" width="60" height="60" rx="4" fill="#16B364"/>
<rect x="1497.1" y="755" width="60" height="60" rx="4" fill="#EAAA08"/>
<rect x="1572.4" y="455" width="60" height="60" rx="4" fill="#16B364"/>
<rect x="1572.4" y="530" width="60" height="60" rx="4" fill="#16B364"/>
<rect x="1572.4" y="605" width="60" height="60" rx="4" fill="#EAAA08"/>
<rect x="1572.4" y="680" width="60" height="60" rx="4" fill="#16B364"/>
<rect x="1572.4" y="755" width="60" height="60" rx="4" fill="#F04438"/>
<rect x="1647.7" y="455" width="60" height="60" rx="4" fill="#16B364"/>
<rect x="1647.7" y="530" width="60" height="60" rx="4" fill="#EAAA08"/>
<rect x="1647.7" y="605" width="60" height="60" rx="4" fill="#16B364"/>
<rect x="1647.7" y="680" width="60" height="60" rx="4" fill="#16B364"/>
<rect x="1647.7" y="755" width="60" height="60" rx="4" fill="#16B364"/>
<rect x="1723" y="455" width="60" height="60" rx="4" fill="#16B364"/>
<rect x="1723" y="530" width="60" height="60" rx="4" fill="#16B364"/>
<rect x="1723" y="605" width="60" height="60" rx="4" fill="#16B364"/>
<rect x="1723" y="680" width="60" height="60" rx="4" fill="#16B364"/>
<rect x="1723" y="755" width="60" height="60" rx="4" fill="#16B364"/>
<mask id="mask0_7838_71563" style="mask-type:alpha" maskUnits="userSpaceOnUse" x="-455" y="184" width="651" height="651">
<rect x="-226.316" y="834.707" width="480" height="480" rx="12" transform="rotate(-118.452 -226.316 834.707)" fill="url(#paint1_linear_7838_71563)"/>
</mask>
<g mask="url(#mask0_7838_71563)">
<rect x="-140.628" y="664.528" width="220" height="220" rx="10" transform="rotate(-130.952 -140.628 664.528)" stroke="#2CCEFF" stroke-width="4"/>
<rect x="-143.822" y="709.671" width="284" height="284" rx="10" transform="rotate(-130.952 -143.822 709.671)" stroke="#2CCEFF" stroke-width="4"/>
<rect x="-147.017" y="754.813" width="348" height="348" rx="10" transform="rotate(-130.952 -147.017 754.813)" stroke="#2CCEFF" stroke-width="4"/>
<rect x="-150.21" y="799.956" width="412" height="412" rx="10" transform="rotate(-130.952 -150.21 799.956)" stroke="#2CCEFF" stroke-width="4"/>
<rect x="-153.406" y="845.097" width="476" height="476" rx="10" transform="rotate(-130.952 -153.406 845.097)" stroke="#2CCEFF" stroke-width="4"/>
</g>
<mask id="mask1_7838_71563" style="mask-type:alpha" maskUnits="userSpaceOnUse" x="1609" y="-229" width="628" height="628">
<rect x="1794.06" y="-229" width="480" height="480" rx="12" transform="rotate(22.6777 1794.06 -229)" fill="url(#paint2_linear_7838_71563)"/>
</mask>
<g mask="url(#mask1_7838_71563)">
<rect x="1885.02" y="30.411" width="94" height="94" rx="11" transform="rotate(10.1777 1885.02 30.411)" stroke="#2CCEFF" stroke-width="2"/>
<rect x="1859.99" y="-5.57846" width="156" height="156" rx="10" transform="rotate(10.1777 1859.99 -5.57846)" stroke="#2CCEFF" stroke-width="4"/>
<rect x="1834.15" y="-42.7288" width="220" height="220" rx="10" transform="rotate(10.1777 1834.15 -42.7288)" stroke="#2CCEFF" stroke-width="4"/>
<rect x="1808.3" y="-79.8812" width="284" height="284" rx="10" transform="rotate(10.1777 1808.3 -79.8812)" stroke="#2CCEFF" stroke-width="4"/>
<rect x="1782.46" y="-117.032" width="348" height="348" rx="10" transform="rotate(10.1777 1782.46 -117.032)" stroke="#2CCEFF" stroke-width="4"/>
<rect x="1756.62" y="-154.182" width="412" height="412" rx="10" transform="rotate(10.1777 1756.62 -154.182)" stroke="#2CCEFF" stroke-width="4"/>
<rect x="1730.78" y="-191.332" width="476" height="476" rx="10" transform="rotate(10.1777 1730.78 -191.332)" stroke="#2CCEFF" stroke-width="4"/>
</g>
</g>
<defs>
<linearGradient id="paint0_linear_7838_71563" x1="-3.86544e-05" y1="12.037" x2="805.855" y2="1604.35" gradientUnits="userSpaceOnUse">
<stop stop-color="#242A33"/>
<stop offset="1" stop-color="#053246"/>
</linearGradient>
<linearGradient id="paint1_linear_7838_71563" x1="13.6836" y1="834.707" x2="13.6836" y2="1314.71" gradientUnits="userSpaceOnUse">
<stop/>
<stop offset="0.991144" stop-opacity="0"/>
</linearGradient>
<linearGradient id="paint2_linear_7838_71563" x1="2034.06" y1="-229" x2="2034.06" y2="251" gradientUnits="userSpaceOnUse">
<stop/>
<stop offset="0.991144" stop-opacity="0"/>
</linearGradient>
<clipPath id="clip0_7838_71563">
<rect width="2000" height="1000" fill="white"/>
</clipPath>
</defs>
</svg>
