<svg width="2000" height="1000" viewBox="0 0 2000 1000" fill="none" xmlns="http://www.w3.org/2000/svg">
<g clip-path="url(#clip0_7901_69806)">
<rect width="2000" height="1000" fill="white"/>
<rect width="2000" height="1000" fill="url(#paint0_linear_7901_69806)"/>
<path d="M163.976 237.952C156.995 237.952 150.739 236.819 145.208 234.552C139.677 232.285 135.235 228.931 131.88 224.488C128.616 220.045 126.893 214.696 126.712 208.44H151.464C151.827 211.976 153.051 214.696 155.136 216.6C157.221 218.413 159.941 219.32 163.296 219.32C166.741 219.32 169.461 218.549 171.456 217.008C173.451 215.376 174.448 213.155 174.448 210.344C174.448 207.987 173.632 206.037 172 204.496C170.459 202.955 168.509 201.685 166.152 200.688C163.885 199.691 160.621 198.557 156.36 197.288C150.195 195.384 145.163 193.48 141.264 191.576C137.365 189.672 134.011 186.861 131.2 183.144C128.389 179.427 126.984 174.576 126.984 168.592C126.984 159.707 130.203 152.771 136.64 147.784C143.077 142.707 151.464 140.168 161.8 140.168C172.317 140.168 180.795 142.707 187.232 147.784C193.669 152.771 197.115 159.752 197.568 168.728H172.408C172.227 165.645 171.093 163.243 169.008 161.52C166.923 159.707 164.248 158.8 160.984 158.8C158.173 158.8 155.907 159.571 154.184 161.112C152.461 162.563 151.6 164.693 151.6 167.504C151.6 170.587 153.051 172.989 155.952 174.712C158.853 176.435 163.387 178.293 169.552 180.288C175.717 182.373 180.704 184.368 184.512 186.272C188.411 188.176 191.765 190.941 194.576 194.568C197.387 198.195 198.792 202.864 198.792 208.576C198.792 214.016 197.387 218.957 194.576 223.4C191.856 227.843 187.867 231.379 182.608 234.008C177.349 236.637 171.139 237.952 163.976 237.952ZM255.4 217.28V237H243.568C235.136 237 228.563 234.96 223.848 230.88C219.133 226.709 216.776 219.955 216.776 210.616V180.424H207.528V161.112H216.776V142.616H240.032V161.112H255.264V180.424H240.032V210.888C240.032 213.155 240.576 214.787 241.664 215.784C242.752 216.781 244.565 217.28 247.104 217.28H255.4ZM263.73 198.92C263.73 191.123 265.181 184.277 268.082 178.384C271.074 172.491 275.109 167.957 280.186 164.784C285.263 161.611 290.93 160.024 297.186 160.024C302.535 160.024 307.205 161.112 311.194 163.288C315.274 165.464 318.402 168.32 320.578 171.856V161.112H343.834V237H320.578V226.256C318.311 229.792 315.138 232.648 311.058 234.824C307.069 237 302.399 238.088 297.05 238.088C290.885 238.088 285.263 236.501 280.186 233.328C275.109 230.064 271.074 225.485 268.082 219.592C265.181 213.608 263.73 206.717 263.73 198.92ZM320.578 199.056C320.578 193.253 318.946 188.675 315.682 185.32C312.509 181.965 308.61 180.288 303.986 180.288C299.362 180.288 295.418 181.965 292.154 185.32C288.981 188.584 287.394 193.117 287.394 198.92C287.394 204.723 288.981 209.347 292.154 212.792C295.418 216.147 299.362 217.824 303.986 217.824C308.61 217.824 312.509 216.147 315.682 212.792C318.946 209.437 320.578 204.859 320.578 199.056ZM407.035 237L383.915 205.176V237H360.659V136.36H383.915V191.984L406.899 161.112H435.595L404.043 199.192L435.867 237H407.035ZM516.265 197.832C516.265 200.008 516.129 202.275 515.857 204.632H463.225C463.588 209.347 465.084 212.973 467.713 215.512C470.433 217.96 473.742 219.184 477.641 219.184C483.444 219.184 487.478 216.736 489.745 211.84H514.497C513.228 216.827 510.916 221.315 507.561 225.304C504.297 229.293 500.172 232.421 495.185 234.688C490.198 236.955 484.622 238.088 478.457 238.088C471.022 238.088 464.404 236.501 458.601 233.328C452.798 230.155 448.265 225.621 445.001 219.728C441.737 213.835 440.105 206.944 440.105 199.056C440.105 191.168 441.692 184.277 444.865 178.384C448.129 172.491 452.662 167.957 458.465 164.784C464.268 161.611 470.932 160.024 478.457 160.024C485.801 160.024 492.329 161.565 498.041 164.648C503.753 167.731 508.196 172.128 511.369 177.84C514.633 183.552 516.265 190.216 516.265 197.832ZM492.465 191.712C492.465 187.723 491.105 184.549 488.385 182.192C485.665 179.835 482.265 178.656 478.185 178.656C474.286 178.656 470.977 179.789 468.257 182.056C465.628 184.323 463.996 187.541 463.361 191.712H492.465ZM580.61 171.856C582.877 168.32 586.005 165.464 589.994 163.288C593.983 161.112 598.653 160.024 604.002 160.024C610.258 160.024 615.925 161.611 621.002 164.784C626.079 167.957 630.069 172.491 632.97 178.384C635.962 184.277 637.458 191.123 637.458 198.92C637.458 206.717 635.962 213.608 632.97 219.592C630.069 225.485 626.079 230.064 621.002 233.328C615.925 236.501 610.258 238.088 604.002 238.088C598.743 238.088 594.074 237 589.994 234.824C586.005 232.648 582.877 229.837 580.61 226.392V273.176H557.354V161.112H580.61V171.856ZM613.794 198.92C613.794 193.117 612.162 188.584 608.898 185.32C605.725 181.965 601.781 180.288 597.066 180.288C592.442 180.288 588.498 181.965 585.234 185.32C582.061 188.675 580.474 193.253 580.474 199.056C580.474 204.859 582.061 209.437 585.234 212.792C588.498 216.147 592.442 217.824 597.066 217.824C601.69 217.824 605.634 216.147 608.898 212.792C612.162 209.347 613.794 204.723 613.794 198.92ZM684.203 238.088C676.768 238.088 670.059 236.501 664.075 233.328C658.181 230.155 653.512 225.621 650.067 219.728C646.712 213.835 645.035 206.944 645.035 199.056C645.035 191.259 646.757 184.413 650.203 178.52C653.648 172.536 658.363 167.957 664.347 164.784C670.331 161.611 677.04 160.024 684.475 160.024C691.909 160.024 698.619 161.611 704.603 164.784C710.587 167.957 715.301 172.536 718.747 178.52C722.192 184.413 723.915 191.259 723.915 199.056C723.915 206.853 722.147 213.744 718.611 219.728C715.165 225.621 710.405 230.155 704.331 233.328C698.347 236.501 691.637 238.088 684.203 238.088ZM684.203 217.96C688.645 217.96 692.408 216.328 695.491 213.064C698.664 209.8 700.251 205.131 700.251 199.056C700.251 192.981 698.709 188.312 695.627 185.048C692.635 181.784 688.917 180.152 684.475 180.152C679.941 180.152 676.179 181.784 673.187 185.048C670.195 188.221 668.699 192.891 668.699 199.056C668.699 205.131 670.149 209.8 673.051 213.064C676.043 216.328 679.76 217.96 684.203 217.96ZM770.796 238.088C763.362 238.088 756.652 236.501 750.668 233.328C744.775 230.155 740.106 225.621 736.66 219.728C733.306 213.835 731.628 206.944 731.628 199.056C731.628 191.259 733.351 184.413 736.796 178.52C740.242 172.536 744.956 167.957 750.94 164.784C756.924 161.611 763.634 160.024 771.068 160.024C778.503 160.024 785.212 161.611 791.196 164.784C797.18 167.957 801.895 172.536 805.34 178.52C808.786 184.413 810.508 191.259 810.508 199.056C810.508 206.853 808.74 213.744 805.204 219.728C801.759 225.621 796.999 230.155 790.924 233.328C784.94 236.501 778.231 238.088 770.796 238.088ZM770.796 217.96C775.239 217.96 779.002 216.328 782.084 213.064C785.258 209.8 786.844 205.131 786.844 199.056C786.844 192.981 785.303 188.312 782.22 185.048C779.228 181.784 775.511 180.152 771.068 180.152C766.535 180.152 762.772 181.784 759.78 185.048C756.788 188.221 755.292 192.891 755.292 199.056C755.292 205.131 756.743 209.8 759.644 213.064C762.636 216.328 766.354 217.96 770.796 217.96ZM846.102 136.36V237H822.846V136.36H846.102ZM887.152 198.92C887.152 191.123 888.602 184.277 891.504 178.384C894.496 172.491 898.53 167.957 903.608 164.784C908.685 161.611 914.352 160.024 920.608 160.024C925.594 160.024 930.128 161.067 934.208 163.152C938.378 165.237 941.642 168.048 944 171.584V136.36H967.256V237H944V226.12C941.824 229.747 938.696 232.648 934.616 234.824C930.626 237 925.957 238.088 920.608 238.088C914.352 238.088 908.685 236.501 903.608 233.328C898.53 230.064 894.496 225.485 891.504 219.592C888.602 213.608 887.152 206.717 887.152 198.92ZM944 199.056C944 193.253 942.368 188.675 939.104 185.32C935.93 181.965 932.032 180.288 927.408 180.288C922.784 180.288 918.84 181.965 915.576 185.32C912.402 188.584 910.816 193.117 910.816 198.92C910.816 204.723 912.402 209.347 915.576 212.792C918.84 216.147 922.784 217.824 927.408 217.824C932.032 217.824 935.93 216.147 939.104 212.792C942.368 209.437 944 204.859 944 199.056ZM1055.62 197.832C1055.62 200.008 1055.48 202.275 1055.21 204.632H1002.58C1002.94 209.347 1004.44 212.973 1007.06 215.512C1009.78 217.96 1013.09 219.184 1016.99 219.184C1022.8 219.184 1026.83 216.736 1029.1 211.84H1053.85C1052.58 216.827 1050.27 221.315 1046.91 225.304C1043.65 229.293 1039.52 232.421 1034.54 234.688C1029.55 236.955 1023.97 238.088 1017.81 238.088C1010.37 238.088 1003.76 236.501 997.952 233.328C992.15 230.155 987.616 225.621 984.352 219.728C981.088 213.835 979.456 206.944 979.456 199.056C979.456 191.168 981.043 184.277 984.216 178.384C987.48 172.491 992.014 167.957 997.816 164.784C1003.62 161.611 1010.28 160.024 1017.81 160.024C1025.15 160.024 1031.68 161.565 1037.39 164.648C1043.1 167.731 1047.55 172.128 1050.72 177.84C1053.98 183.552 1055.62 190.216 1055.62 197.832ZM1031.82 191.712C1031.82 187.723 1030.46 184.549 1027.74 182.192C1025.02 179.835 1021.62 178.656 1017.54 178.656C1013.64 178.656 1010.33 179.789 1007.61 182.056C1004.98 184.323 1003.35 187.541 1002.71 191.712H1031.82ZM1110.18 217.28V237H1098.35C1089.92 237 1083.34 234.96 1078.63 230.88C1073.91 226.709 1071.56 219.955 1071.56 210.616V180.424H1062.31V161.112H1071.56V142.616H1094.81V161.112H1110.05V180.424H1094.81V210.888C1094.81 213.155 1095.36 214.787 1096.45 215.784C1097.53 216.781 1099.35 217.28 1101.89 217.28H1110.18ZM1118.51 198.92C1118.51 191.123 1119.96 184.277 1122.86 178.384C1125.86 172.491 1129.89 167.957 1134.97 164.784C1140.04 161.611 1145.71 160.024 1151.97 160.024C1157.32 160.024 1161.99 161.112 1165.98 163.288C1170.06 165.464 1173.18 168.32 1175.36 171.856V161.112H1198.62V237H1175.36V226.256C1173.09 229.792 1169.92 232.648 1165.84 234.824C1161.85 237 1157.18 238.088 1151.83 238.088C1145.67 238.088 1140.04 236.501 1134.97 233.328C1129.89 230.064 1125.86 225.485 1122.86 219.592C1119.96 213.608 1118.51 206.717 1118.51 198.92ZM1175.36 199.056C1175.36 193.253 1173.73 188.675 1170.46 185.32C1167.29 181.965 1163.39 180.288 1158.77 180.288C1154.14 180.288 1150.2 181.965 1146.94 185.32C1143.76 188.584 1142.18 193.117 1142.18 198.92C1142.18 204.723 1143.76 209.347 1146.94 212.792C1150.2 216.147 1154.14 217.824 1158.77 217.824C1163.39 217.824 1167.29 216.147 1170.46 212.792C1173.73 209.437 1175.36 204.859 1175.36 199.056ZM1227.14 153.224C1223.06 153.224 1219.7 152.045 1217.07 149.688C1214.53 147.24 1213.26 144.248 1213.26 140.712C1213.26 137.085 1214.53 134.093 1217.07 131.736C1219.7 129.288 1223.06 128.064 1227.14 128.064C1231.13 128.064 1234.39 129.288 1236.93 131.736C1239.56 134.093 1240.87 137.085 1240.87 140.712C1240.87 144.248 1239.56 147.24 1236.93 149.688C1234.39 152.045 1231.13 153.224 1227.14 153.224ZM1238.7 161.112V237H1215.44V161.112H1238.7ZM1278.81 136.36V237H1255.55V136.36H1278.81Z" fill="white"/>
<rect x="121" y="391" width="1758" height="488" rx="12" fill="#F9FAFB"/>
<rect x="217" y="455" width="360" height="360" rx="12" fill="#D0D5DD"/>
<rect x="673" y="457.5" width="148" height="45" rx="4" fill="#E4E7EC"/>
<rect x="901" y="458" width="609" height="45" rx="4" fill="#D0D5DD"/>
<rect x="673" y="535.5" width="187" height="45" rx="4" fill="#E4E7EC"/>
<rect x="901" y="535" width="778" height="45" rx="4" fill="#D0D5DD"/>
<rect x="673" y="611.5" width="88" height="45" rx="4" fill="#E4E7EC"/>
<rect x="901" y="612" width="407" height="45" rx="4" fill="#D0D5DD"/>
<rect x="673" y="688.5" width="139" height="45" rx="4" fill="#E4E7EC"/>
<rect x="901" y="689" width="273" height="46" rx="4" fill="#D0D5DD"/>
<rect x="673" y="767.5" width="200" height="45" rx="4" fill="#E4E7EC"/>
<rect x="901" y="767" width="652" height="45" rx="4" fill="#D0D5DD"/>
<mask id="mask0_7901_69806" style="mask-type:alpha" maskUnits="userSpaceOnUse" x="-455" y="184" width="651" height="651">
<rect x="-226.316" y="834.707" width="480" height="480" rx="12" transform="rotate(-118.452 -226.316 834.707)" fill="url(#paint1_linear_7901_69806)"/>
</mask>
<g mask="url(#mask0_7901_69806)">
<rect x="-140.628" y="664.528" width="220" height="220" rx="10" transform="rotate(-130.952 -140.628 664.528)" stroke="#2CCEFF" stroke-width="4"/>
<rect x="-143.824" y="709.671" width="284" height="284" rx="10" transform="rotate(-130.952 -143.824 709.671)" stroke="#2CCEFF" stroke-width="4"/>
<rect x="-147.015" y="754.813" width="348" height="348" rx="10" transform="rotate(-130.952 -147.015 754.813)" stroke="#2CCEFF" stroke-width="4"/>
<rect x="-150.21" y="799.956" width="412" height="412" rx="10" transform="rotate(-130.952 -150.21 799.956)" stroke="#2CCEFF" stroke-width="4"/>
<rect x="-153.406" y="845.097" width="476" height="476" rx="10" transform="rotate(-130.952 -153.406 845.097)" stroke="#2CCEFF" stroke-width="4"/>
</g>
<mask id="mask1_7901_69806" style="mask-type:alpha" maskUnits="userSpaceOnUse" x="1609" y="-229" width="628" height="628">
<rect x="1794.06" y="-229" width="480" height="480" rx="12" transform="rotate(22.6777 1794.06 -229)" fill="url(#paint2_linear_7901_69806)"/>
</mask>
<g mask="url(#mask1_7901_69806)">
<rect x="1885.02" y="30.411" width="94" height="94" rx="11" transform="rotate(10.1777 1885.02 30.411)" stroke="#2CCEFF" stroke-width="2"/>
<rect x="1859.99" y="-5.57846" width="156" height="156" rx="10" transform="rotate(10.1777 1859.99 -5.57846)" stroke="#2CCEFF" stroke-width="4"/>
<rect x="1834.15" y="-42.7288" width="220" height="220" rx="10" transform="rotate(10.1777 1834.15 -42.7288)" stroke="#2CCEFF" stroke-width="4"/>
<rect x="1808.3" y="-79.8812" width="284" height="284" rx="10" transform="rotate(10.1777 1808.3 -79.8812)" stroke="#2CCEFF" stroke-width="4"/>
<rect x="1782.46" y="-117.032" width="348" height="348" rx="10" transform="rotate(10.1777 1782.46 -117.032)" stroke="#2CCEFF" stroke-width="4"/>
<rect x="1756.62" y="-154.182" width="412" height="412" rx="10" transform="rotate(10.1777 1756.62 -154.182)" stroke="#2CCEFF" stroke-width="4"/>
<rect x="1730.78" y="-191.332" width="476" height="476" rx="10" transform="rotate(10.1777 1730.78 -191.332)" stroke="#2CCEFF" stroke-width="4"/>
</g>
</g>
<defs>
<linearGradient id="paint0_linear_7901_69806" x1="-3.86544e-05" y1="12.037" x2="805.855" y2="1604.35" gradientUnits="userSpaceOnUse">
<stop stop-color="#242A33"/>
<stop offset="1" stop-color="#053246"/>
</linearGradient>
<linearGradient id="paint1_linear_7901_69806" x1="13.6836" y1="834.707" x2="13.6836" y2="1314.71" gradientUnits="userSpaceOnUse">
<stop/>
<stop offset="0.991144" stop-opacity="0"/>
</linearGradient>
<linearGradient id="paint2_linear_7901_69806" x1="2034.06" y1="-229" x2="2034.06" y2="251" gradientUnits="userSpaceOnUse">
<stop/>
<stop offset="0.991144" stop-opacity="0"/>
</linearGradient>
<clipPath id="clip0_7901_69806">
<rect width="2000" height="1000" fill="white"/>
</clipPath>
</defs>
</svg>
