<svg width="2000" height="1000" viewBox="0 0 2000 1000" fill="none" xmlns="http://www.w3.org/2000/svg">
<g clip-path="url(#clip0_7806_68537)">
<rect width="2000" height="1000" fill="white"/>
<rect width="2000" height="1000" fill="url(#paint0_linear_7806_68537)"/>
<path d="M178.12 237L158.264 200.96H152.688V237H129.432V141.528H168.464C175.989 141.528 182.381 142.843 187.64 145.472C192.989 148.101 196.979 151.728 199.608 156.352C202.237 160.885 203.552 165.963 203.552 171.584C203.552 177.931 201.739 183.597 198.112 188.584C194.576 193.571 189.317 197.107 182.336 199.192L204.368 237H178.12ZM152.688 184.504H167.104C171.365 184.504 174.539 183.461 176.624 181.376C178.8 179.291 179.888 176.344 179.888 172.536C179.888 168.909 178.8 166.053 176.624 163.968C174.539 161.883 171.365 160.84 167.104 160.84H152.688V184.504ZM289.687 197.832C289.687 200.008 289.551 202.275 289.279 204.632H236.647C237.009 209.347 238.505 212.973 241.135 215.512C243.855 217.96 247.164 219.184 251.063 219.184C256.865 219.184 260.9 216.736 263.167 211.84H287.919C286.649 216.827 284.337 221.315 280.983 225.304C277.719 229.293 273.593 232.421 268.607 234.688C263.62 236.955 258.044 238.088 251.879 238.088C244.444 238.088 237.825 236.501 232.023 233.328C226.22 230.155 221.687 225.621 218.423 219.728C215.159 213.835 213.527 206.944 213.527 199.056C213.527 191.168 215.113 184.277 218.287 178.384C221.551 172.491 226.084 167.957 231.887 164.784C237.689 161.611 244.353 160.024 251.879 160.024C259.223 160.024 265.751 161.565 271.463 164.648C277.175 167.731 281.617 172.128 284.791 177.84C288.055 183.552 289.687 190.216 289.687 197.832ZM265.887 191.712C265.887 187.723 264.527 184.549 261.807 182.192C259.087 179.835 255.687 178.656 251.607 178.656C247.708 178.656 244.399 179.789 241.679 182.056C239.049 184.323 237.417 187.541 236.783 191.712H265.887ZM297.331 199.056C297.331 191.168 298.918 184.277 302.091 178.384C305.355 172.491 309.843 167.957 315.555 164.784C321.358 161.611 327.977 160.024 335.411 160.024C344.931 160.024 352.865 162.517 359.211 167.504C365.649 172.491 369.865 179.517 371.859 188.584H347.107C345.022 182.781 340.987 179.88 335.003 179.88C330.742 179.88 327.342 181.557 324.803 184.912C322.265 188.176 320.995 192.891 320.995 199.056C320.995 205.221 322.265 209.981 324.803 213.336C327.342 216.6 330.742 218.232 335.003 218.232C340.987 218.232 345.022 215.331 347.107 209.528H371.859C369.865 218.413 365.649 225.395 359.211 230.472C352.774 235.549 344.841 238.088 335.411 238.088C327.977 238.088 321.358 236.501 315.555 233.328C309.843 230.155 305.355 225.621 302.091 219.728C298.918 213.835 297.331 206.944 297.331 199.056ZM455.835 197.832C455.835 200.008 455.699 202.275 455.427 204.632H402.795C403.158 209.347 404.654 212.973 407.283 215.512C410.003 217.96 413.313 219.184 417.211 219.184C423.014 219.184 427.049 216.736 429.315 211.84H454.067C452.798 216.827 450.486 221.315 447.131 225.304C443.867 229.293 439.742 232.421 434.755 234.688C429.769 236.955 424.193 238.088 418.027 238.088C410.593 238.088 403.974 236.501 398.171 233.328C392.369 230.155 387.835 225.621 384.571 219.728C381.307 213.835 379.675 206.944 379.675 199.056C379.675 191.168 381.262 184.277 384.435 178.384C387.699 172.491 392.233 167.957 398.035 164.784C403.838 161.611 410.502 160.024 418.027 160.024C425.371 160.024 431.899 161.565 437.611 164.648C443.323 167.731 447.766 172.128 450.939 177.84C454.203 183.552 455.835 190.216 455.835 197.832ZM432.035 191.712C432.035 187.723 430.675 184.549 427.955 182.192C425.235 179.835 421.835 178.656 417.755 178.656C413.857 178.656 410.547 179.789 407.827 182.056C405.198 184.323 403.566 187.541 402.931 191.712H432.035ZM514.344 160.296C523.229 160.296 530.301 163.197 535.56 169C540.909 174.712 543.584 182.6 543.584 192.664V237H520.464V195.792C520.464 190.715 519.149 186.771 516.52 183.96C513.891 181.149 510.355 179.744 505.912 179.744C501.469 179.744 497.933 181.149 495.304 183.96C492.675 186.771 491.36 190.715 491.36 195.792V237H468.104V161.112H491.36V171.176C493.717 167.821 496.891 165.192 500.88 163.288C504.869 161.293 509.357 160.296 514.344 160.296ZM602.041 217.28V237H590.209C581.777 237 575.203 234.96 570.489 230.88C565.774 226.709 563.417 219.955 563.417 210.616V180.424H554.169V161.112H563.417V142.616H586.673V161.112H601.905V180.424H586.673V210.888C586.673 213.155 587.217 214.787 588.305 215.784C589.393 216.781 591.206 217.28 593.745 217.28H602.041ZM686.111 217.28V237H674.279C665.847 237 659.273 234.96 654.559 230.88C649.844 226.709 647.487 219.955 647.487 210.616V180.424H638.239V161.112H647.487V142.616H670.743V161.112H685.975V180.424H670.743V210.888C670.743 213.155 671.287 214.787 672.375 215.784C673.463 216.781 675.276 217.28 677.815 217.28H686.111ZM722.321 173.76C725.041 169.589 728.441 166.325 732.521 163.968C736.601 161.52 741.134 160.296 746.121 160.296V184.912H739.729C733.926 184.912 729.574 186.181 726.673 188.72C723.771 191.168 722.321 195.52 722.321 201.776V237H699.065V161.112H722.321V173.76ZM752.613 198.92C752.613 191.123 754.063 184.277 756.965 178.384C759.957 172.491 763.991 167.957 769.069 164.784C774.146 161.611 779.813 160.024 786.069 160.024C791.418 160.024 796.087 161.112 800.077 163.288C804.157 165.464 807.285 168.32 809.461 171.856V161.112H832.717V237H809.461V226.256C807.194 229.792 804.021 232.648 799.941 234.824C795.951 237 791.282 238.088 785.933 238.088C779.767 238.088 774.146 236.501 769.069 233.328C763.991 230.064 759.957 225.485 756.965 219.592C754.063 213.608 752.613 206.717 752.613 198.92ZM809.461 199.056C809.461 193.253 807.829 188.675 804.565 185.32C801.391 181.965 797.493 180.288 792.869 180.288C788.245 180.288 784.301 181.965 781.037 185.32C777.863 188.584 776.277 193.117 776.277 198.92C776.277 204.723 777.863 209.347 781.037 212.792C784.301 216.147 788.245 217.824 792.869 217.824C797.493 217.824 801.391 216.147 804.565 212.792C807.829 209.437 809.461 204.859 809.461 199.056ZM895.781 160.296C904.667 160.296 911.739 163.197 916.997 169C922.347 174.712 925.021 182.6 925.021 192.664V237H901.901V195.792C901.901 190.715 900.587 186.771 897.957 183.96C895.328 181.149 891.792 179.744 887.349 179.744C882.907 179.744 879.371 181.149 876.741 183.96C874.112 186.771 872.797 190.715 872.797 195.792V237H849.541V161.112H872.797V171.176C875.155 167.821 878.328 165.192 882.317 163.288C886.307 161.293 890.795 160.296 895.781 160.296ZM972.054 238.088C965.435 238.088 959.542 236.955 954.374 234.688C949.206 232.421 945.126 229.339 942.134 225.44C939.142 221.451 937.465 217.008 937.102 212.112H960.086C960.358 214.741 961.582 216.872 963.758 218.504C965.934 220.136 968.609 220.952 971.782 220.952C974.683 220.952 976.905 220.408 978.446 219.32C980.078 218.141 980.894 216.645 980.894 214.832C980.894 212.656 979.761 211.069 977.494 210.072C975.227 208.984 971.555 207.805 966.478 206.536C961.038 205.267 956.505 203.952 952.878 202.592C949.251 201.141 946.123 198.92 943.494 195.928C940.865 192.845 939.55 188.72 939.55 183.552C939.55 179.2 940.729 175.256 943.086 171.72C945.534 168.093 949.07 165.237 953.694 163.152C958.409 161.067 963.985 160.024 970.422 160.024C979.942 160.024 987.422 162.381 992.862 167.096C998.393 171.811 1001.57 178.067 1002.38 185.864H980.894C980.531 183.235 979.353 181.149 977.358 179.608C975.454 178.067 972.915 177.296 969.742 177.296C967.022 177.296 964.937 177.84 963.486 178.928C962.035 179.925 961.31 181.331 961.31 183.144C961.31 185.32 962.443 186.952 964.71 188.04C967.067 189.128 970.694 190.216 975.59 191.304C981.211 192.755 985.79 194.205 989.326 195.656C992.862 197.016 995.945 199.283 998.574 202.456C1001.29 205.539 1002.7 209.709 1002.79 214.968C1002.79 219.411 1001.52 223.4 998.982 226.936C996.534 230.381 992.953 233.101 988.238 235.096C983.614 237.091 978.219 238.088 972.054 238.088ZM1012.39 198.92C1012.39 191.123 1013.84 184.277 1016.75 178.384C1019.74 172.491 1023.77 167.957 1028.85 164.784C1033.93 161.611 1039.59 160.024 1045.85 160.024C1051.2 160.024 1055.87 161.112 1059.86 163.288C1063.94 165.464 1067.07 168.32 1069.24 171.856V161.112H1092.5V237H1069.24V226.256C1066.98 229.792 1063.8 232.648 1059.72 234.824C1055.73 237 1051.06 238.088 1045.71 238.088C1039.55 238.088 1033.93 236.501 1028.85 233.328C1023.77 230.064 1019.74 225.485 1016.75 219.592C1013.84 213.608 1012.39 206.717 1012.39 198.92ZM1069.24 199.056C1069.24 193.253 1067.61 188.675 1064.35 185.32C1061.17 181.965 1057.27 180.288 1052.65 180.288C1048.03 180.288 1044.08 181.965 1040.82 185.32C1037.64 188.584 1036.06 193.117 1036.06 198.92C1036.06 204.723 1037.64 209.347 1040.82 212.792C1044.08 216.147 1048.03 217.824 1052.65 217.824C1057.27 217.824 1061.17 216.147 1064.35 212.792C1067.61 209.437 1069.24 204.859 1069.24 199.056ZM1104.7 199.056C1104.7 191.168 1106.29 184.277 1109.46 178.384C1112.72 172.491 1117.21 167.957 1122.92 164.784C1128.73 161.611 1135.34 160.024 1142.78 160.024C1152.3 160.024 1160.23 162.517 1166.58 167.504C1173.02 172.491 1177.23 179.517 1179.23 188.584H1154.47C1152.39 182.781 1148.35 179.88 1142.37 179.88C1138.11 179.88 1134.71 181.557 1132.17 184.912C1129.63 188.176 1128.36 192.891 1128.36 199.056C1128.36 205.221 1129.63 209.981 1132.17 213.336C1134.71 216.6 1138.11 218.232 1142.37 218.232C1148.35 218.232 1152.39 215.331 1154.47 209.528H1179.23C1177.23 218.413 1173.02 225.395 1166.58 230.472C1160.14 235.549 1152.21 238.088 1142.78 238.088C1135.34 238.088 1128.73 236.501 1122.92 233.328C1117.21 230.155 1112.72 225.621 1109.46 219.728C1106.29 213.835 1104.7 206.944 1104.7 199.056ZM1233.96 217.28V237H1222.13C1213.7 237 1207.13 234.96 1202.41 230.88C1197.7 226.709 1195.34 219.955 1195.34 210.616V180.424H1186.09V161.112H1195.34V142.616H1218.59V161.112H1233.83V180.424H1218.59V210.888C1218.59 213.155 1219.14 214.787 1220.23 215.784C1221.31 216.781 1223.13 217.28 1225.67 217.28H1233.96ZM1258.61 153.224C1254.53 153.224 1251.18 152.045 1248.55 149.688C1246.01 147.24 1244.74 144.248 1244.74 140.712C1244.74 137.085 1246.01 134.093 1248.55 131.736C1251.18 129.288 1254.53 128.064 1258.61 128.064C1262.6 128.064 1265.87 129.288 1268.4 131.736C1271.03 134.093 1272.35 137.085 1272.35 140.712C1272.35 144.248 1271.03 147.24 1268.4 149.688C1265.87 152.045 1262.6 153.224 1258.61 153.224ZM1270.17 161.112V237H1246.92V161.112H1270.17ZM1321.57 238.088C1314.14 238.088 1307.43 236.501 1301.44 233.328C1295.55 230.155 1290.88 225.621 1287.43 219.728C1284.08 213.835 1282.4 206.944 1282.4 199.056C1282.4 191.259 1284.12 184.413 1287.57 178.52C1291.02 172.536 1295.73 167.957 1301.71 164.784C1307.7 161.611 1314.41 160.024 1321.84 160.024C1329.28 160.024 1335.99 161.611 1341.97 164.784C1347.95 167.957 1352.67 172.536 1356.11 178.52C1359.56 184.413 1361.28 191.259 1361.28 199.056C1361.28 206.853 1359.51 213.744 1355.98 219.728C1352.53 225.621 1347.77 230.155 1341.7 233.328C1335.71 236.501 1329 238.088 1321.57 238.088ZM1321.57 217.96C1326.01 217.96 1329.78 216.328 1332.86 213.064C1336.03 209.8 1337.62 205.131 1337.62 199.056C1337.62 192.981 1336.08 188.312 1332.99 185.048C1330 181.784 1326.28 180.152 1321.84 180.152C1317.31 180.152 1313.55 181.784 1310.55 185.048C1307.56 188.221 1306.07 192.891 1306.07 199.056C1306.07 205.131 1307.52 209.8 1310.42 213.064C1313.41 216.328 1317.13 217.96 1321.57 217.96ZM1419.86 160.296C1428.74 160.296 1435.82 163.197 1441.08 169C1446.42 174.712 1449.1 182.6 1449.1 192.664V237H1425.98V195.792C1425.98 190.715 1424.66 186.771 1422.04 183.96C1419.41 181.149 1415.87 179.744 1411.43 179.744C1406.98 179.744 1403.45 181.149 1400.82 183.96C1398.19 186.771 1396.88 190.715 1396.88 195.792V237H1373.62V161.112H1396.88V171.176C1399.23 167.821 1402.41 165.192 1406.4 163.288C1410.38 161.293 1414.87 160.296 1419.86 160.296ZM1496.13 238.088C1489.51 238.088 1483.62 236.955 1478.45 234.688C1473.28 232.421 1469.2 229.339 1466.21 225.44C1463.22 221.451 1461.54 217.008 1461.18 212.112H1484.16C1484.44 214.741 1485.66 216.872 1487.84 218.504C1490.01 220.136 1492.69 220.952 1495.86 220.952C1498.76 220.952 1500.98 220.408 1502.52 219.32C1504.16 218.141 1504.97 216.645 1504.97 214.832C1504.97 212.656 1503.84 211.069 1501.57 210.072C1499.31 208.984 1495.63 207.805 1490.56 206.536C1485.12 205.267 1480.58 203.952 1476.96 202.592C1473.33 201.141 1470.2 198.92 1467.57 195.928C1464.94 192.845 1463.63 188.72 1463.63 183.552C1463.63 179.2 1464.81 175.256 1467.16 171.72C1469.61 168.093 1473.15 165.237 1477.77 163.152C1482.49 161.067 1488.06 160.024 1494.5 160.024C1504.02 160.024 1511.5 162.381 1516.94 167.096C1522.47 171.811 1525.64 178.067 1526.46 185.864H1504.97C1504.61 183.235 1503.43 181.149 1501.44 179.608C1499.53 178.067 1496.99 177.296 1493.82 177.296C1491.1 177.296 1489.01 177.84 1487.56 178.928C1486.11 179.925 1485.39 181.331 1485.39 183.144C1485.39 185.32 1486.52 186.952 1488.79 188.04C1491.15 189.128 1494.77 190.216 1499.67 191.304C1505.29 192.755 1509.87 194.205 1513.4 195.656C1516.94 197.016 1520.02 199.283 1522.65 202.456C1525.37 205.539 1526.78 209.709 1526.87 214.968C1526.87 219.411 1525.6 223.4 1523.06 226.936C1520.61 230.381 1517.03 233.101 1512.32 235.096C1507.69 237.091 1502.3 238.088 1496.13 238.088Z" fill="white"/>
<mask id="mask0_7806_68537" style="mask-type:alpha" maskUnits="userSpaceOnUse" x="-455" y="184" width="651" height="651">
<rect x="-226.316" y="834.707" width="480" height="480" rx="12" transform="rotate(-118.452 -226.316 834.707)" fill="url(#paint1_linear_7806_68537)"/>
</mask>
<g mask="url(#mask0_7806_68537)">
<rect x="-140.628" y="664.528" width="220" height="220" rx="10" transform="rotate(-130.952 -140.628 664.528)" stroke="#2CCEFF" stroke-width="4"/>
<rect x="-143.822" y="709.671" width="284" height="284" rx="10" transform="rotate(-130.952 -143.822 709.671)" stroke="#2CCEFF" stroke-width="4"/>
<rect x="-147.017" y="754.813" width="348" height="348" rx="10" transform="rotate(-130.952 -147.017 754.813)" stroke="#2CCEFF" stroke-width="4"/>
<rect x="-150.21" y="799.956" width="412" height="412" rx="10" transform="rotate(-130.952 -150.21 799.956)" stroke="#2CCEFF" stroke-width="4"/>
<rect x="-153.406" y="845.097" width="476" height="476" rx="10" transform="rotate(-130.952 -153.406 845.097)" stroke="#2CCEFF" stroke-width="4"/>
</g>
<g filter="url(#filter0_d_7806_68537)">
<g clip-path="url(#clip1_7806_68537)">
<rect x="121" y="391" width="1758" height="764" rx="12" fill="white"/>
<rect x="121" y="391" width="1758" height="764" rx="12" fill="white"/>
<mask id="path-11-inside-1_7806_68537" fill="white">
<path d="M121 939H250V1011H121V939Z"/>
</mask>
<path d="M250 1010H121V1012H250V1010Z" fill="#E4E7EC" mask="url(#path-11-inside-1_7806_68537)"/>
<rect x="145" y="965" width="81" height="20" rx="4" fill="#E4E7EC"/>
<mask id="path-14-inside-2_7806_68537" fill="white">
<path d="M121 867H250V939H121V867Z"/>
</mask>
<path d="M250 938H121V940H250V938Z" fill="#E4E7EC" mask="url(#path-14-inside-2_7806_68537)"/>
<rect x="145" y="893" width="81" height="20" rx="4" fill="#E4E7EC"/>
<mask id="path-17-inside-3_7806_68537" fill="white">
<path d="M121 795H250V867H121V795Z"/>
</mask>
<path d="M121 795H250V867H121V795Z" fill="#F9FAFB"/>
<path d="M250 866H121V868H250V866Z" fill="#E4E7EC" mask="url(#path-17-inside-3_7806_68537)"/>
<rect x="145" y="821" width="81" height="20" rx="4" fill="#E4E7EC"/>
<mask id="path-20-inside-4_7806_68537" fill="white">
<path d="M121 723H250V795H121V723Z"/>
</mask>
<path d="M250 794H121V796H250V794Z" fill="#E4E7EC" mask="url(#path-20-inside-4_7806_68537)"/>
<rect x="145" y="749" width="81" height="20" rx="4" fill="#E4E7EC"/>
<mask id="path-23-inside-5_7806_68537" fill="white">
<path d="M121 651H250V723H121V651Z"/>
</mask>
<path d="M121 651H250V723H121V651Z" fill="#F9FAFB"/>
<path d="M250 722H121V724H250V722Z" fill="#E4E7EC" mask="url(#path-23-inside-5_7806_68537)"/>
<rect x="145" y="677" width="81" height="20" rx="4" fill="#E4E7EC"/>
<mask id="path-26-inside-6_7806_68537" fill="white">
<path d="M121 579H250V651H121V579Z"/>
</mask>
<path d="M250 650H121V652H250V650Z" fill="#E4E7EC" mask="url(#path-26-inside-6_7806_68537)"/>
<rect x="145" y="605" width="81" height="20" rx="4" fill="#E4E7EC"/>
<mask id="path-29-inside-7_7806_68537" fill="white">
<path d="M121 507H250V579H121V507Z"/>
</mask>
<path d="M121 507H250V579H121V507Z" fill="#F9FAFB"/>
<path d="M250 578H121V580H250V578Z" fill="#E4E7EC" mask="url(#path-29-inside-7_7806_68537)"/>
<rect x="145" y="533" width="81" height="20" rx="4" fill="#E4E7EC"/>
<mask id="path-32-inside-8_7806_68537" fill="white">
<path d="M121 435H250V507H121V435Z"/>
</mask>
<path d="M250 506H121V508H250V506Z" fill="#E4E7EC" mask="url(#path-32-inside-8_7806_68537)"/>
<rect x="145" y="461" width="81" height="20" rx="4" fill="#E4E7EC"/>
<mask id="path-35-inside-9_7806_68537" fill="white">
<path d="M121 391H250V435H121V391Z"/>
</mask>
<path d="M121 391H250V435H121V391Z" fill="#FCFCFD"/>
<path d="M250 434H121V436H250V434Z" fill="#E4E7EC" mask="url(#path-35-inside-9_7806_68537)"/>
<rect x="145" y="404" width="81" height="18" rx="4" fill="#D0D5DD"/>
<mask id="path-38-inside-10_7806_68537" fill="white">
<path d="M250 939H673V1011H250V939Z"/>
</mask>
<path d="M673 1010H250V1012H673V1010Z" fill="#E4E7EC" mask="url(#path-38-inside-10_7806_68537)"/>
<rect x="274" y="965" width="375" height="20" rx="4" fill="#E4E7EC"/>
<mask id="path-41-inside-11_7806_68537" fill="white">
<path d="M250 867H673V939H250V867Z"/>
</mask>
<path d="M673 938H250V940H673V938Z" fill="#E4E7EC" mask="url(#path-41-inside-11_7806_68537)"/>
<rect x="274" y="893" width="375" height="20" rx="4" fill="#E4E7EC"/>
<mask id="path-44-inside-12_7806_68537" fill="white">
<path d="M250 795H673V867H250V795Z"/>
</mask>
<path d="M250 795H673V867H250V795Z" fill="#F9FAFB"/>
<path d="M673 866H250V868H673V866Z" fill="#E4E7EC" mask="url(#path-44-inside-12_7806_68537)"/>
<rect x="274" y="821" width="375" height="20" rx="4" fill="#E4E7EC"/>
<mask id="path-47-inside-13_7806_68537" fill="white">
<path d="M250 723H673V795H250V723Z"/>
</mask>
<path d="M673 794H250V796H673V794Z" fill="#E4E7EC" mask="url(#path-47-inside-13_7806_68537)"/>
<rect x="274" y="749" width="375" height="20" rx="4" fill="#E4E7EC"/>
<mask id="path-50-inside-14_7806_68537" fill="white">
<path d="M250 651H673V723H250V651Z"/>
</mask>
<path d="M250 651H673V723H250V651Z" fill="#F9FAFB"/>
<path d="M673 722H250V724H673V722Z" fill="#E4E7EC" mask="url(#path-50-inside-14_7806_68537)"/>
<rect x="274" y="677" width="375" height="20" rx="4" fill="#E4E7EC"/>
<mask id="path-53-inside-15_7806_68537" fill="white">
<path d="M250 579H673V651H250V579Z"/>
</mask>
<path d="M673 650H250V652H673V650Z" fill="#E4E7EC" mask="url(#path-53-inside-15_7806_68537)"/>
<rect x="274" y="605" width="375" height="20" rx="4" fill="#E4E7EC"/>
<mask id="path-56-inside-16_7806_68537" fill="white">
<path d="M250 507H673V579H250V507Z"/>
</mask>
<path d="M250 507H673V579H250V507Z" fill="#F9FAFB"/>
<path d="M673 578H250V580H673V578Z" fill="#E4E7EC" mask="url(#path-56-inside-16_7806_68537)"/>
<rect x="274" y="533" width="375" height="20" rx="4" fill="#E4E7EC"/>
<mask id="path-59-inside-17_7806_68537" fill="white">
<path d="M250 435H673V507H250V435Z"/>
</mask>
<path d="M673 506H250V508H673V506Z" fill="#E4E7EC" mask="url(#path-59-inside-17_7806_68537)"/>
<rect x="274" y="461" width="375" height="20" rx="4" fill="#E4E7EC"/>
<mask id="path-62-inside-18_7806_68537" fill="white">
<path d="M250 391H673V435H250V391Z"/>
</mask>
<path d="M250 391H673V435H250V391Z" fill="white"/>
<path d="M673 434H250V436H673V434Z" fill="#E4E7EC" mask="url(#path-62-inside-18_7806_68537)"/>
<rect x="274" y="404" width="125" height="18" rx="4" fill="#D0D5DD"/>
<mask id="path-65-inside-19_7806_68537" fill="white">
<path d="M673 939H942.333V1011H673V939Z"/>
</mask>
<path d="M942.333 1010H673V1012H942.333V1010Z" fill="#E4E7EC" mask="url(#path-65-inside-19_7806_68537)"/>
<rect x="697" y="965" width="76" height="20" rx="4" fill="#E4E7EC"/>
<mask id="path-68-inside-20_7806_68537" fill="white">
<path d="M673 867H942.333V939H673V867Z"/>
</mask>
<path d="M942.333 938H673V940H942.333V938Z" fill="#E4E7EC" mask="url(#path-68-inside-20_7806_68537)"/>
<rect x="697" y="893" width="76" height="20" rx="4" fill="#E4E7EC"/>
<mask id="path-71-inside-21_7806_68537" fill="white">
<path d="M673 795H942.333V867H673V795Z"/>
</mask>
<path d="M673 795H942.333V867H673V795Z" fill="#F9FAFB"/>
<path d="M942.333 866H673V868H942.333V866Z" fill="#E4E7EC" mask="url(#path-71-inside-21_7806_68537)"/>
<rect x="697" y="821" width="76" height="20" rx="4" fill="#E4E7EC"/>
<mask id="path-74-inside-22_7806_68537" fill="white">
<path d="M673 723H942.333V795H673V723Z"/>
</mask>
<path d="M942.333 794H673V796H942.333V794Z" fill="#E4E7EC" mask="url(#path-74-inside-22_7806_68537)"/>
<rect x="697" y="749" width="76" height="20" rx="4" fill="#E4E7EC"/>
<mask id="path-77-inside-23_7806_68537" fill="white">
<path d="M673 651H942.333V723H673V651Z"/>
</mask>
<path d="M673 651H942.333V723H673V651Z" fill="#F9FAFB"/>
<path d="M942.333 722H673V724H942.333V722Z" fill="#E4E7EC" mask="url(#path-77-inside-23_7806_68537)"/>
<rect x="697" y="677" width="76" height="20" rx="4" fill="#E4E7EC"/>
<mask id="path-80-inside-24_7806_68537" fill="white">
<path d="M673 579H942.333V651H673V579Z"/>
</mask>
<path d="M942.333 650H673V652H942.333V650Z" fill="#E4E7EC" mask="url(#path-80-inside-24_7806_68537)"/>
<rect x="697" y="605" width="76" height="20" rx="4" fill="#E4E7EC"/>
<mask id="path-83-inside-25_7806_68537" fill="white">
<path d="M673 507H942.333V579H673V507Z"/>
</mask>
<path d="M673 507H942.333V579H673V507Z" fill="#F9FAFB"/>
<path d="M942.333 578H673V580H942.333V578Z" fill="#E4E7EC" mask="url(#path-83-inside-25_7806_68537)"/>
<rect x="697" y="533" width="76" height="20" rx="4" fill="#E4E7EC"/>
<mask id="path-86-inside-26_7806_68537" fill="white">
<path d="M673 435H942.333V507H673V435Z"/>
</mask>
<path d="M942.333 506H673V508H942.333V506Z" fill="#E4E7EC" mask="url(#path-86-inside-26_7806_68537)"/>
<rect x="697" y="461" width="76" height="20" rx="4" fill="#E4E7EC"/>
<mask id="path-89-inside-27_7806_68537" fill="white">
<path d="M673 391H942.333V435H673V391Z"/>
</mask>
<path d="M673 391H942.333V435H673V391Z" fill="#FCFCFD"/>
<path d="M942.333 434H673V436H942.333V434Z" fill="#E4E7EC" mask="url(#path-89-inside-27_7806_68537)"/>
<rect x="697" y="404" width="35" height="18" rx="4" fill="#D0D5DD"/>
<mask id="path-92-inside-28_7806_68537" fill="white">
<path d="M942.332 939H1211.67V1011H942.332V939Z"/>
</mask>
<path d="M1211.67 1010H942.332V1012H1211.67V1010Z" fill="#E4E7EC" mask="url(#path-92-inside-28_7806_68537)"/>
<rect x="966.332" y="965" width="166" height="20" rx="4" fill="#E4E7EC"/>
<mask id="path-95-inside-29_7806_68537" fill="white">
<path d="M942.332 867H1211.67V939H942.332V867Z"/>
</mask>
<path d="M1211.67 938H942.332V940H1211.67V938Z" fill="#E4E7EC" mask="url(#path-95-inside-29_7806_68537)"/>
<rect x="966.332" y="893" width="166" height="20" rx="4" fill="#E4E7EC"/>
<mask id="path-98-inside-30_7806_68537" fill="white">
<path d="M942.332 795H1211.67V867H942.332V795Z"/>
</mask>
<path d="M942.332 795H1211.67V867H942.332V795Z" fill="#F9FAFB"/>
<path d="M1211.67 866H942.332V868H1211.67V866Z" fill="#E4E7EC" mask="url(#path-98-inside-30_7806_68537)"/>
<rect x="966.332" y="821" width="166" height="20" rx="4" fill="#E4E7EC"/>
<mask id="path-101-inside-31_7806_68537" fill="white">
<path d="M942.332 723H1211.67V795H942.332V723Z"/>
</mask>
<path d="M1211.67 794H942.332V796H1211.67V794Z" fill="#E4E7EC" mask="url(#path-101-inside-31_7806_68537)"/>
<rect x="966.332" y="749" width="166" height="20" rx="4" fill="#E4E7EC"/>
<mask id="path-104-inside-32_7806_68537" fill="white">
<path d="M942.332 651H1211.67V723H942.332V651Z"/>
</mask>
<path d="M942.332 651H1211.67V723H942.332V651Z" fill="#F9FAFB"/>
<path d="M1211.67 722H942.332V724H1211.67V722Z" fill="#E4E7EC" mask="url(#path-104-inside-32_7806_68537)"/>
<rect x="966.332" y="677" width="166" height="20" rx="4" fill="#E4E7EC"/>
<mask id="path-107-inside-33_7806_68537" fill="white">
<path d="M942.332 579H1211.67V651H942.332V579Z"/>
</mask>
<path d="M1211.67 650H942.332V652H1211.67V650Z" fill="#E4E7EC" mask="url(#path-107-inside-33_7806_68537)"/>
<rect x="966.332" y="605" width="166" height="20" rx="4" fill="#E4E7EC"/>
<mask id="path-110-inside-34_7806_68537" fill="white">
<path d="M942.332 507H1211.67V579H942.332V507Z"/>
</mask>
<path d="M942.332 507H1211.67V579H942.332V507Z" fill="#F9FAFB"/>
<path d="M1211.67 578H942.332V580H1211.67V578Z" fill="#E4E7EC" mask="url(#path-110-inside-34_7806_68537)"/>
<rect x="966.332" y="533" width="166" height="20" rx="4" fill="#E4E7EC"/>
<mask id="path-113-inside-35_7806_68537" fill="white">
<path d="M942.332 435H1211.67V507H942.332V435Z"/>
</mask>
<path d="M1211.67 506H942.332V508H1211.67V506Z" fill="#E4E7EC" mask="url(#path-113-inside-35_7806_68537)"/>
<rect x="966.332" y="461" width="166" height="20" rx="4" fill="#E4E7EC"/>
<mask id="path-116-inside-36_7806_68537" fill="white">
<path d="M942.332 391H1211.67V435H942.332V391Z"/>
</mask>
<path d="M942.332 391H1211.67V435H942.332V391Z" fill="#FCFCFD"/>
<path d="M1211.67 434H942.332V436H1211.67V434Z" fill="#E4E7EC" mask="url(#path-116-inside-36_7806_68537)"/>
<rect x="966.332" y="404" width="58" height="18" rx="4" fill="#D0D5DD"/>
<mask id="path-119-inside-37_7806_68537" fill="white">
<path d="M1211.67 939H1481V1011H1211.67V939Z"/>
</mask>
<path d="M1481 1010H1211.67V1012H1481V1010Z" fill="#E4E7EC" mask="url(#path-119-inside-37_7806_68537)"/>
<rect x="1235.67" y="965" width="52" height="20" rx="4" fill="#E4E7EC"/>
<mask id="path-122-inside-38_7806_68537" fill="white">
<path d="M1211.67 867H1481V939H1211.67V867Z"/>
</mask>
<path d="M1481 938H1211.67V940H1481V938Z" fill="#E4E7EC" mask="url(#path-122-inside-38_7806_68537)"/>
<rect x="1235.67" y="893" width="52" height="20" rx="4" fill="#E4E7EC"/>
<mask id="path-125-inside-39_7806_68537" fill="white">
<path d="M1211.67 795H1481V867H1211.67V795Z"/>
</mask>
<path d="M1211.67 795H1481V867H1211.67V795Z" fill="#F9FAFB"/>
<path d="M1481 866H1211.67V868H1481V866Z" fill="#E4E7EC" mask="url(#path-125-inside-39_7806_68537)"/>
<rect x="1235.67" y="821" width="52" height="20" rx="4" fill="#E4E7EC"/>
<mask id="path-128-inside-40_7806_68537" fill="white">
<path d="M1211.67 723H1481V795H1211.67V723Z"/>
</mask>
<path d="M1481 794H1211.67V796H1481V794Z" fill="#E4E7EC" mask="url(#path-128-inside-40_7806_68537)"/>
<rect x="1235.67" y="749" width="52" height="20" rx="4" fill="#E4E7EC"/>
<mask id="path-131-inside-41_7806_68537" fill="white">
<path d="M1211.67 651H1481V723H1211.67V651Z"/>
</mask>
<path d="M1211.67 651H1481V723H1211.67V651Z" fill="#F9FAFB"/>
<path d="M1481 722H1211.67V724H1481V722Z" fill="#E4E7EC" mask="url(#path-131-inside-41_7806_68537)"/>
<rect x="1235.67" y="677" width="52" height="20" rx="4" fill="#E4E7EC"/>
<mask id="path-134-inside-42_7806_68537" fill="white">
<path d="M1211.67 579H1481V651H1211.67V579Z"/>
</mask>
<path d="M1481 650H1211.67V652H1481V650Z" fill="#E4E7EC" mask="url(#path-134-inside-42_7806_68537)"/>
<rect x="1235.67" y="605" width="52" height="20" rx="4" fill="#E4E7EC"/>
<mask id="path-137-inside-43_7806_68537" fill="white">
<path d="M1211.67 507H1481V579H1211.67V507Z"/>
</mask>
<path d="M1211.67 507H1481V579H1211.67V507Z" fill="#F9FAFB"/>
<path d="M1481 578H1211.67V580H1481V578Z" fill="#E4E7EC" mask="url(#path-137-inside-43_7806_68537)"/>
<rect x="1235.67" y="533" width="52" height="20" rx="4" fill="#E4E7EC"/>
<mask id="path-140-inside-44_7806_68537" fill="white">
<path d="M1211.67 435H1481V507H1211.67V435Z"/>
</mask>
<path d="M1481 506H1211.67V508H1481V506Z" fill="#E4E7EC" mask="url(#path-140-inside-44_7806_68537)"/>
<rect x="1235.67" y="461" width="52" height="20" rx="4" fill="#E4E7EC"/>
<mask id="path-143-inside-45_7806_68537" fill="white">
<path d="M1211.67 391H1481V435H1211.67V391Z"/>
</mask>
<path d="M1211.67 391H1481V435H1211.67V391Z" fill="#FCFCFD"/>
<path d="M1481 434H1211.67V436H1481V434Z" fill="#E4E7EC" mask="url(#path-143-inside-45_7806_68537)"/>
<rect x="1235.67" y="404" width="45" height="18" rx="4" fill="#D0D5DD"/>
<mask id="path-146-inside-46_7806_68537" fill="white">
<path d="M1481 939H1653V1011H1481V939Z"/>
</mask>
<path d="M1653 1010H1481V1012H1653V1010Z" fill="#E4E7EC" mask="url(#path-146-inside-46_7806_68537)"/>
<rect x="1505" y="965" width="124" height="20" rx="4" fill="#E4E7EC"/>
<mask id="path-149-inside-47_7806_68537" fill="white">
<path d="M1481 867H1653V939H1481V867Z"/>
</mask>
<path d="M1653 938H1481V940H1653V938Z" fill="#E4E7EC" mask="url(#path-149-inside-47_7806_68537)"/>
<rect x="1505" y="893" width="124" height="20" rx="4" fill="#E4E7EC"/>
<mask id="path-152-inside-48_7806_68537" fill="white">
<path d="M1481 795H1653V867H1481V795Z"/>
</mask>
<path d="M1481 795H1653V867H1481V795Z" fill="#F9FAFB"/>
<path d="M1653 866H1481V868H1653V866Z" fill="#E4E7EC" mask="url(#path-152-inside-48_7806_68537)"/>
<rect x="1505" y="821" width="124" height="20" rx="4" fill="#E4E7EC"/>
<mask id="path-155-inside-49_7806_68537" fill="white">
<path d="M1481 723H1653V795H1481V723Z"/>
</mask>
<path d="M1653 794H1481V796H1653V794Z" fill="#E4E7EC" mask="url(#path-155-inside-49_7806_68537)"/>
<rect x="1505" y="749" width="124" height="20" rx="4" fill="#E4E7EC"/>
<mask id="path-158-inside-50_7806_68537" fill="white">
<path d="M1481 651H1653V723H1481V651Z"/>
</mask>
<path d="M1481 651H1653V723H1481V651Z" fill="#F9FAFB"/>
<path d="M1653 722H1481V724H1653V722Z" fill="#E4E7EC" mask="url(#path-158-inside-50_7806_68537)"/>
<rect x="1505" y="677" width="124" height="20" rx="4" fill="#E4E7EC"/>
<mask id="path-161-inside-51_7806_68537" fill="white">
<path d="M1481 579H1653V651H1481V579Z"/>
</mask>
<path d="M1653 650H1481V652H1653V650Z" fill="#E4E7EC" mask="url(#path-161-inside-51_7806_68537)"/>
<rect x="1505" y="605" width="124" height="20" rx="4" fill="#E4E7EC"/>
<mask id="path-164-inside-52_7806_68537" fill="white">
<path d="M1481 507H1653V579H1481V507Z"/>
</mask>
<path d="M1481 507H1653V579H1481V507Z" fill="#F9FAFB"/>
<path d="M1653 578H1481V580H1653V578Z" fill="#E4E7EC" mask="url(#path-164-inside-52_7806_68537)"/>
<rect x="1505" y="533" width="124" height="20" rx="4" fill="#E4E7EC"/>
<mask id="path-167-inside-53_7806_68537" fill="white">
<path d="M1481 435H1653V507H1481V435Z"/>
</mask>
<path d="M1653 506H1481V508H1653V506Z" fill="#E4E7EC" mask="url(#path-167-inside-53_7806_68537)"/>
<rect x="1505" y="461" width="124" height="20" rx="4" fill="#E4E7EC"/>
<mask id="path-170-inside-54_7806_68537" fill="white">
<path d="M1481 391H1653V435H1481V391Z"/>
</mask>
<path d="M1481 391H1653V435H1481V391Z" fill="#FCFCFD"/>
<path d="M1653 434H1481V436H1653V434Z" fill="#E4E7EC" mask="url(#path-170-inside-54_7806_68537)"/>
<rect x="1505" y="404" width="40" height="18" rx="4" fill="#D0D5DD"/>
<mask id="path-173-inside-55_7806_68537" fill="white">
<path d="M1653 939H1879V1011H1653V939Z"/>
</mask>
<path d="M1879 1010H1653V1012H1879V1010Z" fill="#E4E7EC" mask="url(#path-173-inside-55_7806_68537)"/>
<rect x="1677" y="965" width="178" height="20" rx="4" fill="#E4E7EC"/>
<mask id="path-176-inside-56_7806_68537" fill="white">
<path d="M1653 867H1879V939H1653V867Z"/>
</mask>
<path d="M1879 938H1653V940H1879V938Z" fill="#E4E7EC" mask="url(#path-176-inside-56_7806_68537)"/>
<rect x="1677" y="893" width="178" height="20" rx="4" fill="#E4E7EC"/>
<mask id="path-179-inside-57_7806_68537" fill="white">
<path d="M1653 795H1879V867H1653V795Z"/>
</mask>
<path d="M1653 795H1879V867H1653V795Z" fill="#F9FAFB"/>
<path d="M1879 866H1653V868H1879V866Z" fill="#E4E7EC" mask="url(#path-179-inside-57_7806_68537)"/>
<rect x="1677" y="821" width="178" height="20" rx="4" fill="#E4E7EC"/>
<mask id="path-182-inside-58_7806_68537" fill="white">
<path d="M1653 723H1879V795H1653V723Z"/>
</mask>
<path d="M1879 794H1653V796H1879V794Z" fill="#E4E7EC" mask="url(#path-182-inside-58_7806_68537)"/>
<rect x="1677" y="749" width="178" height="20" rx="4" fill="#E4E7EC"/>
<mask id="path-185-inside-59_7806_68537" fill="white">
<path d="M1653 651H1879V723H1653V651Z"/>
</mask>
<path d="M1653 651H1879V723H1653V651Z" fill="#F9FAFB"/>
<path d="M1879 722H1653V724H1879V722Z" fill="#E4E7EC" mask="url(#path-185-inside-59_7806_68537)"/>
<rect x="1677" y="677" width="178" height="20" rx="4" fill="#E4E7EC"/>
<mask id="path-188-inside-60_7806_68537" fill="white">
<path d="M1653 579H1879V651H1653V579Z"/>
</mask>
<path d="M1879 650H1653V652H1879V650Z" fill="#E4E7EC" mask="url(#path-188-inside-60_7806_68537)"/>
<rect x="1677" y="605" width="178" height="20" rx="4" fill="#E4E7EC"/>
<mask id="path-191-inside-61_7806_68537" fill="white">
<path d="M1653 507H1879V579H1653V507Z"/>
</mask>
<path d="M1653 507H1879V579H1653V507Z" fill="#F9FAFB"/>
<path d="M1879 578H1653V580H1879V578Z" fill="#E4E7EC" mask="url(#path-191-inside-61_7806_68537)"/>
<rect x="1677" y="533" width="178" height="20" rx="4" fill="#E4E7EC"/>
<mask id="path-194-inside-62_7806_68537" fill="white">
<path d="M1653 435H1879V507H1653V435Z"/>
</mask>
<path d="M1879 506H1653V508H1879V506Z" fill="#E4E7EC" mask="url(#path-194-inside-62_7806_68537)"/>
<rect x="1677" y="461" width="178" height="20" rx="4" fill="#E4E7EC"/>
<mask id="path-197-inside-63_7806_68537" fill="white">
<path d="M1653 391H1879V435H1653V391Z"/>
</mask>
<path d="M1653 391H1879V435H1653V391Z" fill="#FCFCFD"/>
<path d="M1879 434H1653V436H1879V434Z" fill="#E4E7EC" mask="url(#path-197-inside-63_7806_68537)"/>
<rect x="1677" y="404" width="53" height="18" rx="4" fill="#D0D5DD"/>
</g>
<rect x="121.5" y="391.5" width="1757" height="763" rx="11.5" stroke="#E4E7EC"/>
</g>
<mask id="mask1_7806_68537" style="mask-type:alpha" maskUnits="userSpaceOnUse" x="1609" y="-229" width="628" height="628">
<rect x="1794.06" y="-229" width="480" height="480" rx="12" transform="rotate(22.6777 1794.06 -229)" fill="url(#paint2_linear_7806_68537)"/>
</mask>
<g mask="url(#mask1_7806_68537)">
<rect x="1885.02" y="30.411" width="94" height="94" rx="11" transform="rotate(10.1777 1885.02 30.411)" stroke="#2CCEFF" stroke-width="2"/>
<rect x="1859.99" y="-5.57846" width="156" height="156" rx="10" transform="rotate(10.1777 1859.99 -5.57846)" stroke="#2CCEFF" stroke-width="4"/>
<rect x="1834.15" y="-42.7288" width="220" height="220" rx="10" transform="rotate(10.1777 1834.15 -42.7288)" stroke="#2CCEFF" stroke-width="4"/>
<rect x="1808.3" y="-79.8812" width="284" height="284" rx="10" transform="rotate(10.1777 1808.3 -79.8812)" stroke="#2CCEFF" stroke-width="4"/>
<rect x="1782.46" y="-117.032" width="348" height="348" rx="10" transform="rotate(10.1777 1782.46 -117.032)" stroke="#2CCEFF" stroke-width="4"/>
<rect x="1756.62" y="-154.182" width="412" height="412" rx="10" transform="rotate(10.1777 1756.62 -154.182)" stroke="#2CCEFF" stroke-width="4"/>
<rect x="1730.78" y="-191.332" width="476" height="476" rx="10" transform="rotate(10.1777 1730.78 -191.332)" stroke="#2CCEFF" stroke-width="4"/>
</g>
</g>
<defs>
<filter id="filter0_d_7806_68537" x="85" y="379" width="1830" height="836" filterUnits="userSpaceOnUse" color-interpolation-filters="sRGB">
<feFlood flood-opacity="0" result="BackgroundImageFix"/>
<feColorMatrix in="SourceAlpha" type="matrix" values="0 0 0 0 0 0 0 0 0 0 0 0 0 0 0 0 0 0 127 0" result="hardAlpha"/>
<feMorphology radius="12" operator="erode" in="SourceAlpha" result="effect1_dropShadow_7806_68537"/>
<feOffset dy="24"/>
<feGaussianBlur stdDeviation="24"/>
<feComposite in2="hardAlpha" operator="out"/>
<feColorMatrix type="matrix" values="0 0 0 0 0.0625882 0 0 0 0 0.0926346 0 0 0 0 0.15702 0 0 0 0.18 0"/>
<feBlend mode="normal" in2="BackgroundImageFix" result="effect1_dropShadow_7806_68537"/>
<feBlend mode="normal" in="SourceGraphic" in2="effect1_dropShadow_7806_68537" result="shape"/>
</filter>
<linearGradient id="paint0_linear_7806_68537" x1="-3.86544e-05" y1="12.037" x2="805.855" y2="1604.35" gradientUnits="userSpaceOnUse">
<stop stop-color="#242A33"/>
<stop offset="1" stop-color="#053246"/>
</linearGradient>
<linearGradient id="paint1_linear_7806_68537" x1="13.6836" y1="834.707" x2="13.6836" y2="1314.71" gradientUnits="userSpaceOnUse">
<stop/>
<stop offset="0.991144" stop-opacity="0"/>
</linearGradient>
<linearGradient id="paint2_linear_7806_68537" x1="2034.06" y1="-229" x2="2034.06" y2="251" gradientUnits="userSpaceOnUse">
<stop/>
<stop offset="0.991144" stop-opacity="0"/>
</linearGradient>
<clipPath id="clip0_7806_68537">
<rect width="2000" height="1000" fill="white"/>
</clipPath>
<clipPath id="clip1_7806_68537">
<rect x="121" y="391" width="1758" height="764" rx="12" fill="white"/>
</clipPath>
</defs>
</svg>
