<svg width="2000" height="1000" viewBox="0 0 2000 1000" fill="none" xmlns="http://www.w3.org/2000/svg">
<g clip-path="url(#clip0_7837_68402)">
<rect width="2000" height="1000" fill="white"/>
<rect width="2000" height="1000" fill="url(#paint0_linear_7837_68402)"/>
<path d="M198.112 141.528V160.16H172.816V237H149.56V160.16H124.264V141.528H198.112ZM268.264 237L248.816 207.76L231.68 237H205.296L235.896 188.448L204.616 141.528H231.68L250.856 170.36L267.72 141.528H294.104L263.776 189.672L295.328 237H268.264ZM337.874 238.088C331.256 238.088 325.362 236.955 320.194 234.688C315.026 232.421 310.946 229.339 307.954 225.44C304.962 221.451 303.285 217.008 302.922 212.112H325.906C326.178 214.741 327.402 216.872 329.578 218.504C331.754 220.136 334.429 220.952 337.602 220.952C340.504 220.952 342.725 220.408 344.266 219.32C345.898 218.141 346.714 216.645 346.714 214.832C346.714 212.656 345.581 211.069 343.314 210.072C341.048 208.984 337.376 207.805 332.298 206.536C326.858 205.267 322.325 203.952 318.698 202.592C315.072 201.141 311.944 198.92 309.314 195.928C306.685 192.845 305.37 188.72 305.37 183.552C305.37 179.2 306.549 175.256 308.906 171.72C311.354 168.093 314.89 165.237 319.514 163.152C324.229 161.067 329.805 160.024 336.242 160.024C345.762 160.024 353.242 162.381 358.682 167.096C364.213 171.811 367.386 178.067 368.202 185.864H346.714C346.352 183.235 345.173 181.149 343.178 179.608C341.274 178.067 338.736 177.296 335.562 177.296C332.842 177.296 330.757 177.84 329.306 178.928C327.856 179.925 327.13 181.331 327.13 183.144C327.13 185.32 328.264 186.952 330.53 188.04C332.888 189.128 336.514 190.216 341.41 191.304C347.032 192.755 351.61 194.205 355.146 195.656C358.682 197.016 361.765 199.283 364.394 202.456C367.114 205.539 368.52 209.709 368.61 214.968C368.61 219.411 367.341 223.4 364.802 226.936C362.354 230.381 358.773 233.101 354.058 235.096C349.434 237.091 344.04 238.088 337.874 238.088ZM423.355 153.224C419.275 153.224 415.92 152.045 413.291 149.688C410.752 147.24 409.483 144.248 409.483 140.712C409.483 137.085 410.752 134.093 413.291 131.736C415.92 129.288 419.275 128.064 423.355 128.064C427.344 128.064 430.608 129.288 433.147 131.736C435.776 134.093 437.091 137.085 437.091 140.712C437.091 144.248 435.776 147.24 433.147 149.688C430.608 152.045 427.344 153.224 423.355 153.224ZM434.915 161.112V237H411.659V161.112H434.915ZM498.008 160.296C506.893 160.296 513.965 163.197 519.224 169C524.573 174.712 527.248 182.6 527.248 192.664V237H504.128V195.792C504.128 190.715 502.813 186.771 500.184 183.96C497.555 181.149 494.019 179.744 489.576 179.744C485.133 179.744 481.597 181.149 478.968 183.96C476.339 186.771 475.024 190.715 475.024 195.792V237H451.768V161.112H475.024V171.176C477.381 167.821 480.555 165.192 484.544 163.288C488.533 161.293 493.021 160.296 498.008 160.296ZM643.765 197.832C643.765 200.008 643.629 202.275 643.357 204.632H590.725C591.088 209.347 592.584 212.973 595.213 215.512C597.933 217.96 601.242 219.184 605.141 219.184C610.944 219.184 614.978 216.736 617.245 211.84H641.997C640.728 216.827 638.416 221.315 635.061 225.304C631.797 229.293 627.672 232.421 622.685 234.688C617.698 236.955 612.122 238.088 605.957 238.088C598.522 238.088 591.904 236.501 586.101 233.328C580.298 230.155 575.765 225.621 572.501 219.728C569.237 213.835 567.605 206.944 567.605 199.056C567.605 191.168 569.192 184.277 572.365 178.384C575.629 172.491 580.162 167.957 585.965 164.784C591.768 161.611 598.432 160.024 605.957 160.024C613.301 160.024 619.829 161.565 625.541 164.648C631.253 167.731 635.696 172.128 638.869 177.84C642.133 183.552 643.765 190.216 643.765 197.832ZM619.965 191.712C619.965 187.723 618.605 184.549 615.885 182.192C613.165 179.835 609.765 178.656 605.685 178.656C601.786 178.656 598.477 179.789 595.757 182.056C593.128 184.323 591.496 187.541 590.861 191.712H619.965ZM679.29 171.856C681.556 168.32 684.684 165.464 688.674 163.288C692.663 161.112 697.332 160.024 702.682 160.024C708.938 160.024 714.604 161.611 719.682 164.784C724.759 167.957 728.748 172.491 731.65 178.384C734.642 184.277 736.138 191.123 736.138 198.92C736.138 206.717 734.642 213.608 731.65 219.592C728.748 225.485 724.759 230.064 719.682 233.328C714.604 236.501 708.938 238.088 702.682 238.088C697.423 238.088 692.754 237 688.674 234.824C684.684 232.648 681.556 229.837 679.29 226.392V273.176H656.034V161.112H679.29V171.856ZM712.474 198.92C712.474 193.117 710.842 188.584 707.578 185.32C704.404 181.965 700.46 180.288 695.746 180.288C691.122 180.288 687.178 181.965 683.914 185.32C680.74 188.675 679.154 193.253 679.154 199.056C679.154 204.859 680.74 209.437 683.914 212.792C687.178 216.147 691.122 217.824 695.746 217.824C700.37 217.824 704.314 216.147 707.578 212.792C710.842 209.347 712.474 204.723 712.474 198.92ZM782.882 238.088C775.448 238.088 768.738 236.501 762.754 233.328C756.861 230.155 752.192 225.621 748.746 219.728C745.392 213.835 743.714 206.944 743.714 199.056C743.714 191.259 745.437 184.413 748.882 178.52C752.328 172.536 757.042 167.957 763.026 164.784C769.01 161.611 775.72 160.024 783.154 160.024C790.589 160.024 797.298 161.611 803.282 164.784C809.266 167.957 813.981 172.536 817.426 178.52C820.872 184.413 822.594 191.259 822.594 199.056C822.594 206.853 820.826 213.744 817.29 219.728C813.845 225.621 809.085 230.155 803.01 233.328C797.026 236.501 790.317 238.088 782.882 238.088ZM782.882 217.96C787.325 217.96 791.088 216.328 794.17 213.064C797.344 209.8 798.93 205.131 798.93 199.056C798.93 192.981 797.389 188.312 794.306 185.048C791.314 181.784 787.597 180.152 783.154 180.152C778.621 180.152 774.858 181.784 771.866 185.048C768.874 188.221 767.378 192.891 767.378 199.056C767.378 205.131 768.829 209.8 771.73 213.064C774.722 216.328 778.44 217.96 782.882 217.96ZM830.308 199.056C830.308 191.168 831.895 184.277 835.068 178.384C838.332 172.491 842.82 167.957 848.532 164.784C854.335 161.611 860.953 160.024 868.388 160.024C877.908 160.024 885.841 162.517 892.188 167.504C898.625 172.491 902.841 179.517 904.836 188.584H880.084C877.999 182.781 873.964 179.88 867.98 179.88C863.719 179.88 860.319 181.557 857.78 184.912C855.241 188.176 853.972 192.891 853.972 199.056C853.972 205.221 855.241 209.981 857.78 213.336C860.319 216.6 863.719 218.232 867.98 218.232C873.964 218.232 877.999 215.331 880.084 209.528H904.836C902.841 218.413 898.625 225.395 892.188 230.472C885.751 235.549 877.817 238.088 868.388 238.088C860.953 238.088 854.335 236.501 848.532 233.328C842.82 230.155 838.332 225.621 835.068 219.728C831.895 213.835 830.308 206.944 830.308 199.056ZM963.924 160.296C972.628 160.296 979.609 163.197 984.868 169C990.126 174.712 992.756 182.6 992.756 192.664V237H969.636V195.792C969.636 190.715 968.321 186.771 965.692 183.96C963.062 181.149 959.526 179.744 955.084 179.744C950.641 179.744 947.105 181.149 944.476 183.96C941.846 186.771 940.532 190.715 940.532 195.792V237H917.276V136.36H940.532V171.312C942.889 167.957 946.108 165.283 950.188 163.288C954.268 161.293 958.846 160.296 963.924 160.296ZM1096.22 179.608V198.92H1036.38V179.608H1096.22ZM1140.82 199.056C1140.82 191.168 1142.41 184.277 1145.58 178.384C1148.85 172.491 1153.34 167.957 1159.05 164.784C1164.85 161.611 1171.47 160.024 1178.9 160.024C1188.42 160.024 1196.36 162.517 1202.7 167.504C1209.14 172.491 1213.36 179.517 1215.35 188.584H1190.6C1188.51 182.781 1184.48 179.88 1178.5 179.88C1174.23 179.88 1170.83 181.557 1168.3 184.912C1165.76 188.176 1164.49 192.891 1164.49 199.056C1164.49 205.221 1165.76 209.981 1168.3 213.336C1170.83 216.6 1174.23 218.232 1178.5 218.232C1184.48 218.232 1188.51 215.331 1190.6 209.528H1215.35C1213.36 218.413 1209.14 225.395 1202.7 230.472C1196.27 235.549 1188.33 238.088 1178.9 238.088C1171.47 238.088 1164.85 236.501 1159.05 233.328C1153.34 230.155 1148.85 225.621 1145.58 219.728C1142.41 213.835 1140.82 206.944 1140.82 199.056ZM1274.44 160.296C1283.14 160.296 1290.12 163.197 1295.38 169C1300.64 174.712 1303.27 182.6 1303.27 192.664V237H1280.15V195.792C1280.15 190.715 1278.84 186.771 1276.21 183.96C1273.58 181.149 1270.04 179.744 1265.6 179.744C1261.16 179.744 1257.62 181.149 1254.99 183.96C1252.36 186.771 1251.05 190.715 1251.05 195.792V237H1227.79V136.36H1251.05V171.312C1253.4 167.957 1256.62 165.283 1260.7 163.288C1264.78 161.293 1269.36 160.296 1274.44 160.296ZM1314.81 198.92C1314.81 191.123 1316.26 184.277 1319.16 178.384C1322.15 172.491 1326.19 167.957 1331.26 164.784C1336.34 161.611 1342.01 160.024 1348.26 160.024C1353.61 160.024 1358.28 161.112 1362.27 163.288C1366.35 165.464 1369.48 168.32 1371.66 171.856V161.112H1394.91V237H1371.66V226.256C1369.39 229.792 1366.22 232.648 1362.14 234.824C1358.15 237 1353.48 238.088 1348.13 238.088C1341.96 238.088 1336.34 236.501 1331.26 233.328C1326.19 230.064 1322.15 225.485 1319.16 219.592C1316.26 213.608 1314.81 206.717 1314.81 198.92ZM1371.66 199.056C1371.66 193.253 1370.02 188.675 1366.76 185.32C1363.59 181.965 1359.69 180.288 1355.06 180.288C1350.44 180.288 1346.5 181.965 1343.23 185.32C1340.06 188.584 1338.47 193.117 1338.47 198.92C1338.47 204.723 1340.06 209.347 1343.23 212.792C1346.5 216.147 1350.44 217.824 1355.06 217.824C1359.69 217.824 1363.59 216.147 1366.76 212.792C1370.02 209.437 1371.66 204.859 1371.66 199.056ZM1434.99 173.76C1437.71 169.589 1441.11 166.325 1445.19 163.968C1449.27 161.52 1453.81 160.296 1458.79 160.296V184.912H1452.4C1446.6 184.912 1442.25 186.181 1439.34 188.72C1436.44 191.168 1434.99 195.52 1434.99 201.776V237H1411.74V161.112H1434.99V173.76ZM1512.2 217.28V237H1500.37C1491.94 237 1485.37 234.96 1480.65 230.88C1475.94 226.709 1473.58 219.955 1473.58 210.616V180.424H1464.33V161.112H1473.58V142.616H1496.84V161.112H1512.07V180.424H1496.84V210.888C1496.84 213.155 1497.38 214.787 1498.47 215.784C1499.56 216.781 1501.37 217.28 1503.91 217.28H1512.2Z" fill="white"/>
<rect x="121" y="391" width="1758" height="488" rx="12" fill="#F9FAFB"/>
<path d="M173 477C173 473.686 175.686 471 179 471H263C266.314 471 269 473.686 269 477V847H173V477Z" fill="#2CCEFF"/>
<path d="M173 586.666C173 583.352 175.686 580.666 179 580.666H263C266.314 580.666 269 583.352 269 586.666V846.999H173V586.666Z" fill="#0075AB"/>
<path d="M173 712C173 708.686 175.686 706 179 706H263C266.314 706 269 708.686 269 712V847H173V712Z" fill="#065274"/>
<path d="M314.637 445C314.637 441.686 317.323 439 320.637 439H404.637C407.95 439 410.637 441.686 410.637 445V847H314.637V445Z" fill="#2CCEFF"/>
<path d="M314.637 564C314.637 560.686 317.323 558 320.637 558H404.637C407.95 558 410.637 560.686 410.637 564V847H314.637V564Z" fill="#0075AB"/>
<path d="M314.637 700C314.637 696.686 317.323 694 320.637 694H404.637C407.95 694 410.637 696.686 410.637 700V847H314.637V700Z" fill="#065274"/>
<path d="M456.273 509C456.273 505.686 458.96 503 462.273 503H546.273C549.587 503 552.273 505.686 552.273 509V847H456.273V509Z" fill="#2CCEFF"/>
<path d="M456.273 609.334C456.273 606.02 458.96 603.334 462.273 603.334H546.273C549.587 603.334 552.273 606.02 552.273 609.334V847.001H456.273V609.334Z" fill="#0075AB"/>
<path d="M456.273 724C456.273 720.686 458.96 718 462.273 718H546.273C549.587 718 552.273 720.686 552.273 724V847H456.273V724Z" fill="#065274"/>
<path d="M597.91 469C597.91 465.686 600.596 463 603.91 463H687.91C691.224 463 693.91 465.686 693.91 469V847H597.91V469Z" fill="#2CCEFF"/>
<path d="M597.91 581C597.91 577.686 600.596 575 603.91 575H687.91C691.224 575 693.91 577.686 693.91 581V847H597.91V581Z" fill="#0075AB"/>
<path d="M597.91 709C597.91 705.686 600.596 703 603.91 703H687.91C691.224 703 693.91 705.686 693.91 709V847H597.91V709Z" fill="#065274"/>
<path d="M739.547 509C739.547 505.686 742.233 503 745.547 503H829.547C832.861 503 835.547 505.686 835.547 509V847H739.547V509Z" fill="#2CCEFF"/>
<path d="M739.547 609.334C739.547 606.02 742.233 603.334 745.547 603.334H829.547C832.861 603.334 835.547 606.02 835.547 609.334V847.001H739.547V609.334Z" fill="#0075AB"/>
<path d="M739.547 724C739.547 720.686 742.233 718 745.547 718H829.547C832.861 718 835.547 720.686 835.547 724V847H739.547V724Z" fill="#065274"/>
<path d="M881.184 453C881.184 449.686 883.87 447 887.184 447H971.184C974.497 447 977.184 449.686 977.184 453V847H881.184V453Z" fill="#2CCEFF"/>
<path d="M881.184 569.666C881.184 566.352 883.87 563.666 887.184 563.666H971.184C974.497 563.666 977.184 566.352 977.184 569.666V846.999H881.184V569.666Z" fill="#0075AB"/>
<path d="M881.184 703C881.184 699.686 883.87 697 887.184 697H971.184C974.497 697 977.184 699.686 977.184 703V847H881.184V703Z" fill="#065274"/>
<path d="M1022.82 477C1022.82 473.686 1025.5 471 1028.82 471H1112.82C1116.13 471 1118.82 473.686 1118.82 477V847H1022.82V477Z" fill="#2CCEFF"/>
<path d="M1022.82 586.666C1022.82 583.352 1025.5 580.666 1028.82 580.666H1112.82C1116.13 580.666 1118.82 583.352 1118.82 586.666V846.999H1022.82V586.666Z" fill="#0075AB"/>
<path d="M1022.82 712C1022.82 708.686 1025.5 706 1028.82 706H1112.82C1116.13 706 1118.82 708.686 1118.82 712V847H1022.82V712Z" fill="#065274"/>
<path d="M1164.45 469C1164.45 465.686 1167.14 463 1170.45 463H1254.45C1257.77 463 1260.45 465.686 1260.45 469V847H1164.45V469Z" fill="#2CCEFF"/>
<path d="M1164.45 581C1164.45 577.686 1167.14 575 1170.45 575H1254.45C1257.77 575 1260.45 577.686 1260.45 581V847H1164.45V581Z" fill="#0075AB"/>
<path d="M1164.45 709C1164.45 705.686 1167.14 703 1170.45 703H1254.45C1257.77 703 1260.45 705.686 1260.45 709V847H1164.45V709Z" fill="#065274"/>
<path d="M1306.09 477C1306.09 473.686 1308.78 471 1312.09 471H1396.09C1399.4 471 1402.09 473.686 1402.09 477V847H1306.09V477Z" fill="#2CCEFF"/>
<path d="M1306.09 586.666C1306.09 583.352 1308.78 580.666 1312.09 580.666H1396.09C1399.4 580.666 1402.09 583.352 1402.09 586.666V846.999H1306.09V586.666Z" fill="#0075AB"/>
<path d="M1306.09 712C1306.09 708.686 1308.78 706 1312.09 706H1396.09C1399.4 706 1402.09 708.686 1402.09 712V847H1306.09V712Z" fill="#065274"/>
<path d="M1447.73 461C1447.73 457.686 1450.41 455 1453.73 455H1537.73C1541.04 455 1543.73 457.686 1543.73 461V847H1447.73V461Z" fill="#2CCEFF"/>
<path d="M1447.73 575.334C1447.73 572.02 1450.41 569.334 1453.73 569.334H1537.73C1541.04 569.334 1543.73 572.02 1543.73 575.334V847.001H1447.73V575.334Z" fill="#0075AB"/>
<path d="M1447.73 706C1447.73 702.686 1450.41 700 1453.73 700H1537.73C1541.04 700 1543.73 702.686 1543.73 706V847H1447.73V706Z" fill="#065274"/>
<path d="M1589.36 445C1589.36 441.686 1592.05 439 1595.36 439H1679.36C1682.68 439 1685.36 441.686 1685.36 445V847H1589.36V445Z" fill="#2CCEFF"/>
<path d="M1589.36 564C1589.36 560.686 1592.05 558 1595.36 558H1679.36C1682.68 558 1685.36 560.686 1685.36 564V847H1589.36V564Z" fill="#0075AB"/>
<path d="M1589.36 700C1589.36 696.686 1592.05 694 1595.36 694H1679.36C1682.68 694 1685.36 696.686 1685.36 700V847H1589.36V700Z" fill="#065274"/>
<path d="M1731 485C1731 481.686 1733.69 479 1737 479H1821C1824.31 479 1827 481.686 1827 485V847H1731V485Z" fill="#2CCEFF"/>
<path d="M1731 592.334C1731 589.02 1733.69 586.334 1737 586.334H1821C1824.31 586.334 1827 589.02 1827 592.334V847.001H1731V592.334Z" fill="#0075AB"/>
<path d="M1731 715C1731 711.686 1733.69 709 1737 709H1821C1824.31 709 1827 711.686 1827 715V847H1731V715Z" fill="#065274"/>
<mask id="mask0_7837_68402" style="mask-type:alpha" maskUnits="userSpaceOnUse" x="-455" y="184" width="651" height="651">
<rect x="-226.316" y="834.707" width="480" height="480" rx="12" transform="rotate(-118.452 -226.316 834.707)" fill="url(#paint1_linear_7837_68402)"/>
</mask>
<g mask="url(#mask0_7837_68402)">
<rect x="-140.628" y="664.528" width="220" height="220" rx="10" transform="rotate(-130.952 -140.628 664.528)" stroke="#2CCEFF" stroke-width="4"/>
<rect x="-143.822" y="709.671" width="284" height="284" rx="10" transform="rotate(-130.952 -143.822 709.671)" stroke="#2CCEFF" stroke-width="4"/>
<rect x="-147.017" y="754.813" width="348" height="348" rx="10" transform="rotate(-130.952 -147.017 754.813)" stroke="#2CCEFF" stroke-width="4"/>
<rect x="-150.21" y="799.956" width="412" height="412" rx="10" transform="rotate(-130.952 -150.21 799.956)" stroke="#2CCEFF" stroke-width="4"/>
<rect x="-153.406" y="845.097" width="476" height="476" rx="10" transform="rotate(-130.952 -153.406 845.097)" stroke="#2CCEFF" stroke-width="4"/>
</g>
<mask id="mask1_7837_68402" style="mask-type:alpha" maskUnits="userSpaceOnUse" x="1609" y="-229" width="628" height="628">
<rect x="1794.06" y="-229" width="480" height="480" rx="12" transform="rotate(22.6777 1794.06 -229)" fill="url(#paint2_linear_7837_68402)"/>
</mask>
<g mask="url(#mask1_7837_68402)">
<rect x="1885.02" y="30.411" width="94" height="94" rx="11" transform="rotate(10.1777 1885.02 30.411)" stroke="#2CCEFF" stroke-width="2"/>
<rect x="1859.99" y="-5.57846" width="156" height="156" rx="10" transform="rotate(10.1777 1859.99 -5.57846)" stroke="#2CCEFF" stroke-width="4"/>
<rect x="1834.15" y="-42.7288" width="220" height="220" rx="10" transform="rotate(10.1777 1834.15 -42.7288)" stroke="#2CCEFF" stroke-width="4"/>
<rect x="1808.3" y="-79.8812" width="284" height="284" rx="10" transform="rotate(10.1777 1808.3 -79.8812)" stroke="#2CCEFF" stroke-width="4"/>
<rect x="1782.46" y="-117.032" width="348" height="348" rx="10" transform="rotate(10.1777 1782.46 -117.032)" stroke="#2CCEFF" stroke-width="4"/>
<rect x="1756.62" y="-154.182" width="412" height="412" rx="10" transform="rotate(10.1777 1756.62 -154.182)" stroke="#2CCEFF" stroke-width="4"/>
<rect x="1730.78" y="-191.332" width="476" height="476" rx="10" transform="rotate(10.1777 1730.78 -191.332)" stroke="#2CCEFF" stroke-width="4"/>
</g>
</g>
<defs>
<linearGradient id="paint0_linear_7837_68402" x1="-3.86544e-05" y1="12.037" x2="805.855" y2="1604.35" gradientUnits="userSpaceOnUse">
<stop stop-color="#242A33"/>
<stop offset="1" stop-color="#053246"/>
</linearGradient>
<linearGradient id="paint1_linear_7837_68402" x1="13.6836" y1="834.707" x2="13.6836" y2="1314.71" gradientUnits="userSpaceOnUse">
<stop/>
<stop offset="0.991144" stop-opacity="0"/>
</linearGradient>
<linearGradient id="paint2_linear_7837_68402" x1="2034.06" y1="-229" x2="2034.06" y2="251" gradientUnits="userSpaceOnUse">
<stop/>
<stop offset="0.991144" stop-opacity="0"/>
</linearGradient>
<clipPath id="clip0_7837_68402">
<rect width="2000" height="1000" fill="white"/>
</clipPath>
</defs>
</svg>
