<svg width="612" height="512" viewBox="0 0 612 512" fill="none" xmlns="http://www.w3.org/2000/svg">
<rect width="612" height="512" fill="#F2F4F7"/>
<g filter="url(#filter0_dd_10965_89168)">
<rect x="99.3516" y="49" width="413.3" height="112" rx="12" fill="white" shape-rendering="crispEdges"/>
<rect x="99.8516" y="49.5" width="412.3" height="111" rx="11.5" stroke="#D0D5DD" shape-rendering="crispEdges"/>
<rect x="115.852" y="61.5" width="102" height="23" rx="5.5" fill="white"/>
<rect x="115.852" y="61.5" width="102" height="23" rx="5.5" stroke="#D0D5DD"/>
<text fill="#344054" xml:space="preserve" style="white-space: pre" font-family="-apple-system, BlinkMacSystemFont, 'Segoe UI', Roboto, Arial, sans-serif" font-size="12" font-weight="500" letter-spacing="0em"><tspan x="123.662" y="77.3636">Featured token</tspan></text>
<rect x="115.602" y="93.25" width="27.5" height="27.5" rx="13.75" fill="#52DFFF"/>
<rect x="115.602" y="93.25" width="27.5" height="27.5" rx="13.75" stroke="#4BCDEB" stroke-width="0.5"/>
<path d="M137.936 105.472C136.901 103.978 134.642 103.909 131.682 103.933C130.17 103.94 129.973 104.004 130.212 103.455C130.213 103.452 130.632 102.476 130.847 102.004C131.204 101.221 131.542 100.482 131.7 99.9555C131.917 99.2321 131.753 98.5382 131.262 98.0993C130.664 97.5649 129.727 97.5344 128.822 98.018C126.431 99.2697 124.757 100.63 122.672 102.555C120.199 104.754 119.977 106.928 120.492 108.372C120.887 109.471 122 110.13 123.274 110.154C124.946 110.148 126.591 110.138 127.486 110.131C127.925 110.155 128.114 110.129 128.09 110.38C127.972 111.145 126.736 114.157 126.736 114.157C126.433 115.229 126.836 116.329 128.353 116.329C129.428 116.351 131.31 115.374 133.575 113.859C135.098 112.809 136.01 112.046 136.776 111.179C139.019 108.664 138.522 106.37 137.934 105.472H137.936ZM135.984 109.111C134.955 110.511 132.908 111.877 129.948 113.326C129.465 113.556 129.473 113.468 129.58 113.201C130.08 111.981 130.927 109.807 130.968 109.029C131.004 107.753 130.544 107.366 128.515 107.247C127.884 107.216 124.926 107.271 123.689 107.271C122.955 107.269 122.526 106.96 122.36 106.497C122.277 106.263 122.283 105.989 122.371 105.69C122.539 105.125 123.003 104.466 123.715 103.809C125.575 102.09 127.086 100.849 129.111 99.735C129.249 99.6578 129.711 99.415 129.785 99.3835C130.188 99.2097 130.501 99.1935 130.225 99.8264C130.068 100.214 128.923 102.429 128.47 103.674C127.897 105.158 128.87 105.411 131.002 105.355C134.308 105.269 135.988 105.497 136.555 106.313C137.12 107.366 136.489 108.42 135.982 109.11L135.984 109.111Z" fill="#151515"/>
<path d="M135.987 109.109C134.959 110.509 132.911 111.874 129.951 113.324C129.469 113.553 129.476 113.465 129.583 113.199C130.084 111.979 130.93 109.804 130.971 109.026C131.007 107.75 130.547 107.363 128.519 107.244C127.887 107.214 124.93 107.269 123.693 107.269C122.958 107.267 122.529 106.958 122.364 106.495C122.281 106.261 122.286 105.987 122.374 105.688C122.543 105.122 123.007 104.464 123.719 103.806C125.579 102.087 127.089 100.847 129.115 99.7323C129.253 99.6551 129.714 99.4123 129.789 99.3808C130.192 99.2071 130.505 99.1908 130.228 99.8238C130.071 100.211 128.927 102.427 128.474 103.671C127.9 105.155 128.874 105.408 131.005 105.353C134.312 105.266 135.991 105.495 136.558 106.311C137.123 107.363 136.493 108.418 135.985 109.108L135.987 109.109Z" fill="white"/>
<text fill="#0094D4" xml:space="preserve" style="white-space: pre" font-family="-apple-system, BlinkMacSystemFont, 'Segoe UI', Roboto, Arial, sans-serif" font-size="18" font-weight="600" letter-spacing="0em"><tspan x="149.352" y="113.545">$SNEK</tspan></text>
<text fill="#475467" xml:space="preserve" style="white-space: pre" font-family="-apple-system, BlinkMacSystemFont, 'Segoe UI', Roboto, Arial, sans-serif" font-size="14" letter-spacing="0em"><tspan x="115.352" y="144.091">A meme, and a memecoin $SNEK </tspan></text>
</g>
<g filter="url(#filter1_dd_10965_89168)">
<rect x="99.3516" y="200" width="413.3" height="112" rx="12" fill="white" shape-rendering="crispEdges"/>
<rect x="99.8516" y="200.5" width="412.3" height="111" rx="11.5" stroke="#D0D5DD" shape-rendering="crispEdges"/>
<rect x="115.852" y="212.5" width="94" height="23" rx="5.5" fill="white"/>
<rect x="115.852" y="212.5" width="94" height="23" rx="5.5" stroke="#D0D5DD"/>
<text fill="#344054" xml:space="preserve" style="white-space: pre" font-family="-apple-system, BlinkMacSystemFont, 'Segoe UI', Roboto, Arial, sans-serif" font-size="12" font-weight="500" letter-spacing="0em"><tspan x="123.359" y="228.364">Featured pool</tspan></text>
<g clip-path="url(#clip0_10965_89168)">
<path d="M129.344 269.3C126.819 269.3 124.351 268.607 122.251 267.308C120.152 266.009 118.516 264.163 117.55 262.003C116.584 259.843 116.331 257.467 116.823 255.174C117.316 252.881 118.532 250.775 120.317 249.122C122.102 247.469 124.377 246.343 126.853 245.887C129.329 245.431 131.896 245.665 134.229 246.56C136.561 247.455 138.555 248.969 139.958 250.913C141.36 252.857 142.109 255.142 142.109 257.48C142.109 260.615 140.764 263.621 138.37 265.838C135.976 268.055 132.729 269.3 129.344 269.3Z" fill="#E4003A"/>
<path d="M143.352 244H115.352V272H143.352V244Z" fill="#E4003A"/>
<path d="M123.766 263.29L129.287 251.254L123.766 263.29Z" fill="#050001"/>
<path d="M123.766 263.29L129.287 251.254" stroke="white" stroke-width="1.18" stroke-miterlimit="3.7" stroke-linecap="round"/>
<path d="M134.963 263.286L129.445 251.25L134.963 263.286Z" fill="#050001"/>
<path d="M134.963 263.286L129.445 251.25" stroke="white" stroke-width="1.18" stroke-miterlimit="3.7" stroke-linecap="round"/>
<path d="M125 256.41L133.699 256.387L125 256.41Z" fill="#050001"/>
<path d="M125 256.41L133.699 256.387" stroke="white" stroke-width="1.18" stroke-miterlimit="3.7" stroke-linecap="round"/>
<path d="M123.883 258.749L134.817 258.73L123.883 258.749Z" fill="#050001"/>
<path d="M123.883 258.749L134.817 258.73" stroke="white" stroke-width="1.18" stroke-miterlimit="3.7" stroke-linecap="round"/>
</g>
<rect x="115.602" y="244.25" width="27.5" height="27.5" rx="13.75" stroke="#E4E7EC" stroke-width="0.5"/>
<text fill="#0094D4" xml:space="preserve" style="white-space: pre" font-family="-apple-system, BlinkMacSystemFont, 'Segoe UI', Roboto, Arial, sans-serif" font-size="18" font-weight="600" letter-spacing="0em"><tspan x="149.352" y="264.545">[POOLS] Cexplorer.io</tspan></text>
<text fill="#475467" xml:space="preserve" style="white-space: pre" font-family="-apple-system, BlinkMacSystemFont, 'Segoe UI', Roboto, Arial, sans-serif" font-size="14" letter-spacing="0em"><tspan x="115.352" y="295.091">Official pool of Cexplorer.io</tspan></text>
</g>
<g filter="url(#filter2_dd_10965_89168)">
<rect x="99.3516" y="351" width="413.3" height="112" rx="12" fill="white" shape-rendering="crispEdges"/>
<rect x="99.8516" y="351.5" width="412.3" height="111" rx="11.5" stroke="#D0D5DD" shape-rendering="crispEdges"/>
<rect x="115.852" y="363.5" width="100" height="23" rx="5.5" fill="white"/>
<rect x="115.852" y="363.5" width="100" height="23" rx="5.5" stroke="#D0D5DD"/>
<text fill="#344054" xml:space="preserve" style="white-space: pre" font-family="-apple-system, BlinkMacSystemFont, 'Segoe UI', Roboto, Arial, sans-serif" font-size="12" font-weight="500" letter-spacing="0em"><tspan x="123.406" y="379.364">Featured DRep</tspan></text>
<rect x="115.352" y="395" width="28" height="28" rx="14" fill="#F2F4F7"/>
<g opacity="0.08">
<rect x="115.602" y="395.25" width="27.5" height="27.5" rx="13.75" stroke="black" stroke-width="0.5"/>
</g>
<path d="M135.569 416C135.569 414.915 135.569 414.372 135.435 413.93C135.134 412.936 134.356 412.158 133.361 411.856C132.92 411.722 132.377 411.722 131.292 411.722H127.403C126.317 411.722 125.775 411.722 125.333 411.856C124.339 412.158 123.561 412.936 123.259 413.93C123.125 414.372 123.125 414.915 123.125 416M132.847 405.5C132.847 407.433 131.28 409 129.347 409C127.414 409 125.847 407.433 125.847 405.5C125.847 403.567 127.414 402 129.347 402C131.28 402 132.847 403.567 132.847 405.5Z" stroke="#475467" stroke-width="1.33333" stroke-linecap="round" stroke-linejoin="round"/>
<text fill="#0094D4" xml:space="preserve" style="white-space: pre" font-family="-apple-system, BlinkMacSystemFont, 'Segoe UI', Roboto, Arial, sans-serif" font-size="18" font-weight="600" letter-spacing="0em"><tspan x="149.352" y="415.545">Cardano DRep Chris</tspan></text>
<text fill="#475467" xml:space="preserve" style="white-space: pre" font-family="-apple-system, BlinkMacSystemFont, 'Segoe UI', Roboto, Arial, sans-serif" font-size="14" letter-spacing="0em"><tspan x="115.352" y="446.091">Pushing Cardano forward.</tspan></text>
</g>
<defs>
<filter id="filter0_dd_10965_89168" x="93.3516" y="47" width="425.297" height="124" filterUnits="userSpaceOnUse" color-interpolation-filters="sRGB">
<feFlood flood-opacity="0" result="BackgroundImageFix"/>
<feColorMatrix in="SourceAlpha" type="matrix" values="0 0 0 0 0 0 0 0 0 0 0 0 0 0 0 0 0 0 127 0" result="hardAlpha"/>
<feMorphology radius="2" operator="erode" in="SourceAlpha" result="effect1_dropShadow_10965_89168"/>
<feOffset dy="2"/>
<feGaussianBlur stdDeviation="2"/>
<feComposite in2="hardAlpha" operator="out"/>
<feColorMatrix type="matrix" values="0 0 0 0 0.0627451 0 0 0 0 0.0941176 0 0 0 0 0.156863 0 0 0 0.06 0"/>
<feBlend mode="normal" in2="BackgroundImageFix" result="effect1_dropShadow_10965_89168"/>
<feColorMatrix in="SourceAlpha" type="matrix" values="0 0 0 0 0 0 0 0 0 0 0 0 0 0 0 0 0 0 127 0" result="hardAlpha"/>
<feMorphology radius="2" operator="erode" in="SourceAlpha" result="effect2_dropShadow_10965_89168"/>
<feOffset dy="4"/>
<feGaussianBlur stdDeviation="4"/>
<feComposite in2="hardAlpha" operator="out"/>
<feColorMatrix type="matrix" values="0 0 0 0 0.0627451 0 0 0 0 0.0941176 0 0 0 0 0.156863 0 0 0 0.1 0"/>
<feBlend mode="normal" in2="effect1_dropShadow_10965_89168" result="effect2_dropShadow_10965_89168"/>
<feBlend mode="normal" in="SourceGraphic" in2="effect2_dropShadow_10965_89168" result="shape"/>
</filter>
<filter id="filter1_dd_10965_89168" x="93.3516" y="198" width="425.297" height="124" filterUnits="userSpaceOnUse" color-interpolation-filters="sRGB">
<feFlood flood-opacity="0" result="BackgroundImageFix"/>
<feColorMatrix in="SourceAlpha" type="matrix" values="0 0 0 0 0 0 0 0 0 0 0 0 0 0 0 0 0 0 127 0" result="hardAlpha"/>
<feMorphology radius="2" operator="erode" in="SourceAlpha" result="effect1_dropShadow_10965_89168"/>
<feOffset dy="2"/>
<feGaussianBlur stdDeviation="2"/>
<feComposite in2="hardAlpha" operator="out"/>
<feColorMatrix type="matrix" values="0 0 0 0 0.0627451 0 0 0 0 0.0941176 0 0 0 0 0.156863 0 0 0 0.06 0"/>
<feBlend mode="normal" in2="BackgroundImageFix" result="effect1_dropShadow_10965_89168"/>
<feColorMatrix in="SourceAlpha" type="matrix" values="0 0 0 0 0 0 0 0 0 0 0 0 0 0 0 0 0 0 127 0" result="hardAlpha"/>
<feMorphology radius="2" operator="erode" in="SourceAlpha" result="effect2_dropShadow_10965_89168"/>
<feOffset dy="4"/>
<feGaussianBlur stdDeviation="4"/>
<feComposite in2="hardAlpha" operator="out"/>
<feColorMatrix type="matrix" values="0 0 0 0 0.0627451 0 0 0 0 0.0941176 0 0 0 0 0.156863 0 0 0 0.1 0"/>
<feBlend mode="normal" in2="effect1_dropShadow_10965_89168" result="effect2_dropShadow_10965_89168"/>
<feBlend mode="normal" in="SourceGraphic" in2="effect2_dropShadow_10965_89168" result="shape"/>
</filter>
<filter id="filter2_dd_10965_89168" x="93.3516" y="349" width="425.297" height="124" filterUnits="userSpaceOnUse" color-interpolation-filters="sRGB">
<feFlood flood-opacity="0" result="BackgroundImageFix"/>
<feColorMatrix in="SourceAlpha" type="matrix" values="0 0 0 0 0 0 0 0 0 0 0 0 0 0 0 0 0 0 127 0" result="hardAlpha"/>
<feMorphology radius="2" operator="erode" in="SourceAlpha" result="effect1_dropShadow_10965_89168"/>
<feOffset dy="2"/>
<feGaussianBlur stdDeviation="2"/>
<feComposite in2="hardAlpha" operator="out"/>
<feColorMatrix type="matrix" values="0 0 0 0 0.0627451 0 0 0 0 0.0941176 0 0 0 0 0.156863 0 0 0 0.06 0"/>
<feBlend mode="normal" in2="BackgroundImageFix" result="effect1_dropShadow_10965_89168"/>
<feColorMatrix in="SourceAlpha" type="matrix" values="0 0 0 0 0 0 0 0 0 0 0 0 0 0 0 0 0 0 127 0" result="hardAlpha"/>
<feMorphology radius="2" operator="erode" in="SourceAlpha" result="effect2_dropShadow_10965_89168"/>
<feOffset dy="4"/>
<feGaussianBlur stdDeviation="4"/>
<feComposite in2="hardAlpha" operator="out"/>
<feColorMatrix type="matrix" values="0 0 0 0 0.0627451 0 0 0 0 0.0941176 0 0 0 0 0.156863 0 0 0 0.1 0"/>
<feBlend mode="normal" in2="effect1_dropShadow_10965_89168" result="effect2_dropShadow_10965_89168"/>
<feBlend mode="normal" in="SourceGraphic" in2="effect2_dropShadow_10965_89168" result="shape"/>
</filter>
<clipPath id="clip0_10965_89168">
<rect x="115.352" y="244" width="28" height="28" rx="14" fill="white"/>
</clipPath>
</defs>
</svg>
