<svg width="612" height="512" viewBox="0 0 612 512" fill="none" xmlns="http://www.w3.org/2000/svg">
<g clip-path="url(#clip0_7258_76757)">
<rect width="612" height="512" fill="#F2F4F7"/>
<g filter="url(#filter0_dd_7258_76757)">
<g clip-path="url(#clip1_7258_76757)">
<rect x="24" y="42" width="720" height="427" rx="12" fill="white"/>
<mask id="path-3-inside-1_7258_76757" fill="white">
<path d="M24 42H89V469H24V42Z"/>
</mask>
<path d="M24 42H89V469H24V42Z" fill="#FCFCFD"/>
<path d="M89 42H88V469H89H90V42H89Z" fill="#E4E7EC" mask="url(#path-3-inside-1_7258_76757)"/>
<text fill="#667085" xml:space="preserve" style="white-space: pre" font-family="'SF Mono', 'Monaco', 'Cascadia Code', 'Roboto Mono', 'Courier New', monospace" font-size="14" font-weight="bold" letter-spacing="0em"><tspan x="56.5918" y="80.438">1&#10;</tspan><tspan x="56.5918" y="99.438">2&#10;</tspan><tspan x="56.5918" y="118.438">3&#10;</tspan><tspan x="56.5918" y="137.438">4&#10;</tspan><tspan x="56.5918" y="156.438">5&#10;</tspan><tspan x="56.5918" y="175.438">6&#10;</tspan><tspan x="56.5918" y="194.438">7&#10;</tspan><tspan x="56.5918" y="213.438">8&#10;</tspan><tspan x="56.5918" y="232.438">9&#10;</tspan><tspan x="48.1836" y="251.438">10&#10;</tspan><tspan x="48.1836" y="270.438">11&#10;</tspan><tspan x="48.1836" y="289.438">12&#10;</tspan><tspan x="48.1836" y="308.438">13&#10;</tspan><tspan x="48.1836" y="327.438">14&#10;</tspan><tspan x="48.1836" y="346.438">15&#10;</tspan><tspan x="48.1836" y="365.438">16&#10;</tspan><tspan x="48.1836" y="384.438">17&#10;</tspan><tspan x="48.1836" y="403.438">18&#10;</tspan><tspan x="48.1836" y="422.438">19&#10;</tspan><tspan x="48.1836" y="441.438">20</tspan></text>
<text fill="#2666D6" xml:space="preserve" style="white-space: pre" font-family="'SF Mono', 'Monaco', 'Cascadia Code', 'Roboto Mono', 'Courier New', monospace" font-size="14" font-weight="500" letter-spacing="0em"><tspan x="247.531" y="156.438">&#34;block_no&#34;:</tspan><tspan x="247.531" y="175.438">&#34;time&#34;:</tspan><tspan x="247.531" y="194.438">&#34;hash&#34;:</tspan><tspan x="247.531" y="213.438">&#34;epoch_no&#34;:</tspan><tspan x="247.531" y="232.438">&#34;slot_no&#34;:</tspan><tspan x="247.531" y="251.438">&#34;epoch_slot_no&#34;:</tspan><tspan x="247.531" y="270.438">&#34;size&#34;:</tspan><tspan x="247.531" y="289.438">&#34;proto_minor&#34;:</tspan><tspan x="247.531" y="308.438">&#34;proto_major&#34;:</tspan><tspan x="247.531" y="327.438">&#34;op_cert_counter&#34;</tspan><tspan x="247.531" y="346.438">&#34;vrf_key&#34;:</tspan><tspan x="247.531" y="365.438">&#34;tx_count&#34;:</tspan></text>
<text fill="#067647" xml:space="preserve" style="white-space: pre" font-family="'SF Mono', 'Monaco', 'Cascadia Code', 'Roboto Mono', 'Courier New', monospace" font-size="14" font-weight="500" letter-spacing="0em"><tspan x="146.633" y="99.438">&#34;data&#34;:</tspan></text>
<text fill="#C11574" xml:space="preserve" style="white-space: pre" font-family="'SF Mono', 'Monaco', 'Cascadia Code', 'Roboto Mono', 'Courier New', monospace" font-size="14" font-weight="500" letter-spacing="0em"><tspan x="180.266" y="118.438">&#34;data&#34;:</tspan></text>
<text fill="#344054" xml:space="preserve" style="white-space: pre" font-family="'SF Mono', 'Monaco', 'Cascadia Code', 'Roboto Mono', 'Courier New', monospace" font-size="14" font-weight="500" letter-spacing="0em"><tspan x="113" y="80.438">{&#10;</tspan><tspan x="113" y="99.438">    </tspan><tspan x="205.49" y="99.438"> {&#10;</tspan><tspan x="113" y="118.438">        </tspan><tspan x="239.123" y="118.438"> [&#10;</tspan><tspan x="113" y="137.438">            {&#10;</tspan><tspan x="113" y="156.438">                </tspan><tspan x="340.021" y="156.438"> 2876726,&#10;</tspan><tspan x="113" y="175.438">                </tspan><tspan x="306.389" y="175.438"> &#34;2024-11-11 13:10:21&#34;,&#10;</tspan><tspan x="113" y="194.438">                </tspan><tspan x="306.389" y="194.438"> &#34;ff5577d28bfdb6fbbab9c5c2787&#34;,&#10;</tspan><tspan x="113" y="213.438">                </tspan><tspan x="340.021" y="213.438"> 178,&#10;</tspan><tspan x="113" y="232.438">                </tspan><tspan x="331.613" y="232.438"> 75647421,&#10;</tspan><tspan x="113" y="251.438">                </tspan><tspan x="382.062" y="251.438"> 393021,&#10;</tspan><tspan x="113" y="270.438">                </tspan><tspan x="306.389" y="270.438"> 6546,&#10;</tspan><tspan x="113" y="289.438">                </tspan><tspan x="365.246" y="289.438"> 0,&#10;</tspan><tspan x="113" y="308.438">                </tspan><tspan x="365.246" y="308.438"> 10,&#10;</tspan><tspan x="113" y="327.438">                </tspan><tspan x="390.471" y="327.438">: 9,&#10;</tspan><tspan x="113" y="346.438">                </tspan><tspan x="331.613" y="346.438"> &#34;vrf_vk1k5x670yfjqqxkc3lt&#34;,&#10;</tspan><tspan x="113" y="365.438">                </tspan><tspan x="340.021" y="365.438"> 2&#10;</tspan><tspan x="113" y="384.438">            }&#10;</tspan><tspan x="113" y="403.438">        ]&#10;</tspan><tspan x="113" y="422.438">    }&#10;</tspan><tspan x="113" y="441.438">}</tspan></text>
</g>
<rect x="24.5" y="42.5" width="719" height="426" rx="11.5" stroke="#E4E7EC"/>
</g>
</g>
<defs>
<filter id="filter0_dd_7258_76757" x="4" y="42" width="760" height="467" filterUnits="userSpaceOnUse" color-interpolation-filters="sRGB">
<feFlood flood-opacity="0" result="BackgroundImageFix"/>
<feColorMatrix in="SourceAlpha" type="matrix" values="0 0 0 0 0 0 0 0 0 0 0 0 0 0 0 0 0 0 127 0" result="hardAlpha"/>
<feMorphology radius="4" operator="erode" in="SourceAlpha" result="effect1_dropShadow_7258_76757"/>
<feOffset dy="8"/>
<feGaussianBlur stdDeviation="4"/>
<feComposite in2="hardAlpha" operator="out"/>
<feColorMatrix type="matrix" values="0 0 0 0 0.0627451 0 0 0 0 0.0941176 0 0 0 0 0.156863 0 0 0 0.03 0"/>
<feBlend mode="normal" in2="BackgroundImageFix" result="effect1_dropShadow_7258_76757"/>
<feColorMatrix in="SourceAlpha" type="matrix" values="0 0 0 0 0 0 0 0 0 0 0 0 0 0 0 0 0 0 127 0" result="hardAlpha"/>
<feMorphology radius="4" operator="erode" in="SourceAlpha" result="effect2_dropShadow_7258_76757"/>
<feOffset dy="20"/>
<feGaussianBlur stdDeviation="12"/>
<feComposite in2="hardAlpha" operator="out"/>
<feColorMatrix type="matrix" values="0 0 0 0 0.0627451 0 0 0 0 0.0941176 0 0 0 0 0.156863 0 0 0 0.08 0"/>
<feBlend mode="normal" in2="effect1_dropShadow_7258_76757" result="effect2_dropShadow_7258_76757"/>
<feBlend mode="normal" in="SourceGraphic" in2="effect2_dropShadow_7258_76757" result="shape"/>
</filter>
<clipPath id="clip0_7258_76757">
<rect width="612" height="512" fill="white"/>
</clipPath>
<clipPath id="clip1_7258_76757">
<rect x="24" y="42" width="720" height="427" rx="12" fill="white"/>
</clipPath>
</defs>
</svg>
