<svg width="612" height="512" viewBox="0 0 612 512" fill="none" xmlns="http://www.w3.org/2000/svg">
<rect width="612" height="512" fill="#F2F4F7"/>
<g filter="url(#filter0_dd_10967_89303)">
<rect x="99.3359" y="124.5" width="413.333" height="112" rx="12" fill="#13294A" shape-rendering="crispEdges"/>
<rect x="99.8359" y="125" width="412.333" height="111" rx="11.5" stroke="#D0D5DD" shape-rendering="crispEdges"/>
<g clip-path="url(#clip0_10967_89303)">
<rect x="123.336" y="140.5" width="32" height="32" rx="16" fill="white"/>
<path fill-rule="evenodd" clip-rule="evenodd" d="M139.336 140.5C145.317 140.5 148.308 140.5 150.536 141.786C151.995 142.629 153.207 143.841 154.05 145.3C155.336 147.528 155.336 150.519 155.336 156.5C155.336 162.481 155.336 165.472 154.05 167.7C153.207 169.159 151.995 170.372 150.536 171.214C148.308 172.5 145.317 172.5 139.336 172.5C133.354 172.5 130.364 172.5 128.136 171.214C126.677 170.372 125.464 169.159 124.622 167.7C123.336 165.472 123.336 162.481 123.336 156.5C123.336 150.519 123.336 147.528 124.622 145.3C125.464 143.841 126.677 142.629 128.136 141.786C130.364 140.5 133.354 140.5 139.336 140.5ZM140.936 143.7C133.867 143.7 128.136 149.431 128.136 156.5C128.136 163.569 133.867 169.3 140.936 169.3C148.005 169.3 153.736 163.569 153.736 156.5C153.736 149.431 148.005 143.7 140.936 143.7Z" fill="#FF4D00"/>
<path d="M152.133 156.5C152.133 160.918 148.551 164.5 144.133 164.5C139.715 164.5 136.133 160.918 136.133 156.5C136.133 152.082 139.715 148.5 144.133 148.5C148.551 148.5 152.133 152.082 152.133 156.5Z" fill="#FF4D00"/>
</g>
<text fill="white" xml:space="preserve" style="white-space: pre" font-family="-apple-system, BlinkMacSystemFont, 'Segoe UI', Roboto, Arial, sans-serif" font-size="18" font-weight="600" letter-spacing="0em"><tspan x="161.479" y="163.045">Your Brand Here</tspan></text>
<rect x="457.172" y="145" width="31" height="23" rx="5.5" fill="white"/>
<rect x="457.172" y="145" width="31" height="23" rx="5.5" stroke="#D0D5DD"/>
<text fill="#344054" xml:space="preserve" style="white-space: pre" font-family="-apple-system, BlinkMacSystemFont, 'Segoe UI', Roboto, Arial, sans-serif" font-size="12" font-weight="500" letter-spacing="0em"><tspan x="464.768" y="160.864">Ad</tspan></text>
<text fill="white" xml:space="preserve" style="white-space: pre" font-family="-apple-system, BlinkMacSystemFont, 'Segoe UI', Roboto, Arial, sans-serif" font-size="14" font-weight="500" letter-spacing="0em"><tspan x="123.644" y="215.591">Your description text</tspan></text>
<g filter="url(#filter1_d_10967_89303)">
<rect x="390.672" y="188.5" width="98" height="32" rx="8" fill="#FF692E"/>
<text fill="white" xml:space="preserve" style="white-space: pre" font-family="-apple-system, BlinkMacSystemFont, 'Segoe UI', Roboto, Arial, sans-serif" font-size="14" font-weight="600" letter-spacing="0em"><tspan x="400.672" y="209.591">Button CTA</tspan></text>
</g>
</g>
<g filter="url(#filter2_dd_10967_89303)">
<rect x="99.3359" y="275.5" width="413.333" height="112" rx="12" fill="#1F2A37" shape-rendering="crispEdges"/>
<rect x="99.8359" y="276" width="412.333" height="111" rx="11.5" stroke="#D0D5DD" shape-rendering="crispEdges"/>
<rect x="123.336" y="291.5" width="32" height="32" rx="16" fill="white"/>
<path fill-rule="evenodd" clip-rule="evenodd" d="M139.336 323.5C148.173 323.5 155.336 316.337 155.336 307.5C155.336 298.663 148.173 291.5 139.336 291.5C130.499 291.5 123.336 298.663 123.336 307.5C123.336 316.337 130.499 323.5 139.336 323.5ZM141.806 303.862C143.169 302.498 143.169 300.287 141.806 298.923C140.442 297.559 138.23 297.559 136.866 298.923C135.503 300.287 135.503 302.498 136.866 303.862L139.336 306.332L141.806 303.862ZM142.974 309.97C144.338 311.334 146.549 311.334 147.913 309.97C149.277 308.606 149.277 306.394 147.913 305.03C146.549 303.667 144.338 303.667 142.974 305.03L140.504 307.5L142.974 309.97ZM141.806 316.077C143.169 314.713 143.169 312.502 141.806 311.138L139.336 308.668L136.866 311.138C135.503 312.502 135.503 314.713 136.866 316.077C138.23 317.441 140.442 317.441 141.806 316.077ZM130.759 309.97C129.395 308.606 129.395 306.394 130.759 305.03C132.123 303.667 134.334 303.667 135.698 305.03L138.168 307.5L135.698 309.97C134.334 311.334 132.123 311.334 130.759 309.97Z" fill="#7F57F1"/>
<text fill="white" xml:space="preserve" style="white-space: pre" font-family="-apple-system, BlinkMacSystemFont, 'Segoe UI', Roboto, Arial, sans-serif" font-size="18" font-weight="600" letter-spacing="0em"><tspan x="161.479" y="314.045">Your Brand Here</tspan></text>
<rect x="457.172" y="296" width="31" height="23" rx="5.5" fill="white"/>
<rect x="457.172" y="296" width="31" height="23" rx="5.5" stroke="#D0D5DD"/>
<text fill="#344054" xml:space="preserve" style="white-space: pre" font-family="-apple-system, BlinkMacSystemFont, 'Segoe UI', Roboto, Arial, sans-serif" font-size="12" font-weight="500" letter-spacing="0em"><tspan x="464.768" y="311.864">Ad</tspan></text>
<text fill="white" xml:space="preserve" style="white-space: pre" font-family="-apple-system, BlinkMacSystemFont, 'Segoe UI', Roboto, Arial, sans-serif" font-size="14" font-weight="500" letter-spacing="0em"><tspan x="123.644" y="366.591">Your description text</tspan></text>
<g filter="url(#filter3_d_10967_89303)">
<rect x="390.672" y="339.5" width="98" height="32" rx="8" fill="url(#paint0_linear_10967_89303)"/>
<text fill="white" xml:space="preserve" style="white-space: pre" font-family="-apple-system, BlinkMacSystemFont, 'Segoe UI', Roboto, Arial, sans-serif" font-size="14" font-weight="600" letter-spacing="0em"><tspan x="400.672" y="360.591">Button CTA</tspan></text>
</g>
</g>
<defs>
<filter id="filter0_dd_10967_89303" x="93.3359" y="122.5" width="425.336" height="124" filterUnits="userSpaceOnUse" color-interpolation-filters="sRGB">
<feFlood flood-opacity="0" result="BackgroundImageFix"/>
<feColorMatrix in="SourceAlpha" type="matrix" values="0 0 0 0 0 0 0 0 0 0 0 0 0 0 0 0 0 0 127 0" result="hardAlpha"/>
<feMorphology radius="2" operator="erode" in="SourceAlpha" result="effect1_dropShadow_10967_89303"/>
<feOffset dy="2"/>
<feGaussianBlur stdDeviation="2"/>
<feComposite in2="hardAlpha" operator="out"/>
<feColorMatrix type="matrix" values="0 0 0 0 0.0627451 0 0 0 0 0.0941176 0 0 0 0 0.156863 0 0 0 0.06 0"/>
<feBlend mode="normal" in2="BackgroundImageFix" result="effect1_dropShadow_10967_89303"/>
<feColorMatrix in="SourceAlpha" type="matrix" values="0 0 0 0 0 0 0 0 0 0 0 0 0 0 0 0 0 0 127 0" result="hardAlpha"/>
<feMorphology radius="2" operator="erode" in="SourceAlpha" result="effect2_dropShadow_10967_89303"/>
<feOffset dy="4"/>
<feGaussianBlur stdDeviation="4"/>
<feComposite in2="hardAlpha" operator="out"/>
<feColorMatrix type="matrix" values="0 0 0 0 0.0627451 0 0 0 0 0.0941176 0 0 0 0 0.156863 0 0 0 0.1 0"/>
<feBlend mode="normal" in2="effect1_dropShadow_10967_89303" result="effect2_dropShadow_10967_89303"/>
<feBlend mode="normal" in="SourceGraphic" in2="effect2_dropShadow_10967_89303" result="shape"/>
</filter>
<filter id="filter1_d_10967_89303" x="388.672" y="187.5" width="102" height="36" filterUnits="userSpaceOnUse" color-interpolation-filters="sRGB">
<feFlood flood-opacity="0" result="BackgroundImageFix"/>
<feColorMatrix in="SourceAlpha" type="matrix" values="0 0 0 0 0 0 0 0 0 0 0 0 0 0 0 0 0 0 127 0" result="hardAlpha"/>
<feOffset dy="1"/>
<feGaussianBlur stdDeviation="1"/>
<feComposite in2="hardAlpha" operator="out"/>
<feColorMatrix type="matrix" values="0 0 0 0 0.0627451 0 0 0 0 0.0941176 0 0 0 0 0.156863 0 0 0 0.05 0"/>
<feBlend mode="normal" in2="BackgroundImageFix" result="effect1_dropShadow_10967_89303"/>
<feBlend mode="normal" in="SourceGraphic" in2="effect1_dropShadow_10967_89303" result="shape"/>
</filter>
<filter id="filter2_dd_10967_89303" x="93.3359" y="273.5" width="425.336" height="124" filterUnits="userSpaceOnUse" color-interpolation-filters="sRGB">
<feFlood flood-opacity="0" result="BackgroundImageFix"/>
<feColorMatrix in="SourceAlpha" type="matrix" values="0 0 0 0 0 0 0 0 0 0 0 0 0 0 0 0 0 0 127 0" result="hardAlpha"/>
<feMorphology radius="2" operator="erode" in="SourceAlpha" result="effect1_dropShadow_10967_89303"/>
<feOffset dy="2"/>
<feGaussianBlur stdDeviation="2"/>
<feComposite in2="hardAlpha" operator="out"/>
<feColorMatrix type="matrix" values="0 0 0 0 0.0627451 0 0 0 0 0.0941176 0 0 0 0 0.156863 0 0 0 0.06 0"/>
<feBlend mode="normal" in2="BackgroundImageFix" result="effect1_dropShadow_10967_89303"/>
<feColorMatrix in="SourceAlpha" type="matrix" values="0 0 0 0 0 0 0 0 0 0 0 0 0 0 0 0 0 0 127 0" result="hardAlpha"/>
<feMorphology radius="2" operator="erode" in="SourceAlpha" result="effect2_dropShadow_10967_89303"/>
<feOffset dy="4"/>
<feGaussianBlur stdDeviation="4"/>
<feComposite in2="hardAlpha" operator="out"/>
<feColorMatrix type="matrix" values="0 0 0 0 0.0627451 0 0 0 0 0.0941176 0 0 0 0 0.156863 0 0 0 0.1 0"/>
<feBlend mode="normal" in2="effect1_dropShadow_10967_89303" result="effect2_dropShadow_10967_89303"/>
<feBlend mode="normal" in="SourceGraphic" in2="effect2_dropShadow_10967_89303" result="shape"/>
</filter>
<filter id="filter3_d_10967_89303" x="388.672" y="338.5" width="102" height="36" filterUnits="userSpaceOnUse" color-interpolation-filters="sRGB">
<feFlood flood-opacity="0" result="BackgroundImageFix"/>
<feColorMatrix in="SourceAlpha" type="matrix" values="0 0 0 0 0 0 0 0 0 0 0 0 0 0 0 0 0 0 127 0" result="hardAlpha"/>
<feOffset dy="1"/>
<feGaussianBlur stdDeviation="1"/>
<feComposite in2="hardAlpha" operator="out"/>
<feColorMatrix type="matrix" values="0 0 0 0 0.0627451 0 0 0 0 0.0941176 0 0 0 0 0.156863 0 0 0 0.05 0"/>
<feBlend mode="normal" in2="BackgroundImageFix" result="effect1_dropShadow_10967_89303"/>
<feBlend mode="normal" in="SourceGraphic" in2="effect1_dropShadow_10967_89303" result="shape"/>
</filter>
<linearGradient id="paint0_linear_10967_89303" x1="415.172" y1="371.5" x2="421.533" y2="332.539" gradientUnits="userSpaceOnUse">
<stop stop-color="#53389E"/>
<stop offset="1" stop-color="#6941C6"/>
</linearGradient>
<clipPath id="clip0_10967_89303">
<rect x="123.336" y="140.5" width="32" height="32" rx="16" fill="white"/>
</clipPath>
</defs>
</svg>
