<svg width="612" height="512" viewBox="0 0 612 512" fill="none" xmlns="http://www.w3.org/2000/svg">
<rect width="612" height="512" fill="#F2F4F7"/>
<g filter="url(#filter0_d_10971_89205)">
<g clip-path="url(#clip0_10971_89205)">
<rect x="47" y="90" width="518" height="332" rx="12" fill="white"/>
<rect x="47" y="90" width="552" height="332" rx="12" fill="white"/>
<mask id="path-4-inside-1_10971_89205" fill="white">
<path d="M47 350H176V422H47V350Z"/>
</mask>
<path d="M47 350H176V422H47V350Z" fill="#F9FAFB"/>
<path d="M176 422V421H47V422V423H176V422Z" fill="#E4E7EC" mask="url(#path-4-inside-1_10971_89205)"/>
<rect x="71" y="376" width="81" height="20" rx="4" fill="#E4E7EC"/>
<mask id="path-7-inside-2_10971_89205" fill="white">
<path d="M47 278H176V350H47V278Z"/>
</mask>
<path d="M176 350V349H47V350V351H176V350Z" fill="#E4E7EC" mask="url(#path-7-inside-2_10971_89205)"/>
<rect x="71" y="304" width="81" height="20" rx="4" fill="#E4E7EC"/>
<mask id="path-10-inside-3_10971_89205" fill="white">
<path d="M47 206H176V278H47V206Z"/>
</mask>
<path d="M47 206H176V278H47V206Z" fill="#F9FAFB"/>
<path d="M176 278V277H47V278V279H176V278Z" fill="#E4E7EC" mask="url(#path-10-inside-3_10971_89205)"/>
<rect x="71" y="232" width="81" height="20" rx="4" fill="#E4E7EC"/>
<mask id="path-13-inside-4_10971_89205" fill="white">
<path d="M47 134H176V206H47V134Z"/>
</mask>
<path d="M176 206V205H47V206V207H176V206Z" fill="#E4E7EC" mask="url(#path-13-inside-4_10971_89205)"/>
<rect x="71" y="160" width="81" height="20" rx="4" fill="#E4E7EC"/>
<mask id="path-16-inside-5_10971_89205" fill="white">
<path d="M47 90H176V134H47V90Z"/>
</mask>
<path d="M47 90H176V134H47V90Z" fill="#FCFCFD"/>
<path d="M176 134V133H47V134V135H176V134Z" fill="#E4E7EC" mask="url(#path-16-inside-5_10971_89205)"/>
<rect x="71" y="103" width="81" height="18" rx="4" fill="#D0D5DD"/>
<mask id="path-19-inside-6_10971_89205" fill="white">
<path d="M176 350H599V422H176V350Z"/>
</mask>
<path d="M176 350H599V422H176V350Z" fill="#F9FAFB"/>
<path d="M599 422V421H176V422V423H599V422Z" fill="#E4E7EC" mask="url(#path-19-inside-6_10971_89205)"/>
<rect x="200" y="376" width="101" height="20" rx="4" fill="#E4E7EC"/>
<mask id="path-22-inside-7_10971_89205" fill="white">
<path d="M176 278H599V350H176V278Z"/>
</mask>
<path d="M599 350V349H176V350V351H599V350Z" fill="#E4E7EC" mask="url(#path-22-inside-7_10971_89205)"/>
<rect x="200" y="304" width="138" height="20" rx="4" fill="#E4E7EC"/>
<mask id="path-25-inside-8_10971_89205" fill="white">
<path d="M176 206H599V278H176V206Z"/>
</mask>
<path d="M176 206H599V278H176V206Z" fill="#F9FAFB"/>
<path d="M599 278V277H176V278V279H599V278Z" fill="#E4E7EC" mask="url(#path-25-inside-8_10971_89205)"/>
<rect x="200" y="232" width="126" height="20" rx="4" fill="url(#paint0_linear_10971_89205)"/>
<path d="M351.003 232L342.096 242.688C341.747 243.106 341.573 243.316 341.57 243.492C341.568 243.646 341.637 243.792 341.756 243.889C341.894 244 342.166 244 342.711 244H350.003L349.003 252L357.909 241.312C358.258 240.894 358.433 240.684 358.435 240.508C358.438 240.354 358.369 240.208 358.25 240.111C358.112 240 357.84 240 357.295 240H350.003L351.003 232Z" stroke="url(#paint1_linear_10971_89205)" stroke-width="2" stroke-linecap="round" stroke-linejoin="round"/>
<text fill="url(#paint2_linear_10971_89205)" xml:space="preserve" style="white-space: pre" font-family="-apple-system, BlinkMacSystemFont, 'Segoe UI', Roboto, Arial, sans-serif" font-size="16" font-weight="600" letter-spacing="0em"><tspan x="364" y="247.818">Boosted</tspan></text>
<mask id="path-30-inside-9_10971_89205" fill="white">
<path d="M176 134H599V206H176V134Z"/>
</mask>
<path d="M599 206V205H176V206V207H599V206Z" fill="#E4E7EC" mask="url(#path-30-inside-9_10971_89205)"/>
<rect x="200" y="160" width="158" height="20" rx="4" fill="url(#paint3_linear_10971_89205)"/>
<path d="M383.003 160L374.096 170.688C373.747 171.106 373.573 171.316 373.57 171.492C373.568 171.646 373.637 171.792 373.756 171.889C373.894 172 374.166 172 374.711 172H382.003L381.003 180L389.909 169.312C390.258 168.894 390.433 168.684 390.435 168.508C390.438 168.354 390.369 168.208 390.25 168.111C390.112 168 389.84 168 389.295 168H382.003L383.003 160Z" stroke="url(#paint4_linear_10971_89205)" stroke-width="2" stroke-linecap="round" stroke-linejoin="round"/>
<text fill="url(#paint5_linear_10971_89205)" xml:space="preserve" style="white-space: pre" font-family="-apple-system, BlinkMacSystemFont, 'Segoe UI', Roboto, Arial, sans-serif" font-size="16" font-weight="600" letter-spacing="0em"><tspan x="396" y="175.818">Boosted</tspan></text>
<mask id="path-35-inside-10_10971_89205" fill="white">
<path d="M176 90H599V134H176V90Z"/>
</mask>
<path d="M176 90H599V134H176V90Z" fill="white"/>
<path d="M599 134V133H176V134V135H599V134Z" fill="#E4E7EC" mask="url(#path-35-inside-10_10971_89205)"/>
<rect x="200" y="103" width="125" height="18" rx="4" fill="#D0D5DD"/>
</g>
<rect x="47.5" y="90.5" width="517" height="331" rx="11.5" stroke="#E4E7EC"/>
</g>
<defs>
<filter id="filter0_d_10971_89205" x="11" y="78" width="590" height="404" filterUnits="userSpaceOnUse" color-interpolation-filters="sRGB">
<feFlood flood-opacity="0" result="BackgroundImageFix"/>
<feColorMatrix in="SourceAlpha" type="matrix" values="0 0 0 0 0 0 0 0 0 0 0 0 0 0 0 0 0 0 127 0" result="hardAlpha"/>
<feMorphology radius="12" operator="erode" in="SourceAlpha" result="effect1_dropShadow_10971_89205"/>
<feOffset dy="24"/>
<feGaussianBlur stdDeviation="24"/>
<feComposite in2="hardAlpha" operator="out"/>
<feColorMatrix type="matrix" values="0 0 0 0 0.0625882 0 0 0 0 0.0926346 0 0 0 0 0.15702 0 0 0 0.18 0"/>
<feBlend mode="normal" in2="BackgroundImageFix" result="effect1_dropShadow_10971_89205"/>
<feBlend mode="normal" in="SourceGraphic" in2="effect1_dropShadow_10971_89205" result="shape"/>
</filter>
<linearGradient id="paint0_linear_10971_89205" x1="200" y1="232" x2="206.193" y2="271.017" gradientUnits="userSpaceOnUse">
<stop stop-color="#F49062"/>
<stop offset="1" stop-color="#FD371F"/>
</linearGradient>
<linearGradient id="paint1_linear_10971_89205" x1="341.57" y1="232" x2="361.283" y2="248.623" gradientUnits="userSpaceOnUse">
<stop stop-color="#F49062"/>
<stop offset="1" stop-color="#FD371F"/>
</linearGradient>
<linearGradient id="paint2_linear_10971_89205" x1="364" y1="230" x2="379.597" y2="272.241" gradientUnits="userSpaceOnUse">
<stop stop-color="#F49062"/>
<stop offset="1" stop-color="#FD371F"/>
</linearGradient>
<linearGradient id="paint3_linear_10971_89205" x1="200" y1="160" x2="204.983" y2="199.369" gradientUnits="userSpaceOnUse">
<stop stop-color="#F49062"/>
<stop offset="1" stop-color="#FD371F"/>
</linearGradient>
<linearGradient id="paint4_linear_10971_89205" x1="373.57" y1="160" x2="393.283" y2="176.623" gradientUnits="userSpaceOnUse">
<stop stop-color="#F49062"/>
<stop offset="1" stop-color="#FD371F"/>
</linearGradient>
<linearGradient id="paint5_linear_10971_89205" x1="396" y1="158" x2="411.597" y2="200.241" gradientUnits="userSpaceOnUse">
<stop stop-color="#F49062"/>
<stop offset="1" stop-color="#FD371F"/>
</linearGradient>
<clipPath id="clip0_10971_89205">
<rect x="47" y="90" width="518" height="332" rx="12" fill="white"/>
</clipPath>
</defs>
</svg>
