<svg width="612" height="512" viewBox="0 0 612 512" fill="none" xmlns="http://www.w3.org/2000/svg">
<rect width="768" height="512" transform="translate(-156)" fill="#F2F4F7"/>
<g filter="url(#filter0_d_8678_80135)">
<g clip-path="url(#clip0_8678_80135)">
<rect x="61" y="90" width="481" height="332" rx="12" fill="white"/>
<rect x="61" y="90" width="552" height="332" rx="12" fill="white"/>
<mask id="path-4-inside-1_8678_80135" fill="white">
<path d="M61 350H190V422H61V350Z"/>
</mask>
<path d="M61 350H190V422H61V350Z" fill="#F9FAFB"/>
<path d="M190 421H61V423H190V421Z" fill="#E4E7EC" mask="url(#path-4-inside-1_8678_80135)"/>
<rect x="85" y="376" width="81" height="20" rx="4" fill="#E4E7EC"/>
<mask id="path-7-inside-2_8678_80135" fill="white">
<path d="M61 278H190V350H61V278Z"/>
</mask>
<path d="M190 349H61V351H190V349Z" fill="#E4E7EC" mask="url(#path-7-inside-2_8678_80135)"/>
<rect x="85" y="304" width="81" height="20" rx="4" fill="#E4E7EC"/>
<mask id="path-10-inside-3_8678_80135" fill="white">
<path d="M61 206H190V278H61V206Z"/>
</mask>
<path d="M61 206H190V278H61V206Z" fill="#F9FAFB"/>
<path d="M190 277H61V279H190V277Z" fill="#E4E7EC" mask="url(#path-10-inside-3_8678_80135)"/>
<rect x="85" y="232" width="81" height="20" rx="4" fill="#E4E7EC"/>
<mask id="path-13-inside-4_8678_80135" fill="white">
<path d="M61 134H190V206H61V134Z"/>
</mask>
<path d="M190 205H61V207H190V205Z" fill="#E4E7EC" mask="url(#path-13-inside-4_8678_80135)"/>
<rect x="85" y="160" width="81" height="20" rx="4" fill="#E4E7EC"/>
<mask id="path-16-inside-5_8678_80135" fill="white">
<path d="M61 90H190V134H61V90Z"/>
</mask>
<path d="M61 90H190V134H61V90Z" fill="#FCFCFD"/>
<path d="M190 133H61V135H190V133Z" fill="#E4E7EC" mask="url(#path-16-inside-5_8678_80135)"/>
<rect x="85" y="103" width="81" height="18" rx="4" fill="#D0D5DD"/>
<mask id="path-19-inside-6_8678_80135" fill="white">
<path d="M190 350H613V422H190V350Z"/>
</mask>
<path d="M190 350H613V422H190V350Z" fill="#F9FAFB"/>
<path d="M613 421H190V423H613V421Z" fill="#E4E7EC" mask="url(#path-19-inside-6_8678_80135)"/>
<rect x="214" y="376" width="101" height="20" rx="4" fill="#E4E7EC"/>
<mask id="path-22-inside-7_8678_80135" fill="white">
<path d="M190 278H613V350H190V278Z"/>
</mask>
<path d="M613 349H190V351H613V349Z" fill="#E4E7EC" mask="url(#path-22-inside-7_8678_80135)"/>
<rect x="214" y="304" width="138" height="20" rx="4" fill="#E4E7EC"/>
<mask id="path-25-inside-8_8678_80135" fill="white">
<path d="M190 206H613V278H190V206Z"/>
</mask>
<path d="M190 206H613V278H190V206Z" fill="#F9FAFB"/>
<path d="M613 277H190V279H613V277Z" fill="#E4E7EC" mask="url(#path-25-inside-8_8678_80135)"/>
<rect x="214" y="232" width="126" height="20" rx="4" fill="url(#paint0_linear_8678_80135)"/>
<path d="M365.003 232L356.096 242.688C355.747 243.106 355.573 243.316 355.57 243.492C355.568 243.646 355.637 243.792 355.756 243.889C355.894 244 356.166 244 356.711 244H364.003L363.003 252L371.909 241.312C372.258 240.894 372.433 240.684 372.435 240.508C372.438 240.354 372.369 240.208 372.25 240.111C372.112 240 371.84 240 371.295 240H364.003L365.003 232Z" stroke="url(#paint1_linear_8678_80135)" stroke-width="2" stroke-linecap="round" stroke-linejoin="round"/>
<path d="M379.148 248V236.364H383.602C384.443 236.364 385.142 236.496 385.699 236.761C386.259 237.023 386.678 237.381 386.955 237.835C387.235 238.29 387.375 238.805 387.375 239.381C387.375 239.854 387.284 240.259 387.102 240.597C386.92 240.93 386.676 241.201 386.369 241.409C386.062 241.617 385.72 241.767 385.341 241.858V241.972C385.754 241.994 386.15 242.121 386.528 242.352C386.911 242.58 387.223 242.902 387.466 243.318C387.708 243.735 387.83 244.239 387.83 244.83C387.83 245.432 387.684 245.973 387.392 246.455C387.1 246.932 386.661 247.309 386.074 247.585C385.487 247.862 384.748 248 383.858 248H379.148ZM381.256 246.239H383.523C384.288 246.239 384.839 246.093 385.176 245.801C385.517 245.506 385.688 245.127 385.688 244.665C385.688 244.32 385.602 244.009 385.432 243.733C385.261 243.453 385.019 243.233 384.705 243.074C384.39 242.911 384.015 242.83 383.58 242.83H381.256V246.239ZM381.256 241.312H383.341C383.705 241.312 384.032 241.246 384.324 241.114C384.616 240.977 384.845 240.786 385.011 240.54C385.182 240.29 385.267 239.994 385.267 239.653C385.267 239.203 385.108 238.831 384.79 238.54C384.475 238.248 384.008 238.102 383.386 238.102H381.256V241.312ZM393.379 248.17C392.527 248.17 391.788 247.983 391.163 247.608C390.538 247.233 390.054 246.708 389.709 246.034C389.368 245.36 389.197 244.572 389.197 243.67C389.197 242.769 389.368 241.979 389.709 241.301C390.054 240.623 390.538 240.097 391.163 239.722C391.788 239.347 392.527 239.159 393.379 239.159C394.232 239.159 394.97 239.347 395.595 239.722C396.22 240.097 396.703 240.623 397.044 241.301C397.389 241.979 397.561 242.769 397.561 243.67C397.561 244.572 397.389 245.36 397.044 246.034C396.703 246.708 396.22 247.233 395.595 247.608C394.97 247.983 394.232 248.17 393.379 248.17ZM393.391 246.523C393.853 246.523 394.239 246.396 394.55 246.142C394.86 245.884 395.091 245.54 395.243 245.108C395.398 244.676 395.476 244.195 395.476 243.665C395.476 243.131 395.398 242.648 395.243 242.216C395.091 241.78 394.86 241.434 394.55 241.176C394.239 240.919 393.853 240.79 393.391 240.79C392.917 240.79 392.523 240.919 392.209 241.176C391.898 241.434 391.665 241.78 391.51 242.216C391.358 242.648 391.283 243.131 391.283 243.665C391.283 244.195 391.358 244.676 391.51 245.108C391.665 245.54 391.898 245.884 392.209 246.142C392.523 246.396 392.917 246.523 393.391 246.523ZM403.114 248.17C402.261 248.17 401.523 247.983 400.898 247.608C400.273 247.233 399.788 246.708 399.443 246.034C399.102 245.36 398.932 244.572 398.932 243.67C398.932 242.769 399.102 241.979 399.443 241.301C399.788 240.623 400.273 240.097 400.898 239.722C401.523 239.347 402.261 239.159 403.114 239.159C403.966 239.159 404.705 239.347 405.33 239.722C405.955 240.097 406.438 240.623 406.778 241.301C407.123 241.979 407.295 242.769 407.295 243.67C407.295 244.572 407.123 245.36 406.778 246.034C406.438 246.708 405.955 247.233 405.33 247.608C404.705 247.983 403.966 248.17 403.114 248.17ZM403.125 246.523C403.587 246.523 403.973 246.396 404.284 246.142C404.595 245.884 404.826 245.54 404.977 245.108C405.133 244.676 405.21 244.195 405.21 243.665C405.21 243.131 405.133 242.648 404.977 242.216C404.826 241.78 404.595 241.434 404.284 241.176C403.973 240.919 403.587 240.79 403.125 240.79C402.652 240.79 402.258 240.919 401.943 241.176C401.633 241.434 401.4 241.78 401.244 242.216C401.093 242.648 401.017 243.131 401.017 243.665C401.017 244.195 401.093 244.676 401.244 245.108C401.4 245.54 401.633 245.884 401.943 246.142C402.258 246.396 402.652 246.523 403.125 246.523ZM415.939 241.58L414.064 241.784C414.011 241.595 413.918 241.417 413.786 241.25C413.657 241.083 413.482 240.949 413.263 240.847C413.043 240.744 412.774 240.693 412.456 240.693C412.028 240.693 411.668 240.786 411.376 240.972C411.089 241.157 410.946 241.398 410.95 241.693C410.946 241.947 411.039 242.153 411.229 242.312C411.422 242.472 411.74 242.602 412.183 242.705L413.672 243.023C414.498 243.201 415.111 243.483 415.513 243.869C415.918 244.256 416.123 244.761 416.126 245.386C416.123 245.936 415.962 246.42 415.643 246.841C415.329 247.258 414.892 247.583 414.331 247.818C413.77 248.053 413.126 248.17 412.399 248.17C411.331 248.17 410.471 247.947 409.82 247.5C409.168 247.049 408.78 246.422 408.655 245.619L410.661 245.426C410.751 245.82 410.945 246.117 411.24 246.318C411.536 246.519 411.92 246.619 412.393 246.619C412.882 246.619 413.274 246.519 413.57 246.318C413.869 246.117 414.018 245.869 414.018 245.574C414.018 245.324 413.922 245.117 413.729 244.955C413.539 244.792 413.244 244.667 412.842 244.58L411.354 244.267C410.517 244.093 409.897 243.799 409.496 243.386C409.094 242.97 408.895 242.443 408.899 241.807C408.895 241.269 409.041 240.803 409.337 240.409C409.636 240.011 410.051 239.705 410.581 239.489C411.115 239.269 411.731 239.159 412.428 239.159C413.45 239.159 414.255 239.377 414.842 239.812C415.433 240.248 415.799 240.837 415.939 241.58ZM422.18 239.273V240.864H417.163V239.273H422.18ZM418.402 237.182H420.459V245.375C420.459 245.652 420.5 245.864 420.584 246.011C420.671 246.155 420.785 246.254 420.925 246.307C421.065 246.36 421.22 246.386 421.391 246.386C421.519 246.386 421.637 246.377 421.743 246.358C421.853 246.339 421.936 246.322 421.993 246.307L422.339 247.915C422.23 247.953 422.072 247.994 421.868 248.04C421.667 248.085 421.421 248.112 421.129 248.119C420.614 248.134 420.15 248.057 419.737 247.886C419.324 247.712 418.997 247.443 418.754 247.08C418.516 246.716 418.398 246.261 418.402 245.716V237.182ZM427.67 248.17C426.795 248.17 426.04 247.989 425.403 247.625C424.771 247.258 424.284 246.739 423.943 246.068C423.602 245.394 423.432 244.6 423.432 243.688C423.432 242.79 423.602 242.002 423.943 241.324C424.288 240.642 424.769 240.112 425.386 239.733C426.004 239.35 426.729 239.159 427.562 239.159C428.1 239.159 428.608 239.246 429.085 239.42C429.566 239.591 429.991 239.856 430.358 240.216C430.729 240.576 431.021 241.034 431.233 241.591C431.445 242.144 431.551 242.803 431.551 243.568V244.199H424.398V242.812H429.58C429.576 242.419 429.491 242.068 429.324 241.761C429.157 241.451 428.924 241.206 428.625 241.028C428.33 240.85 427.985 240.761 427.591 240.761C427.17 240.761 426.801 240.864 426.483 241.068C426.165 241.269 425.917 241.534 425.739 241.864C425.564 242.189 425.475 242.547 425.472 242.938V244.148C425.472 244.655 425.564 245.091 425.75 245.455C425.936 245.814 426.195 246.091 426.528 246.284C426.862 246.473 427.252 246.568 427.699 246.568C427.998 246.568 428.269 246.527 428.511 246.443C428.754 246.356 428.964 246.229 429.142 246.062C429.32 245.896 429.455 245.689 429.545 245.443L431.466 245.659C431.345 246.167 431.114 246.61 430.773 246.989C430.436 247.364 430.004 247.655 429.477 247.864C428.951 248.068 428.348 248.17 427.67 248.17ZM436.53 248.153C435.844 248.153 435.231 247.977 434.689 247.625C434.147 247.273 433.719 246.761 433.405 246.091C433.09 245.42 432.933 244.606 432.933 243.648C432.933 242.678 433.092 241.86 433.411 241.193C433.732 240.523 434.166 240.017 434.712 239.676C435.257 239.331 435.865 239.159 436.536 239.159C437.047 239.159 437.467 239.246 437.797 239.42C438.126 239.591 438.388 239.797 438.581 240.04C438.774 240.278 438.924 240.504 439.03 240.716H439.115V236.364H441.178V248H439.155V246.625H439.03C438.924 246.837 438.77 247.062 438.57 247.301C438.369 247.536 438.104 247.737 437.774 247.903C437.445 248.07 437.03 248.153 436.53 248.153ZM437.104 246.466C437.539 246.466 437.911 246.348 438.217 246.114C438.524 245.875 438.757 245.544 438.916 245.119C439.075 244.695 439.155 244.201 439.155 243.636C439.155 243.072 439.075 242.581 438.916 242.165C438.761 241.748 438.53 241.424 438.223 241.193C437.92 240.962 437.547 240.847 437.104 240.847C436.645 240.847 436.263 240.966 435.956 241.205C435.649 241.443 435.418 241.773 435.263 242.193C435.107 242.614 435.03 243.095 435.03 243.636C435.03 244.182 435.107 244.669 435.263 245.097C435.422 245.521 435.655 245.856 435.962 246.102C436.272 246.345 436.653 246.466 437.104 246.466Z" fill="url(#paint2_linear_8678_80135)"/>
<mask id="path-30-inside-9_8678_80135" fill="white">
<path d="M190 134H613V206H190V134Z"/>
</mask>
<path d="M613 205H190V207H613V205Z" fill="#E4E7EC" mask="url(#path-30-inside-9_8678_80135)"/>
<rect x="214" y="160" width="158" height="20" rx="4" fill="url(#paint3_linear_8678_80135)"/>
<path d="M397.003 160L388.096 170.688C387.747 171.106 387.573 171.316 387.57 171.492C387.568 171.646 387.637 171.792 387.756 171.889C387.894 172 388.166 172 388.711 172H396.003L395.003 180L403.909 169.312C404.258 168.894 404.433 168.684 404.435 168.508C404.438 168.354 404.369 168.208 404.25 168.111C404.112 168 403.84 168 403.295 168H396.003L397.003 160Z" stroke="url(#paint4_linear_8678_80135)" stroke-width="2" stroke-linecap="round" stroke-linejoin="round"/>
<path d="M411.148 176V164.364H415.602C416.443 164.364 417.142 164.496 417.699 164.761C418.259 165.023 418.678 165.381 418.955 165.835C419.235 166.29 419.375 166.805 419.375 167.381C419.375 167.854 419.284 168.259 419.102 168.597C418.92 168.93 418.676 169.201 418.369 169.409C418.062 169.617 417.72 169.767 417.341 169.858V169.972C417.754 169.994 418.15 170.121 418.528 170.352C418.911 170.58 419.223 170.902 419.466 171.318C419.708 171.735 419.83 172.239 419.83 172.83C419.83 173.432 419.684 173.973 419.392 174.455C419.1 174.932 418.661 175.309 418.074 175.585C417.487 175.862 416.748 176 415.858 176H411.148ZM413.256 174.239H415.523C416.288 174.239 416.839 174.093 417.176 173.801C417.517 173.506 417.688 173.127 417.688 172.665C417.688 172.32 417.602 172.009 417.432 171.733C417.261 171.453 417.019 171.233 416.705 171.074C416.39 170.911 416.015 170.83 415.58 170.83H413.256V174.239ZM413.256 169.312H415.341C415.705 169.312 416.032 169.246 416.324 169.114C416.616 168.977 416.845 168.786 417.011 168.54C417.182 168.29 417.267 167.994 417.267 167.653C417.267 167.203 417.108 166.831 416.79 166.54C416.475 166.248 416.008 166.102 415.386 166.102H413.256V169.312ZM425.379 176.17C424.527 176.17 423.788 175.983 423.163 175.608C422.538 175.233 422.054 174.708 421.709 174.034C421.368 173.36 421.197 172.572 421.197 171.67C421.197 170.769 421.368 169.979 421.709 169.301C422.054 168.623 422.538 168.097 423.163 167.722C423.788 167.347 424.527 167.159 425.379 167.159C426.232 167.159 426.97 167.347 427.595 167.722C428.22 168.097 428.703 168.623 429.044 169.301C429.389 169.979 429.561 170.769 429.561 171.67C429.561 172.572 429.389 173.36 429.044 174.034C428.703 174.708 428.22 175.233 427.595 175.608C426.97 175.983 426.232 176.17 425.379 176.17ZM425.391 174.523C425.853 174.523 426.239 174.396 426.55 174.142C426.86 173.884 427.091 173.54 427.243 173.108C427.398 172.676 427.476 172.195 427.476 171.665C427.476 171.131 427.398 170.648 427.243 170.216C427.091 169.78 426.86 169.434 426.55 169.176C426.239 168.919 425.853 168.79 425.391 168.79C424.917 168.79 424.523 168.919 424.209 169.176C423.898 169.434 423.665 169.78 423.51 170.216C423.358 170.648 423.283 171.131 423.283 171.665C423.283 172.195 423.358 172.676 423.51 173.108C423.665 173.54 423.898 173.884 424.209 174.142C424.523 174.396 424.917 174.523 425.391 174.523ZM435.114 176.17C434.261 176.17 433.523 175.983 432.898 175.608C432.273 175.233 431.788 174.708 431.443 174.034C431.102 173.36 430.932 172.572 430.932 171.67C430.932 170.769 431.102 169.979 431.443 169.301C431.788 168.623 432.273 168.097 432.898 167.722C433.523 167.347 434.261 167.159 435.114 167.159C435.966 167.159 436.705 167.347 437.33 167.722C437.955 168.097 438.438 168.623 438.778 169.301C439.123 169.979 439.295 170.769 439.295 171.67C439.295 172.572 439.123 173.36 438.778 174.034C438.438 174.708 437.955 175.233 437.33 175.608C436.705 175.983 435.966 176.17 435.114 176.17ZM435.125 174.523C435.587 174.523 435.973 174.396 436.284 174.142C436.595 173.884 436.826 173.54 436.977 173.108C437.133 172.676 437.21 172.195 437.21 171.665C437.21 171.131 437.133 170.648 436.977 170.216C436.826 169.78 436.595 169.434 436.284 169.176C435.973 168.919 435.587 168.79 435.125 168.79C434.652 168.79 434.258 168.919 433.943 169.176C433.633 169.434 433.4 169.78 433.244 170.216C433.093 170.648 433.017 171.131 433.017 171.665C433.017 172.195 433.093 172.676 433.244 173.108C433.4 173.54 433.633 173.884 433.943 174.142C434.258 174.396 434.652 174.523 435.125 174.523ZM447.939 169.58L446.064 169.784C446.011 169.595 445.918 169.417 445.786 169.25C445.657 169.083 445.482 168.949 445.263 168.847C445.043 168.744 444.774 168.693 444.456 168.693C444.028 168.693 443.668 168.786 443.376 168.972C443.089 169.157 442.946 169.398 442.95 169.693C442.946 169.947 443.039 170.153 443.229 170.312C443.422 170.472 443.74 170.602 444.183 170.705L445.672 171.023C446.498 171.201 447.111 171.483 447.513 171.869C447.918 172.256 448.123 172.761 448.126 173.386C448.123 173.936 447.962 174.42 447.643 174.841C447.329 175.258 446.892 175.583 446.331 175.818C445.77 176.053 445.126 176.17 444.399 176.17C443.331 176.17 442.471 175.947 441.82 175.5C441.168 175.049 440.78 174.422 440.655 173.619L442.661 173.426C442.751 173.82 442.945 174.117 443.24 174.318C443.536 174.519 443.92 174.619 444.393 174.619C444.882 174.619 445.274 174.519 445.57 174.318C445.869 174.117 446.018 173.869 446.018 173.574C446.018 173.324 445.922 173.117 445.729 172.955C445.539 172.792 445.244 172.667 444.842 172.58L443.354 172.267C442.517 172.093 441.897 171.799 441.496 171.386C441.094 170.97 440.895 170.443 440.899 169.807C440.895 169.269 441.041 168.803 441.337 168.409C441.636 168.011 442.051 167.705 442.581 167.489C443.115 167.269 443.731 167.159 444.428 167.159C445.45 167.159 446.255 167.377 446.842 167.812C447.433 168.248 447.799 168.837 447.939 169.58ZM454.18 167.273V168.864H449.163V167.273H454.18ZM450.402 165.182H452.459V173.375C452.459 173.652 452.5 173.864 452.584 174.011C452.671 174.155 452.785 174.254 452.925 174.307C453.065 174.36 453.22 174.386 453.391 174.386C453.519 174.386 453.637 174.377 453.743 174.358C453.853 174.339 453.936 174.322 453.993 174.307L454.339 175.915C454.23 175.953 454.072 175.994 453.868 176.04C453.667 176.085 453.421 176.112 453.129 176.119C452.614 176.134 452.15 176.057 451.737 175.886C451.324 175.712 450.997 175.443 450.754 175.08C450.516 174.716 450.398 174.261 450.402 173.716V165.182ZM459.67 176.17C458.795 176.17 458.04 175.989 457.403 175.625C456.771 175.258 456.284 174.739 455.943 174.068C455.602 173.394 455.432 172.6 455.432 171.688C455.432 170.79 455.602 170.002 455.943 169.324C456.288 168.642 456.769 168.112 457.386 167.733C458.004 167.35 458.729 167.159 459.562 167.159C460.1 167.159 460.608 167.246 461.085 167.42C461.566 167.591 461.991 167.856 462.358 168.216C462.729 168.576 463.021 169.034 463.233 169.591C463.445 170.144 463.551 170.803 463.551 171.568V172.199H456.398V170.812H461.58C461.576 170.419 461.491 170.068 461.324 169.761C461.157 169.451 460.924 169.206 460.625 169.028C460.33 168.85 459.985 168.761 459.591 168.761C459.17 168.761 458.801 168.864 458.483 169.068C458.165 169.269 457.917 169.534 457.739 169.864C457.564 170.189 457.475 170.547 457.472 170.938V172.148C457.472 172.655 457.564 173.091 457.75 173.455C457.936 173.814 458.195 174.091 458.528 174.284C458.862 174.473 459.252 174.568 459.699 174.568C459.998 174.568 460.269 174.527 460.511 174.443C460.754 174.356 460.964 174.229 461.142 174.062C461.32 173.896 461.455 173.689 461.545 173.443L463.466 173.659C463.345 174.167 463.114 174.61 462.773 174.989C462.436 175.364 462.004 175.655 461.477 175.864C460.951 176.068 460.348 176.17 459.67 176.17ZM468.53 176.153C467.844 176.153 467.231 175.977 466.689 175.625C466.147 175.273 465.719 174.761 465.405 174.091C465.09 173.42 464.933 172.606 464.933 171.648C464.933 170.678 465.092 169.86 465.411 169.193C465.732 168.523 466.166 168.017 466.712 167.676C467.257 167.331 467.865 167.159 468.536 167.159C469.047 167.159 469.467 167.246 469.797 167.42C470.126 167.591 470.388 167.797 470.581 168.04C470.774 168.278 470.924 168.504 471.03 168.716H471.115V164.364H473.178V176H471.155V174.625H471.03C470.924 174.837 470.77 175.062 470.57 175.301C470.369 175.536 470.104 175.737 469.774 175.903C469.445 176.07 469.03 176.153 468.53 176.153ZM469.104 174.466C469.539 174.466 469.911 174.348 470.217 174.114C470.524 173.875 470.757 173.544 470.916 173.119C471.075 172.695 471.155 172.201 471.155 171.636C471.155 171.072 471.075 170.581 470.916 170.165C470.761 169.748 470.53 169.424 470.223 169.193C469.92 168.962 469.547 168.847 469.104 168.847C468.645 168.847 468.263 168.966 467.956 169.205C467.649 169.443 467.418 169.773 467.263 170.193C467.107 170.614 467.03 171.095 467.03 171.636C467.03 172.182 467.107 172.669 467.263 173.097C467.422 173.521 467.655 173.856 467.962 174.102C468.272 174.345 468.653 174.466 469.104 174.466Z" fill="url(#paint5_linear_8678_80135)"/>
<mask id="path-35-inside-10_8678_80135" fill="white">
<path d="M190 90H613V134H190V90Z"/>
</mask>
<path d="M190 90H613V134H190V90Z" fill="white"/>
<path d="M613 133H190V135H613V133Z" fill="#E4E7EC" mask="url(#path-35-inside-10_8678_80135)"/>
<rect x="214" y="103" width="125" height="18" rx="4" fill="#D0D5DD"/>
</g>
<rect x="61.5" y="90.5" width="480" height="331" rx="11.5" stroke="#E4E7EC"/>
</g>
<defs>
<filter id="filter0_d_8678_80135" x="25" y="78" width="553" height="404" filterUnits="userSpaceOnUse" color-interpolation-filters="sRGB">
<feFlood flood-opacity="0" result="BackgroundImageFix"/>
<feColorMatrix in="SourceAlpha" type="matrix" values="0 0 0 0 0 0 0 0 0 0 0 0 0 0 0 0 0 0 127 0" result="hardAlpha"/>
<feMorphology radius="12" operator="erode" in="SourceAlpha" result="effect1_dropShadow_8678_80135"/>
<feOffset dy="24"/>
<feGaussianBlur stdDeviation="24"/>
<feComposite in2="hardAlpha" operator="out"/>
<feColorMatrix type="matrix" values="0 0 0 0 0.0625882 0 0 0 0 0.0926346 0 0 0 0 0.15702 0 0 0 0.18 0"/>
<feBlend mode="normal" in2="BackgroundImageFix" result="effect1_dropShadow_8678_80135"/>
<feBlend mode="normal" in="SourceGraphic" in2="effect1_dropShadow_8678_80135" result="shape"/>
</filter>
<linearGradient id="paint0_linear_8678_80135" x1="214" y1="232" x2="220.193" y2="271.017" gradientUnits="userSpaceOnUse">
<stop stop-color="#F49062"/>
<stop offset="1" stop-color="#FD371F"/>
</linearGradient>
<linearGradient id="paint1_linear_8678_80135" x1="355.57" y1="232" x2="375.283" y2="248.623" gradientUnits="userSpaceOnUse">
<stop stop-color="#F49062"/>
<stop offset="1" stop-color="#FD371F"/>
</linearGradient>
<linearGradient id="paint2_linear_8678_80135" x1="378" y1="230" x2="393.597" y2="272.241" gradientUnits="userSpaceOnUse">
<stop stop-color="#F49062"/>
<stop offset="1" stop-color="#FD371F"/>
</linearGradient>
<linearGradient id="paint3_linear_8678_80135" x1="214" y1="160" x2="218.983" y2="199.369" gradientUnits="userSpaceOnUse">
<stop stop-color="#F49062"/>
<stop offset="1" stop-color="#FD371F"/>
</linearGradient>
<linearGradient id="paint4_linear_8678_80135" x1="387.57" y1="160" x2="407.283" y2="176.623" gradientUnits="userSpaceOnUse">
<stop stop-color="#F49062"/>
<stop offset="1" stop-color="#FD371F"/>
</linearGradient>
<linearGradient id="paint5_linear_8678_80135" x1="410" y1="158" x2="425.597" y2="200.241" gradientUnits="userSpaceOnUse">
<stop stop-color="#F49062"/>
<stop offset="1" stop-color="#FD371F"/>
</linearGradient>
<clipPath id="clip0_8678_80135">
<rect x="61" y="90" width="481" height="332" rx="12" fill="white"/>
</clipPath>
</defs>
</svg>
