<svg width="40" height="40" viewBox="0 0 40 40" fill="none" xmlns="http://www.w3.org/2000/svg">
<rect width="40" height="40" rx="20" fill="#F2F4F7"/>
<g opacity="0.08">
<rect x="0.375" y="0.375" width="39.25" height="39.25" rx="19.625" stroke="black" stroke-width="0.75"/>
</g>
<path d="M11 15.8C11 14.1198 11 13.2798 11.327 12.638C11.6146 12.0735 12.0735 11.6146 12.638 11.327C13.2798 11 14.1198 11 15.8 11H24.2C25.8802 11 26.7202 11 27.362 11.327C27.9265 11.6146 28.3854 12.0735 28.673 12.638C29 13.2798 29 14.1198 29 15.8V24.2C29 25.8802 29 26.7202 28.673 27.362C28.3854 27.9265 27.9265 28.3854 27.362 28.673C26.7202 29 25.8802 29 24.2 29H15.8C14.1198 29 13.2798 29 12.638 28.673C12.0735 28.3854 11.6146 27.9265 11.327 27.362C11 26.7202 11 25.8802 11 24.2V15.8Z" stroke="#475467" stroke-width="1.8" stroke-linecap="round" stroke-linejoin="round"/>
<path d="M17 17.5L14 23H26L21.5 15.5L19 19L17 17.5Z" stroke="#475467" stroke-width="1.8" stroke-linecap="round" stroke-linejoin="round"/>
</svg>
